<?xml version="1.0" standalone="no"?><!DOCTYPE svg PUBLIC "-//W3C//DTD SVG 1.1//EN" "http://www.w3.org/Graphics/SVG/1.1/DTD/svg11.dtd" ><svg xmlns="http://www.w3.org/2000/svg"><metadata></metadata><defs><font id="Founder:FZLanTingYuanS-DB1-GB	Regular" horiz-adv-x="256"><font-face font-family="FZLanTingYuanS-DB1-GB" font-weight="400" font-stretch="normal" units-per-em="256" panose-1="2 0 0 0 0 0 0 0 0 0" ascent="229" descent="-68" x-height="0" bbox="-6 -66 256 219" underline-thickness="12" underline-position="-56" unicode-range="U+0022-ff0c" /><missing-glyph horiz-adv-x="256"  /><glyph glyph-name="" unicode="&quot;" d="M6 138 l0 39 q0 14 14 14 q15 1 14 -14 l0 -39 q1 -14 -14 -14 q-14 0 -14 14 ZM52 138 l0 39 q0 14 14 14 q15 1 14 -14 l0 -39 q1 -14 -14 -14 q-14 0 -14 14 Z" /><glyph glyph-name="" unicode="&#39;" d="M25 141 l0 33 q0 18 13 17 q15 1 14 -17 l0 -34 q1 -15 -14 -16 q-13 0 -13 17 Z" /><glyph glyph-name="" unicode="(" d="M64 -35 q5 -9 5 -16 q-1 -12 -12 -14 q-9 0 -17 13 q-26 50 -27 115 q1 61 27 115 q7 13 16 13 q12 -1 13 -14 q0 -5 -6 -16 q-22 -51 -22 -98 q0 -53 23 -98 Z" /><glyph glyph-name="" unicode=")" d="M13 -35 q22 45 22 98 q0 51 -22 98 q0 1 -1 2 q-4 10 -4 14 q1 13 12 14 q11 -1 17 -13 q25 -52 26 -115 q-1 -67 -26 -115 q-8 -13 -17 -13 q-11 1 -12 14 q0 7 5 16 Z" /><glyph glyph-name="" unicode="," d="M27 -46 l1 0 q-10 -2 -15 6 q-5 11 6 16 q8 3 11 11 q-11 4 -11 17 q1 19 19 20 q20 0 20 -25 q-2 -34 -31 -45 Z" /><glyph glyph-name="" unicode="-" d="M144 78 l-109 0 q-17 -1 -16 14 q-1 14 16 13 l109 0 q18 1 17 -14 q1 -13 -17 -13 Z" /><glyph glyph-name="" unicode="." d="M19 8 q1 18 19 19 q19 -1 20 -19 q-1 -18 -20 -19 q-18 1 -19 19 Z" /><glyph glyph-name="" unicode="/" d="M16 9 l68 169 q6 17 19 12 q10 -1 10 -12 q0 -1 -1 -6 q1 3 -1 -3 l-68 -168 q-6 -15 -19 -12 q-13 6 -8 20 Z" /><glyph glyph-name="" unicode="0" d="M77 165 q-36 -3 -38 -75 q2 -73 38 -76 q37 1 38 76 q-2 72 -38 75 ZM77 191 q63 -2 66 -101 q-1 -100 -66 -101 q-65 3 -66 101 q3 98 66 101 Z" /><glyph glyph-name="" unicode="1" d="M63 5 l0 150 l-23 -13 q-13 -8 -20 7 l0 -1 q-5 13 9 20 l37 20 q23 9 25 -14 l0 -169 q0 -16 -14 -16 q-15 -1 -14 16 Z" /><glyph glyph-name="" unicode="2" d="M49 19 l75 0 q17 1 16 -12 q0 -13 -16 -13 l-91 0 q-19 0 -19 18 q0 10 5 19 q14 29 60 67 q32 24 30 44 q-2 22 -30 23 q-29 0 -36 -24 q-4 -19 -16 -17 q-13 2 -12 19 q10 46 64 48 q55 -2 58 -49 q2 -33 -41 -65 q-32 -26 -49 -53 q-1 -2 -1 -4 q1 -1 3 -1 Z" /><glyph glyph-name="" unicode="3" d="M14 144 l-1 0 q12 45 64 47 q59 -2 61 -54 q0 -27 -22 -42 q27 -14 28 -46 q-2 -58 -67 -60 q-52 2 -65 44 q-4 15 8 19 q14 3 18 -10 q9 -28 39 -28 q37 2 39 34 q1 34 -52 33 q-16 1 -16 13 q1 14 16 14 q46 0 46 29 q-1 27 -33 28 q-27 -1 -36 -25 q-3 -15 -16 -12 q-15 1 -11 16 Z" /><glyph glyph-name="" unicode="4" d="M97 34 l-70 0 q-18 1 -19 16 q0 7 8 18 l70 108 q10 16 21 15 q19 1 18 -23 l0 -108 l6 0 q15 0 14 -13 q1 -14 -14 -13 l-6 0 l0 -31 q1 -15 -14 -14 q-15 -1 -14 14 l0 31 ZM42 60 l55 0 l0 84 l-55 -84 Z" /><glyph glyph-name="" unicode="5" d="M50 160 l0 -47 q15 6 30 6 q59 -4 63 -62 q-1 -67 -69 -68 q-46 1 -61 42 q-4 14 10 18 q12 2 16 -10 q10 -25 35 -25 q40 1 41 43 q-2 35 -36 37 q-12 0 -25 -6 q-8 -4 -14 -4 q-17 0 -17 18 l0 67 q-1 18 19 17 l78 0 q17 1 16 -13 q1 -13 -15 -13 l-71 0 Z" /><glyph glyph-name="" unicode="6" d="M11 68 l0 20 q1 101 71 103 q39 -1 54 -28 q5 -11 -5 -19 q-11 -4 -19 6 q-13 15 -30 16 q-33 -2 -42 -59 q18 12 40 12 q61 -3 63 -65 q-2 -63 -66 -65 q-64 2 -66 79 ZM41 54 q2 -37 36 -40 q36 2 38 40 q-1 39 -38 40 q-34 -2 -36 -40 Z" /><glyph glyph-name="" unicode="7" d="M53 10 l58 149 l-84 0 q-17 -1 -16 13 q-1 15 16 14 l94 0 q21 0 21 -18 q0 -2 -1 -8 q1 4 -1 -2 l-60 -156 q-5 -17 -18 -13 q-15 3 -9 21 Z" /><glyph glyph-name="" unicode="8" d="M15 136 q5 52 62 55 q56 -4 60 -55 q0 -29 -19 -42 q25 -15 25 -46 q-3 -56 -66 -59 q-64 2 -66 59 q0 30 26 46 q-22 16 -22 42 ZM43 136 q3 -28 34 -30 q31 2 33 30 q-2 29 -33 30 q-32 -2 -34 -30 ZM39 48 q2 -32 38 -34 q36 2 38 34 q-3 31 -38 33 q-35 -2 -38 -33 Z" /><glyph glyph-name="" unicode="9" d="M143 119 l0 -35 q0 -95 -66 -95 q-44 1 -62 37 q-6 15 8 20 q12 3 18 -10 q12 -21 36 -22 q32 1 37 53 q-16 -11 -38 -11 q-61 4 -65 67 q4 64 66 68 q64 -3 66 -72 ZM115 122 q-1 42 -38 43 q-36 -1 -38 -43 q2 -38 37 -41 q37 2 39 41 Z" /><glyph glyph-name="" unicode=":" d="M19 8 q1 18 19 19 q19 -1 20 -19 q-1 -18 -20 -19 q-18 1 -19 19 ZM19 88 q1 17 19 18 q19 -1 20 -18 q-1 -19 -20 -20 q-18 1 -19 20 Z" /><glyph glyph-name="" unicode=";" d="M27 -46 l1 0 q-10 -2 -15 6 q-5 11 6 16 q8 3 11 11 q-11 4 -11 17 q1 19 19 20 q20 0 20 -25 q-2 -34 -31 -45 ZM19 88 q1 17 19 18 q19 -1 20 -18 q-1 -19 -20 -20 q-18 1 -19 20 Z" /><glyph glyph-name="" unicode="=" d="M138 108 l-110 0 q-16 0 -16 14 q-1 14 16 13 l110 0 q17 1 16 -13 q0 -14 -16 -14 ZM138 47 l-110 0 q-16 0 -16 14 q-1 14 16 13 l110 0 q17 1 16 -13 q0 -14 -16 -14 Z" /><glyph glyph-name="" unicode="a" d="M53 45 l-18 -44 q-4 -13 -16 -12 q-16 2 -11 21 l70 166 q6 16 19 15 q12 1 18 -15 l68 -166 q5 -19 -11 -21 q-10 -1 -15 11 l-19 45 l-85 0 ZM129 71 l-32 78 l-34 -78 l66 0 Z" /><glyph glyph-name="" unicode="b" d="M45 161 l0 -55 l39 0 q37 0 37 27 q1 29 -40 28 l-36 0 ZM17 10 l0 160 q0 16 17 16 l49 0 q67 0 67 -53 q0 -24 -20 -39 q25 -15 27 -41 q0 -59 -74 -59 l-49 0 q-17 0 -17 16 ZM45 80 l0 -61 l38 0 q47 -1 46 34 q-2 26 -45 27 l-39 0 Z" /><glyph glyph-name="" unicode="c" d="M141 145 q-14 20 -39 20 q-54 -7 -60 -75 q3 -72 59 -76 q32 2 43 31 q4 11 14 11 q16 0 13 -17 q-17 -48 -70 -50 q-83 5 -87 101 q6 94 88 101 q47 -2 64 -36 q5 -16 -12 -19 q-8 0 -13 9 Z" /><glyph glyph-name="" unicode="d" d="M17 9 l0 163 q0 14 17 14 l49 0 q92 -1 93 -95 q-1 -96 -89 -97 l-53 0 q-18 -1 -17 15 ZM45 161 l0 -142 l43 0 q58 1 59 72 q-1 69 -61 70 l-41 0 Z" /><glyph glyph-name="" unicode="e" d="M45 81 l0 -62 l84 0 q16 0 16 -13 q1 -13 -16 -12 l-96 0 q-16 -1 -16 14 l0 162 q-2 18 18 16 l93 0 q18 1 17 -13 q1 -13 -17 -12 l-83 0 l0 -55 l76 0 q17 1 16 -13 q1 -13 -16 -12 l-76 0 Z" /><glyph glyph-name="" unicode="f" d="M44 79 l0 -75 q0 -15 -14 -15 q-15 -1 -14 15 l0 168 q-1 15 15 14 l86 0 q19 0 18 -13 q1 -14 -18 -13 l-73 0 l0 -56 l67 0 q17 1 16 -13 q1 -13 -16 -12 l-67 0 Z" /><glyph glyph-name="" unicode="h" d="M45 81 l0 -78 q0 -15 -14 -14 q-14 -1 -14 14 l0 173 q-1 16 14 15 q15 0 14 -15 l0 -70 l92 0 l0 70 q0 15 14 15 q15 1 14 -15 l0 -172 q0 -16 -14 -15 q-14 -1 -14 15 l0 77 l-92 0 Z" /><glyph glyph-name="" unicode="i" d="M31 5 l0 169 q-1 18 14 17 q15 1 14 -17 l0 -169 q0 -16 -14 -16 q-15 -1 -14 16 Z" /><glyph glyph-name="" unicode="j" d="M92 45 l0 132 q0 14 14 14 q15 1 14 -15 l0 -131 q0 -55 -57 -56 q-40 1 -54 38 q-5 17 10 20 q12 2 17 -11 q7 -21 28 -22 q28 0 28 31 Z" /><glyph glyph-name="" unicode="l" d="M45 176 l0 -155 l80 0 q17 1 16 -14 q1 -14 -16 -13 l-91 0 q-17 0 -17 17 l0 165 q0 15 14 15 q15 0 14 -15 Z" /><glyph glyph-name="" unicode="m" d="M50 126 l0 -119 q0 -18 -15 -18 q-14 -2 -13 18 l0 164 q-1 21 18 20 q12 0 19 -16 l58 -140 l58 140 q8 16 19 16 q19 1 18 -20 l0 -165 q1 -18 -13 -17 q-15 0 -15 17 l0 120 l-51 -125 q-5 -12 -16 -12 q-10 0 -15 12 l-52 125 Z" /><glyph glyph-name="" unicode="o" d="M41 90 q3 -74 62 -76 q57 2 60 76 q-3 73 -60 75 q-58 -3 -62 -75 ZM191 90 q-2 -99 -89 -101 q-86 3 -89 101 q3 98 89 101 q86 -3 89 -101 Z" /><glyph glyph-name="" unicode="p" d="M45 67 l0 -64 q0 -15 -14 -14 q-14 0 -14 14 l0 168 q0 15 19 15 l48 0 q67 -1 69 -60 q-1 -58 -69 -59 l-39 0 ZM45 160 l0 -67 l42 0 q38 0 38 33 q-1 33 -38 34 l-42 0 Z" /><glyph glyph-name="" unicode="r" d="M46 75 l0 -72 q0 -15 -14 -14 q-14 0 -14 14 l0 167 q0 16 19 16 l50 0 q68 0 68 -56 q0 -48 -49 -54 l48 -62 q5 -6 5 -13 q-1 -11 -14 -12 q-7 0 -12 7 l-61 79 l-26 0 ZM46 160 l0 -60 l40 0 q42 0 41 30 q1 31 -38 30 l-43 0 Z" /><glyph glyph-name="" unicode="s" d="M14 36 l0 -1 q9 9 21 -1 q17 -19 43 -20 q45 1 46 33 q-1 27 -50 35 q-61 13 -62 54 q4 52 69 55 q40 0 59 -21 q6 -6 6 -12 q0 -8 -7 -11 q-8 -5 -19 5 q-14 13 -39 13 q-38 -2 -41 -29 q-1 -22 53 -31 q57 -14 59 -58 q-2 -57 -74 -58 q-44 2 -67 30 q-4 8 3 17 Z" /><glyph glyph-name="" unicode="t" d="M71 3 l0 156 l-45 0 q-18 0 -17 14 q-1 14 17 13 l120 0 q16 1 16 -14 q0 -12 -16 -13 l-46 0 l0 -156 q0 -15 -14 -14 q-15 1 -15 14 Z" /><glyph glyph-name="" unicode="w" d="M38 178 l34 -136 l37 132 q5 18 18 17 q13 1 18 -17 l39 -132 l33 135 q5 15 14 14 q18 -1 14 -20 l-41 -162 q-6 -21 -20 -20 q-14 -1 -20 20 l-37 128 l-36 -128 q-6 -21 -20 -20 q-14 -1 -20 20 l-40 163 q-4 18 12 19 q11 1 15 -13 Z" /><glyph glyph-name="" unicode="x" d="M90 70 l-52 -72 q-8 -10 -15 -9 q-12 1 -13 11 q0 6 5 14 l58 79 l-50 74 q-5 9 -5 14 q3 9 13 10 q8 1 16 -11 l44 -65 l44 65 q7 11 15 11 q12 -1 13 -11 q0 -7 -4 -14 l-51 -74 l57 -79 q5 -4 5 -12 q-1 -11 -14 -12 q-6 0 -14 10 l-52 71 Z" /><glyph glyph-name="" unicode="y" d="M76 5 l0 65 l-63 99 q-8 14 3 21 q11 5 21 -8 l52 -85 l53 84 q10 15 22 8 q13 -8 2 -22 l0 1 l-62 -98 l0 -65 q0 -16 -14 -16 q-15 -1 -14 16 Z" /><glyph glyph-name="" unicode="_" d="M121 -39 l-114 0 q-12 0 -13 13 q0 14 13 14 l114 0 q13 0 13 -14 q0 -13 -13 -13 Z" /><glyph glyph-name="" unicode="a" d="M123 93 l0 -89 q1 -16 -14 -15 q-11 0 -14 9 q-12 -9 -30 -9 q-55 3 -57 67 q4 65 76 68 q38 -1 39 -31 ZM95 47 l0 38 q1 16 -14 15 q-42 -3 -45 -44 q1 -41 29 -42 q30 0 30 33 Z" /><glyph glyph-name="" unicode="b" d="M41 65 l0 -32 q0 -19 22 -19 q48 1 49 44 q-1 39 -35 41 q-34 -1 -36 -34 ZM13 32 l0 145 q0 15 14 14 q15 1 14 -14 l0 -63 q14 10 36 10 q61 -2 63 -66 q-1 -68 -77 -69 q-50 0 -50 43 Z" /><glyph glyph-name="" unicode="c" d="M38 57 q2 -41 36 -43 q21 1 31 17 q7 9 15 8 q16 -3 11 -18 q-17 -31 -57 -32 q-62 3 -65 68 q4 63 66 67 q41 -2 54 -31 q5 -15 -10 -19 q-12 -2 -16 9 q-8 16 -28 17 q-35 -2 -37 -43 Z" /><glyph glyph-name="" unicode="d" d="M108 58 q-2 40 -36 41 q-33 -3 -36 -41 q2 -42 36 -44 q35 1 36 44 ZM107 115 l0 63 q0 13 14 13 q14 0 14 -13 l0 -176 q1 -14 -13 -13 q-13 -1 -15 11 q-15 -11 -35 -11 q-61 4 -64 69 q4 62 64 66 q21 0 35 -9 Z" /><glyph glyph-name="" unicode="e" d="M123 48 l-85 0 q5 -34 37 -35 q26 0 36 15 q9 12 19 7 q12 -6 6 -19 q-18 -26 -61 -27 q-65 1 -66 68 q2 65 67 67 q60 -3 64 -61 q1 -15 -17 -15 ZM38 72 l73 0 q-6 28 -36 29 q-29 -1 -37 -29 Z" /><glyph glyph-name="" unicode="f" d="M63 93 l0 -90 q0 -15 -14 -14 q-14 -1 -14 14 l0 90 l-13 0 q-16 0 -16 13 q-1 14 16 13 l13 0 l0 40 q-1 28 28 27 l16 0 q16 1 15 -13 q1 -14 -15 -13 l-12 0 q-3 0 -4 -4 l0 -37 l13 0 q18 2 17 -13 q1 -12 -17 -13 l-13 0 Z" /><glyph glyph-name="" unicode="g" d="M135 86 l0 -89 q1 -63 -66 -62 q-42 0 -60 27 q-5 10 6 17 l-1 0 q11 5 19 -5 q11 -15 37 -15 q38 -1 37 35 l0 7 q-15 -7 -36 -7 q-61 2 -63 61 q1 68 79 69 q47 -1 48 -38 ZM107 44 l0 38 q1 19 -20 18 q-51 0 -51 -44 q1 -37 35 -38 q37 -1 36 26 Z" /><glyph glyph-name="" unicode="h" d="M101 3 l0 64 q-1 29 -28 30 q-30 -2 -32 -33 l0 -61 q0 -15 -14 -14 q-14 -1 -14 14 l0 173 q0 15 14 15 q14 0 14 -15 l0 -63 q15 12 34 11 q53 -1 54 -57 l0 -64 q0 -15 -14 -14 q-14 -1 -14 14 Z" /><glyph glyph-name="" unicode="i" d="M24 4 l0 105 q0 16 14 15 q15 2 14 -15 l0 -105 q0 -15 -14 -15 q-14 0 -14 15 ZM22 173 q1 17 16 18 q16 -1 17 -18 q-1 -17 -16 -18 q-16 1 -17 18 Z" /><glyph glyph-name="" unicode="k" d="M42 50 l0 -47 q0 -14 -15 -14 q-12 -1 -13 14 l0 174 q1 14 13 14 q15 0 15 -15 l0 -95 l62 40 q5 3 11 3 q12 -1 13 -12 q0 -6 -8 -12 l-44 -28 l49 -59 q5 -6 5 -12 q-1 -11 -13 -12 q-6 0 -13 6 l-50 63 l-12 -8 Z" /><glyph glyph-name="" unicode="l" d="M18 5 l0 169 q0 18 14 17 q15 1 14 -17 l0 -169 q0 -16 -14 -16 q-14 0 -14 16 Z" /><glyph glyph-name="" unicode="m" d="M91 2 l0 75 q-1 23 -25 24 q-24 -1 -25 -26 l0 -72 q0 -15 -14 -14 q-14 0 -14 14 l0 107 q0 15 14 14 q12 1 13 -11 q14 11 31 11 q21 0 37 -14 q13 15 39 14 q49 -2 51 -50 l0 -72 q0 -13 -14 -13 q-15 1 -15 13 l0 70 q0 30 -25 29 q-24 -1 -25 -24 l0 -75 q0 -13 -14 -13 q-14 0 -14 13 Z" /><glyph glyph-name="" unicode="n" d="M13 3 l0 106 q0 15 14 15 q12 0 13 -10 q16 10 34 10 q54 -1 55 -52 l0 -70 q0 -13 -14 -13 q-14 0 -14 13 l0 69 q-1 28 -31 29 q-27 -2 -29 -28 l0 -69 q0 -15 -14 -14 q-14 -1 -14 14 Z" /><glyph glyph-name="" unicode="o" d="M116 56 q-2 43 -39 44 q-37 -1 -39 -44 q2 -41 39 -42 q37 1 39 42 ZM77 124 q62 -3 67 -67 q-4 -65 -67 -68 q-63 3 -67 68 q4 65 67 67 Z" /><glyph glyph-name="" unicode="p" d="M41 55 q2 -40 36 -43 q32 1 35 43 q-2 45 -36 46 q-33 -2 -35 -46 ZM13 -51 l0 162 q0 13 14 13 q12 1 14 -11 q16 11 36 11 q62 -2 63 -72 q-3 -60 -63 -63 q-20 0 -35 10 l0 -50 q0 -14 -15 -14 q-14 0 -14 14 Z" /><glyph glyph-name="" unicode="q" d="M110 50 l0 30 q0 21 -23 20 q-48 -2 -50 -47 q1 -38 37 -39 q35 1 36 36 ZM138 85 l0 -136 q0 -15 -14 -14 q-14 0 -14 14 l0 49 q-16 -9 -36 -9 q-63 2 -65 64 q2 70 79 71 q49 -1 50 -39 Z" /><glyph glyph-name="" unicode="r" d="M13 5 l0 104 q0 15 14 15 q13 0 14 -13 q15 13 32 13 q17 1 16 -13 q1 -13 -15 -14 q-31 -6 -33 -39 l0 -53 q1 -17 -14 -16 q-14 0 -14 16 Z" /><glyph glyph-name="" unicode="s" d="M110 84 q-9 -4 -18 5 q-13 11 -29 11 q-23 -1 -25 -14 q0 -10 30 -15 q55 -8 55 -40 q-1 -41 -59 -42 q-40 2 -57 28 q-6 11 6 17 q11 4 18 -5 q12 -15 33 -15 q30 1 31 16 q0 12 -31 17 q-54 6 -54 39 q2 36 54 38 q34 -1 51 -21 q7 -12 -5 -19 Z" /><glyph glyph-name="" unicode="t" d="M32 119 l0 20 q0 16 14 15 q15 1 14 -15 l0 -20 l18 0 q16 1 15 -14 q1 -13 -14 -13 l-19 0 l0 -67 q1 -3 4 -4 l16 0 q15 0 14 -14 q0 -13 -14 -13 l-19 0 q-30 -1 -29 28 l0 70 l-11 0 q-14 0 -14 14 q-1 14 14 13 l11 0 Z" /><glyph glyph-name="" unicode="u" d="M13 40 l0 70 q0 15 14 14 q15 1 14 -14 l0 -70 q-1 -27 30 -26 q30 0 30 26 l0 70 q0 15 14 14 q14 1 14 -14 l0 -106 q1 -16 -14 -15 q-11 0 -13 9 q-14 -9 -32 -9 q-57 0 -57 51 Z" /><glyph glyph-name="" unicode="v" d="M134 104 l-43 -100 q-7 -16 -19 -15 q-13 -1 -19 15 l-43 100 q-8 18 11 20 q10 1 15 -11 l36 -84 l36 84 q6 12 15 11 q19 -2 11 -20 Z" /><glyph glyph-name="" unicode="w" d="M37 113 l27 -79 l25 75 q4 16 18 15 q13 1 18 -15 l24 -74 l27 78 q2 11 14 11 q17 -1 13 -18 l-34 -99 q-6 -19 -20 -18 q-15 -1 -20 18 l-22 67 l-23 -67 q-5 -18 -20 -18 q-14 0 -20 18 l-34 97 q-5 19 12 20 q11 1 15 -11 Z" /><glyph glyph-name="" unicode="x" d="M69 39 l-37 -44 q-4 -6 -12 -6 q-20 4 -10 20 l-1 0 l42 49 l-38 46 q-8 15 10 20 q8 0 12 -4 l34 -41 l32 39 q5 6 13 6 q20 -4 10 -21 l-37 -44 l41 -48 q10 -17 -9 -22 q-8 0 -13 6 l-37 44 Z" /><glyph glyph-name="" unicode="y" d="M62 6 l-52 98 q-8 18 12 20 q8 0 13 -9 l42 -79 l37 77 q6 12 15 11 q19 -3 11 -21 l-78 -159 l0 1 q-5 -10 -13 -10 q-21 2 -13 20 l26 51 Z" /><glyph glyph-name="" unicode="{" d="M27 -37 l0 84 q0 3 -3 3 l-3 0 q-12 -1 -11 13 q-1 14 11 13 l3 0 q3 0 3 4 l0 81 q-1 31 29 30 l10 0 q15 0 14 -13 q1 -13 -14 -13 l-7 0 q-3 0 -4 -3 l0 -77 q0 -14 -7 -22 q7 -9 7 -21 l0 -78 q0 -3 4 -3 l7 0 q15 0 14 -13 q1 -13 -14 -13 l-10 0 q-30 -1 -29 28 Z" /><glyph glyph-name="" unicode="}" d="M34 -65 l-9 0 q-15 0 -15 13 q0 13 15 13 l6 0 q4 0 4 3 l0 78 q0 12 7 21 q-7 8 -7 22 l0 77 q0 3 -4 3 l-6 0 q-15 0 -15 13 q0 13 15 13 l9 0 q30 1 29 -30 l0 -81 q0 -4 3 -4 l3 0 q13 1 11 -13 q1 -14 -11 -13 l-3 0 q-3 0 -3 -3 l0 -84 q1 -29 -29 -28 Z" /><glyph glyph-name="" unicode="&#x3001;" d="M54 32 l41 -40 q6 -5 6 -11 q-1 -13 -14 -14 q-5 0 -13 6 l-40 39 q-9 10 -2 20 q9 9 22 0 Z" /><glyph glyph-name="" unicode="&#x3002;" d="M64 42 q35 -3 38 -38 q-2 -35 -38 -37 q-36 2 -38 37 q3 36 38 38 ZM64 17 q-12 0 -13 -13 q1 -12 13 -13 q13 0 13 13 q0 13 -13 13 Z" /><glyph glyph-name="" unicode="&#x4e00;" d="M21 77 q-15 2 -17 17 q2 15 17 17 l214 0 q15 -2 17 -17 q-2 -15 -17 -17 l-214 0 Z" /><glyph glyph-name="" unicode="&#x4e0a;" d="M22 -18 q-15 1 -16 15 q1 15 16 16 l77 0 l0 180 q2 15 17 17 q16 -2 18 -17 l0 -55 l84 0 q14 -1 15 -15 q-1 -14 -15 -15 l-84 0 l0 -95 l100 0 q14 -1 15 -16 q-1 -14 -15 -15 l-212 0 Z" /><glyph glyph-name="" unicode="&#x4e0b;" d="M21 164 q-15 1 -16 15 q1 15 16 16 l213 0 q14 -1 15 -16 q-1 -14 -15 -15 l-99 0 l0 -180 q-2 -15 -17 -17 q-16 1 -17 17 l0 180 l-80 0 ZM206 52 q-2 1 -5 4 q-40 28 -59 39 q-10 11 -2 22 q9 10 23 3 q13 -8 44 -28 q13 -9 19 -13 q12 -10 4 -24 q-9 -13 -24 -3 Z" /><glyph glyph-name="" unicode="&#x4e0e;" d="M126 -28 q-14 1 -17 17 q2 15 16 15 q16 0 35 0 q35 -2 34 25 q2 14 3 44 q1 7 1 10 q1 9 -8 8 l-132 0 q-18 1 -19 18 l8 88 q1 14 17 16 q15 -1 15 -16 l-1 -19 l155 0 q14 -1 15 -14 q-1 -13 -15 -14 l-158 0 l-2 -24 q-1 -6 7 -6 l134 0 q17 -1 18 -18 q-1 -12 -2 -36 q-2 -29 -3 -41 q0 -54 -55 -52 q-7 0 -24 -1 q-16 0 -22 0 ZM19 34 q-14 1 -15 14 q1 13 15 14 l149 0 q14 -1 15 -14 q-1 -13 -15 -14 l-149 0 Z" /><glyph glyph-name="" unicode="&#x4e2d;" d="M128 -33 q-16 2 -17 16 l0 65 l-71 0 q-22 -1 -21 21 l0 76 q-1 21 21 20 l71 0 l0 31 q1 14 17 16 q15 -2 16 -16 l0 -31 l72 0 q21 1 20 -20 l0 -76 q1 -21 -20 -21 l-72 0 l0 -65 q-1 -14 -16 -16 ZM197 136 l-53 0 l0 -58 l53 0 q7 1 7 7 l0 43 q0 8 -7 8 ZM51 128 l0 -43 q0 -7 8 -7 l52 0 l0 58 l-52 0 q-8 0 -8 -8 Z" /><glyph glyph-name="" unicode="&#x4e3a;" d="M40 -27 q-13 -8 -25 3 q-10 12 2 23 q71 48 81 124 l-73 0 q-13 1 -14 14 q1 13 14 14 l76 0 q2 21 3 46 q0 16 17 16 q15 -1 15 -16 q0 -24 -2 -46 l86 0 q17 -2 17 -18 q-1 -42 -6 -108 q-1 -49 -48 -50 q-14 -1 -35 -1 q-19 1 -19 18 q0 14 13 14 q16 0 29 0 q28 -3 29 30 q0 4 1 15 q2 43 3 65 q-1 6 -6 7 l-67 0 q-10 -93 -91 -150 ZM181 44 q-10 -9 -22 1 q-13 15 -22 23 q-8 11 1 20 q11 8 21 0 q12 -12 22 -22 q9 -12 0 -22 ZM80 165 q-9 -10 -22 -1 q-8 8 -20 18 q-10 9 -1 19 q10 9 21 2 q3 -2 8 -7 q9 -7 13 -10 q10 -10 1 -21 Z" /><glyph glyph-name="" unicode="&#x4e66;" d="M166 -7 q-13 0 -15 14 q0 14 13 14 q9 0 20 0 q22 -1 22 17 q0 2 0 10 q1 8 1 11 q0 8 -7 8 l-77 0 l0 -85 q-1 -15 -16 -16 q-14 1 -15 16 l0 85 l-72 0 q-13 1 -14 14 q1 13 14 14 l72 0 l0 43 l-57 0 q-13 1 -14 14 q1 13 14 14 l57 0 l0 30 q1 15 15 16 q15 -1 16 -16 l0 -30 l68 0 q16 -1 16 -16 l-3 -55 l18 0 q16 -1 17 -17 q0 -22 -2 -45 q-1 -39 -40 -40 q-14 0 -31 0 ZM169 138 l-46 0 l0 -43 l49 0 l3 37 q0 6 -6 6 ZM217 152 q-8 7 -29 22 q-4 3 -6 4 q-9 8 -2 19 q9 9 21 2 q9 -5 30 -20 q-3 2 4 -3 q10 -9 4 -21 q-9 -10 -22 -3 Z" /><glyph glyph-name="" unicode="&#x4e8c;" d="M42 150 q-15 1 -16 16 q1 15 16 16 l171 0 q16 -2 17 -16 q-1 -14 -17 -16 l-171 0 ZM24 -6 q-15 1 -16 16 q2 16 16 17 l207 0 q15 -2 17 -17 q-1 -14 -17 -16 l-207 0 Z" /><glyph glyph-name="" unicode="&#x4ea7;" d="M102 113 q-3 -2 -7 -2 l54 0 q1 1 1 2 q1 1 1 1 q6 11 18 30 q9 13 22 7 q12 -6 6 -20 q-3 -3 -12 -15 q-2 -4 -3 -5 l49 0 q12 -1 13 -14 q-1 -13 -13 -14 l-162 0 q-7 0 -7 -6 l0 -10 q0 -56 -25 -91 q-10 -12 -22 -5 q-13 8 -5 22 q22 27 21 78 l0 24 q0 16 16 16 l45 0 q-7 0 -12 7 q-1 2 -5 8 q-4 5 -6 7 q-7 10 4 19 q12 6 21 -4 q2 -2 6 -7 q4 -6 5 -8 q8 -12 -3 -20 ZM24 157 q-13 1 -14 13 q1 13 14 14 l96 0 q-1 5 -3 9 q-4 12 10 18 q15 3 20 -10 q4 -8 7 -17 l82 0 q13 -1 14 -14 q-1 -12 -14 -13 l-212 0 Z" /><glyph glyph-name="" unicode="&#x4eba;" d="M35 -27 q-13 -8 -25 4 q-7 15 5 24 q85 51 93 148 q2 28 2 46 q3 15 17 16 q15 -3 16 -18 q0 -4 0 -12 q-1 -8 -1 -13 q11 -118 99 -164 q12 -9 4 -24 q-10 -14 -27 -5 q-69 41 -90 124 q-18 -78 -93 -126 Z" /><glyph glyph-name="" unicode="&#x4ed8;" d="M95 130 q-13 1 -14 14 q1 14 14 15 l89 0 l0 37 q1 14 16 15 q15 -1 16 -15 l0 -37 l19 0 q13 -1 14 -15 q-1 -13 -14 -14 l-19 0 l0 -118 q1 -40 -37 -40 q-16 0 -33 0 q-15 1 -16 15 q0 14 14 14 q11 0 21 0 q20 -1 19 19 l0 110 l-89 0 ZM31 86 q-9 -12 -21 -4 q-10 10 -1 24 q31 47 45 94 q6 13 21 10 q12 -5 9 -21 q-8 -21 -17 -41 l0 -166 q-1 -14 -15 -15 q-14 1 -15 15 l0 113 l-6 -9 ZM146 45 q-12 -8 -22 3 q-18 26 -29 39 q-5 10 4 19 q10 7 20 -3 q16 -18 30 -37 q7 -12 -3 -21 Z" /><glyph glyph-name="" unicode="&#x4ee5;" d="M121 -27 q-17 -6 -25 5 q-7 14 6 24 q84 38 82 131 q0 8 0 27 q1 22 1 33 q2 13 16 15 q14 -1 16 -17 q0 -29 -2 -59 q-1 -45 -14 -76 q7 -7 23 -26 q14 -17 20 -23 q9 -15 -2 -26 q-14 -8 -24 5 q-5 5 -15 18 q-12 16 -18 23 q-20 -27 -64 -54 ZM33 -6 q-11 4 -11 21 l0 175 q1 14 16 16 q15 -1 16 -16 l0 -148 q1 -5 5 -2 q9 5 29 20 q8 5 12 8 q13 8 21 -3 q8 -13 -5 -24 q-19 -14 -61 -43 q-12 -9 -22 -4 ZM135 132 q-12 -6 -22 6 q-11 22 -25 46 q-7 12 5 20 q13 6 21 -6 q4 -6 14 -22 q9 -16 13 -22 q6 -15 -6 -22 Z" /><glyph glyph-name="" unicode="&#x4f5c;" d="M83 98 q-11 8 -4 22 q25 35 39 78 q6 14 20 12 q13 -4 10 -18 q-1 -3 -3 -9 q-3 -6 -4 -9 l97 0 q13 -1 14 -14 q-1 -13 -14 -14 l-70 0 l0 -35 l57 0 q12 -1 13 -13 q-1 -13 -13 -14 l-57 0 l0 -35 l64 0 q13 -1 14 -14 q-2 -13 -14 -14 l-64 0 l0 -40 q-1 -14 -15 -15 q-13 1 -15 15 l0 165 l-8 0 l-2 0 q-11 -24 -23 -42 q-9 -15 -22 -6 ZM10 75 q-6 3 -6 12 q0 6 3 12 q30 50 46 100 q5 13 19 11 q13 -5 11 -19 q-7 -19 -15 -39 l0 -172 q-1 -13 -15 -14 q-14 1 -15 14 l0 115 q-4 -7 -9 -15 q-7 -11 -19 -5 Z" /><glyph glyph-name="" unicode="&#x4f7f;" d="M88 158 q-11 1 -12 12 q1 12 12 13 l59 0 l0 15 q1 15 15 16 q14 -1 15 -16 l0 -15 l60 0 q12 -1 13 -13 q-2 -11 -13 -12 l-60 0 l0 -20 l44 0 q16 -1 17 -17 l0 -46 q-1 -16 -17 -17 l-48 0 q-3 -27 -13 -43 q24 -11 77 -15 q13 -4 10 -18 q-4 -12 -18 -10 q-56 7 -88 22 q-18 -13 -49 -23 q-13 -6 -21 6 q-6 13 7 19 q23 8 36 15 q-6 5 -17 17 q-3 3 -4 5 q-6 9 2 17 q9 6 18 -2 q9 -10 20 -19 q7 12 10 29 l-42 0 q-15 2 -17 17 l0 46 q1 16 17 17 l46 0 l0 20 l-59 0 ZM9 77 q-6 3 -6 12 q0 6 3 12 q25 44 41 98 q5 13 19 11 q13 -5 10 -19 q-7 -24 -16 -45 l0 -165 q-1 -13 -14 -14 q-13 1 -14 14 l0 110 q-1 -1 -2 -4 q-2 -3 -3 -5 q-8 -10 -18 -5 ZM146 82 q0 4 0 13 q1 12 1 18 l0 1 l-29 0 q-6 0 -6 -6 l0 -20 q0 -6 6 -6 l28 0 ZM205 82 q5 0 5 6 l0 20 q0 6 -5 6 l-28 0 q0 -6 -1 -17 q0 -10 0 -15 l29 0 Z" /><glyph glyph-name="" unicode="&#x4fe1;" d="M105 -23 q-17 1 -18 19 l0 46 q1 18 18 19 l113 0 q19 0 19 -19 l0 -46 q0 -19 -19 -19 l-113 0 ZM9 77 q-6 3 -7 12 q0 6 3 12 q27 42 43 97 q4 14 19 11 q13 -5 10 -18 q-7 -22 -16 -43 l0 -168 q-1 -13 -14 -14 q-13 1 -14 14 l0 113 q-1 -1 -3 -5 q-3 -3 -4 -5 q-7 -11 -17 -6 ZM88 156 q-12 1 -13 14 q1 12 13 13 l59 0 q0 1 -1 3 q-2 5 -3 8 q-4 13 11 18 q15 3 20 -10 q3 -9 6 -17 q0 -2 0 -2 l57 0 q13 -2 14 -13 q-1 -12 -14 -14 l-149 0 ZM97 78 q-10 1 -11 11 q1 11 11 12 l130 0 q11 -1 12 -12 q-1 -10 -12 -11 l-130 0 ZM97 117 q-11 1 -12 12 q1 10 12 11 l130 0 q10 -1 11 -11 q-1 -11 -11 -12 l-130 0 ZM115 29 l0 -20 q1 -6 7 -7 l79 0 q7 1 7 7 l0 20 q0 7 -7 7 l-79 0 q-6 0 -7 -7 Z" /><glyph glyph-name="" unicode="&#x513f;" d="M182 -23 q-43 -3 -40 43 l0 175 q1 15 16 16 q15 -1 16 -16 l0 -171 q-1 -18 13 -16 l10 0 q16 -1 18 18 q1 5 2 20 q1 7 1 10 q4 15 18 13 q13 -2 12 -19 q-2 -23 -5 -41 q-4 -34 -45 -32 l-16 0 ZM37 -25 q-14 -10 -26 -1 q-10 13 1 25 q30 25 41 52 q10 27 10 78 l0 66 q1 15 16 16 q15 -1 16 -16 l0 -72 q4 -97 -58 -148 Z" /><glyph glyph-name="" unicode="&#x5154;" d="M30 119 q-12 -7 -21 3 q-6 12 5 21 q41 29 63 61 q10 13 24 7 q11 -7 4 -18 l-1 -3 l78 0 q12 -1 14 -11 q0 -9 -7 -17 l-20 -20 l36 0 q17 -1 18 -18 l0 -47 q-1 -16 -18 -18 l-74 0 l0 -1 q2 1 3 1 q13 -1 14 -15 l0 -29 q-1 -16 15 -15 l37 0 q14 -1 18 15 q1 3 1 8 q1 5 1 8 q2 14 16 12 q13 -2 12 -18 q0 -2 -2 -10 q-1 -10 -2 -12 q-6 -30 -39 -29 l-50 0 q-36 0 -36 35 l0 24 q-20 -34 -83 -62 q-16 -6 -24 5 q-6 13 6 22 q66 24 82 61 l-51 0 q-16 2 -18 18 l0 42 l-1 0 ZM188 118 l-46 0 q-2 -18 -5 -35 l51 0 q6 0 6 6 l0 23 q0 6 -6 6 ZM59 112 l0 -23 q1 -5 6 -6 l43 0 q2 8 4 29 q0 4 0 6 l-47 0 q-5 -1 -6 -6 ZM146 166 l-62 0 q-10 -12 -24 -24 l72 0 l17 17 q3 3 2 5 q0 2 -5 2 ZM182 17 q-4 3 -13 12 q-3 4 -4 5 q-6 9 2 16 q10 6 18 -2 q9 -8 17 -17 q7 -11 -2 -17 q-10 -7 -18 3 Z" /><glyph glyph-name="" unicode="&#x5165;" d="M35 -22 q-14 -9 -25 3 q-9 13 4 25 q72 52 95 141 q-13 21 -30 37 q-9 11 1 21 q11 7 24 -4 q26 -23 53 -83 q35 -78 86 -110 q12 -13 2 -28 q-14 -12 -28 0 q-53 41 -88 129 q-27 -77 -94 -131 Z" /><glyph glyph-name="" unicode="&#x524d;" d="M36 -35 q-12 1 -14 14 l0 138 q1 18 19 19 l74 0 q18 0 18 -19 l0 -112 q1 -32 -28 -32 q-2 0 -11 0 q-11 -1 -14 -1 q-13 1 -14 14 q1 13 12 12 q8 0 15 0 q14 -1 13 12 l0 15 l-57 0 l0 -46 q-2 -13 -13 -14 ZM67 211 q12 4 22 -6 q2 -2 7 -9 q6 -7 7 -9 q3 -3 3 -7 l43 0 q8 11 19 25 q10 11 23 5 q10 -8 4 -19 q-4 -5 -9 -11 l51 0 q12 -1 13 -12 q-1 -12 -13 -13 l-218 0 q-12 1 -13 13 q1 11 13 12 l52 0 q-6 8 -10 13 q-6 11 6 18 ZM220 146 q12 -1 13 -14 l0 -123 q2 -37 -32 -36 q-7 -1 -28 -1 q-14 1 -16 14 q1 13 13 14 l19 0 q18 -1 17 16 l0 116 q1 13 14 14 ZM169 135 q11 -1 12 -12 l0 -95 q-1 -12 -12 -13 q-12 1 -13 13 l0 95 q1 11 13 12 ZM49 68 l0 -21 l57 0 l0 21 l-57 0 ZM49 104 l0 -13 l57 0 l0 13 q1 9 -8 8 l-41 0 q-8 0 -8 -8 Z" /><glyph glyph-name="" unicode="&#x529b;" d="M110 214 q15 -1 16 -18 q-2 -16 -2 -36 l91 0 q18 -1 19 -19 q-2 -64 -5 -114 q-1 -50 -51 -51 q-23 -2 -44 0 q-18 1 -19 17 q1 14 17 15 q11 -1 35 -1 q30 -1 30 34 q3 33 3 82 q0 7 -7 7 l-71 0 q-2 -109 -87 -157 q-14 -9 -25 3 q-7 14 4 24 q73 41 75 130 l-60 0 q-16 1 -17 15 q2 14 15 15 l64 0 q0 7 1 20 q0 12 0 17 q2 16 18 17 Z" /><glyph glyph-name="" unicode="&#x52a0;" d="M144 160 q1 17 18 18 l59 0 q18 0 18 -18 l0 -160 q0 -18 -18 -18 l-59 0 q-17 1 -18 18 l0 160 ZM55 214 q13 -1 14 -15 q0 -15 0 -32 l38 0 q17 0 17 -17 q0 -68 -2 -138 q0 -34 -32 -36 q-6 -1 -20 -1 q-19 2 -20 16 q1 15 14 14 q6 0 14 0 q14 0 15 18 q3 46 2 110 q1 8 -7 7 l-20 0 l0 -4 q-1 -116 -36 -162 q-8 -10 -21 -3 q-10 8 -3 23 q31 39 31 142 l0 4 l-19 0 q-13 1 -14 14 q1 12 14 13 l20 0 q0 17 0 32 q2 14 15 15 ZM172 145 l0 -130 q0 -5 5 -5 l28 0 q5 0 5 5 l0 130 q1 5 -5 5 l-28 0 q-5 0 -5 -5 Z" /><glyph glyph-name="" unicode="&#x52a9;" d="M167 214 q13 -2 14 -15 q-1 -18 -1 -38 l41 0 q17 0 17 -17 q0 -84 -3 -134 q0 -33 -31 -35 q-7 -1 -27 -1 q-17 0 -17 15 q1 14 14 14 q1 0 5 0 q8 -1 10 0 q17 0 18 16 q2 52 2 108 q0 7 -6 7 l-24 0 q0 -4 0 -8 q-1 -110 -46 -154 q-7 -8 -20 -2 q-12 10 -2 24 q2 1 3 3 q-63 -7 -94 -11 q-13 1 -16 14 q0 13 14 16 q2 0 3 0 l0 167 q-1 16 15 15 l65 0 q16 1 15 -15 l0 -158 q3 0 4 0 q6 0 11 -4 q18 32 20 105 l0 8 l-15 0 q-12 1 -13 14 q1 12 13 13 l16 0 q0 19 0 38 q2 14 15 15 ZM49 18 q7 1 20 2 q14 2 20 2 l0 34 l-40 0 l0 -38 ZM49 114 l0 -35 l40 0 l0 35 l-40 0 ZM49 167 l0 -29 l40 0 l0 28 q0 7 -7 7 l-27 0 q-6 0 -6 -6 Z" /><glyph glyph-name="" unicode="&#x534e;" d="M102 109 q-13 -4 -19 8 q-2 12 9 17 q20 6 38 14 l0 48 q1 13 15 14 q14 -1 15 -14 l0 -35 q28 13 53 29 q11 7 20 -2 q7 -11 -4 -19 q-31 -21 -69 -38 l0 -11 q-1 -16 17 -15 l20 0 q16 -1 18 13 q0 4 2 14 q3 13 17 11 q13 -4 12 -18 q-2 -5 -4 -19 q-1 -2 -1 -3 q-5 -25 -38 -24 l-38 0 q-37 -2 -35 35 l0 5 q-13 -6 -28 -10 ZM19 24 q-11 1 -13 14 q1 13 13 14 l93 0 l0 13 q1 15 16 16 q14 -1 15 -16 l0 -13 l93 0 q13 -1 14 -14 q-2 -13 -14 -14 l-93 0 l0 -42 q-1 -15 -15 -16 q-15 1 -16 16 l0 42 l-93 0 ZM30 121 q-12 -9 -21 3 q-6 13 4 23 q32 24 55 56 q9 12 22 5 q11 -7 4 -20 q-9 -12 -19 -23 l0 -78 q-1 -14 -14 -15 q-14 1 -15 15 l0 47 q-2 -2 -8 -6 q-5 -5 -8 -7 Z" /><glyph glyph-name="" unicode="&#x5355;" d="M46 56 q-18 1 -19 18 l0 81 q1 18 19 19 l31 0 q-10 12 -13 15 q-7 10 3 19 q12 6 21 -2 q2 -3 9 -10 q11 -14 16 -19 q0 0 1 -1 q0 -1 0 -2 l32 0 q2 4 9 13 q8 14 10 16 q10 14 23 7 q12 -6 6 -19 q-3 -3 -13 -17 l29 0 q18 -1 19 -19 l0 -81 q-1 -17 -19 -18 l-67 0 l0 -21 l95 0 q12 -1 13 -13 q-1 -13 -13 -14 l-95 0 l0 -26 q-1 -15 -15 -16 q-15 1 -16 16 l0 26 l-94 0 q-12 1 -13 14 q1 12 13 13 l94 0 l0 21 l-66 0 ZM192 81 q6 0 6 6 l0 17 l-55 0 l0 -23 l49 0 ZM192 149 l-49 0 l0 -23 l55 0 l0 16 q0 7 -6 7 ZM58 87 q0 -6 6 -6 l48 0 l0 23 l-54 0 l0 -17 ZM58 142 l0 -16 l54 0 l0 23 l-48 0 q-6 0 -6 -7 Z" /><glyph glyph-name="" unicode="&#x53ca;" d="M222 -26 q-39 13 -67 34 q-30 -21 -69 -37 q-16 -4 -23 8 q-4 15 8 21 q35 12 60 29 q-31 32 -48 71 q-7 -69 -48 -119 q-10 -10 -22 -3 q-10 12 -1 24 q42 46 44 141 q0 3 0 11 q1 10 1 15 l-30 0 q-12 1 -14 14 q1 13 14 14 l165 0 q14 -2 16 -14 q0 -15 -10 -27 l-15 -23 q-2 -4 3 -5 l31 0 q13 -1 14 -13 q0 -13 -7 -25 q-18 -36 -45 -61 q29 -19 57 -25 q14 -7 9 -22 q-6 -13 -23 -8 ZM163 169 l-76 0 q0 -12 -1 -25 q10 -1 13 -9 q19 -52 56 -87 q22 21 37 47 q2 3 1 5 q-1 1 -5 1 l-37 0 q-9 0 -12 8 q-4 12 4 21 l23 34 q2 2 1 4 q-1 1 -4 1 Z" /><glyph glyph-name="" unicode="&#x53cb;" d="M23 150 q-14 1 -15 14 q1 13 15 14 l53 0 q2 10 3 19 q3 15 18 15 q14 -4 13 -17 q0 -5 -2 -15 q2 7 0 -2 l127 0 q13 -1 14 -14 q-1 -13 -14 -14 l-133 0 q-3 -17 -7 -30 l114 0 q13 -2 15 -15 q0 -9 -8 -25 q-16 -33 -43 -56 q25 -13 62 -21 q13 -5 10 -21 q-6 -14 -22 -10 q-42 11 -76 32 q-31 -20 -76 -34 q-15 -4 -21 10 q-3 13 8 19 q39 11 65 26 q-18 18 -33 45 q-6 12 4 20 q11 5 20 -5 q15 -26 34 -44 q24 21 37 46 q2 2 1 4 q-1 2 -4 2 l-96 0 q-20 -56 -55 -99 q-10 -11 -21 -1 q-9 11 1 26 q42 48 59 131 l-47 0 Z" /><glyph glyph-name="" unicode="&#x53d1;" d="M29 133 q-11 0 -14 7 q-4 7 2 24 q6 16 12 31 q5 13 19 11 q13 -4 10 -18 q-6 -13 -9 -22 q-1 -3 0 -4 q1 -1 4 -1 l32 0 q5 18 9 39 q4 15 19 14 q15 -5 13 -18 q-4 -19 -9 -35 l120 0 q12 -1 14 -14 q-1 -13 -14 -14 l-128 0 q-1 -3 -3 -8 q-4 -11 -6 -16 l111 0 q12 -1 13 -13 q0 -12 -7 -22 q-18 -32 -44 -53 q24 -13 58 -20 q16 -6 13 -20 q-6 -15 -24 -11 q-44 11 -74 32 q-31 -18 -79 -34 q-16 -4 -22 10 q-3 14 10 19 q40 11 67 24 q-23 21 -38 52 q-23 -43 -51 -72 q-11 -10 -21 0 q-9 12 3 26 q39 40 61 106 l-47 0 ZM109 83 q15 -27 38 -46 q23 16 36 40 q3 6 -4 6 l-70 0 ZM192 166 q-5 5 -21 18 q-1 1 -2 2 q-7 7 -1 17 q10 7 20 1 q2 -2 7 -6 q13 -10 16 -13 q9 -9 1 -19 q-11 -9 -20 0 Z" /><glyph glyph-name="" unicode="&#x53ef;" d="M19 166 q-13 2 -14 15 q2 12 14 14 l218 0 q12 -1 14 -14 q-1 -14 -14 -15 l-19 0 l0 -151 q2 -41 -39 -42 q-11 -1 -36 -1 q-15 1 -18 16 q2 14 15 14 q13 0 25 0 q24 -2 22 21 l0 143 l-168 0 ZM51 28 q-17 1 -18 19 l0 71 q1 17 18 18 l78 0 q18 -1 19 -18 l0 -71 q0 -18 -19 -19 l-78 0 ZM118 62 l0 41 q0 8 -8 8 l-40 0 q-7 -1 -8 -8 l0 -41 q1 -7 8 -8 l40 0 q8 0 8 8 Z" /><glyph glyph-name="" unicode="&#x53f7;" d="M18 80 q-12 1 -13 13 q1 12 13 13 l220 0 q12 -1 13 -13 q-1 -12 -13 -13 l-157 0 l-4 -14 q-1 -5 4 -6 l119 0 q20 -1 19 -19 q0 -3 -1 -9 q-1 -15 -2 -20 q-3 -40 -51 -39 q-13 -1 -52 -1 q-17 1 -18 15 q1 14 15 15 q16 -1 45 -1 q25 -1 29 13 q2 8 2 16 q1 5 -5 5 l-124 0 q-17 1 -15 17 l8 28 l-32 0 ZM56 124 q-17 1 -18 18 l0 41 q1 17 18 18 l144 0 q17 -2 18 -18 l0 -41 q-1 -16 -18 -18 l-144 0 ZM69 170 l0 -16 q0 -4 6 -4 l106 0 q5 0 6 4 l0 16 q0 6 -6 6 l-106 0 q-6 0 -6 -6 Z" /><glyph glyph-name="" unicode="&#x5408;" d="M55 -21 q-16 1 -18 18 l0 63 q2 17 18 18 l145 0 q17 -1 18 -18 l0 -63 q-1 -17 -18 -18 l-145 0 ZM31 101 q-13 -5 -23 6 q-5 14 7 21 q60 31 91 69 q12 14 23 13 q12 0 22 -13 q31 -39 89 -65 q14 -7 8 -22 q-9 -12 -23 -6 q-3 2 -9 5 q-5 2 -16 9 q0 -2 0 -2 q-1 -12 -14 -13 l-117 0 q-12 1 -13 13 q-4 -2 -12 -7 q-9 -5 -13 -8 ZM182 6 q5 1 6 6 l0 33 q0 6 -6 6 l-109 0 q-5 -1 -6 -6 l0 -33 q1 -5 6 -6 l109 0 ZM126 174 q-22 -24 -51 -45 l107 0 q-29 22 -50 45 q-3 3 -6 0 Z" /><glyph glyph-name="" unicode="&#x540d;" d="M27 47 q-16 -3 -20 9 q-4 14 10 19 q47 11 83 27 q-2 1 -6 5 q-13 11 -18 16 q-9 8 -1 19 q11 8 20 1 q18 -14 30 -24 q2 -1 3 -4 q30 17 53 38 q2 2 2 4 q-1 1 -3 1 l-90 0 q-24 -23 -55 -44 q-14 -6 -21 4 q-7 12 4 20 q45 28 76 65 q11 15 23 7 q12 -7 3 -21 q-1 -1 -3 -3 q-1 -1 -1 -1 l97 0 q14 -1 15 -15 q0 -12 -10 -23 q-42 -43 -99 -67 l92 0 q17 -1 18 -18 l0 -67 q-1 -17 -18 -18 l-144 0 q-16 1 -18 18 l0 59 q-6 -2 -18 -6 q-3 -1 -4 -1 ZM193 3 q5 1 6 6 l0 38 q-1 5 -6 6 l-107 0 q-6 -1 -7 -6 l0 -38 q1 -5 6 -6 l108 0 Z" /><glyph glyph-name="" unicode="&#x548c;" d="M150 -15 q-16 1 -18 18 l0 166 q2 17 18 18 l71 0 q17 -1 18 -18 l0 -166 q-1 -17 -18 -18 l-71 0 ZM26 168 q-14 -1 -16 12 q0 12 12 15 q23 1 75 5 q-4 0 6 1 q14 1 16 -11 q1 -13 -11 -16 q-9 0 -27 -2 l0 -33 l30 0 q12 -1 13 -14 q-2 -13 -13 -14 l-30 0 l0 -27 q9 7 17 0 q14 -12 22 -21 q8 -8 0 -18 q-9 -9 -18 -1 q-10 11 -21 21 l0 -85 q-1 -14 -15 -15 q-13 2 -14 15 l0 90 q-11 -24 -25 -44 q-9 -9 -20 -2 q-8 7 1 20 q24 30 39 67 l-27 0 q-12 1 -14 14 q1 13 14 14 l32 0 l0 30 q-5 0 -14 -1 q-8 0 -12 0 ZM204 12 q5 1 6 6 l0 136 q-1 5 -6 6 l-37 0 q-6 0 -6 -6 l0 -136 q0 -6 5 -6 l38 0 Z" /><glyph glyph-name="" unicode="&#x54c1;" d="M59 107 q-19 1 -19 19 l0 54 q0 19 19 19 l139 0 q18 0 18 -18 l0 -55 q-1 -18 -19 -19 l-138 0 ZM180 134 q5 0 5 5 l0 28 q0 6 -5 6 l-104 0 q-5 0 -5 -6 l0 -28 q0 -5 5 -5 l104 0 ZM34 -23 q-14 1 -16 17 l0 74 q1 16 16 17 l65 0 q14 -1 16 -17 l0 -74 q-1 -16 -16 -17 l-65 0 ZM82 3 q6 0 6 6 l0 45 q0 5 -6 5 l-31 0 q-6 0 -6 -6 l0 -44 q0 -6 5 -6 l32 0 ZM156 -23 q-14 1 -16 17 l0 74 q1 16 16 17 l66 0 q15 -2 17 -17 l0 -74 q-1 -16 -17 -17 l-66 0 ZM206 3 q5 0 5 6 l0 44 q0 6 -6 6 l-32 0 q-6 0 -6 -5 l0 -45 q0 -6 6 -6 l33 0 Z" /><glyph glyph-name="" unicode="&#x5546;" d="M17 164 q-11 1 -12 12 q1 10 12 11 l98 0 q-3 6 -4 10 q-2 10 11 17 q14 3 21 -9 q1 -2 2 -9 q2 -6 3 -9 l91 0 q11 -1 12 -11 q-1 -11 -12 -12 l-59 0 q11 -7 5 -18 q0 -1 -3 -4 q-3 -5 -5 -8 l39 0 q17 -1 18 -18 l0 -107 q2 -36 -33 -36 q-12 0 -26 0 q-15 2 -16 14 q0 12 12 12 q9 0 19 0 q17 -1 16 15 l0 56 q0 -1 -1 -2 q0 -1 -1 -2 q-8 -9 -18 -4 q-8 6 -26 18 q-9 6 -13 9 q-8 7 -2 16 q8 8 18 2 q20 -12 37 -23 q5 -3 6 -8 l0 29 q0 6 -7 6 l-143 0 q-6 0 -6 -6 l0 -124 q-1 -14 -15 -15 q-13 2 -14 15 l0 135 q2 17 18 18 l39 0 q-5 6 -9 14 q-4 9 6 16 l-58 0 ZM71 61 q-11 -6 -18 3 q-6 11 4 17 q9 6 28 20 q5 3 7 5 q9 6 18 -1 q7 -9 -1 -17 q-5 -3 -14 -10 q-5 -4 -8 -6 q1 0 3 0 q2 1 4 1 l67 0 q15 0 15 -15 l0 -42 q0 -15 -15 -15 l-67 0 q-15 0 -15 15 l0 42 q0 7 3 11 q-6 -5 -11 -8 ZM159 158 q2 3 6 5 q-1 0 1 1 l-78 0 q0 0 1 -1 q4 -2 6 -5 q1 -1 3 -4 q10 -15 11 -17 q1 -1 1 -3 l34 0 q9 13 15 24 ZM146 23 q6 0 5 5 l0 18 q1 6 -5 5 l-37 0 q-5 0 -5 -5 l0 -18 q0 -5 5 -5 l37 0 Z" /><glyph glyph-name="" unicode="&#x56fe;" d="M36 -23 q-19 0 -19 19 l0 188 q1 17 19 18 l184 0 q18 0 18 -18 l0 -188 q-1 -18 -18 -19 l-184 0 ZM190 77 q-35 6 -59 17 q-18 -8 -41 -14 l2 0 q57 -7 81 -12 q8 -2 8 -11 q-2 -9 -12 -8 q-24 4 -80 12 q-8 2 -9 11 q2 5 5 7 q-10 -3 -21 -5 q-12 -3 -16 8 q-2 11 9 13 q27 4 50 13 q-12 8 -23 19 q-6 -6 -14 -12 q-10 -5 -15 2 q-6 9 1 16 q25 19 42 43 q1 0 1 1 l-46 0 q-7 1 -7 -8 l0 -159 q0 -7 7 -7 l149 0 q7 0 7 7 l0 159 q0 8 -7 8 l-84 0 q5 -6 0 -14 l-3 -4 l68 0 q9 -1 10 -10 q0 -9 -6 -16 q-15 -15 -31 -26 q18 -5 41 -8 q9 -1 9 -13 q-3 -11 -16 -9 ZM178 10 q-41 8 -107 17 q-10 3 -9 13 q3 10 13 9 q38 -5 108 -16 q10 -3 9 -13 q-4 -11 -14 -10 ZM100 139 q12 -13 30 -22 q15 8 26 18 q2 1 2 3 q-1 2 -3 2 l-55 0 q0 -1 0 -1 Z" /><glyph glyph-name="" unicode="&#x5728;" d="M25 153 q-13 1 -14 14 q2 13 14 14 l58 0 q2 3 5 11 q2 6 3 9 q5 15 20 12 q15 -4 11 -19 q-1 -2 -2 -6 q-2 -5 -3 -7 l120 0 q12 -1 14 -14 q-1 -13 -14 -14 l-133 0 q-13 -27 -31 -51 l0 -120 q-1 -14 -15 -15 q-14 1 -15 15 l0 86 q-3 -3 -9 -9 q-3 -3 -5 -5 q-12 -8 -21 2 q-8 12 4 24 q37 36 58 73 l-45 0 ZM101 69 q-13 1 -14 13 q1 13 14 14 l48 0 l0 34 q1 14 15 15 q14 -1 15 -15 l0 -34 l48 0 q12 -1 13 -14 q-1 -12 -13 -13 l-48 0 l0 -59 l58 0 q13 -1 14 -14 q-1 -12 -14 -13 l-146 0 q-13 1 -14 13 q1 13 14 14 l58 0 l0 59 l-48 0 Z" /><glyph glyph-name="" unicode="&#x57ce;" d="M70 -31 q-11 5 -7 19 q12 19 16 41 q4 22 4 67 l0 54 q0 17 17 17 l64 0 q0 16 0 32 q1 13 13 14 q13 -1 14 -14 q0 -15 1 -32 l45 0 q12 -1 13 -13 q-1 -11 -13 -12 l-44 0 q1 -38 5 -72 q13 25 21 48 q5 9 16 7 q11 -6 7 -17 q-15 -42 -37 -75 q1 -1 2 -4 q1 -2 1 -4 q6 -22 12 -22 q3 0 5 7 q1 6 3 24 q4 11 14 9 q9 -2 8 -15 q-2 -20 -5 -33 q-7 -24 -24 -24 q-23 0 -36 35 q-15 -17 -33 -33 q-11 -8 -19 1 q-8 10 1 19 q24 20 42 44 q-7 36 -10 105 l-48 0 q-7 -1 -8 -8 l0 -21 l32 0 q13 -1 14 -14 q0 -11 -1 -33 q0 -18 0 -25 q0 -31 -28 -32 q-5 0 -13 0 q-8 0 -11 4 q-5 -21 -14 -38 q-8 -11 -19 -6 ZM20 126 q-13 2 -14 14 q1 11 14 13 l9 0 l0 47 q1 12 13 13 q13 -1 14 -13 l0 -47 l7 0 q13 -1 14 -13 q-1 -13 -14 -14 l-7 0 l0 -81 q1 1 2 1 q2 1 3 1 q12 2 16 -9 q4 -12 -9 -18 q-6 -2 -20 -6 q-17 -6 -25 -8 q-15 -2 -19 11 q-2 12 11 17 q6 2 14 3 l0 89 l-9 0 ZM126 89 l-16 0 q0 -31 -3 -54 q3 1 5 1 q0 0 2 0 q3 -1 5 -1 q12 0 12 12 q1 9 1 36 q0 6 -6 6 ZM219 173 q-11 11 -15 14 q-6 8 1 16 q7 6 16 -1 q5 -4 17 -16 q6 -8 -2 -15 q-10 -6 -17 2 Z" /><glyph glyph-name="" unicode="&#x5904;" d="M8 73 q-9 8 -3 20 q27 52 41 105 q5 16 19 13 q15 -4 11 -17 q-1 -4 -4 -14 q-2 -9 -4 -14 l42 0 q13 0 17 -8 q4 -5 4 -18 q-7 -61 -35 -104 q25 -25 68 -27 q33 -3 74 -2 q13 -1 12 -14 q0 -16 -15 -16 q-51 0 -73 3 q-53 2 -84 33 q-19 -23 -47 -42 q-13 -8 -23 2 q-8 13 4 22 q27 20 47 41 q-14 22 -22 55 q-5 -8 -8 -14 q-7 -10 -21 -4 ZM169 13 q-14 1 -15 15 l0 170 q2 14 15 15 q15 -1 16 -15 l0 -54 q10 5 18 -2 q16 -12 40 -36 q9 -11 0 -22 q-10 -9 -21 0 q-4 4 -12 12 q-17 18 -25 25 l0 -93 q-1 -14 -16 -15 ZM55 130 q5 -41 22 -69 q18 28 24 71 q1 8 -6 7 l-37 0 q-1 -4 -3 -9 Z" /><glyph glyph-name="" unicode="&#x591a;" d="M26 -31 q-12 -1 -16 11 q-1 14 11 16 q51 8 90 22 l-20 18 q-4 8 4 15 q-25 -13 -55 -25 q-14 -4 -20 7 q-4 15 9 20 q64 20 107 56 q1 1 1 1 q-41 -18 -112 -36 q-13 -1 -17 11 q-1 14 10 17 q52 10 79 21 l-1 1 l-22 17 q-6 8 2 14 q-16 -9 -35 -18 q-12 -4 -19 6 q-4 12 8 19 q48 21 78 47 q11 10 22 2 q8 -8 -3 -19 q-1 -1 -3 -3 l88 0 q13 -1 16 -13 q1 -11 -8 -19 q-35 -26 -72 -42 q2 0 8 -1 q-4 1 2 -1 q10 -9 4 -17 q-3 -2 -6 -5 l68 0 q13 -1 15 -12 q0 -13 -8 -20 q-71 -69 -205 -90 ZM138 31 q0 0 1 -1 q0 0 0 -1 q30 15 52 32 q4 3 3 4 q0 2 -4 2 l-67 0 q-12 -7 -24 -15 q8 4 15 -1 l24 -20 ZM120 138 q3 -3 3 -6 q29 13 53 28 q3 2 3 3 q-1 2 -4 2 l-84 0 q-2 -1 -6 -4 q-4 -2 -6 -4 q11 6 18 -2 l23 -17 Z" /><glyph glyph-name="" unicode="&#x5929;" d="M33 167 q-14 1 -15 15 q1 13 15 14 l190 0 q14 -1 15 -14 q-1 -14 -15 -15 l-79 0 q0 -7 -1 -25 q0 -17 -1 -24 l94 0 q14 -1 15 -14 q-1 -14 -15 -15 l-89 0 q17 -60 93 -86 q13 -8 8 -24 q-7 -12 -25 -6 q-73 29 -95 87 q-20 -55 -94 -90 q-16 -6 -26 5 q-6 16 6 24 q81 33 92 90 l-87 0 q-13 1 -14 15 q1 12 14 14 l91 0 q0 23 0 49 l-77 0 Z" /><glyph glyph-name="" unicode="&#x5b50;" d="M18 73 q-13 2 -15 15 q2 13 15 14 l96 0 l0 9 q0 18 15 25 l48 30 q2 2 1 2 q0 1 -2 1 l-137 0 q-13 1 -14 15 q1 13 14 14 l169 0 q19 -1 21 -18 q0 -17 -16 -26 l-61 -38 q-5 -3 -5 -9 l0 -5 l91 0 q13 -1 15 -14 q-1 -13 -15 -15 l-91 0 l0 -62 q1 -36 -36 -38 q-9 -1 -33 -1 q-18 1 -19 17 q1 13 13 14 q3 0 11 0 q9 -1 13 -1 q19 -1 18 19 l0 52 l-96 0 Z" /><glyph glyph-name="" unicode="&#x5b57;" d="M18 39 q-12 1 -14 14 q1 13 14 14 l100 0 q1 13 15 20 l22 13 q2 0 1 2 q0 1 -2 1 l-95 0 q-13 1 -14 13 q1 12 14 13 l130 0 q15 -1 18 -14 q0 -14 -12 -20 l-41 -23 q-4 -2 -4 -5 l88 0 q13 -1 14 -14 q-2 -13 -14 -14 l-89 0 l0 -32 q2 -35 -34 -35 q-7 -1 -32 -1 q-17 1 -18 16 q1 12 13 13 q4 0 12 -1 q8 0 11 0 q18 -1 17 17 l0 23 l-100 0 ZM225 119 q-14 0 -15 14 l0 14 q0 5 -6 5 l-152 0 q-6 0 -6 -5 l0 -14 q-1 -13 -15 -14 q-14 1 -15 14 l0 29 q2 17 18 18 l82 0 q-1 3 -3 9 q-3 6 -4 8 q-4 13 11 18 q14 3 19 -9 q3 -5 8 -18 q2 -6 3 -8 l72 0 q17 -1 18 -18 l0 -29 q-1 -13 -15 -14 Z" /><glyph glyph-name="" unicode="&#x5b69;" d="M113 155 q-12 1 -13 13 q2 13 13 14 l50 0 q-1 1 -2 5 q-4 9 -5 13 q-4 10 10 14 q14 3 19 -9 q1 -1 2 -5 q5 -12 7 -17 q0 0 1 -1 l43 0 q11 -1 13 -14 q-1 -12 -13 -13 l-65 0 q-3 -5 -13 -17 q-12 -16 -16 -22 q-2 -1 -1 -3 q1 -2 4 -2 q12 0 33 2 q9 12 16 23 q8 11 20 6 q10 -7 4 -18 q-41 -68 -114 -105 q-12 -6 -22 4 q-6 12 5 19 q41 19 68 46 q-17 -2 -32 -2 q-12 -2 -19 10 q-4 10 7 22 q14 17 26 37 l-26 0 ZM20 58 q-14 -1 -16 13 q-1 15 12 18 q9 3 23 6 l0 23 q0 15 5 21 l18 25 q3 4 -2 5 l-40 0 q-13 1 -14 14 q1 12 14 13 l63 0 q14 -1 15 -14 q1 -15 -7 -24 l-19 -26 q-6 -7 -5 -14 l0 -15 q3 1 8 2 q6 2 9 3 q11 1 15 -12 q0 -13 -11 -16 q-2 -1 -6 -2 q-3 -1 -15 -5 l0 -66 q2 -35 -30 -35 q-8 0 -17 0 q-13 0 -15 12 q-1 13 10 15 q1 0 4 0 q5 1 7 1 q14 -1 13 14 l0 51 q-10 -4 -19 -7 ZM115 -31 q-14 -5 -22 5 q-6 13 5 20 q82 33 123 97 q8 9 19 3 q10 -7 4 -18 q-18 -25 -40 -48 q24 -17 40 -31 q10 -10 2 -21 q-10 -8 -21 -1 q-8 7 -29 24 q-9 8 -13 11 q-29 -24 -68 -41 Z" /><glyph glyph-name="" unicode="&#x5b89;" d="M17 83 q-13 1 -14 14 q2 13 14 14 l64 0 q4 7 11 19 q3 7 5 10 q6 14 23 10 q15 -7 8 -21 q-1 -3 -5 -9 q-3 -6 -5 -9 l120 0 q13 -1 15 -14 q-1 -13 -15 -14 l-32 0 q-13 -35 -38 -56 q46 -18 64 -25 q13 -7 9 -22 q-7 -12 -23 -8 q-39 18 -77 34 q-42 -23 -107 -36 q-15 -3 -21 9 q-5 15 8 20 q54 9 84 23 q-22 9 -45 19 q-17 8 -7 25 q2 3 7 10 q2 5 4 7 l-47 0 ZM223 125 q-15 0 -16 13 l0 12 q0 4 -4 4 l-150 0 q-3 0 -4 -4 l0 -13 q-1 -12 -15 -13 q-15 1 -16 15 l0 26 q1 16 18 17 l80 0 q-1 3 -3 8 q-3 5 -4 7 q-4 16 14 18 q11 1 15 -8 q9 -18 12 -25 l70 0 q17 -1 18 -17 l0 -24 q0 -15 -15 -16 ZM93 55 q7 -3 22 -8 q14 -5 22 -8 q24 19 34 44 l-71 0 q-5 -9 -11 -17 q-5 -8 4 -11 Z" /><glyph glyph-name="" unicode="&#x5bb6;" d="M61 122 q-10 1 -11 11 q1 10 11 11 l135 0 q10 -1 11 -11 q-1 -10 -11 -11 l-45 0 q-12 -9 -24 -15 q11 -13 17 -26 q35 17 64 32 q12 6 20 -5 q6 -11 -5 -17 q-16 -9 -33 -16 q17 -45 54 -63 q10 -9 3 -22 q-10 -11 -21 -3 q-40 22 -59 77 q-2 -1 -6 -3 q-5 -2 -7 -3 q6 -18 6 -38 q1 -48 -39 -48 q-22 0 -30 -1 q-12 0 -16 11 q0 13 10 15 q12 0 23 0 q25 -2 23 23 q0 6 0 13 q-45 -35 -104 -54 q-12 -3 -19 7 q-4 13 7 18 q64 17 109 53 q0 1 -1 2 q0 3 -3 9 q-41 -28 -92 -44 q-13 -3 -19 6 q-3 14 7 18 q50 12 93 38 q-3 5 -7 8 q-29 -14 -73 -26 q-12 -3 -19 8 q-2 12 8 16 q56 9 92 30 l-49 0 ZM228 128 q-15 -1 -16 12 l0 18 q0 4 -4 4 l-161 0 q-3 0 -3 -4 l0 -17 q-1 -12 -16 -13 q-14 0 -14 14 l0 27 q1 17 17 18 l83 0 q0 1 -1 4 q-2 4 -3 7 q-5 15 15 18 q11 0 15 -9 q5 -11 8 -20 l76 0 q17 -1 18 -18 l0 -26 q0 -15 -14 -15 Z" /><glyph glyph-name="" unicode="&#x5bfb;" d="M41 135 q-10 1 -11 11 q1 10 11 11 l154 0 l0 14 q1 6 -6 5 l-154 0 q-10 2 -12 12 q1 11 12 12 l173 0 q17 1 17 -17 l0 -75 q0 -17 -17 -17 l-174 0 q-11 1 -12 12 q1 12 12 13 l155 0 q6 0 6 5 l0 14 l-154 0 ZM18 43 q-12 1 -13 13 q1 12 13 13 l157 0 l0 8 q1 13 15 14 q15 -1 16 -14 l0 -8 l31 0 q12 -1 13 -13 q-1 -12 -13 -13 l-31 0 l0 -30 q2 -42 -36 -41 q-16 0 -33 0 q-15 0 -16 13 q-1 14 12 15 q4 0 11 -1 q7 0 10 0 q23 -2 21 21 l0 23 l-106 0 q3 -1 6 -3 q3 -3 15 -13 q12 -11 15 -14 q9 -10 0 -20 q-13 -9 -23 1 q-3 3 -14 14 q-12 10 -15 13 q-8 10 1 19 q1 1 3 2 q1 1 2 1 l-41 0 Z" /><glyph glyph-name="" unicode="&#x5c0f;" d="M237 29 q-17 -4 -23 11 q-13 33 -39 97 q-4 13 9 19 q15 2 21 -10 q6 -13 21 -47 q14 -34 20 -48 q4 -15 -9 -22 ZM79 -26 q-15 0 -17 15 q-1 16 14 17 q9 0 19 0 q21 -2 19 19 l0 169 q2 15 17 17 q14 -1 16 -17 l0 -179 q2 -40 -38 -41 q-16 0 -30 0 ZM19 28 q-13 6 -9 21 q19 40 37 95 q4 14 20 12 q15 -6 11 -20 q-17 -51 -37 -100 q-7 -13 -22 -8 Z" /><glyph glyph-name="" unicode="&#x5df2;" d="M72 -20 q-45 -1 -44 42 l0 105 q2 16 16 17 q14 -1 16 -17 l0 -14 l124 0 q6 0 5 6 l0 43 q1 7 -5 7 l-150 0 q-13 2 -15 15 q1 12 15 13 l168 0 q19 0 19 -18 l0 -75 q0 -20 -19 -20 l-142 0 l0 -54 q-1 -23 23 -22 l101 0 q26 -2 28 21 q1 4 4 19 q4 14 18 11 q14 -4 13 -18 q-2 -15 -6 -28 q-5 -35 -47 -33 l-122 0 Z" /><glyph glyph-name="" unicode="&#x5e10;" d="M24 14 q-9 0 -9 11 l0 135 q0 13 12 13 l21 0 l0 28 q0 12 11 12 q12 0 12 -12 l0 -28 l21 0 q12 0 12 -13 l0 -120 q1 -20 -16 -22 q-3 0 -8 -1 q-6 0 -9 9 l0 -49 q-1 -10 -12 -11 q-10 1 -11 11 l0 170 l-9 0 q-5 0 -5 -5 l0 -117 q0 -11 -10 -11 ZM123 85 q-13 1 -14 14 q2 13 14 14 l5 0 l0 83 q1 14 14 16 q14 -1 15 -16 l0 -83 l78 0 q12 -1 14 -14 q-1 -13 -14 -14 l-36 0 q12 -52 47 -81 q8 -13 0 -23 q-11 -11 -23 0 q-35 36 -51 104 l-15 0 l0 -73 q0 -3 1 -4 q1 -1 4 0 q6 4 14 8 q11 4 14 -9 q3 -11 -10 -19 q-5 -3 -15 -8 q-10 -5 -16 -7 q-11 -4 -17 2 q-4 5 -4 20 l0 90 l-5 0 ZM185 130 q-10 -7 -19 1 q-7 11 2 20 q27 22 47 43 q11 8 20 0 q9 -9 1 -19 q-29 -27 -51 -45 ZM80 147 l-9 0 l0 -108 q2 3 5 4 l4 0 q5 0 5 8 l0 91 q0 5 -5 5 Z" /><glyph glyph-name="" unicode="&#x5e2e;" d="M25 167 q-10 1 -11 11 q1 10 11 11 l38 0 l0 10 q1 12 14 14 q13 -1 14 -14 l0 -10 l36 0 q10 -1 11 -11 q-1 -10 -11 -11 l-36 0 l0 -14 l31 0 q9 -1 10 -10 q0 -9 -10 -10 l-32 0 q0 -3 -1 -9 q0 -4 0 -6 l41 0 q10 -1 11 -11 q-1 -10 -11 -11 l-48 0 q-7 -18 -25 -33 l57 0 l0 5 q1 14 15 15 q14 -1 15 -15 l0 -5 l62 0 q16 -1 17 -17 l0 -33 q0 -29 -28 -30 q-12 0 -25 0 q-13 -1 -15 11 q0 13 11 13 q10 0 16 0 q11 0 11 10 l0 16 q0 6 -6 6 l-43 0 l0 -58 q-1 -14 -15 -15 q-13 1 -15 15 l0 58 l-41 0 q-6 0 -6 -6 l0 -41 q-1 -11 -15 -12 q-14 1 -15 12 l0 53 q0 2 1 4 q-9 -4 -18 4 q-6 10 2 17 q22 14 28 26 l-30 0 q-9 1 -10 11 q1 10 10 11 l40 0 q2 6 2 15 l-33 0 q-9 1 -10 10 q1 9 10 10 l34 0 l0 14 l-38 0 ZM161 72 q-13 1 -14 12 l0 99 q0 16 15 16 l60 0 q12 -1 14 -12 q0 -13 -4 -20 l-10 -16 q-2 -5 1 -7 q19 -13 19 -32 q1 -26 -28 -28 q-5 -1 -20 -1 q-11 1 -13 11 q-1 11 8 12 l14 0 q11 1 11 10 q-1 11 -17 22 q-6 5 -2 13 l11 19 q3 6 -3 6 l-24 0 q-4 0 -4 -6 l0 -86 q-1 -11 -14 -12 Z" /><glyph glyph-name="" unicode="&#x5e94;" d="M14 -30 q-12 7 -6 22 q22 40 21 120 l0 48 q1 19 20 20 l76 0 q-1 3 -2 7 q-2 6 -3 9 q-2 13 14 17 q17 1 20 -10 q5 -15 7 -23 l75 0 q12 -1 13 -13 q-1 -13 -13 -14 l-172 0 q-6 0 -6 -6 l0 -36 q1 -87 -23 -134 q-8 -14 -21 -7 ZM70 -19 q-13 1 -14 14 q1 13 14 14 l100 0 q24 67 36 114 q4 13 19 11 q12 -4 10 -19 q-18 -60 -36 -106 l37 0 q13 -1 14 -14 q-1 -13 -14 -14 l-166 0 ZM109 25 q-13 -2 -19 10 q-4 17 -15 54 q-4 14 -6 20 q-4 13 8 17 q13 4 18 -8 q4 -12 12 -37 q8 -25 12 -37 q2 -15 -10 -19 ZM160 38 q-13 -2 -17 11 q-1 7 -5 21 q-8 37 -12 53 q-1 12 11 16 q13 2 18 -11 q3 -13 10 -43 q5 -21 7 -30 q2 -14 -12 -17 Z" /><glyph glyph-name="" unicode="&#x5f00;" d="M31 168 q-13 1 -14 15 q1 11 14 13 l195 0 q14 -1 15 -13 q-1 -14 -15 -15 l-29 0 l0 -63 l40 0 q13 -1 14 -14 q-1 -14 -14 -15 l-40 0 l0 -91 q-1 -14 -16 -16 q-15 1 -16 16 l0 91 l-68 0 q0 -68 -52 -101 q-12 -10 -24 1 q-9 13 2 23 q42 26 42 77 l-46 0 q-13 1 -14 15 q1 13 14 14 l47 0 l0 63 l-35 0 ZM97 168 l0 -63 l68 0 l0 63 l-68 0 Z" /><glyph glyph-name="" unicode="&#x5f0f;" d="M19 135 q-13 1 -14 14 q2 13 14 14 l119 0 q-1 18 -1 36 q0 14 15 15 q14 -1 15 -15 q0 -25 1 -36 l67 0 q12 -1 14 -14 q-1 -13 -14 -14 l-65 0 q0 -3 0 -6 q6 -76 21 -110 q6 -14 16 -14 q8 -1 10 11 q0 2 2 8 q2 12 3 18 q5 11 17 9 q12 -6 9 -18 q-2 -11 -8 -35 q-8 -27 -34 -27 q-29 0 -45 44 q-16 41 -21 114 q0 3 0 6 l-121 0 ZM25 77 q-12 1 -13 14 q1 12 13 13 l93 0 q13 -2 14 -13 q-1 -12 -14 -14 l-31 0 l0 -55 q8 1 23 2 q12 2 17 2 q13 0 15 -12 q-1 -14 -13 -16 q-51 -5 -106 -13 q-15 0 -18 13 q-1 13 12 16 q5 0 17 2 q15 1 23 2 l0 59 l-32 0 ZM224 168 q-10 -7 -19 1 q-3 4 -16 17 q-7 9 1 17 q10 6 20 -2 q1 -1 7 -7 q8 -7 10 -9 q7 -9 -3 -17 Z" /><glyph glyph-name="" unicode="&#x5f15;" d="M212 -34 q-15 1 -16 16 l0 215 q1 14 16 15 q15 -1 16 -15 l0 -215 q-1 -15 -16 -16 ZM55 -27 q-15 0 -17 14 q0 14 14 15 q6 -1 22 0 q10 0 16 0 q21 -1 22 18 q2 16 2 29 q1 5 -5 6 l-73 0 q-17 1 -17 20 l7 47 q3 17 19 18 l63 0 q6 0 6 6 l0 20 q0 7 -6 7 l-82 0 q-11 1 -12 13 q1 12 12 13 l103 0 q17 0 17 -16 l0 -54 q1 -16 -17 -16 l-69 0 q-5 0 -5 -3 l-4 -25 q-1 -4 4 -4 l72 0 q19 0 19 -20 q0 -28 -3 -46 q-2 -42 -43 -41 q-10 -1 -45 -1 Z" /><glyph glyph-name="" unicode="&#x5f53;" d="M38 40 q-11 1 -13 14 q1 13 13 14 l163 0 l0 26 q0 6 -6 6 l-165 0 q-12 1 -13 14 q2 13 13 14 l82 0 l0 70 q1 15 16 16 q15 -1 16 -16 l0 -70 l70 0 q19 0 19 -18 l0 -110 q0 -20 -20 -20 l-188 0 q-11 1 -12 14 q1 13 12 14 l170 0 q6 0 6 6 l0 26 l-163 0 ZM170 140 q-7 9 0 20 q16 15 31 31 q10 10 21 2 q11 -10 2 -20 q-9 -10 -32 -33 q-11 -9 -22 0 ZM84 141 q-12 -9 -23 2 q-5 7 -21 25 q-5 5 -7 7 q-8 10 2 19 q9 7 20 -1 q2 -2 9 -9 q16 -16 22 -22 q7 -11 -2 -21 Z" /><glyph glyph-name="" unicode="&#x5f55;" d="M45 132 q-10 1 -11 12 q1 11 11 12 l140 0 l0 14 q0 5 -6 5 l-141 0 q-10 1 -11 12 q1 11 11 12 l158 0 q18 0 18 -17 l0 -70 l26 0 q11 -1 12 -12 q-1 -12 -12 -13 l-95 0 l0 -5 q10 -17 22 -29 q5 3 17 12 q16 11 22 14 q10 9 22 -1 q6 -11 -3 -19 q-8 -7 -37 -24 q19 -13 49 -22 q12 -6 7 -20 q-7 -12 -21 -8 q-53 21 -78 55 l0 -31 q1 -38 -33 -38 q-11 0 -26 0 q-13 1 -15 12 q1 14 13 15 l15 0 q17 -1 16 16 l0 17 q-59 -26 -89 -41 q-13 -5 -19 9 q-4 15 7 20 q14 5 54 21 q-4 0 -9 3 q-3 2 -13 9 q-9 6 -13 8 q-9 8 -3 18 q9 10 19 4 q2 -2 8 -5 q15 -8 19 -12 q9 -7 3 -19 q0 0 -1 -1 q-1 0 -1 -1 q12 5 32 14 q-11 -5 6 3 l0 26 l-98 0 q-11 1 -12 13 q1 11 12 12 l168 0 l0 20 l-140 0 Z" /><glyph glyph-name="" unicode="&#x5fae;" d="M160 104 q-9 7 -2 19 q18 30 28 78 q2 10 15 10 q12 -3 10 -15 q-1 -4 -3 -12 q-3 -11 -5 -16 l38 0 q10 -1 11 -13 q0 -12 -11 -12 l-1 0 q-4 -70 -23 -112 q11 -19 29 -36 q10 -11 3 -21 q-11 -9 -21 1 q-11 10 -24 32 q-12 -18 -28 -36 q-11 -7 -20 2 q-6 10 2 19 q21 19 33 41 q-12 32 -18 72 q-6 -4 -13 -1 ZM84 -25 q-7 -6 -17 0 q-8 9 -2 18 q14 14 14 48 l0 14 q1 13 13 13 l44 0 q12 -1 13 -13 l0 -27 q0 -2 1 -3 q2 0 3 1 q1 1 3 3 q3 2 5 4 q10 3 13 -7 q2 -11 -8 -19 q-7 -7 -23 -17 q-7 -4 -12 -1 q-5 3 -5 11 l0 39 q0 5 -4 5 l-16 0 q-4 0 -4 -4 l0 -8 q0 -39 -18 -57 ZM6 54 q-6 11 3 21 q23 24 38 58 q6 10 17 4 q9 -6 5 -17 q-6 -12 -12 -22 l0 -120 q-2 -11 -13 -12 q-11 1 -12 12 l0 83 q-1 -1 -4 -5 q-3 -3 -5 -5 q-10 -7 -17 3 ZM86 125 q-14 0 -14 13 l0 45 q1 9 10 9 q9 0 9 -8 l0 -31 q1 -3 4 -4 l10 0 l0 49 q1 11 12 12 q10 -1 11 -12 l0 -49 l10 0 q5 1 5 4 l0 31 q0 8 9 8 q9 0 9 -9 l0 -45 q0 -13 -13 -13 l-62 0 ZM27 133 q-10 -7 -18 3 q-6 11 3 21 q18 16 33 44 q7 9 19 4 q9 -8 3 -19 q-18 -31 -40 -53 ZM83 84 q-11 1 -12 13 q1 10 12 11 l66 0 q11 -1 12 -11 q-1 -12 -12 -13 l-66 0 ZM195 143 l-1 0 q0 -1 -1 -4 q-1 -2 -2 -4 q4 -43 13 -72 q11 34 13 80 l-22 0 Z" /><glyph glyph-name="" unicode="&#x606f;" d="M51 57 q-15 2 -17 18 l0 97 q2 15 17 17 l49 0 q1 3 2 9 q2 5 2 7 q3 10 18 8 q13 -4 11 -17 q0 -1 -1 -3 q-1 -3 -2 -4 l74 0 q15 -2 18 -16 l0 -99 q-2 -15 -17 -17 l-154 0 ZM98 -26 q-35 -1 -34 33 l0 28 q1 12 14 13 q14 -1 15 -13 l0 -21 q0 -18 17 -17 l37 0 q17 0 20 11 q0 2 2 10 q1 2 1 3 q4 11 16 9 q13 -4 11 -17 q0 -3 -2 -9 q-1 -6 -2 -9 q-6 -22 -40 -21 l-55 0 ZM63 131 l0 -16 l130 0 l0 16 l-130 0 ZM63 162 l0 -11 l130 0 l0 11 q0 6 -5 5 l-120 0 q-5 0 -5 -5 ZM188 79 q5 0 5 5 l0 11 l-130 0 l0 -11 q0 -5 5 -5 l120 0 ZM17 -14 q-11 6 -7 18 q6 12 15 33 q4 10 17 8 q12 -6 8 -18 q-5 -15 -15 -35 q-6 -10 -18 -6 ZM240 -6 q-12 -6 -20 5 q-3 5 -14 20 q-4 7 -6 10 q-6 11 4 17 q11 6 19 -4 q6 -7 19 -25 q1 -2 2 -3 q7 -12 -4 -20 ZM147 16 q-11 -6 -20 3 q0 1 -1 2 q-7 9 -12 14 q-5 10 4 17 q10 7 20 -2 q3 -3 9 -11 q3 -4 4 -5 q6 -10 -4 -18 Z" /><glyph glyph-name="" unicode="&#x60c5;" d="M109 -33 q-13 1 -14 14 l0 99 q1 14 16 15 l107 0 q17 1 16 -16 l0 -76 q2 -32 -28 -31 q-2 0 -14 0 q-15 -1 -19 -1 q-13 0 -13 12 q-1 10 10 11 q11 0 24 0 q14 -1 13 13 l0 4 l-84 0 l0 -30 q-1 -13 -14 -14 ZM95 173 q-9 1 -10 10 q1 8 10 9 l55 0 l0 7 q1 13 14 14 q13 -1 14 -14 l0 -7 l59 0 q9 -1 10 -9 q0 -9 -10 -10 l-59 0 l0 -14 l54 0 q8 0 8 -9 q0 -9 -8 -9 l-54 0 l0 -13 l63 0 q9 -1 10 -10 q-1 -9 -10 -10 l-150 0 q-9 1 -10 10 q1 9 10 10 l59 0 l0 13 l-49 0 q-8 1 -9 9 q1 8 9 9 l49 0 l0 14 l-55 0 ZM51 -34 q-11 1 -13 14 l0 219 q1 13 13 14 q13 -1 14 -14 l0 -33 l2 -1 q3 -2 13 -10 q2 -1 3 -2 q10 -7 4 -19 q-9 -11 -19 -4 q-1 0 -3 2 l0 -152 q-2 -13 -14 -14 ZM14 82 q-9 3 -8 11 q5 35 7 61 q2 8 11 9 q9 -3 8 -11 q-4 -34 -8 -62 q-1 -8 -10 -8 ZM123 71 l0 -10 l84 0 l0 10 q0 5 -5 5 l-74 0 q-5 0 -5 -5 ZM123 44 l0 -15 l84 0 l0 15 l-84 0 Z" /><glyph glyph-name="" unicode="&#x624b;" d="M38 166 q-14 -1 -17 14 q0 13 14 14 q76 1 181 7 q16 0 16 -13 q1 -14 -13 -15 q-11 0 -33 -2 q-26 -1 -39 -2 l0 -35 l73 0 q13 -2 14 -14 q-1 -12 -14 -14 l-73 0 l0 -35 l90 0 q13 -2 14 -14 q-1 -12 -14 -14 l-90 0 l0 -30 q1 -40 -36 -40 q-4 0 -17 0 q-14 -1 -19 -1 q-18 0 -18 18 q-1 11 12 12 q2 0 8 0 q15 -1 20 0 q19 1 18 17 l0 24 l-96 0 q-13 2 -14 14 q1 12 14 14 l96 0 l0 35 l-79 0 q-12 1 -13 14 q1 13 13 14 l79 0 l0 34 q-51 -2 -77 -2 Z" /><glyph glyph-name="" unicode="&#x626b;" d="M121 76 q-14 1 -15 14 q1 13 15 14 l85 0 l0 48 q-1 9 -11 11 l-78 0 q-13 1 -14 14 q1 13 14 14 l98 0 q20 -2 22 -21 l0 -165 q-2 -19 -22 -21 l-108 0 q-13 1 -14 14 q1 14 14 15 l88 0 q10 1 11 10 l0 53 l-85 0 ZM20 139 q-12 1 -13 13 q1 13 13 14 l18 0 l0 30 q1 14 16 15 q14 -1 15 -15 l0 -30 l17 0 q12 -1 13 -14 q-1 -12 -13 -13 l-17 0 l0 -40 q2 1 5 2 q4 1 5 1 q17 2 20 -12 q0 -13 -16 -17 q-3 -1 -9 -2 q-3 -2 -5 -2 l0 -66 q2 -30 -28 -31 q-8 0 -14 0 q-17 0 -18 14 q0 13 11 15 q5 -2 9 0 q10 -1 9 12 l0 48 q-1 0 -2 -1 q-4 0 -12 -3 q-16 0 -17 12 q-1 16 14 20 q3 1 9 2 q5 1 8 1 l0 47 l-18 0 Z" /><glyph glyph-name="" unicode="&#x62e9;" d="M106 95 q-15 -2 -19 10 q-2 13 12 17 q22 4 40 10 q-18 13 -31 31 q-4 5 -3 11 l-3 0 q-12 1 -13 13 q1 12 13 13 l120 0 q13 -1 14 -13 q0 -13 -8 -24 q-14 -18 -32 -31 q17 -4 40 -9 q13 -3 11 -15 q-3 -12 -19 -11 q-34 7 -61 19 q-25 -12 -61 -21 ZM103 55 q-12 1 -13 13 q1 12 13 13 l48 0 l0 8 q1 14 15 15 q13 -1 14 -15 l0 -8 l49 0 q12 -1 13 -13 q-1 -12 -13 -13 l-49 0 l0 -23 l58 0 q12 -1 13 -13 q-1 -12 -13 -13 l-58 0 l0 -23 q-1 -14 -14 -15 q-14 1 -15 15 l0 23 l-60 0 q-12 1 -13 13 q1 12 13 13 l60 0 l0 23 l-48 0 ZM20 140 q-13 1 -14 13 q1 13 14 14 l15 0 l0 31 q1 11 14 13 q14 -1 15 -13 l0 -31 l13 0 q12 -1 13 -14 q-1 -12 -13 -13 l-13 0 l0 -42 q5 2 10 2 q12 2 15 -10 q1 -15 -14 -19 q-5 0 -11 -3 l0 -66 q1 -29 -27 -30 q-4 -1 -14 -1 q-15 1 -16 15 q0 12 11 13 l7 0 q10 0 10 10 l0 51 q-7 -1 -13 -4 q-14 -2 -17 12 q-1 15 12 19 q1 0 3 1 q5 0 15 3 l0 49 l-15 0 ZM133 174 q14 -18 33 -29 q18 10 31 25 q2 2 1 3 q-1 1 -4 1 l-61 0 Z" /><glyph glyph-name="" unicode="&#x6307;" d="M116 -24 q-16 0 -16 17 l0 86 q0 18 16 17 l102 0 q17 1 17 -17 l0 -86 q0 -18 -17 -17 l-102 0 ZM20 140 q-13 1 -14 14 q1 12 14 13 l16 0 l0 30 q1 14 14 15 q13 -1 14 -15 l0 -30 l13 0 q13 -1 14 -13 q-1 -13 -14 -14 l-13 0 l0 -42 q7 2 13 3 q13 2 15 -11 q1 -13 -12 -17 q-3 -1 -9 -3 q-4 -1 -7 -2 l0 -63 q2 -34 -27 -33 q-3 -1 -14 -1 q-15 -1 -17 13 q1 13 10 15 q4 0 10 0 q11 1 10 12 l0 50 q-3 -1 -10 -3 q-4 -1 -5 -1 q-13 -2 -16 13 q-1 16 12 18 q1 0 4 1 q4 0 15 3 l0 48 l-16 0 ZM133 114 q-36 -1 -35 34 l0 52 q1 12 14 13 q14 -1 15 -13 l0 -21 q55 8 98 20 q12 1 17 -9 q2 -13 -8 -16 q-28 -6 -90 -16 q-11 -2 -17 -3 q-1 -18 18 -17 l53 0 q16 -1 19 12 q3 6 3 11 q5 10 17 8 q12 -4 10 -17 q0 -2 -2 -8 q-1 -6 -2 -9 q-6 -22 -37 -21 l-73 0 ZM200 1 q6 0 6 6 l0 18 l-77 0 l0 -18 q0 -6 5 -6 l66 0 ZM129 65 l0 -17 l77 0 l0 17 q0 6 -6 6 l-66 0 q-5 0 -5 -6 Z" /><glyph glyph-name="" unicode="&#x63a5;" d="M95 56 q-11 1 -12 12 q2 11 12 12 l31 0 q4 6 7 12 q5 11 20 9 q12 -5 8 -16 q0 -1 -1 -2 q-1 -2 -2 -3 l78 0 q11 -1 12 -12 q-1 -11 -12 -12 l-16 0 q-10 -24 -26 -40 q8 -4 24 -10 q14 -6 20 -9 q11 -7 6 -19 q-9 -9 -21 -5 q-25 13 -51 24 q-31 -17 -80 -27 q-15 -4 -20 8 q-5 12 7 18 q38 6 61 16 q-15 6 -29 12 q-15 6 -7 21 q3 5 8 11 l-17 0 ZM22 140 q-13 1 -14 13 q1 13 14 14 l13 0 l0 31 q1 13 13 14 q13 -1 14 -14 l0 -31 l10 0 q13 -1 14 -14 q-1 -12 -14 -13 l-10 0 l0 -41 q2 1 4 1 q3 1 4 1 q12 1 16 -11 q1 -15 -10 -17 q-7 -3 -14 -4 l0 -64 q2 -34 -28 -34 q-6 0 -12 0 q-14 -1 -16 13 q0 14 10 15 l7 0 q12 0 12 12 l0 51 q-6 -1 -11 -3 q-13 -2 -18 11 q-1 15 12 19 q8 2 17 3 l0 48 l-13 0 ZM95 105 q-11 1 -12 12 q2 11 12 12 l31 0 q-2 2 -6 8 q-4 6 -5 7 q-4 11 6 16 q14 3 21 -7 q1 -1 7 -10 q5 -8 6 -10 q1 -2 1 -4 l20 0 q6 8 16 24 q9 11 21 7 q11 -5 6 -16 q-5 -8 -11 -15 l28 0 q11 -1 12 -12 q-1 -11 -12 -12 l-141 0 ZM100 162 q-11 1 -12 11 q1 11 12 12 l55 0 q-1 3 -3 7 q-2 5 -3 7 q-2 11 10 15 q14 3 19 -8 q1 -1 2 -4 q3 -8 5 -14 q0 -1 1 -3 l45 0 q11 -1 12 -12 q-1 -10 -12 -11 l-131 0 ZM136 39 q14 -6 31 -12 q13 12 22 29 l-46 0 q-5 -6 -8 -11 q-3 -4 1 -6 Z" /><glyph glyph-name="" unicode="&#x641c;" d="M194 130 q-9 1 -10 11 q1 10 10 11 l17 0 l0 18 q0 3 -3 3 l-14 0 q-11 0 -11 11 q1 11 12 11 l27 0 q14 -1 15 -15 l0 -76 q-1 -16 -17 -17 l-44 0 l0 -18 l45 0 q11 -1 12 -12 q0 -11 -8 -20 q-15 -16 -34 -30 q21 -6 51 -11 q11 -4 8 -16 q-4 -11 -17 -8 q-40 7 -70 20 q-31 -13 -73 -22 q-12 -3 -18 7 q-3 13 8 17 q32 6 55 13 q-18 13 -31 29 q-3 3 -3 11 l-7 0 q-10 1 -11 11 q1 10 11 11 l55 0 l0 18 l-43 0 q-17 1 -18 17 l0 75 q1 12 12 14 q3 1 10 3 q10 2 15 4 q12 3 17 -6 q2 -10 -7 -16 q-5 -1 -14 -3 q-2 -1 -3 -1 q-3 0 -4 -5 l0 -17 l19 0 q9 -1 10 -11 q-1 -10 -10 -11 l-19 0 l0 -17 q0 -3 5 -4 l30 0 l0 90 q1 12 14 13 q12 -1 13 -13 l0 -90 l30 0 q6 0 5 4 l0 17 l-17 0 ZM19 137 q-12 1 -13 14 q1 12 13 13 l14 0 l0 35 q1 13 12 14 q13 -1 14 -14 l0 -35 l10 0 q12 -1 13 -13 q-1 -13 -13 -14 l-10 0 l0 -41 q1 1 3 1 q2 1 3 1 q13 0 16 -12 q1 -12 -11 -16 q-5 -1 -11 -3 l0 -68 q1 -27 -22 -27 q-5 -1 -19 -2 q-13 1 -14 15 q1 11 10 13 q5 0 10 0 q9 1 9 10 l0 51 q-6 -1 -11 -3 q-14 -2 -17 12 q-2 14 11 17 q2 0 7 2 q7 1 10 2 l0 48 l-14 0 ZM129 47 q13 -16 34 -28 q17 10 30 22 q3 5 -2 6 l-62 0 Z" /><glyph glyph-name="" unicode="&#x6447;" d="M88 73 q-8 8 -3 17 q14 18 19 30 q3 6 9 7 q-8 0 -12 7 l-7 14 q-2 12 8 16 q13 2 18 -7 l7 -15 q3 -9 -8 -14 q2 -1 3 -1 q8 -3 7 -13 l99 0 q11 -1 12 -12 q-1 -11 -12 -12 l-51 0 l0 -25 l61 0 q11 -1 12 -11 q-1 -12 -12 -13 l-61 0 l0 -39 l31 0 q4 1 4 4 l0 13 q1 12 13 13 q13 -2 14 -13 l0 -26 q-1 -14 -15 -15 l-122 0 q-13 1 -14 15 l0 27 q1 12 13 13 q13 -2 14 -13 l0 -14 q1 -3 4 -4 l30 0 l0 39 l-62 0 q-12 1 -13 13 q1 10 13 11 l62 0 l0 25 l-33 0 q-1 -2 -4 -6 q-3 -5 -5 -7 q-8 -10 -19 -4 ZM20 137 q-13 1 -14 14 q1 12 14 13 l12 0 l0 36 q1 12 14 13 q12 -1 13 -13 l0 -36 l9 0 q13 -1 14 -13 q-1 -13 -14 -14 l-9 0 l0 -38 q1 0 3 1 q2 0 3 0 q14 2 17 -11 q0 -14 -12 -17 q-5 -1 -11 -3 l0 -71 q1 -24 -22 -26 q-1 0 -8 0 q-9 -1 -11 -1 q-15 0 -15 15 q1 11 10 13 q6 0 11 0 q9 1 8 10 l0 51 q-3 -1 -6 -2 q-2 -1 -3 -1 q-14 -1 -18 12 q-1 15 12 17 q1 0 5 1 q6 2 10 3 l0 47 l-12 0 ZM92 172 q-12 0 -14 12 q0 11 11 13 q82 2 142 6 q11 1 14 -10 q0 -12 -10 -14 q-36 -2 -118 -6 q-17 -1 -25 -1 ZM204 122 q-10 5 -6 16 q2 3 7 13 q5 10 6 12 q6 11 18 7 q10 -6 8 -17 q-2 -3 -7 -11 q-5 -9 -7 -12 q-6 -12 -19 -8 ZM170 128 q-12 0 -17 9 l-5 16 q-2 11 8 15 q14 2 19 -9 l6 -17 q1 -10 -11 -14 Z" /><glyph glyph-name="" unicode="&#x652f;" d="M21 152 q-13 2 -14 13 q1 12 14 14 l92 0 l0 19 q1 14 16 15 q14 -1 15 -15 l0 -19 l89 0 q13 -1 14 -14 q-1 -12 -14 -13 l-89 0 l0 -32 l54 0 q15 0 17 -14 q2 -12 -7 -25 q-21 -35 -51 -58 q33 -14 78 -21 q14 -4 11 -19 q-3 -13 -21 -10 q-66 14 -96 32 q-42 -22 -100 -36 q-17 -3 -20 11 q-4 14 11 19 q50 10 81 25 q-29 24 -50 64 q-1 1 -2 3 q-1 2 -1 2 l-11 0 q-12 1 -13 14 q1 12 13 13 l76 0 l0 32 l-92 0 ZM79 93 q22 -37 50 -54 q28 18 48 49 q2 4 -3 5 l-95 0 Z" /><glyph glyph-name="" unicode="&#x6536;" d="M101 95 q-9 10 -1 22 q27 39 41 84 q4 12 18 11 q13 -5 10 -17 q-4 -13 -9 -25 l76 0 q13 -1 14 -15 q-1 -13 -14 -14 l-10 0 q-9 -67 -33 -106 q18 -20 47 -34 q13 -10 6 -24 q-10 -13 -24 -4 q-28 17 -47 38 q-19 -21 -49 -41 q-13 -7 -22 5 q-7 13 4 21 q30 18 48 39 q-20 31 -29 71 q-1 -1 -3 -5 q-3 -3 -4 -5 q-8 -9 -19 -1 ZM37 21 q-18 -8 -20 14 l0 137 q2 13 14 14 q12 -2 14 -14 l0 -110 q0 -3 1 -4 q2 -1 4 1 q2 1 7 4 q7 4 10 6 l0 129 q1 13 15 14 q13 -1 14 -14 l0 -218 q-1 -14 -14 -15 q-14 1 -15 15 l0 57 q-18 -11 -30 -16 ZM147 141 q7 -50 26 -81 q19 32 25 81 l-51 0 Z" /><glyph glyph-name="" unicode="&#x653e;" d="M19 145 q-12 1 -13 13 q2 13 13 14 l39 0 q-1 4 -4 17 q-2 5 -2 6 q-2 14 13 17 q14 1 18 -12 q0 -1 2 -8 q3 -15 4 -17 q1 -1 1 -3 l24 0 q12 -1 14 -14 q-1 -12 -14 -13 l-53 0 q-1 -18 -1 -33 l39 0 q9 0 14 -6 q0 6 3 11 q23 34 37 85 q4 12 17 11 q14 -3 12 -18 q-1 -4 -4 -12 q-3 -9 -5 -13 l64 0 q13 -2 14 -14 q-2 -12 -14 -14 l-5 0 q-6 -66 -32 -111 q15 -18 39 -32 q13 -10 6 -23 q-10 -13 -24 -4 q-22 17 -39 35 q-18 -19 -43 -37 q-13 -7 -23 4 q-7 14 5 23 q27 17 43 36 q-16 28 -24 68 q-1 -3 -3 -5 q-8 -11 -20 -2 q0 1 -1 2 q0 1 -1 1 l0 -2 q0 -15 -1 -35 q0 -26 -1 -43 q1 -42 -33 -40 q-4 -1 -17 -1 q-14 1 -15 14 q-1 13 11 14 l10 0 q19 -2 17 17 q2 30 2 58 q0 7 -6 7 l-23 0 q-4 -75 -29 -111 q-8 -9 -21 -2 q-7 10 -1 22 q22 34 24 106 q0 29 1 44 l-14 0 ZM160 138 q6 -47 22 -80 q18 34 22 84 l-42 0 q-2 -1 -2 -4 Z" /><glyph glyph-name="" unicode="&#x6587;" d="M21 143 q-12 1 -14 14 q1 14 14 15 l96 0 q-1 2 -3 8 q-4 11 -5 15 q-4 14 13 18 q16 2 20 -10 q2 -5 5 -16 q3 -9 4 -13 q0 -2 0 -2 l83 0 q13 -1 14 -15 q-2 -13 -14 -14 l-28 0 q-14 -61 -54 -102 q35 -23 86 -36 q14 -6 9 -20 q-6 -16 -24 -11 q-55 17 -96 46 q-38 -28 -92 -47 q-17 -5 -23 9 q-5 15 7 21 q53 17 84 38 q-37 41 -54 102 l-28 0 ZM81 143 q15 -51 46 -82 q36 34 46 82 l-92 0 Z" /><glyph glyph-name="" unicode="&#x65b0;" d="M131 -29 q-11 8 -5 21 q18 28 17 93 l0 92 q0 16 14 16 q35 2 69 7 q14 1 17 -11 q1 -12 -12 -15 q-27 -4 -54 -6 q-7 -1 -6 -6 l0 -38 l66 0 q13 -1 14 -14 q-1 -12 -14 -13 l-13 0 l0 -118 q-1 -12 -14 -13 q-12 1 -13 13 l0 118 l-26 0 l0 -10 q1 -77 -19 -110 q-8 -12 -21 -6 ZM17 104 q-11 1 -12 12 q1 11 12 12 l22 0 q0 0 -1 2 q-5 8 -10 15 q-5 10 4 15 q11 5 18 -4 q1 -1 5 -7 q4 -5 5 -7 q4 -8 -3 -14 l20 0 q11 18 14 26 q8 11 19 7 q10 -6 5 -16 q-1 -1 -3 -6 q-5 -7 -7 -11 l19 0 q11 -1 12 -12 q-1 -11 -12 -12 l-37 0 q1 -2 1 -2 l0 -19 l32 0 q11 -1 12 -12 q-1 -11 -12 -12 l-32 0 l0 -57 q-1 -27 -26 -29 q-5 -1 -22 -1 q-12 1 -13 13 q1 12 12 13 l9 0 q12 -1 11 13 l0 48 l-37 0 q-11 1 -12 12 q1 11 12 12 l37 0 l0 19 l0 2 l-42 0 ZM23 163 q-11 1 -12 12 q1 11 12 12 l35 0 q-1 3 -3 9 q-1 2 -1 3 q-2 9 11 15 q15 1 19 -8 q1 -3 3 -9 q2 -7 3 -10 l30 0 q11 -1 12 -12 q-1 -11 -12 -12 l-97 0 ZM14 -6 q-9 6 -5 16 q2 3 6 12 q6 15 9 20 q4 9 15 7 q9 -4 7 -15 q-8 -16 -16 -34 q-5 -9 -16 -6 ZM125 8 q-11 -4 -16 5 q-4 6 -13 21 q-4 11 5 15 q10 4 16 -5 q2 -2 7 -9 q4 -7 6 -10 q4 -11 -5 -17 Z" /><glyph glyph-name="" unicode="&#x65b9;" d="M23 146 q-13 1 -14 14 q1 13 14 14 l93 0 q0 1 -1 3 q-3 13 -6 18 q-3 14 13 17 q15 4 21 -9 q2 -4 5 -14 q4 -10 5 -15 l80 0 q14 -1 15 -14 q-1 -13 -15 -14 l-130 0 q0 -12 -2 -36 l94 0 q21 0 21 -20 q-2 -43 -5 -69 q-2 -46 -47 -46 q-19 0 -39 0 q-16 0 -16 16 q1 13 14 14 q14 0 29 0 q27 -2 28 27 q3 19 3 44 q0 6 -6 6 l-78 0 q-7 -68 -58 -110 q-12 -9 -25 0 q-9 12 0 23 q50 37 53 107 q1 6 1 22 q1 15 1 22 l-48 0 Z" /><glyph glyph-name="" unicode="&#x66f4;" d="M22 176 q-11 1 -12 12 q1 11 12 12 l212 0 q11 -1 12 -12 q-1 -11 -12 -12 l-90 0 l0 -18 l65 0 q18 0 17 -18 l0 -74 q1 -18 -17 -18 l-71 0 q-4 -25 -15 -37 q31 -9 113 -12 q12 -2 11 -16 q-4 -12 -17 -11 q-91 4 -131 19 q-20 -11 -66 -23 q-14 -2 -20 9 q-5 14 7 18 q29 4 48 12 q-12 7 -23 19 q-7 9 1 17 q11 6 20 -2 q13 -11 28 -19 q11 9 15 26 l-62 0 q-18 0 -18 18 l0 74 q0 18 18 18 l66 0 l0 18 l-91 0 ZM142 92 q0 -4 -1 -11 q0 -6 0 -9 l51 0 q5 0 5 6 l0 14 l-55 0 ZM58 129 l0 -15 l55 0 q0 9 0 20 l-49 0 q-6 0 -6 -5 ZM112 72 q0 9 1 20 l-55 0 l0 -15 q0 -5 6 -5 l48 0 ZM192 134 l-49 0 q0 -10 0 -20 l54 0 l0 14 q0 6 -5 6 Z" /><glyph glyph-name="" unicode="&#x6709;" d="M23 156 q-12 1 -13 14 q1 12 13 13 l63 0 q3 8 6 15 q7 17 23 14 q14 -3 11 -17 q-1 -2 -2 -6 q-2 -4 -3 -6 l115 0 q12 -1 13 -13 q-1 -13 -13 -14 l-129 0 q-6 -11 -13 -20 l111 0 q16 -2 18 -18 l0 -111 q2 -34 -35 -35 q-4 0 -14 0 q-10 -1 -15 -1 q-15 1 -16 15 q1 11 10 12 q12 0 23 0 q18 -1 17 16 l0 8 l-112 0 l0 -40 q-1 -14 -15 -15 q-15 1 -16 15 l0 97 q-11 -12 -23 -23 q-12 -9 -20 5 q-6 12 5 23 q35 32 59 72 l-48 0 ZM81 104 l0 -14 l112 0 l0 14 q0 6 -7 6 l-99 0 q-6 0 -6 -6 ZM81 66 l0 -20 l112 0 l0 20 l-112 0 Z" /><glyph glyph-name="" unicode="&#x670b;" d="M126 -29 q-10 6 -4 22 q18 34 18 96 l0 93 q1 17 17 18 l62 0 q17 -1 18 -18 l0 -175 q1 -34 -28 -35 q-8 0 -18 0 q-17 0 -17 16 q1 11 10 12 q7 0 14 0 q12 -2 11 12 l0 39 l-43 0 q-3 -44 -18 -74 q-8 -13 -22 -6 ZM10 -28 q-9 9 -2 24 q17 35 16 106 l0 80 q2 17 18 18 l58 0 q17 -1 18 -18 l0 -176 q1 -30 -27 -32 q-3 0 -9 -1 q-6 0 -8 0 q-16 0 -18 16 q1 11 11 12 q6 0 11 0 q13 -1 12 12 l0 38 l-39 0 q-3 -41 -19 -76 q-8 -10 -22 -3 ZM167 88 q0 -6 0 -12 l42 0 l0 36 l-42 0 l0 -24 ZM167 168 l0 -31 l42 0 l0 31 q0 6 -6 6 l-29 0 q-6 -1 -7 -6 ZM52 87 q0 -5 0 -11 l38 0 l0 37 l-38 0 l0 -26 ZM52 167 l0 -30 l38 0 l0 30 q0 7 -6 7 l-26 0 q-5 -1 -6 -7 Z" /><glyph glyph-name="" unicode="&#x677e;" d="M18 137 q-12 1 -13 14 q1 12 13 13 l21 0 l0 34 q1 13 15 14 q13 -2 14 -14 l0 -34 l19 0 q12 -1 13 -13 q-1 -13 -13 -14 l-19 0 l0 -24 q2 0 4 -2 q3 -3 9 -8 q12 -12 16 -17 q10 -11 1 -20 q-10 -10 -19 0 q-2 2 -5 7 q-4 4 -6 6 l0 -99 q-1 -14 -14 -15 q-14 1 -15 15 l0 99 q-4 -10 -13 -28 q-2 -4 -3 -6 q-8 -8 -17 1 q-3 3 -3 8 q0 6 4 14 q18 30 31 69 l-20 0 ZM131 -18 q-28 -3 -30 10 q-5 9 7 31 q26 46 40 83 q7 14 21 10 q14 -7 9 -20 q-28 -55 -41 -79 q-2 -6 4 -7 q10 0 36 2 q15 1 22 1 q-9 18 -17 35 q-5 10 7 18 q11 4 19 -8 q11 -21 34 -66 q4 -14 -8 -21 q-13 -4 -19 8 q-3 3 -4 8 q-42 -4 -80 -5 ZM247 98 q-12 -10 -20 -1 q-34 42 -50 92 q-2 13 10 18 q13 2 18 -10 q16 -48 41 -75 q10 -13 1 -24 ZM97 97 q-10 9 -2 22 q22 31 34 73 q5 13 18 11 q12 -4 10 -18 q-15 -48 -39 -87 q-10 -9 -21 -1 Z" /><glyph glyph-name="" unicode="&#x6b3e;" d="M142 -28 q-11 -9 -23 1 q-9 12 1 22 q49 40 49 103 q0 14 0 27 q2 13 15 15 q12 -2 14 -14 q0 -3 -1 -10 q0 -7 0 -9 q0 -3 0 -4 q10 -73 49 -105 q10 -10 2 -24 q-10 -9 -22 0 q-29 28 -40 73 q-7 -41 -44 -75 ZM17 167 q-11 1 -12 11 q1 11 12 12 l40 0 l0 9 q1 14 14 15 q14 -1 15 -15 l0 -9 l38 0 q11 -1 12 -12 q-1 -10 -12 -11 l-38 0 l0 -17 l29 0 q10 -1 11 -12 q-1 -11 -11 -12 l-91 0 q-10 1 -11 12 q1 11 11 12 l33 0 l0 17 l-40 0 ZM133 108 q-10 7 -4 19 q20 43 27 75 q4 12 17 10 q14 -3 11 -16 q-1 -4 -4 -13 q-1 -4 -2 -7 l54 0 q14 -1 15 -13 q0 -8 -2 -18 q-1 -2 -1 -3 l-8 -28 q-3 -11 -15 -9 q-13 4 -11 15 l8 23 q2 7 -5 7 l-44 0 q-3 -12 -14 -34 q-1 -3 -2 -5 q-8 -10 -20 -3 ZM17 49 q-11 0 -11 12 q1 10 11 11 l108 0 q11 -1 12 -11 q-1 -11 -12 -12 l-37 0 l0 -46 q1 -29 -27 -30 l-17 0 q-12 1 -13 11 q1 12 10 14 q5 0 9 0 q10 0 10 11 l0 40 l-43 0 ZM27 88 q-10 2 -11 12 q1 9 11 11 l86 0 q10 -1 11 -11 q-1 -11 -11 -12 l-86 0 ZM13 -12 q-9 6 -5 16 q6 9 15 30 q5 10 15 7 q10 -5 8 -15 q-8 -17 -17 -34 q-5 -9 -16 -4 ZM123 1 q-10 -6 -16 5 q-1 3 -5 9 q-4 6 -6 8 q-4 9 5 15 q8 4 16 -4 q2 -2 5 -8 q4 -6 5 -9 q6 -9 -4 -16 Z" /><glyph glyph-name="" unicode="&#x6c42;" d="M20 140 q-13 1 -14 13 q1 13 14 14 l93 0 l0 32 q1 15 16 16 q14 -1 15 -16 l0 -32 l47 0 q-12 12 -20 18 q-6 9 2 17 q11 7 19 0 q2 -2 11 -9 q8 -7 10 -9 q6 -8 0 -17 l23 0 q12 -1 13 -14 q-1 -12 -13 -13 l-92 0 l0 -8 q9 -24 22 -43 q22 19 41 36 q13 8 23 -1 q9 -10 -2 -21 q-6 -5 -23 -17 q-16 -13 -23 -18 q22 -25 56 -41 q14 -9 7 -23 q-10 -13 -23 -6 q-52 30 -78 79 l0 -65 q2 -36 -34 -39 q-1 0 -5 0 q-22 -1 -27 0 q-13 0 -15 13 q0 15 13 16 q2 0 11 0 q8 -1 10 -1 q17 -1 16 18 l0 33 q-11 -6 -41 -23 q-31 -18 -42 -24 q-12 -6 -21 7 q-4 15 8 22 q63 32 89 48 q4 1 7 1 l0 57 l-93 0 ZM82 78 q-11 -8 -22 1 q-6 7 -27 28 q-9 10 0 19 q9 8 20 0 q4 -3 15 -13 q11 -11 14 -14 q9 -10 0 -21 Z" /><glyph glyph-name="" unicode="&#x6d88;" d="M96 -33 q-13 1 -14 14 l0 148 q1 15 16 15 l46 0 l0 53 q1 14 15 15 q14 -1 15 -15 l0 -53 l46 0 q16 1 16 -14 l0 -121 q1 -35 -31 -36 q-15 0 -31 0 q-13 0 -14 12 q-1 13 11 14 q10 0 22 0 q15 -1 14 15 l0 9 l-96 0 l0 -42 q-1 -13 -15 -14 ZM24 -28 q-13 5 -10 19 q2 8 7 24 q9 31 12 45 q5 13 18 10 q13 -5 11 -19 q-3 -13 -2 -8 q-12 -42 -17 -60 q-4 -13 -19 -11 ZM111 71 l0 -23 l96 0 l0 23 l-96 0 ZM111 111 l0 -16 l96 0 l0 17 q0 6 -6 6 l-84 0 q-6 0 -6 -7 ZM38 94 q-2 1 -6 5 q-13 11 -17 14 q-10 11 -1 20 q9 9 20 2 q17 -12 24 -18 q10 -10 1 -21 q-9 -10 -21 -2 ZM42 161 q-4 4 -19 17 q-2 1 -3 2 q-9 9 -1 19 q10 9 21 2 q2 -2 8 -6 q11 -9 14 -12 q10 -9 2 -21 q-10 -10 -22 -1 ZM122 157 q-12 -6 -21 3 q-2 3 -8 9 q-7 8 -9 11 q-7 9 2 17 q11 6 19 -1 q14 -14 18 -19 q7 -10 -1 -20 ZM195 156 q-8 8 -2 17 q1 2 5 5 q10 13 13 17 q8 9 19 3 q9 -7 2 -17 q-6 -8 -19 -24 q-9 -7 -18 -1 Z" /><glyph glyph-name="" unicode="&#x7247;" d="M23 -27 q-12 10 -4 23 q30 35 28 114 l0 79 q1 15 15 16 q15 -1 16 -16 l0 -45 l78 0 l0 52 q1 15 16 16 q14 -1 15 -16 l0 -52 l46 0 q12 -1 14 -14 q-1 -14 -14 -15 l-155 0 l0 -5 q0 -18 -1 -31 l106 0 q16 0 16 -19 l0 -76 q-1 -15 -15 -16 q-15 1 -16 16 l0 57 q0 9 -7 9 l-87 0 q-5 -42 -27 -75 q-10 -11 -24 -2 Z" /><glyph glyph-name="" unicode="&#x7248;" d="M12 -29 q-9 7 -5 18 q15 30 14 95 l0 106 q1 13 13 14 q12 -1 13 -14 l0 -54 l19 0 l0 61 q1 12 12 13 q13 -1 14 -13 l0 -61 l2 0 q12 -1 13 -12 q-1 -11 -13 -12 l-47 0 l0 -28 l30 0 q16 1 15 -17 l0 -74 q2 4 3 9 q23 31 21 99 l0 74 q0 18 18 19 q40 2 93 9 q14 2 17 -10 q1 -14 -10 -18 q-8 -1 -26 -2 q-39 -4 -56 -5 q-9 -1 -9 -10 l0 -20 l75 0 q16 1 19 -8 q3 -7 1 -20 q-8 -48 -32 -82 q15 -16 36 -29 q10 -9 3 -22 q-8 -8 -22 -2 q-20 15 -35 31 q-15 -17 -36 -33 q-13 -6 -21 3 q-6 12 4 20 q22 15 37 32 q-16 25 -24 59 q-4 13 5 18 q10 5 16 -6 q7 -27 20 -49 q13 24 19 52 q2 8 -6 8 l-59 0 l0 -17 q2 -72 -26 -112 q-10 -9 -20 0 q-4 4 -5 9 l0 -9 q-1 -11 -13 -12 q-12 1 -13 12 l0 72 q0 7 -6 7 l-13 0 q-1 -51 -15 -85 q-7 -11 -20 -4 Z" /><glyph glyph-name="" unicode="&#x72ec;" d="M113 62 q-15 0 -15 15 l0 74 q0 15 15 15 l39 0 l0 31 q1 13 14 14 q13 -1 14 -14 l0 -31 l40 0 q15 0 15 -15 l0 -74 q0 -15 -15 -15 l-40 0 l0 -49 q5 0 14 1 q9 0 14 1 q-3 9 -6 16 q-4 11 8 16 q12 2 17 -9 q11 -27 19 -50 q4 -12 -8 -17 q-13 -2 -17 9 q-1 4 -4 9 q-66 -5 -112 -8 q-14 -1 -16 11 q-1 14 12 16 q24 2 51 3 l0 51 l-39 0 ZM27 115 q-11 -6 -19 6 q-4 11 6 19 q9 8 20 17 q-7 13 -18 26 q-6 9 2 18 q12 6 20 -2 q9 -12 16 -22 q3 3 8 9 q6 6 8 9 q7 9 18 3 q9 -9 2 -19 q-12 -13 -23 -27 q16 -39 16 -118 q3 -60 -39 -60 q-7 0 -15 0 q-14 0 -16 12 q-1 14 12 15 l10 0 q21 -2 20 33 q0 18 0 33 q-8 -10 -26 -28 q-11 -5 -20 4 q-6 10 5 22 q18 13 37 39 q-3 14 -6 27 q-9 -9 -18 -16 ZM204 140 l-24 0 l0 -52 l24 0 q5 0 5 5 l0 42 q0 5 -5 5 ZM125 135 l0 -42 q0 -5 5 -5 l22 0 l0 52 l-22 0 q-5 0 -5 -5 Z" /><glyph glyph-name="" unicode="&#x7406;" d="M112 74 q-15 0 -15 16 l0 95 q0 15 15 15 l109 0 q15 -1 16 -15 l0 -96 q-1 -14 -16 -15 l-40 0 l0 -22 l50 0 q12 -1 13 -12 q-2 -11 -13 -12 l-50 0 l0 -25 l59 0 q12 -1 13 -12 q-1 -12 -13 -13 l-150 0 q-11 1 -12 13 q1 11 12 12 l63 0 l0 25 l-50 0 q-10 2 -12 12 q1 11 12 12 l50 0 l0 22 l-41 0 ZM19 168 q-12 1 -13 14 q1 12 13 13 l58 0 q13 -1 14 -13 q-1 -13 -14 -14 l-15 0 l0 -57 l14 0 q13 -2 14 -13 q-1 -11 -14 -13 l-14 0 l0 -58 q8 2 14 3 q12 1 15 -12 q0 -12 -13 -16 q-8 -1 -27 -6 q-20 -4 -28 -5 q-15 -2 -18 11 q-1 14 13 18 q3 0 9 1 q5 2 8 2 l0 62 l-14 0 q-13 1 -14 13 q1 12 14 13 l14 0 l0 57 l-16 0 ZM204 99 q6 0 5 5 l0 22 l-28 0 l0 -27 l23 0 ZM124 105 q0 -6 6 -6 l23 0 l0 27 l-29 0 l0 -21 ZM204 176 l-23 0 l0 -27 l28 0 l0 22 q1 5 -5 5 ZM124 170 l0 -21 l29 0 l0 27 l-23 0 q-5 -1 -6 -6 Z" /><glyph glyph-name="" unicode="&#x7528;" d="M18 -31 q-13 8 -6 22 q20 27 18 105 l0 85 q0 17 18 17 l169 0 q18 0 18 -16 l0 -176 q2 -35 -31 -34 q-13 0 -27 0 q-13 0 -15 14 q0 12 12 14 l17 0 q15 0 14 13 l0 30 l-59 0 l0 -55 q-1 -14 -15 -15 q-13 1 -15 15 l0 55 l-57 0 q-2 -37 -19 -68 q-7 -12 -22 -6 ZM146 106 l0 -36 l59 0 l0 36 l-59 0 ZM200 170 l-54 0 l0 -36 l59 0 l0 30 q0 6 -5 6 ZM61 96 q0 -5 -1 -14 q0 -8 0 -12 l56 0 l0 36 l-55 0 l0 -10 ZM61 165 l0 -31 l55 0 l0 36 l-50 0 q-5 0 -5 -5 Z" /><glyph glyph-name="" unicode="&#x767b;" d="M22 80 q-14 -4 -18 6 q-4 14 6 19 q21 10 37 22 q-20 15 -24 19 q-7 8 -1 16 q11 8 19 1 q10 -6 25 -19 q12 12 21 26 q2 2 1 4 q-1 1 -4 1 l-57 0 q-11 1 -12 12 q1 11 12 12 l79 0 q12 -1 13 -13 q1 -15 -5 -22 q-8 -13 -17 -24 l61 0 q-17 23 -29 57 q-2 11 8 15 q13 3 18 -8 q2 -7 7 -18 q2 -2 2 -3 q6 3 19 13 q10 6 13 8 q10 6 19 -2 q7 -10 -2 -17 q-10 -7 -38 -23 q1 -2 4 -5 q2 -3 7 -9 q9 5 29 18 q6 4 8 5 q12 6 19 -2 q7 -9 -2 -17 q-14 -9 -35 -21 q17 -12 39 -22 q10 -5 6 -18 q-6 -12 -18 -8 q-12 6 -22 12 q3 -5 3 -14 l0 -32 q1 -20 -18 -19 l-8 0 q8 -7 3 -15 q-1 -1 -4 -4 q-5 -7 -8 -10 l60 0 q11 -2 12 -13 q-1 -11 -12 -12 l-219 0 q-11 1 -13 12 q1 12 13 13 l57 0 q-2 2 -6 7 q-4 5 -5 6 q-7 9 3 16 l-8 0 q-20 -1 -19 19 l0 32 q0 8 3 12 q-5 -4 -16 -10 q-4 -2 -6 -3 ZM178 53 q6 0 6 6 l0 12 q1 7 -6 6 l-101 0 q-6 0 -6 -6 l0 -12 q0 -6 6 -6 l101 0 ZM84 117 q-3 0 -6 2 q-11 -11 -25 -20 q1 0 3 0 q2 1 4 1 l136 0 q2 0 4 0 q3 -1 4 -1 q-16 9 -28 21 q-3 -3 -7 -3 l-85 0 ZM165 27 q2 2 3 3 l-83 0 q1 0 2 -1 q2 -1 2 -2 q2 -1 13 -14 q5 -6 6 -7 q0 -1 1 -1 q1 -1 1 -4 l32 0 q3 3 14 16 q8 9 9 10 Z" /><glyph glyph-name="" unicode="&#x7684;" d="M34 -19 q-16 1 -18 18 l0 154 q2 17 18 18 l9 0 q5 13 7 27 q5 16 19 13 q15 -2 12 -17 q-1 -5 -5 -20 q-1 -2 -1 -3 l23 0 q17 -1 18 -18 l0 -154 q-1 -17 -18 -18 l-64 0 ZM129 111 q-12 8 -7 20 q16 30 29 69 q6 13 19 11 q14 -5 11 -18 q-2 -4 -5 -13 q-2 -6 -3 -9 l51 0 q17 -2 17 -18 q0 -34 -2 -112 q-1 -15 -1 -21 q1 -46 -44 -47 q-14 0 -29 0 q-17 0 -19 17 q1 12 13 13 q12 -1 24 -1 q25 0 25 25 q2 57 2 110 q0 6 -6 6 l-43 0 q-6 -15 -13 -26 q-6 -10 -19 -6 ZM45 137 l0 -48 l42 0 l0 48 q-1 5 -6 6 l-30 0 q-6 0 -6 -6 ZM81 9 q5 1 6 6 l0 48 l-42 0 l0 -48 q0 -6 6 -6 l30 0 ZM185 47 q-12 -8 -21 4 q-13 21 -24 33 q-7 11 4 19 q11 5 20 -3 q13 -16 24 -32 q7 -12 -3 -21 Z" /><glyph glyph-name="" unicode="&#x76f4;" d="M17 169 q-10 1 -11 11 q1 11 11 12 l95 0 l0 7 q1 15 15 16 q15 -1 16 -16 l0 -7 l93 0 q10 -1 11 -12 q-1 -10 -11 -11 l-93 0 l0 -17 l61 0 q18 0 18 -18 l0 -133 l18 0 q11 -1 12 -12 q-1 -10 -12 -11 l-224 0 q-11 1 -12 11 q1 11 12 12 l18 0 l0 133 q0 18 18 18 l60 0 l0 17 l-95 0 ZM64 18 l0 -17 l128 0 l0 17 l-128 0 ZM64 55 l0 -17 l128 0 l0 17 l-128 0 ZM64 92 l0 -17 l128 0 l0 17 l-128 0 ZM64 122 l0 -10 l128 0 l0 10 q1 8 -6 7 l-115 0 q-8 1 -7 -7 Z" /><glyph glyph-name="" unicode="&#x7801;" d="M167 -28 q-13 1 -17 13 q-1 14 12 16 q13 0 28 0 q20 -1 19 16 q1 12 2 41 q0 -5 1 11 q1 9 -8 8 l-70 0 q-17 0 -16 17 l6 60 q2 12 15 12 q13 -2 13 -14 l-4 -41 q-2 -8 7 -8 l34 0 l6 63 q1 6 -6 6 l-64 0 q-12 1 -13 13 q1 13 13 14 l85 0 q16 0 16 -18 l-8 -78 l7 0 q16 0 16 -17 q0 -10 -1 -29 q-2 -31 -2 -44 q1 -41 -43 -40 q-3 -1 -14 -1 q-10 0 -14 0 ZM22 168 q-12 1 -13 12 q1 12 13 13 l72 0 q11 -1 12 -13 q-1 -11 -12 -12 l-24 0 q-5 -25 -16 -48 l28 0 q15 -2 17 -18 l0 -98 q-2 -15 -17 -17 l-38 0 q-15 2 -17 17 l0 68 q-7 -9 -17 -3 q-6 4 -6 10 q0 6 3 11 q27 39 35 78 l-20 0 ZM119 25 q-12 1 -13 14 q1 12 13 13 l69 0 q13 -1 14 -13 q-1 -13 -14 -14 l-69 0 ZM71 11 q5 0 5 5 l0 75 q0 4 -5 4 l-15 0 q-3 0 -4 -4 l0 -75 q1 -5 4 -5 l15 0 Z" /><glyph glyph-name="" unicode="&#x7acb;" d="M19 -20 q-14 1 -15 14 q1 14 15 15 l115 0 q0 0 0 1 q24 52 45 107 q7 15 22 11 q15 -8 9 -23 q-22 -53 -42 -96 l69 0 q14 -1 15 -15 q-1 -13 -15 -14 l-218 0 ZM26 138 q-13 2 -15 15 q1 13 15 14 l90 0 q0 2 0 3 q-1 2 -4 13 q-3 10 -4 12 q-2 14 13 19 q16 0 21 -15 q1 -3 4 -12 q2 -9 3 -12 q0 -5 -1 -8 l82 0 q14 -1 15 -14 q-1 -13 -15 -15 l-204 0 ZM97 20 q-14 -3 -21 10 q-7 22 -27 70 q-1 4 -2 6 q-5 13 8 20 q13 5 20 -8 q22 -51 31 -76 q5 -13 -9 -22 Z" /><glyph glyph-name="" unicode="&#x7ae5;" d="M50 42 q-18 0 -18 18 l0 43 q0 18 18 18 l156 0 q17 0 17 -18 l0 -43 q0 -18 -17 -18 l-64 0 l0 -13 l84 0 q8 -1 9 -9 q-1 -8 -9 -9 l-84 0 l0 -13 l99 0 q10 -1 10 -10 q-1 -9 -10 -10 l-227 0 q-9 1 -10 10 q1 9 10 10 l99 0 l0 13 l-84 0 q-8 1 -9 9 q1 8 9 9 l84 0 l0 13 l-63 0 ZM26 171 q-8 1 -9 10 q1 8 9 9 l87 0 q0 2 -1 4 q0 3 -1 4 q-4 13 11 17 q17 3 21 -9 q0 -2 2 -7 q1 -6 2 -9 l81 0 q9 -1 10 -9 q-1 -9 -10 -10 l-34 0 q3 -5 -1 -10 q-3 -4 -7 -9 l54 0 q10 0 10 -10 q-1 -8 -10 -9 l-225 0 q-9 1 -10 9 q1 9 10 10 l55 0 q-3 5 -7 9 q-3 5 -1 10 l-36 0 ZM154 155 q2 3 7 8 q4 6 6 8 l-77 0 q2 -4 9 -11 q0 -1 1 -2 q1 -2 1 -6 l52 0 q0 1 1 2 q0 1 0 1 ZM188 59 q7 0 7 6 l0 8 l-53 0 l0 -14 l46 0 ZM61 65 q0 -6 6 -6 l46 0 l0 14 l-52 0 l0 -8 ZM188 104 l-46 0 l0 -14 l53 0 l0 8 q0 6 -7 6 ZM61 98 l0 -8 l52 0 l0 14 l-46 0 q-6 0 -6 -6 Z" /><glyph glyph-name="" unicode="&#x7b49;" d="M33 112 q-9 1 -10 11 q1 10 10 10 l79 0 l0 5 q1 14 14 15 l2 0 q-5 7 1 15 q15 17 24 39 q5 10 18 8 q12 -4 9 -16 q-1 -3 -3 -6 l61 0 q11 -1 12 -12 q-1 -10 -12 -12 l-42 0 q1 -1 4 -3 q9 -8 10 -10 q7 -7 1 -15 q-9 -7 -17 0 q-2 1 -10 8 q-5 4 -6 5 q-6 8 0 15 l-14 0 q-2 -2 -6 -8 q-4 -5 -6 -8 q-6 -7 -14 -6 q4 -4 4 -9 l0 -5 l77 0 q10 -1 11 -10 q-1 -10 -11 -11 l-77 0 l0 -19 l97 0 q11 -1 12 -11 q-1 -11 -12 -12 l-44 0 q0 -1 0 -3 l0 -16 l36 0 q11 -1 12 -12 q-1 -10 -12 -11 l-36 0 l0 -19 q1 -38 -36 -37 q-9 -1 -33 -1 q-12 1 -16 13 q-1 12 10 12 q15 0 26 0 q20 -1 19 18 l0 14 l-93 0 q0 -1 1 -1 q1 -1 1 -1 q10 -7 22 -18 q9 -8 2 -18 q-10 -9 -21 -1 q-3 4 -20 17 q-1 1 -2 2 q-7 8 0 17 q0 1 2 2 q1 1 1 1 l-32 0 q-11 1 -12 11 q1 11 12 12 l139 0 l0 16 q0 2 0 3 l-148 0 q-11 1 -12 12 q1 10 12 11 l95 0 l0 19 l-79 0 ZM11 143 q-8 10 0 19 q22 19 35 46 q5 10 18 7 q12 -5 9 -15 q-1 -2 -3 -5 q-1 -1 -1 -2 l52 0 q10 -1 11 -12 q-1 -11 -11 -12 l-38 0 q1 0 1 0 q7 -7 13 -13 q8 -8 0 -16 q-10 -7 -18 1 q-1 1 -6 7 q-5 5 -6 6 q-6 8 1 15 l-14 0 q-11 -14 -23 -26 q-9 -7 -20 0 Z" /><glyph glyph-name="" unicode="&#x7c73;" d="M23 88 q-14 1 -15 14 q1 13 15 14 l90 0 l0 80 q2 14 15 15 q15 -1 16 -15 l0 -80 l89 0 q14 -1 15 -14 q-1 -13 -15 -14 l-76 0 q30 -43 79 -64 q12 -8 7 -23 q-9 -12 -23 -7 q-52 30 -76 71 l0 -82 q-1 -15 -16 -16 q-14 1 -15 16 l0 81 q-23 -37 -78 -74 q-13 -7 -23 6 q-7 14 6 22 q52 30 81 70 l-76 0 ZM172 134 q-10 11 -1 21 q17 19 27 32 q11 11 23 2 q10 -9 2 -20 q-1 -2 -5 -5 q-17 -20 -24 -29 q-11 -9 -22 -1 ZM84 135 q-12 -9 -23 1 q-6 8 -22 25 q-4 5 -6 7 q-8 11 2 21 q10 7 21 -1 q4 -5 15 -16 q10 -10 14 -15 q9 -10 -1 -22 Z" /><glyph glyph-name="" unicode="&#x7d22;" d="M229 93 q-14 1 -15 11 l0 17 q0 5 -4 5 l-68 0 q-16 -10 -43 -23 q-1 -1 -1 -2 q0 -1 2 -1 q6 0 19 0 q15 1 22 1 q13 8 28 15 q15 7 22 0 q8 -11 -2 -17 q-57 -26 -90 -40 q-1 0 -1 -1 q1 -2 2 -2 q12 1 41 2 q26 1 37 1 q-2 2 -7 6 q-4 4 -5 5 q-7 7 1 14 q10 5 19 -2 q4 -3 15 -11 q23 -19 33 -26 q8 -10 -1 -17 q-9 -7 -18 0 q-2 2 -7 5 q-4 4 -6 6 q-9 0 -27 -1 q-19 0 -28 -1 l0 -33 q2 -32 -31 -32 q-2 0 -11 0 q-12 -1 -16 -1 q-14 1 -16 12 q-1 12 10 14 q9 0 18 0 q17 -1 16 14 l0 25 q-33 -1 -63 -3 q-14 0 -17 10 q-2 12 9 17 q26 10 54 22 q-11 -1 -33 -1 q-12 -2 -16 8 q-4 10 9 16 q21 9 41 21 l-56 0 q-3 0 -4 -5 l0 -16 q-1 -11 -14 -12 q-13 1 -14 14 l0 26 q1 15 16 16 l83 0 l0 18 l-85 0 q-11 1 -12 11 q1 11 12 12 l85 0 l0 8 q2 14 15 15 q15 -1 16 -15 l0 -8 l86 0 q11 -1 12 -12 q-1 -10 -12 -11 l-86 0 l0 -18 l83 0 q15 -1 16 -16 l0 -26 q-1 -13 -13 -14 ZM28 -24 q-11 -5 -20 5 q-5 11 6 18 q29 13 58 29 q11 6 20 -2 q6 -11 -3 -17 q-28 -17 -61 -33 ZM225 -23 q-10 6 -38 20 q-13 7 -19 10 q-7 6 -3 16 q8 9 20 4 q5 -3 17 -9 q29 -13 39 -19 q10 -7 4 -18 q-8 -10 -20 -4 Z" /><glyph glyph-name="" unicode="&#x7ebf;" d="M27 108 q-15 0 -19 11 q-3 10 7 24 q13 17 32 58 q6 13 20 9 q12 -5 7 -18 q-22 -38 -33 -54 q-1 -2 -1 -3 q1 -1 3 -1 q9 0 20 0 q1 2 4 7 q2 4 3 6 q8 12 20 7 q5 -2 6 -7 q3 7 11 7 l25 3 q-2 20 -2 40 q1 14 14 15 q14 -1 15 -15 q0 -6 1 -18 q0 -13 1 -19 l67 8 q13 0 14 -11 q1 -11 -11 -14 l-69 -8 q0 -1 0 -3 q2 -12 2 -24 l72 10 q11 1 14 -11 q0 -12 -12 -15 l-70 -10 q3 -18 8 -33 q19 15 38 33 q9 8 18 0 q9 -9 1 -17 q-23 -23 -47 -41 q10 -23 22 -23 q8 1 11 11 q0 2 1 5 q2 11 3 15 q5 12 16 9 q13 -3 10 -19 q-1 -4 -5 -16 q-1 -6 -2 -9 q-8 -26 -33 -26 q-31 0 -48 36 q-12 -7 -39 -20 q-6 -3 -9 -4 q-15 -6 -22 6 q-2 5 -1 10 q-3 -3 -7 -3 q-36 -6 -61 -11 q-14 -1 -17 13 q-1 14 13 16 q25 3 61 9 q16 1 18 -11 q0 -3 0 -4 q1 0 2 1 q1 0 1 0 q20 8 51 24 q-6 17 -11 45 l-30 -4 q-12 -1 -15 11 q0 12 11 15 l30 4 q-2 14 -2 27 l-24 -2 q-11 -1 -15 8 q0 0 0 -1 q-4 -6 -13 -20 q-19 -30 -28 -43 q-2 -2 -2 -4 q1 -1 4 -1 q4 1 15 2 q9 1 13 1 q13 0 14 -11 q-1 -12 -13 -13 q-38 -6 -50 -6 q-17 -2 -21 9 q-4 10 9 24 q13 15 25 35 q-12 -1 -21 -1 ZM197 170 q-3 3 -19 15 q-8 7 -2 17 q7 9 20 2 q5 -4 20 -14 q9 -8 1 -18 q-9 -8 -20 -2 Z" /><glyph glyph-name="" unicode="&#x7ef4;" d="M82 97 q-9 5 2 24 q21 31 37 79 q5 14 19 12 q13 -4 10 -17 q-2 -7 -7 -19 q-2 -6 -3 -8 l43 0 q-4 2 -5 7 q-1 2 -4 9 q-3 6 -4 8 q-4 13 8 17 q14 2 19 -11 q1 -2 4 -9 q3 -6 4 -9 q3 -7 -2 -12 l34 0 q11 -1 12 -12 q-1 -11 -12 -12 l-36 0 l0 -29 l35 0 q11 -1 12 -12 q-1 -11 -12 -12 l-35 0 l0 -29 l34 0 q11 -1 12 -12 q-1 -11 -12 -12 l-34 0 l0 -30 l39 0 q11 -1 12 -12 q-1 -11 -12 -12 l-107 0 l0 -4 q-1 -13 -14 -14 q-13 1 -14 14 l0 125 q0 -1 -1 -2 q0 -1 -1 -2 q-11 -10 -21 -4 ZM28 108 q-14 -1 -19 10 q-4 9 7 25 q19 27 32 58 q7 13 20 9 q12 -5 6 -18 q-13 -24 -34 -55 q-2 -3 2 -4 q13 0 18 1 q6 9 9 17 q8 11 20 6 q10 -8 4 -19 q-25 -42 -43 -67 q-1 -2 0 -3 q1 -1 3 0 q4 0 14 1 q9 1 12 1 q12 0 13 -11 q-2 -11 -13 -13 q-26 -5 -44 -5 q-18 -2 -21 9 q-4 10 9 25 q11 14 23 34 q-10 -1 -18 -1 ZM21 -14 q-13 -1 -16 12 q-2 13 12 16 q8 1 27 4 q24 3 34 5 q14 0 15 -12 q-1 -13 -13 -16 q-32 -4 -59 -9 ZM133 38 l0 -30 l41 0 l0 30 l-41 0 ZM133 144 l0 -29 l41 0 l0 29 l-41 0 ZM133 91 l0 -29 l41 0 l0 29 l-41 0 Z" /><glyph glyph-name="" unicode="&#x7fa4;" d="M15 130 q-11 1 -12 12 q1 10 12 11 l25 0 q0 11 1 23 l-20 0 q-11 0 -11 11 q0 12 11 12 l80 0 q16 -1 16 -16 l0 -30 l1 0 q11 -1 12 -11 q-1 -11 -12 -12 l-1 0 l0 -31 q0 -15 -16 -15 l-45 0 q-3 -10 -7 -19 l55 0 q16 0 16 -16 l0 -53 q0 -16 -16 -16 l-59 0 q-15 0 -15 16 l0 33 q-1 -1 -3 -4 q-4 -4 -6 -8 q-8 -7 -16 3 q-5 10 1 19 q19 25 24 45 l-12 0 q-9 1 -10 11 q1 11 10 12 l18 0 q2 9 2 23 l-23 0 ZM145 137 q-12 1 -13 14 q1 12 13 13 l44 0 q1 2 4 8 q14 24 17 32 q7 11 19 7 q12 -6 7 -17 q-2 -3 -7 -10 q-8 -14 -12 -20 l18 0 q12 -1 13 -13 q-1 -13 -13 -14 l-31 0 l0 -29 l28 0 q13 -1 14 -13 q-1 -13 -14 -14 l-28 0 l0 -30 l34 0 q13 -1 14 -13 q-1 -12 -14 -13 l-34 0 l0 -44 q-1 -13 -15 -14 q-13 2 -14 14 l0 44 l-36 0 q-12 1 -13 13 q1 12 13 13 l36 0 l0 30 l-27 0 q-12 1 -13 14 q1 12 13 13 l27 0 l0 29 l-30 0 ZM55 36 l0 -28 q0 -5 6 -5 l28 0 q5 0 5 6 l0 27 q0 5 -5 5 l-28 0 q-6 0 -6 -5 ZM174 170 q-13 -4 -18 6 q-1 3 -5 10 q-4 7 -6 9 q-5 10 6 16 q13 3 18 -6 q2 -2 6 -9 q5 -7 6 -10 q4 -9 -7 -16 ZM63 130 q0 -3 -1 -7 q0 -11 -2 -16 l29 0 q4 0 4 5 l0 18 l-30 0 ZM89 176 l-23 0 q-1 -12 -1 -23 l28 0 l0 17 q0 6 -4 6 Z" /><glyph glyph-name="" unicode="&#x8000;" d="M107 47 q-10 -6 -17 4 q-5 9 3 17 q21 20 31 42 q5 9 17 6 q10 -4 7 -14 q-1 -1 -3 -4 l28 0 q0 2 -1 6 q1 -2 -1 2 q-2 10 8 13 q11 1 16 -8 q1 -2 2 -6 q1 -5 1 -7 l41 0 q9 -1 10 -9 q0 -9 -10 -10 l-41 0 l0 -16 l36 0 q9 0 9 -8 q-1 -8 -9 -9 l-36 0 l0 -15 l36 0 q8 -1 9 -9 q-1 -7 -9 -8 l-36 0 l0 -16 l43 0 q9 -1 10 -10 q-1 -8 -10 -9 l-105 0 q-1 -11 -12 -12 q-12 1 -13 13 l0 72 l-4 -5 ZM17 86 q-11 1 -12 12 q1 11 12 12 l23 0 l0 90 q1 11 12 12 q12 -1 13 -12 l0 -90 l22 0 q11 -1 12 -12 q-1 -11 -12 -12 l-7 0 l0 -68 q0 -2 1 -2 q1 -1 2 0 l7 5 q10 5 15 -5 q4 -10 -8 -19 q-10 -7 -18 -13 q-9 -6 -16 -1 q-5 5 -5 14 l0 89 l-13 0 l0 -6 q2 -68 -21 -105 q-8 -9 -17 -2 q-7 6 -2 18 q20 30 18 88 l0 7 l-6 0 ZM108 116 q-9 -2 -12 7 q-2 10 7 13 q6 1 21 6 q11 3 16 4 q2 2 4 0 l0 27 q1 8 -7 7 l-28 0 q-9 1 -10 10 q1 10 10 11 l40 0 q18 0 18 -18 l0 -58 q-1 -10 -11 -11 q-11 1 -12 11 l0 2 q-13 -5 -36 -11 ZM185 120 q-9 -3 -13 6 q-2 9 7 14 q13 2 36 10 q1 0 1 1 q1 0 1 0 l0 22 q1 8 -7 7 l-27 0 q-9 1 -10 10 q1 10 10 11 l39 0 q18 0 18 -18 l0 -63 q-1 -10 -11 -11 q-11 1 -12 11 l0 10 q-3 -1 -8 -2 q-16 -5 -24 -8 ZM71 124 q-7 5 -5 12 q9 21 14 42 q4 8 12 7 q8 -3 6 -11 q-7 -25 -15 -44 q-3 -7 -12 -6 ZM30 124 q-9 -1 -11 7 q-2 9 -10 34 q-2 6 -3 9 q-1 7 6 11 q9 1 12 -7 q5 -15 13 -43 q1 -7 -7 -11 ZM133 149 q-7 -6 -13 1 q-6 3 -14 11 q-4 5 0 12 q7 5 14 0 q5 -5 14 -11 q5 -8 -1 -13 ZM205 150 q-7 -6 -13 1 q-2 1 -7 6 q-6 4 -8 5 q-4 7 0 12 q7 5 13 0 q3 -1 10 -7 q4 -3 5 -4 q6 -6 0 -13 ZM136 14 l0 -16 l37 0 l0 16 l-37 0 ZM136 79 l0 -16 l37 0 l0 16 l-37 0 ZM136 46 l0 -15 l37 0 l0 15 l-37 0 Z" /><glyph glyph-name="" unicode="&#x804a;" d="M17 173 q-11 1 -12 13 q1 11 12 12 l69 0 q11 -1 12 -12 q-1 -12 -12 -13 l0 -135 q1 0 2 1 q2 0 2 0 q11 0 13 -11 q0 -12 -13 -15 q-2 0 -4 -1 l0 -34 q-1 -11 -12 -12 q-10 1 -11 12 l0 30 q-27 -5 -44 -8 q-12 -2 -15 11 q-1 12 12 16 q1 0 2 0 l0 146 l-1 0 ZM188 -32 q-10 1 -11 11 l0 201 q0 18 18 17 l27 0 q18 1 18 -17 l0 -135 q1 -27 -22 -27 q-5 0 -10 0 q-5 0 -8 2 l0 -41 q-1 -10 -12 -11 ZM122 -29 q-8 -7 -18 1 q-7 8 0 18 q27 21 34 55 q-8 -5 -14 -8 q-10 -4 -15 0 q-6 4 -6 13 l0 130 q-1 16 16 19 q7 1 29 7 q4 1 6 1 q12 3 17 -8 q2 -12 -8 -16 q-23 -6 -33 -7 q-5 -1 -5 -7 l0 -99 q1 -5 4 -4 q6 4 12 7 q0 4 0 7 q1 36 1 71 q1 9 11 10 q9 -1 10 -10 q0 -34 0 -71 q1 -72 -41 -109 ZM200 168 l0 -126 q0 1 3 1 l6 0 q9 0 9 9 l0 116 q0 4 -4 4 l-10 0 q-4 0 -4 -4 ZM41 30 q4 1 11 2 q8 2 11 2 l0 31 l-22 0 l0 -35 ZM41 119 l0 -32 l22 0 l0 32 l-22 0 ZM41 173 l0 -32 l22 0 l0 32 l-22 0 Z" /><glyph glyph-name="" unicode="&#x80fd;" d="M31 -32 q-12 1 -13 13 l0 117 q0 18 18 18 l69 0 q18 0 18 -18 l0 -97 q1 -27 -25 -28 q-2 0 -9 0 q-9 -1 -12 -1 q-11 0 -14 10 q-1 13 9 14 l14 0 q12 0 12 10 l0 12 l-54 0 l0 -37 q-1 -12 -13 -13 ZM176 -26 q-33 -1 -33 34 l0 69 q1 12 14 14 q14 -1 15 -14 l0 -20 q26 11 49 23 q12 6 20 -3 q6 -12 -5 -19 q-21 -10 -64 -28 l0 -17 q-1 -15 14 -14 l18 0 q12 0 15 12 q0 8 2 17 q3 11 16 9 q10 -3 10 -17 q-3 -18 -4 -23 q-4 -23 -34 -23 l-33 0 ZM176 98 q-33 0 -33 33 l0 67 q1 13 14 14 q13 -1 14 -14 l0 -24 q26 11 49 23 q12 5 20 -4 q5 -10 -4 -17 q-29 -13 -65 -28 l0 -12 q-1 -14 14 -13 l18 0 q14 0 15 11 q1 2 2 10 q1 4 1 6 q3 12 16 8 q11 -3 9 -16 q-1 -6 -4 -21 q-4 -23 -33 -23 l-33 0 ZM32 131 q-16 -1 -21 10 q-4 8 6 22 q17 17 36 43 q8 10 20 5 q11 -5 6 -17 q-18 -20 -31 -33 q-3 -5 3 -6 q13 0 43 2 q-6 8 -11 14 q-5 9 3 16 q9 5 18 -3 q11 -13 7 -9 q17 -21 25 -30 q6 -11 -3 -18 q-12 -6 -19 4 q-1 2 -3 3 q-41 -1 -79 -3 ZM44 87 l0 -11 l54 0 l0 11 q0 7 -8 7 l-39 0 q-7 0 -7 -7 ZM44 56 l0 -18 l54 0 l0 18 l-54 0 Z" /><glyph glyph-name="" unicode="&#x884c;" d="M112 91 q-13 1 -14 15 q1 14 14 15 l125 0 q13 -1 14 -15 q-1 -14 -14 -15 l-27 0 l0 -77 q2 -40 -38 -41 q-19 0 -34 0 q-16 1 -16 16 q1 12 13 13 q4 0 13 -1 q8 0 11 0 q20 0 19 18 l0 72 l-66 0 ZM29 48 q-11 -9 -21 2 q-7 12 3 22 q29 26 54 61 q9 11 21 4 q11 -7 4 -20 q-3 -4 -9 -12 q-7 -9 -10 -13 l0 -111 q-1 -14 -15 -15 q-13 1 -15 15 l0 79 q-1 -1 -4 -4 q-4 -5 -8 -8 ZM122 166 q-12 1 -14 14 q1 14 14 15 l105 0 q13 -2 14 -15 q-2 -12 -14 -14 l-105 0 ZM34 133 q-12 -7 -21 3 q-8 12 4 22 q23 19 45 44 q9 10 22 3 q10 -10 2 -21 q-26 -30 -52 -51 Z" /><glyph glyph-name="" unicode="&#x8868;" d="M27 163 q-11 1 -12 12 q1 11 12 12 l85 0 l0 12 q2 14 15 15 q15 -1 16 -15 l0 -12 l85 0 q11 -1 12 -12 q-1 -11 -12 -12 l-85 0 l0 -19 l74 0 q10 -1 11 -12 q-1 -10 -11 -11 l-74 0 l0 -19 l93 0 q11 -1 12 -12 q-1 -11 -12 -12 l-92 0 q10 -19 23 -33 q6 4 20 13 q14 10 18 12 q10 7 21 -1 q6 -11 -3 -19 q-7 -4 -32 -19 q2 1 -4 -3 q21 -13 54 -22 q12 -5 7 -21 q-8 -12 -22 -6 q-76 23 -104 85 q-7 -7 -24 -21 q12 10 -3 -2 l0 -33 q0 -8 7 -5 q8 2 38 12 q13 2 16 -11 q2 -12 -13 -17 q-8 -2 -28 -8 q-18 -5 -23 -6 q-12 -3 -18 1 q-6 4 -6 15 l0 35 q-20 -10 -43 -21 q-13 -4 -19 8 q-4 15 8 19 q52 19 85 48 l-79 0 q-11 1 -12 12 q2 11 12 12 l92 0 l0 19 l-75 0 q-10 1 -11 11 q1 11 11 12 l75 0 l0 19 l-85 0 Z" /><glyph glyph-name="" unicode="&#x88c5;" d="M17 64 q-11 1 -12 12 q1 12 12 13 l98 0 q-1 1 -1 3 q-1 2 -1 3 q-4 12 12 15 q11 1 15 -8 q3 -7 6 -13 l93 0 q11 -2 12 -13 q-1 -10 -12 -12 l-93 0 q9 -15 21 -26 q5 2 16 8 q18 8 23 11 q11 6 19 -5 q5 -10 -4 -17 q-4 -1 -12 -5 q-13 -6 -19 -8 q19 -12 49 -18 q12 -5 8 -20 q-6 -12 -22 -7 q-74 22 -104 78 q-12 -12 -27 -22 l0 -26 q0 -7 8 -5 q17 5 35 10 q11 1 13 -12 q-1 -12 -14 -15 q-10 -3 -30 -8 q-12 -3 -17 -5 q-11 -2 -17 1 q-5 4 -5 16 l0 28 q-10 -7 -36 -17 q1 1 -3 -1 q-14 -5 -20 7 q-4 13 7 19 q46 15 79 39 l-77 0 ZM118 160 q-11 1 -13 12 q1 11 13 12 l45 0 l0 16 q1 13 14 14 q13 -1 14 -14 l0 -16 l46 0 q12 -1 13 -12 q-2 -11 -13 -12 l-46 0 l0 -24 l40 0 q10 -1 11 -12 q-1 -11 -11 -12 l-107 0 q-11 1 -12 12 q1 11 12 12 l39 0 l0 24 l-45 0 ZM27 109 q-13 -4 -19 7 q-4 13 9 19 q32 14 54 24 l0 41 q1 12 14 14 q13 -2 14 -14 l0 -89 q-1 -12 -14 -14 q-13 2 -14 14 l0 19 q-26 -12 -44 -21 ZM56 162 q-10 -7 -20 2 q-13 13 -17 16 q-6 11 2 18 q11 6 19 -1 q9 -9 17 -15 q9 -10 -1 -20 Z" /><glyph glyph-name="" unicode="&#x89c6;" d="M102 -28 q-13 -8 -22 1 q-8 14 4 23 q71 38 69 111 q1 11 1 37 q3 13 14 14 q14 -1 14 -14 q0 -25 -1 -36 q-2 -23 -5 -41 q2 0 3 0 q12 -1 13 -13 l0 -42 q-1 -13 10 -12 l7 0 q12 0 13 12 q0 4 2 18 q3 13 16 11 q11 -3 9 -16 q0 -15 -3 -24 q-4 -27 -34 -26 l-17 0 q-29 -1 -29 32 l0 30 q-15 -32 -64 -65 ZM118 48 q-12 1 -14 14 l0 120 q1 18 18 19 l94 0 q17 -1 18 -19 l0 -117 q-1 -13 -14 -14 q-13 1 -14 14 l0 102 q0 6 -6 6 l-62 0 q-6 0 -6 -6 l0 -105 q-2 -12 -14 -14 ZM26 49 q-13 -7 -20 3 q-6 14 4 22 q28 21 46 55 q2 5 -3 5 l-34 0 q-11 1 -12 13 q1 12 12 13 l56 0 q12 -1 13 -13 q0 -13 -6 -25 q-7 -15 -16 -27 l0 -7 q1 1 2 2 q8 6 16 -1 q6 -5 16 -17 q6 -9 -1 -17 q-9 -7 -17 1 q-10 12 -16 18 l0 -93 q-1 -13 -13 -14 q-13 1 -14 14 l0 81 q-6 -6 -13 -13 ZM64 168 q-11 -6 -19 4 q-1 1 -3 5 q-6 10 -8 13 q-7 12 4 18 q10 6 18 -2 q1 -2 4 -7 q6 -8 8 -12 q6 -11 -4 -19 Z" /><glyph glyph-name="" unicode="&#x8baf;" d="M221 -29 q-27 -1 -32 45 q-6 26 -6 99 l0 45 q0 9 -9 9 l-34 0 l0 -65 l23 0 q13 -2 14 -13 q-1 -14 -14 -15 l-23 0 l0 -95 q-1 -14 -16 -15 q-13 1 -15 15 l0 95 l-26 0 q-13 1 -14 15 q1 12 14 13 l26 0 l0 65 l-22 0 q-13 1 -14 15 q2 13 14 14 l106 0 q19 -1 20 -20 l0 -61 q0 -85 7 -104 q2 -6 5 -6 q3 1 4 7 q1 7 3 27 q-1 -3 0 6 q3 9 11 7 q8 -2 7 -12 q-2 -28 -7 -47 q-6 -24 -22 -24 ZM58 -15 q-25 -16 -29 13 l0 98 q0 4 -4 4 l-9 0 q-11 1 -12 15 q1 13 14 14 l22 0 q17 -1 18 -18 l0 -84 q0 -2 1 -2 q1 0 2 1 q3 2 9 8 q4 4 6 5 q10 5 17 -4 q6 -8 -4 -19 q-8 -10 -31 -31 ZM58 154 q-12 -7 -21 5 q-7 8 -19 25 q-7 11 3 19 q11 7 22 -3 q7 -8 19 -25 q8 -13 -4 -21 Z" /><glyph glyph-name="" unicode="&#x8bdd;" d="M102 170 q-15 -1 -16 12 q0 13 14 14 q68 2 125 6 q14 -1 15 -12 q0 -13 -11 -14 q-24 -1 -50 -3 l0 -33 l59 0 q12 -1 13 -13 q-1 -13 -13 -14 l-59 0 l0 -33 l36 0 q17 -1 18 -18 l0 -64 q-1 -17 -18 -18 l-102 0 q-16 1 -18 18 l0 64 q2 17 18 18 l36 0 l0 33 l-60 0 q-12 1 -13 14 q1 12 13 13 l60 0 l0 32 q-24 -2 -47 -2 ZM59 -13 q-10 -9 -20 -5 q-9 4 -9 18 l0 96 q0 4 -5 4 l-9 0 q-12 1 -13 15 q2 13 14 14 l24 0 q17 -1 18 -18 l0 -82 q1 -3 3 -2 q2 1 6 4 q4 3 5 4 q8 5 16 -4 q6 -8 -3 -19 q-5 -6 -19 -18 q-5 -5 -8 -7 ZM124 49 l0 -37 q1 -6 7 -7 l66 0 q7 1 7 7 l0 37 q-1 5 -7 6 l-66 0 q-6 -1 -7 -6 ZM63 154 q-12 -7 -21 5 q-3 4 -10 13 q-7 10 -10 13 q-7 11 4 19 q11 6 22 -4 q3 -3 10 -12 q7 -9 10 -13 q6 -14 -5 -21 Z" /><glyph glyph-name="" unicode="&#x8bed;" d="M90 176 q-11 1 -12 12 q1 11 12 12 l140 0 q11 -1 12 -12 q-1 -11 -12 -12 l-76 0 l-4 -22 l58 0 q17 -1 18 -18 l0 -33 l12 0 q11 -1 12 -12 q-1 -11 -12 -12 l-155 0 q-11 1 -12 12 q1 11 12 12 l27 0 l5 28 l-20 0 q-10 1 -11 11 q1 11 11 12 l25 0 l4 22 l-34 0 ZM110 -23 q-16 1 -18 18 l0 47 q2 17 18 18 l104 0 q17 -1 18 -18 l0 -47 q-1 -17 -18 -18 l-104 0 ZM58 -14 q-10 -9 -20 -5 q-9 4 -9 18 l0 98 q0 4 -4 4 l-9 0 q-12 1 -12 14 q1 13 14 14 l22 0 q17 -1 18 -18 l0 -83 q0 -3 3 -2 q2 2 5 4 q3 2 5 3 q8 6 16 -4 q5 -9 -4 -19 q-6 -8 -25 -24 ZM122 30 l0 -23 q1 -5 6 -6 l68 0 q5 0 5 6 l0 23 q0 5 -5 5 l-68 0 q-6 0 -6 -5 ZM63 155 q-11 -7 -22 4 q-7 10 -20 25 q-8 9 2 19 q12 7 22 -3 q5 -5 16 -18 q4 -4 5 -6 q7 -10 -3 -21 ZM190 131 l-45 0 l-5 -28 l56 0 l0 21 q-1 6 -6 7 Z" /><glyph glyph-name="" unicode="&#x8bf7;" d="M58 -15 q-11 -10 -20 -6 q-9 4 -9 19 l0 100 q0 4 -5 4 l-10 0 q-10 1 -11 15 q1 13 13 13 l23 0 q17 -1 18 -18 l0 -84 q1 -3 4 -2 q5 5 9 9 q8 6 17 -4 q0 -1 1 -1 l0 46 q0 20 20 20 l105 0 q20 0 20 -20 l0 -70 q2 -34 -33 -34 q-3 0 -12 0 q-13 -1 -18 -1 q-12 1 -13 12 q-1 10 11 11 q10 0 21 0 q17 -1 16 14 l0 4 l-89 0 l0 -30 q-1 -13 -14 -14 q-13 1 -14 14 l0 36 q-2 -3 -5 -6 q-3 -4 -12 -13 q-9 -9 -13 -14 ZM86 173 q-9 1 -10 10 q1 8 10 9 l59 0 l0 6 q1 12 14 14 q14 -1 15 -14 l0 -6 l62 0 q9 -1 10 -9 q0 -9 -10 -10 l-62 0 l0 -14 l57 0 q8 -1 9 -9 q-1 -7 -9 -8 l-57 0 l0 -14 l66 0 q9 -1 10 -10 q-1 -9 -10 -10 l-160 0 q-9 1 -10 10 q1 9 10 10 l65 0 l0 14 l-55 0 q-8 1 -9 8 q1 8 9 9 l55 0 l0 14 l-59 0 ZM60 154 q-12 -6 -20 5 q-2 4 -9 12 q-6 9 -9 12 q-7 10 4 18 q11 6 20 -4 q3 -4 10 -13 q6 -7 8 -10 q7 -12 -4 -20 ZM116 44 l0 -15 l89 0 l0 15 l-89 0 ZM116 69 l0 -7 l89 0 l0 7 q0 7 -7 7 l-75 0 q-6 0 -7 -7 Z" /><glyph glyph-name="" unicode="&#x8bfb;" d="M88 30 q-11 1 -12 12 q1 11 12 12 l72 0 q3 18 3 48 q2 14 15 14 q14 -1 15 -15 q-1 -28 -4 -47 l48 0 q11 -1 12 -12 q-1 -10 -12 -12 l-53 0 l-2 -4 q7 -3 24 -11 q22 -11 31 -15 q11 -7 6 -19 q-7 -12 -21 -6 q-17 11 -54 29 q-20 -19 -75 -35 q-14 -4 -20 9 q-2 13 10 18 q60 13 70 34 l-65 0 ZM94 164 q-10 1 -11 12 q1 11 11 12 l54 0 l0 10 q1 13 14 14 q14 -1 15 -14 l0 -10 l53 0 q11 -1 12 -12 q-1 -10 -12 -12 l-53 0 l0 -19 l56 0 q11 -1 12 -12 q0 -5 -2 -15 q-1 -5 -1 -8 l-3 -13 q-2 -12 -15 -11 q-11 3 -10 14 l4 17 q2 4 -3 4 l-132 0 q-10 1 -11 12 q1 11 11 12 l65 0 l0 19 l-54 0 ZM57 -11 q-25 -16 -29 14 l0 93 q0 4 -4 4 l-8 0 q-11 1 -12 15 q2 13 13 14 l22 0 q17 -1 18 -18 l0 -84 q0 -1 1 -2 q0 0 2 1 q1 1 4 3 q4 3 5 4 q7 3 12 -3 q8 -11 1 -20 q-2 -2 -6 -6 q-12 -11 -19 -15 ZM60 153 q-11 -7 -21 5 q-12 17 -19 25 q-7 10 4 19 q12 6 21 -4 q11 -13 19 -24 q7 -12 -4 -21 ZM124 58 q-14 7 -36 15 q-8 3 -5 12 q3 6 11 4 q3 -1 9 -3 q21 -8 29 -11 q9 -5 5 -13 q-3 -7 -13 -4 ZM140 87 q-19 8 -37 14 q-7 5 -5 11 q4 8 12 5 q24 -7 37 -13 q8 -3 5 -12 q-4 -8 -12 -5 Z" /><glyph glyph-name="" unicode="&#x8d85;" d="M25 155 q-11 1 -12 12 q1 11 12 12 l27 0 l0 20 q1 13 13 14 q13 -1 14 -14 l0 -20 l21 0 q12 -1 13 -12 q-1 -11 -13 -12 l-21 0 l0 -30 l25 0 q12 -1 13 -12 q-1 -12 -13 -13 l-17 0 l0 -33 l17 0 q11 -1 12 -13 q-1 -11 -12 -12 l-17 0 l0 -37 q15 -4 38 -4 q22 -1 76 0 q26 0 38 0 q12 -1 11 -15 q-1 -11 -17 -11 q-53 0 -110 0 q-64 -1 -84 36 q-4 -20 -11 -35 q-7 -9 -19 -5 q-7 7 -3 20 q15 34 14 87 q1 11 13 12 q11 -2 12 -13 q0 -6 -1 -17 q0 -10 0 -15 q6 -16 17 -26 l0 81 l-44 0 q-12 1 -13 13 q1 11 13 12 l35 0 l0 30 l-27 0 ZM144 18 q-17 1 -18 18 l0 47 q1 17 18 18 l72 0 q17 -1 18 -18 l0 -47 q-1 -17 -18 -18 l-72 0 ZM139 113 q-12 -6 -19 2 q-7 10 2 17 q27 15 27 44 l-21 0 q-11 1 -12 12 q1 11 12 12 l91 0 q19 -1 18 -19 q0 -13 -2 -33 q0 -33 -30 -32 q-7 -1 -22 -1 q-13 1 -15 11 q0 12 9 13 l18 0 q15 -1 15 14 q0 10 0 15 q2 9 -7 8 l-28 0 q0 -40 -36 -63 ZM200 42 q8 0 8 7 l0 21 q0 8 -8 8 l-41 0 q-6 0 -7 -8 l0 -21 q1 -7 7 -7 l41 0 Z" /><glyph glyph-name="" unicode="&#x8f7b;" d="M19 154 q-12 1 -13 13 q1 11 13 12 l17 0 q2 11 5 20 q4 14 18 13 q12 -4 10 -17 q-1 -3 -2 -7 q-2 -6 -3 -9 l31 0 q12 -1 13 -12 q-1 -12 -13 -13 l-39 0 q-3 -9 -9 -27 q-5 -16 -7 -23 q-2 -4 -1 -5 q1 -1 5 -1 l15 0 l0 33 q1 10 11 11 q10 -1 11 -11 l0 -33 l11 0 q11 -1 12 -13 q-1 -12 -12 -13 l-11 0 l0 -26 l13 1 q16 1 16 -11 q1 -13 -13 -15 q-8 0 -16 -2 l0 -37 q-1 -12 -14 -14 q-13 1 -14 14 l0 34 q-18 -1 -33 -3 q-12 0 -14 12 q0 13 12 15 q17 2 35 3 l0 29 l-29 0 q-12 1 -14 14 q0 11 4 23 q4 13 14 45 l-9 0 ZM125 52 q-12 1 -13 13 q1 13 13 14 l101 0 q12 -2 14 -14 q-1 -11 -14 -13 l-35 0 l0 -46 l45 0 q12 -1 14 -14 q-1 -12 -14 -13 l-123 0 q-13 1 -14 13 q2 13 14 14 l48 0 l0 46 l-36 0 ZM126 88 q-13 -4 -20 8 q-3 13 8 18 q51 17 76 51 q2 2 2 4 q-1 1 -4 1 l-62 0 q-12 1 -13 13 q2 13 13 14 l86 0 q15 -1 16 -14 q1 -14 -8 -26 q-1 -1 -1 -2 q-10 -13 -17 -19 q1 0 2 -1 q26 -14 37 -21 q11 -8 6 -20 q-8 -10 -21 -3 q-4 2 -11 7 q-22 13 -33 20 q-21 -15 -56 -30 Z" /><glyph glyph-name="" unicode="&#x8f7d;" d="M24 167 q-10 1 -11 10 q1 10 11 11 l39 0 l0 9 q1 13 14 14 q13 -1 14 -14 l0 -9 l35 0 q10 -1 11 -11 q-1 -9 -11 -10 l-35 0 l0 -18 l58 0 q-1 23 -1 48 q1 14 15 15 q13 -1 14 -15 q0 -7 0 -23 q1 -17 1 -25 l60 0 q11 -1 12 -12 q-1 -11 -12 -12 l-59 0 q1 -23 5 -54 q1 -5 1 -8 q12 18 22 40 q7 11 19 7 q11 -8 6 -19 q-18 -36 -37 -61 q2 -3 3 -6 q8 -21 16 -21 q5 0 6 8 q1 3 3 12 q1 7 2 10 q1 12 13 12 q13 -3 11 -18 q-2 -11 -7 -33 q-1 -2 -1 -3 q-5 -20 -26 -21 q-25 -1 -41 35 q-7 -7 -22 -21 q10 9 -3 -2 q-14 -9 -22 0 q-6 9 0 18 q-4 0 -12 0 q-11 -1 -16 -1 l0 -17 q-1 -13 -15 -14 q-13 2 -14 14 l0 15 q-34 -2 -48 -3 q-13 -1 -14 12 q-1 11 12 12 q23 2 50 3 l0 18 l-42 0 q-9 1 -11 10 q0 9 6 18 q2 2 9 12 q2 3 3 4 l-15 0 q-9 1 -10 11 q1 10 10 11 l27 0 q1 2 3 6 q1 1 1 2 q7 14 21 11 q11 -5 7 -17 q-1 -1 -1 -2 l54 0 q9 -1 10 -11 q-1 -10 -10 -11 l-67 0 q-2 -3 -6 -9 q-5 -7 -7 -10 q-2 -5 4 -5 l20 0 l0 8 q1 11 11 12 q11 -1 12 -12 l0 -8 l30 0 q9 -1 10 -10 q0 -9 -10 -10 l-30 0 l0 -17 q5 0 15 1 q11 0 16 1 q11 -1 12 -11 q12 11 21 21 q-10 33 -13 91 l-132 0 q-11 1 -12 12 q1 11 12 12 l45 0 l0 18 l-39 0 ZM229 162 q-10 -7 -19 1 q-4 5 -18 19 q-6 9 2 16 q8 6 18 -1 q1 0 2 -1 q9 -7 16 -16 q8 -9 -1 -18 Z" /><glyph glyph-name="" unicode="&#x8fc7;" d="M9 -25 q-8 7 0 20 q18 27 27 37 l0 62 q0 5 -5 5 l-13 0 q-12 0 -12 14 q1 14 14 15 l28 0 q16 -2 18 -18 l0 -79 q18 -26 54 -27 q69 0 111 1 q18 0 18 -15 q-2 -15 -20 -15 q-76 2 -116 2 q-36 0 -57 23 q-4 6 -8 0 q-5 -6 -14 -19 q-11 -16 -25 -6 ZM97 142 q-13 1 -14 13 q1 13 14 14 l83 0 l0 28 q1 14 16 15 q14 -1 15 -15 l0 -28 l23 0 q13 -1 14 -14 q-1 -12 -14 -13 l-23 0 l0 -82 q2 -41 -37 -42 q-15 0 -30 0 q-14 1 -18 15 q0 12 12 14 l24 0 q20 -1 18 18 l0 77 l-83 0 ZM143 74 q-12 -7 -21 3 q-17 22 -24 30 q-7 11 2 19 q10 7 21 -2 q4 -6 19 -22 q4 -5 6 -7 q7 -12 -3 -21 ZM66 153 q-12 -7 -21 5 q-2 4 -9 14 q-6 10 -9 14 q-7 11 4 19 q12 5 21 -5 q4 -5 13 -18 q4 -7 6 -9 q7 -13 -5 -20 Z" /><glyph glyph-name="" unicode="&#x8fdb;" d="M96 143 q-12 1 -13 13 q1 12 13 13 l16 0 l0 28 q1 13 14 14 q14 -1 15 -14 l0 -28 l40 0 l0 28 q1 13 14 14 q14 -1 15 -14 l0 -28 l18 0 q13 0 13 -13 q-1 -12 -13 -13 l-18 0 l0 -42 l26 0 q12 -1 13 -14 q-1 -12 -13 -13 l-26 0 l0 -49 q-1 -14 -15 -15 q-13 1 -14 15 l0 49 l-41 0 q-4 -34 -21 -55 q-12 -13 -24 -5 q-10 10 -3 21 q16 16 18 39 l-24 0 q-12 1 -13 13 q1 13 13 14 l26 0 l0 42 l-16 0 ZM9 -25 q-8 7 0 21 q9 14 24 33 l0 64 q0 5 -5 5 l-10 0 q-11 1 -12 15 q2 12 14 14 l26 0 q16 0 16 -16 l0 -79 q15 -26 50 -27 q47 -1 119 0 q18 0 18 -15 q-2 -15 -20 -15 q-25 0 -74 1 q-37 1 -50 1 q-35 0 -50 22 q-5 6 -9 0 q-4 -5 -12 -18 q-12 -16 -25 -6 ZM141 102 l0 -1 l40 0 l0 42 l-40 0 l0 -41 ZM63 152 q-11 -7 -21 5 q-4 6 -13 21 q-4 6 -5 8 q-7 11 4 19 q12 4 21 -5 q3 -4 10 -14 q6 -10 9 -14 q6 -12 -5 -20 Z" /><glyph glyph-name="" unicode="&#x8fde;" d="M89 156 q-11 1 -12 13 q1 12 12 13 l30 0 q2 4 5 13 q1 3 2 4 q8 17 22 13 q14 -5 8 -20 l-5 -10 l81 0 q11 -1 12 -13 q-1 -12 -12 -13 l-94 0 q-3 -7 -10 -19 q-5 -10 -7 -15 q-2 -3 -1 -5 q1 -2 5 -2 l28 0 l0 19 q1 14 14 15 q15 -1 16 -15 l0 -19 l42 0 q12 -1 13 -13 q-1 -12 -13 -13 l-42 0 l0 -26 l51 0 q12 -1 13 -14 q-1 -11 -13 -12 l-51 0 l0 -11 q-1 -14 -16 -15 q-13 1 -14 15 l0 11 l-66 0 q-13 1 -14 12 q1 13 14 14 l66 0 l0 26 l-51 0 q-16 0 -18 12 q0 14 6 24 q8 14 17 31 l-18 0 ZM229 -25 q-85 0 -120 1 q-34 0 -54 22 q-5 6 -9 0 q-4 -4 -13 -16 q-11 -16 -24 -6 q-8 7 0 21 q15 21 24 31 l0 65 q0 5 -5 5 l-10 0 q-11 0 -11 15 q2 13 14 14 l23 0 q17 -1 18 -18 l0 -77 q18 -28 54 -28 q44 -1 115 0 q17 -1 17 -15 q0 -14 -19 -14 ZM62 151 q-14 -6 -21 6 q-2 4 -9 15 q-7 11 -10 15 q-6 10 4 18 q12 6 21 -5 q15 -21 20 -29 q6 -12 -5 -20 Z" /><glyph glyph-name="" unicode="&#x9009;" d="M89 125 q-11 6 -8 18 q12 22 20 50 q5 12 16 10 q12 -3 10 -15 q0 -2 -2 -5 q-1 -6 -2 -9 l26 0 l0 25 q1 13 14 14 q14 -1 15 -14 l0 -25 l47 0 q12 -1 13 -13 q-1 -12 -13 -13 l-47 0 l0 -32 l57 0 q12 -1 13 -13 q-1 -11 -13 -12 l-41 0 l0 -39 q-1 -11 9 -10 l5 0 q9 -1 10 10 q1 2 1 7 q1 5 1 7 q1 10 13 10 q12 -4 11 -14 q0 -2 -1 -9 q-1 -9 -2 -11 q-4 -26 -30 -25 l-17 0 q-29 -1 -28 31 l0 43 l-25 0 q-1 -50 -35 -72 q-11 -8 -22 0 q-8 12 1 20 q27 16 28 52 l-27 0 q-12 1 -13 12 q1 12 13 13 l63 0 l0 32 l-36 0 q-3 -9 -6 -15 q-6 -12 -18 -8 ZM232 -25 q-92 0 -123 1 q-37 1 -53 23 q-5 6 -10 -1 q-4 -4 -15 -18 q-1 -2 -1 -2 q-12 -11 -22 0 q-8 11 2 24 q3 3 10 11 q10 11 14 15 l0 64 q0 7 -6 7 l-11 0 q-11 1 -12 14 q1 13 14 14 l27 0 q18 0 17 -17 l0 -80 q16 -27 53 -26 q51 -1 119 0 q14 -1 14 -15 q0 -13 -17 -14 ZM63 153 q-12 -5 -21 6 q-2 2 -5 8 q-11 14 -15 20 q-5 11 4 18 q13 6 21 -4 q3 -4 12 -15 q7 -9 9 -12 q7 -13 -5 -21 Z" /><glyph glyph-name="" unicode="&#x901a;" d="M95 10 q-11 1 -13 14 l0 105 q0 17 17 17 l35 0 q-6 3 -17 10 q-6 4 -9 5 q-8 5 -2 14 q1 2 4 3 l-23 0 q-10 1 -11 11 q1 10 11 11 l135 0 q11 -1 12 -12 q0 -12 -11 -18 l-42 -24 l38 0 q18 0 18 -17 l0 -87 q2 -29 -27 -30 q-8 0 -18 0 q-11 1 -13 11 q-1 10 8 9 l10 0 q13 -1 12 14 l0 3 l-36 0 l0 -22 q-2 -12 -14 -14 q-12 1 -14 14 l0 22 l-36 0 l0 -25 q-2 -13 -14 -14 ZM232 -25 q-91 0 -123 2 q-39 -1 -54 22 q-5 6 -9 0 q-9 -12 -16 -20 q-9 -10 -22 0 q-8 10 2 23 q8 8 22 24 l0 66 q0 7 -6 7 l-10 0 q-10 1 -11 14 q1 13 13 14 l25 0 q18 0 18 -17 l0 -81 q16 -27 54 -26 q26 -1 120 -1 q14 1 15 -14 q-1 -13 -18 -13 ZM62 151 q-13 -5 -21 6 q-15 21 -21 28 q-6 12 5 19 q12 5 20 -5 q2 -2 7 -8 q11 -15 15 -19 q6 -12 -5 -21 ZM124 177 q9 -4 29 -16 q-3 1 4 -3 l27 15 q3 4 -1 5 l-61 0 q2 -1 2 -1 ZM173 87 l0 -18 l36 0 l0 18 l-36 0 ZM201 125 l-28 0 l0 -18 l36 0 l0 10 q1 9 -8 8 ZM109 87 l0 -18 l36 0 l0 18 l-36 0 ZM109 117 l0 -10 l36 0 l0 18 l-27 0 q-9 1 -9 -8 Z" /><glyph glyph-name="" unicode="&#x90ce;" d="M54 -14 q-19 -6 -27 3 q-8 7 -8 25 l0 151 q0 25 25 25 l14 0 q-1 5 -1 6 q-2 13 11 17 q15 1 19 -12 q1 -1 2 -8 q0 2 1 -3 l13 0 q24 0 24 -25 l0 -83 q0 -18 -18 -18 l-62 0 l0 -41 q0 -9 8 -7 q9 2 31 11 q-2 3 -6 9 q-3 3 -4 5 q-5 13 5 18 q12 4 19 -5 q2 -4 9 -13 q18 -26 25 -36 q6 -12 -5 -19 q-12 -6 -19 5 q-3 6 -8 12 q-1 0 -1 0 q-34 -12 -47 -17 ZM162 -35 q-13 1 -15 15 l0 198 q0 17 18 17 l64 0 q11 -1 14 -11 q0 -12 -4 -26 q-8 -23 -17 -46 q-4 -8 1 -14 q25 -25 24 -53 q2 -39 -31 -44 q-8 0 -16 -2 q-15 0 -20 14 q-1 13 12 15 q2 0 8 1 q4 0 5 0 q15 1 13 20 q0 20 -19 42 q-11 10 -5 23 q1 4 5 13 q8 25 11 35 q3 7 -5 7 l-22 0 q-7 0 -7 -7 l0 -182 q-1 -13 -14 -15 ZM47 152 l0 -15 l53 0 l0 15 q1 13 -11 12 l-31 0 q-12 1 -11 -12 ZM91 88 q10 0 9 7 l0 19 l-53 0 l0 -26 l44 0 Z" /><glyph glyph-name="" unicode="&#x957f;" d="M19 85 q-13 1 -14 14 q1 13 14 14 l27 0 l0 85 q1 14 15 15 q15 -1 16 -15 l0 -85 l159 0 q13 -1 14 -14 q-1 -13 -14 -14 l-89 0 q21 -52 93 -75 q12 -8 7 -23 q-8 -12 -26 -5 q-79 31 -104 103 l-40 0 l0 -68 q1 -7 8 -5 q17 8 37 15 q15 3 19 -12 q1 -10 -15 -18 q-21 -10 -46 -19 q-20 -7 -26 -2 q-8 8 -8 28 l0 81 l-27 0 ZM114 126 q-14 -4 -21 6 q-5 12 6 19 q49 20 99 46 q13 6 23 -4 q7 -13 -5 -20 q-43 -23 -102 -47 Z" /><glyph glyph-name="" unicode="&#x97f3;" d="M52 -23 q-16 1 -18 18 l0 79 q2 17 18 18 l151 0 q17 -1 18 -18 l0 -79 q-1 -17 -18 -18 l-151 0 ZM28 161 q-11 1 -12 12 q1 11 12 12 l86 0 q-1 3 -3 7 q-1 3 -1 4 q-5 16 14 19 q11 0 16 -9 q5 -10 8 -21 l79 0 q11 -1 12 -12 q-1 -11 -12 -12 l-30 0 q2 -6 -1 -11 q-1 -1 -4 -5 q-5 -7 -7 -11 l53 0 q11 -1 12 -12 q-1 -11 -12 -12 l-220 0 q-11 1 -12 12 q1 11 12 12 l52 0 q-1 2 -5 8 q-4 7 -5 8 q-4 5 -1 11 l-31 0 ZM191 7 l0 18 l-127 0 l0 -18 q1 -5 6 -6 l115 0 q6 0 6 6 ZM64 62 l0 -16 l127 0 l0 16 q0 7 -6 7 l-115 0 q-5 -1 -6 -7 ZM150 134 q2 3 13 20 q3 5 4 6 q0 1 0 1 l-79 0 q1 0 1 0 q5 -10 14 -22 q1 -1 1 -2 q1 -2 1 -3 l45 0 Z" /><glyph glyph-name="" unicode="&#x9891;" d="M132 175 q-11 1 -12 14 q1 11 12 12 l106 0 q11 -1 12 -13 q-1 -12 -12 -13 l-41 0 l-6 -24 l34 0 q16 0 16 -17 l0 -98 q0 -11 -12 -11 q-12 1 -13 11 l0 84 q0 6 -5 5 l-52 0 q-6 1 -6 -5 l0 -83 q-1 -10 -12 -11 q-12 0 -12 11 l0 97 q0 17 17 17 l16 0 l5 24 l-35 0 ZM17 105 q-11 1 -12 12 q1 12 12 13 l4 0 l0 51 q1 10 12 11 q11 -1 12 -11 l0 -51 l19 0 l0 71 q1 10 12 11 q12 -1 13 -11 l0 -22 l18 0 q11 -1 12 -12 q-1 -11 -12 -12 l-18 0 l0 -25 l22 0 q11 -1 12 -13 q-1 -11 -12 -12 l-94 0 ZM130 -30 q-13 -6 -20 4 q-5 13 7 19 q60 20 55 83 l0 28 q0 11 12 11 q11 -1 12 -11 l0 -30 q0 -22 -4 -40 l3 -1 q9 -8 33 -25 q12 -9 17 -13 q8 -9 2 -19 q-10 -10 -19 -3 q-6 5 -20 17 q-17 14 -25 21 q-16 -24 -53 -41 ZM29 -30 q-13 -4 -18 6 q-5 12 6 19 q36 16 57 41 q-1 -1 -4 -1 q-12 0 -12 11 l0 43 q1 10 12 11 q12 -1 13 -11 l0 -43 q9 13 17 29 q4 9 16 6 q9 -7 5 -17 q-31 -65 -92 -94 ZM16 27 q-10 6 -6 16 q7 13 16 37 q4 9 15 7 q9 -4 7 -15 q-6 -18 -17 -40 q-4 -9 -15 -5 Z" /><glyph glyph-name="" unicode="&#xff0c;" d="M57 -33 l1 0 q-11 -2 -15 7 l0 -1 q-5 11 6 16 q6 3 12 12 q-12 5 -12 16 q2 19 19 20 q19 -1 20 -25 q-2 -34 -31 -45 Z" /></font>
</defs>
</svg>
