<?xml version="1.0" standalone="no"?><!DOCTYPE svg PUBLIC "-//W3C//DTD SVG 1.1//EN" "http://www.w3.org/Graphics/SVG/1.1/DTD/svg11.dtd" ><svg xmlns="http://www.w3.org/2000/svg"><metadata></metadata><defs><font id="Founder:FZLanTingYuanS-DB-GB	Regular" horiz-adv-x="256"><font-face font-family="FZLanTingYuanS-DB-GB" font-weight="400" font-stretch="normal" units-per-em="256" panose-1="2 0 0 0 0 0 0 0 0 0" ascent="229" descent="-68" x-height="0" bbox="-5 -67 255 218" underline-thickness="12" underline-position="-56" unicode-range="U+0022-ff0c" /><missing-glyph horiz-adv-x="256"  /><glyph glyph-name="" unicode="&quot;" d="M8 135 l0 42 q0 14 12 14 q13 1 13 -14 l0 -43 q0 -12 -13 -12 q-12 0 -12 13 ZM54 135 l0 42 q0 14 12 14 q13 1 13 -14 l0 -43 q0 -12 -13 -12 q-12 0 -12 13 Z" /><glyph glyph-name="" unicode="&#39;" d="M26 136 l0 41 q0 14 12 13 q14 1 13 -13 l0 -41 q0 -12 -13 -12 q-12 0 -12 12 Z" /><glyph glyph-name="" unicode="(" d="M15 63 q1 61 26 115 q6 13 15 13 q11 -1 12 -11 q0 -2 -3 -9 q-1 -2 -1 -3 q-23 -51 -24 -105 q0 -54 25 -106 q2 -3 3 -11 q-1 -10 -11 -11 q-8 0 -14 9 q-28 54 -28 119 Z" /><glyph glyph-name="" unicode=")" d="M62 63 q0 -65 -28 -119 q-6 -9 -14 -9 q-10 1 -11 11 q0 4 3 11 q25 53 25 106 q-1 51 -24 103 q-4 8 -4 14 q1 10 12 11 q9 0 15 -13 q25 -54 26 -115 Z" /><glyph glyph-name="" unicode="," d="M20 6 q1 17 18 18 q18 -1 18 -23 q-2 -35 -29 -47 q-8 -2 -13 6 q-4 10 5 14 q10 5 13 16 q-12 4 -12 16 Z" /><glyph glyph-name="" unicode="-" d="M40 103 l99 0 q16 1 15 -12 q0 -12 -15 -12 l-99 0 q-15 0 -15 12 q-1 13 15 12 Z" /><glyph glyph-name="" unicode="." d="M38 -12 q-17 2 -18 19 q1 16 18 17 q17 -1 18 -17 q-1 -18 -18 -19 Z" /><glyph glyph-name="" unicode="/" d="M17 7 l69 172 q4 13 14 11 q15 -1 10 -18 l-68 -172 q-5 -13 -14 -11 q-16 3 -11 18 Z" /><glyph glyph-name="" unicode="0" d="M77 12 q39 1 39 78 q-2 75 -39 78 q-37 -3 -39 -78 q1 -76 39 -78 ZM77 -12 q-63 2 -65 102 q3 99 65 101 q62 -3 65 -101 q-2 -101 -65 -102 Z" /><glyph glyph-name="" unicode="1" d="M64 3 l0 158 l-24 -14 q-13 -6 -18 6 q-5 10 8 16 l37 20 q20 7 22 -13 l0 -173 q0 -15 -12 -15 q-13 -1 -13 15 Z" /><glyph glyph-name="" unicode="2" d="M45 17 l79 0 q15 1 14 -11 q1 -13 -14 -12 l-91 0 q-18 0 -18 16 q0 11 5 20 q15 30 59 67 q32 23 31 45 q-2 24 -31 25 q-30 -1 -37 -26 q-4 -18 -15 -16 q-12 3 -10 18 q9 46 62 48 q55 -2 57 -49 q1 -33 -41 -64 q-41 -36 -51 -58 q-1 -2 -1 -2 q1 -1 2 -1 Z" /><glyph glyph-name="" unicode="3" d="M77 -12 q-51 1 -64 42 q-3 15 8 18 q12 3 15 -9 q10 -27 41 -27 q38 1 40 35 q3 37 -49 35 q-14 0 -14 12 q-1 13 14 12 q46 -2 43 32 q-1 29 -34 30 q-29 0 -37 -26 q-5 -12 -15 -10 q-12 2 -10 14 q12 43 62 45 q58 -2 60 -53 q0 -28 -25 -43 q29 -14 30 -46 q-2 -59 -65 -61 Z" /><glyph glyph-name="" unicode="4" d="M98 34 l-71 0 q-17 1 -18 14 q0 7 8 19 l70 109 q9 16 20 15 q18 1 17 -23 l0 -110 l7 0 q14 1 13 -12 q1 -13 -13 -12 l-7 0 l0 -32 q0 -15 -13 -14 q-13 -1 -13 14 l0 32 ZM38 58 l60 0 l0 94 l-60 -94 Z" /><glyph glyph-name="" unicode="5" d="M49 162 l0 -51 q16 8 31 8 q59 -3 62 -61 q-1 -69 -68 -70 q-43 2 -60 43 q-3 12 9 16 q10 3 15 -9 q11 -25 36 -26 q41 1 42 46 q-1 36 -36 38 q-12 0 -26 -7 q-8 -3 -14 -3 q-15 0 -15 17 l0 67 q-1 17 17 16 l78 0 q16 1 15 -13 q1 -11 -14 -11 l-72 0 Z" /><glyph glyph-name="" unicode="6" d="M12 68 l0 20 q1 101 70 103 q38 0 52 -27 q6 -11 -4 -17 q-9 -5 -17 4 q-13 18 -31 17 q-39 -2 -43 -67 q17 18 41 18 q59 -4 62 -65 q-2 -63 -65 -66 q-63 2 -65 80 ZM77 12 q37 1 39 42 q-2 40 -39 42 q-36 -3 -38 -42 q2 -39 38 -42 Z" /><glyph glyph-name="" unicode="7" d="M54 7 l59 155 l-86 0 q-16 -1 -15 12 q0 12 15 12 l94 0 q20 0 20 -16 q0 -5 -3 -13 l-59 -157 q-5 -13 -16 -11 q-14 3 -9 18 Z" /><glyph glyph-name="" unicode="8" d="M77 -12 q-63 2 -65 59 q0 29 28 47 q-22 15 -23 43 q4 51 60 54 q55 -4 59 -54 q0 -27 -22 -43 q28 -14 28 -47 q-3 -56 -65 -59 ZM77 105 q33 2 34 32 q-2 29 -34 31 q-34 -2 -36 -31 q3 -30 36 -32 ZM77 11 q38 2 40 36 q-3 33 -40 35 q-37 -2 -40 -35 q2 -34 40 -36 Z" /><glyph glyph-name="" unicode="9" d="M142 118 l0 -34 q0 -95 -65 -96 q-45 1 -61 36 q-5 16 7 19 q10 3 17 -10 q10 -21 37 -22 q36 2 38 64 q-16 -15 -39 -15 q-60 4 -64 64 q4 63 65 67 q63 -3 65 -73 ZM76 82 q38 2 40 42 q-2 42 -39 44 q-37 -1 -39 -44 q2 -39 38 -42 Z" /><glyph glyph-name="" unicode=":" d="M38 -12 q-17 2 -18 19 q1 16 18 17 q17 -1 18 -17 q-1 -18 -18 -19 ZM38 71 q-17 2 -18 18 q1 16 18 17 q17 -1 18 -17 q0 -18 -18 -18 Z" /><glyph glyph-name="" unicode=";" d="M38 71 q-17 2 -18 18 q1 16 18 17 q17 -1 18 -17 q0 -18 -18 -18 ZM20 6 q1 17 18 18 q18 -1 18 -23 q-2 -35 -29 -47 q-8 -2 -13 6 q-4 10 5 14 q10 5 13 16 q-12 4 -12 16 Z" /><glyph glyph-name="" unicode="=" d="M28 134 l110 0 q16 1 15 -13 q0 -11 -15 -11 l-110 0 q-15 0 -14 12 q0 12 14 12 ZM28 73 l110 0 q16 1 15 -13 q0 -11 -15 -11 l-110 0 q-15 0 -14 12 q0 12 14 12 Z" /><glyph glyph-name="" unicode="a" d="M52 46 l-18 -46 q-5 -13 -15 -12 q-15 1 -10 20 l70 168 q6 16 18 15 q13 1 17 -15 l68 -168 q5 -18 -10 -20 q-10 -1 -14 11 l-19 47 l-87 0 ZM130 69 l-33 84 l-35 -84 l68 0 Z" /><glyph glyph-name="" unicode="b" d="M81 163 l-38 0 l0 -59 l41 0 q38 1 39 29 q1 31 -42 30 ZM18 8 l0 164 q-1 15 16 14 l49 0 q65 0 65 -53 q0 -25 -23 -40 q29 -12 30 -41 q0 -58 -72 -58 l-49 0 q-15 -1 -16 14 ZM84 81 l-41 0 l0 -64 l40 0 q48 -1 47 35 q-1 28 -46 29 Z" /><glyph glyph-name="" unicode="c" d="M101 -12 q-82 4 -86 102 q6 94 87 101 q46 -2 63 -35 q5 -15 -11 -19 q-7 0 -12 9 q-15 21 -40 22 q-56 -7 -61 -78 q3 -75 60 -78 q32 1 44 32 q4 12 13 11 q14 -1 12 -16 q-16 -49 -69 -51 Z" /><glyph glyph-name="" unicode="d" d="M18 8 l0 165 q0 13 16 13 l49 0 q90 -1 91 -95 q-1 -96 -87 -97 l-53 0 q-16 -1 -16 14 ZM86 164 l-43 0 l0 -148 l45 0 q60 1 61 75 q-1 72 -63 73 Z" /><glyph glyph-name="" unicode="e" d="M18 7 l0 164 q-2 17 17 15 l93 0 q16 1 15 -12 q1 -12 -15 -11 l-85 0 l0 -58 l78 0 q15 0 14 -12 q1 -12 -14 -11 l-78 0 l0 -65 l86 0 q15 0 14 -12 q1 -12 -14 -11 l-96 0 q-15 0 -15 13 Z" /><glyph glyph-name="" unicode="f" d="M18 3 l0 170 q0 13 14 13 l86 0 q17 0 16 -12 q1 -12 -16 -11 l-75 0 l0 -60 l69 0 q16 1 15 -12 q1 -12 -15 -11 l-69 0 l0 -77 q0 -15 -12 -15 q-14 -1 -13 15 Z" /><glyph glyph-name="" unicode="h" d="M18 2 l0 175 q0 15 13 14 q13 0 13 -14 l0 -72 l94 0 l0 72 q0 14 13 14 q13 1 13 -14 l0 -175 q0 -15 -13 -14 q-12 -1 -13 14 l0 80 l-94 0 l0 -80 q0 -15 -13 -14 q-12 -1 -13 14 Z" /><glyph glyph-name="" unicode="i" d="M32 3 l0 173 q0 16 13 15 q13 1 12 -16 l0 -172 q0 -14 -12 -15 q-13 0 -13 15 Z" /><glyph glyph-name="" unicode="j" d="M93 44 l0 133 q1 15 13 14 q13 1 13 -14 l0 -133 q-1 -55 -55 -56 q-41 1 -53 39 q-4 13 9 18 q10 3 15 -10 q9 -23 29 -23 q29 0 29 32 Z" /><glyph glyph-name="" unicode="l" d="M44 177 l0 -154 q0 -6 6 -6 l75 0 q16 1 15 -12 q1 -12 -15 -11 l-91 0 q-16 0 -16 15 l0 168 q1 14 13 14 q13 0 13 -14 Z" /><glyph glyph-name="" unicode="m" d="M49 132 l0 -127 q0 -18 -14 -17 q-12 -1 -12 17 l0 167 q0 19 17 19 q13 0 18 -16 l59 -144 l59 144 q7 16 18 16 q17 0 17 -19 l0 -167 q0 -18 -12 -17 q-13 -1 -13 17 l0 127 l-54 -131 q-5 -13 -15 -13 q-10 0 -14 12 l-54 132 Z" /><glyph glyph-name="" unicode="o" d="M103 11 q58 2 61 79 q-3 76 -61 78 q-60 -3 -64 -78 q3 -77 64 -79 ZM102 -12 q-84 3 -87 102 q3 98 87 101 q84 -4 88 -101 q-3 -99 -88 -102 Z" /><glyph glyph-name="" unicode="p" d="M18 1 l0 171 q1 14 18 14 l48 0 q67 -1 68 -59 q-1 -58 -68 -59 l-40 0 l0 -67 q0 -13 -13 -13 q-13 1 -13 13 ZM87 163 l-43 0 l0 -72 l43 0 q38 1 39 35 q-1 36 -39 37 Z" /><glyph glyph-name="" unicode="r" d="M19 2 l0 170 q0 15 18 14 l50 0 q67 0 67 -56 q0 -46 -51 -53 l50 -66 q4 -5 4 -11 q-2 -11 -13 -12 q-6 0 -11 7 l-59 81 l-29 0 l0 -74 q0 -15 -13 -14 q-12 -1 -13 14 ZM89 163 l-44 0 l0 -64 l41 0 q42 0 42 31 q2 33 -39 33 Z" /><glyph glyph-name="" unicode="s" d="M78 -12 q-44 1 -65 30 q-6 8 2 15 q9 8 19 -1 q19 -20 44 -20 q46 1 47 35 q0 28 -51 37 q-60 12 -61 52 q4 52 68 55 q38 0 58 -21 q10 -11 1 -20 q-8 -7 -19 4 q-16 14 -40 14 q-40 -2 -43 -31 q-2 -24 54 -34 q56 -12 58 -56 q-2 -58 -72 -59 Z" /><glyph glyph-name="" unicode="t" d="M73 1 l0 162 l-47 0 q-17 0 -16 12 q0 11 16 11 l120 0 q15 0 15 -12 q0 -11 -15 -11 l-48 0 l0 -162 q0 -13 -12 -13 q-12 0 -13 13 Z" /><glyph glyph-name="" unicode="w" d="M52 8 l-40 165 q-4 17 12 18 q11 0 13 -12 l35 -146 l38 142 q4 16 17 16 q13 0 17 -16 l39 -142 l36 145 q3 13 12 13 q17 -1 13 -18 l-41 -165 q-6 -21 -19 -20 q-13 -1 -19 20 l-38 137 l-37 -137 q-6 -21 -19 -20 q-13 0 -19 20 Z" /><glyph glyph-name="" unicode="x" d="M16 12 l58 81 l-50 76 q-5 8 -5 13 q3 8 12 9 q7 1 15 -11 l45 -67 l45 67 q6 11 14 11 q11 -1 12 -10 q0 -7 -5 -13 l-51 -76 l58 -81 q4 -6 4 -12 q-1 -10 -12 -11 q-6 0 -13 10 l-53 75 l-54 -75 q-7 -11 -13 -10 q-9 1 -12 10 q0 7 5 14 Z" /><glyph glyph-name="" unicode="y" d="M77 4 l0 66 l-63 100 q-9 14 2 19 q13 5 19 -7 l54 -88 l54 88 q9 14 20 7 q11 -5 2 -20 l-63 -99 l0 -66 q0 -16 -12 -16 q-14 -1 -13 16 Z" /><glyph glyph-name="" unicode="_" d="M121 -39 l-114 0 q-12 0 -12 12 q0 12 12 12 l114 0 q12 0 12 -13 q0 -11 -12 -11 Z" /><glyph glyph-name="" unicode="a" d="M122 94 l0 -92 q0 -15 -13 -14 q-11 0 -13 10 q-12 -10 -31 -10 q-54 3 -56 68 q4 65 75 68 q37 -1 38 -30 ZM96 46 l0 39 q1 17 -15 16 q-43 -3 -46 -45 q1 -43 30 -45 q31 0 31 35 Z" /><glyph glyph-name="" unicode="b" d="M39 65 l0 -33 q0 -20 24 -20 q50 0 50 47 q-1 40 -36 42 q-37 -1 -38 -36 ZM14 31 l0 147 q0 13 13 13 q13 1 12 -13 l0 -68 q17 14 38 14 q60 -2 61 -66 q-1 -69 -75 -70 q-48 0 -49 43 Z" /><glyph glyph-name="" unicode="c" d="M74 -12 q-60 3 -63 68 q3 64 64 68 q40 -1 52 -30 q4 -13 -8 -17 q-8 -2 -14 7 q-10 17 -30 17 q-37 -2 -39 -45 q2 -42 38 -44 q21 0 32 17 q9 10 17 5 q11 -6 4 -18 q-15 -27 -53 -28 Z" /><glyph glyph-name="" unicode="d" d="M109 57 q-1 43 -37 44 q-34 -2 -37 -44 q2 -42 37 -45 q36 1 37 45 ZM109 0 l0 3 q-16 -15 -37 -15 q-60 4 -63 69 q4 63 63 67 q20 0 37 -12 l0 67 q0 12 12 12 q13 0 13 -12 l0 -178 q0 -14 -12 -13 q-13 0 -13 12 Z" /><glyph glyph-name="" unicode="e" d="M123 49 l-87 0 q5 -37 39 -38 q25 -1 37 14 q9 11 18 7 q12 -8 5 -20 q-18 -24 -60 -24 q-63 2 -65 68 q2 65 66 68 q59 -3 62 -61 q0 -14 -15 -14 ZM37 71 l75 0 q-5 30 -37 31 q-31 -1 -38 -31 Z" /><glyph glyph-name="" unicode="f" d="M37 0 l0 98 l-17 0 q-13 -1 -12 10 q-1 12 12 11 l17 0 l0 43 q-1 25 24 24 l19 0 q12 1 12 -11 q1 -12 -12 -11 l-10 0 q-8 0 -8 -8 l0 -37 l16 0 q14 1 13 -11 q1 -11 -13 -10 l-16 0 l0 -98 q0 -12 -13 -12 q-12 0 -12 12 Z" /><glyph glyph-name="" unicode="g" d="M134 85 l0 -87 q1 -65 -65 -63 q-40 1 -58 27 q-5 10 4 16 q9 5 17 -5 q12 -16 38 -16 q39 -1 38 38 l0 9 q-12 -10 -37 -10 q-60 2 -62 61 q2 68 78 69 q46 -1 47 -39 ZM108 43 l0 38 q1 21 -21 20 q-51 0 -52 -46 q0 -38 36 -38 q38 -1 37 26 Z" /><glyph glyph-name="" unicode="h" d="M14 1 l0 177 q1 13 13 13 q12 0 12 -13 l0 -69 q16 15 37 15 q50 -1 51 -53 l0 -70 q0 -13 -12 -13 q-12 0 -13 13 l0 70 q0 29 -29 30 q-32 -2 -34 -33 l0 -68 q0 -12 -12 -12 q-13 0 -13 13 Z" /><glyph glyph-name="" unicode="i" d="M26 3 l0 107 q-1 15 12 14 q14 1 13 -14 l0 -107 q0 -15 -13 -15 q-12 0 -12 15 ZM39 158 q-15 1 -16 16 q0 16 15 17 q15 -1 16 -17 q-1 -15 -15 -16 Z" /><glyph glyph-name="" unicode="k" d="M40 48 l0 -47 q0 -13 -13 -13 q-12 0 -12 13 l0 177 q0 13 13 13 q12 1 12 -14 l0 -100 l64 43 q6 4 11 4 q10 -1 11 -11 q0 -6 -6 -11 l-46 -31 l50 -61 q4 -5 4 -11 q-1 -10 -13 -11 q-4 0 -10 7 l-50 63 l-15 -10 Z" /><glyph glyph-name="" unicode="l" d="M19 3 l0 173 q0 16 13 15 q14 1 13 -16 l0 -172 q-1 -14 -13 -15 q-13 0 -13 15 Z" /><glyph glyph-name="" unicode="m" d="M92 1 l0 76 q0 25 -26 25 q-25 -1 -26 -27 l0 -73 q0 -14 -13 -14 q-13 0 -13 14 l0 109 q-1 14 13 13 q12 0 13 -11 q15 11 31 11 q23 0 36 -15 q16 16 40 15 q47 -1 49 -50 l0 -73 q0 -13 -12 -13 q-12 0 -13 13 l0 71 q0 30 -27 30 q-25 -1 -26 -25 l0 -76 q0 -13 -13 -13 q-13 0 -13 13 Z" /><glyph glyph-name="" unicode="n" d="M14 1 l0 108 q-1 16 13 15 q12 0 12 -12 q19 12 35 12 q53 -1 54 -52 l0 -71 q0 -13 -13 -13 q-12 0 -13 13 l0 70 q0 30 -32 30 q-29 -2 -31 -29 l0 -71 q0 -13 -12 -13 q-13 0 -13 13 Z" /><glyph glyph-name="" unicode="o" d="M77 11 q38 2 40 45 q-2 44 -40 46 q-38 -2 -41 -46 q2 -44 41 -45 ZM77 -12 q-62 3 -66 68 q3 66 66 68 q61 -3 65 -68 q-4 -65 -65 -68 Z" /><glyph glyph-name="" unicode="p" d="M40 55 q2 -42 37 -45 q35 1 36 45 q-1 45 -37 47 q-34 -2 -36 -47 ZM14 -52 l0 163 q1 13 13 13 q13 0 13 -12 l0 -4 q17 16 37 16 q60 -2 62 -72 q-5 -61 -62 -64 q-21 0 -37 13 l0 -53 q0 -13 -13 -13 q-13 0 -13 13 Z" /><glyph glyph-name="" unicode="q" d="M111 49 l0 31 q0 21 -24 21 q-49 -1 -51 -48 q1 -41 38 -42 q36 2 37 38 ZM136 85 l0 -137 q0 -13 -12 -13 q-13 0 -13 13 l0 52 q-15 -12 -37 -12 q-62 2 -64 65 q2 69 78 71 q47 -1 48 -39 Z" /><glyph glyph-name="" unicode="r" d="M14 2 l0 110 q1 12 13 12 q13 0 13 -12 l0 -4 q15 16 33 16 q15 0 15 -11 q1 -11 -14 -12 q-31 -8 -34 -38 l0 -61 q0 -14 -13 -14 q-13 -1 -13 14 Z" /><glyph glyph-name="" unicode="s" d="M64 -12 q-40 2 -56 28 q-4 8 5 14 q9 6 17 -3 q13 -15 34 -16 q32 0 32 19 q1 14 -32 18 q-53 6 -53 39 q4 35 53 37 q35 -1 49 -20 q7 -10 -4 -17 q-7 -3 -16 4 q-12 11 -30 11 q-25 -1 -27 -15 q1 -13 31 -17 q54 -8 54 -40 q-1 -41 -57 -42 Z" /><glyph glyph-name="" unicode="t" d="M34 18 l0 79 l-15 0 q-11 0 -11 11 q0 12 11 11 l15 0 l0 22 q-1 14 12 13 q14 1 13 -13 l0 -22 l20 0 q13 1 12 -11 q1 -11 -11 -11 l-21 0 l0 -73 q0 -8 8 -8 l14 0 q12 1 12 -11 q0 -12 -12 -11 l-20 0 q-28 -1 -27 24 Z" /><glyph glyph-name="" unicode="u" d="M14 40 l0 71 q-1 14 13 13 q14 1 13 -14 l0 -70 q-1 -30 31 -29 q31 0 31 29 l0 70 q0 14 13 14 q13 0 13 -14 l0 -107 q0 -16 -13 -15 q-11 0 -13 12 q-15 -12 -32 -12 q-56 0 -56 52 Z" /><glyph glyph-name="" unicode="v" d="M54 3 l-43 102 q-6 17 11 19 q9 1 12 -10 l38 -90 l37 89 q5 12 14 11 q16 -2 10 -19 l-43 -102 q-6 -16 -18 -15 q-12 0 -18 15 Z" /><glyph glyph-name="" unicode="w" d="M46 6 l-35 100 q-4 17 13 18 q8 0 11 -10 l29 -88 l26 84 q3 15 17 14 q12 1 17 -15 l25 -83 l28 88 q2 10 11 10 q18 -2 13 -17 l-34 -101 q-5 -19 -18 -18 q-14 -1 -19 18 l-23 76 l-24 -76 q-6 -18 -19 -18 q-13 0 -18 18 Z" /><glyph glyph-name="" unicode="x" d="M10 7 l43 52 l-39 47 q-7 14 9 18 q7 0 12 -4 l34 -43 l32 41 q5 6 12 6 q17 -4 10 -19 l-38 -46 l41 -50 q8 -16 -8 -21 q-5 0 -11 6 l-38 46 l-39 -46 q-3 -6 -10 -6 q-17 4 -10 19 Z" /><glyph glyph-name="" unicode="y" d="M63 5 l-52 100 q-6 17 11 19 q7 1 12 -9 l43 -82 l38 80 q6 12 14 11 q18 -2 10 -20 l-78 -160 q-5 -9 -12 -9 q-17 1 -12 18 l26 52 Z" /><glyph glyph-name="" unicode="{" d="M28 -38 l0 84 q0 5 -4 5 l-4 0 q-9 0 -9 12 q0 12 9 12 l4 0 q4 0 4 6 l0 81 q-1 30 28 29 l10 0 q13 0 13 -12 q0 -12 -13 -12 l-8 0 q-3 0 -4 -5 l0 -77 q0 -15 -8 -22 q8 -7 8 -22 l0 -77 q0 -6 5 -6 l7 0 q13 0 13 -12 q0 -12 -13 -11 l-10 0 q-29 -1 -28 27 Z" /><glyph glyph-name="" unicode="}" d="M34 -65 l-10 0 q-13 -1 -13 11 q0 12 13 12 l7 0 q5 0 5 6 l0 77 q1 14 10 22 q-10 10 -10 22 l0 77 q0 5 -5 5 l-7 0 q-13 0 -13 12 q0 12 13 12 l10 0 q29 1 28 -29 l0 -81 q0 -5 5 -6 l3 0 q9 0 9 -12 q0 -12 -9 -12 l-3 0 q-5 -1 -5 -5 l0 -84 q1 -28 -28 -27 Z" /><glyph glyph-name="" unicode="&#x3001;" d="M51 35 l46 -45 q5 -5 5 -10 q-1 -12 -13 -13 q-5 0 -11 6 l-45 44 q-9 10 -2 18 q10 10 20 0 Z" /><glyph glyph-name="" unicode="&#x3002;" d="M64 39 q33 -3 36 -36 q-1 -34 -36 -36 q-34 2 -36 36 q2 34 36 36 ZM64 16 q-12 0 -13 -13 q1 -12 13 -13 q13 0 13 13 q-1 12 -13 13 Z" /><glyph glyph-name="" unicode="&#x4e00;" d="M19 80 q-13 2 -15 15 q1 13 15 14 l218 0 q14 -1 15 -14 q-1 -13 -15 -15 l-218 0 Z" /><glyph glyph-name="" unicode="&#x4e0a;" d="M20 -18 q-12 1 -13 14 q1 12 13 13 l81 0 l0 185 q1 15 15 16 q15 -1 16 -16 l0 -58 l87 0 q12 -1 13 -13 q-1 -13 -13 -14 l-87 0 l0 -100 l104 0 q12 -1 13 -13 q-1 -13 -13 -14 l-216 0 Z" /><glyph glyph-name="" unicode="&#x4e0b;" d="M19 166 q-11 1 -13 14 q2 13 13 14 l217 0 q11 -1 13 -14 q-2 -13 -13 -14 l-104 0 l0 -183 q-1 -15 -15 -16 q-14 1 -15 16 l0 183 l-83 0 ZM208 54 q-10 6 -31 20 q-25 17 -36 24 q-10 9 -3 19 q9 9 21 3 q25 -16 67 -42 q10 -9 4 -22 q-10 -11 -22 -2 Z" /><glyph glyph-name="" unicode="&#x4e0e;" d="M126 -27 q-15 -1 -16 15 q1 13 14 13 q18 0 38 0 q35 -2 35 26 q4 36 4 59 q0 6 -7 6 l-137 0 q-17 1 -16 17 l8 89 q1 14 16 15 q13 -2 13 -15 l-2 -21 l159 0 q12 -1 13 -13 q-1 -12 -13 -13 l-161 0 l-3 -27 q0 -6 6 -6 l139 0 q15 -1 15 -16 q-2 -40 -5 -79 q-1 -52 -54 -50 q-24 0 -46 0 ZM17 35 q-11 1 -12 13 q1 12 12 13 l153 0 q13 -1 14 -13 q-1 -12 -14 -13 l-153 0 Z" /><glyph glyph-name="" unicode="&#x4e2d;" d="M36 50 q-15 1 -16 15 l0 83 q1 14 16 15 l77 0 l0 35 q1 13 15 14 q13 -2 14 -14 l0 -35 l78 0 q14 -1 15 -15 l0 -83 q-1 -14 -15 -15 l-78 0 l0 -69 q-1 -12 -14 -14 q-14 1 -15 14 l0 69 l-77 0 ZM200 137 l-58 0 l0 -61 l58 0 q7 0 7 7 l0 47 q0 7 -7 7 ZM48 130 l0 -47 q1 -7 7 -7 l58 0 l0 61 l-58 0 q-6 0 -7 -7 Z" /><glyph glyph-name="" unicode="&#x4e3a;" d="M38 -27 q-12 -7 -23 2 q-8 11 2 21 q74 50 83 128 l-75 0 q-12 1 -13 13 q1 12 13 13 l78 0 q1 14 3 48 q0 15 15 15 q14 -2 14 -15 q0 -18 -2 -48 l88 0 q15 -2 15 -16 q-2 -58 -5 -109 q-1 -50 -48 -50 q-14 -1 -36 -1 q-17 2 -17 17 q0 12 12 12 q16 0 31 0 q30 -3 30 31 q2 18 4 73 q0 8 0 11 q0 6 -6 6 l-71 0 q-10 -94 -92 -151 ZM182 44 q-11 -7 -20 1 q-7 8 -24 25 q-7 10 0 18 q10 6 20 -1 q4 -3 12 -11 q9 -8 12 -12 q8 -10 0 -20 ZM80 164 q-9 -8 -20 0 q-4 5 -18 16 q-3 3 -4 4 q-8 9 0 17 q8 8 18 2 q4 -3 12 -9 q8 -7 11 -10 q9 -10 1 -20 Z" /><glyph glyph-name="" unicode="&#x4e66;" d="M166 -6 q-12 -1 -15 13 q2 12 12 12 q10 0 22 0 q23 -1 24 18 q0 4 1 13 q0 9 0 12 q0 7 -7 7 l-81 0 l0 -88 q-1 -13 -14 -15 q-13 1 -14 15 l0 88 l-75 0 q-12 1 -13 13 q1 11 13 12 l75 0 l0 46 l-60 0 q-12 1 -13 13 q1 12 13 13 l60 0 l0 32 q2 13 14 14 q12 -2 14 -14 l0 -32 l70 0 q14 -1 15 -15 l-4 -57 l20 0 q15 -1 16 -15 q-1 -11 0 -7 q-2 -30 -3 -40 q-1 -37 -40 -38 q-13 0 -30 0 ZM173 140 l-51 0 l0 -46 l53 0 l3 41 q0 5 -5 5 ZM219 153 q-10 8 -32 24 q3 -2 -4 3 q-9 8 -2 17 q8 9 19 2 q24 -15 35 -24 q10 -9 4 -19 q-9 -9 -20 -3 Z" /><glyph glyph-name="" unicode="&#x4e8c;" d="M40 152 q-13 1 -14 14 q1 14 14 15 l175 0 q13 -1 14 -15 q-1 -13 -14 -14 l-175 0 ZM23 -5 q-14 1 -15 14 q2 14 15 15 l210 0 q14 -1 15 -15 q-1 -13 -15 -14 l-210 0 Z" /><glyph glyph-name="" unicode="&#x4ea7;" d="M14 -29 q-11 7 -5 20 q23 28 22 81 l0 24 q0 15 15 15 l104 0 q0 1 1 2 q0 1 0 1 q8 12 20 32 q7 10 20 6 q11 -6 5 -18 q-3 -4 -12 -17 q-3 -4 -5 -6 l53 0 q11 -1 12 -12 q-1 -12 -12 -13 l-166 0 q-7 0 -7 -6 l0 -11 q0 -56 -25 -93 q-9 -11 -20 -5 ZM22 159 q-12 1 -13 12 q1 12 13 13 l100 0 q0 2 -2 5 q-1 4 -2 5 q-4 12 9 16 q13 3 18 -8 q0 -1 2 -4 q3 -9 5 -14 l85 0 q11 -1 12 -13 q-1 -11 -12 -12 l-215 0 ZM102 114 q-11 -6 -20 4 q-2 2 -5 7 q-6 8 -8 10 q-6 10 4 18 q11 5 19 -4 q2 -2 7 -8 q4 -6 6 -9 q7 -10 -3 -18 Z" /><glyph glyph-name="" unicode="&#x4eba;" d="M33 -27 q-13 -7 -23 4 q-6 13 5 21 q86 52 95 150 q1 10 2 32 q1 11 1 16 q1 13 14 14 q14 -2 14 -15 q0 -13 -1 -27 q12 -122 101 -167 q11 -7 4 -21 q-9 -12 -24 -5 q-75 45 -93 130 q-17 -82 -95 -132 Z" /><glyph glyph-name="" unicode="&#x4ed8;" d="M93 131 q-12 1 -13 13 q1 12 13 13 l93 0 l0 40 q1 12 14 14 q13 -1 14 -14 l0 -40 l22 0 q12 -1 13 -13 q-1 -12 -13 -13 l-22 0 l0 -120 q1 -39 -36 -39 q-15 0 -32 0 q-13 1 -16 14 q1 12 13 12 q12 0 23 0 q21 -1 20 20 l0 113 l-93 0 ZM28 85 q-9 -10 -18 -3 q-9 8 -1 22 q31 46 47 97 q5 11 19 9 q11 -6 8 -19 q-7 -22 -18 -43 l0 -168 q-1 -12 -13 -13 q-13 1 -14 13 l0 120 q-4 -7 -10 -15 ZM146 44 q-11 -7 -19 3 q-9 13 -32 41 q-6 11 3 18 q11 6 18 -3 q19 -22 33 -40 q7 -11 -3 -19 Z" /><glyph glyph-name="" unicode="&#x4ee5;" d="M117 -27 q-13 -6 -22 4 q-5 13 6 21 q87 41 85 137 q1 16 1 59 q1 13 15 14 q13 -1 14 -15 q0 -29 -2 -59 q-3 -51 -15 -78 q10 -11 35 -40 q7 -8 10 -12 q9 -13 -1 -23 q-12 -8 -22 4 q-5 7 -18 23 q-12 15 -18 22 q-21 -30 -68 -57 ZM32 -5 q-9 6 -9 20 l0 176 q1 12 14 14 q14 -1 15 -14 l0 -153 q0 -2 1 -3 q2 0 3 1 q19 11 44 30 q13 7 20 -3 q7 -11 -5 -21 q-34 -25 -61 -43 q-13 -9 -22 -4 ZM134 134 q-11 -5 -19 6 q-4 9 -16 29 q-7 13 -10 18 q-6 11 5 18 q11 4 18 -5 q4 -6 14 -23 q10 -16 14 -23 q5 -12 -6 -20 Z" /><glyph glyph-name="" unicode="&#x4f5c;" d="M82 99 q-10 7 -3 20 q25 35 41 81 q6 12 17 10 q12 -3 10 -16 q-4 -10 -9 -21 l101 0 q11 -1 13 -12 q-1 -12 -13 -13 l-73 0 l0 -37 l60 0 q11 -1 12 -13 q-1 -11 -12 -12 l-60 0 l0 -38 l67 0 q12 -1 13 -12 q-1 -11 -13 -12 l-67 0 l0 -44 q-1 -13 -13 -14 q-12 1 -13 14 l0 168 l-13 0 q-12 -24 -25 -44 q-9 -13 -20 -5 ZM10 76 q-4 2 -6 10 q0 6 3 11 q32 53 48 103 q4 12 17 10 q12 -5 9 -16 q-6 -22 -16 -43 l0 -172 q-1 -12 -13 -13 q-12 1 -13 13 l0 121 q-2 -3 -6 -10 q-4 -6 -6 -10 q-7 -10 -17 -4 Z" /><glyph glyph-name="" unicode="&#x4f7f;" d="M87 159 q-11 1 -12 11 q1 11 12 12 l61 0 l0 18 q2 13 14 14 q11 -1 13 -14 l0 -18 l64 0 q10 -1 11 -12 q-1 -10 -11 -11 l-64 0 l0 -22 l47 0 q15 -1 16 -15 l0 -47 q-1 -15 -16 -16 l-50 0 q-5 -31 -15 -45 q27 -13 81 -17 q11 -3 9 -16 q-4 -11 -16 -9 q-58 7 -90 24 q-19 -15 -52 -26 q-12 -5 -19 6 q-5 12 7 17 q29 10 39 18 q-12 11 -22 24 q-6 7 2 15 q8 6 16 -1 q10 -12 22 -21 q8 12 11 31 l-45 0 q-15 1 -16 16 l0 47 q1 14 16 15 l48 0 l0 22 l-61 0 ZM9 78 q-4 3 -6 11 q0 5 3 10 q26 44 43 101 q5 11 17 9 q12 -3 10 -16 q-9 -25 -18 -47 l0 -167 q-1 -11 -12 -13 q-12 1 -13 13 l0 116 q-4 -6 -7 -12 q-7 -9 -17 -5 ZM147 81 q1 14 1 32 l0 3 l-33 0 q-5 0 -5 -6 l0 -23 q0 -6 5 -6 l32 0 ZM207 81 q5 0 5 6 l0 23 q0 6 -5 6 l-32 0 l0 -1 q0 -19 -1 -34 l33 0 Z" /><glyph glyph-name="" unicode="&#x4fe1;" d="M104 -23 q-16 1 -17 17 l0 48 q1 17 17 18 l116 0 q17 0 17 -18 l0 -48 q0 -17 -17 -17 l-116 0 ZM9 78 q-6 3 -6 10 q0 6 2 11 q29 45 45 101 q4 11 17 10 q12 -5 10 -16 q-9 -25 -18 -46 l0 -170 q-1 -12 -12 -13 q-12 1 -13 13 l0 121 q-4 -9 -9 -16 q-7 -10 -16 -5 ZM87 158 q-11 1 -12 12 q1 10 12 11 l63 0 q-1 3 -3 7 q-2 5 -3 7 q-2 12 10 16 q14 3 18 -8 q1 -2 3 -7 q2 -7 3 -10 q1 -2 1 -5 l60 0 q11 -1 12 -11 q-1 -11 -12 -12 l-152 0 ZM113 31 l0 -25 q1 -5 7 -6 l84 0 q6 1 7 6 l0 25 q0 6 -7 6 l-84 0 q-6 0 -7 -6 ZM96 79 q-9 1 -10 10 q1 10 10 11 l132 0 q10 -1 11 -11 q-1 -9 -11 -10 l-132 0 ZM96 118 q-9 1 -10 11 q1 10 10 10 l132 0 q9 -1 10 -10 q-1 -10 -10 -11 l-132 0 Z" /><glyph glyph-name="" unicode="&#x513f;" d="M182 -23 q-42 -3 -39 42 l0 177 q1 13 14 15 q14 -1 15 -15 l0 -174 q-1 -20 15 -18 l11 0 q18 -1 20 19 q1 8 3 32 q3 12 16 12 q12 -2 11 -17 q-2 -21 -5 -42 q-4 -33 -43 -31 l-18 0 ZM34 -25 q-12 -9 -23 -1 q-9 12 1 22 q57 40 53 132 l0 68 q1 13 14 14 q13 -1 14 -14 l0 -73 q5 -97 -59 -148 Z" /><glyph glyph-name="" unicode="&#x5154;" d="M28 119 q-10 -7 -19 2 q-6 11 4 19 q40 27 66 64 q8 11 22 7 q10 -6 4 -17 q-3 -2 -4 -5 l80 0 q11 0 13 -10 q0 -9 -7 -16 l-21 -21 l39 0 q16 -2 17 -16 l0 -50 q-1 -14 -17 -16 l-65 0 q7 -3 7 -12 l0 -35 q-1 -16 17 -15 l38 0 q16 0 18 15 q0 2 1 4 q1 9 2 15 q1 12 14 11 q13 -3 11 -17 q0 -2 -2 -11 q-1 -10 -2 -12 q-5 -29 -38 -28 l-50 0 q-35 0 -35 33 l0 33 q-22 -41 -88 -70 q-14 -6 -22 4 q-5 13 6 20 q70 26 84 65 l-53 0 q-15 1 -16 16 l0 45 q-1 0 -2 -1 q-1 -1 -2 -1 ZM190 120 l-50 0 q-1 -18 -5 -38 l55 0 q6 0 6 6 l0 26 q0 6 -6 6 ZM57 114 l0 -26 q0 -6 6 -6 l46 0 q4 22 4 38 l-50 0 q-6 0 -6 -6 ZM150 168 l-67 0 q-11 -14 -26 -26 l76 0 l19 20 q3 3 2 4 q-1 2 -4 2 ZM185 16 q-10 10 -19 19 q-6 7 2 15 q9 4 16 -2 q3 -2 10 -9 q7 -7 9 -9 q7 -9 -2 -16 q-9 -6 -16 2 Z" /><glyph glyph-name="" unicode="&#x5165;" d="M32 -22 q-12 -9 -22 2 q-7 13 3 23 q73 52 98 145 q-15 22 -31 38 q-8 10 1 19 q9 6 21 -3 q27 -26 53 -84 q37 -80 88 -113 q12 -10 3 -25 q-13 -11 -26 0 q-55 42 -91 133 q-1 1 -1 1 q-27 -82 -96 -136 Z" /><glyph glyph-name="" unicode="&#x524d;" d="M35 -35 q-11 1 -12 12 l0 141 q1 16 16 17 l77 0 q15 -1 16 -17 l0 -115 q1 -30 -28 -30 q-11 0 -26 0 q-11 1 -12 12 q-1 10 11 11 q9 0 17 0 q14 -1 13 12 l0 18 l-60 0 l0 -49 q-1 -11 -12 -12 ZM18 156 q-11 1 -12 11 q1 11 12 12 l56 0 q-4 4 -12 14 q-1 1 -1 2 q-4 9 5 15 q10 4 20 -4 q8 -10 16 -20 q3 -3 3 -7 l45 0 q13 16 21 27 q9 9 20 4 q10 -6 4 -17 q-2 -2 -6 -7 q-4 -5 -6 -7 l55 0 q10 -1 11 -12 q-1 -10 -11 -11 l-220 0 ZM173 -28 q-13 1 -14 13 q-1 11 12 12 q8 0 19 0 q19 -1 18 18 l0 118 q1 11 12 13 q12 -1 13 -13 l0 -125 q2 -36 -32 -35 q-3 0 -14 -1 q-10 0 -14 0 ZM169 14 q-11 1 -12 12 l0 97 q1 10 12 11 q10 -1 11 -11 l0 -97 q-1 -11 -11 -12 ZM47 69 l0 -23 l60 0 l0 23 l-60 0 ZM47 106 l0 -16 l60 0 l0 16 q0 7 -7 7 l-46 0 q-7 0 -7 -7 Z" /><glyph glyph-name="" unicode="&#x529b;" d="M33 -28 q-15 -6 -23 4 q-6 14 4 21 q76 42 77 134 l-64 0 q-13 1 -15 14 q1 12 13 13 l68 0 q0 8 1 23 q0 13 0 19 q3 14 16 15 q13 -3 14 -16 q-1 -7 -1 -21 q-1 -13 -1 -20 l94 0 q16 -1 17 -16 q-2 -61 -5 -114 q-1 -51 -50 -51 q-30 -2 -44 -1 q-15 1 -17 16 q1 12 15 13 q13 -1 36 -1 q31 -2 31 36 q2 19 3 69 q1 11 1 16 q1 7 -7 6 l-76 0 q-2 -111 -87 -159 Z" /><glyph glyph-name="" unicode="&#x52a0;" d="M162 -19 q-16 1 -17 17 l0 163 q1 16 17 17 l60 0 q17 0 17 -17 l0 -163 q0 -17 -17 -17 l-60 0 ZM109 169 q14 -1 15 -16 q0 -42 -2 -117 q-1 -14 -1 -20 q1 -43 -39 -43 q-11 0 -19 0 q-12 1 -14 12 q-1 12 11 13 q8 -2 19 0 q17 -1 17 19 q4 70 3 123 q0 6 -6 6 l-26 0 q0 -6 0 -10 q-3 -115 -38 -163 q-8 -9 -19 -2 q-9 8 -2 21 q31 40 33 145 q0 5 0 9 l-24 0 q-12 0 -12 11 q0 12 12 12 l24 0 q1 10 1 32 q2 13 13 14 q12 -1 13 -14 q0 -15 0 -32 l41 0 ZM208 6 q5 0 5 5 l0 136 q0 6 -5 6 l-32 0 q-6 0 -6 -6 l0 -136 q0 -5 6 -5 l32 0 Z" /><glyph glyph-name="" unicode="&#x52a9;" d="M173 -30 q-16 2 -16 13 q0 12 12 13 q7 -1 25 -1 q17 -1 18 21 q4 59 4 115 q1 7 -6 6 l-32 0 q0 -6 0 -13 q-2 -109 -48 -152 q-7 -8 -18 -2 q-11 8 -2 21 q5 4 9 9 q-40 -4 -101 -12 q-12 0 -14 12 q0 13 12 14 q1 0 3 0 q2 1 4 1 l0 168 q0 15 13 14 l65 0 q15 1 14 -14 l0 -159 q3 1 6 1 q8 0 11 -5 q19 35 20 104 q0 3 1 7 q0 4 0 6 l-17 0 q-12 1 -13 13 q2 11 13 12 l17 0 q1 12 1 39 q1 12 13 13 q12 -1 12 -13 q0 -19 0 -39 l47 0 q15 -1 16 -17 q-2 -96 -5 -135 q0 -39 -34 -39 q-3 0 -15 -1 q-11 0 -15 0 ZM47 17 q22 2 43 5 l0 36 l-43 0 l0 -41 ZM47 116 l0 -37 l43 0 l0 37 l-43 0 ZM47 168 l0 -31 l43 0 l0 31 q0 7 -6 7 l-31 0 q-6 0 -6 -7 Z" /><glyph glyph-name="" unicode="&#x534e;" d="M100 109 q-12 -3 -17 8 q-2 11 8 16 q21 6 41 14 l0 50 q1 12 14 13 q12 -1 13 -13 l0 -38 q30 14 55 31 q11 6 19 -2 q6 -10 -4 -17 q-27 -18 -70 -39 l0 -12 q-1 -18 18 -17 l21 0 q18 -1 20 14 q0 5 2 15 q3 12 16 11 q11 -4 10 -17 q-2 -5 -4 -19 q-1 -3 -1 -4 q-5 -24 -37 -23 l-37 0 q-36 -2 -35 34 l0 7 q-15 -6 -32 -12 ZM18 26 q-11 1 -12 12 q1 12 12 13 l96 0 l0 16 q1 13 14 14 q12 -1 13 -14 l0 -16 l97 0 q11 -1 12 -13 q-1 -11 -12 -12 l-97 0 l0 -46 q-2 -13 -13 -14 q-12 1 -14 14 l0 46 l-96 0 ZM28 121 q-9 -7 -19 3 q-5 13 4 20 q32 24 58 60 q8 9 20 5 q9 -8 3 -18 q-3 -3 -7 -10 q-3 -4 -13 -16 l0 -79 q-1 -13 -14 -14 q-12 1 -13 14 l0 52 q-9 -9 -19 -17 Z" /><glyph glyph-name="" unicode="&#x5355;" d="M45 58 q-16 1 -17 16 l0 83 q1 15 17 16 l34 0 q-12 14 -16 18 q-5 9 3 18 q11 5 19 -2 q4 -4 13 -14 q9 -11 12 -15 q0 0 0 -1 q1 -2 0 -4 l37 0 q9 12 21 31 q9 11 21 6 q10 -7 5 -17 q-2 -2 -9 -11 q-4 -6 -6 -9 l32 0 q16 -1 17 -16 l0 -83 q-1 -15 -17 -16 l-69 0 l0 -23 l97 0 q11 -1 12 -12 q-1 -11 -12 -12 l-97 0 l0 -31 q-1 -12 -14 -14 q-13 1 -14 14 l0 31 l-98 0 q-11 1 -12 12 q2 11 12 12 l98 0 l0 23 l-69 0 ZM195 80 q6 0 6 6 l0 20 l-59 0 l0 -26 l53 0 ZM55 86 q0 -6 6 -6 l53 0 l0 26 l-59 0 l0 -20 ZM195 151 l-53 0 l0 -26 l59 0 l0 20 q-1 5 -6 6 ZM55 145 l0 -20 l59 0 l0 26 l-53 0 q-6 0 -6 -6 Z" /><glyph glyph-name="" unicode="&#x53ca;" d="M224 -26 q-39 13 -69 36 q-25 -19 -72 -39 q-14 -4 -21 7 q-4 12 8 19 q38 14 63 32 q-33 33 -51 75 q-7 -71 -49 -124 q-9 -9 -20 -3 q-9 10 -2 22 q45 47 47 142 q1 8 1 30 l-33 0 q-11 1 -12 13 q1 11 12 12 l165 0 q14 -1 15 -13 q0 -11 -9 -24 l-17 -27 q-1 -4 3 -5 l33 0 q12 -1 13 -12 q0 -11 -7 -22 q-18 -37 -46 -64 q27 -18 61 -28 q12 -7 9 -20 q-6 -12 -22 -7 ZM166 171 l-79 0 q-1 -12 -1 -25 q7 -1 9 -7 q21 -58 60 -93 q24 23 39 51 q3 6 -4 6 l-37 0 q-9 1 -11 8 q-3 9 3 19 l23 36 q2 2 2 4 q-1 1 -4 1 Z" /><glyph glyph-name="" unicode="&#x53cb;" d="M22 151 q-12 1 -13 13 q1 12 13 13 l56 0 q2 10 3 22 q3 13 16 13 q12 -3 12 -15 q-1 -11 -3 -20 l130 0 q12 -1 13 -13 q-1 -12 -13 -13 l-135 0 q-2 -9 -6 -26 q-1 -4 -2 -6 l116 0 q13 -2 14 -13 q0 -12 -7 -23 q-17 -36 -46 -60 q27 -15 65 -24 q12 -4 10 -18 q-5 -13 -20 -10 q-47 13 -77 35 q-29 -20 -79 -36 q-14 -4 -19 8 q-3 13 8 18 q41 12 68 28 q-22 23 -37 54 q-4 10 4 17 l-8 0 q-19 -56 -56 -103 q-10 -10 -19 -1 q-9 10 1 23 q43 52 61 137 l-50 0 ZM112 90 q16 -34 36 -51 q27 22 40 50 q3 5 -3 6 l-79 0 q3 -2 6 -5 Z" /><glyph glyph-name="" unicode="&#x53d1;" d="M29 135 q-11 0 -13 7 q-4 6 2 22 q7 15 12 32 q6 11 18 9 q11 -4 8 -16 q-1 -4 -5 -12 q-3 -9 -5 -13 q-2 -5 4 -5 l32 0 q5 19 8 40 q3 13 17 13 q12 -3 11 -16 q-1 -6 -4 -17 q-2 -13 -4 -20 l129 0 q11 -1 12 -12 q-1 -11 -12 -12 l-135 0 q-4 -15 -9 -27 l117 0 q10 -1 11 -12 q0 -11 -6 -20 q-19 -33 -46 -56 q21 -13 62 -22 q14 -5 11 -17 q-4 -14 -21 -11 q-43 12 -76 33 q-31 -19 -81 -34 q-14 -4 -20 8 q-2 12 9 17 q43 12 70 26 q-27 27 -41 59 q-21 -47 -54 -84 q-10 -10 -19 -1 q-9 11 2 23 q40 46 62 118 l-46 0 ZM108 85 q15 -30 40 -50 q23 16 39 44 q3 5 -4 6 l-75 0 ZM194 167 q-12 9 -26 21 q-6 8 0 15 q8 7 18 1 q7 -5 25 -20 q9 -7 1 -17 q-9 -7 -18 0 Z" /><glyph glyph-name="" unicode="&#x53ef;" d="M18 168 q-12 1 -13 13 q1 12 13 13 l221 0 q11 -1 12 -13 q-1 -12 -12 -13 l-23 0 l0 -155 q2 -39 -38 -40 q-5 0 -17 0 q-13 -1 -19 -1 q-14 1 -16 15 q1 11 13 12 q14 0 27 0 q24 -2 22 22 l0 147 l-170 0 ZM50 28 q-16 1 -17 16 l0 75 q1 16 17 17 l80 0 q16 0 16 -17 l0 -75 q0 -15 -16 -16 l-80 0 ZM60 106 l0 -48 q1 -6 7 -7 l45 0 q7 1 7 7 l0 48 q0 7 -7 7 l-45 0 q-6 0 -7 -7 Z" /><glyph glyph-name="" unicode="&#x53f7;" d="M16 81 q-10 2 -12 12 q1 11 12 12 l224 0 q11 -1 12 -12 q-1 -10 -12 -12 l-160 0 l-5 -16 q-1 -5 4 -5 l122 0 q17 -1 17 -17 q-1 -18 -3 -31 q-3 -40 -51 -39 q-13 -1 -52 -1 q-15 1 -16 14 q0 12 13 13 q16 -1 47 -1 q27 -1 30 16 q1 3 2 12 q1 4 1 6 q0 4 -5 4 l-127 0 q-16 2 -13 16 l8 29 l-36 0 ZM56 125 q-16 1 -17 16 l0 44 q1 15 17 16 l144 0 q15 -2 16 -16 l0 -44 q-1 -14 -16 -16 l-144 0 ZM67 172 l0 -18 q0 -6 5 -6 l111 0 q5 0 5 5 l0 19 q0 6 -5 6 l-111 0 q-5 0 -5 -6 Z" /><glyph glyph-name="" unicode="&#x5408;" d="M54 -21 q-15 1 -16 16 l0 66 q2 16 16 17 l147 0 q14 -1 16 -17 l0 -66 q-1 -15 -16 -16 l-147 0 ZM28 102 q-12 -6 -20 5 q-5 11 6 19 q60 30 94 72 q12 13 21 12 q10 0 20 -12 q31 -42 92 -69 q13 -6 7 -19 q-7 -10 -21 -6 q-7 3 -18 10 q-6 3 -9 5 q0 0 1 -1 q0 -1 0 -2 q-1 -10 -12 -12 l-122 0 q-11 1 -12 12 l0 1 q-17 -10 -27 -15 ZM184 3 q5 1 6 6 l0 39 q-1 5 -6 6 l-113 0 q-5 -1 -6 -6 l0 -39 q1 -5 6 -6 l113 0 ZM126 177 q-24 -27 -55 -49 l115 0 q-32 23 -54 49 q-3 3 -6 0 Z" /><glyph glyph-name="" unicode="&#x540d;" d="M24 48 q-13 -3 -18 8 q-2 13 9 16 q49 12 88 30 q-2 1 -2 1 q-16 16 -28 25 q-7 8 0 17 q8 7 18 1 q11 -10 32 -26 q3 -3 3 -7 q33 19 60 43 q3 4 -2 5 l-94 0 q-26 -25 -58 -46 q-11 -6 -19 3 q-6 11 3 18 q50 31 81 69 q10 13 21 6 q11 -7 2 -19 q-3 -4 -6 -7 l100 0 q11 -1 13 -13 q0 -11 -9 -22 q-42 -44 -105 -71 l99 0 q15 -1 16 -16 l0 -69 q-1 -16 -16 -17 l-145 0 q-15 1 -16 17 l0 62 q-2 -1 -4 -2 q-14 -4 -23 -6 ZM195 1 q6 0 6 5 l0 44 q0 5 -6 5 l-112 0 q-5 0 -5 -6 l0 -43 q0 -5 5 -5 l112 0 Z" /><glyph glyph-name="" unicode="&#x548c;" d="M148 -15 q-14 1 -16 17 l0 168 q2 15 16 16 l75 0 q14 -1 16 -17 l0 -167 q-2 -16 -16 -17 l-75 0 ZM24 169 q-13 0 -15 11 q1 12 10 14 q24 1 77 5 q6 1 8 1 q13 1 15 -10 q1 -12 -10 -14 q-6 -1 -20 -2 q-7 -1 -10 -1 l0 -35 l33 0 q11 -1 12 -12 q-1 -12 -12 -13 l-33 0 l0 -28 q7 6 16 0 q16 -14 24 -23 q8 -8 0 -17 q-9 -7 -17 0 q-2 2 -6 7 q-12 12 -17 16 l0 -91 q-1 -11 -13 -12 q-12 1 -13 12 l0 98 q-12 -28 -28 -49 q-8 -9 -18 -2 q-6 7 1 18 q24 31 41 71 l-31 0 q-11 2 -12 13 q1 11 12 12 l35 0 l0 33 q-5 0 -15 -1 q-9 0 -14 -1 ZM207 10 q5 1 6 6 l0 140 q-1 5 -6 6 l-43 0 q-6 0 -6 -6 l0 -140 q0 -6 5 -6 l44 0 Z" /><glyph glyph-name="" unicode="&#x54c1;" d="M58 108 q-17 0 -17 18 l0 56 q0 17 17 17 l141 0 q16 0 16 -16 l0 -57 q0 -18 -17 -18 l-140 0 ZM182 132 q6 0 6 5 l0 33 q0 5 -6 5 l-109 0 q-5 0 -5 -5 l0 -33 q0 -5 6 -5 l108 0 ZM33 -23 q-13 1 -15 15 l0 77 q1 14 15 15 l67 0 q13 -2 14 -15 l0 -77 q-1 -14 -14 -15 l-67 0 ZM84 0 q5 0 5 6 l0 49 q0 6 -5 6 l-36 0 q-5 0 -5 -6 l0 -49 q0 -6 5 -6 l36 0 ZM156 -23 q-14 1 -15 15 l0 77 q1 14 15 15 l67 0 q14 -1 15 -15 l0 -77 q-1 -14 -15 -15 l-67 0 ZM208 0 q5 0 5 6 l0 49 q0 6 -5 6 l-37 0 q-5 0 -5 -6 l0 -49 q0 -6 5 -6 l37 0 Z" /><glyph glyph-name="" unicode="&#x5546;" d="M16 165 q-11 1 -11 10 q1 10 11 11 l101 0 q-1 3 -3 9 q-1 2 -1 3 q-3 10 9 15 q14 3 18 -8 q3 -4 7 -19 l93 0 q10 -1 11 -11 q-1 -9 -11 -10 l-61 0 q1 -1 1 -1 q10 -5 5 -16 q-6 -9 -10 -14 l39 0 q17 -2 19 -19 l0 -108 q1 -34 -32 -33 q-7 -1 -26 -1 q-13 1 -15 13 q1 10 11 11 q3 0 9 0 q7 -1 11 -1 q17 0 16 16 l0 93 q0 8 -7 8 l-145 0 q-6 -1 -7 -8 l0 -126 q-1 -12 -13 -13 q-12 1 -13 13 l0 136 q2 17 19 19 l39 0 q-3 4 -9 14 q-2 1 -2 2 q-4 8 6 14 q1 0 1 1 l-60 0 ZM93 2 q-14 0 -14 14 l0 43 q0 14 14 14 l69 0 q15 0 14 -14 l0 -43 q1 -14 -14 -14 l-69 0 ZM162 159 q3 5 7 6 l-85 0 q6 -1 8 -6 q3 -3 15 -21 q1 -2 1 -4 l37 0 q12 17 17 25 ZM149 22 q5 0 5 5 l0 21 q0 5 -5 5 l-43 0 q-4 0 -4 -5 l0 -21 q0 -5 4 -5 l43 0 ZM69 62 q-10 -6 -17 3 q-5 10 4 15 q15 10 37 26 q10 6 17 -1 q6 -8 -1 -15 q-6 -4 -20 -14 q-13 -9 -20 -14 ZM188 63 q-19 14 -42 28 q-7 7 -1 14 q7 7 16 3 q22 -14 40 -26 q7 -5 3 -16 q-7 -7 -16 -3 Z" /><glyph glyph-name="" unicode="&#x56fe;" d="M34 -23 q-17 0 -17 17 l0 191 q1 16 17 17 l187 0 q16 -1 17 -17 l0 -191 q-1 -16 -17 -17 l-187 0 ZM205 0 q7 0 7 7 l0 165 q0 7 -7 7 l-89 0 q7 -6 1 -14 q-1 -1 -2 -3 q-2 -2 -3 -3 l72 0 q8 -1 9 -9 q0 -9 -6 -15 q-16 -17 -34 -28 q21 -7 46 -10 q10 -1 8 -12 q-2 -11 -14 -8 q-37 6 -62 18 q-20 -10 -70 -22 q-12 -1 -14 8 q-2 9 7 12 q31 5 56 14 q-14 10 -26 22 q-2 -2 -8 -7 q-5 -4 -8 -7 q-8 -4 -15 2 q-5 9 2 14 q23 18 44 45 q1 1 1 2 q1 1 1 1 l-51 0 q-7 0 -7 -7 l0 -165 q0 -7 7 -7 l155 0 ZM178 10 q-54 11 -108 18 q-8 2 -8 11 q2 10 12 9 q19 -3 69 -11 q29 -4 41 -6 q9 -3 7 -12 q-3 -10 -13 -9 ZM168 49 q-27 5 -79 12 q-8 2 -7 11 q2 8 11 7 q14 -2 54 -8 q18 -3 25 -4 q8 -2 7 -10 q-2 -9 -11 -8 ZM99 141 q13 -15 31 -25 q17 9 29 20 q2 2 2 3 q0 2 -3 2 l-60 0 q0 0 1 0 Z" /><glyph glyph-name="" unicode="&#x5728;" d="M24 155 q-11 1 -12 12 q1 11 12 12 l60 0 q2 4 5 12 q3 7 4 11 q5 14 18 11 q13 -4 10 -17 q-4 -8 -7 -17 l125 0 q11 -1 12 -12 q-1 -11 -12 -12 l-136 0 q-14 -28 -32 -53 l0 -122 q-2 -13 -13 -14 q-12 1 -13 14 l0 92 q-9 -9 -18 -17 q-10 -8 -19 1 q-7 12 3 21 q38 34 61 78 l-48 0 ZM99 71 q-11 1 -12 12 q1 11 12 12 l51 0 l0 37 q1 12 13 13 q13 -1 14 -13 l0 -37 l51 0 q11 -1 12 -12 q-1 -11 -12 -12 l-51 0 l0 -63 l62 0 q11 -1 12 -12 q-1 -11 -12 -12 l-151 0 q-11 1 -12 12 q1 11 12 12 l62 0 l0 63 l-51 0 Z" /><glyph glyph-name="" unicode="&#x57ce;" d="M68 -31 q-11 6 -5 17 q24 34 22 110 l0 54 q0 16 14 16 l67 0 q-1 17 -1 34 q1 12 12 13 q11 -1 12 -13 q0 -5 1 -17 q0 -11 0 -17 l48 0 q11 -1 12 -12 q-1 -10 -12 -11 l-47 0 q0 -6 1 -16 q2 -46 5 -62 q15 24 23 51 q4 11 15 7 q9 -4 7 -15 q-16 -44 -38 -75 q1 -1 1 -3 q1 -2 1 -3 q7 -27 15 -27 q3 -1 5 8 q3 10 4 25 q3 10 12 8 q9 -2 8 -13 q-2 -21 -5 -34 q-5 -22 -23 -23 q-24 0 -36 37 q-16 -18 -35 -35 q-10 -6 -17 1 q-7 9 0 17 q26 21 44 45 q-8 32 -12 107 l-51 0 q-6 0 -6 -7 l0 -24 l33 0 q13 0 13 -13 q0 -12 -1 -35 q0 -18 0 -24 q0 -31 -28 -32 q-5 0 -13 0 q-7 0 -12 6 q-3 -16 -16 -39 q-6 -10 -17 -6 ZM18 128 q-11 1 -12 12 q1 11 12 12 l13 0 l0 49 q1 11 12 12 q11 -1 12 -12 l0 -49 l11 0 q11 -1 12 -12 q-1 -11 -12 -12 l-11 0 l0 -84 q3 2 8 3 q11 2 15 -8 q2 -11 -9 -15 q-9 -3 -32 -11 q-11 -3 -16 -5 q-13 -3 -17 9 q-2 12 10 16 q2 0 7 2 q7 1 10 2 l0 91 l-13 0 ZM128 90 l-19 0 q0 -35 -4 -59 q2 2 6 2 q1 0 3 0 q3 -1 5 -1 q13 0 13 13 q1 10 1 40 q0 5 -5 5 ZM220 172 q-12 12 -17 16 q-6 8 1 14 q6 6 14 -1 q15 -12 19 -16 q6 -8 -1 -14 q-9 -6 -16 1 Z" /><glyph glyph-name="" unicode="&#x5904;" d="M8 71 q-7 7 -3 19 q26 50 42 110 q4 14 17 11 q12 -3 10 -15 q-1 -5 -4 -15 q-3 -11 -5 -16 l45 0 q13 0 16 -8 q3 -6 3 -16 q-7 -62 -36 -105 q24 -26 67 -30 q35 -3 79 -2 q10 -1 11 -13 q0 -14 -14 -14 q-54 0 -79 3 q-51 5 -80 35 q-19 -24 -48 -44 q-12 -8 -21 1 q-6 12 3 20 q30 21 49 44 q-15 23 -24 58 q-1 -1 -2 -5 q-2 -4 -8 -14 q-6 -9 -18 -4 ZM169 10 q-11 1 -13 14 l0 176 q1 12 13 13 q13 -1 14 -13 l0 -60 q9 6 17 0 q10 -7 31 -25 q8 -8 12 -11 q8 -11 0 -20 q-9 -9 -19 0 q-4 4 -14 13 q-19 18 -27 25 l0 -98 q-2 -13 -14 -14 ZM52 130 q7 -41 24 -72 q21 34 26 76 q1 7 -5 7 l-41 0 q-1 -6 -4 -11 Z" /><glyph glyph-name="" unicode="&#x591a;" d="M117 18 l-26 22 q-3 4 0 9 q-24 -12 -52 -22 q-11 -4 -16 6 q-4 14 6 18 q70 22 111 60 q9 8 20 2 q10 -6 3 -15 q-4 -4 -9 -7 l71 0 q12 0 14 -12 q0 -11 -7 -18 q-71 -70 -206 -92 q-12 -1 -15 9 q-2 12 9 15 q55 9 97 25 ZM23 74 q-11 -1 -15 9 q-2 12 9 15 q48 11 86 24 q-1 2 -3 3 l-26 20 q-4 3 -2 9 q-17 -10 -35 -18 q-11 -4 -16 5 q-5 12 5 17 q46 19 85 51 q8 8 20 4 q9 -5 2 -15 q-5 -5 -11 -10 l92 0 q12 -1 13 -11 q2 -10 -7 -18 q-69 -55 -197 -85 ZM139 31 q2 -1 2 -3 q31 15 56 36 q2 2 2 4 q-1 1 -4 1 l-71 0 q-3 -2 -8 -5 q-8 -6 -13 -8 q5 0 8 -2 l28 -23 ZM121 138 q3 -3 2 -7 q33 13 59 31 q2 2 2 3 q0 2 -3 2 l-88 0 l-9 -6 q6 2 10 -3 l27 -20 Z" /><glyph glyph-name="" unicode="&#x5929;" d="M31 170 q-12 1 -13 13 q1 12 13 13 l194 0 q12 -1 13 -13 q-1 -12 -13 -13 l-83 0 q0 -9 -1 -28 q0 -18 0 -25 l97 0 q12 -1 13 -13 q-1 -12 -13 -13 l-93 0 q17 -64 96 -92 q12 -5 7 -21 q-6 -11 -22 -5 q-78 30 -98 92 q-19 -59 -97 -95 q-14 -6 -23 5 q-6 13 6 20 q84 37 94 96 l-91 0 q-12 1 -13 13 q1 12 13 13 l94 0 q1 15 1 53 l-81 0 Z" /><glyph glyph-name="" unicode="&#x5b50;" d="M16 75 q-12 1 -13 13 q1 12 13 13 l100 0 l0 11 q0 16 13 23 l52 34 q2 1 1 2 q0 1 -2 1 l-142 0 q-12 1 -13 13 q1 11 13 12 l172 0 q17 -1 18 -16 q0 -15 -14 -23 l-64 -41 q-5 -3 -5 -9 l0 -7 l95 0 q12 -1 13 -13 q-1 -12 -13 -13 l-95 0 l0 -65 q2 -36 -35 -37 q-9 -1 -33 -1 q-16 0 -18 15 q1 13 13 13 q4 0 13 -1 q9 0 12 0 q20 -1 19 20 l0 56 l-100 0 Z" /><glyph glyph-name="" unicode="&#x5b57;" d="M16 41 q-12 1 -13 13 q2 11 13 12 l103 0 q0 14 13 21 l27 15 q1 1 2 2 q-1 1 -2 1 l-101 0 q-11 1 -12 12 q1 11 12 12 l132 0 q14 -1 15 -13 q1 -13 -10 -18 l-44 -25 q-4 -3 -4 -7 l93 0 q11 -1 13 -12 q-1 -12 -13 -13 l-93 0 l0 -35 q1 -34 -33 -34 q-8 -1 -33 -1 q-14 1 -15 15 q1 11 11 11 q13 0 24 0 q19 -1 18 17 l0 27 l-103 0 ZM226 119 q-12 1 -13 13 l0 17 q0 4 -5 5 l-160 0 q-5 0 -5 -6 l0 -16 q-1 -12 -14 -13 q-12 1 -13 13 l0 30 q1 15 16 16 l87 0 q-4 10 -8 21 q-4 11 9 16 q12 3 17 -8 q8 -17 11 -27 q0 -1 0 -2 l76 0 q15 -1 16 -16 l0 -30 q-1 -12 -14 -13 Z" /><glyph glyph-name="" unicode="&#x5b69;" d="M112 156 q-11 1 -12 12 q1 11 12 12 l54 0 q-3 6 -9 21 q-4 9 9 13 q12 3 17 -8 q1 -2 3 -7 q5 -11 6 -15 q1 -2 1 -4 l46 0 q11 -1 12 -12 q-1 -11 -12 -12 l-68 0 q-19 -27 -31 -42 q-2 -4 3 -5 q6 1 25 2 q9 1 13 1 q9 12 16 24 q6 10 18 6 q9 -6 4 -17 q-43 -71 -116 -107 q-10 -6 -19 4 q-6 11 4 17 q45 21 73 50 q-20 -2 -37 -2 q-13 -1 -18 9 q-3 9 6 20 q15 17 30 40 l-30 0 ZM19 59 q-13 -2 -16 11 q-1 12 12 16 q2 1 6 2 q5 2 19 5 l0 26 q0 13 5 19 l20 28 q1 1 1 3 q-1 1 -3 1 l-45 0 q-11 1 -12 13 q1 11 12 12 l65 0 q13 -2 15 -13 q0 -13 -7 -22 l-21 -29 q-4 -7 -4 -12 l0 -18 q9 3 18 5 q11 2 14 -10 q1 -12 -10 -15 q-10 -3 -22 -7 l0 -69 q1 -33 -30 -33 q-9 0 -17 0 q-13 1 -15 11 q1 12 10 14 l12 0 q15 -1 14 14 l0 55 q-5 -2 -15 -5 q-4 -1 -6 -2 ZM114 -31 q-13 -5 -21 4 q-4 13 6 18 q83 36 123 100 q7 9 17 4 q10 -7 4 -17 q-17 -27 -41 -49 q3 -2 10 -8 q24 -19 33 -26 q9 -10 2 -19 q-10 -8 -20 -1 q-14 13 -43 37 q-31 -25 -70 -43 Z" /><glyph glyph-name="" unicode="&#x5b89;" d="M15 84 q-11 1 -12 13 q1 11 12 12 l66 0 q7 11 18 33 q7 12 21 8 q12 -6 7 -18 q-2 -4 -6 -11 q-5 -8 -7 -12 l126 0 q12 -1 13 -12 q-1 -12 -13 -13 l-36 0 q-14 -37 -39 -59 q16 -6 45 -18 q15 -6 22 -9 q12 -6 7 -19 q-5 -11 -20 -7 q-8 4 -25 11 q-15 7 -54 24 q-44 -24 -108 -37 q-12 -3 -19 7 q-3 14 7 19 q55 9 89 25 q-8 4 -24 11 q-17 7 -25 10 q-15 7 -6 22 q2 2 5 7 q5 9 8 13 l-52 0 ZM224 125 q-13 1 -14 11 l0 15 q0 4 -4 4 l-156 0 q-3 0 -4 -4 l0 -15 q-1 -11 -14 -12 q-12 1 -13 13 l0 28 q1 14 16 15 l84 0 q-1 2 -3 6 q-4 9 -6 12 q-5 14 12 17 q9 1 14 -8 q7 -12 12 -24 q1 -1 1 -3 l72 0 q16 -1 17 -15 l0 -26 q-1 -13 -14 -14 ZM89 55 q11 -4 35 -13 q8 -3 12 -5 q25 19 38 47 l-75 0 q-7 -10 -13 -19 q-5 -7 3 -10 Z" /><glyph glyph-name="" unicode="&#x5bb6;" d="M57 123 q-9 1 -10 10 q1 9 10 10 l143 0 q9 -1 10 -10 q0 -9 -10 -10 l-52 0 q-12 -9 -24 -16 q12 -13 19 -27 q43 20 66 33 q11 4 18 -5 q6 -9 -4 -16 q-10 -5 -36 -17 q17 -47 57 -65 q10 -8 4 -19 q-8 -10 -20 -4 q-43 23 -62 78 q-8 -3 -14 -6 q6 -19 6 -39 q1 -48 -39 -48 q-22 0 -29 -1 q-12 0 -15 10 q-1 13 9 14 q13 0 24 0 q26 -2 24 25 q0 3 0 7 q-1 5 -1 7 q-45 -35 -106 -55 q-11 -5 -17 6 q-3 12 6 16 q66 18 111 56 q-1 2 -2 6 q-2 4 -3 6 q-44 -30 -94 -45 q-10 -4 -17 5 q-3 13 6 16 q55 15 94 41 q-3 5 -7 9 q-33 -17 -76 -28 q-11 -3 -17 6 q-2 13 7 16 q61 11 95 34 l-54 0 ZM229 129 q-14 0 -14 11 l0 19 q0 4 -5 4 l-165 0 q-4 0 -4 -4 l0 -18 q-1 -11 -14 -12 q-12 1 -13 13 l0 27 q1 15 16 16 l88 0 q-4 8 -7 15 q-3 13 13 16 q9 1 14 -8 q0 -1 1 -2 q6 -15 8 -21 l79 0 q14 -1 15 -16 l0 -26 q0 -14 -12 -14 Z" /><glyph glyph-name="" unicode="&#x5bfb;" d="M41 136 q-10 1 -11 10 q1 10 11 11 l156 0 l0 16 q1 5 -5 5 l-157 0 q-10 1 -11 11 q1 9 11 10 l174 0 q16 0 16 -15 l0 -76 q0 -15 -16 -16 l-176 0 q-9 1 -11 11 q1 10 11 11 l159 0 q6 0 5 5 l0 17 l-156 0 ZM17 44 q-11 1 -12 12 q1 11 12 12 l160 0 l0 10 q1 12 14 13 q12 -1 13 -13 l0 -10 l34 0 q11 -1 12 -12 q-1 -11 -12 -12 l-34 0 l0 -32 q3 -41 -35 -40 q-16 0 -33 0 q-13 0 -15 12 q1 12 12 13 q11 0 23 0 q23 -2 21 21 l0 26 l-160 0 ZM105 -7 q-10 -9 -21 1 q-4 4 -19 18 q-9 8 -11 10 q-7 9 0 17 q10 8 19 0 q14 -10 32 -28 q9 -10 0 -18 Z" /><glyph glyph-name="" unicode="&#x5c0f;" d="M238 29 q-13 -5 -20 9 q-28 68 -43 100 q-3 13 9 17 q12 4 18 -8 q20 -44 44 -99 q4 -14 -8 -19 ZM78 -27 q-14 2 -16 14 q1 14 13 15 q9 0 21 0 q21 -2 20 19 l0 175 q2 14 15 15 q13 -1 14 -15 l0 -183 q2 -40 -37 -39 q-4 0 -15 -1 q-11 0 -15 0 ZM18 27 q-12 6 -8 19 q21 42 40 99 q5 13 18 10 q12 -4 10 -18 q-20 -56 -40 -102 q-6 -12 -20 -8 Z" /><glyph glyph-name="" unicode="&#x5df2;" d="M72 -20 q-44 -1 -43 42 l0 108 q1 13 14 14 q14 -1 15 -14 l0 -19 l129 0 q6 0 6 6 l0 48 q0 6 -6 6 l-154 0 q-12 1 -13 13 q1 11 13 12 l171 0 q17 0 17 -16 l0 -77 q0 -17 -17 -17 l-146 0 l0 -57 q-1 -25 24 -24 l103 0 q27 -2 31 22 q1 3 2 11 q1 7 1 10 q3 12 17 10 q12 -4 11 -17 q-1 -4 -3 -16 q-2 -9 -2 -12 q-6 -35 -47 -33 l-123 0 Z" /><glyph glyph-name="" unicode="&#x5e10;" d="M24 15 q-9 0 -9 10 l0 135 q0 12 12 12 l21 0 l0 30 q1 10 11 11 q10 0 10 -11 l0 -30 l23 0 q12 0 12 -12 l0 -119 q1 -19 -16 -21 q-5 -1 -8 -1 q-9 -1 -11 12 l0 -55 q-1 -9 -10 -10 q-10 1 -11 10 l0 172 l-10 0 q-5 0 -5 -4 l0 -119 q0 -10 -9 -10 ZM122 86 q-12 1 -13 13 q2 11 13 12 l8 0 l0 87 q1 13 12 14 q12 -1 13 -14 l0 -87 l82 0 q11 -1 12 -12 q-1 -12 -12 -13 l-41 0 q14 -54 50 -83 q8 -11 0 -21 q-10 -9 -20 0 q-38 36 -54 104 l-17 0 l0 -77 q0 -6 4 -4 q2 1 6 3 q8 5 11 7 q10 4 14 -7 q3 -10 -9 -17 q-16 -10 -32 -17 q-11 -6 -16 1 q-3 5 -3 20 l0 91 l-8 0 ZM183 129 q-10 -6 -18 2 q-6 9 2 17 q33 27 50 45 q9 7 18 1 q8 -10 1 -17 q-24 -23 -53 -48 ZM81 148 l-12 0 l0 -113 q2 6 7 6 l4 0 q6 0 6 9 l0 94 q0 4 -5 4 Z" /><glyph glyph-name="" unicode="&#x5e2e;" d="M24 168 q-9 1 -10 10 q1 10 10 10 l41 0 l0 13 q1 11 12 12 q11 -1 12 -12 l0 -13 l40 0 q8 -1 9 -10 q-1 -9 -9 -10 l-40 0 l0 -14 l0 -2 l34 0 q8 -1 9 -9 q-1 -8 -9 -9 l-34 0 q-1 -10 -3 -17 l45 0 q9 -1 10 -10 q-1 -9 -10 -10 l-51 0 q-7 -20 -27 -35 q1 0 2 0 l60 0 l0 8 q1 12 14 14 q13 -2 14 -14 l0 -8 l63 0 q15 0 15 -15 l0 -34 q0 -29 -27 -30 q-12 0 -25 0 q-12 -1 -13 11 q-1 11 9 11 q11 0 17 0 q13 0 13 11 l0 19 q0 5 -6 5 l-46 0 l0 -60 q-1 -12 -14 -14 q-13 2 -14 14 l0 60 l-44 0 q-5 0 -5 -5 l0 -44 q-1 -9 -14 -10 q-12 1 -13 10 l0 55 q0 4 1 7 q-1 -1 -4 -3 q-10 -6 -18 2 q-6 10 1 16 q26 17 33 29 l-33 0 q-9 1 -10 10 q1 9 10 10 l42 0 q2 7 3 17 l-36 0 q-8 1 -9 9 q1 8 9 9 l37 0 l0 4 l0 12 l-41 0 ZM161 72 q-12 1 -13 11 l0 101 q0 15 14 14 l61 0 q10 -1 13 -11 q1 -7 -5 -18 l-10 -18 q-3 -4 1 -7 q21 -13 20 -32 q0 -25 -28 -28 q-6 -1 -21 -1 q-9 1 -12 10 q-1 10 7 11 q9 0 16 0 q12 0 13 11 q-1 12 -19 24 q-6 4 -2 13 l12 20 q1 2 1 4 q-1 1 -3 1 l-28 0 q-5 0 -5 -5 l0 -89 q-1 -10 -12 -11 Z" /><glyph glyph-name="" unicode="&#x5e94;" d="M13 -30 q-11 7 -5 20 q23 39 22 121 l0 50 q0 18 18 18 l79 0 q-3 10 -5 19 q-2 11 11 15 q15 1 19 -9 q2 -8 2 -5 q3 -14 5 -20 l78 0 q10 -1 11 -12 q-1 -11 -11 -12 l-175 0 q-6 0 -6 -6 l0 -38 q1 -90 -25 -135 q-6 -11 -18 -6 ZM67 -18 q-11 1 -12 12 q1 12 12 13 l102 0 q21 57 38 118 q5 11 17 9 q12 -5 8 -17 q-19 -65 -36 -110 l41 0 q12 -1 13 -13 q-1 -11 -13 -12 l-170 0 ZM108 25 q-13 -3 -17 9 q-3 10 -9 32 q-9 32 -13 45 q-2 12 8 15 q9 4 16 -7 q13 -39 23 -78 q4 -11 -8 -16 ZM159 37 q-13 -1 -15 11 q-11 48 -17 76 q-2 10 9 15 q12 1 16 -10 q3 -11 8 -35 q7 -28 10 -41 q1 -12 -11 -16 Z" /><glyph glyph-name="" unicode="&#x5f00;" d="M30 170 q-12 1 -13 13 q1 11 13 12 l198 0 q12 -1 13 -12 q-1 -12 -13 -13 l-33 0 l0 -66 l44 0 q11 -1 12 -13 q-1 -12 -12 -13 l-44 0 l0 -95 q-1 -13 -15 -14 q-12 1 -13 14 l0 95 l-72 0 q1 -71 -54 -104 q-10 -9 -22 1 q-7 11 2 21 q46 26 46 82 l-49 0 q-12 1 -13 13 q1 12 13 13 l49 0 l0 66 l-37 0 ZM95 170 l0 -66 l72 0 l0 66 l-72 0 Z" /><glyph glyph-name="" unicode="&#x5f0f;" d="M17 137 q-11 1 -12 12 q1 12 12 13 l122 0 q-1 20 -1 39 q2 13 14 14 q12 -1 13 -14 q0 -7 1 -20 q0 -13 0 -19 l71 0 q12 -1 13 -13 q-1 -11 -13 -12 l-69 0 q0 -3 1 -10 q0 -4 0 -6 q6 -71 21 -104 q8 -16 19 -16 q7 0 10 12 q2 5 5 22 q1 3 1 5 q4 10 15 8 q11 -4 8 -16 q-4 -24 -8 -35 q-8 -27 -33 -26 q-28 0 -44 42 q-16 38 -21 107 q0 2 0 8 q-1 6 -1 9 l-124 0 ZM24 79 q-11 1 -12 12 q1 11 12 12 l95 0 q12 -1 13 -12 q-1 -11 -13 -12 l-33 0 l0 -59 q23 3 43 5 q13 0 14 -11 q-1 -12 -12 -14 q-74 -9 -111 -14 q-12 0 -15 11 q-2 12 10 15 q7 1 24 3 q13 1 20 2 l0 62 l-35 0 ZM224 168 q-9 -7 -17 1 q-14 14 -19 18 q-6 9 1 16 q8 6 17 -1 q9 -8 20 -18 q7 -8 -2 -16 Z" /><glyph glyph-name="" unicode="&#x5f15;" d="M213 -35 q-13 1 -14 15 l0 219 q2 13 14 14 q12 -1 14 -14 l0 -219 q-1 -14 -14 -15 ZM53 -27 q-13 0 -15 13 q1 12 13 13 q16 0 39 0 q23 -1 25 21 q2 16 2 32 q1 4 -5 5 l-77 0 q-15 1 -15 18 l7 49 q4 15 18 15 l66 0 q6 0 6 6 l0 24 q0 6 -6 6 l-86 0 q-10 1 -11 12 q1 11 11 12 l104 0 q16 1 15 -15 l0 -54 q1 -15 -15 -14 l-71 0 q-4 0 -5 -4 l-4 -27 q-1 -4 3 -4 l77 0 q16 -1 17 -18 q0 -3 -1 -11 q-1 -27 -3 -37 q-2 -42 -44 -41 q-11 -1 -45 -1 Z" /><glyph glyph-name="" unicode="&#x5f53;" d="M37 41 q-11 1 -12 12 q1 12 12 13 l167 0 l0 30 q-1 5 -6 6 l-169 0 q-11 1 -12 12 q1 11 12 12 l85 0 l0 74 q1 13 14 14 q13 -1 14 -14 l0 -74 l73 0 q18 0 17 -16 l0 -112 q0 -18 -18 -18 l-190 0 q-10 1 -11 12 q1 12 11 13 l174 0 q6 0 6 5 l0 31 l-167 0 ZM170 139 q-7 9 0 18 q24 24 33 34 q9 9 19 2 q10 -9 1 -18 q-14 -17 -34 -35 q-8 -9 -19 -1 ZM84 141 q-10 -7 -20 1 q-4 5 -15 17 q-11 13 -15 18 q-8 10 1 17 q9 6 19 -1 q4 -5 16 -17 q12 -12 16 -17 q7 -10 -2 -18 Z" /><glyph glyph-name="" unicode="&#x5f55;" d="M45 134 q-10 1 -11 11 q1 9 11 10 l142 0 l0 17 q0 5 -5 5 l-144 0 q-9 1 -10 11 q1 10 10 11 l159 0 q16 0 16 -16 l0 -71 l28 0 q10 -1 11 -11 q-1 -11 -11 -12 l-98 0 l0 -5 q11 -18 23 -32 q16 10 42 28 q10 8 20 -1 q6 -10 -2 -18 q-15 -9 -41 -25 q21 -15 53 -24 q11 -7 7 -19 q-7 -11 -19 -7 q-58 22 -83 59 l0 -37 q2 -36 -31 -36 q-5 -1 -27 -1 q-12 1 -13 12 q-1 12 11 13 q4 -1 17 -1 q17 -1 16 18 l0 20 q-55 -24 -92 -42 q-12 -4 -18 8 q-3 13 7 18 q73 28 103 42 l0 30 l-100 0 q-11 1 -12 12 q1 10 12 11 l171 0 l0 22 l-142 0 ZM61 44 q-17 12 -28 19 q-8 7 -3 16 q9 8 18 3 q17 -10 29 -18 q8 -8 2 -17 q-8 -9 -18 -3 Z" /><glyph glyph-name="" unicode="&#x5fae;" d="M160 104 q-8 6 -2 17 q20 32 30 81 q1 9 13 9 q11 -3 9 -13 q-4 -17 -9 -31 l41 0 q9 -1 10 -12 q-1 -10 -10 -11 l-3 0 q-4 -70 -23 -112 q9 -21 31 -39 q8 -9 2 -19 q-11 -8 -19 1 q-15 17 -26 35 q-8 -15 -31 -39 q-10 -7 -18 2 q-5 9 2 17 q22 20 35 44 q-12 27 -18 72 q-7 -6 -14 -2 ZM81 -24 q-6 -6 -16 0 q-7 8 -1 16 q16 15 15 50 l0 13 q0 12 12 12 l45 0 q11 -1 12 -12 l0 -29 q0 -2 1 -2 q1 -1 2 0 q6 5 10 9 q10 3 12 -6 q3 -9 -6 -16 q-11 -11 -24 -19 q-7 -4 -11 -1 q-5 2 -5 11 l0 39 q0 5 -4 5 l-19 0 q-4 0 -4 -4 l0 -8 q-1 -40 -19 -58 ZM6 54 q-6 10 2 19 q22 23 40 61 q5 9 15 4 q10 -6 4 -16 q-6 -11 -12 -23 l0 -122 q-1 -10 -12 -11 q-10 1 -11 11 l0 88 q-2 -3 -7 -9 q-2 -3 -3 -4 q-9 -7 -16 2 ZM85 126 q-12 0 -13 12 l0 46 q0 8 9 8 q8 0 9 -8 l0 -32 q0 -5 4 -5 l12 0 l0 52 q1 10 10 11 q10 -1 11 -11 l0 -52 l12 0 q4 0 4 5 l0 32 q1 7 9 8 q9 0 9 -8 l0 -46 q0 -12 -13 -12 l-63 0 ZM26 134 q-9 -6 -17 2 q-6 10 3 19 q21 20 35 47 q7 8 16 4 q9 -6 4 -17 q-15 -27 -41 -55 ZM82 86 q-10 1 -11 11 q2 10 11 11 l67 0 q9 -1 10 -11 q-1 -10 -10 -11 l-67 0 ZM189 136 q7 -53 15 -76 q12 35 15 84 l-26 0 q-1 -5 -4 -8 Z" /><glyph glyph-name="" unicode="&#x606f;" d="M50 58 q-13 2 -15 16 l0 99 q3 14 16 16 l49 0 q1 3 2 8 q2 6 2 8 q4 9 17 8 q12 -3 10 -14 q-1 -4 -4 -10 l78 0 q13 -2 15 -15 l0 -101 q-2 -13 -15 -15 l-155 0 ZM98 -26 q-35 -1 -34 33 l0 29 q1 11 13 12 q12 -1 13 -12 l0 -24 q-1 -18 19 -17 l39 0 q19 0 21 12 q1 2 4 14 q3 10 14 8 q13 -4 10 -15 q-1 -4 -2 -11 q-2 -5 -2 -7 q-7 -23 -39 -22 l-56 0 ZM194 114 l0 18 l-133 0 l0 -18 l133 0 ZM61 164 l0 -14 l133 0 l0 14 q0 4 -5 4 l-123 0 q-5 0 -5 -4 ZM189 78 q5 0 5 5 l0 13 l-133 0 l0 -13 q0 -5 5 -5 l123 0 ZM16 -14 q-10 6 -6 16 q2 4 6 14 q7 15 9 21 q5 9 16 7 q10 -5 7 -16 q-2 -5 -7 -18 q-6 -13 -8 -18 q-7 -10 -17 -6 ZM241 -5 q-11 -5 -18 4 q-8 14 -21 31 q-6 9 4 15 q9 6 17 -4 q5 -5 18 -22 q3 -4 4 -6 q6 -11 -4 -18 ZM146 16 q-10 -6 -17 3 q-3 3 -10 12 q-3 4 -5 6 q-4 8 3 15 q10 6 18 -2 q8 -10 15 -17 q6 -11 -4 -17 Z" /><glyph glyph-name="" unicode="&#x60c5;" d="M108 -33 q-11 1 -12 12 l0 101 q0 15 14 15 l109 0 q15 0 15 -15 l0 -78 q2 -30 -29 -30 q-2 0 -14 0 q-14 -1 -18 -1 q-11 0 -12 11 q-1 10 9 10 q11 0 25 0 q15 -1 14 13 l0 7 l-89 0 l0 -33 q-1 -11 -12 -12 ZM94 174 q-8 1 -9 9 q1 7 9 8 l57 0 l0 9 q1 12 13 13 q12 -1 13 -13 l0 -9 l61 0 q8 -1 9 -8 q-1 -8 -9 -9 l-61 0 l0 -15 l55 0 q8 0 8 -9 q-1 -7 -8 -8 l-55 0 l0 -15 l65 0 q8 -1 9 -9 q-1 -8 -9 -9 l-152 0 q-9 1 -10 9 q1 8 10 9 l61 0 l0 15 l-51 0 q-7 1 -8 8 q1 8 8 9 l51 0 l0 15 l-57 0 ZM50 -34 q-11 2 -12 13 l0 221 q1 11 12 12 q12 -1 13 -12 l0 -34 q1 0 2 -1 q1 0 1 -1 q12 -9 17 -13 q9 -7 3 -17 q-8 -10 -17 -3 q-1 2 -6 5 l0 -157 q-1 -12 -13 -13 ZM120 45 l0 -17 l89 0 l0 17 l-89 0 ZM120 72 l0 -11 l89 0 l0 11 q0 5 -5 5 l-79 0 q-5 0 -5 -5 ZM13 84 q-7 2 -7 10 q5 31 8 59 q2 8 10 8 q7 -2 8 -10 q-1 -9 -4 -30 q-3 -21 -4 -30 q-2 -8 -11 -7 Z" /><glyph glyph-name="" unicode="&#x624b;" d="M36 168 q-13 1 -15 12 q0 13 12 14 q104 2 184 6 q13 1 14 -11 q1 -12 -12 -14 q-17 -1 -55 -2 q9 0 -19 -1 l0 -39 l75 0 q11 -1 13 -12 q-1 -12 -13 -13 l-75 0 l0 -38 l93 0 q12 -1 13 -13 q-1 -11 -13 -12 l-93 0 l0 -33 q1 -39 -36 -39 q-4 0 -17 0 q-13 -1 -18 -1 q-15 1 -17 16 q0 11 11 11 q3 0 9 0 q15 -1 20 0 q19 0 19 17 l0 29 l-98 0 q-12 1 -13 12 q1 12 13 13 l98 0 l0 38 l-81 0 q-11 1 -12 13 q1 11 12 12 l81 0 l0 37 q-53 -2 -80 -2 Z" /><glyph glyph-name="" unicode="&#x626b;" d="M119 77 q-12 1 -13 13 q1 12 13 13 l89 0 l0 53 q-1 9 -9 10 l-84 0 q-12 1 -13 12 q1 12 13 13 l102 0 q18 -1 19 -18 l0 -170 q-1 -18 -19 -19 l-112 0 q-12 1 -13 13 q1 12 13 13 l94 0 q8 1 9 9 l0 58 l-89 0 ZM18 141 q-11 1 -12 11 q1 11 12 12 l22 0 l0 33 q1 13 13 14 q13 -2 14 -14 l0 -33 l19 0 q11 -1 12 -12 q-1 -10 -12 -11 l-19 0 l0 -43 q6 2 13 3 q14 2 17 -10 q1 -11 -14 -16 q-2 -1 -8 -2 q-5 -2 -8 -3 l0 -67 q1 -30 -27 -30 q-5 -1 -15 -1 q-15 0 -16 13 q-1 12 10 13 q6 0 11 0 q10 0 10 13 l0 52 q-3 -1 -9 -2 q-6 -2 -9 -3 q-14 0 -15 11 q-1 14 13 17 q3 1 11 3 q6 1 9 2 l0 50 l-22 0 Z" /><glyph glyph-name="" unicode="&#x62e9;" d="M104 96 q-13 -3 -17 9 q-1 12 11 15 q25 5 44 12 q-19 15 -34 35 q-3 5 -2 9 l-5 0 q-11 1 -12 12 q1 10 12 11 l122 0 q11 -1 12 -12 q0 -12 -7 -21 q-16 -19 -35 -34 q19 -6 44 -11 q12 -3 10 -14 q-3 -10 -17 -9 q-36 7 -62 20 q-27 -13 -64 -22 ZM102 56 q-10 1 -11 12 q1 10 11 11 l51 0 l0 11 q1 13 13 14 q12 -1 13 -14 l0 -11 l51 0 q10 -1 11 -11 q-1 -11 -11 -12 l-51 0 l0 -25 l60 0 q11 -1 12 -12 q-1 -10 -12 -11 l-60 0 l0 -27 q-1 -12 -13 -13 q-12 1 -13 13 l0 27 l-63 0 q-11 1 -12 11 q1 11 12 12 l63 0 l0 25 l-51 0 ZM18 141 q-11 2 -12 13 q2 11 12 12 l19 0 l0 33 q1 11 12 12 q12 -1 13 -12 l0 -33 l16 0 q11 -1 12 -12 q-1 -12 -12 -13 l-16 0 l0 -45 q7 2 13 3 q11 2 13 -9 q2 -13 -12 -17 q-6 -1 -14 -3 l0 -69 q1 -28 -26 -29 q-4 -1 -15 -1 q-13 1 -14 14 q0 11 10 11 q4 0 9 0 q11 -1 11 11 l0 55 q-3 -1 -8 -2 q-6 -2 -9 -3 q-12 -2 -15 11 q-1 14 11 17 q4 1 15 3 q4 1 6 2 l0 51 l-19 0 ZM131 176 q15 -20 36 -32 q18 12 33 28 q2 1 1 3 q0 1 -3 1 l-67 0 Z" /><glyph glyph-name="" unicode="&#x6307;" d="M116 -24 q-15 0 -15 16 l0 88 q0 15 15 15 l103 0 q15 0 15 -15 l0 -88 q0 -16 -15 -16 l-103 0 ZM18 142 q-11 1 -12 12 q1 11 12 12 l19 0 l0 33 q1 12 13 13 q11 -1 12 -13 l0 -33 l17 0 q11 -1 12 -12 q-1 -11 -12 -12 l-17 0 l0 -46 q3 1 9 2 q5 2 7 2 q13 1 14 -10 q1 -11 -11 -16 q-8 -2 -19 -5 l0 -65 q2 -33 -27 -32 q-2 -1 -13 -1 q-14 -1 -16 12 q1 12 9 13 q5 0 11 0 q12 0 11 13 l0 54 q-3 -1 -8 -2 q-6 -2 -9 -3 q-13 -1 -15 12 q-1 13 11 16 q2 0 8 2 q8 1 13 2 l0 52 l-19 0 ZM133 114 q-35 -1 -34 33 l0 54 q1 11 13 12 q12 -1 13 -12 l0 -24 q66 11 101 21 q11 2 16 -8 q2 -10 -8 -14 q-41 -10 -109 -21 l0 -1 q-2 -20 19 -18 l55 0 q18 -1 21 13 q1 1 2 8 q1 3 1 4 q4 10 15 8 q11 -4 9 -16 q0 -2 -2 -8 q-1 -6 -2 -9 q-7 -23 -36 -22 l-74 0 ZM203 -1 q6 0 6 5 l0 21 l-82 0 l0 -21 q0 -5 5 -5 l71 0 ZM127 67 l0 -21 l82 0 l0 21 q0 6 -6 5 l-71 0 q-5 1 -5 -5 Z" /><glyph glyph-name="" unicode="&#x63a5;" d="M93 57 q-10 1 -11 11 q1 10 11 11 l34 0 q5 7 8 13 q6 11 18 8 q10 -4 7 -14 q-3 -4 -4 -7 l82 0 q10 -1 11 -11 q-1 -10 -11 -11 l-19 0 q-13 -29 -28 -42 q7 -3 21 -9 q18 -8 27 -11 q11 -6 5 -18 q-7 -9 -18 -4 q-28 13 -55 25 q-29 -18 -82 -28 q-14 -4 -18 7 q-4 13 7 16 q40 7 64 17 q-15 8 -32 15 q-13 6 -6 18 q5 6 9 14 l-20 0 ZM20 141 q-11 1 -12 12 q1 11 12 12 l16 0 l0 35 q1 11 12 12 q12 -1 13 -12 l0 -35 l12 0 q11 -1 12 -12 q-1 -11 -12 -12 l-12 0 l0 -44 q4 2 10 3 q11 1 14 -10 q1 -12 -9 -16 q-7 -1 -15 -4 l0 -66 q2 -33 -28 -33 q-6 0 -12 0 q-13 0 -15 12 q0 13 9 13 l9 0 q12 -1 12 13 l0 55 q-4 -2 -12 -3 q-1 -1 -2 -1 q-12 -2 -16 10 q-1 14 11 17 q3 0 8 2 q7 1 11 2 l0 50 l-16 0 ZM93 105 q-9 1 -10 11 q1 10 10 11 l35 0 q-5 9 -12 19 q-5 9 5 14 q12 3 18 -6 q1 -1 5 -7 q8 -12 10 -14 q1 -3 1 -6 l22 0 q3 5 13 20 q4 5 5 7 q6 10 18 6 q10 -5 5 -15 q-8 -12 -13 -18 l33 0 q10 -1 11 -11 q-1 -10 -11 -11 l-145 0 ZM99 163 q-10 1 -11 10 q1 10 11 11 l58 0 q-1 2 -3 6 q-3 6 -4 10 q-2 10 9 13 q12 3 16 -6 q2 -3 5 -9 q3 -6 4 -10 q0 -2 0 -4 l48 0 q10 -1 11 -11 q-1 -9 -11 -10 l-133 0 ZM133 38 q2 -1 8 -3 q16 -7 25 -10 q14 10 24 32 l-49 0 q-4 -7 -9 -13 q-3 -4 1 -6 Z" /><glyph glyph-name="" unicode="&#x641c;" d="M194 131 q-9 1 -10 10 q1 9 10 10 l19 0 l0 20 q0 3 -3 3 l-17 0 q-9 1 -10 10 q0 10 11 10 l29 0 q13 -1 14 -13 l0 -78 q-1 -14 -16 -15 l-46 0 l0 -20 l45 0 q10 -1 11 -10 q0 -11 -7 -19 q-15 -18 -37 -32 q24 -9 55 -13 q11 -4 8 -15 q-3 -8 -15 -7 q-42 7 -72 21 q-31 -14 -75 -23 q-11 -3 -16 7 q-3 11 7 15 q35 6 60 15 q-19 14 -34 33 q-3 3 -3 8 l-8 0 q-9 1 -10 10 q1 10 10 10 l57 0 l0 20 l-46 0 q-15 1 -16 15 l0 76 q0 10 11 14 q14 2 26 6 q11 4 16 -5 q2 -10 -7 -14 q-3 -1 -9 -2 q-7 -2 -10 -3 q-3 0 -3 -5 l0 -19 l21 0 q9 -1 10 -10 q-1 -9 -10 -10 l-21 0 l0 -19 q0 -3 5 -4 l33 0 l0 92 q1 11 12 12 q11 -1 12 -12 l0 -92 l33 0 q6 0 5 4 l0 19 l-19 0 ZM18 140 q-12 1 -13 12 q2 11 13 12 l16 0 l0 37 q1 11 11 12 q12 -1 13 -12 l0 -37 l12 0 q11 -1 12 -12 q-1 -11 -12 -12 l-12 0 l0 -45 q5 2 9 3 q11 2 14 -10 q1 -12 -10 -14 q-5 -3 -13 -4 l0 -72 q1 -25 -23 -27 q-1 0 -7 0 q-8 -1 -10 -1 q-12 0 -14 13 q1 11 10 12 q5 0 10 0 q10 1 10 11 l0 56 l-14 -4 q-12 -2 -15 10 q-2 13 10 16 q8 2 19 5 l0 51 l-16 0 ZM127 48 q15 -18 36 -30 q17 9 33 25 q3 4 -2 5 l-67 0 Z" /><glyph glyph-name="" unicode="&#x6447;" d="M88 73 q-7 6 -3 15 q13 17 21 32 q5 10 16 7 q9 -4 6 -14 l101 0 q9 -1 10 -11 q-1 -10 -10 -11 l-53 0 l0 -26 l63 0 q10 -1 11 -11 q-1 -10 -11 -11 l-63 0 l0 -43 l34 0 q4 1 4 4 l0 16 q1 11 11 12 q12 -1 13 -12 l0 -28 q-1 -12 -13 -13 l-123 0 q-12 1 -13 13 l0 29 q1 11 12 12 q11 -1 12 -12 l0 -17 q1 -3 4 -4 l34 0 l0 43 l-65 0 q-11 1 -12 11 q1 10 12 11 l65 0 l0 26 l-35 0 q-1 -1 -2 -3 q-3 -3 -9 -12 q-7 -9 -17 -3 ZM18 139 q-11 2 -12 13 q2 11 12 12 l15 0 l0 37 q1 11 13 12 q11 -1 12 -12 l0 -37 l11 0 q11 -1 12 -12 q-1 -12 -12 -13 l-11 0 l0 -41 q3 2 8 3 q13 2 15 -9 q1 -13 -10 -15 q-6 -3 -13 -5 l0 -74 q1 -24 -22 -26 q-1 0 -9 -1 q-8 0 -10 0 q-12 0 -14 14 q1 9 9 11 q9 0 13 1 q9 0 8 9 l0 57 q-3 -2 -9 -3 q-1 -1 -2 -1 q-13 -3 -17 10 q-1 13 11 16 q8 2 17 5 l0 49 l-15 0 ZM91 174 q-10 -1 -12 10 q0 11 10 12 q84 2 143 6 q11 1 13 -9 q0 -10 -9 -13 q-9 0 -29 -1 q-77 -4 -116 -5 ZM204 122 q-10 6 -6 15 q6 9 15 27 q6 10 17 6 q10 -5 6 -15 q-1 -2 -4 -7 q-7 -14 -11 -19 q-5 -10 -17 -7 ZM170 129 q-10 -2 -15 7 l-6 19 q-2 10 7 13 q13 2 17 -8 l6 -19 q2 -9 -9 -12 ZM118 129 q-10 -4 -15 5 l-9 17 q-3 10 7 14 q11 2 17 -7 l8 -17 q2 -9 -8 -12 Z" /><glyph glyph-name="" unicode="&#x652f;" d="M19 154 q-11 1 -12 12 q1 11 12 12 l96 0 l0 21 q1 13 14 14 q13 -2 14 -14 l0 -21 l92 0 q11 -1 12 -12 q-1 -11 -12 -12 l-92 0 l0 -34 l56 0 q12 -1 15 -13 q1 -9 -7 -22 q-22 -38 -54 -63 q31 -14 83 -23 q12 -3 10 -17 q-3 -12 -19 -9 q-64 13 -98 33 q-38 -22 -102 -37 q-15 -3 -18 10 q-2 12 10 17 q52 11 85 27 q-31 26 -52 69 q-2 1 -2 4 l-13 0 q-11 1 -12 12 q1 11 12 12 l78 0 l0 34 l-96 0 ZM78 96 q21 -39 51 -59 q33 23 50 54 q3 4 -2 5 l-99 0 Z" /><glyph glyph-name="" unicode="&#x6536;" d="M99 95 q-7 9 -1 20 q28 40 44 87 q4 12 16 10 q12 -3 10 -16 q-2 -4 -6 -14 q-4 -9 -6 -14 l81 0 q12 -1 13 -13 q-1 -12 -13 -13 l-13 0 q-9 -71 -35 -108 q21 -21 52 -36 q10 -7 6 -21 q-10 -11 -22 -4 q-31 18 -52 40 q-22 -24 -51 -43 q-13 -6 -20 4 q-7 12 4 20 q31 19 50 40 q-22 34 -30 76 q-4 -7 -10 -14 q-6 -7 -17 -1 ZM36 22 q-16 -6 -18 14 l0 136 q1 11 12 12 q11 -1 12 -12 l0 -113 q0 -5 5 -3 q3 2 14 8 q5 3 7 4 l0 131 q1 12 13 13 q12 -1 13 -13 l0 -221 q-1 -12 -13 -13 q-12 1 -13 13 l0 62 q-5 -3 -15 -8 q-12 -8 -17 -10 ZM144 141 q7 -51 28 -85 q19 31 27 86 l-55 0 q0 0 0 -1 Z" /><glyph glyph-name="" unicode="&#x653e;" d="M118 95 q-8 10 -1 21 q22 31 37 87 q3 11 16 10 q13 -3 10 -16 q-4 -15 -10 -28 l68 0 q12 -1 13 -13 q-1 -11 -13 -12 l-7 0 q-6 -69 -33 -113 q17 -20 42 -35 q12 -7 6 -21 q-9 -10 -22 -3 q-25 17 -42 38 q-19 -22 -47 -40 q-11 -7 -21 3 q-6 12 5 21 q29 19 46 38 q-18 31 -25 74 q-3 -4 -4 -9 q-8 -9 -18 -2 ZM18 146 q-11 1 -12 12 q1 11 12 12 l43 0 q-1 3 -4 14 q-3 10 -4 13 q-2 10 11 15 q13 1 16 -11 q3 -9 8 -26 q0 -2 0 -5 l28 0 q11 -1 12 -12 q-1 -11 -12 -12 l-57 0 q0 -25 -1 -35 l41 0 q15 0 15 -16 q-1 -24 -2 -56 q-1 -15 -1 -23 q1 -41 -33 -39 q-4 -1 -16 -1 q-13 1 -14 13 q-1 11 11 12 l10 0 q19 -1 18 18 q2 22 2 61 q2 7 -6 7 l-26 0 q-3 -74 -29 -112 q-7 -9 -19 -2 q-7 8 -2 20 q24 35 26 108 q0 7 1 23 q0 15 0 22 l-16 0 ZM158 140 q6 -54 24 -85 q18 31 24 89 l-46 0 q0 -1 -1 -2 q-1 -1 -1 -2 Z" /><glyph glyph-name="" unicode="&#x6587;" d="M20 145 q-12 1 -13 13 q1 11 13 12 l100 0 q-3 7 -2 5 q-6 15 -8 21 q-2 12 11 16 q14 3 18 -9 q6 -16 10 -28 q2 -2 0 -5 l87 0 q11 -1 12 -12 q-1 -11 -12 -13 l-31 0 q-15 -64 -56 -105 q33 -23 89 -38 q13 -5 9 -18 q-5 -15 -22 -10 q-57 18 -98 47 q-36 -27 -94 -48 q-15 -5 -22 8 q-4 13 7 19 q55 18 88 40 q-40 42 -55 105 l-31 0 ZM79 145 q14 -52 48 -87 q37 34 48 87 l-96 0 Z" /><glyph glyph-name="" unicode="&#x65b0;" d="M129 -28 q-10 6 -5 18 q20 28 19 97 l0 91 q0 13 13 15 q46 2 72 7 q12 1 14 -10 q2 -12 -10 -14 q-30 -4 -58 -6 q-6 -1 -6 -6 l0 -42 l71 0 q11 -1 12 -12 q-1 -11 -12 -12 l-17 0 l0 -120 q-1 -11 -12 -12 q-11 1 -12 12 l0 120 l-30 0 l0 -10 q1 -76 -21 -112 q-7 -10 -18 -4 ZM15 105 q-9 1 -10 11 q1 10 10 11 l27 0 q-1 0 -2 2 q-1 1 -1 1 q-2 4 -10 16 q-5 8 3 14 q11 4 16 -3 q9 -12 11 -16 q4 -9 -4 -14 l22 0 q3 6 12 20 q3 6 4 8 q6 10 17 6 q9 -6 4 -14 q-1 -3 -7 -11 q-3 -6 -5 -9 l23 0 q10 -1 11 -11 q-1 -10 -11 -11 l-40 0 q0 0 0 -1 q1 -2 1 -3 l0 -19 l34 0 q10 -1 11 -11 q-1 -10 -11 -11 l-34 0 l0 -58 q-1 -27 -26 -29 q-2 0 -9 0 q-9 -1 -12 -1 q-11 1 -12 12 q-1 11 10 12 q6 0 11 0 q13 -1 12 13 l0 51 l-39 0 q-10 1 -11 11 q1 10 11 11 l39 0 l0 19 q0 3 1 4 l-46 0 ZM22 164 q-10 1 -11 11 q1 10 11 11 l38 0 q-3 6 -5 14 q-2 9 10 13 q13 2 16 -7 q1 -3 4 -10 q2 -7 3 -10 l32 0 q10 -1 11 -11 q-1 -10 -11 -11 l-98 0 ZM13 -5 q-8 5 -4 14 q3 5 9 19 q5 11 7 15 q5 8 14 6 q9 -4 6 -14 q-2 -4 -6 -14 q-8 -15 -11 -21 q-5 -9 -15 -5 ZM124 8 q-10 -3 -15 5 q-8 14 -14 23 q-4 8 4 13 q9 4 15 -4 q1 -2 4 -7 q7 -11 10 -14 q4 -10 -4 -16 Z" /><glyph glyph-name="" unicode="&#x65b9;" d="M22 147 q-12 1 -13 13 q1 12 13 13 l97 0 q-4 13 -8 23 q-4 12 11 16 q14 3 19 -9 q2 -4 5 -14 q4 -10 5 -14 q0 -2 0 -2 l84 0 q12 -1 13 -13 q-1 -12 -13 -13 l-134 0 q0 -18 -2 -38 l98 0 q17 -1 18 -18 q-1 -26 -4 -65 q0 -3 0 -4 q-3 -47 -48 -46 q-11 -1 -38 -1 q-15 0 -15 14 q0 12 13 13 q14 0 30 0 q28 -2 30 28 q3 21 3 48 q0 6 -6 6 l-83 0 q-7 -72 -60 -112 q-11 -9 -22 0 q-9 10 0 21 q53 36 55 108 q2 26 2 46 l-50 0 Z" /><glyph glyph-name="" unicode="&#x66f4;" d="M21 178 q-10 1 -11 11 q1 10 11 11 l213 0 q11 -1 12 -11 q-1 -10 -12 -11 l-92 0 q0 -9 0 -20 l67 0 q16 0 16 -16 l0 -76 q0 -16 -16 -16 l-72 0 q-4 -25 -17 -39 q35 -11 117 -14 q12 -2 10 -15 q-4 -11 -16 -9 q-91 4 -131 20 q-22 -13 -70 -25 q-12 -2 -18 8 q-4 13 7 16 q35 6 53 14 q-17 11 -27 22 q-7 8 1 16 q9 6 18 -2 q2 -1 5 -4 q15 -13 26 -18 q13 12 15 30 l-63 0 q-17 0 -17 16 l0 76 q0 16 17 16 l68 0 l0 20 l-94 0 ZM141 94 q0 -4 -1 -12 q0 -7 -1 -11 l55 0 q5 0 5 6 l0 17 l-58 0 ZM56 131 l0 -17 l59 0 q0 10 0 22 l-53 0 q-6 0 -6 -5 ZM194 136 l-52 0 q0 -3 0 -11 q-1 -7 -1 -11 l58 0 l0 17 q0 5 -5 5 ZM113 71 q1 11 1 23 l-58 0 l0 -17 q0 -6 6 -6 l51 0 Z" /><glyph glyph-name="" unicode="&#x6709;" d="M23 158 q-12 1 -13 12 q2 11 13 12 l64 0 q5 9 9 18 q6 15 20 12 q13 -3 9 -16 q-3 -8 -6 -14 l118 0 q11 -1 12 -12 q-1 -11 -12 -12 l-131 0 q-6 -12 -14 -23 l114 0 q14 -1 16 -16 l0 -113 q2 -33 -34 -34 q-15 0 -29 0 q-14 1 -15 13 q-1 10 9 11 q12 0 24 0 q18 -2 17 16 l0 11 l-115 0 l0 -42 q-1 -13 -14 -14 q-12 1 -13 14 l0 102 q-4 -4 -13 -13 q-9 -8 -14 -13 q-11 -7 -18 5 q-6 11 4 20 q40 37 63 76 l-51 0 ZM79 67 l0 -23 l115 0 l0 23 l-115 0 ZM79 106 l0 -17 l115 0 l0 17 q0 6 -5 6 l-104 0 q-6 0 -6 -6 Z" /><glyph glyph-name="" unicode="&#x670b;" d="M125 -29 q-9 5 -3 20 q19 29 18 95 l0 98 q1 14 16 16 l65 0 q15 -1 16 -16 l0 -179 q1 -32 -28 -33 q-9 0 -19 0 q-14 1 -15 14 q-1 10 9 11 q8 0 15 0 q13 -1 12 13 l0 43 l-46 0 q-2 -44 -20 -77 q-7 -12 -20 -5 ZM10 -28 q-8 6 -2 21 q18 34 17 103 l0 87 q1 15 16 17 l60 0 q15 -1 16 -17 l0 -178 q1 -29 -27 -31 q-9 0 -18 0 q-14 1 -15 13 q1 12 10 11 q6 0 12 0 q14 -1 13 14 l0 41 l-43 0 q-3 -46 -19 -79 q-8 -9 -20 -2 ZM166 76 l45 0 l0 39 l-45 0 l0 -39 ZM166 170 l0 -33 l45 0 l0 33 q0 6 -5 6 l-34 0 q-6 0 -6 -6 ZM50 76 l42 0 l0 39 l-42 0 l0 -39 ZM50 170 l0 -33 l42 0 l0 33 q-1 5 -6 6 l-30 0 q-5 -1 -6 -6 Z" /><glyph glyph-name="" unicode="&#x677e;" d="M17 139 q-11 1 -12 12 q1 11 12 12 l24 0 l0 36 q1 12 13 13 q11 -2 12 -13 l0 -36 l21 0 q12 -1 13 -12 q-1 -11 -13 -12 l-21 0 l0 -26 q1 0 2 -1 q3 -1 4 -2 q5 -5 18 -17 q5 -6 7 -8 q8 -10 1 -18 q-8 -9 -17 0 q-2 3 -7 8 q-5 6 -8 8 l0 -105 q-1 -11 -12 -13 q-12 1 -13 13 l0 109 q-9 -25 -19 -41 q-6 -8 -16 0 q-2 3 -2 7 q-1 5 3 13 q19 31 32 73 l-22 0 ZM129 -18 q-26 -2 -28 9 q-4 10 7 29 q25 44 42 87 q6 12 19 8 q12 -5 8 -17 q-20 -44 -43 -84 q-1 -3 0 -5 q1 -2 4 -1 q32 0 63 3 q-3 6 -9 19 q-6 12 -9 18 q-4 10 6 16 q11 4 17 -6 q22 -42 35 -68 q5 -12 -6 -19 q-12 -4 -18 7 q-2 4 -5 9 q-54 -4 -83 -5 ZM247 98 q-11 -9 -19 -1 q-34 42 -50 94 q-2 12 9 16 q12 2 16 -9 q15 -47 43 -79 q8 -12 1 -21 ZM97 97 q-8 9 -2 20 q24 33 36 77 q5 11 16 9 q11 -4 9 -16 q-16 -50 -40 -88 q-8 -10 -19 -2 Z" /><glyph glyph-name="" unicode="&#x6b3e;" d="M138 -28 q-11 -8 -20 1 q-8 10 1 20 q51 42 51 105 q0 5 1 15 q0 10 0 14 q1 13 13 13 q11 -1 12 -12 q0 -4 -1 -13 q0 -7 0 -9 q0 -1 0 -3 q11 -74 51 -108 q8 -9 2 -21 q-10 -8 -20 0 q-30 28 -43 79 q-7 -46 -47 -81 ZM16 168 q-10 1 -11 10 q1 10 11 11 l42 0 l0 12 q1 12 13 13 q11 -1 12 -13 l0 -12 l42 0 q9 -1 10 -11 q-1 -9 -10 -10 l-42 0 l0 -20 l31 0 q10 -1 11 -10 q-1 -9 -11 -10 l-91 0 q-9 1 -10 10 q1 10 10 10 l35 0 l0 20 l-42 0 ZM133 109 q-9 6 -4 17 q19 37 28 77 q3 11 15 9 q12 -3 10 -14 q-1 -4 -3 -11 q-2 -8 -3 -12 l56 0 q13 -1 14 -12 q1 -6 -2 -15 q-1 -3 -1 -5 l-8 -28 q-4 -11 -14 -8 q-11 2 -10 13 l9 25 q2 7 -4 7 l-49 0 q-6 -21 -16 -40 q-7 -9 -18 -3 ZM16 50 q-9 1 -10 11 q1 10 10 11 l109 0 q10 -1 11 -11 q-1 -10 -11 -11 l-40 0 l0 -48 q1 -28 -25 -29 q-9 0 -18 0 q-11 1 -12 10 q1 12 10 13 l10 0 q11 -1 10 11 l0 43 l-44 0 ZM27 90 q-9 1 -10 10 q1 9 10 10 l86 0 q9 -1 10 -10 q0 -9 -10 -10 l-86 0 ZM13 -10 q-9 4 -5 14 q3 5 9 16 q6 11 8 15 q4 9 13 7 q10 -4 7 -14 q-12 -24 -18 -34 q-5 -9 -14 -4 ZM123 2 q-9 -4 -15 4 q-8 12 -12 20 q-4 8 4 13 q8 4 14 -4 q5 -6 12 -18 q5 -8 -3 -15 Z" /><glyph glyph-name="" unicode="&#x6c42;" d="M192 166 q-16 16 -23 20 q-6 9 2 15 q9 7 17 0 q1 -1 3 -2 q17 -13 20 -17 q7 -8 -1 -17 l28 0 q11 -1 12 -12 q-1 -10 -12 -12 l-96 0 l0 -8 q11 -25 24 -46 q18 14 44 38 q12 8 20 0 q9 -9 -1 -19 q-23 -19 -49 -38 q23 -26 60 -45 q11 -7 6 -19 q-8 -12 -21 -6 q-56 32 -83 85 l0 -71 q2 -37 -33 -38 q-6 -1 -32 -1 q-12 1 -13 12 q-1 13 12 14 q2 0 10 0 q9 -1 12 -1 q18 -1 17 20 l0 37 q-1 -1 -3 -3 q-14 -7 -54 -30 q-23 -12 -31 -17 q-11 -5 -19 6 q-4 14 8 20 q5 2 15 8 q56 28 74 40 q6 2 10 0 l0 62 l-97 0 q-11 1 -12 12 q1 11 12 12 l97 0 l0 36 q1 13 14 14 q12 -1 13 -14 l0 -36 l51 0 q0 1 -1 1 ZM82 78 q-9 -7 -19 0 q-14 16 -30 32 q-7 8 0 16 q9 7 18 1 q16 -15 31 -31 q9 -10 0 -18 Z" /><glyph glyph-name="" unicode="&#x6d88;" d="M95 -33 q-12 1 -13 12 l0 150 q0 14 15 14 l48 0 l0 55 q1 13 14 14 q13 -2 14 -14 l0 -55 l48 0 q15 0 15 -13 l0 -122 q1 -34 -31 -35 q-14 0 -30 0 q-12 0 -13 11 q-1 12 10 13 q3 0 11 -1 q8 0 11 0 q17 -1 16 16 l0 12 l-101 0 l0 -45 q-1 -11 -14 -12 ZM23 -28 q-11 5 -9 17 q4 14 12 44 q6 19 8 28 q4 12 17 9 q11 -5 9 -17 q-4 -14 -12 -44 q-6 -19 -8 -28 q-5 -11 -17 -9 ZM109 72 l0 -26 l101 0 l0 26 l-101 0 ZM109 113 l0 -19 l101 0 l0 20 q0 6 -6 5 l-90 0 q-5 0 -5 -6 ZM39 95 q-11 11 -25 21 q-8 10 -1 18 q10 8 18 1 q4 -2 13 -9 q10 -7 13 -10 q9 -9 1 -19 q-8 -9 -19 -2 ZM44 161 q-3 3 -12 11 q-9 8 -12 11 q-8 8 -1 17 q8 7 19 1 q5 -3 17 -14 q5 -4 7 -6 q9 -8 2 -19 q-9 -9 -20 -1 ZM195 156 q-8 8 -2 17 q1 2 5 5 q10 13 13 17 q8 9 19 3 q9 -7 2 -17 q-6 -8 -19 -24 q-9 -7 -18 -1 ZM122 157 q-10 -6 -19 2 q-4 5 -14 17 q-4 4 -5 6 q-6 8 2 15 q10 6 17 -1 q15 -15 20 -21 q6 -9 -1 -18 Z" /><glyph glyph-name="" unicode="&#x7247;" d="M22 -28 q-9 10 -3 21 q32 36 29 116 l0 82 q1 13 14 14 q13 -1 14 -14 l0 -49 l82 0 l0 56 q1 13 14 14 q13 -2 14 -14 l0 -56 l49 0 q11 -1 12 -12 q-1 -12 -12 -13 l-159 0 l0 -8 q0 -18 -1 -31 l108 0 q15 0 14 -17 l0 -79 q-1 -13 -13 -14 q-13 1 -14 14 l0 62 q0 8 -7 8 l-90 0 q-5 -44 -29 -77 q-10 -10 -22 -3 Z" /><glyph glyph-name="" unicode="&#x7248;" d="M96 -20 q-7 7 -1 18 q23 32 21 103 l0 75 q1 16 16 17 q42 2 97 9 q13 1 15 -9 q2 -13 -9 -16 q-37 -4 -87 -8 q-7 0 -7 -8 l0 -24 l79 0 q14 0 17 -8 q2 -5 0 -17 q0 1 0 -2 q-8 -48 -32 -82 q15 -16 37 -31 q10 -9 4 -20 q-8 -8 -20 -2 q-25 18 -37 33 q-17 -18 -41 -35 q-11 -6 -18 3 q-6 10 4 18 q24 16 40 34 q-18 28 -27 65 q-2 12 6 17 q9 2 14 -6 q7 -32 22 -56 q15 25 21 56 q2 8 -5 8 l-64 0 l0 -17 q2 -72 -27 -115 q-8 -9 -18 0 ZM12 -29 q-8 4 -5 17 q16 31 15 95 l0 108 q1 11 12 12 q10 -1 11 -12 l0 -55 l21 0 l0 62 q1 11 12 12 q11 -1 12 -12 l0 -62 l4 0 q10 -1 11 -11 q-1 -10 -11 -11 l-49 0 l0 -31 l31 0 q15 0 14 -16 l0 -86 q-1 -11 -12 -12 q-10 1 -11 12 l0 74 q0 6 -6 6 l-16 0 q-1 -53 -16 -86 q-5 -9 -17 -4 Z" /><glyph glyph-name="" unicode="&#x72ec;" d="M113 63 q-12 2 -14 14 l0 75 q2 12 14 13 l41 0 l0 33 q1 12 12 13 q12 -1 13 -13 l0 -33 l42 0 q11 -1 13 -13 l0 -75 q-2 -13 -13 -14 l-42 0 l0 -52 q16 2 31 3 q-1 3 -3 9 q-3 6 -4 9 q-2 10 7 14 q11 3 16 -8 q2 -7 8 -21 q9 -21 12 -30 q4 -10 -7 -15 q-12 -3 -16 8 q0 1 -1 2 q0 3 -3 9 q-36 -3 -105 -9 q-7 -1 -11 -1 q-12 0 -14 10 q-1 13 11 15 q16 1 54 3 l0 54 l-41 0 ZM26 116 q-11 -6 -17 5 q-5 9 5 17 q2 1 5 4 q11 9 16 14 q-7 15 -19 28 q-6 9 2 16 q10 6 18 -2 q3 -4 9 -11 q6 -8 9 -12 q1 1 2 3 q6 6 14 17 q8 8 17 2 q8 -7 2 -17 q-12 -15 -24 -28 q18 -38 17 -117 q2 -59 -39 -60 q-11 0 -15 -1 q-13 0 -15 11 q0 13 11 14 l12 0 q22 -1 21 35 q0 21 -1 37 q-14 -17 -29 -31 q-10 -5 -18 4 q-5 9 5 19 q22 17 38 41 q-3 15 -7 29 q-9 -9 -19 -17 ZM206 142 l-27 0 l0 -55 l27 0 q4 1 4 4 l0 46 q-1 4 -4 5 ZM123 137 l0 -46 q0 -3 5 -4 l26 0 l0 55 l-26 0 q-4 0 -5 -5 Z" /><glyph glyph-name="" unicode="&#x7406;" d="M112 75 q-14 0 -14 14 l0 97 q0 13 14 13 l110 0 q15 -1 15 -13 l0 -97 q-1 -13 -15 -14 l-42 0 l0 -24 l53 0 q10 -1 11 -12 q-1 -9 -11 -10 l-53 0 l0 -28 l62 0 q11 -1 12 -12 q-1 -10 -12 -11 l-153 0 q-10 1 -11 11 q1 11 11 12 l66 0 l0 28 l-53 0 q-9 1 -10 10 q1 11 10 12 l53 0 l0 24 l-43 0 ZM17 169 q-11 1 -12 13 q1 11 12 12 l62 0 q11 -1 13 -12 q-1 -12 -13 -13 l-18 0 l0 -59 l17 0 q11 -1 12 -12 q-1 -11 -12 -12 l-17 0 l0 -61 q5 2 14 4 q2 0 3 0 q12 0 13 -11 q-1 -12 -11 -14 q-10 -2 -35 -8 q-18 -3 -25 -5 q-13 -1 -15 11 q-2 12 11 15 q1 0 3 0 q6 1 17 4 l0 65 l-17 0 q-11 1 -12 12 q1 11 12 12 l17 0 l0 59 l-19 0 ZM207 97 q5 0 5 5 l0 25 l-32 0 l0 -30 l27 0 ZM207 177 l-27 0 l0 -29 l32 0 l0 25 q0 4 -5 4 ZM123 103 q0 -6 5 -6 l27 0 l0 30 l-32 0 l0 -24 ZM123 172 l0 -24 l32 0 l0 29 l-27 0 q-5 0 -5 -5 Z" /><glyph glyph-name="" unicode="&#x7528;" d="M17 -30 q-11 6 -6 19 q13 20 16 42 q4 20 4 67 l0 84 q1 16 16 16 l172 0 q16 0 16 -16 l0 -177 q2 -34 -31 -33 q-13 0 -27 0 q-12 1 -13 12 q-1 12 10 13 q9 0 19 0 q16 -1 15 14 l0 34 l-63 0 l0 -59 q-1 -13 -13 -14 q-13 1 -14 14 l0 59 l-61 0 q-3 -39 -20 -71 q-8 -11 -20 -4 ZM145 109 l0 -40 l63 0 l0 40 l-63 0 ZM203 173 l-58 0 l0 -40 l63 0 l0 34 q0 6 -5 6 ZM59 98 q0 -6 -1 -17 q0 -8 0 -12 l60 0 l0 40 l-59 0 l0 -11 ZM59 167 l0 -34 l59 0 l0 40 l-54 0 q-5 0 -5 -6 Z" /><glyph glyph-name="" unicode="&#x767b;" d="M59 31 q-17 -1 -16 16 l0 35 q0 17 16 17 l137 0 q16 0 16 -17 l0 -35 q1 -17 -16 -16 l-11 0 q0 -1 1 -1 q9 -7 4 -15 q-10 -10 -15 -17 l64 0 q10 -1 11 -11 q-1 -10 -11 -11 l-222 0 q-10 1 -11 11 q1 10 11 11 l63 0 q-11 13 -15 16 q-5 8 3 15 q1 1 2 1 q1 1 1 1 l-12 0 ZM20 82 q-11 -4 -16 5 q-4 13 6 17 q21 11 38 23 q-12 11 -25 21 q-7 7 -1 15 q9 7 17 1 q9 -7 27 -21 q13 13 23 29 q1 2 1 3 q-1 1 -3 1 l-61 0 q-10 1 -11 11 q1 10 11 11 l80 0 q11 -1 12 -12 q1 -14 -5 -20 q-8 -15 -19 -28 l68 0 q-18 19 -32 59 q-2 11 7 14 q13 3 16 -7 q4 -12 10 -22 q4 3 14 9 q16 9 21 13 q9 6 17 -2 q6 -9 -2 -15 q-4 -2 -15 -9 q-17 -11 -24 -15 q6 -9 12 -16 q6 4 22 14 q12 7 16 10 q10 6 18 -2 q6 -9 -2 -15 q-12 -8 -36 -22 q16 -13 40 -23 q10 -6 6 -17 q-6 -10 -17 -6 q-38 18 -57 36 q-2 -3 -8 -4 l-83 0 q-5 0 -7 3 q-24 -21 -58 -39 ZM180 51 q6 0 6 6 l0 15 q0 6 -6 6 l-106 0 q-5 0 -5 -6 l0 -15 q0 -6 5 -6 l106 0 ZM167 27 q2 2 5 4 l-91 0 q3 -2 6 -5 q1 -1 9 -9 q9 -9 11 -11 q3 -4 2 -8 l33 0 q8 8 25 29 Z" /><glyph glyph-name="" unicode="&#x7684;" d="M32 -18 q-14 1 -16 16 l0 156 q1 15 16 16 l11 0 q2 6 5 19 q2 7 3 10 q3 14 17 12 q12 -2 11 -16 q-1 -2 -3 -8 q-3 -12 -5 -17 l28 0 q14 -1 15 -16 l0 -156 q-2 -14 -15 -16 l-67 0 ZM127 112 q-10 7 -5 18 q19 34 30 71 q5 12 17 10 q12 -5 9 -16 q-3 -12 -8 -24 l55 0 q15 -1 16 -16 q0 -8 -1 -24 q-1 -80 -3 -112 q1 -45 -43 -46 q-15 0 -31 0 q-15 1 -17 15 q1 11 12 11 q12 0 26 0 q26 -1 26 26 q3 43 3 115 q0 5 -5 5 l-49 0 q-2 -3 -5 -10 q-2 -5 -9 -18 q-6 -11 -18 -5 ZM42 140 l0 -52 l47 0 l0 52 q0 5 -6 5 l-35 0 q-6 0 -6 -5 ZM83 7 q5 1 6 6 l0 52 l-47 0 l0 -52 q1 -5 6 -6 l35 0 ZM185 48 q-11 -7 -19 3 q-10 17 -25 36 q-7 9 3 17 q10 5 18 -3 q7 -8 22 -29 q3 -4 4 -6 q7 -11 -3 -18 Z" /><glyph glyph-name="" unicode="&#x76f4;" d="M17 170 q-9 1 -10 10 q1 10 10 11 l97 0 l0 10 q1 12 13 13 q13 -1 14 -13 l0 -10 l96 0 q9 -1 10 -11 q-1 -9 -10 -10 l-96 0 l0 -19 l64 0 q16 0 16 -16 l0 -136 l20 0 q10 -1 11 -11 q-1 -9 -11 -10 l-226 0 q-10 1 -11 10 q1 10 11 11 l21 0 l0 136 q0 16 16 16 l62 0 l0 19 l-97 0 ZM62 18 l0 -19 l132 0 l0 19 l-132 0 ZM62 56 l0 -19 l132 0 l0 19 l-132 0 ZM62 124 l0 -13 l132 0 l0 13 q1 7 -6 6 l-119 0 q-8 1 -7 -6 ZM62 93 l0 -19 l132 0 l0 19 l-132 0 Z" /><glyph glyph-name="" unicode="&#x7801;" d="M21 169 q-10 1 -11 11 q1 10 11 11 l74 0 q10 -1 11 -11 q-1 -10 -11 -11 l-25 0 q-9 -34 -18 -51 l30 0 q15 -1 16 -16 l0 -98 q-2 -15 -16 -16 l-39 0 q-13 2 -15 16 l0 71 l-3 -3 q-7 -8 -15 -3 q-5 3 -5 9 q0 6 3 11 q26 37 36 80 l-23 0 ZM168 -27 q-13 1 -15 11 q-2 12 10 14 q13 0 29 0 q19 -1 20 17 q2 26 3 56 q0 7 -7 7 l-74 0 q-16 1 -15 16 l6 62 q2 11 13 11 q12 -1 12 -13 l-4 -45 q-1 -7 6 -7 l39 0 l7 66 q0 6 -6 6 l-68 0 q-11 1 -12 12 q1 11 12 12 l87 0 q15 0 14 -16 l-8 -80 l9 0 q15 0 15 -16 q-1 -15 -2 -46 q-2 -19 -2 -28 q1 -40 -41 -39 q-13 0 -28 0 ZM118 26 q-12 1 -13 12 q1 11 13 12 l73 0 q12 -1 13 -12 q-1 -11 -13 -12 l-73 0 ZM72 10 q5 0 5 5 l0 77 q0 4 -5 4 l-17 0 q-5 0 -5 -4 l0 -77 q0 -5 5 -5 l17 0 Z" /><glyph glyph-name="" unicode="&#x7acb;" d="M17 -19 q-12 1 -13 13 q1 12 13 13 l118 0 q21 45 47 113 q6 12 20 10 q13 -8 8 -21 q-28 -67 -45 -102 l74 0 q12 -1 13 -13 q-1 -12 -13 -13 l-222 0 ZM24 140 q-12 1 -13 13 q1 12 13 13 l96 0 q-1 1 -1 2 q-1 1 -1 2 q-1 3 -4 14 q-4 11 -5 13 q-2 12 12 17 q13 0 18 -13 q0 -1 2 -5 q5 -15 7 -21 q0 -7 -1 -9 l85 0 q12 -1 13 -13 q-1 -12 -13 -13 l-208 0 ZM97 20 q-13 -4 -19 8 q-17 50 -31 82 q-4 12 7 18 q12 4 18 -8 q15 -33 33 -81 q4 -13 -8 -19 Z" /><glyph glyph-name="" unicode="&#x7ae5;" d="M49 42 q-15 0 -16 16 l0 46 q1 16 16 16 l158 0 q15 0 15 -16 l0 -46 q0 -16 -15 -16 l-66 0 l0 -14 l86 0 q7 -1 8 -9 q-1 -7 -8 -8 l-86 0 l0 -15 l101 0 q9 0 9 -9 q0 -9 -9 -9 l-229 0 q-8 1 -9 9 q1 8 9 9 l102 0 l0 15 l-86 0 q-8 1 -9 8 q1 8 9 9 l86 0 l0 14 l-66 0 ZM26 172 q-8 1 -9 9 q0 8 9 8 l89 0 l-3 12 q-2 11 11 15 q13 1 18 -10 l4 -17 l85 0 q8 -1 9 -8 q-1 -8 -9 -9 l-37 0 q3 -6 0 -10 q-1 -2 -4 -5 q-3 -4 -5 -6 l58 0 q8 -1 9 -9 q-1 -8 -9 -9 l-228 0 q-8 1 -9 9 q1 8 9 9 l59 0 q-1 1 -3 3 q-2 3 -5 8 q-4 4 -1 10 l-38 0 ZM155 153 q8 10 14 19 l-82 0 q2 -2 6 -6 q4 -5 5 -7 q2 -3 2 -8 l54 0 q0 1 1 2 ZM191 57 q6 0 6 6 l0 10 l-56 0 l0 -16 l50 0 ZM59 63 q0 -6 6 -6 l50 0 l0 16 l-56 0 l0 -10 ZM191 105 l-50 0 l0 -16 l56 0 l0 10 q0 6 -6 6 ZM59 99 l0 -10 l56 0 l0 16 l-50 0 q-6 0 -6 -6 Z" /><glyph glyph-name="" unicode="&#x7b49;" d="M32 113 q-8 1 -9 10 q1 9 9 10 l81 0 l0 5 q1 13 13 14 q2 0 3 0 q-6 7 0 15 q16 18 26 40 q4 10 16 8 q11 -5 8 -15 q-3 -4 -4 -9 l64 0 q10 -1 11 -10 q-1 -10 -11 -11 l-47 0 q1 0 2 -1 q3 -2 15 -14 q7 -6 1 -14 q-8 -7 -16 0 q-4 3 -16 15 q-6 7 0 13 q0 1 2 1 l-17 0 q-3 -3 -8 -10 q-3 -5 -5 -7 q-6 -6 -14 -5 q4 -4 4 -10 l0 -5 l81 0 q9 -1 10 -10 q-1 -9 -10 -10 l-81 0 l0 -20 l100 0 q10 -1 11 -11 q-1 -10 -11 -11 l-48 0 q1 -2 1 -5 l0 -15 l40 0 q9 -1 10 -11 q-1 -9 -10 -10 l-40 0 l0 -22 q1 -37 -35 -36 q-8 -1 -32 -1 q-11 1 -15 12 q0 11 9 11 q14 0 27 0 q20 -1 19 19 l0 17 l-98 0 q3 -1 5 -3 q15 -10 24 -19 q9 -7 1 -17 q-9 -7 -18 -1 q-2 2 -11 11 q-9 8 -12 10 q-8 8 -1 15 q3 3 6 4 l-37 0 q-10 1 -11 10 q1 10 11 11 l141 0 l0 15 q0 3 1 5 l-151 0 q-10 1 -11 11 q1 10 11 11 l97 0 l0 20 l-81 0 ZM11 142 q-9 9 -1 18 q24 20 37 48 q6 10 17 7 q12 -5 8 -15 q-1 -1 -2 -4 q-2 -3 -3 -5 l55 0 q9 -1 10 -10 q-1 -10 -10 -11 l-42 0 q1 0 2 0 q1 -1 1 -1 q11 -11 13 -14 q7 -7 0 -15 q-8 -6 -16 1 q-2 2 -8 8 q-4 5 -5 6 q-6 8 1 14 q1 1 1 1 l-16 0 q-14 -18 -24 -27 q-9 -7 -18 -1 Z" /><glyph glyph-name="" unicode="&#x7c73;" d="M21 89 q-12 1 -13 13 q1 12 13 13 l93 0 l0 82 q1 12 14 14 q13 -1 14 -14 l0 -82 l93 0 q12 -1 13 -13 q-1 -12 -13 -13 l-80 0 q30 -43 82 -69 q13 -7 6 -20 q-8 -11 -21 -6 q-56 33 -80 77 l0 -90 q-1 -13 -14 -14 q-13 2 -14 14 l0 89 q-25 -43 -82 -80 q-11 -7 -21 5 q-6 12 5 20 q57 32 85 74 l-80 0 ZM172 133 q-9 9 -1 19 q20 23 29 35 q10 9 21 2 q9 -8 2 -18 q-16 -18 -32 -37 q-8 -7 -19 -1 ZM84 134 q-10 -7 -21 2 q-15 18 -30 35 q-7 9 2 18 q10 6 19 -1 q4 -4 13 -14 q13 -14 18 -20 q8 -11 -1 -20 Z" /><glyph glyph-name="" unicode="&#x7d22;" d="M26 168 q-10 1 -11 10 q1 10 11 11 l88 0 l0 10 q1 13 13 14 q13 -1 14 -14 l0 -10 l89 0 q9 -1 10 -11 q-1 -9 -10 -10 l-89 0 l0 -20 l86 0 q14 -1 15 -15 l0 -26 q-1 -12 -12 -13 q-12 1 -13 10 l0 19 q0 4 -4 4 l-71 0 q-1 -1 -2 -1 q-6 -4 -29 -15 q-12 -7 -16 -9 q-2 -1 -1 -2 q0 -1 2 -1 q6 0 19 0 q17 1 26 1 q5 3 15 8 q10 6 15 8 q13 7 19 0 q8 -9 -1 -15 q-47 -23 -96 -44 q-2 -1 1 -2 q13 1 45 2 q29 1 41 1 q-3 3 -8 7 q-5 4 -7 6 q-6 6 1 13 q9 4 17 -2 q30 -22 49 -39 q8 -7 0 -15 q-8 -6 -17 0 q-2 1 -5 4 q-5 5 -8 7 q-10 0 -29 -1 q-18 0 -27 0 l0 -35 q1 -31 -31 -31 q-3 0 -13 0 q-10 -1 -14 -1 q-12 0 -16 11 q0 11 10 13 q10 0 20 0 q18 -1 17 14 l0 28 q-33 -1 -65 -3 q-11 -1 -15 9 q-2 11 8 16 q30 11 58 24 q-6 0 -19 -1 q-12 0 -19 -1 q-12 0 -16 8 q-2 9 9 15 q27 12 44 23 l-61 0 q-5 0 -5 -4 l0 -18 q-1 -10 -12 -11 q-12 1 -13 13 l0 26 q1 14 15 15 l86 0 l0 20 l-88 0 ZM26 -24 q-11 -4 -18 5 q-6 10 5 16 q24 10 60 31 q11 4 18 -3 q6 -8 -2 -15 q-28 -16 -63 -34 ZM228 -23 q-4 2 -13 7 q-33 18 -47 24 q-8 6 -2 15 q6 7 17 4 q9 -5 31 -16 q20 -10 28 -14 q10 -7 4 -16 q-8 -9 -18 -4 Z" /><glyph glyph-name="" unicode="&#x7ebf;" d="M26 109 q-15 0 -18 10 q-4 8 7 23 q14 20 33 60 q6 12 19 8 q10 -4 6 -16 q-21 -37 -35 -58 q-1 -1 -1 -3 q1 -1 3 -1 q2 0 10 0 q9 1 13 1 q2 3 4 8 q3 5 4 7 q7 11 18 6 q6 -3 6 -10 q3 6 10 8 l28 3 q-1 7 -1 22 q-1 15 -1 22 q1 12 13 13 q12 -1 14 -13 q0 -22 1 -41 l71 9 q11 0 13 -11 q0 -10 -10 -12 l-72 -9 q0 -13 2 -25 q0 -3 0 -4 l74 10 q12 1 13 -10 q0 -10 -10 -13 l-74 -11 q5 -19 9 -36 q21 15 40 35 q9 6 17 0 q8 -8 0 -16 q-18 -19 -48 -42 q11 -25 25 -25 q9 0 12 12 q0 2 2 8 q2 10 3 13 q3 12 14 9 q12 -4 9 -17 q-2 -7 -7 -27 q-8 -25 -32 -25 q-30 0 -48 37 q-24 -15 -52 -26 q-13 -6 -20 5 q-3 13 8 18 q30 12 55 26 q-8 24 -12 48 l-34 -5 q-10 0 -13 10 q-1 11 10 14 l33 4 q0 2 0 4 q-2 12 -2 26 l-27 -3 q-10 0 -13 10 q0 1 0 2 q0 0 -1 -2 q0 -1 -1 -2 q-22 -37 -44 -66 q-1 -3 0 -4 q0 -1 3 0 q7 0 24 2 q5 1 7 1 q12 -1 13 -10 q-1 -11 -12 -12 q-25 -4 -49 -6 q-18 -2 -22 9 q-3 6 8 21 q1 1 2 2 q14 17 26 36 q-5 0 -14 -1 q-6 0 -9 0 ZM20 -12 q-13 -1 -15 11 q-1 12 11 15 q28 4 64 10 q14 1 16 -10 q1 -12 -13 -15 q-30 -5 -63 -11 ZM199 170 q-7 7 -22 17 q-7 7 -1 15 q6 7 18 2 q4 -4 16 -12 q4 -3 6 -4 q8 -8 1 -16 q-8 -8 -18 -2 Z" /><glyph glyph-name="" unicode="&#x7ef4;" d="M82 97 q-8 6 1 22 q26 38 40 82 q4 12 17 11 q11 -4 9 -16 q-1 -3 -3 -9 q-5 -13 -9 -20 l48 0 q0 0 -2 1 q-3 4 -4 6 q-6 15 -9 20 q-3 11 7 15 q12 2 18 -10 q5 -12 9 -19 q2 -8 -3 -13 l37 0 q10 -1 11 -11 q-1 -10 -11 -11 l-38 0 l0 -31 l37 0 q10 -1 11 -11 q-1 -10 -11 -11 l-37 0 l0 -31 l36 0 q10 -1 11 -11 q-1 -10 -11 -11 l-36 0 l0 -33 l41 0 q10 -1 11 -11 q-1 -10 -11 -11 l-110 0 l0 -6 q-1 -11 -13 -12 q-11 1 -12 12 l0 131 l-5 -8 q-10 -10 -19 -4 ZM27 108 q-15 0 -18 10 q-4 8 7 24 q19 28 34 60 q7 12 18 8 q10 -5 6 -16 q-19 -32 -36 -59 q-1 -1 -1 -3 q1 -1 3 -1 q2 0 9 0 q8 1 11 1 q3 5 8 14 q1 4 2 5 q7 10 18 5 q9 -6 4 -16 q-26 -44 -45 -70 q-1 -2 -1 -3 q1 -1 4 -1 q4 0 13 1 q11 1 16 2 q10 0 11 -10 q-1 -9 -11 -12 q-13 -2 -37 -4 q-5 -1 -7 -1 q-17 -2 -22 8 q-4 10 10 25 q6 7 19 27 q3 5 5 7 q-4 0 -11 -1 q-6 0 -9 0 ZM20 -13 q-13 -1 -15 11 q-1 11 11 14 q8 1 25 3 q27 4 37 6 q13 1 14 -11 q-1 -12 -12 -14 q-31 -3 -60 -9 ZM131 39 l0 -33 l44 0 l0 33 l-44 0 ZM131 145 l0 -31 l44 0 l0 31 l-44 0 ZM131 92 l0 -31 l44 0 l0 31 l-44 0 Z" /><glyph glyph-name="" unicode="&#x7fa4;" d="M14 131 q-10 1 -11 11 q1 9 11 10 l26 0 q1 11 1 25 l-21 0 q-9 1 -10 10 q1 11 10 11 l81 0 q15 0 15 -15 l0 -31 l3 0 q10 -1 11 -10 q-1 -10 -11 -11 l-3 0 l0 -32 q0 -14 -14 -14 l-47 0 q-1 -3 -3 -9 q-3 -9 -5 -13 l57 0 q15 0 15 -13 l0 -55 q0 -15 -15 -15 l-59 0 q-14 0 -14 15 l0 37 q-5 -7 -11 -15 q-7 -7 -15 2 q-4 9 1 17 q19 25 25 49 l-13 0 q-8 1 -9 10 q1 9 9 10 l18 0 q2 12 3 26 l-25 0 ZM144 140 q-11 1 -12 12 q1 10 12 11 l45 0 q18 30 23 42 q6 9 17 6 q11 -6 6 -16 q-2 -2 -5 -8 q-10 -16 -15 -24 l22 0 q10 -1 11 -11 q-1 -11 -11 -12 l-35 0 l0 -33 l32 0 q11 -1 12 -12 q-1 -10 -12 -12 l-32 0 l0 -33 l38 0 q11 -1 12 -12 q-1 -11 -12 -12 l-38 0 l0 -46 q-1 -12 -13 -13 q-12 1 -13 13 l0 46 l-38 0 q-11 1 -12 12 q1 11 12 12 l38 0 l0 33 l-30 0 q-10 1 -11 12 q1 11 11 12 l30 0 l0 33 l-32 0 ZM54 37 l0 -31 q1 -5 5 -5 l32 0 q5 0 5 6 l0 30 q0 5 -5 5 l-32 0 q-5 0 -5 -5 ZM174 170 q-11 -4 -17 5 q-3 6 -12 21 q-4 10 6 14 q10 4 16 -5 q9 -15 13 -20 q4 -8 -6 -15 ZM61 131 q0 -14 -2 -26 l31 0 q4 0 4 6 l0 20 l-33 0 ZM90 177 l-26 0 q-1 -13 -1 -25 l31 0 l0 20 q0 5 -4 5 Z" /><glyph glyph-name="" unicode="&#x8000;" d="M106 48 q-9 -6 -15 3 q-5 8 2 16 q21 20 33 44 q5 9 15 6 q9 -5 6 -13 q-1 -3 -3 -6 l30 0 q-1 5 -3 9 q-2 9 8 12 q9 1 14 -8 q1 -2 2 -6 q1 -5 1 -7 l45 0 q8 -1 9 -9 q-1 -8 -9 -9 l-44 0 l0 -17 l38 0 q7 -1 8 -8 q-1 -7 -8 -8 l-38 0 l0 -17 l38 0 q7 -1 8 -8 q-1 -7 -8 -8 l-38 0 l0 -17 l45 0 q8 -1 9 -9 q-1 -8 -9 -9 l-107 0 l0 -1 q-1 -10 -11 -11 q-11 1 -12 11 l0 77 q-1 -1 -3 -3 q-2 -3 -3 -4 ZM16 87 q-10 1 -11 11 q1 10 11 11 l25 0 l0 91 q1 11 11 12 q11 -1 12 -12 l0 -91 l24 0 q10 -1 11 -11 q-1 -10 -11 -11 l-9 0 l0 -70 q1 -3 3 -2 l9 7 q10 4 13 -5 q4 -10 -7 -17 q-3 -3 -11 -8 q-6 -4 -8 -6 q-8 -6 -14 -1 q-5 3 -5 13 l0 89 l-14 0 l0 -7 q0 -69 -22 -105 q-7 -8 -15 -2 q-7 6 -2 17 q20 29 18 90 l0 7 l-8 0 ZM108 117 q-8 -2 -11 7 q-2 8 6 11 q3 1 9 3 q20 6 28 8 q3 0 6 0 l0 29 q0 6 -6 6 l-31 0 q-9 1 -10 9 q1 10 10 10 l42 0 q16 0 16 -16 l0 -59 q-1 -10 -11 -11 q-9 1 -10 11 l0 4 q-1 0 -2 -1 q-23 -6 -36 -11 ZM184 121 q-8 -2 -12 6 q-1 8 7 12 q4 1 13 4 q15 4 23 6 q1 1 4 1 l0 25 q0 6 -7 6 l-29 0 q-9 1 -10 9 q1 10 10 10 l40 0 q16 0 16 -16 l0 -64 q-1 -9 -10 -10 q-9 1 -10 10 l0 12 l-1 0 q-21 -6 -34 -11 ZM30 125 q-7 -2 -10 6 q-1 2 -2 8 q-7 24 -10 35 q-1 8 6 10 q8 1 10 -6 q8 -24 12 -43 q1 -8 -6 -10 ZM73 125 q-7 4 -5 11 q7 21 14 42 q3 7 10 6 q8 -3 6 -11 q-2 -5 -6 -17 q-6 -18 -9 -26 q-2 -6 -10 -5 ZM135 14 l0 -17 l39 0 l0 17 l-39 0 ZM135 80 l0 -17 l39 0 l0 17 l-39 0 ZM135 47 l0 -17 l39 0 l0 17 l-39 0 ZM122 150 q-8 6 -16 12 q-4 5 0 11 q7 5 13 0 q12 -9 16 -11 q5 -6 0 -12 q-7 -6 -13 0 ZM194 151 q-3 1 -11 8 q-4 3 -5 4 q-4 5 0 11 q5 5 12 0 q3 -1 11 -8 q4 -3 5 -4 q5 -6 0 -11 q-6 -6 -12 0 Z" /><glyph glyph-name="" unicode="&#x804a;" d="M16 176 q-10 1 -11 11 q1 10 11 11 l71 0 q10 -1 11 -11 q-1 -10 -11 -11 l-2 0 l0 -139 q3 1 5 1 q11 0 12 -10 q-2 -11 -12 -13 q-2 0 -5 -1 l0 -37 q-1 -10 -11 -11 q-8 1 -9 11 l0 33 q-4 -1 -12 -2 q-24 -5 -35 -7 q-11 -1 -14 10 q-1 11 11 14 q1 0 2 1 q2 0 2 0 l0 150 l-3 0 ZM189 -32 q-10 1 -11 10 l0 204 q1 15 16 15 l30 0 q15 0 15 -15 l0 -138 q1 -26 -21 -26 q-5 0 -10 0 q-6 0 -9 3 l0 -43 q-1 -9 -10 -10 ZM119 -29 q-8 -6 -16 1 q-6 8 0 16 q30 22 37 59 q-3 -2 -10 -5 q-4 -3 -6 -4 q-9 -4 -15 -1 q-5 4 -5 13 l0 131 q-1 15 15 17 q6 1 24 5 q9 2 13 3 q10 3 15 -7 q2 -11 -7 -14 q-4 -1 -17 -4 q-13 -3 -18 -4 q-5 0 -5 -6 l0 -104 q1 -4 4 -3 q6 3 14 8 q1 4 1 7 q0 37 0 72 q1 9 10 10 q9 -1 10 -10 q0 -34 0 -72 q0 -72 -44 -108 ZM199 170 l0 -131 q1 1 4 1 l8 0 q9 0 9 9 l0 121 q0 5 -4 5 l-13 0 q-4 0 -4 -5 ZM39 29 q5 1 13 2 q9 2 13 2 l0 34 l-26 0 l0 -38 ZM39 121 l0 -34 l26 0 l0 34 l-26 0 ZM39 176 l0 -35 l26 0 l0 35 l-26 0 Z" /><glyph glyph-name="" unicode="&#x80fd;" d="M30 -32 q-10 1 -11 12 l0 119 q1 16 16 16 l71 0 q16 0 16 -16 l0 -98 q1 -28 -25 -28 q-2 0 -8 0 q-9 -1 -12 -1 q-11 0 -13 10 q0 10 8 12 l15 0 q12 0 12 10 l0 15 l-57 0 l0 -39 q-1 -11 -12 -12 ZM176 -26 q-33 -1 -32 33 l0 71 q1 12 13 13 q11 -1 12 -13 l0 -24 q39 16 54 26 q12 5 18 -4 q5 -10 -4 -16 q-28 -15 -68 -30 l0 -18 q-1 -16 16 -15 l20 0 q15 0 16 12 q2 8 2 18 q3 10 15 8 q9 -3 9 -15 q-3 -18 -4 -22 q-4 -24 -34 -24 l-33 0 ZM176 99 q-33 -1 -32 32 l0 68 q1 11 12 13 q12 -1 13 -13 l0 -27 q26 10 52 24 q11 4 18 -3 q5 -9 -3 -16 q-13 -6 -47 -21 q-14 -5 -20 -8 l0 -13 q-1 -15 15 -14 l20 0 q15 0 16 12 q1 3 2 12 q1 4 1 6 q3 9 15 7 q9 -4 8 -15 q-1 -6 -4 -21 q-4 -23 -33 -23 l-33 0 ZM30 132 q-15 -1 -19 9 q-4 9 5 20 q19 18 38 45 q8 10 18 5 q11 -5 6 -15 q-8 -10 -27 -31 q-4 -4 -6 -6 q-3 -4 2 -5 q15 0 49 2 q-7 9 -13 16 q-4 8 3 14 q9 4 16 -2 q6 -7 21 -26 q8 -10 12 -14 q7 -8 -2 -17 q-11 -5 -17 4 q-3 2 -4 5 q-16 -1 -47 -2 q-24 -2 -35 -2 ZM42 89 l0 -13 l57 0 l0 13 q1 7 -7 6 l-43 0 q-7 0 -7 -6 ZM42 57 l0 -19 l57 0 l0 19 l-57 0 Z" /><glyph glyph-name="" unicode="&#x884c;" d="M110 93 q-12 1 -13 13 q1 13 13 14 l128 0 q12 -1 13 -14 q-1 -12 -13 -13 l-30 0 l0 -81 q2 -38 -37 -39 q-19 0 -33 0 q-13 1 -15 14 q1 11 12 12 q4 0 13 -1 q8 0 12 0 q22 0 20 19 l0 76 l-70 0 ZM27 48 q-10 -7 -19 2 q-7 10 3 21 q32 29 55 64 q9 10 20 3 q9 -7 3 -18 q-3 -4 -10 -13 q-6 -9 -10 -14 l0 -113 q-1 -13 -13 -14 q-13 1 -14 14 l0 83 q-7 -7 -15 -15 ZM121 168 q-12 1 -13 13 q1 12 13 13 l107 0 q11 -1 12 -13 q-1 -12 -12 -13 l-107 0 ZM32 133 q-11 -7 -19 3 q-7 10 4 20 q22 17 47 47 q8 8 19 2 q10 -8 3 -18 q-25 -29 -54 -54 Z" /><glyph glyph-name="" unicode="&#x8868;" d="M26 164 q-9 1 -10 10 q1 10 10 11 l88 0 l0 15 q1 12 13 13 q13 -1 14 -13 l0 -15 l87 0 q10 -1 11 -11 q-1 -9 -11 -10 l-87 0 l0 -21 l77 0 q9 -1 10 -11 q-1 -9 -10 -10 l-77 0 l0 -21 l95 0 q10 -1 11 -11 q-1 -10 -11 -11 l-94 0 q9 -20 23 -34 q7 4 27 16 q11 7 15 9 q10 7 19 -1 q6 -10 -3 -17 q-5 -3 -23 -13 q-12 -7 -17 -10 q24 -15 59 -24 q11 -6 6 -19 q-7 -11 -21 -6 q-79 25 -105 87 q-12 -13 -28 -25 l0 -37 q1 -7 7 -5 q3 1 10 3 q24 8 32 11 q11 2 14 -10 q1 -12 -12 -15 q-8 -2 -27 -8 q-21 -6 -26 -8 q-10 -3 -16 1 q-6 3 -6 14 l0 38 q-21 -11 -46 -23 q-11 -4 -18 7 q-3 13 7 18 q56 20 89 51 l-82 0 q-10 1 -11 11 q1 10 11 11 l94 0 l0 21 l-77 0 q-10 1 -11 10 q1 10 11 11 l77 0 l0 21 l-88 0 Z" /><glyph glyph-name="" unicode="&#x88c5;" d="M17 65 q-10 1 -11 11 q1 10 11 11 l101 0 q-3 3 -4 8 q-4 11 10 14 q9 2 14 -7 q4 -7 7 -15 l95 0 q10 -1 11 -11 q-1 -10 -11 -11 l-97 0 q11 -17 23 -29 q29 14 41 20 q12 5 18 -4 q6 -10 -4 -16 q-3 -1 -12 -5 q-15 -7 -22 -10 q21 -12 53 -19 q11 -5 7 -18 q-6 -12 -20 -7 q-75 20 -105 79 q-14 -13 -29 -24 l0 -28 q0 -7 7 -5 q10 4 34 10 q2 1 3 1 q11 1 12 -10 q0 -11 -12 -14 q-7 -2 -22 -6 q-18 -5 -26 -8 q-10 -2 -15 2 q-5 3 -5 14 l0 29 q-4 -2 -11 -5 q-19 -10 -31 -14 q-11 -4 -19 6 q-4 12 7 17 q52 18 83 44 l-81 0 ZM116 161 q-10 1 -11 11 q1 10 11 11 l48 0 l0 18 q1 12 13 13 q11 -1 12 -13 l0 -18 l50 0 q10 -2 11 -11 q-1 -9 -11 -11 l-50 0 l0 -27 l43 0 q9 -1 10 -11 q-1 -9 -10 -10 l-109 0 q-10 1 -11 10 q1 10 11 11 l41 0 l0 27 l-48 0 ZM26 109 q-11 -4 -17 6 q-4 12 8 18 q6 3 22 10 q24 11 33 16 l0 42 q1 11 13 12 q11 -1 12 -12 l0 -92 q-1 -11 -12 -12 q-12 1 -13 12 l0 23 q-23 -11 -46 -23 ZM57 162 q-10 -6 -19 2 q-3 3 -12 13 q-4 3 -6 5 q-6 8 1 15 q9 6 18 0 q2 -3 12 -11 q5 -5 7 -7 q6 -8 -1 -17 Z" /><glyph glyph-name="" unicode="&#x89c6;" d="M99 -28 q-12 -7 -20 1 q-6 12 4 20 q73 39 72 113 q0 5 0 19 q1 15 1 22 q1 11 12 13 q12 -1 13 -13 q0 -18 -2 -40 q0 -22 -5 -40 q1 0 3 1 q1 0 2 0 q11 -1 12 -12 l0 -45 q-1 -14 11 -13 l8 0 q13 0 14 13 q2 8 2 19 q2 12 14 10 q10 -2 9 -15 q0 -15 -3 -24 q-4 -27 -34 -26 l-16 0 q-29 -1 -29 32 l0 36 q-15 -37 -68 -71 ZM117 48 q-10 2 -12 12 l0 124 q0 16 17 16 l95 0 q16 0 16 -16 l0 -121 q-1 -11 -12 -12 q-11 1 -13 12 l0 106 q0 6 -6 6 l-66 0 q-6 0 -6 -6 l0 -109 q-2 -11 -13 -12 ZM24 51 q-11 -7 -18 3 q-6 11 4 20 q30 23 48 57 q1 5 -2 5 l-37 0 q-11 1 -12 12 q1 10 12 11 l56 0 q11 -1 12 -11 q0 -12 -5 -23 q-9 -16 -18 -29 l0 -10 q2 2 3 5 q9 5 15 -1 q7 -6 17 -18 q6 -9 0 -16 q-10 -6 -16 1 q-8 10 -17 19 q0 1 -1 2 q0 2 -1 2 l0 -101 q-1 -11 -12 -12 q-10 1 -12 12 l0 88 q-7 -9 -16 -16 ZM63 167 q-11 -5 -17 4 q-3 6 -12 21 q-6 10 4 16 q10 6 16 -3 q6 -8 13 -21 q6 -10 -4 -17 Z" /><glyph glyph-name="" unicode="&#x8baf;" d="M222 -29 q-24 -1 -29 39 q-9 26 -9 106 l0 48 q1 8 -8 8 l-38 0 l0 -68 l26 0 q12 -1 13 -13 q-1 -12 -13 -13 l-26 0 l0 -99 q-2 -13 -14 -14 q-11 1 -13 14 l0 99 l-30 0 q-11 1 -12 13 q1 12 12 13 l30 0 l0 68 l-26 0 q-12 1 -13 13 q1 12 13 13 l109 0 q16 -1 17 -18 l0 -61 q0 -89 9 -110 q2 -6 5 -6 q4 1 5 7 q1 8 3 34 q2 8 10 7 q9 -2 7 -11 q-1 -21 -6 -45 q-6 -24 -22 -24 ZM57 -15 q-10 -8 -18 -5 q-8 5 -8 17 l0 101 q0 4 -5 4 l-11 0 q-10 1 -11 13 q1 11 12 12 l24 0 q15 -1 16 -16 l0 -88 q1 -3 4 -2 q3 2 8 7 q6 5 8 7 q7 6 15 -2 q5 -9 -3 -18 q-16 -18 -31 -30 ZM58 155 q-11 -7 -20 4 q-1 2 -4 5 q-11 15 -16 21 q-7 11 3 18 q9 5 19 -3 q1 -1 2 -2 q14 -17 19 -24 q7 -11 -3 -19 Z" /><glyph glyph-name="" unicode="&#x8bdd;" d="M100 172 q-13 -1 -14 11 q-1 11 12 12 q69 2 128 6 q12 -1 14 -10 q0 -12 -11 -13 q-24 -1 -52 -3 l0 -36 l62 0 q11 -1 12 -12 q-1 -11 -12 -12 l-62 0 l0 -36 l39 0 q15 -1 16 -16 l0 -67 q-1 -15 -16 -16 l-104 0 q-15 1 -16 16 l0 67 q1 15 16 16 l39 0 l0 36 l-64 0 q-11 1 -12 12 q2 11 12 12 l64 0 l0 34 q-9 0 -26 -1 q-17 0 -25 0 ZM59 -12 q-10 -9 -19 -5 q-9 4 -9 17 l0 98 q0 4 -4 4 l-12 0 q-10 1 -11 13 q1 11 12 12 l26 0 q14 -2 16 -15 l0 -88 q0 -2 1 -2 q1 0 2 1 q3 1 9 6 q2 1 3 2 q8 6 16 -3 q5 -8 -4 -17 q-13 -13 -26 -23 ZM205 9 l0 41 q0 6 -5 6 l-72 0 q-5 -1 -6 -6 l0 -41 q1 -5 6 -6 l72 0 q5 0 5 6 ZM63 155 q-11 -6 -20 4 q-15 20 -21 27 q-6 10 3 17 q12 6 20 -3 q15 -17 21 -26 q7 -10 -3 -19 Z" /><glyph glyph-name="" unicode="&#x8bed;" d="M89 178 q-10 1 -11 11 q1 10 11 11 l141 0 q10 -1 11 -11 q-1 -10 -11 -11 l-78 0 l-5 -25 l61 0 q16 -2 17 -16 l0 -35 l14 0 q10 -1 11 -11 q-1 -10 -11 -11 l-157 0 q-10 1 -11 11 q1 10 11 11 l29 0 l6 30 l-23 0 q-9 1 -10 11 q1 9 10 10 l27 0 l4 25 l-36 0 ZM109 -23 q-16 2 -17 16 l0 50 q1 14 17 16 l106 0 q15 -2 16 -16 l0 -50 q-1 -14 -16 -16 l-106 0 ZM57 -14 q-23 -15 -27 12 l0 101 q0 4 -4 4 l-11 0 q-10 1 -11 13 q1 11 13 12 l23 0 q15 -1 16 -16 l0 -89 q1 -3 3 -1 q2 2 6 4 q4 3 6 4 q8 6 15 -3 q5 -9 -3 -18 q-3 -2 -9 -8 q-11 -10 -17 -15 ZM119 32 l0 -27 q0 -6 6 -6 l73 0 q6 0 6 5 l0 28 q0 5 -6 5 l-73 0 q-6 0 -6 -5 ZM192 132 l-49 0 l-6 -30 l61 0 l0 24 q0 6 -6 6 ZM63 156 q-10 -7 -19 3 q-1 1 -3 4 q-14 16 -20 22 q-7 9 2 17 q10 7 19 -2 q11 -11 23 -25 q7 -10 -2 -19 Z" /><glyph glyph-name="" unicode="&#x8bf7;" d="M101 -32 q-11 1 -12 13 l0 96 q0 18 17 18 l109 0 q17 0 17 -18 l0 -72 q2 -34 -32 -33 q-3 0 -12 0 q-12 -1 -17 -1 q-12 1 -13 11 q1 10 11 10 q10 0 21 0 q18 -1 17 15 l0 5 l-93 0 l0 -31 q0 -13 -13 -13 ZM86 174 q-8 1 -9 9 q1 7 9 8 l61 0 l0 8 q1 12 13 13 q12 -1 13 -13 l0 -8 l64 0 q8 -1 9 -8 q-1 -8 -9 -9 l-64 0 l0 -15 l58 0 q7 -1 8 -9 q-1 -7 -8 -8 l-58 0 l0 -15 l68 0 q8 -1 9 -9 q-1 -8 -9 -9 l-161 0 q-8 1 -9 9 q1 8 9 9 l67 0 l0 15 l-57 0 q-7 1 -8 8 q1 8 8 9 l57 0 l0 15 l-61 0 ZM57 -15 q-9 -9 -18 -5 q-9 4 -9 17 l0 102 q0 5 -4 5 l-12 0 q-9 1 -10 13 q0 12 11 12 l25 0 q14 -1 16 -17 l0 -89 q1 -3 3 -2 q6 6 12 10 q8 6 15 -3 q5 -7 -4 -18 q-2 -2 -6 -6 q-12 -12 -19 -19 ZM114 45 l0 -17 l93 0 l0 17 l-93 0 ZM114 71 l0 -10 l93 0 l0 10 q0 6 -7 6 l-79 0 q-7 0 -7 -6 ZM61 155 q-11 -5 -19 4 q-7 10 -19 25 q-6 10 3 16 q9 5 18 -3 q1 -2 4 -5 q12 -13 16 -19 q6 -11 -3 -18 Z" /><glyph glyph-name="" unicode="&#x8bfb;" d="M86 31 q-9 1 -10 11 q1 10 10 11 l75 0 q3 18 4 50 q1 12 13 13 q12 -1 13 -14 q-2 -34 -4 -49 l50 0 q10 -1 11 -11 q-1 -10 -11 -11 l-55 0 q0 -3 -2 -5 q5 -3 16 -8 q30 -14 41 -21 q10 -6 6 -17 q-7 -11 -19 -5 q-13 8 -49 27 q-5 3 -8 4 q-20 -22 -75 -37 q-13 -4 -18 8 q-2 12 9 16 q62 16 72 38 l-69 0 ZM94 165 q-10 1 -11 11 q1 9 11 10 l55 0 l0 13 q1 12 13 13 q12 -1 13 -13 l0 -13 l55 0 q10 -1 11 -10 q-1 -10 -11 -11 l-55 0 l0 -21 l58 0 q10 -1 11 -11 q0 -10 -2 -21 l-3 -15 q-4 -10 -14 -9 q-10 3 -9 13 l4 17 q2 4 -3 4 l-134 0 q-9 1 -10 11 q1 10 10 11 l66 0 l0 21 l-55 0 ZM57 -11 q-24 -15 -27 13 l0 96 q0 4 -4 4 l-11 0 q-10 1 -11 13 q1 11 12 13 l24 0 q14 -1 15 -16 l0 -89 q1 -3 4 -1 q2 2 8 5 q1 2 2 2 q7 4 12 -2 q8 -9 0 -18 q-8 -8 -24 -20 ZM61 155 q-11 -7 -19 4 q-3 3 -8 10 q-9 10 -13 15 q-6 10 4 17 q10 6 18 -3 q11 -11 21 -25 q7 -10 -3 -18 ZM124 58 q-6 3 -22 10 q-10 4 -14 6 q-7 3 -4 11 q3 6 11 3 q15 -6 37 -14 q8 -5 4 -12 q-3 -7 -12 -4 ZM140 87 q-8 4 -29 12 q-5 2 -7 3 q-6 4 -4 10 q3 7 11 4 q11 -3 36 -13 q8 -4 5 -12 q-4 -7 -12 -4 Z" /><glyph glyph-name="" unicode="&#x8d85;" d="M24 156 q-10 1 -11 11 q1 10 11 11 l29 0 l0 23 q2 11 12 12 q11 -1 12 -12 l0 -23 l24 0 q10 -1 11 -11 q-1 -10 -11 -11 l-24 0 l0 -32 l28 0 q10 -1 11 -11 q0 -11 -11 -11 l-20 0 l0 -36 l20 0 q10 -1 11 -11 q-1 -10 -11 -11 l-20 0 l0 -40 q17 -5 41 -5 q56 -2 113 0 q11 -2 11 -14 q-1 -10 -16 -10 q-78 0 -110 1 q-66 -1 -86 38 q-4 -20 -12 -39 q-7 -8 -17 -4 q-7 7 -3 18 q16 33 16 90 q-1 10 11 11 q10 -1 11 -11 q0 -19 -2 -34 q9 -18 20 -28 l0 85 l-47 0 q-10 1 -11 11 q1 10 11 11 l38 0 l0 32 l-29 0 ZM143 17 q-15 1 -16 17 l0 49 q1 16 16 17 l74 0 q16 -1 17 -17 l0 -49 q-1 -16 -17 -17 l-74 0 ZM137 113 q-10 -6 -17 2 q-6 8 2 15 q29 15 29 48 l-24 0 q-10 1 -11 11 q1 9 11 10 l93 0 q17 0 17 -16 q0 -11 -2 -35 q-1 -34 -31 -32 q-6 -1 -22 -1 q-11 1 -13 10 q-2 10 8 12 l19 0 q15 -1 16 15 q0 5 1 13 q0 4 0 6 q0 7 -7 7 l-32 0 q0 -44 -37 -65 ZM204 39 q6 0 6 7 l0 26 q0 6 -6 6 l-47 0 q-6 0 -6 -6 l0 -26 q0 -7 6 -7 l47 0 Z" /><glyph glyph-name="" unicode="&#x8f7b;" d="M18 156 q-10 1 -11 11 q1 10 11 11 l18 0 q3 12 6 22 q4 12 17 11 q10 -2 9 -15 q-3 -9 -6 -18 l34 0 q10 -1 11 -11 q-1 -10 -11 -11 l-41 0 q-3 -10 -10 -28 q-6 -17 -8 -25 q-2 -6 4 -6 l18 0 l0 35 q1 9 10 10 q9 -1 10 -10 l0 -35 l13 0 q10 -1 11 -11 q-1 -11 -11 -12 l-13 0 l0 -29 q3 1 8 1 q6 1 8 1 q14 1 15 -10 q1 -12 -12 -13 q-9 -2 -19 -2 l0 -41 q-1 -11 -12 -13 q-12 1 -13 13 l0 38 q-11 -2 -32 -4 q-2 0 -3 0 q-12 0 -13 11 q-1 11 11 14 q17 0 37 3 l0 31 l-31 0 q-10 1 -13 13 q0 9 3 20 q9 23 16 49 l-11 0 ZM124 54 q-11 1 -12 12 q1 11 12 12 l103 0 q11 -1 12 -12 q-1 -11 -12 -12 l-38 0 l0 -51 l49 0 q11 -1 12 -12 q-1 -11 -12 -12 l-127 0 q-11 1 -12 12 q1 11 12 12 l51 0 l0 51 l-38 0 ZM125 88 q-12 -4 -19 7 q-3 11 8 16 q54 20 80 56 q2 2 1 4 q-1 1 -4 1 l-65 0 q-11 1 -12 12 q1 11 12 12 l87 0 q14 -1 15 -13 q0 -12 -8 -22 q-9 -15 -20 -25 q9 -5 27 -16 q10 -5 14 -8 q10 -7 6 -18 q-8 -9 -19 -3 q-21 14 -46 29 q-21 -17 -57 -32 Z" /><glyph glyph-name="" unicode="&#x8f7d;" d="M24 167 q-9 1 -10 10 q1 10 10 10 l40 0 l0 11 q1 12 13 13 q12 -1 13 -13 l0 -11 l36 0 q9 -1 10 -10 q-1 -9 -10 -10 l-36 0 l0 -19 l60 0 q-1 16 -1 51 q1 12 13 13 q12 -1 13 -13 q0 -33 1 -51 l63 0 q10 -1 11 -11 q-1 -10 -11 -11 l-62 0 q3 -45 7 -67 q14 18 24 44 q6 10 17 6 q10 -6 6 -17 q-17 -37 -38 -62 q0 -1 1 -2 q1 -1 1 -2 q11 -28 20 -27 q5 0 7 9 q3 11 5 24 q3 11 12 10 q11 -2 10 -16 q-2 -11 -7 -33 q-1 -2 -1 -3 q-5 -19 -25 -20 q-25 -1 -42 37 q-12 -13 -28 -26 q-11 -8 -20 0 q-6 11 4 20 q1 0 1 1 q1 0 1 0 l-1 0 q-8 0 -30 -2 q16 2 -4 0 l0 -19 q0 -13 -13 -13 q-11 1 -12 13 l0 18 q-10 -1 -31 -2 q-14 -2 -20 -2 q-12 0 -13 11 q1 11 12 11 q14 1 52 3 l0 20 l-44 0 q-9 1 -10 9 q-1 8 5 16 q6 8 14 19 l-17 0 q-9 1 -10 10 q1 9 10 10 l28 0 q1 1 2 4 q1 2 3 6 q7 12 19 10 q10 -5 6 -15 q0 -1 -1 -2 q0 -2 -1 -3 l56 0 q10 0 10 -10 q-1 -9 -10 -10 l-69 0 q-3 -7 -11 -18 q-1 -2 -2 -3 q-3 -4 3 -5 l23 0 l0 10 q1 10 11 11 q9 -1 10 -11 l0 -10 l33 0 q8 -1 9 -9 q-1 -8 -9 -9 l-33 0 l0 -19 q1 0 3 0 q15 2 31 2 q10 0 11 -10 q0 -1 0 -3 q3 3 8 8 q4 4 15 15 q-11 33 -14 93 l-134 0 q-10 1 -11 11 q1 10 11 11 l47 0 l0 19 l-40 0 ZM211 163 q-6 7 -20 19 q-6 7 2 15 q8 6 16 -1 q12 -9 20 -18 q8 -8 0 -16 q-9 -7 -18 1 Z" /><glyph glyph-name="" unicode="&#x8fc7;" d="M9 -25 q-7 7 0 18 q18 26 28 37 l0 67 q0 4 -5 4 l-15 0 q-9 1 -10 13 q1 12 12 13 l28 0 q14 -1 16 -17 l0 -80 q21 -27 58 -28 q45 -1 111 0 q17 0 16 -13 q0 -13 -17 -13 q-19 0 -61 1 q-39 0 -55 0 q-38 1 -60 25 q-5 5 -8 0 q-6 -8 -16 -22 q-9 -14 -22 -5 ZM95 143 q-10 2 -12 12 q1 11 12 12 l87 0 l0 31 q1 13 14 14 q13 -1 14 -14 l0 -31 l26 0 q10 -1 11 -12 q-1 -11 -11 -12 l-26 0 l0 -86 q1 -39 -37 -39 q-8 -1 -29 -1 q-13 1 -16 13 q0 12 12 13 q11 0 23 0 q21 -2 19 18 l0 82 l-87 0 ZM144 73 q-11 -6 -19 3 q-4 4 -12 15 q-11 13 -15 18 q-6 9 2 17 q11 6 19 -3 q2 -2 7 -8 q15 -16 20 -23 q7 -9 -2 -19 ZM66 153 q-13 -4 -20 5 q-2 4 -9 15 q-7 11 -10 15 q-6 10 4 17 q10 4 19 -5 q4 -4 12 -17 q6 -8 8 -11 q6 -11 -4 -19 Z" /><glyph glyph-name="" unicode="&#x8fdb;" d="M95 145 q-11 1 -12 12 q1 10 12 11 l18 0 l0 30 q1 12 13 13 q12 -1 13 -13 l0 -30 l43 0 l0 30 q1 12 13 13 q12 -1 13 -13 l0 -30 l21 0 q11 -1 12 -11 q-1 -11 -12 -12 l-21 0 l0 -46 l30 0 q10 -1 11 -12 q-1 -10 -11 -11 l-30 0 l0 -55 q-1 -12 -13 -13 q-12 1 -13 13 l0 55 l-44 0 q-3 -37 -24 -59 q-9 -11 -21 -4 q-9 8 -3 19 q19 18 21 44 l-27 0 q-10 1 -11 11 q1 11 11 12 l29 0 l0 4 l0 42 l-18 0 ZM9 -25 q-7 8 0 19 q13 20 25 33 l0 68 q0 5 -5 5 l-12 0 q-9 1 -10 13 q1 12 12 13 l27 0 q14 0 14 -15 l0 -82 q15 -26 51 -27 q30 -1 121 1 q16 -1 17 -14 q-1 -13 -18 -13 q-25 0 -76 1 q-37 0 -50 0 q-37 1 -52 23 q-4 6 -8 1 q-1 -2 -5 -6 q-5 -8 -9 -14 q-10 -14 -22 -6 ZM139 104 l0 -5 l43 0 l0 46 l-43 0 l0 -41 ZM62 152 q-10 -5 -18 5 q-2 3 -6 10 q-10 15 -14 20 q-6 11 4 17 q10 6 18 -4 q9 -12 21 -30 q6 -11 -5 -18 Z" /><glyph glyph-name="" unicode="&#x8fde;" d="M88 157 q-10 1 -11 12 q1 11 11 12 l32 0 q1 3 3 8 q1 2 5 11 q7 16 20 12 q11 -5 7 -18 q-3 -7 -6 -13 l83 0 q11 -1 12 -12 q-1 -11 -12 -12 l-95 0 q-4 -9 -13 -26 q-4 -8 -6 -12 q-2 -3 -1 -4 q1 -2 5 -2 l32 0 l0 22 q1 13 13 14 q12 -1 13 -14 l0 -22 l46 0 q10 -1 11 -12 q-1 -10 -11 -11 l-46 0 l0 -29 l55 0 q11 -1 12 -12 q-1 -11 -12 -12 l-55 0 l0 -14 q-1 -13 -13 -14 q-12 1 -13 14 l0 14 l-69 0 q-11 1 -12 12 q1 11 12 12 l69 0 l0 29 l-53 0 q-15 1 -16 10 q-1 12 5 22 q3 6 11 21 q5 9 8 14 l-21 0 ZM231 -25 q-86 0 -121 1 q-36 -1 -56 22 q-5 6 -9 0 q-8 -7 -15 -17 q-9 -14 -21 -5 q-7 8 0 19 q14 19 25 31 l0 69 q0 5 -5 5 l-12 0 q-9 1 -10 13 q1 11 13 12 l24 0 q15 -1 16 -16 l0 -80 q19 -28 55 -28 q47 -2 117 0 q16 0 16 -13 q0 -13 -17 -13 ZM61 152 q-11 -6 -19 5 q-1 2 -3 5 q-12 19 -17 26 q-5 10 4 16 q11 6 19 -4 q3 -4 11 -15 q7 -11 10 -15 q6 -12 -5 -18 Z" /><glyph glyph-name="" unicode="&#x9009;" d="M88 125 q-9 4 -7 16 q13 23 21 52 q4 11 15 9 q11 -3 9 -14 q-1 -4 -3 -12 q-1 -2 -2 -4 l29 0 l0 28 q1 12 13 13 q12 -1 13 -13 l0 -28 l50 0 q11 -1 12 -11 q-1 -11 -12 -12 l-50 0 l0 -35 l60 0 q11 -1 12 -11 q-1 -11 -12 -12 l-43 0 l0 -41 q-1 -13 10 -12 l6 0 q10 -1 12 11 q0 2 0 7 q1 6 1 9 q3 10 12 8 q11 -3 10 -13 q0 -5 -3 -20 q-3 -25 -29 -24 l-17 0 q-29 -1 -28 31 l0 44 l-27 0 q-1 -52 -37 -74 q-9 -7 -20 1 q-7 9 1 18 q30 16 30 55 l-30 0 q-11 1 -12 12 q1 10 12 11 l66 0 l0 35 l-38 0 q-2 -5 -5 -14 q-2 -3 -2 -4 q-6 -10 -17 -6 ZM234 -25 q-95 0 -125 1 q-36 1 -54 24 q-5 6 -9 -1 q-5 -4 -15 -17 q-2 -3 -3 -4 q-10 -8 -20 0 q-7 9 2 21 q12 14 25 27 l0 68 q1 6 -5 6 l-14 0 q-9 1 -10 13 q0 13 12 13 l28 0 q15 0 15 -15 l0 -83 q17 -27 55 -27 q53 -2 121 0 q13 -1 12 -13 q0 -12 -15 -13 ZM63 154 q-10 -5 -19 5 q-2 3 -8 11 q-10 13 -14 17 q-6 11 4 17 q10 6 19 -4 q4 -4 14 -16 q6 -8 8 -11 q7 -11 -4 -19 Z" /><glyph glyph-name="" unicode="&#x901a;" d="M95 9 q-11 2 -12 13 l0 108 q1 16 16 16 l39 0 q-22 11 -30 16 q-7 6 -2 13 q8 6 17 2 q4 -2 13 -7 q14 -9 21 -13 l32 17 q3 4 -2 5 l-100 0 q-9 1 -10 10 q1 10 10 10 l135 0 q10 -1 11 -11 q0 -11 -10 -16 l-46 -26 l43 0 q16 0 16 -16 l0 -90 q2 -28 -27 -28 q-5 -1 -18 -1 q-10 1 -12 10 q-1 8 7 9 q6 0 12 0 q14 -1 13 15 l0 4 l-40 0 l0 -24 q-1 -11 -12 -12 q-11 1 -12 12 l0 24 l-39 0 l0 -27 q-1 -12 -13 -13 ZM234 -25 q-61 0 -125 2 q-39 1 -55 23 q-5 6 -9 1 q-3 -5 -13 -15 q-4 -5 -5 -7 q-9 -9 -19 0 q-6 9 2 20 q14 16 24 26 l0 69 q0 6 -6 6 l-12 0 q-10 1 -11 13 q1 12 12 13 l27 0 q15 0 15 -16 l0 -82 q17 -28 56 -28 q54 -2 122 0 q13 -1 13 -13 q-1 -12 -16 -12 ZM63 152 q-11 -6 -19 5 q-11 15 -23 29 q-5 11 4 16 q11 6 18 -3 q18 -21 24 -29 q6 -11 -4 -18 ZM171 88 l0 -21 l40 0 l0 21 l-40 0 ZM108 88 l0 -21 l39 0 l0 21 l-39 0 ZM203 127 l-32 0 l0 -21 l40 0 l0 13 q1 8 -8 8 ZM108 119 l0 -13 l39 0 l0 21 l-32 0 q-7 0 -7 -8 Z" /><glyph glyph-name="" unicode="&#x90ce;" d="M130 -13 q-11 -6 -17 4 q-1 1 -3 4 q-1 2 -7 9 q0 0 -2 -1 q-27 -10 -46 -16 q-18 -7 -28 3 q-7 8 -7 24 l0 151 q0 25 24 25 l16 0 q-2 5 -2 7 q-2 11 10 16 q13 1 17 -11 q0 -1 1 -4 q2 -6 3 -8 l14 0 q24 0 24 -25 l0 -83 q0 -15 -16 -16 l-67 0 l0 -44 q1 -11 10 -8 q7 2 30 10 q-2 -1 5 2 q-3 3 -8 10 q-3 5 -5 7 q-5 10 4 16 q10 4 17 -5 q8 -11 31 -42 q4 -5 6 -8 q6 -10 -4 -17 ZM162 -35 q-12 1 -13 13 l0 201 q1 15 16 15 l65 0 q12 -1 13 -11 q0 -13 -5 -25 q-9 -26 -18 -46 q-3 -8 1 -13 q27 -26 26 -54 q2 -40 -33 -44 q-2 0 -8 0 q-6 -1 -9 -1 q-13 -1 -17 12 q-2 11 10 13 q2 0 8 1 q6 0 7 0 q16 1 16 21 q0 23 -22 45 q-10 9 -4 22 q3 6 9 25 q7 19 10 26 q1 5 -5 5 l-28 0 q-6 0 -6 -6 l0 -186 q-1 -12 -13 -13 ZM102 154 q1 13 -11 12 l-13 0 l-2 0 l-20 0 q-13 1 -12 -12 l0 -18 l58 0 l0 18 ZM94 87 q9 0 8 7 l0 21 l-58 0 l0 -28 l50 0 Z" /><glyph glyph-name="" unicode="&#x957f;" d="M18 86 q-12 1 -13 13 q1 11 13 12 l30 0 l0 88 q1 13 13 14 q14 -1 15 -14 l0 -88 l161 0 q12 -1 13 -12 q-1 -12 -13 -13 l-92 0 q23 -56 95 -79 q12 -6 7 -21 q-7 -10 -23 -5 q-80 32 -106 105 l-42 0 l0 -73 q0 -6 6 -5 q7 3 21 9 q14 6 20 9 q13 1 16 -11 q3 -10 -13 -17 q-20 -10 -47 -19 q-19 -8 -25 -2 q-6 4 -6 27 l0 82 l-30 0 ZM111 126 q-12 -4 -19 6 q-4 12 7 17 q54 22 102 48 q13 5 20 -4 q6 -10 -4 -18 q-44 -24 -106 -49 Z" /><glyph glyph-name="" unicode="&#x97f3;" d="M51 -23 q-15 1 -16 16 l0 82 q1 15 16 16 l153 0 q15 -1 16 -16 l0 -82 q-1 -15 -16 -16 l-153 0 ZM27 162 q-10 1 -11 12 q2 10 11 11 l90 0 q-1 1 -2 4 q-3 6 -4 8 q-4 14 13 17 q9 1 14 -8 q6 -12 9 -21 l80 0 q9 -1 11 -11 q-1 -11 -11 -12 l-33 0 q4 -6 0 -12 q-1 -1 -4 -6 q-5 -7 -7 -11 l56 0 q10 -1 11 -11 q-1 -10 -11 -11 l-222 0 q-10 1 -11 11 q1 10 11 11 l56 0 q-1 3 -6 10 q-4 6 -5 7 q-4 6 1 12 l-36 0 ZM187 -2 q6 0 6 6 l0 21 l-131 0 l0 -21 q0 -6 6 -6 l119 0 ZM62 64 l0 -20 l131 0 l0 20 q0 6 -6 6 l-119 0 q-6 0 -6 -6 ZM168 160 q0 0 1 1 q0 1 1 1 l-84 0 q1 0 1 -2 q2 -1 8 -10 q6 -9 7 -11 q1 -3 1 -6 l48 0 q4 4 16 25 q1 1 1 2 Z" /><glyph glyph-name="" unicode="&#x9891;" d="M131 177 q-10 1 -11 12 q1 10 11 11 l108 0 q11 0 11 -12 q-1 -10 -11 -11 l-44 0 l-6 -27 l37 0 q14 -1 15 -15 l0 -100 q0 -11 -12 -11 q-10 1 -11 11 l0 87 q0 5 -5 5 l-56 0 q-6 0 -6 -5 l0 -86 q-1 -10 -11 -11 q-10 1 -11 11 l0 99 q0 15 15 15 l20 0 l5 27 l-38 0 ZM16 105 q-10 1 -11 11 q1 10 11 11 l6 0 l0 54 q1 9 11 10 q10 -1 11 -10 l0 -54 l21 0 l0 74 q1 10 11 11 q10 -1 11 -11 l0 -24 l21 0 q9 -1 10 -11 q-1 -10 -10 -11 l-21 0 l0 -28 l25 0 q9 -1 10 -11 q-1 -10 -10 -11 l-96 0 ZM127 -30 q-11 -6 -18 3 q-4 12 6 18 q64 20 58 88 l0 26 q1 9 11 10 q10 -1 11 -10 l0 -26 q1 -27 -5 -45 q3 -1 4 -3 q4 -3 12 -9 q28 -21 39 -29 q8 -8 2 -17 q-8 -9 -18 -3 q-16 15 -47 40 q-13 -25 -55 -43 ZM28 -30 q-11 -4 -17 5 q-4 12 6 18 q40 18 60 43 q-3 -2 -8 -2 q-10 1 -11 11 l0 44 q1 10 11 11 q11 -1 12 -11 l0 -44 q0 -3 -1 -4 q12 14 20 33 q4 8 14 5 q9 -6 5 -16 q-30 -63 -91 -93 ZM15 27 q-8 4 -5 15 q7 13 16 37 q4 8 14 7 q10 -4 7 -14 q-2 -6 -8 -20 q-6 -14 -9 -20 q-6 -9 -15 -5 Z" /><glyph glyph-name="" unicode="&#xff0c;" d="M50 19 q1 17 18 18 q18 -1 19 -23 q-2 -34 -30 -47 q-8 -2 -13 6 q-4 10 5 14 q10 6 13 16 q-11 5 -12 16 Z" /></font>
</defs>
</svg>
