<svg width="20" height="20" viewBox="0 0 20 20" xmlns="http://www.w3.org/2000/svg"><title>开放</title><g fill="none" fill-rule="evenodd"><path d="M0 0h20v20H0z"/><g transform="translate(2 3)"><rect fill="#4096F4" width="17" height="13" rx="2"/><path d="M3.48 9l.503-1.183h2.318L6.798 9h.91L5.55 4.065h-.798L2.599 9h.881zm2.506-1.946H4.298l.84-1.96.848 1.96zM9.409 9V7.425h.973c1.078 0 1.96-.574 1.96-1.673v-.014c0-.987-.722-1.638-1.863-1.638h-1.93V9h.86zm1-2.352h-1V4.884h1c.644 0 1.057.301 1.057.875v.014c0 .511-.405.875-1.056.875zM14.133 9V4.1h-.86V9h.86z" fill="#FFF" fill-rule="nonzero"/></g></g></svg>