<svg width="116" height="20" viewBox="0 0 116 20" fill="none" xmlns="http://www.w3.org/2000/svg"><g clip-path="url(#a)"><path fill-rule="evenodd" clip-rule="evenodd" d="M60.19 6.27L60.936 0h-3.69l-.738 6.27H51.97l-.419 3.54h4.528L54.853 20h3.71L59.77 9.81h4.199l.429-3.54h-4.209zM49.148 20l1.715-14.76-5.485-.01-.42 3.55h1.916L45.518 20h3.63zM13.414 5.57l-.449 3.79h5.885l-.37 2.94h-5.804l-.548 4.61h7.42l-.38 3.09H0l.369-3.09h2.174l.898-7.25h2.992l-.898 7.25h3.49l1.397-11.34h2.992zm17.304-3.92l.2-1.65h-3.382l-.2 1.66h-2.682l-.917 7.7h-.918l-.35 2.94h.918L22.111 20h2.683l1.266-7.7h3.86l-.459 3.7-.768-3h-1.865l.878 3.41h1.705l-.249 2.14-2.234.45-.17 1h4.907L33.84 1.65h-3.122zm3.8 4.1h7.869L41.04 17.26l1.716-.35-.38 3.09H37.9l1.316-11.31h-2.224L35.645 20h-2.823l1.696-14.25zM71.06 4.07L71.55 0h-3.262l-.468 4.07h-1.736l-.379 3.21h1.706l-.738 6.14 1.885 2.11L63.64 20h4.887l2.224-2 1.805 2h4.309l-3.76-4.15 2.134-1.94.558-4.91h-2.892l-.349 2.94-1.616 1.46-.867-1 .608-5.12h5.914l.39-3.21H71.06zM85.77 0l-2.373 20-5.555-.01.17-1 2.493-.5L82.699 0h3.072zm-4.647 4.07h-3.062l-1.356 11.38h3.082l1.336-11.38zm-50.305.53h-3.83l-.569 4.76h3.83l.08-.67h-1.666l-.877-3.42h1.865l.748 2.89.419-3.56zm-9.505 3.08L17.523 0H7.071L.718 7.68h3.84l3.99-4.83h7.1l2.384 4.83h3.281zM40.213 0l.418 1.65 3.152.01-.359 2.94h-8.767l.35-2.95h2.243L36.822 0h3.39zm10.72 4.38L49.938 0h-3.541l.987 4.38h3.55zM76.128 0l.857 3.21h-3.241L72.875 0h3.252zm12.008 19h9.903l.25-3.26h-5.506c.755-.706 1.49-1.623 2.21-2.521.412-.514.818-1.02 1.22-1.479a13.874 13.874 0 0 0 1.996-2.87A8.53 8.53 0 0 0 99.076 6a7.783 7.783 0 0 0-.07-1.72 4.145 4.145 0 0 0-.807-1.79 3.67 3.67 0 0 0-1.546-1.1A6.686 6.686 0 0 0 94.478 1a7.81 7.81 0 0 0-2.264.43 10.76 10.76 0 0 0-2.454 1.21l-.16 3.28A8.672 8.672 0 0 1 91.326 5a5.643 5.643 0 0 1 1.835-.44 2.57 2.57 0 0 1 1.676.6 1.61 1.61 0 0 1 .488 1.32 4.941 4.941 0 0 1-.578 1.76c-.421.757-.916 1.47-1.476 2.13a24.053 24.053 0 0 1-1.885 2.13c-.47.494-.939 1.077-1.408 1.66-.528.655-1.056 1.31-1.584 1.84l-.26 3zm11.878-3.23h3.191l-.309 3.23h-3.161l.279-3.23zm13.354-14.1a4.966 4.966 0 0 0-1.187-.5 6.963 6.963 0 0 0-1.376-.17c-.472 0-.943.043-1.406.13a6.39 6.39 0 0 0-1.287.5 6.311 6.311 0 0 0-2.094 2c-.301.46-.568.941-.798 1.44a14.64 14.64 0 0 0-.619 1.75 22.358 22.358 0 0 0-.538 3.19 17.888 17.888 0 0 0 0 3.19 12.2 12.2 0 0 0 .299 1.75c.133.496.313.979.539 1.44a4.828 4.828 0 0 0 1.745 1.94 5.21 5.21 0 0 0 1.197.5c.458.103.926.16 1.396.17.473-.012.944-.07 1.406-.17a6.043 6.043 0 0 0 1.277-.5 6.383 6.383 0 0 0 2.104-1.94c.3-.46.566-.942.798-1.44a14.6 14.6 0 0 0 .609-1.75c.261-1.049.447-2.115.558-3.19a22.642 22.642 0 0 0 0-3.19 13.11 13.11 0 0 0-.299-1.75 9.937 9.937 0 0 0-.569-1.4 4.914 4.914 0 0 0-1.755-2zm-2.104 12.34a4.013 4.013 0 0 1-.848 1.16v.01a1.56 1.56 0 0 1-.908.35 1.193 1.193 0 0 1-.887-.37 2.739 2.739 0 0 1-.629-1.16 7.638 7.638 0 0 1-.279-2c-.018-.668.012-1.336.09-2 .047-.672.137-1.34.269-2 .145-.687.359-1.357.638-2a4.12 4.12 0 0 1 .788-1.15c.284-.23.633-.367.998-.39.321.03.623.168.857.39.291.338.509.733.639 1.16.159.656.252 1.326.279 2v.195c.001.592.002 1.21-.07 1.805-.08.66-.179 1.34-.299 2a10.95 10.95 0 0 1-.638 2z" fill="url(#b)"/></g><defs><linearGradient id="b" x1="38.619" y1="51.74" x2="55.669" y2="-12.588" gradientUnits="userSpaceOnUse"><stop stop-color="#00F935"/><stop offset="1" stop-color="#048CFF"/></linearGradient><clipPath id="a"><path fill="#fff" d="M0 0h116v20H0z"/></clipPath></defs></svg>