<svg width="18" height="18" viewBox="0 0 18 18" fill="none" xmlns="http://www.w3.org/2000/svg"><path fill-rule="evenodd" clip-rule="evenodd" d="M3 4.787c0-.07.05-.128.119-.137a13.858 13.858 0 0 0 5.727-2.19l.075-.05a.143.143 0 0 1 .158 0l.075.05a13.858 13.858 0 0 0 5.726 2.19c.068.01.119.068.119.137v5.862c0 1.98-1.151 3.78-2.95 4.61l-2.663 1.23a.923.923 0 0 1-.774 0l-2.664-1.23A5.077 5.077 0 0 1 3 10.649V4.787z" fill="#267EF0"/><path d="M6 8.987c0-.27.218-.487.487-.487h5.026c.27 0 .487.218.487.487v3.026a.487.487 0 0 1-.487.487H6.487A.487.487 0 0 1 6 12.013V8.987z" fill="#E0EDFD"/><path d="M7.5 7.5a1.5 1.5 0 1 1 3 0v3.083c0 .23-.187.417-.417.417H7.917a.417.417 0 0 1-.417-.417V7.5z" stroke="#E0EDFD"/></svg>