<?xml version="1.0" encoding="UTF-8"?>
<svg width="28px" height="28px" viewBox="0 0 28 28" version="1.1" xmlns="http://www.w3.org/2000/svg" xmlns:xlink="http://www.w3.org/1999/xlink">
    <title>小程序服务</title>
    <g id="定稿" stroke="none" stroke-width="1" fill="none" fill-rule="evenodd">
        <g id="画板" transform="translate(-29.000000, -26.000000)">
            <g id="编组" transform="translate(29.000000, 26.000000)">
                <g id="0.图标/线型/icons_outlined_mini_program" transform="translate(6.000000, 6.000000)" fill="#07C160" stroke="#07C160" stroke-width="0.5">
                    <g id="icon9">
                        <path d="M13.9,5.64749734 C13.9,4.05569123 12.4695573,2.76666667 10.6996805,2.76666667 C8.92980371,2.76666667 7.49936102,4.05569123 7.49936102,5.64749734 L7.49936102,10.4398296 C7.49936102,11.4996311 6.50152982,12.3513312 5.26837061,12.3513312 C4.03521139,12.3513312 3.03738019,11.4996311 3.03738019,10.4398296 C3.03738019,9.5919238 3.69289325,8.8503823 4.62987898,8.62421672 C4.89757945,8.55729487 5.14813667,8.35929645 5.24409884,8.13589636 C5.25734763,8.1097101 5.26558892,8.08540377 5.26973441,8.06053081 C5.27307723,8.04047385 5.27393096,8.02423216 5.27380192,7.97976571 C5.27380192,7.77133497 5.09519437,7.6228967 4.82108626,7.6228967 L4.70825915,7.62177009 C3.20558756,7.84925912 2.1,9.04485288 2.1,10.4398296 C2.1,12.0316357 3.53044269,13.3206603 5.30031949,13.3206603 C7.07019629,13.3206603 8.50063898,12.0316357 8.50063898,10.4398296 L8.50063898,5.64749734 C8.50063898,4.58769584 9.49847018,3.73599574 10.7316294,3.73599574 C11.9647886,3.73599574 12.9626198,4.58769584 12.9626198,5.64749734 C12.9626198,6.52102028 12.3138813,7.26725831 11.3675562,7.49566448 C11.0914645,7.55700225 10.8594225,7.7423413 10.7580518,7.9788503 C10.6315544,8.26345128 10.8163174,8.49637913 11.1778449,8.49638484 L11.3155572,8.49491279 C12.8239819,8.22911518 13.9,7.04890184 13.9,5.64749734 Z" id="XMLID_19_"></path>
                    </g>
                </g>
                <circle id="椭圆形" stroke-opacity="0.9" stroke="#000000" stroke-width="1.5" cx="14" cy="14" r="11.25"></circle>
            </g>
        </g>
    </g>
</svg>