<?xml version="1.0" encoding="UTF-8"?>
<svg width="40px" height="40px" viewBox="0 0 40 40" version="1.1" xmlns="http://www.w3.org/2000/svg" xmlns:xlink="http://www.w3.org/1999/xlink">
    <title>工商备案</title>
    <g id="定稿" stroke="none" stroke-width="1" fill="none" fill-rule="evenodd">
        <g id="画板" transform="translate(-29.000000, -93.000000)">
            <g id="编组-5" transform="translate(29.000000, 93.000000)">
                <rect id="Rectangle" fill-opacity="0" fill="#FFFFFF" x="-4.26325641e-13" y="-4.26325641e-13" width="39.9333333" height="39.9333333"></rect>
                <path d="M30.2910285,34.6088889 C30.837836,34.6088889 31.2811111,35.052164 31.2811111,35.5989715 L31.2811111,35.6154729 C31.2811111,36.1622805 30.837836,36.6055556 30.2910285,36.6055556 L9.64230487,36.6055556 C9.09549732,36.6055556 8.65222222,36.1622805 8.65222222,35.6154729 L8.65222222,35.5989715 C8.65222222,35.052164 9.09549732,34.6088889 9.64230487,34.6088889 L30.2910285,34.6088889 Z M21.3580817,14.5550914 C21.3280695,14.2704099 21.4849994,13.9988474 21.7466259,13.8826758 C21.8266844,13.847127 21.9032067,13.808814 21.9761928,13.7677367 C23.1627077,13.0754589 23.96,11.7888938 23.96,10.3161111 C23.96,8.11065401 22.1721238,6.32277778 19.9666667,6.32277778 C17.7612096,6.32277778 15.9733333,8.11065401 15.9733333,10.3161111 C15.9733333,11.8093114 16.792885,13.1110951 18.0067107,13.7961846 C18.0644327,13.8248147 18.1245171,13.8524071 18.1869639,13.8789619 C18.4541471,13.9925262 18.6157235,14.2673521 18.5850829,14.5560471 L17.3044444,26.6222222 L14.975,26.6222222 L14.9914335,26.4784294 C14.9941724,26.4544639 14.9972537,26.4275027 15.0006773,26.3975459 L15.0253275,26.1818566 C15.0301206,26.139917 15.0352561,26.0949817 15.0407339,26.0470508 L15.0644711,25.8393499 C15.2348923,24.3481647 15.6487723,20.7267147 16.3061111,14.975 C14.8973973,13.8790119 13.9766667,12.2391882 13.9766667,10.3161111 C13.9766667,7.00792546 16.658481,4.32611111 19.9666667,4.32611111 C23.2748523,4.32611111 25.9566667,7.00792546 25.9566667,10.3161111 C25.9566667,12.2173793 25.0086416,13.8776921 23.6272222,14.975 C24.284561,20.7267147 24.698441,24.3481647 24.8688622,25.8393499 L24.8925995,26.0470508 L24.921358,26.2986883 C24.9254664,26.3346365 24.9292324,26.367589 24.932656,26.3975459 L24.9583333,26.6222222 L31.2976125,26.6222222 C32.3912276,26.6222222 33.2777778,27.5087724 33.2777778,28.6023875 L33.2777778,30.6320569 C33.2777778,31.725672 32.3912276,32.6122222 31.2976125,32.6122222 L8.63572084,32.6122222 C7.54210575,32.6122222 6.65555556,31.725672 6.65555556,30.6320569 L6.65555556,28.6023875 C6.65555556,27.5087724 7.54210575,26.6222222 8.63572084,26.6222222 L22.6288889,26.6222222 L21.3580817,14.5550914 Z M31.2811111,28.6188889 L8.65222222,28.6188889 L8.65222222,30.6155556 L31.2811111,30.6155556 L31.2811111,28.6188889 Z" id="Combined-Shape" fill="#07C160"></path>
            </g>
        </g>
    </g>
</svg>