<?xml version="1.0" encoding="UTF-8"?>
<svg width="1002px" height="168px" viewBox="0 0 1002 168" version="1.1" xmlns="http://www.w3.org/2000/svg" xmlns:xlink="http://www.w3.org/1999/xlink">
    <title>画板备份 3</title>
    <g id="画板备份-3" stroke="none" stroke-width="1" fill="none" fill-rule="evenodd">
        <g id="编组" transform="translate(7.000000, 7.000000)" fill-rule="nonzero">
            <path d="M32.868153,151.044895 L6.81233255,151.044895 C4.04043675,151.044895 1.71204428,148.703114 1.71204428,145.915279 L1.71204428,119.709631 C1.71204428,116.921796 4.04043675,114.580014 6.81233255,114.580014 L32.868153,114.580014 C35.6400488,114.580014 37.9684413,116.921796 37.9684413,119.709631 L37.9684413,145.915279 C37.9684413,148.703114 35.7509247,151.044895 32.868153,151.044895 Z" id="路径" fill="#FC8838"></path>
            <path d="M6.81233255,2.955105 L32.868153,2.955105 C35.6400488,2.955105 37.9684413,5.29688631 37.9684413,8.08472122 L37.9684413,34.2903693 C37.9684413,37.0782042 35.6400488,39.4199855 32.868153,39.4199855 L6.81233255,39.4199855 C4.04043675,39.4199855 1.71204428,37.0782042 1.71204428,34.2903693 L1.71204428,8.08472122 C1.71204428,5.29688631 3.92956092,2.955105 6.81233255,2.955105 Z M78.3272441,113.13034 L94.2933639,129.188269 C96.2891289,131.19551 96.2891289,134.429399 94.2933639,136.43664 L78.3272441,152.494569 C76.3314792,154.50181 73.11608,154.50181 71.1203151,152.494569 L55.1541953,136.43664 C53.1584303,134.429399 53.1584303,131.19551 55.1541953,129.188269 L71.1203151,113.13034 C73.11608,111.123099 76.3314792,111.123099 78.3272441,113.13034 L78.3272441,113.13034 Z" id="形状" fill="#34ABFD"></path>
            <path d="M136.537056,57.5966691 L152.503176,73.6545981 C154.498941,75.6618392 154.498941,78.8957277 152.503176,80.9029689 L136.537056,96.9608979 C134.541291,98.968139 131.325892,98.968139 129.330127,96.9608979 L113.364008,80.9029689 C111.368243,78.8957277 111.368243,75.6618392 113.364008,73.6545981 L129.330127,57.5966691 C131.325892,55.589428 134.541291,55.589428 136.537056,57.5966691 Z" id="路径" fill="#8385F3"></path>
            <path d="M78.3272441,1.50543085 L94.2933639,17.5633599 C96.2891289,19.570601 96.2891289,22.8044895 94.2933639,24.8117306 L78.3272441,40.9811731 C76.3314792,42.9884142 73.11608,42.9884142 71.1203151,40.9811731 L55.1541953,24.923244 C53.1584303,22.9160029 53.1584303,19.6821144 55.1541953,17.6748733 L71.1203151,1.50543085 C73.11608,-0.501810282 76.3314792,-0.501810282 78.3272441,1.50543085 Z" id="路径" fill="#FC8838"></path>
            <path d="M117.355538,2.955105 L148.622522,2.955105 C150.063908,2.955105 151.172666,4.07023896 151.172666,5.51991311 L151.172666,36.8551774 C151.172666,38.3048516 150.063908,39.4199855 148.622522,39.4199855 L117.355538,39.4199855 C115.914152,39.4199855 114.805393,38.3048516 114.805393,36.8551774 L114.805393,5.51991311 C114.805393,4.18175235 115.914152,2.955105 117.355538,2.955105 Z" id="路径" fill="#00C362"></path>
            <ellipse id="椭圆形" fill="#00C362" cx="74.6683417" cy="77.2230268" rx="24.2818072" ry="19.8493845"></ellipse>
            <path d="M131.215017,116.252715 L113.364008,147.25344 C112.587877,148.5916 113.585759,150.152788 115.027145,150.152788 L150.729163,150.152788 C152.170549,150.152788 153.168431,148.480087 152.3923,147.25344 L134.541291,116.252715 C133.876037,115.026068 131.991147,115.026068 131.215017,116.252715 L131.215017,116.252715 Z" id="路径" fill="#00C362"></path>
            <path d="M18.1216674,60.7190442 L0.270658458,91.8312817 C-0.505472366,93.1694424 0.492410122,94.73063 1.93379594,94.73063 L37.6358138,94.73063 C39.0771996,94.73063 40.0750821,93.057929 39.2989513,91.8312817 L21.5588182,60.7190442 C20.7826874,59.4923968 18.8977982,59.4923968 18.1216674,60.7190442 Z" id="路径" fill="#8385F3"></path>
        </g>
        <path d="M275.512741,63.7242424 L275.512741,34.8757576 L267.791213,34.8757576 L267.791213,55.7393939 L259.168841,55.7393939 L259.168841,25.0878788 L251.447313,25.0878788 L251.447313,55.7393939 L242.824941,55.7393939 L242.824941,34.8757576 L235.103413,34.8757576 L235.103413,63.7242424 L275.512741,63.7242424 Z M275.255357,141.383333 C284.392497,132.49697 291.470564,124.512121 296.875634,116.012121 C301.894627,124.383333 308.200541,132.239394 315.922068,140.481818 L322.614059,133.012121 C314.377763,125.027273 307.428388,116.656061 302.023319,107.125758 C308.972693,93.4742424 312.318689,77.8909091 314.249071,56.1257576 L320.683677,56.1257576 L320.683677,47.3681818 L293.529638,47.3681818 C295.588712,40.6712121 297.26171,33.8454545 298.548631,26.7621212 L290.183643,25.7318182 C287.995877,40.0272727 281.818655,58.5727273 274.611896,71.580303 L279.759581,79.8227273 L282.976884,74.1560606 C284.778574,87.0348485 287.738493,97.5954545 292.242717,107.125758 C286.580264,116.913636 278.858736,125.8 268.563366,134.943939 L275.255357,141.383333 Z M209.622372,64.7545455 C218.244745,55.0954545 228.025346,41.7015152 233.6878,31.5272727 L225.966272,26.7621212 C220.818587,36.4212121 211.29537,49.4287879 202.930382,58.5727273 L209.622372,64.7545455 Z M297.133018,97.080303 C292.757486,86.7772727 290.054951,74.9287879 288.896722,60.8909091 C289.41149,59.3454545 290.054951,57.8 290.698412,56.1257576 L306.141467,56.1257576 C304.725853,72.3530303 302.023319,85.4893939 297.133018,97.080303 Z M223.907198,140.095455 L223.907198,76.9893939 C227.124502,71.580303 230.08442,66.0424242 232.400879,61.019697 L224.808043,56.8984848 C219.016898,69.519697 209.236296,84.4590909 201,93.7318182 L204.989456,102.875758 C208.464143,99.0121212 211.938831,94.6333333 215.413518,89.8681818 L215.413518,140.095455 L223.907198,140.095455 Z M275.255357,83.0424242 L275.255357,74.8 L231.24265,74.8 L231.24265,83.0424242 L275.255357,83.0424242 Z M234.202568,139.580303 C244.111862,128.24697 246.299628,121.55 246.299628,108.8 L246.299628,102.360606 L261.099223,102.360606 L261.099223,120.004545 C261.099223,121.807576 260.584454,123.224242 258.267996,125.413636 L263.930449,131.209091 L268.563366,126.830303 C269.528557,125.928788 271.973707,123.900379 274.54755,121.823674 L275.459108,121.090471 C277.740361,119.26123 279.99804,117.493182 281.303886,116.527273 L278.858736,109.186364 C277.571815,110.474242 271.909361,115.239394 269.335519,117.171212 L269.335519,94.1181818 L237.93464,94.1181818 L237.93464,106.99697 C237.93464,120.133333 236.004258,125.413636 226.481041,134.943939 L234.202568,139.580303 Z M449.118418,49.0424242 L449.118418,40.0272727 L415.272389,40.0272727 C412.698547,34.8757576 408.837783,27.6636364 406.907401,24.1863636 L397.255492,27.1484848 C398.32621,28.9618182 399.924052,31.8829333 401.576714,34.9327622 L402.198109,36.0805692 C402.923917,37.4222545 403.648917,38.7651515 404.333559,40.0272727 L365.468537,40.0272727 L365.468537,49.0424242 L449.118418,49.0424242 Z M356.331396,140.481818 L356.331396,54.7090909 C359.806083,46.3378788 362.894694,37.580303 365.597229,28.05 L356.202704,25.3454545 C350.926326,45.05 340.502264,67.2015152 329.820818,81.3681818 L335.99804,89.8681818 C339.987496,84.4590909 343.590875,79.05 346.936871,73.5121212 L346.936871,140.481818 L356.331396,140.481818 Z M438.823048,68.2318182 L438.823048,59.9893939 L372.546604,59.9893939 L372.546604,68.2318182 L438.823048,68.2318182 Z M438.823048,87.2924242 L438.823048,78.9212121 L372.546604,78.9212121 L372.546604,87.2924242 L438.823048,87.2924242 Z M382.455897,140.224242 L382.455897,133.012121 L429.042447,133.012121 L429.042447,140.224242 L438.694356,140.224242 L438.694356,97.9818182 L372.803988,97.9818182 L372.803988,140.224242 L382.455897,140.224242 Z M429.042447,124.383333 L382.455897,124.383333 L382.455897,106.610606 L429.042447,106.610606 L429.042447,124.383333 Z M472.025617,142.8 C493.002433,124.898485 499.43704,113.565152 500.723961,88.3227273 L538.302062,88.3227273 L538.302062,140.481818 L548.211355,140.481818 L548.211355,88.3227273 L577.424468,88.3227273 L577.424468,78.9212121 L548.211355,78.9212121 L548.211355,42.9893939 L571.762014,42.9893939 L571.762014,33.5878788 L465.719703,33.5878788 L465.719703,42.9893939 L491.200743,42.9893939 L491.200743,78.9212121 L460.314633,78.9212121 L460.314633,88.3227273 L490.943359,88.3227273 C489.656438,109.572727 484.122677,119.489394 464.304089,135.587879 L472.025617,142.8 Z M538.302062,78.9212121 L501.110037,78.9212121 L501.110037,42.9893939 L538.302062,42.9893939 L538.302062,78.9212121 Z M595.312673,140.35303 C607.667117,121.55 611.141805,110.731818 612.428726,82.0121212 L631.089084,82.0121212 C631.02876,83.8835701 630.685664,90.6788915 630.311641,97.8084843 L630.236499,99.2375 L630.236499,99.2375 L630.160979,100.66727 C629.783186,107.804409 629.408043,114.663873 629.287394,116.656061 C628.772626,122.580303 626.327475,125.284848 619.249409,125.284848 L609.211423,125.284848 L611.141805,134.943939 L622.595404,134.943939 C633.791619,134.943939 637.652383,131.337879 638.167151,119.875758 L640.354917,72.4818182 L612.68611,72.4818182 C612.68611,71.7090909 612.814802,70.8075758 612.814802,69.9060606 L612.816192,69.3852755 C612.825818,67.3840157 612.8844,63.5621153 612.958775,59.612201 L612.980426,58.4816329 L612.980426,58.4816329 L613.002764,57.3528709 C613.025389,56.2279364 613.048788,55.1188705 613.072187,54.0651515 L648.462521,54.0651515 L648.462521,44.4060606 L628.772626,44.4060606 C627.88168,41.9789044 626.590952,38.675381 625.288508,35.411426 L624.897811,34.4343425 C623.596905,31.1874606 622.32309,28.0717406 621.464435,26.0031183 L621.107373,25.1460086 C620.853491,24.5391491 620.657597,24.0773893 620.53633,23.8 L611.270497,26.3757576 C611.864671,27.5649903 613.80251,32.3960225 615.717716,37.2842744 L616.087752,38.2301396 C616.948797,40.4343334 617.787247,42.6030303 618.477256,44.4060606 L590.679757,44.4060606 L590.679757,54.0651515 L603.677661,54.0651515 C603.548969,59.8606061 603.291585,67.0727273 603.291585,68.4893939 C602.39074,104.421212 599.816898,115.625758 586.690301,134.815152 L595.312673,140.35303 Z M641.641838,141.125758 C654.511051,132.239394 664.549037,123.739394 672.270564,114.466667 C679.8634,123.99697 689.515309,132.754545 701.483677,140.739394 L707.532207,132.110606 C695.306455,124.254545 685.783238,115.754545 678.319094,106.481818 C687.456235,92.5727273 692.475228,76.4742424 694.920379,55.4818182 L706.888746,55.4818182 L706.888746,45.5651515 L666.093342,45.5651515 C668.538493,39.2545455 670.597567,32.8151515 672.270564,26.2469697 L662.361271,24.7015152 C658.886583,41.1863636 649.363366,61.4060606 640.354917,73.6409091 L646.918216,80.5954545 C648.848597,78.019697 650.650287,75.3151515 652.451977,72.6106061 C655.154512,84.8454545 659.658736,96.05 666.350727,106.35303 C658.629199,115.883333 648.333829,124.512121 634.563772,133.269697 L641.641838,141.125758 Z M672.270564,98.2393939 C665.32119,87.1636364 661.074349,74.8 659.27266,60.7621212 C660.173505,59.0878788 661.074349,57.2848485 661.846502,55.4818182 L685.397161,55.4818182 C683.466779,72.8681818 679.606016,86.3909091 672.270564,98.2393939 Z M743.051234,48.3984848 L752.059682,45.5651515 C750.1293,40.0272727 746.139845,29.8530303 743.823386,24.3151515 L734.814937,27.2772727 C737.002704,32.5575758 740.99216,42.4742424 743.051234,48.3984848 Z M834.680027,134.042424 L834.680027,124.383333 L803.922609,124.383333 L803.922609,72.6106061 L830.947955,72.6106061 L830.947955,62.9515152 L803.922609,62.9515152 L803.922609,24.5727273 L793.755931,24.5727273 L793.755931,62.9515152 L768.146198,62.9515152 L768.146198,72.6106061 L793.755931,72.6106061 L793.755931,124.383333 L759.78121,124.383333 L759.78121,134.042424 L834.680027,134.042424 Z M748.327611,140.224242 L748.327611,86.2621212 C752.703143,89.8681818 763.641974,99.269697 768.532274,103.777273 L774.580804,96.6939394 C769.947888,92.4439394 758.494289,82.7848485 753.990064,79.3075758 L748.327611,86.0045455 L748.327611,80.2090909 C753.217911,73.5121212 757.464752,66.3 761.196823,58.830303 L761.196823,49.4287879 L720.530112,49.4287879 L720.530112,58.830303 L750.257993,58.830303 C741.764312,74.5424242 731.983711,85.8757576 715.639811,99.7848485 L720.144035,109.057576 C726.836026,103.906061 733.013248,98.2393939 738.547009,92.1863636 L738.547009,140.224242 L748.327611,140.224242 Z M962.6,134.815152 L962.6,125.156061 L867.625211,125.156061 L867.625211,41.830303 L960.15485,41.830303 L960.15485,32.1712121 L857.329841,32.1712121 L857.329841,134.815152 L962.6,134.815152 Z M944.711795,120.133333 L952.30463,112.534848 C944.068334,104.421212 932.743427,93.2166667 921.289828,82.269697 C930.813045,72.3530303 939.692802,62.05 947.156945,52.1333333 L938.791957,46.080303 C931.585198,55.7393939 923.091517,65.5272727 913.825684,75.0575758 C902.372085,64.2393939 891.433254,54.0651515 883.969111,47.3681818 L877.148429,54.4515152 C884.355188,61.1484848 895.294018,71.3227273 906.618925,82.269697 C895.42271,93.0878788 883.454343,103.133333 871.485975,111.504545 L878.049273,119.875758 C890.146333,111.24697 902.500777,100.686364 913.954376,89.4818182 C925.279284,100.557576 936.475498,111.633333 944.711795,120.133333 Z" id="微信开放社区" fill="#4C4C4C" fill-rule="nonzero"></path>
    </g>
</svg>