<?xml version="1.0" encoding="UTF-8"?>
<svg width="40px" height="40px" viewBox="0 0 40 40" version="1.1" xmlns="http://www.w3.org/2000/svg" xmlns:xlink="http://www.w3.org/1999/xlink">
    <title>客户管理</title>
    <g id="定稿" stroke="none" stroke-width="1" fill="none" fill-rule="evenodd">
        <g id="画板" transform="translate(-101.000000, -93.000000)">
            <g id="编组" transform="translate(101.000000, 93.000000)">
                <rect id="矩形" x="0" y="0" width="40" height="40"></rect>
                <path d="M20,3.33333333 C27.8637897,3.33333333 34.3142239,9.38462815 34.9487692,17.0846847 L35.0157305,17.1217644 C36.0033848,17.7003189 36.6666667,18.7727006 36.6666667,20 L36.6666667,21.6666667 C36.6666667,23.1890324 35.6461149,24.4730355 34.2518396,24.8718477 L34.28408,24.8624485 L34.28408,24.8624485 C32.3430636,29.4556643 28.2502283,32.9187692 23.268666,33.9880634 L23.2564508,34.0484116 C22.9291675,35.5457203 21.5954893,36.6666667 20,36.6666667 C18.1590508,36.6666667 16.6666667,35.1742825 16.6666667,33.3333333 C16.6666667,31.4923842 18.1590508,30 20,30 C21.3500294,30 22.5126083,30.802571 23.0366482,31.9566247 L23.0499901,31.9863946 L23.0499901,31.9863946 C26.9608356,31.0842986 30.2217161,28.4817445 32.0127952,24.9993218 L32.136571,25 C31.3936387,25 31.1242335,24.9226453 30.8526286,24.7773894 C30.5810236,24.6321335 30.3678665,24.4189764 30.2226106,24.1473714 C30.0773547,23.8757665 30,23.6063613 30,22.863429 L30,18.8032377 C30,18.0603054 30.0773547,17.7909002 30.2226106,17.5192952 C30.3678665,17.2476903 30.5810236,17.0345332 30.8526286,16.8892773 C31.1242335,16.7440213 31.3936387,16.6666667 32.136571,16.6666667 L32.8941774,16.6668137 C32.0761342,10.2741709 26.6150643,5.33333333 20,5.33333333 C13.3849357,5.33333333 7.92386582,10.2741709 7.1058226,16.6668137 L7.863429,16.6666667 C8.60636128,16.6666667 8.87576648,16.7440213 9.14737142,16.8892773 C9.41897636,17.0345332 9.6321335,17.2476903 9.77738941,17.5192952 C9.92264532,17.7909002 10,18.0603054 10,18.8032377 L10,22.863429 C10,23.6063613 9.92264532,23.8757665 9.77738941,24.1473714 C9.6321335,24.4189764 9.41897636,24.6321335 9.14737142,24.7773894 C8.87576648,24.9226453 8.60636128,25 7.863429,25 L6.66666667,25 C4.8257175,25 3.33333333,23.5076158 3.33333333,21.6666667 L3.33333333,20 C3.33333333,18.726372 4.0476359,17.6195784 5.09748485,17.0583752 L5.04992207,17.0843004 L5.04992207,17.0843004 C5.68577615,9.38462815 12.1362103,3.33333333 20,3.33333333 Z M20,32 C19.2636203,32 18.6666667,32.5969537 18.6666667,33.3333333 C18.6666667,34.069713 19.2636203,34.6666667 20,34.6666667 C20.7363797,34.6666667 21.3333333,34.069713 21.3333333,33.3333333 C21.3333333,32.5969537 20.7363797,32 20,32 Z M31.9983333,18.665 L31.9983333,23 L33.3333333,23 C34.0130684,23 34.5740026,22.4913531 34.6562781,21.8339172 L34.6666667,21.6666667 L34.6666667,20 C34.6666667,19.3202649 34.1580198,18.7593307 33.5005838,18.6770552 L33.3333333,18.6666667 L31.9983333,18.665 Z M8,18.665 L6.66666667,18.6666667 C5.98693159,18.6666667 5.42599736,19.1753136 5.34372189,19.8327495 L5.33333333,20 L5.33333333,21.6666667 C5.33333333,22.3464017 5.84198024,22.907336 6.49941617,22.9896114 L6.66666667,23 L8,23 L8,18.665 Z" id="形状结合" fill="#07C160"></path>
            </g>
        </g>
    </g>
</svg>