<?xml version="1.0" encoding="UTF-8"?>
<svg width="40px" height="40px" viewBox="0 0 40 40" version="1.1" xmlns="http://www.w3.org/2000/svg" xmlns:xlink="http://www.w3.org/1999/xlink">
    <title>ERP</title>
    <g id="定稿" stroke="none" stroke-width="1" fill="none" fill-rule="evenodd">
        <g id="画板" transform="translate(-245.000000, -93.000000)">
            <g id="Group-Copy" transform="translate(245.000000, 93.000000)">
                <rect id="Rectangle" fill-opacity="0" fill="#FFFFFF" x="0" y="0" width="40" height="40"></rect>
                <path d="M19.6666667,5 C22.9803752,5 25.6666667,7.6862915 25.6666667,11 C25.6666667,12.8439637 24.8348468,14.4936455 23.5259749,15.5942776 L28.0593376,23.4459117 C28.7606567,23.1584706 29.5284886,23 30.3333333,23 C33.6470418,23 36.3333333,25.6862915 36.3333333,29 C36.3333333,32.3137085 33.6470418,35 30.3333333,35 C27.4640691,35 25.0652064,32.9859714 24.4733366,30.2945055 L14.8956671,30.2946025 L14.8961326,30.1174381 C14.3725485,32.8971555 11.9318471,35 9,35 C5.6862915,35 3,32.3137085 3,29 C3,25.6862915 5.6862915,23 9,23 C9.80484472,23 10.5726766,23.1584706 11.2739957,23.4459117 L15.8078441,15.5946859 C14.4986923,14.4940535 13.6666667,12.8441917 13.6666667,11 C13.6666667,7.6862915 16.3529582,5 19.6666667,5 Z M9,25 C6.790861,25 5,26.790861 5,29 C5,31.209139 6.790861,33 9,33 C11.209139,33 13,31.209139 13,29 C13,26.790861 11.209139,25 9,25 Z M30.3333333,25 C28.1241943,25 26.3333333,26.790861 26.3333333,29 C26.3333333,31.209139 28.1241943,33 30.3333333,33 C32.5424723,33 34.3333333,31.209139 34.3333333,29 C34.3333333,26.790861 32.5424723,25 30.3333333,25 Z M19.6666667,17 C18.9146752,17 18.1949949,16.8616592 17.5316875,16.6090391 L12.9727825,24.5035742 C14.0502713,25.4563016 14.7827502,26.79033 14.958947,28.2943872 L24.3743863,28.2943872 C24.5505704,26.7904387 25.2829561,25.4564945 26.3603172,24.5037808 L21.8016458,16.6090391 C21.1383385,16.8616592 20.4186582,17 19.6666667,17 Z M19.6666667,7 C17.4575277,7 15.6666667,8.790861 15.6666667,11 C15.6666667,13.209139 17.4575277,15 19.6666667,15 C21.8758057,15 23.6666667,13.209139 23.6666667,11 C23.6666667,8.790861 21.8758057,7 19.6666667,7 Z" id="Combined-Shape" fill="#07C160"></path>
            </g>
        </g>
    </g>
</svg>