<?xml version="1.0" encoding="UTF-8"?>
<svg width="40px" height="40px" viewBox="0 0 40 40" version="1.1" xmlns="http://www.w3.org/2000/svg" xmlns:xlink="http://www.w3.org/1999/xlink">
    <title>运营推广</title>
    <g id="定稿" stroke="none" stroke-width="1" fill="none" fill-rule="evenodd">
        <g id="画板" transform="translate(-173.000000, -93.000000)">
            <g id="编组-10" transform="translate(173.000000, 93.000000)">
                <rect id="Rectangle" fill-opacity="0" fill="#FFFFFF" x="0" y="0" width="40" height="40"></rect>
                <path d="M30.3333333,5.68871869 C31.0263965,5.68871869 31.5959544,6.21750809 31.660563,6.89364312 L31.6666667,7.02205202 L31.6666667,33.0043926 C31.6666667,33.1795161 31.6321681,33.3529242 31.5651413,33.5147131 C31.3009142,34.1525025 30.598873,34.4762695 29.9515928,34.2820182 L29.8230129,34.2362006 L8.70092523,25.4856214 C8.51891277,25.4102162 8.32709656,25.3622568 8.13174391,25.3429899 L7.93544458,25.3333333 L5.33333333,25.3333333 C4.27897154,25.3333333 3.41516821,24.5174555 3.33881907,23.4825957 L3.33333333,23.3333333 L3.33333333,17 C3.33333333,15.9456382 4.14921112,15.0818349 5.18407099,15.0054857 L5.33333333,15 L7.92281793,15 C8.13950077,15 8.3543774,14.9647901 8.55912503,14.8960786 L8.71065653,14.8382901 L29.8081076,5.79652531 C29.9740767,5.72539569 30.1527643,5.68871869 30.3333333,5.68871869 Z M29.6666667,8.66666667 L10.3333333,16.6666667 L10.3333333,23.6666667 L29.6666667,31.3333333 L29.6666667,8.66666667 Z M8.33333333,17.022052 L5.33333333,17.022052 L5.33333333,23.022052 L8.33333333,23.022052 L8.33333333,17.022052 Z M33.6666667,17 L33.8429395,17.0050927 C35.4177467,17.0963391 36.6666667,18.4023191 36.6666667,20 C36.6666667,21.6568542 35.3235209,23 33.6666667,23 L33.6666667,17 Z" id="Combined-Shape" fill="#07C160"></path>
            </g>
        </g>
    </g>
</svg>