<?xml version="1.0" encoding="UTF-8"?>
<svg width="20px" height="20px" viewBox="0 0 20 20" version="1.1" xmlns="http://www.w3.org/2000/svg" xmlns:xlink="http://www.w3.org/1999/xlink">
    <title>评价</title>
    <g id="定稿" stroke="none" stroke-width="1" fill="none" fill-rule="evenodd">
        <g id="画板" transform="translate(-172.000000, -122.000000)">
            <g id="编组" transform="translate(172.000000, 122.000000)">
                <rect id="star-Mask" x="0" y="0" width="20" height="20"></rect>
                <path d="M6.14735972,16.9095549 C5.76313522,17.1115537 5.28790741,16.9638306 5.08590863,16.5796061 C5.00547166,16.4266059 4.97771479,16.2513565 5.00693523,16.0809882 L5.70827293,11.9918758 L2.73735868,9.09595046 C2.42651451,8.79295232 2.4201541,8.29533503 2.72315226,7.98449089 C2.84380772,7.86071113 3.00190264,7.78015764 3.17296208,7.75530125 L7.27866472,7.15870771 L9.11479088,3.43831024 C9.30690313,3.04904833 9.77820027,2.88922695 10.1674622,3.08133919 C10.3224684,3.15783929 10.4479331,3.2833041 10.5244332,3.43831024 L12.360559,7.15870771 L16.4662613,7.75530125 C16.8958374,7.8177223 17.1934763,8.21656466 17.1310552,8.64614068 C17.1061988,8.81720011 17.0256453,8.97529501 16.9018656,9.09595046 L13.9309511,11.9918758 L14.6322883,16.0809882 C14.7056686,16.5088285 14.4183226,16.9151482 13.9904823,16.9885285 C13.820114,17.017749 13.6448646,16.9899919 13.4918644,16.9095549 L9.81961204,14.9789381 L6.14735972,16.9095549 Z" id="Combined-Shape" fill="#FFC300"></path>
            </g>
        </g>
    </g>
</svg>