<svg xmlns="http://www.w3.org/2000/svg" viewBox="0 0 509.97 76.77"><defs><style>.cls-1{fill:#fff}</style></defs><g id="图层_2" data-name="图层 2"><g id="图层_1-2" data-name="图层 1"><path d="M43.1 60.75C37 56.66 20.81 43.63 21.66 20.39c0 0 19.45-13.6 43.2-.24 0-6.67-.35-13.39-.51-15.77a48.41 48.41 0 0 0-9.28-3.1A52.84 52.84 0 0 0 41.57 0a50.94 50.94 0 0 0-13.42 2.32 46.32 46.32 0 0 0-11.62 5.49A40.15 40.15 0 0 0 7.42 16a33.8 33.8 0 0 0-5.89 10.73A30.77 30.77 0 0 0 .16 39.44a31.73 31.73 0 0 0 3.92 12.21 37 37 0 0 0 8 9.69c.83.72 1.68 1.41 2.56 2.06a3.19 3.19 0 0 1 1.62 2.33A4.42 4.42 0 0 1 16 67.3c-.15.58-.31 1.15-.46 1.73-.31 1.16-.62 2.31-.92 3.47-.15.55-.28 1.1-.44 1.64a3.06 3.06 0 0 0-.18 1.52 1.47 1.47 0 0 0 2.22.89c2-1.13 4.06-2.34 6.09-3.51L25 71.49c0-.08 5.52-2.72 18.1-10.74Z" class="cls-1"/><path d="M87 35.75a30.61 30.61 0 0 0-2.77-12.28 37 37 0 0 0-7-10.1 40.62 40.62 0 0 0-9.92-7.51c-.18-.1-.36-.18-.53-.28.37 6.05 1.12 22.29-1.07 29-2.56 7.87-7.53 19.33-21 27.95-6.32 4-10.88 6.73-13.91 8.45l.49.12c1.12.27 2.26.51 3.4.71a52.65 52.65 0 0 0 13.9.5 50.14 50.14 0 0 0 13.06-3 44.76 44.76 0 0 0 11.24-6.22 38.89 38.89 0 0 0 8.59-9 32.43 32.43 0 0 0 4.94-11.69 28.26 28.26 0 0 0 .58-6.65ZM121.39 31.4V67h-3.6V37.3a85.48 85.48 0 0 1-6 8.21l-1.66-3.81a91.68 91.68 0 0 0 12.53-21l3.16 1.73q-2.05 4.65-4.43 8.97Zm-7.34-7-2.74-2.59A104.93 104.93 0 0 0 123.34 4l3.17 1.94a110.77 110.77 0 0 1-12.46 18.47Zm27.58 31.83v-11h-8.57v4a36.16 36.16 0 0 1-.36 5.11 19.81 19.81 0 0 1-1.08 4.32 32.16 32.16 0 0 1-4.83 7.56l-3.16-1.87a26.2 26.2 0 0 0 4.53-6.7 16.56 16.56 0 0 0 1.08-4 45.52 45.52 0 0 0 .29-5.11v-6.7h15.55v13.1l5.47-4.75.94 3.1q-4.68 4-8.86 8.28l-2.3-2.38a3.79 3.79 0 0 0 1.3-2.95Zm-16-21.74V31h22.9v3.5Zm22.61-10.8h-20.15V8.14h3.17v12.24h5.33V2.67h3.16v17.71h5.33V8.14h3.17Zm9.22-7.92h14.68v3.59h-3.74a115.92 115.92 0 0 1-2.4 17.3 57.36 57.36 0 0 1-4 11.88 62.74 62.74 0 0 0 10.87 15l-2.73 3.17a75.4 75.4 0 0 1-10.3-14.21 80.63 80.63 0 0 1-11.66 14.75l-2.74-2.73a62.86 62.86 0 0 0 12.46-15.91 54.16 54.16 0 0 1-3.39-9.94 75 75 0 0 1-1.73-10.22c-.71 1.44-1.43 2.85-2.15 4.25l-2.16-3.46a90.91 90.91 0 0 0 8.28-26.14l3.52.44a114.5 114.5 0 0 1-2.8 12.24Zm-2.24 6.69a72.52 72.52 0 0 0 1.44 11.16 55.74 55.74 0 0 0 3.24 10.66 66.73 66.73 0 0 0 3.17-10.44 115 115 0 0 0 2.09-14.48h-8.86ZM186.91 27.58a104.62 104.62 0 0 1-6.48 10.73l-2.59-3.6a94.45 94.45 0 0 0 8.5-15.77A108.71 108.71 0 0 0 191.74 3l4 1.08a141.43 141.43 0 0 1-4.83 14.76v48.34h-4Zm9.15-12.17v-3.74h21.09q-1.93-4-4.1-8.06l4-1.23q2.37 4.68 4.68 9.29h17.86v3.74Zm3.67 10.81v-3.46h34.49v3.46Zm0 10.65v-3.53h34.49v3.53Zm.57 7.2h33.34V67h-4v-4.64h-25.3V67h-4Zm4 14.69h25.27V47.67h-25.23ZM279.5 55.66a50.15 50.15 0 0 1-11.8 5.91 148.73 148.73 0 0 1-20 5.47l-1.22-4.11a152.33 152.33 0 0 0 18-4.39 53.52 53.52 0 0 0 10.87-4.82q-9.43-4.24-18.94-8.14a113.6 113.6 0 0 0 6.48-10.94h-16.58v-3.82h18.51q2.94-5.89 5.47-12.09l4.17 1.27q-2.23 5.55-4.75 10.8h37.08v3.82h-12.74a62.54 62.54 0 0 1-5 10.8 34.41 34.41 0 0 1-5.91 7.27q10.72 5 21.31 10.22l-2.23 3.75q-11.22-5.81-22.72-11Zm-28.8-43.92h26.43q-2.31-4.24-4.68-8.49l4-1.44q2.73 4.81 5.47 9.72l-.72.21h21.46v13h-4v-9.18h-43.92v9.14h-4Zm28.37 39.17a29.37 29.37 0 0 0 5.69-6.48 47.62 47.62 0 0 0 4.53-9.79h-21.45a93.16 93.16 0 0 1-5.18 9.21q8.21 3.47 16.41 7.06ZM357.05 21.39a70.48 70.48 0 0 1-13-13.61 66.07 66.07 0 0 1-12.78 13.32 105.54 105.54 0 0 1-16.06 10.37l-1.94-3.74a93.1 93.1 0 0 0 16.2-10.3 57.33 57.33 0 0 0 12.46-13.68h4.32A58.56 58.56 0 0 0 357 16.14a86.52 86.52 0 0 0 17.76 11.66l-2.09 3.6a92.44 92.44 0 0 1-15.62-10.01Zm-10.8 25.35v13h26.42v3.88H315.5V59.7h26.43v-13h-20.45v-3.85h20.45V31h-18.65v-3.92h41.61V31h-18.64v11.85h20.44v3.89ZM409.39 44.29h-18.94v5.25h-4.25V17.07h23.19V2.45h4.25v14.62H437V49.4h-4.25v-5.11h-19.11v23h-4.25Zm-18.94-4h18.94V21.1h-18.94Zm23.19-19.19v19.15h19.08V21.1ZM452.73 52.42l-4-1.29a227.52 227.52 0 0 0 7.78-27.65l4.32.86a215.1 215.1 0 0 1-8.1 28.08Zm42.91 2.95a15.5 15.5 0 0 1-.79 4.54 8.29 8.29 0 0 1-1.37 2.16 7.71 7.71 0 0 1-3.24 1.66 24.91 24.91 0 0 1-5 .5h-9.8a20.56 20.56 0 0 1-4.82-.57 5.72 5.72 0 0 1-3-1.81 6 6 0 0 1-1.3-2.37 18 18 0 0 1-.58-5V17h4.4v36.65a12.46 12.46 0 0 0 .28 3.31 4.08 4.08 0 0 0 .8 1.58 3.83 3.83 0 0 0 1.94 1.16 11.39 11.39 0 0 0 3.17.28h8.06a14.32 14.32 0 0 0 3.53-.28 5.63 5.63 0 0 0 1.73-.73A4.11 4.11 0 0 0 491 57.1a14.6 14.6 0 0 0 .51-3.24c.14-3.55.24-7.12.29-10.73l4.46.87Zm-24-49.82 3.24-2.45q7.58 10.31 14.72 20.9l-3.6 2.65Q479 16 471.6 5.55ZM494.71 24l3.89-1.65Q504.42 35.65 510 49l-4 1.73Q500.54 37.3 494.71 24Z" class="cls-1"/></g></g></svg>