<svg width="20" height="20" viewBox="0 0 20 20" fill="none" xmlns="http://www.w3.org/2000/svg">
<path fill-rule="evenodd" clip-rule="evenodd" d="M3.13008 11.9709C1.82728 11.0313 1 9.6462 1 8.12038C1 5.28674 3.74961 3 7.14446 3C10.2052 3 12.7445 4.86586 13.207 7.30112C13.1789 7.30091 13.1508 7.30052 13.1228 7.30014C13.0404 7.299 12.9586 7.29788 12.8793 7.30112C9.77999 7.29678 7.27244 9.38233 7.26735 11.9709C7.27244 12.3884 7.34534 12.8079 7.47217 13.1998C7.36696 13.2114 7.25462 13.2144 7.14446 13.1998C6.44064 13.2144 5.76397 13.1142 5.13727 12.954C5.06528 12.9366 4.95706 12.9165 4.89221 12.9165C4.82737 12.9165 4.7313 12.9432 4.64571 12.995L3.29393 13.7733C3.24825 13.7976 3.21187 13.8143 3.17104 13.8143C3.05424 13.8143 2.9628 13.7228 2.96623 13.6094C2.96402 13.5772 2.97448 13.5469 2.98682 13.5112C2.99365 13.4914 3.00105 13.4699 3.00719 13.4456C3.01353 13.4205 3.03372 13.3356 3.06213 13.2161C3.11097 13.0108 3.18411 12.7033 3.25297 12.4215C3.26916 12.3553 3.27739 12.3049 3.27735 12.258C3.27739 12.1223 3.22604 12.0415 3.13008 11.9709ZM4.2363 6.48195C4.2363 6.93451 4.60303 7.30121 5.05556 7.30121C5.50809 7.30121 5.87482 6.93451 5.87482 6.48195C5.87482 6.02953 5.50809 5.66269 5.05556 5.66269C4.60303 5.66269 4.2363 6.02953 4.2363 6.48195ZM8.33215 6.48195C8.33215 6.93451 8.69884 7.30121 9.15141 7.30121C9.60382 7.30121 9.97067 6.93451 9.97067 6.48195C9.97067 6.02953 9.60382 5.66269 9.15141 5.66269C8.69884 5.66269 8.33215 6.02953 8.33215 6.48195ZM12.8793 7.71019C15.7071 7.71019 17.9997 9.61558 17.9997 11.9704C17.9997 13.2484 17.3098 14.4028 16.2383 15.1655C16.1436 15.2449 16.0999 15.3356 16.0999 15.4202C16.0999 15.5047 16.1054 15.5304 16.1154 15.5751C16.1865 15.8905 16.3237 16.3902 16.3357 16.4308C16.3377 16.4375 16.3398 16.4443 16.3419 16.451C16.3524 16.4844 16.3628 16.5179 16.3612 16.5582C16.3632 16.6458 16.287 16.7221 16.1973 16.7221C16.1555 16.7221 16.1254 16.7084 16.0745 16.6811L14.9684 16.0257C14.9653 16.0241 14.9622 16.0224 14.959 16.0207C14.8834 15.9808 14.7969 15.9351 14.698 15.9545C14.6001 15.9737 14.5981 15.9742 14.5644 15.9832L14.5588 15.9847C14.0277 16.1388 13.4635 16.222 12.8793 16.2305C10.0515 16.222 7.75895 14.3166 7.75895 11.9704C7.75895 9.61558 10.0515 7.71019 12.8793 7.71019ZM10.5025 10.5575C10.5025 10.9394 10.7961 11.2328 11.1381 11.2328C11.5201 11.2328 11.8134 10.9394 11.8134 10.5575C11.8134 10.2155 11.5201 9.922 11.1381 9.922C10.7961 9.922 10.5025 10.2155 10.5025 10.5575ZM13.9027 10.5575C13.9027 10.9394 14.1963 11.2328 14.5383 11.2328C14.9203 11.2328 15.2135 10.9394 15.2135 10.5575C15.2135 10.2155 14.9203 9.922 14.5383 9.922C14.1963 9.922 13.9027 10.2155 13.9027 10.5575Z" fill="#1EBD43"/>
</svg>
