<?xml version="1.0" encoding="UTF-8"?>
<svg width="84px" height="84px" viewBox="0 0 84 84" version="1.1" xmlns="http://www.w3.org/2000/svg" xmlns:xlink="http://www.w3.org/1999/xlink">
    <!-- Generator: Sketch 52.5 (67469) - http://www.bohemiancoding.com/sketch -->
    <title>1811</title>
    <desc>Created with Sketch.</desc>
    <defs>
        <linearGradient x1="50%" y1="4.11623916%" x2="50%" y2="100%" id="linearGradient-1">
            <stop stop-color="#DACBA4" offset="0%"></stop>
            <stop stop-color="#C2A66B" offset="100%"></stop>
        </linearGradient>
        <linearGradient x1="50%" y1="100%" x2="50%" y2="3.061617e-15%" id="linearGradient-2">
            <stop stop-color="#EFDFB4" offset="0%"></stop>
            <stop stop-color="#AD945E" offset="100%"></stop>
        </linearGradient>
        <circle id="path-3" cx="38" cy="38" r="37.1428571"></circle>
        <filter x="-11.4%" y="-8.8%" width="122.9%" height="122.9%" filterUnits="objectBoundingBox" id="filter-4">
            <feOffset dx="0" dy="2" in="SourceAlpha" result="shadowOffsetOuter1"></feOffset>
            <feGaussianBlur stdDeviation="2.5" in="shadowOffsetOuter1" result="shadowBlurOuter1"></feGaussianBlur>
            <feComposite in="shadowBlurOuter1" in2="SourceAlpha" operator="out" result="shadowBlurOuter1"></feComposite>
            <feColorMatrix values="0 0 0 0 0.780213648   0 0 0 0 0.745039443   0 0 0 0 0.660152362  0 0 0 1 0" type="matrix" in="shadowBlurOuter1"></feColorMatrix>
        </filter>
        <path d="M60.1641143,40.3282286 L55.2393143,40.3282286 C55.2105141,41.614635 54.8889174,42.7090241 54.2745143,43.6114286 C53.6601112,44.5138331 52.680921,45.3346249 51.3369143,46.0738286 L51.1497143,45.8722286 C52.2153196,45.0466244 52.9857119,44.2210327 53.4609143,43.3954286 C53.9361167,42.5698244 54.1737143,41.2690375 54.1737143,39.4930286 L54.1737143,34.8850286 C54.1737143,34.3858261 54.1593144,33.8770312 54.1305143,33.3586286 L55.2825143,34.0066286 L59.7897143,34.0066286 L60.4665143,33.1426286 L61.6905143,34.1074286 C61.7577146,34.1746289 61.7913143,34.2298284 61.7913143,34.2730286 C61.7913143,34.3162288 61.7385148,34.3666283 61.6329143,34.4242286 L61.2009143,34.6258286 L61.2009143,44.3170286 C61.2009143,44.7298306 61.1361149,45.0346276 61.0065143,45.2314286 C60.8769136,45.4282296 60.6513159,45.6202276 60.3297143,45.8074286 C60.0081127,45.9946295 59.7993148,46.0882286 59.7033143,46.0882286 C59.6073138,46.0882286 59.5449144,46.0114293 59.5161143,45.8578286 C59.4777141,45.4738267 59.2929159,45.2026294 58.9617143,45.0442286 C58.6305126,44.8858278 58.1289176,44.7394292 57.4569143,44.6050286 L57.4569143,44.3314286 C58.1385177,44.3794288 58.6929121,44.4034286 59.1201143,44.4034286 C59.5473164,44.4034286 59.8281136,44.360229 59.9625143,44.2738286 C60.096915,44.1874281 60.1641143,44.0338297 60.1641143,43.8130286 L60.1641143,40.3282286 Z M55.2393143,36.9442286 L60.1641143,36.9442286 L60.1641143,34.4098286 L55.2393143,34.4098286 L55.2393143,36.9442286 Z M60.1641143,37.3474286 L55.2393143,37.3474286 L55.2393143,39.9250286 L60.1641143,39.9250286 L60.1641143,37.3474286 Z" id="path-5"></path>
        <filter x="-9.4%" y="-7.7%" width="118.8%" height="115.4%" filterUnits="objectBoundingBox" id="filter-6">
            <feGaussianBlur stdDeviation="0.5" in="SourceAlpha" result="shadowBlurInner1"></feGaussianBlur>
            <feOffset dx="0" dy="1" in="shadowBlurInner1" result="shadowOffsetInner1"></feOffset>
            <feComposite in="shadowOffsetInner1" in2="SourceAlpha" operator="arithmetic" k2="-1" k3="1" result="shadowInnerInner1"></feComposite>
            <feColorMatrix values="0 0 0 0 0.303199405   0 0 0 0 0.303199405   0 0 0 0 0.303199405  0 0 0 0.153560915 0" type="matrix" in="shadowInnerInner1"></feColorMatrix>
        </filter>
        <path d="M9.87109375,23.8085938 L0.96484375,23.8085938 L1.11132812,23.046875 L1.93164062,23.046875 C2.88867666,23.046875 3.55273252,22.8955093 3.92382812,22.5927734 C4.29492373,22.2900375 4.5683585,21.6894576 4.74414062,20.7910156 L4.97851562,19.7070312 L7.49804688,7.4609375 L7.67382813,6.43554688 C7.79101621,5.92773184 7.84960938,5.53711074 7.84960938,5.26367188 C7.84960938,4.75585684 7.6445333,4.50195312 7.234375,4.50195312 C6.92187344,4.50195312 6.46289365,4.65820156 5.85742188,4.97070312 L3.42578125,6.2890625 L3.27929688,5.64453125 L3.8359375,5.234375 L7.1171875,2.94921875 C8.56250723,1.93358867 9.8027292,1.00586357 10.8378906,0.166015625 L11.5996094,0.166015625 C11.1113257,1.76758613 10.5546906,4.1113127 9.9296875,7.19726562 L7.3515625,19.7070312 C7.15624902,20.7226613 7.05859375,21.4355448 7.05859375,21.8457031 C7.05859375,22.3339868 7.18066284,22.6562492 7.42480469,22.8125 C7.66894653,22.9687508 8.18163672,23.046875 8.96289062,23.046875 L10.0175781,23.046875 L9.87109375,23.8085938 Z M21.4140625,23.8085938 L12.5078125,23.8085938 L12.6542969,23.046875 L13.4746094,23.046875 C14.4316454,23.046875 15.0957013,22.8955093 15.4667969,22.5927734 C15.8378925,22.2900375 16.1113272,21.6894576 16.2871094,20.7910156 L16.5214844,19.7070312 L19.0410156,7.4609375 L19.2167969,6.43554688 C19.333985,5.92773184 19.3925781,5.53711074 19.3925781,5.26367188 C19.3925781,4.75585684 19.1875021,4.50195312 18.7773438,4.50195312 C18.4648422,4.50195312 18.0058624,4.65820156 17.4003906,4.97070312 L14.96875,6.2890625 L14.8222656,5.64453125 L15.3789062,5.234375 L18.6601562,2.94921875 C20.105476,1.93358867 21.3456979,1.00586357 22.3808594,0.166015625 L23.1425781,0.166015625 C22.6542944,1.76758613 22.0976594,4.1113127 21.4726562,7.19726562 L18.8945312,19.7070312 C18.6992178,20.7226613 18.6015625,21.4355448 18.6015625,21.8457031 C18.6015625,22.3339868 18.7236316,22.6562492 18.9677734,22.8125 C19.2119153,22.9687508 19.7246055,23.046875 20.5058594,23.046875 L21.5605469,23.046875 L21.4140625,23.8085938 Z" id="path-7"></path>
        <filter x="-4.5%" y="-4.2%" width="109.0%" height="108.5%" filterUnits="objectBoundingBox" id="filter-8">
            <feGaussianBlur stdDeviation="0.5" in="SourceAlpha" result="shadowBlurInner1"></feGaussianBlur>
            <feOffset dx="0" dy="1" in="shadowBlurInner1" result="shadowOffsetInner1"></feOffset>
            <feComposite in="shadowOffsetInner1" in2="SourceAlpha" operator="arithmetic" k2="-1" k3="1" result="shadowInnerInner1"></feComposite>
            <feColorMatrix values="0 0 0 0 0.303199405   0 0 0 0 0.303199405   0 0 0 0 0.303199405  0 0 0 0.153560915 0" type="matrix" in="shadowInnerInner1"></feColorMatrix>
        </filter>
        <path d="M5.67382812,60.2792969 L5.078125,62.0566406 C4.77864434,62.1152347 4.45963711,62.1445312 4.12109375,62.1445312 C3.79557129,62.1445312 3.4309916,62.121745 3.02734375,62.0761719 C2.29817344,61.9980465 1.76432461,61.9589844 1.42578125,61.9589844 C0.976560254,61.9589844 0.50130459,62.0208327 0,62.1445312 L0,61.8710938 C0.423179199,61.584634 0.882158984,61.2493509 1.37695312,60.8652344 C1.87174727,60.4811179 2.39257539,60.0514347 2.93945312,59.5761719 C3.48633086,59.0878882 3.91764165,58.6516946 4.23339844,58.2675781 C4.54915522,57.8834616 4.78027271,57.510744 4.92675781,57.1494141 C5.07324292,56.7880841 5.14648438,56.4153665 5.14648438,56.03125 C5.14648438,55.5039036 5.01139458,55.0823583 4.74121094,54.7666016 C4.47102729,54.4508448 4.11133037,54.2929688 3.66210938,54.2929688 C3.21939883,54.2929688 2.83203291,54.4394517 2.5,54.7324219 C2.16796709,55.0253921 2.00195312,55.3704407 2.00195312,55.7675781 C2.00195312,55.9628916 2.05566353,56.1370435 2.16308594,56.2900391 C2.27050835,56.4430346 2.40885332,56.5455727 2.578125,56.5976562 C2.47395781,56.7799488 2.31119902,56.8710938 2.08984375,56.8710938 C1.87499893,56.8710938 1.69759185,56.7962247 1.55761719,56.6464844 C1.41764253,56.496744 1.34765625,56.3079438 1.34765625,56.0800781 C1.34765625,55.5657526 1.61783584,55.090497 2.15820312,54.6542969 C2.69857041,54.2180968 3.28450205,54 3.91601562,54 C4.54101875,54 5.04394341,54.1822898 5.42480469,54.546875 C5.80566597,54.9114602 5.99609375,55.3932262 5.99609375,55.9921875 C5.99609375,56.4544294 5.88704536,56.8873678 5.66894531,57.2910156 C5.45084526,57.6946635 5.08463799,58.1438777 4.5703125,58.6386719 C4.10807061,59.0878929 3.32682842,59.7161418 2.2265625,60.5234375 C1.72525791,60.9010436 1.40299551,61.1451817 1.25976562,61.2558594 C1.53320449,61.2102862 1.81640479,61.1875 2.109375,61.1875 C2.34375117,61.1875 2.5683583,61.1972655 2.78320312,61.2167969 L3.57421875,61.2753906 C3.79557402,61.2884115 3.95833281,61.2949219 4.0625,61.2949219 C4.42057471,61.2949219 4.71028535,61.2167977 4.93164062,61.0605469 C5.1529959,60.9042961 5.35156162,60.643882 5.52734375,60.2792969 L5.67382812,60.2792969 Z M12.9111545,56.6855469 C12.9111545,57.3951858 12.7728095,58.1422487 12.4961154,58.9267578 C12.2194214,59.7112669 11.8532141,60.3802056 11.3974826,60.9335938 C10.6813332,61.7994835 9.92287726,62.2324219 9.12209201,62.2324219 C8.50359933,62.2324219 8.00392985,61.9834009 7.62306857,61.4853516 C7.24220729,60.9873022 7.05177951,60.3216187 7.05177951,59.4882812 C7.05177951,58.7330691 7.20965553,57.9485718 7.52541232,57.1347656 C7.84116911,56.3209595 8.26596955,55.6145863 8.79982638,55.015625 C9.39878771,54.3450487 10.0628436,54.0097656 10.7920139,54.0097656 C11.417017,54.0097656 11.926452,54.2555314 12.3203342,54.7470703 C12.7142164,55.2386092 12.9111545,55.8847616 12.9111545,56.6855469 Z M12.0615451,56.1484375 C12.0615451,55.5364553 11.9492416,55.0644548 11.7246311,54.7324219 C11.5000206,54.400389 11.1858961,54.234375 10.7822483,54.234375 C9.94240031,54.234375 9.22626164,54.9830654 8.63381076,56.4804688 C8.39292414,57.0989614 8.20412394,57.7320931 8.06740451,58.3798828 C7.93068507,59.0276725 7.86232638,59.5924455 7.86232638,60.0742188 C7.86232638,60.686201 7.97625754,61.1614566 8.20412326,61.5 C8.43198898,61.8385434 8.74774103,62.0078125 9.15138888,62.0078125 C9.54201584,62.0078125 9.90008517,61.8450537 10.2256076,61.5195312 C10.5511301,61.1940088 10.8701373,60.6829462 11.1826389,59.9863281 C11.4560778,59.3873668 11.6709194,58.7412144 11.8271701,58.0478516 C11.9834209,57.3544887 12.0615451,56.721357 12.0615451,56.1484375 Z M16.2324653,62.0664062 L13.2637153,62.0664062 L13.3125434,61.8125 L13.5859809,61.8125 C13.9049929,61.8125 14.1263449,61.7620448 14.2500434,61.6611328 C14.3737419,61.5602208 14.4648868,61.3600275 14.5234809,61.0605469 L14.6016059,60.6992188 L15.4414496,56.6171875 L15.5000434,56.2753906 C15.5391061,56.1061189 15.5586371,55.9759119 15.5586371,55.8847656 C15.5586371,55.7154939 15.4902785,55.6308594 15.353559,55.6308594 C15.2493918,55.6308594 15.0963986,55.6829422 14.8945746,55.7871094 L14.0840278,56.2265625 L14.0351996,56.0117188 L14.2207465,55.875 L15.3144965,55.1132812 C15.7962698,54.7747379 16.2096771,54.4654962 16.5547309,54.1855469 L16.8086371,54.1855469 C16.6458759,54.7194037 16.4603309,55.5006459 16.2519965,56.5292969 L15.3926215,60.6992188 C15.327517,61.0377621 15.2949653,61.2753899 15.2949653,61.4121094 C15.2949653,61.5748706 15.335655,61.6822914 15.4170356,61.734375 C15.4984162,61.7864586 15.6693129,61.8125 15.9297309,61.8125 L16.2812934,61.8125 L16.2324653,62.0664062 Z M19.8858073,57.7011719 C19.5798162,57.4147121 19.3666021,57.1510429 19.2461588,56.9101562 C19.1257155,56.6692696 19.0654948,56.4023452 19.0654948,56.109375 C19.0654948,55.7252585 19.1664052,55.3769547 19.3682292,55.0644531 C19.5700531,54.7519516 19.8483706,54.5045582 20.2031901,54.3222656 C20.5580096,54.139973 20.9535134,54.0488281 21.3897135,54.0488281 C21.7933614,54.0488281 22.1563135,54.1253248 22.4785807,54.2783203 C22.8008479,54.4313159 23.0514965,54.6363919 23.2305338,54.8935547 C23.4095712,55.1507174 23.4990885,55.4453108 23.4990885,55.7773438 C23.4990885,56.0898453 23.4225919,56.3860663 23.2695963,56.6660156 C23.1166008,56.9459649 22.8968764,57.2014962 22.6104167,57.4326172 C22.3239569,57.6637381 21.991929,57.8476556 21.6143229,57.984375 L21.7119792,58.0625 C22.174221,58.4270852 22.4883455,58.7379544 22.654362,58.9951172 C22.8203784,59.2522799 22.9033854,59.559894 22.9033854,59.9179688 C22.9033854,60.5625032 22.6445989,61.10449 22.1270182,61.5439453 C21.6094375,61.9834006 20.9665403,62.203125 20.1983073,62.203125 C19.4496056,62.203125 18.8408877,62.0126972 18.3721354,61.6318359 C17.9033831,61.2509747 17.6690104,60.7578155 17.6690104,60.1523438 C17.6690104,59.6315078 17.8675761,59.1497418 18.2647135,58.7070312 C18.6618509,58.2643207 19.2022101,57.9290376 19.8858073,57.7011719 Z M20.0713542,57.8574219 C19.5700496,58.0071622 19.1664078,58.2708314 18.8604167,58.6484375 C18.5544255,59.0260436 18.4014323,59.4589819 18.4014323,59.9472656 C18.4014323,60.3118508 18.4925772,60.6471339 18.6748698,60.953125 C18.8571624,61.2591161 19.1029281,61.5016267 19.4121745,61.6806641 C19.7214208,61.8597014 20.0615867,61.9492188 20.4326823,61.9492188 C20.9339869,61.9492188 21.3506494,61.7929703 21.6826823,61.4804688 C22.0147152,61.1679672 22.1807292,60.7740909 22.1807292,60.2988281 C22.1807292,59.7910131 21.9235703,59.3190126 21.4092448,58.8828125 C21.0121074,58.5312482 20.5661483,58.1894548 20.0713542,57.8574219 Z M21.4092448,57.8183594 C21.6631523,57.7337235 21.9007801,57.5888682 22.1221354,57.3837891 C22.3434907,57.1787099 22.516015,56.9410821 22.6397135,56.6708984 C22.7634121,56.4007148 22.8252604,56.1289076 22.8252604,55.8554688 C22.8252604,55.4062478 22.6738947,55.0335301 22.3711588,54.7373047 C22.0684229,54.4410792 21.7022157,54.2929688 21.272526,54.2929688 C20.9860663,54.2929688 20.7175143,54.3548171 20.466862,54.4785156 C20.2162097,54.6022142 20.0176439,54.7714833 19.8711588,54.9863281 C19.7246737,55.2011729 19.6514323,55.4322904 19.6514323,55.6796875 C19.6514323,56.3307324 20.2373639,57.0436159 21.4092448,57.8183594 Z" id="path-9"></path>
        <filter x="-4.3%" y="-12.1%" width="108.5%" height="124.3%" filterUnits="objectBoundingBox" id="filter-10">
            <feGaussianBlur stdDeviation="0.5" in="SourceAlpha" result="shadowBlurInner1"></feGaussianBlur>
            <feOffset dx="0" dy="1" in="shadowBlurInner1" result="shadowOffsetInner1"></feOffset>
            <feComposite in="shadowOffsetInner1" in2="SourceAlpha" operator="arithmetic" k2="-1" k3="1" result="shadowInnerInner1"></feComposite>
            <feColorMatrix values="0 0 0 0 0.303199405   0 0 0 0 0.303199405   0 0 0 0 0.303199405  0 0 0 0.153560915 0" type="matrix" in="shadowInnerInner1"></feColorMatrix>
        </filter>
    </defs>
    <g id="=slice=" stroke="none" stroke-width="1" fill="none" fill-rule="evenodd">
        <g id="Group-27-Copy-2" transform="translate(4.000000, 2.000000)">
            <g id="Oval" fill-rule="nonzero">
                <use fill="black" fill-opacity="1" filter="url(#filter-4)" xlink:href="#path-3"></use>
                <circle stroke="url(#linearGradient-2)" stroke-width="4.28571429" stroke-linejoin="square" fill="url(#linearGradient-1)" fill-rule="evenodd" cx="38" cy="38" r="35"></circle>
                <circle stroke="#D1C092" stroke-width="2.85714286" cx="38" cy="38" r="38.5714286"></circle>
            </g>
            <g id="月">
                <use fill="#FFFFFF" fill-rule="evenodd" xlink:href="#path-5"></use>
                <use fill="#3D3226" fill-rule="evenodd" xlink:href="#path-5"></use>
                <use fill="black" fill-opacity="1" filter="url(#filter-6)" xlink:href="#path-5"></use>
            </g>
            <g id="11" transform="translate(23.000000, 22.000000)">
                <g>
                    <use fill="#FFFFFF" fill-rule="evenodd" xlink:href="#path-7"></use>
                    <use fill="#3D3226" fill-rule="evenodd" xlink:href="#path-7"></use>
                    <use fill="black" fill-opacity="1" filter="url(#filter-8)" xlink:href="#path-7"></use>
                </g>
            </g>
        </g>
        <g id="Group-27-Copy-3" transform="translate(30.000000, 2.000000)">
            <g id="2018">
                <use fill="#FFFFFF" fill-rule="evenodd" xlink:href="#path-9"></use>
                <use fill="#3D3226" fill-rule="evenodd" xlink:href="#path-9"></use>
                <use fill="black" fill-opacity="1" filter="url(#filter-10)" xlink:href="#path-9"></use>
            </g>
        </g>
    </g>
</svg>