<?xml version="1.0" encoding="UTF-8"?>
<svg width="84px" height="84px" viewBox="0 0 84 84" version="1.1" xmlns="http://www.w3.org/2000/svg" xmlns:xlink="http://www.w3.org/1999/xlink">
    <!-- Generator: Sketch 52.5 (67469) - http://www.bohemiancoding.com/sketch -->
    <title>1812</title>
    <desc>Created with Sketch.</desc>
    <defs>
        <linearGradient x1="50%" y1="4.11623916%" x2="50%" y2="100%" id="linearGradient-1">
            <stop stop-color="#DACBA4" offset="0%"></stop>
            <stop stop-color="#C2A66B" offset="100%"></stop>
        </linearGradient>
        <linearGradient x1="50%" y1="100%" x2="50%" y2="3.061617e-15%" id="linearGradient-2">
            <stop stop-color="#EFDFB4" offset="0%"></stop>
            <stop stop-color="#AD945E" offset="100%"></stop>
        </linearGradient>
        <circle id="path-3" cx="112" cy="38" r="37.1428571"></circle>
        <filter x="-11.4%" y="-8.8%" width="122.9%" height="122.9%" filterUnits="objectBoundingBox" id="filter-4">
            <feOffset dx="0" dy="2" in="SourceAlpha" result="shadowOffsetOuter1"></feOffset>
            <feGaussianBlur stdDeviation="2.5" in="shadowOffsetOuter1" result="shadowBlurOuter1"></feGaussianBlur>
            <feComposite in="shadowBlurOuter1" in2="SourceAlpha" operator="out" result="shadowBlurOuter1"></feComposite>
            <feColorMatrix values="0 0 0 0 0.780213648   0 0 0 0 0.745039443   0 0 0 0 0.660152362  0 0 0 1 0" type="matrix" in="shadowBlurOuter1"></feColorMatrix>
        </filter>
        <path d="M134.164114,40.3282286 L129.239314,40.3282286 C129.210514,41.614635 128.888917,42.7090241 128.274514,43.6114286 C127.660111,44.5138331 126.680921,45.3346249 125.336914,46.0738286 L125.149714,45.8722286 C126.21532,45.0466244 126.985712,44.2210327 127.460914,43.3954286 C127.936117,42.5698244 128.173714,41.2690375 128.173714,39.4930286 L128.173714,34.8850286 C128.173714,34.3858261 128.159314,33.8770312 128.130514,33.3586286 L129.282514,34.0066286 L133.789714,34.0066286 L134.466514,33.1426286 L135.690514,34.1074286 C135.757715,34.1746289 135.791314,34.2298284 135.791314,34.2730286 C135.791314,34.3162288 135.738515,34.3666283 135.632914,34.4242286 L135.200914,34.6258286 L135.200914,44.3170286 C135.200914,44.7298306 135.136115,45.0346276 135.006514,45.2314286 C134.876914,45.4282296 134.651316,45.6202276 134.329714,45.8074286 C134.008113,45.9946295 133.799315,46.0882286 133.703314,46.0882286 C133.607314,46.0882286 133.544914,46.0114293 133.516114,45.8578286 C133.477714,45.4738267 133.292916,45.2026294 132.961714,45.0442286 C132.630513,44.8858278 132.128918,44.7394292 131.456914,44.6050286 L131.456914,44.3314286 C132.138518,44.3794288 132.692912,44.4034286 133.120114,44.4034286 C133.547316,44.4034286 133.828114,44.360229 133.962514,44.2738286 C134.096915,44.1874281 134.164114,44.0338297 134.164114,43.8130286 L134.164114,40.3282286 Z M129.239314,36.9442286 L134.164114,36.9442286 L134.164114,34.4098286 L129.239314,34.4098286 L129.239314,36.9442286 Z M134.164114,37.3474286 L129.239314,37.3474286 L129.239314,39.9250286 L134.164114,39.9250286 L134.164114,37.3474286 Z" id="path-5"></path>
        <filter x="-9.4%" y="-7.7%" width="118.8%" height="115.4%" filterUnits="objectBoundingBox" id="filter-6">
            <feGaussianBlur stdDeviation="0.5" in="SourceAlpha" result="shadowBlurInner1"></feGaussianBlur>
            <feOffset dx="0" dy="1" in="shadowBlurInner1" result="shadowOffsetInner1"></feOffset>
            <feComposite in="shadowOffsetInner1" in2="SourceAlpha" operator="arithmetic" k2="-1" k3="1" result="shadowInnerInner1"></feComposite>
            <feColorMatrix values="0 0 0 0 0.303199405   0 0 0 0 0.303199405   0 0 0 0 0.303199405  0 0 0 0.153560915 0" type="matrix" in="shadowInnerInner1"></feColorMatrix>
        </filter>
        <path d="M104.913043,60.2128906 L104.317339,61.9902344 C104.017859,62.0488284 103.698852,62.078125 103.360308,62.078125 C103.034786,62.078125 102.670206,62.0553388 102.266558,62.0097656 C101.537388,61.9316402 101.003539,61.8925781 100.664996,61.8925781 C100.215775,61.8925781 99.740519,61.9544265 99.2392144,62.078125 L99.2392144,61.8046875 C99.6623936,61.5182277 100.121373,61.1829446 100.616168,60.7988281 C101.110962,60.4147116 101.63179,59.9850284 102.178668,59.5097656 C102.725545,59.0214819 103.156856,58.5852884 103.472613,58.2011719 C103.78837,57.8170554 104.019487,57.4443377 104.165972,57.0830078 C104.312457,56.7216779 104.385699,56.3489603 104.385699,55.9648438 C104.385699,55.4374974 104.250609,55.0159521 103.980425,54.7001953 C103.710242,54.3844385 103.350545,54.2265625 102.901324,54.2265625 C102.458613,54.2265625 102.071247,54.3730454 101.739214,54.6660156 C101.407182,54.9589858 101.241168,55.3040345 101.241168,55.7011719 C101.241168,55.8964854 101.294878,56.0706373 101.4023,56.2236328 C101.509723,56.3766284 101.648068,56.4791664 101.817339,56.53125 C101.713172,56.7135426 101.550413,56.8046875 101.329058,56.8046875 C101.114213,56.8046875 100.936806,56.7298185 100.796832,56.5800781 C100.656857,56.4303378 100.586871,56.2415376 100.586871,56.0136719 C100.586871,55.4993464 100.85705,55.0240907 101.397418,54.5878906 C101.937785,54.1516905 102.523716,53.9335938 103.15523,53.9335938 C103.780233,53.9335938 104.283158,54.1158836 104.664019,54.4804688 C105.04488,54.8450539 105.235308,55.3268199 105.235308,55.9257812 C105.235308,56.3880231 105.12626,56.8209615 104.90816,57.2246094 C104.69006,57.6282572 104.323852,58.0774715 103.809527,58.5722656 C103.347285,59.0214866 102.566043,59.6497355 101.465777,60.4570312 C100.964472,60.8346373 100.64221,61.0787755 100.49898,61.1894531 C100.772419,61.14388 101.055619,61.1210938 101.348589,61.1210938 C101.582966,61.1210938 101.807573,61.1308593 102.022418,61.1503906 L102.813433,61.2089844 C103.034788,61.2220053 103.197547,61.2285156 103.301714,61.2285156 C103.659789,61.2285156 103.9495,61.1503914 104.170855,60.9941406 C104.39221,60.8378898 104.590776,60.5774758 104.766558,60.2128906 L104.913043,60.2128906 Z M112.150369,56.6191406 C112.150369,57.3287796 112.012024,58.0758424 111.73533,58.8603516 C111.458636,59.6448607 111.092428,60.3137993 110.636697,60.8671875 C109.920548,61.7330772 109.162092,62.1660156 108.361306,62.1660156 C107.742814,62.1660156 107.243144,61.9169947 106.862283,61.4189453 C106.481422,60.9208959 106.290994,60.2552125 106.290994,59.421875 C106.290994,58.6666629 106.44887,57.8821655 106.764627,57.0683594 C107.080384,56.2545532 107.505184,55.5481801 108.039041,54.9492188 C108.638002,54.2786425 109.302058,53.9433594 110.031228,53.9433594 C110.656231,53.9433594 111.165666,54.1891251 111.559549,54.6806641 C111.953431,55.172203 112.150369,55.8183554 112.150369,56.6191406 Z M111.30076,56.0820312 C111.30076,55.470049 111.188456,54.9980485 110.963845,54.6660156 C110.739235,54.3339827 110.425111,54.1679688 110.021463,54.1679688 C109.181615,54.1679688 108.465476,54.9166592 107.873025,56.4140625 C107.632139,57.0325552 107.443338,57.6656869 107.306619,58.3134766 C107.169899,58.9612663 107.101541,59.5260393 107.101541,60.0078125 C107.101541,60.6197947 107.215472,61.0950504 107.443338,61.4335938 C107.671203,61.7721371 107.986955,61.9414062 108.390603,61.9414062 C108.78123,61.9414062 109.1393,61.7786475 109.464822,61.453125 C109.790345,61.1276025 110.109352,60.6165399 110.421853,59.9199219 C110.695292,59.3209605 110.910134,58.6748082 111.066385,57.9814453 C111.222635,57.2880825 111.30076,56.6549508 111.30076,56.0820312 Z M115.47168,62 L112.50293,62 L112.551758,61.7460938 L112.825195,61.7460938 C113.144207,61.7460938 113.365559,61.6956385 113.489258,61.5947266 C113.612956,61.4938146 113.704101,61.2936213 113.762695,60.9941406 L113.84082,60.6328125 L114.680664,56.5507812 L114.739258,56.2089844 C114.778321,56.0397127 114.797852,55.9095057 114.797852,55.8183594 C114.797852,55.6490877 114.729493,55.5644531 114.592773,55.5644531 C114.488606,55.5644531 114.335613,55.6165359 114.133789,55.7207031 L113.323242,56.1601562 L113.274414,55.9453125 L113.459961,55.8085938 L114.553711,55.046875 C115.035484,54.7083316 115.448892,54.3990899 115.793945,54.1191406 L116.047852,54.1191406 C115.88509,54.6529975 115.699545,55.4342396 115.491211,56.4628906 L114.631836,60.6328125 C114.566731,60.9713559 114.53418,61.2089837 114.53418,61.3457031 C114.53418,61.5084644 114.574869,61.6158852 114.65625,61.6679688 C114.737631,61.7200523 114.908527,61.7460938 115.168945,61.7460938 L115.520508,61.7460938 L115.47168,62 Z M119.125022,57.6347656 C118.819031,57.3483059 118.605817,57.0846366 118.485373,56.84375 C118.36493,56.6028634 118.304709,56.335939 118.304709,56.0429688 C118.304709,55.6588522 118.40562,55.3105484 118.607444,54.9980469 C118.809267,54.6855453 119.087585,54.438152 119.442405,54.2558594 C119.797224,54.0735668 120.192728,53.9824219 120.628928,53.9824219 C121.032576,53.9824219 121.395528,54.0589185 121.717795,54.2119141 C122.040062,54.3649096 122.290711,54.5699857 122.469748,54.8271484 C122.648786,55.0843112 122.738303,55.3789046 122.738303,55.7109375 C122.738303,56.0234391 122.661806,56.3196601 122.508811,56.5996094 C122.355815,56.8795587 122.136091,57.13509 121.849631,57.3662109 C121.563171,57.5973319 121.231143,57.7812493 120.853537,57.9179688 L120.951194,57.9960938 C121.413435,58.3606789 121.72756,58.6715482 121.893576,58.9287109 C122.059593,59.1858737 122.1426,59.4934878 122.1426,59.8515625 C122.1426,60.496097 121.883813,61.0380837 121.366233,61.4775391 C120.848652,61.9169944 120.205755,62.1367188 119.437522,62.1367188 C118.68882,62.1367188 118.080102,61.946291 117.61135,61.5654297 C117.142597,61.1845684 116.908225,60.6914093 116.908225,60.0859375 C116.908225,59.5651016 117.106791,59.0833355 117.503928,58.640625 C117.901065,58.1979145 118.441425,57.8626313 119.125022,57.6347656 Z M119.310569,57.7910156 C118.809264,57.940756 118.405622,58.2044252 118.099631,58.5820312 C117.79364,58.9596373 117.640647,59.3925757 117.640647,59.8808594 C117.640647,60.2454445 117.731792,60.5807276 117.914084,60.8867188 C118.096377,61.1927099 118.342143,61.4352205 118.651389,61.6142578 C118.960635,61.7932952 119.300801,61.8828125 119.671897,61.8828125 C120.173201,61.8828125 120.589864,61.7265641 120.921897,61.4140625 C121.25393,61.1015609 121.419944,60.7076847 121.419944,60.2324219 C121.419944,59.7246068 121.162785,59.2526063 120.648459,58.8164062 C120.251322,58.464842 119.805363,58.1230485 119.310569,57.7910156 Z M120.648459,57.7519531 C120.902367,57.6673173 121.139995,57.522462 121.36135,57.3173828 C121.582705,57.1123037 121.755229,56.8746758 121.878928,56.6044922 C122.002626,56.3343085 122.064475,56.0625014 122.064475,55.7890625 C122.064475,55.3398415 121.913109,54.9671239 121.610373,54.6708984 C121.307637,54.374673 120.94143,54.2265625 120.51174,54.2265625 C120.225281,54.2265625 119.956729,54.2884108 119.706076,54.4121094 C119.455424,54.5358079 119.256858,54.7050771 119.110373,54.9199219 C118.963888,55.1347667 118.890647,55.3658842 118.890647,55.6132812 C118.890647,56.2643262 119.476578,56.9772097 120.648459,57.7519531 Z" id="path-7"></path>
        <filter x="-4.3%" y="-12.1%" width="108.5%" height="124.3%" filterUnits="objectBoundingBox" id="filter-8">
            <feGaussianBlur stdDeviation="0.5" in="SourceAlpha" result="shadowBlurInner1"></feGaussianBlur>
            <feOffset dx="0" dy="1" in="shadowBlurInner1" result="shadowOffsetInner1"></feOffset>
            <feComposite in="shadowOffsetInner1" in2="SourceAlpha" operator="arithmetic" k2="-1" k3="1" result="shadowInnerInner1"></feComposite>
            <feColorMatrix values="0 0 0 0 0.303199405   0 0 0 0 0.303199405   0 0 0 0 0.303199405  0 0 0 0.153560915 0" type="matrix" in="shadowInnerInner1"></feColorMatrix>
        </filter>
        <path d="M9.79492188,24.6542969 L0.888671875,24.6542969 L1.03515625,23.8925781 L1.85546875,23.8925781 C2.81250479,23.8925781 3.47656064,23.7412125 3.84765625,23.4384766 C4.21875186,23.1357407 4.49218662,22.5351607 4.66796875,21.6367188 L4.90234375,20.5527344 L7.421875,8.30664062 L7.59765625,7.28125 C7.71484434,6.77343496 7.7734375,6.38281387 7.7734375,6.109375 C7.7734375,5.60155996 7.56836143,5.34765625 7.15820312,5.34765625 C6.84570156,5.34765625 6.38672178,5.50390469 5.78125,5.81640625 L3.34960938,7.13476563 L3.203125,6.49023438 L3.75976562,6.08007812 L7.04101562,3.79492188 C8.48633535,2.7792918 9.72655732,1.8515667 10.7617188,1.01171875 L11.5234375,1.01171875 C11.0351538,2.61328926 10.4785187,4.95701582 9.85351562,8.04296875 L7.27539062,20.5527344 C7.08007715,21.5683645 6.98242188,22.2812479 6.98242188,22.6914062 C6.98242188,23.1796899 7.10449097,23.5019523 7.34863281,23.6582031 C7.59277466,23.8144539 8.10546484,23.8925781 8.88671875,23.8925781 L9.94140625,23.8925781 L9.79492188,24.6542969 Z M28.2519531,19.2929688 L26.4648438,24.625 C25.5664018,24.8007821 24.6093801,24.8886719 23.59375,24.8886719 C22.6171826,24.8886719 21.5234436,24.8203132 20.3125,24.6835938 C18.1249891,24.4492176 16.5234426,24.3320312 15.5078125,24.3320312 C14.1601495,24.3320312 12.7343825,24.5175763 11.2304688,24.8886719 L11.2304688,24.0683594 C12.5000063,23.2089801 13.8769457,22.2031308 15.3613281,21.0507812 C16.8457105,19.8984317 18.4081949,18.6093821 20.0488281,17.1835938 C21.6894613,15.7187427 22.9833937,14.410162 23.9306641,13.2578125 C24.8779344,12.105463 25.5712869,10.9873101 26.0107422,9.90332031 C26.4501975,8.81933052 26.6699219,7.70117764 26.6699219,6.54882812 C26.6699219,4.96678896 26.2646525,3.70215317 25.4541016,2.75488281 C24.6435506,1.80761245 23.5644599,1.33398438 22.2167969,1.33398438 C20.8886652,1.33398438 19.7265675,1.77343311 18.7304688,2.65234375 C17.73437,3.53125439 17.2363281,4.56640029 17.2363281,5.7578125 C17.2363281,6.34375293 17.3974593,6.86620864 17.7197266,7.32519531 C18.0419938,7.78418198 18.4570287,8.09179609 18.9648438,8.24804688 C18.6523422,8.79492461 18.1640658,9.06835938 17.5,9.06835938 C16.8554655,9.06835938 16.3232443,8.84375225 15.9033203,8.39453125 C15.4833963,7.94531025 15.2734375,7.37890967 15.2734375,6.6953125 C15.2734375,5.15233604 16.0839763,3.72656904 17.7050781,2.41796875 C19.32618,1.10936846 21.0839749,0.455078125 22.9785156,0.455078125 C24.853525,0.455078125 26.362299,1.00194766 27.5048828,2.09570312 C28.6474667,3.18945859 29.21875,4.63475664 29.21875,6.43164062 C29.21875,7.81836631 28.8916048,9.11718145 28.2373047,10.328125 C27.5830045,11.5390686 26.4843827,12.8867113 24.9414062,14.3710938 C23.5546806,15.7187567 21.210954,17.6035035 17.9101562,20.0253906 C16.4062425,21.1582088 15.4394553,21.8906233 15.0097656,22.2226562 C15.8300822,22.0859368 16.6796831,22.0175781 17.5585938,22.0175781 C18.2617223,22.0175781 18.9355437,22.0468747 19.5800781,22.1054688 L21.953125,22.28125 C22.6171908,22.3203127 23.1054672,22.3398438 23.4179688,22.3398438 C24.4921929,22.3398438 25.3613248,22.1054711 26.0253906,21.6367188 C26.6894564,21.1679664 27.2851536,20.3867242 27.8125,19.2929688 L28.2519531,19.2929688 Z" id="path-9"></path>
        <filter x="-3.5%" y="-4.1%" width="107.1%" height="108.2%" filterUnits="objectBoundingBox" id="filter-10">
            <feGaussianBlur stdDeviation="0.5" in="SourceAlpha" result="shadowBlurInner1"></feGaussianBlur>
            <feOffset dx="0" dy="1" in="shadowBlurInner1" result="shadowOffsetInner1"></feOffset>
            <feComposite in="shadowOffsetInner1" in2="SourceAlpha" operator="arithmetic" k2="-1" k3="1" result="shadowInnerInner1"></feComposite>
            <feColorMatrix values="0 0 0 0 0.303199405   0 0 0 0 0.303199405   0 0 0 0 0.303199405  0 0 0 0.153560915 0" type="matrix" in="shadowInnerInner1"></feColorMatrix>
        </filter>
    </defs>
    <g id="=slice=" stroke="none" stroke-width="1" fill="none" fill-rule="evenodd">
        <g id="Group-27-Copy-3" transform="translate(-70.000000, 2.000000)">
            <g id="Oval" fill-rule="nonzero">
                <use fill="black" fill-opacity="1" filter="url(#filter-4)" xlink:href="#path-3"></use>
                <circle stroke="url(#linearGradient-2)" stroke-width="4.28571429" stroke-linejoin="square" fill="url(#linearGradient-1)" fill-rule="evenodd" cx="112" cy="38" r="35"></circle>
                <circle stroke="#D1C092" stroke-width="2.85714286" cx="112" cy="38" r="38.5714286"></circle>
            </g>
            <g id="月">
                <use fill="#FFFFFF" fill-rule="evenodd" xlink:href="#path-5"></use>
                <use fill="#3D3226" fill-rule="evenodd" xlink:href="#path-5"></use>
                <use fill="black" fill-opacity="1" filter="url(#filter-6)" xlink:href="#path-5"></use>
            </g>
            <g id="2018">
                <use fill="#FFFFFF" fill-rule="evenodd" xlink:href="#path-7"></use>
                <use fill="#3D3226" fill-rule="evenodd" xlink:href="#path-7"></use>
                <use fill="black" fill-opacity="1" filter="url(#filter-8)" xlink:href="#path-7"></use>
            </g>
            <g id="12" transform="translate(94.000000, 21.000000)">
                <g transform="translate(0.000000, 0.154297)">
                    <g>
                        <use fill="#FFFFFF" fill-rule="evenodd" xlink:href="#path-9"></use>
                        <use fill="#3D3226" fill-rule="evenodd" xlink:href="#path-9"></use>
                        <use fill="black" fill-opacity="1" filter="url(#filter-10)" xlink:href="#path-9"></use>
                    </g>
                </g>
            </g>
        </g>
    </g>
</svg>