<?xml version="1.0" encoding="UTF-8"?>
<svg width="84px" height="84px" viewBox="0 0 84 84" version="1.1" xmlns="http://www.w3.org/2000/svg" xmlns:xlink="http://www.w3.org/1999/xlink">
    <!-- Generator: Sketch 52.5 (67469) - http://www.bohemiancoding.com/sketch -->
    <title>1901</title>
    <desc>Created with Sketch.</desc>
    <defs>
        <linearGradient x1="50%" y1="4.11623916%" x2="50%" y2="100%" id="linearGradient-1">
            <stop stop-color="#DACBA4" offset="0%"></stop>
            <stop stop-color="#C2A66B" offset="100%"></stop>
        </linearGradient>
        <linearGradient x1="50%" y1="100%" x2="50%" y2="3.061617e-15%" id="linearGradient-2">
            <stop stop-color="#EFDFB4" offset="0%"></stop>
            <stop stop-color="#AD945E" offset="100%"></stop>
        </linearGradient>
        <circle id="path-3" cx="38" cy="38" r="37.1428571"></circle>
        <filter x="-11.4%" y="-8.8%" width="122.9%" height="122.9%" filterUnits="objectBoundingBox" id="filter-4">
            <feOffset dx="0" dy="2" in="SourceAlpha" result="shadowOffsetOuter1"></feOffset>
            <feGaussianBlur stdDeviation="2.5" in="shadowOffsetOuter1" result="shadowBlurOuter1"></feGaussianBlur>
            <feComposite in="shadowBlurOuter1" in2="SourceAlpha" operator="out" result="shadowBlurOuter1"></feComposite>
            <feColorMatrix values="0 0 0 0 0.780213648   0 0 0 0 0.745039443   0 0 0 0 0.660152362  0 0 0 1 0" type="matrix" in="shadowBlurOuter1"></feColorMatrix>
        </filter>
        <path d="M60.1641143,40.3282286 L55.2393143,40.3282286 C55.2105141,41.614635 54.8889174,42.7090241 54.2745143,43.6114286 C53.6601112,44.5138331 52.680921,45.3346249 51.3369143,46.0738286 L51.1497143,45.8722286 C52.2153196,45.0466244 52.9857119,44.2210327 53.4609143,43.3954286 C53.9361167,42.5698244 54.1737143,41.2690375 54.1737143,39.4930286 L54.1737143,34.8850286 C54.1737143,34.3858261 54.1593144,33.8770312 54.1305143,33.3586286 L55.2825143,34.0066286 L59.7897143,34.0066286 L60.4665143,33.1426286 L61.6905143,34.1074286 C61.7577146,34.1746289 61.7913143,34.2298284 61.7913143,34.2730286 C61.7913143,34.3162288 61.7385148,34.3666283 61.6329143,34.4242286 L61.2009143,34.6258286 L61.2009143,44.3170286 C61.2009143,44.7298306 61.1361149,45.0346276 61.0065143,45.2314286 C60.8769136,45.4282296 60.6513159,45.6202276 60.3297143,45.8074286 C60.0081127,45.9946295 59.7993148,46.0882286 59.7033143,46.0882286 C59.6073138,46.0882286 59.5449144,46.0114293 59.5161143,45.8578286 C59.4777141,45.4738267 59.2929159,45.2026294 58.9617143,45.0442286 C58.6305126,44.8858278 58.1289176,44.7394292 57.4569143,44.6050286 L57.4569143,44.3314286 C58.1385177,44.3794288 58.6929121,44.4034286 59.1201143,44.4034286 C59.5473164,44.4034286 59.8281136,44.360229 59.9625143,44.2738286 C60.096915,44.1874281 60.1641143,44.0338297 60.1641143,43.8130286 L60.1641143,40.3282286 Z M55.2393143,36.9442286 L60.1641143,36.9442286 L60.1641143,34.4098286 L55.2393143,34.4098286 L55.2393143,36.9442286 Z M60.1641143,37.3474286 L55.2393143,37.3474286 L55.2393143,39.9250286 L60.1641143,39.9250286 L60.1641143,37.3474286 Z" id="path-5"></path>
        <filter x="-9.4%" y="-7.7%" width="118.8%" height="115.4%" filterUnits="objectBoundingBox" id="filter-6">
            <feGaussianBlur stdDeviation="0.5" in="SourceAlpha" result="shadowBlurInner1"></feGaussianBlur>
            <feOffset dx="0" dy="1" in="shadowBlurInner1" result="shadowOffsetInner1"></feOffset>
            <feComposite in="shadowOffsetInner1" in2="SourceAlpha" operator="arithmetic" k2="-1" k3="1" result="shadowInnerInner1"></feComposite>
            <feColorMatrix values="0 0 0 0 0.303199405   0 0 0 0 0.303199405   0 0 0 0 0.303199405  0 0 0 0.153560915 0" type="matrix" in="shadowInnerInner1"></feColorMatrix>
        </filter>
        <path d="M4.94829862,11.9985352 L4.38238065,13.6870117 C4.09787402,13.7426761 3.79481715,13.7705078 3.47320096,13.7705078 C3.16395462,13.7705078 2.81760392,13.7488609 2.43413846,13.7055664 C1.74142667,13.6313473 1.23427028,13.5942383 0.912654087,13.5942383 C0.485894141,13.5942383 0.0344012598,13.6529942 -0.441838101,13.7705078 L-0.441838101,13.5107422 C-0.0398178613,13.2386054 0.396212935,12.9200865 0.866267368,12.5551758 C1.3363218,12.1902651 1.83110852,11.7820661 2.35064237,11.3305664 C2.87017622,10.8666969 3.27992147,10.452313 3.57989042,10.0874023 C3.87985936,9.72249167 4.09942097,9.36840992 4.23858182,9.02514648 C4.37774267,8.68188305 4.44732206,8.3278013 4.44732206,7.96289062 C4.44732206,7.46191156 4.31898675,7.06144356 4.06231229,6.76147461 C3.80563783,6.46150566 3.46392575,6.31152344 3.03716581,6.31152344 C2.61659079,6.31152344 2.24859316,6.4506822 1.9331619,6.72900391 C1.61773063,7.00732561 1.46001737,7.33512181 1.46001737,7.71240234 C1.46001737,7.89795015 1.51104225,8.06339446 1.61309354,8.20874023 C1.71514483,8.35408601 1.84657255,8.45149715 2.00738065,8.50097656 C1.90842182,8.67415451 1.75380097,8.76074219 1.54351346,8.76074219 C1.33941088,8.76074219 1.17087415,8.6896166 1.03789823,8.54736328 C0.904922302,8.40510997 0.838435337,8.22574978 0.838435337,8.00927734 C0.838435337,7.52066813 1.09510595,7.06917525 1.60845487,6.65478516 C2.12180379,6.24039506 2.67843885,6.03320312 3.27837674,6.03320312 C3.87212971,6.03320312 4.34990814,6.20637848 4.71172635,6.55273438 C5.07354457,6.89909027 5.25445096,7.35676799 5.25445096,7.92578125 C5.25445096,8.36491105 5.15085499,8.77620251 4.94365995,9.15966797 C4.7364649,9.54313343 4.38856799,9.96988697 3.89995877,10.4399414 C3.46082897,10.8667014 2.7186489,11.4635378 1.67339627,12.2304688 C1.19715691,12.5891945 0.891007632,12.8211258 0.754939243,12.9262695 C1.01470617,12.882975 1.28374645,12.8613281 1.56206815,12.8613281 C1.78472551,12.8613281 1.99810229,12.8706054 2.20220487,12.8891602 L2.95366971,12.9448242 C3.16395722,12.9571941 3.31857807,12.9633789 3.4175369,12.9633789 C3.75770787,12.9633789 4.03293298,12.8891609 4.24322049,12.7407227 C4.453508,12.5922844 4.64214544,12.3448911 4.80913846,11.9985352 L4.94829862,11.9985352 Z M11.8237587,8.58447266 C11.8237587,9.25862967 11.692331,9.96833937 11.4294716,10.713623 C11.1666122,11.4589067 10.8187153,12.0943984 10.3857704,12.6201172 C9.70542846,13.4427124 8.9848953,13.8540039 8.22414931,13.8540039 C7.63658127,13.8540039 7.16189526,13.617434 6.80007704,13.1442871 C6.43825883,12.6711402 6.25735243,12.0387409 6.25735243,11.2470703 C6.25735243,10.5296188 6.40733466,9.78434631 6.70730361,9.01123047 C7.00727255,8.23811462 7.41083297,7.56706014 7.91799697,6.99804688 C8.48701023,6.36099942 9.11786329,6.04248047 9.81057509,6.04248047 C10.4043281,6.04248047 10.8882913,6.27595795 11.2624794,6.74291992 C11.6366675,7.20988189 11.8237587,7.82372667 11.8237587,8.58447266 Z M11.0166298,8.07421875 C11.0166298,7.49283563 10.9099414,7.04443517 10.6965614,6.72900391 C10.4831814,6.41357264 10.1847632,6.25585938 9.80129775,6.25585938 C9.00344219,6.25585938 8.32311046,6.96711528 7.76028212,8.38964844 C7.53143983,8.97721648 7.35207965,9.57869158 7.22219618,10.1940918 C7.09231272,10.809492 7.02737197,11.3460264 7.02737197,11.8037109 C7.02737197,12.3850941 7.13560656,12.8365869 7.352079,13.1582031 C7.56855143,13.4798193 7.86851588,13.640625 8.25198134,13.640625 C8.62307695,13.640625 8.96324281,13.4860042 9.27248915,13.1767578 C9.58173549,12.8675115 9.88479236,12.382002 10.1816688,11.7202148 C10.4414358,11.1512016 10.6455353,10.5373568 10.7939735,9.87866211 C10.9424118,9.21996741 11.0166298,8.6184923 11.0166298,8.07421875 Z M14.9790039,13.6962891 L12.1586914,13.6962891 L12.2050781,13.4550781 L12.4648438,13.4550781 C12.7679052,13.4550781 12.9781895,13.4071457 13.0957031,13.3112793 C13.2132167,13.2154129 13.2998044,13.0252293 13.3554688,12.7407227 L13.4296875,12.3974609 L14.2275391,8.51953125 L14.2832031,8.19482422 C14.3203127,8.03401612 14.3388672,7.91031944 14.3388672,7.82373047 C14.3388672,7.66292237 14.2739264,7.58251953 14.144043,7.58251953 C14.0450841,7.58251953 13.8997405,7.6319982 13.7080078,7.73095703 L12.9379883,8.1484375 L12.8916016,7.94433594 L13.0678711,7.81445312 L14.1069336,7.09082031 C14.5646182,6.76920412 14.9573551,6.47542451 15.2851562,6.20947266 L15.5263672,6.20947266 C15.371744,6.71663665 15.1954763,7.45881673 14.9975586,8.43603516 L14.1811523,12.3974609 C14.1193031,12.7190771 14.0883789,12.9448236 14.0883789,13.074707 C14.0883789,13.2293302 14.1270341,13.33138 14.2043457,13.3808594 C14.2816573,13.4303388 14.4440092,13.4550781 14.6914062,13.4550781 L15.0253906,13.4550781 L14.9790039,13.6962891 Z M17.0116905,14.0581055 L16.863253,13.8911133 C17.7229579,13.3159151 18.4465834,12.6897007 19.0341515,12.0124512 C19.6217195,11.3352017 20.0082716,10.6780631 20.1938194,10.0410156 C19.7485047,10.5729193 19.2042393,10.8388672 18.5610069,10.8388672 C18.0600279,10.8388672 17.6487364,10.6641456 17.3271202,10.3146973 C17.005504,9.9652489 16.8446983,9.5091174 16.8446983,8.94628906 C16.8446983,8.44531 16.9730337,7.97062399 17.2297081,7.5222168 C17.4863826,7.07380961 17.823456,6.71663544 18.2409386,6.45068359 C18.6584211,6.18473174 19.102183,6.05175781 19.5722374,6.05175781 C20.1598055,6.05175781 20.6205756,6.24658008 20.9545616,6.63623047 C21.2885477,7.02588085 21.4555382,7.56396141 21.4555382,8.25048828 C21.4555382,8.71435779 21.3782278,9.17822034 21.2236046,9.64208984 C21.0689814,10.1059594 20.8401426,10.5651833 20.5370812,11.0197754 C20.2340197,11.4743675 19.8783918,11.8964824 19.4701866,12.2861328 C18.6475914,13.0716185 17.8281009,13.6622702 17.0116905,14.0581055 Z M17.6889366,9.14111328 C17.6889366,9.58642801 17.7863478,9.93741734 17.981173,10.1940918 C18.1759981,10.4507663 18.434215,10.5791016 18.7558312,10.5791016 C19.0836323,10.5791016 19.400605,10.4476738 19.7067589,10.1848145 C20.0129128,9.92195507 20.2572137,9.57405815 20.4396691,9.14111328 C20.6221244,8.70816841 20.7133507,8.24739828 20.7133507,7.75878906 C20.7133507,7.44954272 20.6669644,7.18359486 20.5741905,6.9609375 C20.4814166,6.73828014 20.3499889,6.5681972 20.1799034,6.45068359 C20.0098179,6.33316999 19.8072646,6.27441406 19.5722374,6.27441406 C19.2506212,6.27441406 18.9444719,6.41048041 18.6537804,6.68261719 C18.3630888,6.95475396 18.1296113,7.31347434 17.9533409,7.75878906 C17.7770705,8.20410379 17.6889366,8.66487392 17.6889366,9.14111328 Z" id="path-7"></path>
        <filter x="-4.6%" y="-12.5%" width="109.1%" height="124.9%" filterUnits="objectBoundingBox" id="filter-8">
            <feGaussianBlur stdDeviation="0.5" in="SourceAlpha" result="shadowBlurInner1"></feGaussianBlur>
            <feOffset dx="0" dy="1" in="shadowBlurInner1" result="shadowOffsetInner1"></feOffset>
            <feComposite in="shadowOffsetInner1" in2="SourceAlpha" operator="arithmetic" k2="-1" k3="1" result="shadowInnerInner1"></feComposite>
            <feColorMatrix values="0 0 0 0 0.303199405   0 0 0 0 0.303199405   0 0 0 0 0.303199405  0 0 0 0.153560915 0" type="matrix" in="shadowInnerInner1"></feColorMatrix>
        </filter>
        <path d="M7.48873213,42.6542969 L-1.41751787,42.6542969 L-1.2710335,41.8925781 L-0.450721,41.8925781 C0.506315035,41.8925781 1.17037089,41.7412125 1.5414665,41.4384766 C1.91256211,41.1357407 2.18599687,40.5351607 2.361779,39.6367188 L2.596154,38.5527344 L5.11568525,26.3066406 L5.2914665,25.28125 C5.40865459,24.773435 5.46724775,24.3828139 5.46724775,24.109375 C5.46724775,23.60156 5.26217168,23.3476562 4.85201338,23.3476562 C4.53951181,23.3476562 4.08053203,23.5039047 3.47506025,23.8164062 L1.04341963,25.1347656 L0.89693525,24.4902344 L1.45357588,24.0800781 L4.73482588,21.7949219 C6.1801456,20.7792918 7.42036757,19.8515667 8.455529,19.0117188 L9.21724775,19.0117188 C8.72896406,20.6132893 8.172329,22.9570158 7.54732588,26.0429688 L4.96920088,38.5527344 C4.7738874,39.5683645 4.67623213,40.2812479 4.67623213,40.6914062 C4.67623213,41.1796899 4.79830122,41.5019523 5.04244306,41.6582031 C5.28658491,41.8144539 5.79927509,41.8925781 6.580529,41.8925781 L7.6352165,41.8925781 L7.48873213,42.6542969 Z" id="path-9"></path>
        <filter x="-9.4%" y="-4.2%" width="118.8%" height="108.5%" filterUnits="objectBoundingBox" id="filter-10">
            <feGaussianBlur stdDeviation="0.5" in="SourceAlpha" result="shadowBlurInner1"></feGaussianBlur>
            <feOffset dx="0" dy="1" in="shadowBlurInner1" result="shadowOffsetInner1"></feOffset>
            <feComposite in="shadowOffsetInner1" in2="SourceAlpha" operator="arithmetic" k2="-1" k3="1" result="shadowInnerInner1"></feComposite>
            <feColorMatrix values="0 0 0 0 0.303199405   0 0 0 0 0.303199405   0 0 0 0 0.303199405  0 0 0 0.153560915 0" type="matrix" in="shadowInnerInner1"></feColorMatrix>
        </filter>
    </defs>
    <g id="=slice=" stroke="none" stroke-width="1" fill="none" fill-rule="evenodd">
        <g id="Group-27-Copy-4" transform="translate(4.000000, 2.000000)">
            <g id="Oval" fill-rule="nonzero">
                <use fill="black" fill-opacity="1" filter="url(#filter-4)" xlink:href="#path-3"></use>
                <circle stroke="url(#linearGradient-2)" stroke-width="4.28571429" stroke-linejoin="square" fill="url(#linearGradient-1)" fill-rule="evenodd" cx="38" cy="38" r="35"></circle>
                <circle stroke="#D1C092" stroke-width="2.85714286" cx="38" cy="38" r="38.5714286"></circle>
            </g>
            <g id="月">
                <use fill="#FFFFFF" fill-rule="evenodd" xlink:href="#path-5"></use>
                <use fill="#3D3226" fill-rule="evenodd" xlink:href="#path-5"></use>
                <use fill="black" fill-opacity="1" filter="url(#filter-6)" xlink:href="#path-5"></use>
            </g>
            <g id="2019" transform="translate(28.000000, 48.000000)">
                <g>
                    <use fill="#FFFFFF" fill-rule="evenodd" xlink:href="#path-7"></use>
                    <use fill="#3D3226" fill-rule="evenodd" xlink:href="#path-7"></use>
                    <use fill="black" fill-opacity="1" filter="url(#filter-8)" xlink:href="#path-7"></use>
                </g>
            </g>
            <g id="1" transform="translate(34.000000, 4.000000)">
                <g>
                    <use fill="#FFFFFF" fill-rule="evenodd" xlink:href="#path-9"></use>
                    <use fill="#3D3226" fill-rule="evenodd" xlink:href="#path-9"></use>
                    <use fill="black" fill-opacity="1" filter="url(#filter-10)" xlink:href="#path-9"></use>
                </g>
            </g>
        </g>
    </g>
</svg>