<?xml version="1.0" encoding="UTF-8"?>
<svg width="84px" height="84px" viewBox="0 0 84 84" version="1.1" xmlns="http://www.w3.org/2000/svg" xmlns:xlink="http://www.w3.org/1999/xlink">
    <!-- Generator: Sketch 52.5 (67469) - http://www.bohemiancoding.com/sketch -->
    <title>1904</title>
    <desc>Created with Sketch.</desc>
    <defs>
        <linearGradient x1="50%" y1="4.11623916%" x2="50%" y2="100%" id="linearGradient-1">
            <stop stop-color="#DACBA4" offset="0%"></stop>
            <stop stop-color="#C2A66B" offset="100%"></stop>
        </linearGradient>
        <linearGradient x1="50%" y1="100%" x2="50%" y2="3.061617e-15%" id="linearGradient-2">
            <stop stop-color="#EFDFB4" offset="0%"></stop>
            <stop stop-color="#AD945E" offset="100%"></stop>
        </linearGradient>
        <circle id="path-3" cx="38" cy="38" r="37.1428571"></circle>
        <filter x="-11.4%" y="-8.8%" width="122.9%" height="122.9%" filterUnits="objectBoundingBox" id="filter-4">
            <feOffset dx="0" dy="2" in="SourceAlpha" result="shadowOffsetOuter1"></feOffset>
            <feGaussianBlur stdDeviation="2.5" in="shadowOffsetOuter1" result="shadowBlurOuter1"></feGaussianBlur>
            <feComposite in="shadowBlurOuter1" in2="SourceAlpha" operator="out" result="shadowBlurOuter1"></feComposite>
            <feColorMatrix values="0 0 0 0 0.780213648   0 0 0 0 0.745039443   0 0 0 0 0.660152362  0 0 0 1 0" type="matrix" in="shadowBlurOuter1"></feColorMatrix>
        </filter>
        <path d="M60.1641143,40.3282286 L55.2393143,40.3282286 C55.2105141,41.614635 54.8889174,42.7090241 54.2745143,43.6114286 C53.6601112,44.5138331 52.680921,45.3346249 51.3369143,46.0738286 L51.1497143,45.8722286 C52.2153196,45.0466244 52.9857119,44.2210327 53.4609143,43.3954286 C53.9361167,42.5698244 54.1737143,41.2690375 54.1737143,39.4930286 L54.1737143,34.8850286 C54.1737143,34.3858261 54.1593144,33.8770312 54.1305143,33.3586286 L55.2825143,34.0066286 L59.7897143,34.0066286 L60.4665143,33.1426286 L61.6905143,34.1074286 C61.7577146,34.1746289 61.7913143,34.2298284 61.7913143,34.2730286 C61.7913143,34.3162288 61.7385148,34.3666283 61.6329143,34.4242286 L61.2009143,34.6258286 L61.2009143,44.3170286 C61.2009143,44.7298306 61.1361149,45.0346276 61.0065143,45.2314286 C60.8769136,45.4282296 60.6513159,45.6202276 60.3297143,45.8074286 C60.0081127,45.9946295 59.7993148,46.0882286 59.7033143,46.0882286 C59.6073138,46.0882286 59.5449144,46.0114293 59.5161143,45.8578286 C59.4777141,45.4738267 59.2929159,45.2026294 58.9617143,45.0442286 C58.6305126,44.8858278 58.1289176,44.7394292 57.4569143,44.6050286 L57.4569143,44.3314286 C58.1385177,44.3794288 58.6929121,44.4034286 59.1201143,44.4034286 C59.5473164,44.4034286 59.8281136,44.360229 59.9625143,44.2738286 C60.096915,44.1874281 60.1641143,44.0338297 60.1641143,43.8130286 L60.1641143,40.3282286 Z M55.2393143,36.9442286 L60.1641143,36.9442286 L60.1641143,34.4098286 L55.2393143,34.4098286 L55.2393143,36.9442286 Z M60.1641143,37.3474286 L55.2393143,37.3474286 L55.2393143,39.9250286 L60.1641143,39.9250286 L60.1641143,37.3474286 Z" id="path-5"></path>
        <filter x="-9.4%" y="-7.7%" width="118.8%" height="115.4%" filterUnits="objectBoundingBox" id="filter-6">
            <feGaussianBlur stdDeviation="0.5" in="SourceAlpha" result="shadowBlurInner1"></feGaussianBlur>
            <feOffset dx="0" dy="1" in="shadowBlurInner1" result="shadowOffsetInner1"></feOffset>
            <feComposite in="shadowOffsetInner1" in2="SourceAlpha" operator="arithmetic" k2="-1" k3="1" result="shadowInnerInner1"></feComposite>
            <feColorMatrix values="0 0 0 0 0.303199405   0 0 0 0 0.303199405   0 0 0 0 0.303199405  0 0 0 0.153560915 0" type="matrix" in="shadowInnerInner1"></feColorMatrix>
        </filter>
        <path d="M5.94829862,5.99853516 L5.38238065,7.68701172 C5.09787402,7.74267606 4.79481715,7.77050781 4.47320096,7.77050781 C4.16395462,7.77050781 3.81760392,7.74886089 3.43413846,7.70556641 C2.74142667,7.63134729 2.23427028,7.59423828 1.91265409,7.59423828 C1.48589414,7.59423828 1.03440126,7.6529942 0.558161899,7.77050781 L0.558161899,7.51074219 C0.960182139,7.23860541 1.39621293,6.92008646 1.86626737,6.55517578 C2.3363218,6.1902651 2.83110852,5.78206606 3.35064237,5.33056641 C3.87017622,4.8666969 4.27992147,4.45231302 4.57989042,4.08740234 C4.87985936,3.72249167 5.09942097,3.36840992 5.23858182,3.02514648 C5.37774267,2.68188305 5.44732206,2.3278013 5.44732206,1.96289062 C5.44732206,1.46191156 5.31898675,1.06144356 5.06231229,0.761474609 C4.80563783,0.461505662 4.46392575,0.311523438 4.03716581,0.311523438 C3.61659079,0.311523438 3.24859316,0.450682202 2.9331619,0.729003906 C2.61773063,1.00732561 2.46001737,1.33512181 2.46001737,1.71240234 C2.46001737,1.89795015 2.51104225,2.06339446 2.61309354,2.20874023 C2.71514483,2.35408601 2.84657255,2.45149715 3.00738065,2.50097656 C2.90842182,2.67415451 2.75380097,2.76074219 2.54351346,2.76074219 C2.33941088,2.76074219 2.17087415,2.6896166 2.03789823,2.54736328 C1.9049223,2.40510997 1.83843534,2.22574978 1.83843534,2.00927734 C1.83843534,1.52066813 2.09510595,1.06917525 2.60845487,0.654785156 C3.12180379,0.240395063 3.67843885,0.033203125 4.27837674,0.033203125 C4.87212971,0.033203125 5.34990814,0.206378477 5.71172635,0.552734375 C6.07354457,0.899090273 6.25445096,1.35676799 6.25445096,1.92578125 C6.25445096,2.36491105 6.15085499,2.77620251 5.94365995,3.15966797 C5.7364649,3.54313343 5.38856799,3.96988697 4.89995877,4.43994141 C4.46082897,4.86670135 3.7186489,5.46353783 2.67339627,6.23046875 C2.19715691,6.5891945 1.89100763,6.82112578 1.75493924,6.92626953 C2.01470617,6.88297504 2.28374645,6.86132812 2.56206815,6.86132812 C2.78472551,6.86132812 2.99810229,6.87060538 3.20220487,6.88916016 L3.95366971,6.94482422 C4.16395722,6.95719407 4.31857807,6.96337891 4.4175369,6.96337891 C4.75770787,6.96337891 5.03293298,6.8891609 5.24322049,6.74072266 C5.453508,6.59228441 5.64214544,6.34489105 5.80913846,5.99853516 L5.94829862,5.99853516 Z M12.8237587,2.58447266 C12.8237587,3.25862967 12.692331,3.96833937 12.4294716,4.71362305 C12.1666122,5.45890672 11.8187153,6.09439841 11.3857704,6.62011719 C10.7054285,7.44271245 9.9848953,7.85400391 9.22414931,7.85400391 C8.63658127,7.85400391 8.16189526,7.61743401 7.80007704,7.14428711 C7.43825883,6.67114021 7.25735243,6.03874094 7.25735243,5.24707031 C7.25735243,4.52961881 7.40733466,3.78434631 7.70730361,3.01123047 C8.00727255,2.23811462 8.41083297,1.56706014 8.91799697,0.998046875 C9.48701023,0.360999419 10.1178633,0.0424804688 10.8105751,0.0424804688 C11.4043281,0.0424804688 11.8882913,0.275957952 12.2624794,0.742919922 C12.6366675,1.20988189 12.8237587,1.82372667 12.8237587,2.58447266 Z M12.0166298,2.07421875 C12.0166298,1.49283563 11.9099414,1.04443517 11.6965614,0.729003906 C11.4831814,0.413572642 11.1847632,0.255859375 10.8012977,0.255859375 C10.0034422,0.255859375 9.32311046,0.967115283 8.76028212,2.38964844 C8.53143983,2.97721648 8.35207965,3.57869158 8.22219618,4.1940918 C8.09231272,4.80949201 8.02737197,5.34602636 8.02737197,5.80371094 C8.02737197,6.38509405 8.13560656,6.83658693 8.352079,7.15820312 C8.56855143,7.47981932 8.86851588,7.640625 9.25198134,7.640625 C9.62307695,7.640625 9.96324281,7.48600415 10.2724892,7.17675781 C10.5817355,6.86751147 10.8847924,6.38200201 11.1816688,5.72021484 C11.4414358,5.15120158 11.6455353,4.53735681 11.7939735,3.87866211 C11.9424118,3.21996741 12.0166298,2.6184923 12.0166298,2.07421875 Z M15.9790039,7.69628906 L13.1586914,7.69628906 L13.2050781,7.45507812 L13.4648438,7.45507812 C13.7679052,7.45507812 13.9781895,7.40714566 14.0957031,7.3112793 C14.2132167,7.21541293 14.2998044,7.02522929 14.3554688,6.74072266 L14.4296875,6.39746094 L15.2275391,2.51953125 L15.2832031,2.19482422 C15.3203127,2.03401612 15.3388672,1.91031944 15.3388672,1.82373047 C15.3388672,1.66292237 15.2739264,1.58251953 15.144043,1.58251953 C15.0450841,1.58251953 14.8997405,1.6319982 14.7080078,1.73095703 L13.9379883,2.1484375 L13.8916016,1.94433594 L14.0678711,1.81445312 L15.1069336,1.09082031 C15.5646182,0.769204121 15.9573551,0.475424507 16.2851562,0.209472656 L16.5263672,0.209472656 C16.371744,0.71663665 16.1954762,1.45881673 15.9975586,2.43603516 L15.1811523,6.39746094 C15.1193031,6.71907713 15.0883789,6.94482357 15.0883789,7.07470703 C15.0883789,7.2293302 15.1270341,7.33137996 15.2043457,7.38085938 C15.2816573,7.43033879 15.4440092,7.45507812 15.6914062,7.45507812 L16.0253906,7.45507812 L15.9790039,7.69628906 Z M18.0116905,8.05810547 L17.863253,7.89111328 C18.7229579,7.31591509 19.4465834,6.68970065 20.0341515,6.01245117 C20.6217195,5.33520169 21.0082716,4.67806308 21.1938194,4.04101562 C20.7485047,4.57291933 20.2042393,4.83886719 19.5610069,4.83886719 C19.0600279,4.83886719 18.6487364,4.66414563 18.3271202,4.31469727 C18.005504,3.9652489 17.8446983,3.5091174 17.8446983,2.94628906 C17.8446983,2.44531 17.9730337,1.97062399 18.2297081,1.5222168 C18.4863826,1.07380961 18.823456,0.716635444 19.2409386,0.450683594 C19.6584211,0.184731743 20.102183,0.0517578125 20.5722374,0.0517578125 C21.1598055,0.0517578125 21.6205756,0.246580083 21.9545616,0.636230469 C22.2885477,1.02588085 22.4555382,1.56396141 22.4555382,2.25048828 C22.4555382,2.71435779 22.3782278,3.17822034 22.2236046,3.64208984 C22.0689814,4.10595935 21.8401426,4.56518327 21.5370812,5.01977539 C21.2340197,5.47436751 20.8783918,5.89648243 20.4701866,6.28613281 C19.6475914,7.07161851 18.8281009,7.66227016 18.0116905,8.05810547 Z M18.6889366,3.14111328 C18.6889366,3.58642801 18.7863478,3.93741734 18.981173,4.1940918 C19.1759981,4.45076626 19.434215,4.57910156 19.7558312,4.57910156 C20.0836323,4.57910156 20.400605,4.44767384 20.7067589,4.18481445 C21.0129128,3.92195507 21.2572137,3.57405815 21.4396691,3.14111328 C21.6221244,2.70816841 21.7133507,2.24739828 21.7133507,1.75878906 C21.7133507,1.44954272 21.6669644,1.18359486 21.5741905,0.9609375 C21.4814166,0.738280137 21.3499889,0.568197202 21.1799034,0.450683594 C21.0098179,0.333169985 20.8072646,0.274414062 20.5722374,0.274414062 C20.2506212,0.274414062 19.9444719,0.41048041 19.6537804,0.682617188 C19.3630888,0.954753965 19.1296113,1.31347434 18.9533409,1.75878906 C18.7770705,2.20410379 18.6889366,2.66487392 18.6889366,3.14111328 Z" id="path-7"></path>
        <filter x="-4.6%" y="-12.5%" width="109.1%" height="124.9%" filterUnits="objectBoundingBox" id="filter-8">
            <feGaussianBlur stdDeviation="0.5" in="SourceAlpha" result="shadowBlurInner1"></feGaussianBlur>
            <feOffset dx="0" dy="1" in="shadowBlurInner1" result="shadowOffsetInner1"></feOffset>
            <feComposite in="shadowOffsetInner1" in2="SourceAlpha" operator="arithmetic" k2="-1" k3="1" result="shadowInnerInner1"></feComposite>
            <feColorMatrix values="0 0 0 0 0.303199405   0 0 0 0 0.303199405   0 0 0 0 0.303199405  0 0 0 0.153560915 0" type="matrix" in="shadowInnerInner1"></feColorMatrix>
        </filter>
        <path d="M9.99068525,33.5722656 L10.1664665,33.6015625 C11.1625652,33.796876 12.0121661,33.8945312 12.7152946,33.8945312 C13.242641,33.8945312 13.6820897,33.8603519 14.033654,33.7919922 C14.3852183,33.7236325 14.9125567,33.5332047 15.6156853,33.2207031 L14.5902946,35.828125 C13.9066975,36.0039071 13.1840484,36.0917969 12.4223259,36.0917969 C11.5434152,36.0917969 10.6254557,35.9941416 9.66841963,35.7988281 L8.61373213,42.6542969 L5.97701338,42.6542969 L7.85201338,35.4179688 L7.705529,35.3886719 C5.98677041,35.0175763 4.5219413,34.8320312 3.31099775,34.8320312 C1.6508332,34.8320312 0.21530068,35.1640592 -0.995642875,35.828125 L-1.435096,35.359375 C-0.18508975,34.1874941 1.23091171,32.2441542 2.81295088,29.5292969 C3.61373613,28.1816339 4.24849541,26.7900462 4.71724775,25.3544922 C5.18600009,23.9189381 5.42037275,22.6054747 5.42037275,21.4140625 C5.42037275,20.8476534 5.35201406,20.3300805 5.21529463,19.8613281 L8.26216963,18.0742188 C8.30123232,18.6210965 8.32076338,18.9042968 8.32076338,18.9238281 C8.32076338,20.1347717 8.13033559,21.306635 7.74947431,22.4394531 C7.36861303,23.5722713 6.63131572,25.1054591 5.53756025,27.0390625 C4.93208847,28.0742239 4.10690141,29.3388597 3.06197431,30.8330078 C2.01704721,32.3271559 1.02584619,33.5917917 0.0883415,34.6269531 L0.5570915,34.4511719 C3.07663535,33.5527299 5.06880293,33.1035156 6.533654,33.1035156 C7.08053173,33.1035156 7.57857363,33.1425777 8.02779463,33.2207031 C8.18404541,33.2402345 8.32076279,33.2597655 8.43795088,33.2792969 L10.3422478,26.0136719 L11.2504509,25.4863281 L9.99068525,33.5722656 Z" id="path-9"></path>
        <filter x="-5.9%" y="-4.1%" width="111.7%" height="108.1%" filterUnits="objectBoundingBox" id="filter-10">
            <feGaussianBlur stdDeviation="0.5" in="SourceAlpha" result="shadowBlurInner1"></feGaussianBlur>
            <feOffset dx="0" dy="1" in="shadowBlurInner1" result="shadowOffsetInner1"></feOffset>
            <feComposite in="shadowOffsetInner1" in2="SourceAlpha" operator="arithmetic" k2="-1" k3="1" result="shadowInnerInner1"></feComposite>
            <feColorMatrix values="0 0 0 0 0.303199405   0 0 0 0 0.303199405   0 0 0 0 0.303199405  0 0 0 0.153560915 0" type="matrix" in="shadowInnerInner1"></feColorMatrix>
        </filter>
    </defs>
    <g id="=slice=" stroke="none" stroke-width="1" fill="none" fill-rule="evenodd">
        <g id="Group-27-Copy-10" transform="translate(4.000000, 2.000000)">
            <g id="Oval" fill-rule="nonzero">
                <use fill="black" fill-opacity="1" filter="url(#filter-4)" xlink:href="#path-3"></use>
                <circle stroke="url(#linearGradient-2)" stroke-width="4.28571429" stroke-linejoin="square" fill="url(#linearGradient-1)" fill-rule="evenodd" cx="38" cy="38" r="35"></circle>
                <circle stroke="#D1C092" stroke-width="2.85714286" cx="38" cy="38" r="38.5714286"></circle>
            </g>
            <g id="月">
                <use fill="#FFFFFF" fill-rule="evenodd" xlink:href="#path-5"></use>
                <use fill="#3D3226" fill-rule="evenodd" xlink:href="#path-5"></use>
                <use fill="black" fill-opacity="1" filter="url(#filter-6)" xlink:href="#path-5"></use>
            </g>
            <g id="2019" transform="translate(27.000000, 54.000000)">
                <g>
                    <use fill="#FFFFFF" fill-rule="evenodd" xlink:href="#path-7"></use>
                    <use fill="#3D3226" fill-rule="evenodd" xlink:href="#path-7"></use>
                    <use fill="black" fill-opacity="1" filter="url(#filter-8)" xlink:href="#path-7"></use>
                </g>
            </g>
            <g id="4" transform="translate(30.000000, 4.000000)">
                <g>
                    <use fill="#FFFFFF" fill-rule="evenodd" xlink:href="#path-9"></use>
                    <use fill="#3D3226" fill-rule="evenodd" xlink:href="#path-9"></use>
                    <use fill="black" fill-opacity="1" filter="url(#filter-10)" xlink:href="#path-9"></use>
                </g>
            </g>
        </g>
    </g>
</svg>