<?xml version="1.0" encoding="UTF-8"?>
<svg width="84px" height="84px" viewBox="0 0 84 84" version="1.1" xmlns="http://www.w3.org/2000/svg" xmlns:xlink="http://www.w3.org/1999/xlink">
    <!-- Generator: Sketch 63.1 (92452) - https://sketch.com -->
    <title>2006</title>
    <desc>Created with Sketch.</desc>
    <defs>
        <linearGradient x1="50%" y1="4.11623916%" x2="50%" y2="100%" id="linearGradient-1">
            <stop stop-color="#DACBA4" offset="0%"></stop>
            <stop stop-color="#C2A66B" offset="100%"></stop>
        </linearGradient>
        <linearGradient x1="50%" y1="100%" x2="50%" y2="3.061617e-15%" id="linearGradient-2">
            <stop stop-color="#EFDFB4" offset="0%"></stop>
            <stop stop-color="#AD945E" offset="100%"></stop>
        </linearGradient>
        <circle id="path-3" cx="38" cy="38" r="37.1428571"></circle>
        <filter x="-11.4%" y="-8.8%" width="122.9%" height="122.9%" filterUnits="objectBoundingBox" id="filter-4">
            <feOffset dx="0" dy="2" in="SourceAlpha" result="shadowOffsetOuter1"></feOffset>
            <feGaussianBlur stdDeviation="2.5" in="shadowOffsetOuter1" result="shadowBlurOuter1"></feGaussianBlur>
            <feComposite in="shadowBlurOuter1" in2="SourceAlpha" operator="out" result="shadowBlurOuter1"></feComposite>
            <feColorMatrix values="0 0 0 0 0.780213648   0 0 0 0 0.745039443   0 0 0 0 0.660152362  0 0 0 1 0" type="matrix" in="shadowBlurOuter1"></feColorMatrix>
        </filter>
        <path d="M60.1641143,40.3282286 L55.2393143,40.3282286 C55.2105141,41.614635 54.8889174,42.7090241 54.2745143,43.6114286 C53.6601112,44.5138331 52.680921,45.3346249 51.3369143,46.0738286 L51.1497143,45.8722286 C52.2153196,45.0466244 52.9857119,44.2210327 53.4609143,43.3954286 C53.9361167,42.5698244 54.1737143,41.2690375 54.1737143,39.4930286 L54.1737143,34.8850286 C54.1737143,34.3858261 54.1593144,33.8770312 54.1305143,33.3586286 L55.2825143,34.0066286 L59.7897143,34.0066286 L60.4665143,33.1426286 L61.6905143,34.1074286 C61.7577146,34.1746289 61.7913143,34.2298284 61.7913143,34.2730286 C61.7913143,34.3162288 61.7385148,34.3666283 61.6329143,34.4242286 L61.2009143,34.6258286 L61.2009143,44.3170286 C61.2009143,44.7298306 61.1361149,45.0346276 61.0065143,45.2314286 C60.8769136,45.4282296 60.6513159,45.6202276 60.3297143,45.8074286 C60.0081127,45.9946295 59.7993148,46.0882286 59.7033143,46.0882286 C59.6073138,46.0882286 59.5449144,46.0114293 59.5161143,45.8578286 C59.4777141,45.4738267 59.2929159,45.2026294 58.9617143,45.0442286 C58.6305126,44.8858278 58.1289176,44.7394292 57.4569143,44.6050286 L57.4569143,44.3314286 C58.1385177,44.3794288 58.6929121,44.4034286 59.1201143,44.4034286 C59.5473164,44.4034286 59.8281136,44.360229 59.9625143,44.2738286 C60.096915,44.1874281 60.1641143,44.0338297 60.1641143,43.8130286 L60.1641143,40.3282286 Z M55.2393143,36.9442286 L60.1641143,36.9442286 L60.1641143,34.4098286 L55.2393143,34.4098286 L55.2393143,36.9442286 Z M60.1641143,37.3474286 L55.2393143,37.3474286 L55.2393143,39.9250286 L60.1641143,39.9250286 L60.1641143,37.3474286 Z" id="path-5"></path>
        <filter x="-9.4%" y="-7.7%" width="118.8%" height="115.4%" filterUnits="objectBoundingBox" id="filter-6">
            <feGaussianBlur stdDeviation="0.5" in="SourceAlpha" result="shadowBlurInner1"></feGaussianBlur>
            <feOffset dx="0" dy="1" in="shadowBlurInner1" result="shadowOffsetInner1"></feOffset>
            <feComposite in="shadowOffsetInner1" in2="SourceAlpha" operator="arithmetic" k2="-1" k3="1" result="shadowInnerInner1"></feComposite>
            <feColorMatrix values="0 0 0 0 0.303199405   0 0 0 0 0.303199405   0 0 0 0 0.303199405  0 0 0 0.153560915 0" type="matrix" in="shadowInnerInner1"></feColorMatrix>
        </filter>
        <path d="M3.25976562,31.7851562 C4.97852422,28.4452958 7.22459551,26.7753906 9.99804688,26.7753906 C11.5605547,26.7753906 12.8105422,27.3124946 13.7480469,28.3867188 C14.6855516,29.4609429 15.1542969,30.9062409 15.1542969,32.7226562 C15.1542969,34.0507879 14.9003932,35.3447203 14.3925781,36.6044922 C13.8847631,37.8642641 13.2109417,38.9775342 12.3710938,39.9443359 C11.5312458,40.9111376 10.5595758,41.6923798 9.45605469,42.2880859 C8.35253354,42.883792 7.23438066,43.1816406 6.1015625,43.1816406 C4.24608447,43.1816406 2.79590366,42.5029365 1.75097656,41.1455078 C0.706049463,39.7880792 0.18359375,37.8886841 0.18359375,35.4472656 C0.18359375,33.4550682 0.544918262,31.4287212 1.26757812,29.3681641 C1.99023799,27.3076069 2.94725967,25.4716877 4.13867188,23.8603516 C5.33008408,22.2490154 6.68749238,20.9599658 8.2109375,19.9931641 C9.73438262,19.0263624 11.2480394,18.5429688 12.7519531,18.5429688 C13.8261772,18.5429688 14.7050747,18.8164035 15.3886719,19.3632812 C16.072269,19.910159 16.4140625,20.613277 16.4140625,21.4726562 C16.4140625,22.078128 16.1992209,22.6201148 15.7695312,23.0986328 C15.3398416,23.5771508 14.8125031,23.8164062 14.1875,23.8164062 C14.0117179,23.8164062 13.8554694,23.8066407 13.71875,23.7871094 C14.109377,23.1035122 14.3046875,22.4296908 14.3046875,21.765625 C14.3046875,20.9843711 14.0996114,20.3984395 13.6894531,20.0078125 C13.2792948,19.6171855 12.6835938,19.421875 11.9023438,19.421875 C10.6523375,19.421875 9.44629487,19.9443307 8.28417969,20.9892578 C7.1220645,22.0341849 6.09180137,23.5136623 5.19335938,25.4277344 C4.66601299,26.5410212 4.23144702,27.6738224 3.88964844,28.8261719 C3.54784985,29.9785214 3.33789102,30.9648396 3.25976562,31.7851562 Z M2.55664062,37.6738281 C2.55664062,40.8965005 3.71873838,42.5078125 6.04296875,42.5078125 C7.11719287,42.5078125 8.15722153,42.0293017 9.16308594,41.0722656 C10.1689503,40.1152296 10.9746063,38.82618 11.5800781,37.2050781 C12.1855499,35.5839763 12.4882812,33.9336021 12.4882812,32.2539062 C12.4882812,30.8671806 12.2099637,29.8076208 11.6533203,29.0751953 C11.0966769,28.3427698 10.2812554,27.9765625 9.20703125,27.9765625 C7.48827266,27.9765625 6.01367803,28.8456944 4.78320312,30.5839844 C4.17773135,31.462895 3.65527563,32.600579 3.21582031,33.9970703 C2.77636499,35.3935617 2.55664062,36.6191354 2.55664062,37.6738281 Z" id="path-7"></path>
        <filter x="-6.2%" y="-4.1%" width="112.3%" height="108.1%" filterUnits="objectBoundingBox" id="filter-8">
            <feGaussianBlur stdDeviation="0.5" in="SourceAlpha" result="shadowBlurInner1"></feGaussianBlur>
            <feOffset dx="0" dy="1" in="shadowBlurInner1" result="shadowOffsetInner1"></feOffset>
            <feComposite in="shadowOffsetInner1" in2="SourceAlpha" operator="arithmetic" k2="-1" k3="1" result="shadowInnerInner1"></feComposite>
            <feColorMatrix values="0 0 0 0 0.303199405   0 0 0 0 0.303199405   0 0 0 0 0.303199405  0 0 0 0.153560915 0" type="matrix" in="shadowInnerInner1"></feColorMatrix>
        </filter>
        <path d="M33.1210938,64.1445312 C33.4596354,64.1445312 33.7786458,64.1152344 34.078125,64.0566406 L34.078125,64.0566406 L34.6738281,62.2792969 L34.5273438,62.2792969 C34.3515625,62.6438802 34.1529948,62.9042969 33.9316406,63.0605469 C33.7102865,63.2167969 33.4205729,63.2949219 33.0625,63.2949219 C32.9583333,63.2949219 32.7955729,63.2884115 32.5742188,63.2753906 L32.5742188,63.2753906 L31.7832031,63.2167969 C31.5683594,63.1972656 31.34375,63.1875 31.109375,63.1875 C30.8164062,63.1875 30.5332031,63.2102865 30.2597656,63.2558594 C30.4029948,63.1451823 30.7252604,62.9010417 31.2265625,62.5234375 C32.3268229,61.7161458 33.1080729,61.0878906 33.5703125,60.6386719 C34.0846354,60.1438802 34.4508464,59.6946615 34.6689453,59.2910156 C34.8870443,58.8873698 34.9960938,58.4544271 34.9960938,57.9921875 C34.9960938,57.3932292 34.8056641,56.9114583 34.4248047,56.546875 C34.0439453,56.1822917 33.5410156,56 32.9160156,56 C32.2845052,56 31.6985677,56.218099 31.1582031,56.6542969 C30.6178385,57.0904948 30.3476562,57.5657552 30.3476562,58.0800781 C30.3476562,58.3079427 30.4176432,58.4967448 30.5576172,58.6464844 C30.6975911,58.796224 30.875,58.8710938 31.0898438,58.8710938 C31.3111979,58.8710938 31.4739583,58.7799479 31.578125,58.5976562 C31.4088542,58.5455729 31.2705078,58.4430339 31.1630859,58.2900391 C31.0556641,58.1370443 31.0019531,57.9628906 31.0019531,57.7675781 C31.0019531,57.3704427 31.1679688,57.0253906 31.5,56.7324219 C31.8320312,56.4394531 32.219401,56.2929688 32.6621094,56.2929688 C33.1113281,56.2929688 33.4710286,56.4508464 33.7412109,56.7666016 C34.0113932,57.0823568 34.1464844,57.5039062 34.1464844,58.03125 C34.1464844,58.4153646 34.0732422,58.7880859 33.9267578,59.1494141 C33.7802734,59.5107422 33.5491536,59.8834635 33.2333984,60.2675781 C32.9176432,60.6516927 32.4863281,61.0878906 31.9394531,61.5761719 C31.3925781,62.0514323 30.8717448,62.4811198 30.3769531,62.8652344 C29.8821615,63.249349 29.4231771,63.5846354 29,63.8710938 L29,63.8710938 L29,64.1445312 C29.5013021,64.0208333 29.9765625,63.9589844 30.4257812,63.9589844 C30.7643229,63.9589844 31.2981771,63.9980469 32.0273438,64.0761719 C32.4309896,64.1217448 32.7955729,64.1445312 33.1210938,64.1445312 Z M38.122092,64.2324219 C38.9228733,64.2324219 39.6813368,63.7994792 40.3974826,62.9335938 C40.8532118,62.3802083 41.2194227,61.711263 41.4961154,60.9267578 C41.7728082,60.1422526 41.9111545,59.3951823 41.9111545,58.6855469 C41.9111545,57.8847656 41.7142144,57.2386068 41.3203342,56.7470703 C40.926454,56.2555339 40.4170139,56.0097656 39.7920139,56.0097656 C39.0628472,56.0097656 38.3987847,56.3450521 37.7998264,57.015625 C37.2659722,57.6145833 36.8411675,58.3209635 36.5254123,59.1347656 C36.2096571,59.9485677 36.0517795,60.7330729 36.0517795,61.4882812 C36.0517795,62.3216146 36.2422092,62.9873047 36.6230686,63.4853516 C37.0039279,63.9833984 37.5036024,64.2324219 38.122092,64.2324219 Z M38.1513889,64.0078125 C37.7477431,64.0078125 37.4319878,63.8385417 37.2041233,63.5 C36.9762587,63.1614583 36.8623264,62.6861979 36.8623264,62.0742188 C36.8623264,61.5924479 36.9306858,61.0276693 37.0674045,60.3798828 C37.2041233,59.7320964 37.3929253,59.0989583 37.6338108,58.4804688 C38.2262587,56.9830729 38.9424045,56.234375 39.7822483,56.234375 C40.1858941,56.234375 40.5000217,56.4003906 40.7246311,56.7324219 C40.9492404,57.0644531 41.0615451,57.5364583 41.0615451,58.1484375 C41.0615451,58.7213542 40.9834201,59.3544922 40.8271701,60.0478516 C40.6709201,60.7412109 40.4560764,61.3873698 40.1826389,61.9863281 C39.8701389,62.6829427 39.5511285,63.1940104 39.2256076,63.5195312 C38.9000868,63.8450521 38.5420139,64.0078125 38.1513889,64.0078125 Z M45.9844184,64.1445312 C46.3229601,64.1445312 46.6419705,64.1152344 46.9414496,64.0566406 L46.9414496,64.0566406 L47.5371528,62.2792969 L47.3906684,62.2792969 C47.2148871,62.6438802 47.0163194,62.9042969 46.7949653,63.0605469 C46.5736111,63.2167969 46.2838976,63.2949219 45.9258246,63.2949219 C45.821658,63.2949219 45.6588976,63.2884115 45.4375434,63.2753906 L45.4375434,63.2753906 L44.6465278,63.2167969 C44.431684,63.1972656 44.2070746,63.1875 43.9726996,63.1875 C43.6797309,63.1875 43.3965278,63.2102865 43.1230903,63.2558594 C43.2663194,63.1451823 43.5885851,62.9010417 44.0898871,62.5234375 C45.1901476,61.7161458 45.9713976,61.0878906 46.4336371,60.6386719 C46.9479601,60.1438802 47.314171,59.6946615 47.53227,59.2910156 C47.7503689,58.8873698 47.8594184,58.4544271 47.8594184,57.9921875 C47.8594184,57.3932292 47.6689887,56.9114583 47.2881293,56.546875 C46.90727,56.1822917 46.4043403,56 45.7793403,56 C45.1478299,56 44.5618924,56.218099 44.0215278,56.6542969 C43.4811632,57.0904948 43.2109809,57.5657552 43.2109809,58.0800781 C43.2109809,58.3079427 43.2809679,58.4967448 43.4209418,58.6464844 C43.5609158,58.796224 43.7383246,58.8710938 43.9531684,58.8710938 C44.1745226,58.8710938 44.337283,58.7799479 44.4414496,58.5976562 C44.2721788,58.5455729 44.1338325,58.4430339 44.0264106,58.2900391 C43.9189887,58.1370443 43.8652778,57.9628906 43.8652778,57.7675781 C43.8652778,57.3704427 44.0312934,57.0253906 44.3633246,56.7324219 C44.6953559,56.4394531 45.0827257,56.2929688 45.525434,56.2929688 C45.9746528,56.2929688 46.3343533,56.4508464 46.6045356,56.7666016 C46.8747179,57.0823568 47.009809,57.5039062 47.009809,58.03125 C47.009809,58.4153646 46.9365668,58.7880859 46.7900825,59.1494141 C46.6435981,59.5107422 46.4124783,59.8834635 46.0967231,60.2675781 C45.7809679,60.6516927 45.3496528,61.0878906 44.8027778,61.5761719 C44.2559028,62.0514323 43.7350694,62.4811198 43.2402778,62.8652344 C42.7454861,63.249349 42.2865017,63.5846354 41.8633246,63.8710938 L41.8633246,63.8710938 L41.8633246,64.1445312 C42.3646267,64.0208333 42.8398871,63.9589844 43.2891059,63.9589844 C43.6276476,63.9589844 44.1615017,63.9980469 44.8906684,64.0761719 L45.1860786,64.1060791 C45.4741645,64.1317139 45.7402778,64.1445312 45.9844184,64.1445312 Z M50.9854167,64.2324219 C51.7861979,64.2324219 52.5446615,63.7994792 53.2608073,62.9335938 C53.7165365,62.3802083 54.0827474,61.711263 54.3594401,60.9267578 C54.6361328,60.1422526 54.7744792,59.3951823 54.7744792,58.6855469 C54.7744792,57.8847656 54.5775391,57.2386068 54.1836588,56.7470703 C53.7897786,56.2555339 53.2803385,56.0097656 52.6553385,56.0097656 C51.9261719,56.0097656 51.2621094,56.3450521 50.663151,57.015625 C50.1292969,57.6145833 49.7044922,58.3209635 49.388737,59.1347656 C49.0729818,59.9485677 48.9151042,60.7330729 48.9151042,61.4882812 C48.9151042,62.3216146 49.1055338,62.9873047 49.4863932,63.4853516 C49.8672526,63.9833984 50.3669271,64.2324219 50.9854167,64.2324219 Z M51.0147135,64.0078125 C50.6110677,64.0078125 50.2953125,63.8385417 50.0674479,63.5 C49.8395833,63.1614583 49.725651,62.6861979 49.725651,62.0742188 C49.725651,61.5924479 49.7940104,61.0276693 49.9307292,60.3798828 C50.0674479,59.7320964 50.25625,59.0989583 50.4971354,58.4804688 C51.0895833,56.9830729 51.8057292,56.234375 52.6455729,56.234375 C53.0492187,56.234375 53.3633463,56.4003906 53.5879557,56.7324219 C53.8125651,57.0644531 53.9248698,57.5364583 53.9248698,58.1484375 C53.9248698,58.7213542 53.8467448,59.3544922 53.6904948,60.0478516 C53.5342448,60.7412109 53.319401,61.3873698 53.0459635,61.9863281 C52.7334635,62.6829427 52.4144531,63.1940104 52.0889323,63.5195312 C51.7634115,63.8450521 51.4053385,64.0078125 51.0147135,64.0078125 Z" id="path-9"></path>
        <filter x="-3.9%" y="-12.1%" width="107.8%" height="124.3%" filterUnits="objectBoundingBox" id="filter-10">
            <feGaussianBlur stdDeviation="0.5" in="SourceAlpha" result="shadowBlurInner1"></feGaussianBlur>
            <feOffset dx="0" dy="1" in="shadowBlurInner1" result="shadowOffsetInner1"></feOffset>
            <feComposite in="shadowOffsetInner1" in2="SourceAlpha" operator="arithmetic" k2="-1" k3="1" result="shadowInnerInner1"></feComposite>
            <feColorMatrix values="0 0 0 0 0.303199405   0 0 0 0 0.303199405   0 0 0 0 0.303199405  0 0 0 0.153560915 0" type="matrix" in="shadowInnerInner1"></feColorMatrix>
        </filter>
    </defs>
    <g id="=slice=" stroke="none" stroke-width="1" fill="none" fill-rule="evenodd">
        <g id="Group-27-Copy-12" transform="translate(4.000000, 2.000000)">
            <g id="Oval" fill-rule="nonzero">
                <use fill="black" fill-opacity="1" filter="url(#filter-4)" xlink:href="#path-3"></use>
                <circle stroke="url(#linearGradient-2)" stroke-width="4.28571429" stroke-linejoin="square" fill="url(#linearGradient-1)" fill-rule="evenodd" cx="38" cy="38" r="35"></circle>
                <circle stroke="#D1C092" stroke-width="2.85714286" cx="38" cy="38" r="38.5714286"></circle>
            </g>
            <g id="月">
                <use fill="#FFFFFF" fill-rule="evenodd" xlink:href="#path-5"></use>
                <use fill="#3D3226" fill-rule="evenodd" xlink:href="#path-5"></use>
                <use fill="black" fill-opacity="1" filter="url(#filter-6)" xlink:href="#path-5"></use>
            </g>
            <g id="6" transform="translate(26.000000, 4.000000)">
                <g>
                    <use fill="#FFFFFF" fill-rule="evenodd" xlink:href="#path-7"></use>
                    <use fill="#3D3226" fill-rule="evenodd" xlink:href="#path-7"></use>
                    <use fill="black" fill-opacity="1" filter="url(#filter-8)" xlink:href="#path-7"></use>
                </g>
            </g>
        </g>
        <g id="2020" fill-rule="nonzero">
            <use fill="#FFFFFF" xlink:href="#path-9"></use>
            <use fill="#3D3226" xlink:href="#path-9"></use>
            <use fill="black" fill-opacity="1" filter="url(#filter-10)" xlink:href="#path-9"></use>
        </g>
    </g>
</svg>