<?xml version="1.0" encoding="UTF-8"?>
<svg width="84px" height="84px" viewBox="0 0 84 84" version="1.1" xmlns="http://www.w3.org/2000/svg" xmlns:xlink="http://www.w3.org/1999/xlink">
    <!-- Generator: Sketch 63.1 (92452) - https://sketch.com -->
    <title>2002</title>
    <desc>Created with Sketch.</desc>
    <defs>
        <linearGradient x1="50%" y1="4.11623916%" x2="50%" y2="100%" id="linearGradient-1">
            <stop stop-color="#DACBA4" offset="0%"></stop>
            <stop stop-color="#C2A66B" offset="100%"></stop>
        </linearGradient>
        <linearGradient x1="50%" y1="100%" x2="50%" y2="3.061617e-15%" id="linearGradient-2">
            <stop stop-color="#EFDFB4" offset="0%"></stop>
            <stop stop-color="#AD945E" offset="100%"></stop>
        </linearGradient>
        <circle id="path-3" cx="38" cy="38" r="37.1428571"></circle>
        <filter x="-11.4%" y="-8.8%" width="122.9%" height="122.9%" filterUnits="objectBoundingBox" id="filter-4">
            <feOffset dx="0" dy="2" in="SourceAlpha" result="shadowOffsetOuter1"></feOffset>
            <feGaussianBlur stdDeviation="2.5" in="shadowOffsetOuter1" result="shadowBlurOuter1"></feGaussianBlur>
            <feComposite in="shadowBlurOuter1" in2="SourceAlpha" operator="out" result="shadowBlurOuter1"></feComposite>
            <feColorMatrix values="0 0 0 0 0.780213648   0 0 0 0 0.745039443   0 0 0 0 0.660152362  0 0 0 1 0" type="matrix" in="shadowBlurOuter1"></feColorMatrix>
        </filter>
        <path d="M60.1641143,40.3282286 L55.2393143,40.3282286 C55.2105141,41.614635 54.8889174,42.7090241 54.2745143,43.6114286 C53.6601112,44.5138331 52.680921,45.3346249 51.3369143,46.0738286 L51.1497143,45.8722286 C52.2153196,45.0466244 52.9857119,44.2210327 53.4609143,43.3954286 C53.9361167,42.5698244 54.1737143,41.2690375 54.1737143,39.4930286 L54.1737143,34.8850286 C54.1737143,34.3858261 54.1593144,33.8770312 54.1305143,33.3586286 L55.2825143,34.0066286 L59.7897143,34.0066286 L60.4665143,33.1426286 L61.6905143,34.1074286 C61.7577146,34.1746289 61.7913143,34.2298284 61.7913143,34.2730286 C61.7913143,34.3162288 61.7385148,34.3666283 61.6329143,34.4242286 L61.2009143,34.6258286 L61.2009143,44.3170286 C61.2009143,44.7298306 61.1361149,45.0346276 61.0065143,45.2314286 C60.8769136,45.4282296 60.6513159,45.6202276 60.3297143,45.8074286 C60.0081127,45.9946295 59.7993148,46.0882286 59.7033143,46.0882286 C59.6073138,46.0882286 59.5449144,46.0114293 59.5161143,45.8578286 C59.4777141,45.4738267 59.2929159,45.2026294 58.9617143,45.0442286 C58.6305126,44.8858278 58.1289176,44.7394292 57.4569143,44.6050286 L57.4569143,44.3314286 C58.1385177,44.3794288 58.6929121,44.4034286 59.1201143,44.4034286 C59.5473164,44.4034286 59.8281136,44.360229 59.9625143,44.2738286 C60.096915,44.1874281 60.1641143,44.0338297 60.1641143,43.8130286 L60.1641143,40.3282286 Z M55.2393143,36.9442286 L60.1641143,36.9442286 L60.1641143,34.4098286 L55.2393143,34.4098286 L55.2393143,36.9442286 Z M60.1641143,37.3474286 L55.2393143,37.3474286 L55.2393143,39.9250286 L60.1641143,39.9250286 L60.1641143,37.3474286 Z" id="path-5"></path>
        <filter x="-9.4%" y="-7.7%" width="118.8%" height="115.4%" filterUnits="objectBoundingBox" id="filter-6">
            <feGaussianBlur stdDeviation="0.5" in="SourceAlpha" result="shadowBlurInner1"></feGaussianBlur>
            <feOffset dx="0" dy="1" in="shadowBlurInner1" result="shadowOffsetInner1"></feOffset>
            <feComposite in="shadowOffsetInner1" in2="SourceAlpha" operator="arithmetic" k2="-1" k3="1" result="shadowInnerInner1"></feComposite>
            <feColorMatrix values="0 0 0 0 0.303199405   0 0 0 0 0.303199405   0 0 0 0 0.303199405  0 0 0 0.153560915 0" type="matrix" in="shadowInnerInner1"></feColorMatrix>
        </filter>
        <path d="M4.12109375,8.14453125 C4.45963542,8.14453125 4.77864583,8.11523438 5.078125,8.05664062 L5.078125,8.05664062 L5.67382812,6.27929688 L5.52734375,6.27929688 C5.3515625,6.64388021 5.15299479,6.90429688 4.93164062,7.06054688 C4.71028646,7.21679688 4.42057292,7.29492188 4.0625,7.29492188 C3.95833333,7.29492188 3.79557292,7.28841146 3.57421875,7.27539062 L3.57421875,7.27539062 L2.78320312,7.21679688 C2.56835938,7.19726562 2.34375,7.1875 2.109375,7.1875 C1.81640625,7.1875 1.53320312,7.21028646 1.25976562,7.25585938 C1.40299479,7.14518229 1.72526042,6.90104167 2.2265625,6.5234375 C3.32682292,5.71614583 4.10807292,5.08789062 4.5703125,4.63867188 C5.08463542,4.14388021 5.45084635,3.69466146 5.66894531,3.29101562 C5.88704427,2.88736979 5.99609375,2.45442708 5.99609375,1.9921875 C5.99609375,1.39322917 5.80566406,0.911458333 5.42480469,0.546875 C5.04394531,0.182291667 4.54101562,0 3.91601562,0 C3.28450521,0 2.69856771,0.218098958 2.15820312,0.654296875 C1.61783854,1.09049479 1.34765625,1.56575521 1.34765625,2.08007812 C1.34765625,2.30794271 1.41764323,2.49674479 1.55761719,2.64648438 C1.69759115,2.79622396 1.875,2.87109375 2.08984375,2.87109375 C2.31119792,2.87109375 2.47395833,2.77994792 2.578125,2.59765625 C2.40885417,2.54557292 2.27050781,2.44303385 2.16308594,2.29003906 C2.05566406,2.13704427 2.00195312,1.96289062 2.00195312,1.76757812 C2.00195312,1.37044271 2.16796875,1.02539062 2.5,0.732421875 C2.83203125,0.439453125 3.21940104,0.29296875 3.66210938,0.29296875 C4.11132812,0.29296875 4.47102865,0.450846354 4.74121094,0.766601562 C5.01139323,1.08235677 5.14648438,1.50390625 5.14648438,2.03125 C5.14648438,2.41536458 5.07324219,2.78808594 4.92675781,3.14941406 C4.78027344,3.51074219 4.54915365,3.88346354 4.23339844,4.26757812 C3.91764323,4.65169271 3.48632812,5.08789062 2.93945312,5.57617188 C2.39257812,6.05143229 1.87174479,6.48111979 1.37695312,6.86523438 C0.882161458,7.24934896 0.423177083,7.58463542 0,7.87109375 L0,7.87109375 L0,8.14453125 C0.501302083,8.02083333 0.9765625,7.95898438 1.42578125,7.95898438 C1.76432292,7.95898438 2.29817708,7.99804688 3.02734375,8.07617188 C3.43098958,8.12174479 3.79557292,8.14453125 4.12109375,8.14453125 Z M9.12209201,8.23242188 C9.92287326,8.23242188 10.6813368,7.79947917 11.3974826,6.93359375 C11.8532118,6.38020833 12.2194227,5.71126302 12.4961154,4.92675781 C12.7728082,4.1422526 12.9111545,3.39518229 12.9111545,2.68554688 C12.9111545,1.88476562 12.7142144,1.23860677 12.3203342,0.747070312 C11.926454,0.255533854 11.4170139,0.009765625 10.7920139,0.009765625 C10.0628472,0.009765625 9.39878472,0.345052083 8.79982639,1.015625 C8.26597222,1.61458333 7.84116753,2.32096354 7.52541232,3.13476562 C7.20965712,3.94856771 7.05177951,4.73307292 7.05177951,5.48828125 C7.05177951,6.32161458 7.2422092,6.98730469 7.62306857,7.48535156 C8.00392795,7.98339844 8.50360243,8.23242188 9.12209201,8.23242188 Z M9.15138889,8.0078125 C8.74774305,8.0078125 8.43198785,7.83854167 8.20412326,7.5 C7.97625868,7.16145833 7.86232639,6.68619792 7.86232639,6.07421875 C7.86232639,5.59244792 7.93068576,5.02766927 8.06740451,4.37988281 C8.20412326,3.73209635 8.39292535,3.09895833 8.63381076,2.48046875 C9.22625868,0.983072917 9.94240451,0.234375 10.7822483,0.234375 C11.1858941,0.234375 11.5000217,0.400390625 11.7246311,0.732421875 C11.9492404,1.06445312 12.0615451,1.53645833 12.0615451,2.1484375 C12.0615451,2.72135417 11.9834201,3.35449219 11.8271701,4.04785156 C11.6709201,4.74121094 11.4560764,5.38736979 11.1826389,5.98632812 C10.8701389,6.68294271 10.5511285,7.19401042 10.2256076,7.51953125 C9.9000868,7.84505208 9.54201389,8.0078125 9.15138889,8.0078125 Z M16.9844184,8.14453125 C17.3229601,8.14453125 17.6419705,8.11523438 17.9414496,8.05664062 L17.9414496,8.05664062 L18.5371528,6.27929688 L18.3906684,6.27929688 C18.2148871,6.64388021 18.0163194,6.90429688 17.7949653,7.06054688 C17.5736111,7.21679688 17.2838976,7.29492188 16.9258246,7.29492188 C16.821658,7.29492188 16.6588976,7.28841146 16.4375434,7.27539062 L16.4375434,7.27539062 L15.6465278,7.21679688 C15.431684,7.19726562 15.2070746,7.1875 14.9726996,7.1875 C14.6797309,7.1875 14.3965278,7.21028646 14.1230903,7.25585938 C14.2663194,7.14518229 14.5885851,6.90104167 15.0898871,6.5234375 C16.1901476,5.71614583 16.9713976,5.08789062 17.4336371,4.63867188 C17.9479601,4.14388021 18.314171,3.69466146 18.53227,3.29101562 C18.7503689,2.88736979 18.8594184,2.45442708 18.8594184,1.9921875 C18.8594184,1.39322917 18.6689887,0.911458333 18.2881293,0.546875 C17.90727,0.182291667 17.4043403,0 16.7793403,0 C16.1478299,0 15.5618924,0.218098958 15.0215278,0.654296875 C14.4811632,1.09049479 14.2109809,1.56575521 14.2109809,2.08007812 C14.2109809,2.30794271 14.2809679,2.49674479 14.4209418,2.64648438 C14.5609158,2.79622396 14.7383246,2.87109375 14.9531684,2.87109375 C15.1745226,2.87109375 15.337283,2.77994792 15.4414496,2.59765625 C15.2721788,2.54557292 15.1338325,2.44303385 15.0264106,2.29003906 C14.9189887,2.13704427 14.8652778,1.96289062 14.8652778,1.76757812 C14.8652778,1.37044271 15.0312934,1.02539062 15.3633246,0.732421875 C15.6953559,0.439453125 16.0827257,0.29296875 16.525434,0.29296875 C16.9746528,0.29296875 17.3343533,0.450846354 17.6045356,0.766601562 C17.8747179,1.08235677 18.009809,1.50390625 18.009809,2.03125 C18.009809,2.41536458 17.9365668,2.78808594 17.7900825,3.14941406 C17.6435981,3.51074219 17.4124783,3.88346354 17.0967231,4.26757812 C16.7809679,4.65169271 16.3496528,5.08789062 15.8027778,5.57617188 C15.2559028,6.05143229 14.7350694,6.48111979 14.2402778,6.86523438 C13.7454861,7.24934896 13.2865017,7.58463542 12.8633246,7.87109375 L12.8633246,7.87109375 L12.8633246,8.14453125 C13.3646267,8.02083333 13.8398871,7.95898438 14.2891059,7.95898438 C14.6276476,7.95898438 15.1615017,7.99804688 15.8906684,8.07617188 L16.1860786,8.1060791 C16.4741645,8.13171387 16.7402778,8.14453125 16.9844184,8.14453125 Z M21.9854167,8.23242188 C22.7861979,8.23242188 23.5446615,7.79947917 24.2608073,6.93359375 C24.7165365,6.38020833 25.0827474,5.71126302 25.3594401,4.92675781 C25.6361328,4.1422526 25.7744792,3.39518229 25.7744792,2.68554688 C25.7744792,1.88476562 25.5775391,1.23860677 25.1836588,0.747070312 C24.7897786,0.255533854 24.2803385,0.009765625 23.6553385,0.009765625 C22.9261719,0.009765625 22.2621094,0.345052083 21.663151,1.015625 C21.1292969,1.61458333 20.7044922,2.32096354 20.388737,3.13476562 C20.0729818,3.94856771 19.9151042,4.73307292 19.9151042,5.48828125 C19.9151042,6.32161458 20.1055338,6.98730469 20.4863932,7.48535156 C20.8672526,7.98339844 21.3669271,8.23242188 21.9854167,8.23242188 Z M22.0147135,8.0078125 C21.6110677,8.0078125 21.2953125,7.83854167 21.0674479,7.5 C20.8395833,7.16145833 20.725651,6.68619792 20.725651,6.07421875 C20.725651,5.59244792 20.7940104,5.02766927 20.9307292,4.37988281 C21.0674479,3.73209635 21.25625,3.09895833 21.4971354,2.48046875 C22.0895833,0.983072917 22.8057292,0.234375 23.6455729,0.234375 C24.0492187,0.234375 24.3633463,0.400390625 24.5879557,0.732421875 C24.8125651,1.06445312 24.9248698,1.53645833 24.9248698,2.1484375 C24.9248698,2.72135417 24.8467448,3.35449219 24.6904948,4.04785156 C24.5342448,4.74121094 24.319401,5.38736979 24.0459635,5.98632812 C23.7334635,6.68294271 23.4144531,7.19401042 23.0889323,7.51953125 C22.7634115,7.84505208 22.4053385,8.0078125 22.0147135,8.0078125 Z" id="path-7"></path>
        <filter x="-3.9%" y="-12.1%" width="107.8%" height="124.3%" filterUnits="objectBoundingBox" id="filter-8">
            <feGaussianBlur stdDeviation="0.5" in="SourceAlpha" result="shadowBlurInner1"></feGaussianBlur>
            <feOffset dx="0" dy="1" in="shadowBlurInner1" result="shadowOffsetInner1"></feOffset>
            <feComposite in="shadowOffsetInner1" in2="SourceAlpha" operator="arithmetic" k2="-1" k3="1" result="shadowInnerInner1"></feComposite>
            <feColorMatrix values="0 0 0 0 0.303199405   0 0 0 0 0.303199405   0 0 0 0 0.303199405  0 0 0 0.153560915 0" type="matrix" in="shadowInnerInner1"></feColorMatrix>
        </filter>
        <path d="M14.4804688,37.2929688 L12.6933594,42.625 C11.7949174,42.8007821 10.8378957,42.8886719 9.82226562,42.8886719 C8.84569824,42.8886719 7.75195918,42.8203132 6.54101562,42.6835938 C4.35350469,42.4492176 2.7519582,42.3320312 1.73632812,42.3320312 C0.388665137,42.3320312 -1.03710186,42.5175763 -2.54101562,42.8886719 L-2.54101562,42.0683594 C-1.27147803,41.2089801 0.105461328,40.2031308 1.58984375,39.0507812 C3.07422617,37.8984317 4.63671055,36.6093821 6.27734375,35.1835938 C7.91797695,33.7187427 9.21190933,32.410162 10.1591797,31.2578125 C11.10645,30.105463 11.7998025,28.9873101 12.2392578,27.9033203 C12.6787131,26.8193305 12.8984375,25.7011776 12.8984375,24.5488281 C12.8984375,22.966789 12.4931681,21.7021532 11.6826172,20.7548828 C10.8720663,19.8076125 9.79297549,19.3339844 8.4453125,19.3339844 C7.11718086,19.3339844 5.95508311,19.7734331 4.95898438,20.6523438 C3.96288564,21.5312544 3.46484375,22.5664003 3.46484375,23.7578125 C3.46484375,24.3437529 3.62597495,24.8662086 3.94824219,25.3251953 C4.27050942,25.784182 4.68554434,26.0917961 5.19335938,26.2480469 C4.88085781,26.7949246 4.39258145,27.0683594 3.72851562,27.0683594 C3.08398115,27.0683594 2.55175991,26.8437522 2.13183594,26.3945312 C1.71191196,25.9453103 1.50195312,25.3789097 1.50195312,24.6953125 C1.50195312,23.152336 2.31249189,21.726569 3.93359375,20.4179688 C5.55469561,19.1093685 7.31249053,18.4550781 9.20703125,18.4550781 C11.0820406,18.4550781 12.5908146,19.0019477 13.7333984,20.0957031 C14.8759823,21.1894586 15.4472656,22.6347566 15.4472656,24.4316406 C15.4472656,25.8183663 15.1201205,27.1171814 14.4658203,28.328125 C13.8115202,29.5390686 12.7128983,30.8867113 11.1699219,32.3710938 C9.78319619,33.7187567 7.43946963,35.6035035 4.13867188,38.0253906 C2.63475811,39.1582088 1.6679709,39.8906233 1.23828125,40.2226562 C2.05859785,40.0859368 2.90819873,40.0175781 3.78710938,40.0175781 C4.49023789,40.0175781 5.16405928,40.0468747 5.80859375,40.1054688 L8.18164062,40.28125 C8.84570645,40.3203127 9.33398281,40.3398438 9.64648438,40.3398438 C10.7207085,40.3398438 11.5898404,40.1054711 12.2539062,39.6367188 C12.9179721,39.1679664 13.5136692,38.3867242 14.0410156,37.2929688 L14.4804688,37.2929688 Z" id="path-9"></path>
        <filter x="-5.6%" y="-4.1%" width="111.1%" height="108.2%" filterUnits="objectBoundingBox" id="filter-10">
            <feGaussianBlur stdDeviation="0.5" in="SourceAlpha" result="shadowBlurInner1"></feGaussianBlur>
            <feOffset dx="0" dy="1" in="shadowBlurInner1" result="shadowOffsetInner1"></feOffset>
            <feComposite in="shadowOffsetInner1" in2="SourceAlpha" operator="arithmetic" k2="-1" k3="1" result="shadowInnerInner1"></feComposite>
            <feColorMatrix values="0 0 0 0 0.303199405   0 0 0 0 0.303199405   0 0 0 0 0.303199405  0 0 0 0.153560915 0" type="matrix" in="shadowInnerInner1"></feColorMatrix>
        </filter>
    </defs>
    <g id="=slice=" stroke="none" stroke-width="1" fill="none" fill-rule="evenodd">
        <g id="Group-27-Copy-5" transform="translate(4.000000, 2.000000)">
            <g id="Oval" fill-rule="nonzero">
                <use fill="black" fill-opacity="1" filter="url(#filter-4)" xlink:href="#path-3"></use>
                <circle stroke="url(#linearGradient-2)" stroke-width="4.28571429" stroke-linejoin="square" fill="url(#linearGradient-1)" fill-rule="evenodd" cx="38" cy="38" r="35"></circle>
                <circle stroke="#D1C092" stroke-width="2.85714286" cx="38" cy="38" r="38.5714286"></circle>
            </g>
            <g id="月">
                <use fill="#FFFFFF" fill-rule="evenodd" xlink:href="#path-5"></use>
                <use fill="#3D3226" fill-rule="evenodd" xlink:href="#path-5"></use>
                <use fill="black" fill-opacity="1" filter="url(#filter-6)" xlink:href="#path-5"></use>
            </g>
            <g id="2019" transform="translate(26.000000, 54.000000)" fill-rule="nonzero">
                <g id="2020">
                    <use fill="#FFFFFF" xlink:href="#path-7"></use>
                    <use fill="#3D3226" xlink:href="#path-7"></use>
                    <use fill="black" fill-opacity="1" filter="url(#filter-8)" xlink:href="#path-7"></use>
                </g>
            </g>
            <g id="2" transform="translate(29.000000, 4.000000)">
                <g>
                    <use fill="#FFFFFF" fill-rule="evenodd" xlink:href="#path-9"></use>
                    <use fill="#3D3226" fill-rule="evenodd" xlink:href="#path-9"></use>
                    <use fill="black" fill-opacity="1" filter="url(#filter-10)" xlink:href="#path-9"></use>
                </g>
            </g>
        </g>
    </g>
</svg>