<?xml version="1.0" encoding="UTF-8"?>
<svg width="84px" height="84px" viewBox="0 0 84 84" version="1.1" xmlns="http://www.w3.org/2000/svg" xmlns:xlink="http://www.w3.org/1999/xlink">
    <!-- Generator: Sketch 63.1 (92452) - https://sketch.com -->
    <title>2004</title>
    <desc>Created with Sketch.</desc>
    <defs>
        <linearGradient x1="50%" y1="4.11623916%" x2="50%" y2="100%" id="linearGradient-1">
            <stop stop-color="#DACBA4" offset="0%"></stop>
            <stop stop-color="#C2A66B" offset="100%"></stop>
        </linearGradient>
        <linearGradient x1="50%" y1="100%" x2="50%" y2="3.061617e-15%" id="linearGradient-2">
            <stop stop-color="#EFDFB4" offset="0%"></stop>
            <stop stop-color="#AD945E" offset="100%"></stop>
        </linearGradient>
        <circle id="path-3" cx="38" cy="38" r="37.1428571"></circle>
        <filter x="-11.4%" y="-8.8%" width="122.9%" height="122.9%" filterUnits="objectBoundingBox" id="filter-4">
            <feOffset dx="0" dy="2" in="SourceAlpha" result="shadowOffsetOuter1"></feOffset>
            <feGaussianBlur stdDeviation="2.5" in="shadowOffsetOuter1" result="shadowBlurOuter1"></feGaussianBlur>
            <feComposite in="shadowBlurOuter1" in2="SourceAlpha" operator="out" result="shadowBlurOuter1"></feComposite>
            <feColorMatrix values="0 0 0 0 0.780213648   0 0 0 0 0.745039443   0 0 0 0 0.660152362  0 0 0 1 0" type="matrix" in="shadowBlurOuter1"></feColorMatrix>
        </filter>
        <path d="M29.1210938,62.1445312 C29.4596354,62.1445312 29.7786458,62.1152344 30.078125,62.0566406 L30.078125,62.0566406 L30.6738281,60.2792969 L30.5273438,60.2792969 C30.3515625,60.6438802 30.1529948,60.9042969 29.9316406,61.0605469 C29.7102865,61.2167969 29.4205729,61.2949219 29.0625,61.2949219 C28.9583333,61.2949219 28.7955729,61.2884115 28.5742188,61.2753906 L28.5742188,61.2753906 L27.7832031,61.2167969 C27.5683594,61.1972656 27.34375,61.1875 27.109375,61.1875 C26.8164062,61.1875 26.5332031,61.2102865 26.2597656,61.2558594 C26.4029948,61.1451823 26.7252604,60.9010417 27.2265625,60.5234375 C28.3268229,59.7161458 29.1080729,59.0878906 29.5703125,58.6386719 C30.0846354,58.1438802 30.4508464,57.6946615 30.6689453,57.2910156 C30.8870443,56.8873698 30.9960938,56.4544271 30.9960938,55.9921875 C30.9960938,55.3932292 30.8056641,54.9114583 30.4248047,54.546875 C30.0439453,54.1822917 29.5410156,54 28.9160156,54 C28.2845052,54 27.6985677,54.218099 27.1582031,54.6542969 C26.6178385,55.0904948 26.3476562,55.5657552 26.3476562,56.0800781 C26.3476562,56.3079427 26.4176432,56.4967448 26.5576172,56.6464844 C26.6975911,56.796224 26.875,56.8710938 27.0898438,56.8710938 C27.3111979,56.8710938 27.4739583,56.7799479 27.578125,56.5976562 C27.4088542,56.5455729 27.2705078,56.4430339 27.1630859,56.2900391 C27.0556641,56.1370443 27.0019531,55.9628906 27.0019531,55.7675781 C27.0019531,55.3704427 27.1679688,55.0253906 27.5,54.7324219 C27.8320312,54.4394531 28.219401,54.2929688 28.6621094,54.2929688 C29.1113281,54.2929688 29.4710286,54.4508464 29.7412109,54.7666016 C30.0113932,55.0823568 30.1464844,55.5039062 30.1464844,56.03125 C30.1464844,56.4153646 30.0732422,56.7880859 29.9267578,57.1494141 C29.7802734,57.5107422 29.5491536,57.8834635 29.2333984,58.2675781 C28.9176432,58.6516927 28.4863281,59.0878906 27.9394531,59.5761719 C27.3925781,60.0514323 26.8717448,60.4811198 26.3769531,60.8652344 C25.8821615,61.249349 25.4231771,61.5846354 25,61.8710938 L25,61.8710938 L25,62.1445312 C25.5013021,62.0208333 25.9765625,61.9589844 26.4257812,61.9589844 C26.7643229,61.9589844 27.2981771,61.9980469 28.0273438,62.0761719 C28.4309896,62.1217448 28.7955729,62.1445312 29.1210938,62.1445312 Z M34.122092,62.2324219 C34.9228733,62.2324219 35.6813368,61.7994792 36.3974826,60.9335938 C36.8532118,60.3802083 37.2194227,59.711263 37.4961154,58.9267578 C37.7728082,58.1422526 37.9111545,57.3951823 37.9111545,56.6855469 C37.9111545,55.8847656 37.7142144,55.2386068 37.3203342,54.7470703 C36.926454,54.2555339 36.4170139,54.0097656 35.7920139,54.0097656 C35.0628472,54.0097656 34.3987847,54.3450521 33.7998264,55.015625 C33.2659722,55.6145833 32.8411675,56.3209635 32.5254123,57.1347656 C32.2096571,57.9485677 32.0517795,58.7330729 32.0517795,59.4882812 C32.0517795,60.3216146 32.2422092,60.9873047 32.6230686,61.4853516 C33.0039279,61.9833984 33.5036024,62.2324219 34.122092,62.2324219 Z M34.1513889,62.0078125 C33.7477431,62.0078125 33.4319878,61.8385417 33.2041233,61.5 C32.9762587,61.1614583 32.8623264,60.6861979 32.8623264,60.0742188 C32.8623264,59.5924479 32.9306858,59.0276693 33.0674045,58.3798828 C33.2041233,57.7320964 33.3929253,57.0989583 33.6338108,56.4804688 C34.2262587,54.9830729 34.9424045,54.234375 35.7822483,54.234375 C36.1858941,54.234375 36.5000217,54.4003906 36.7246311,54.7324219 C36.9492404,55.0644531 37.0615451,55.5364583 37.0615451,56.1484375 C37.0615451,56.7213542 36.9834201,57.3544922 36.8271701,58.0478516 C36.6709201,58.7412109 36.4560764,59.3873698 36.1826389,59.9863281 C35.8701389,60.6829427 35.5511285,61.1940104 35.2256076,61.5195312 C34.9000868,61.8450521 34.5420139,62.0078125 34.1513889,62.0078125 Z M41.9844184,62.1445312 C42.3229601,62.1445312 42.6419705,62.1152344 42.9414496,62.0566406 L42.9414496,62.0566406 L43.5371528,60.2792969 L43.3906684,60.2792969 C43.2148871,60.6438802 43.0163194,60.9042969 42.7949653,61.0605469 C42.5736111,61.2167969 42.2838976,61.2949219 41.9258246,61.2949219 C41.821658,61.2949219 41.6588976,61.2884115 41.4375434,61.2753906 L41.4375434,61.2753906 L40.6465278,61.2167969 C40.431684,61.1972656 40.2070746,61.1875 39.9726996,61.1875 C39.6797309,61.1875 39.3965278,61.2102865 39.1230903,61.2558594 C39.2663194,61.1451823 39.5885851,60.9010417 40.0898871,60.5234375 C41.1901476,59.7161458 41.9713976,59.0878906 42.4336371,58.6386719 C42.9479601,58.1438802 43.314171,57.6946615 43.53227,57.2910156 C43.7503689,56.8873698 43.8594184,56.4544271 43.8594184,55.9921875 C43.8594184,55.3932292 43.6689887,54.9114583 43.2881293,54.546875 C42.90727,54.1822917 42.4043403,54 41.7793403,54 C41.1478299,54 40.5618924,54.218099 40.0215278,54.6542969 C39.4811632,55.0904948 39.2109809,55.5657552 39.2109809,56.0800781 C39.2109809,56.3079427 39.2809679,56.4967448 39.4209418,56.6464844 C39.5609158,56.796224 39.7383246,56.8710938 39.9531684,56.8710938 C40.1745226,56.8710938 40.337283,56.7799479 40.4414496,56.5976562 C40.2721788,56.5455729 40.1338325,56.4430339 40.0264106,56.2900391 C39.9189887,56.1370443 39.8652778,55.9628906 39.8652778,55.7675781 C39.8652778,55.3704427 40.0312934,55.0253906 40.3633246,54.7324219 C40.6953559,54.4394531 41.0827257,54.2929688 41.525434,54.2929688 C41.9746528,54.2929688 42.3343533,54.4508464 42.6045356,54.7666016 C42.8747179,55.0823568 43.009809,55.5039062 43.009809,56.03125 C43.009809,56.4153646 42.9365668,56.7880859 42.7900825,57.1494141 C42.6435981,57.5107422 42.4124783,57.8834635 42.0967231,58.2675781 C41.7809679,58.6516927 41.3496528,59.0878906 40.8027778,59.5761719 C40.2559028,60.0514323 39.7350694,60.4811198 39.2402778,60.8652344 C38.7454861,61.249349 38.2865017,61.5846354 37.8633246,61.8710938 L37.8633246,61.8710938 L37.8633246,62.1445312 C38.3646267,62.0208333 38.8398871,61.9589844 39.2891059,61.9589844 C39.6276476,61.9589844 40.1615017,61.9980469 40.8906684,62.0761719 L41.1860786,62.1060791 C41.4741645,62.1317139 41.7402778,62.1445312 41.9844184,62.1445312 Z M46.9854167,62.2324219 C47.7861979,62.2324219 48.5446615,61.7994792 49.2608073,60.9335938 C49.7165365,60.3802083 50.0827474,59.711263 50.3594401,58.9267578 C50.6361328,58.1422526 50.7744792,57.3951823 50.7744792,56.6855469 C50.7744792,55.8847656 50.5775391,55.2386068 50.1836588,54.7470703 C49.7897786,54.2555339 49.2803385,54.0097656 48.6553385,54.0097656 C47.9261719,54.0097656 47.2621094,54.3450521 46.663151,55.015625 C46.1292969,55.6145833 45.7044922,56.3209635 45.388737,57.1347656 C45.0729818,57.9485677 44.9151042,58.7330729 44.9151042,59.4882812 C44.9151042,60.3216146 45.1055338,60.9873047 45.4863932,61.4853516 C45.8672526,61.9833984 46.3669271,62.2324219 46.9854167,62.2324219 Z M47.0147135,62.0078125 C46.6110677,62.0078125 46.2953125,61.8385417 46.0674479,61.5 C45.8395833,61.1614583 45.725651,60.6861979 45.725651,60.0742188 C45.725651,59.5924479 45.7940104,59.0276693 45.9307292,58.3798828 C46.0674479,57.7320964 46.25625,57.0989583 46.4971354,56.4804688 C47.0895833,54.9830729 47.8057292,54.234375 48.6455729,54.234375 C49.0492187,54.234375 49.3633463,54.4003906 49.5879557,54.7324219 C49.8125651,55.0644531 49.9248698,55.5364583 49.9248698,56.1484375 C49.9248698,56.7213542 49.8467448,57.3544922 49.6904948,58.0478516 C49.5342448,58.7412109 49.319401,59.3873698 49.0459635,59.9863281 C48.7334635,60.6829427 48.4144531,61.1940104 48.0889323,61.5195312 C47.7634115,61.8450521 47.4053385,62.0078125 47.0147135,62.0078125 Z" id="path-5"></path>
        <filter x="-3.9%" y="-12.1%" width="107.8%" height="124.3%" filterUnits="objectBoundingBox" id="filter-6">
            <feGaussianBlur stdDeviation="0.5" in="SourceAlpha" result="shadowBlurInner1"></feGaussianBlur>
            <feOffset dx="0" dy="1" in="shadowBlurInner1" result="shadowOffsetInner1"></feOffset>
            <feComposite in="shadowOffsetInner1" in2="SourceAlpha" operator="arithmetic" k2="-1" k3="1" result="shadowInnerInner1"></feComposite>
            <feColorMatrix values="0 0 0 0 0.303199405   0 0 0 0 0.303199405   0 0 0 0 0.303199405  0 0 0 0.153560915 0" type="matrix" in="shadowInnerInner1"></feColorMatrix>
        </filter>
        <path d="M60.1641143,40.3282286 L55.2393143,40.3282286 C55.2105141,41.614635 54.8889174,42.7090241 54.2745143,43.6114286 C53.6601112,44.5138331 52.680921,45.3346249 51.3369143,46.0738286 L51.1497143,45.8722286 C52.2153196,45.0466244 52.9857119,44.2210327 53.4609143,43.3954286 C53.9361167,42.5698244 54.1737143,41.2690375 54.1737143,39.4930286 L54.1737143,34.8850286 C54.1737143,34.3858261 54.1593144,33.8770312 54.1305143,33.3586286 L55.2825143,34.0066286 L59.7897143,34.0066286 L60.4665143,33.1426286 L61.6905143,34.1074286 C61.7577146,34.1746289 61.7913143,34.2298284 61.7913143,34.2730286 C61.7913143,34.3162288 61.7385148,34.3666283 61.6329143,34.4242286 L61.2009143,34.6258286 L61.2009143,44.3170286 C61.2009143,44.7298306 61.1361149,45.0346276 61.0065143,45.2314286 C60.8769136,45.4282296 60.6513159,45.6202276 60.3297143,45.8074286 C60.0081127,45.9946295 59.7993148,46.0882286 59.7033143,46.0882286 C59.6073138,46.0882286 59.5449144,46.0114293 59.5161143,45.8578286 C59.4777141,45.4738267 59.2929159,45.2026294 58.9617143,45.0442286 C58.6305126,44.8858278 58.1289176,44.7394292 57.4569143,44.6050286 L57.4569143,44.3314286 C58.1385177,44.3794288 58.6929121,44.4034286 59.1201143,44.4034286 C59.5473164,44.4034286 59.8281136,44.360229 59.9625143,44.2738286 C60.096915,44.1874281 60.1641143,44.0338297 60.1641143,43.8130286 L60.1641143,40.3282286 Z M55.2393143,36.9442286 L60.1641143,36.9442286 L60.1641143,34.4098286 L55.2393143,34.4098286 L55.2393143,36.9442286 Z M60.1641143,37.3474286 L55.2393143,37.3474286 L55.2393143,39.9250286 L60.1641143,39.9250286 L60.1641143,37.3474286 Z" id="path-7"></path>
        <filter x="-9.4%" y="-7.7%" width="118.8%" height="115.4%" filterUnits="objectBoundingBox" id="filter-8">
            <feGaussianBlur stdDeviation="0.5" in="SourceAlpha" result="shadowBlurInner1"></feGaussianBlur>
            <feOffset dx="0" dy="1" in="shadowBlurInner1" result="shadowOffsetInner1"></feOffset>
            <feComposite in="shadowOffsetInner1" in2="SourceAlpha" operator="arithmetic" k2="-1" k3="1" result="shadowInnerInner1"></feComposite>
            <feColorMatrix values="0 0 0 0 0.303199405   0 0 0 0 0.303199405   0 0 0 0 0.303199405  0 0 0 0.153560915 0" type="matrix" in="shadowInnerInner1"></feColorMatrix>
        </filter>
        <path d="M9.99068525,33.5722656 L10.1664665,33.6015625 C11.1625652,33.796876 12.0121661,33.8945312 12.7152946,33.8945312 C13.242641,33.8945312 13.6820897,33.8603519 14.033654,33.7919922 C14.3852183,33.7236325 14.9125567,33.5332047 15.6156853,33.2207031 L14.5902946,35.828125 C13.9066975,36.0039071 13.1840484,36.0917969 12.4223259,36.0917969 C11.5434152,36.0917969 10.6254557,35.9941416 9.66841963,35.7988281 L8.61373213,42.6542969 L5.97701338,42.6542969 L7.85201338,35.4179688 L7.705529,35.3886719 C5.98677041,35.0175763 4.5219413,34.8320312 3.31099775,34.8320312 C1.6508332,34.8320312 0.21530068,35.1640592 -0.995642875,35.828125 L-1.435096,35.359375 C-0.18508975,34.1874941 1.23091171,32.2441542 2.81295088,29.5292969 C3.61373613,28.1816339 4.24849541,26.7900462 4.71724775,25.3544922 C5.18600009,23.9189381 5.42037275,22.6054747 5.42037275,21.4140625 C5.42037275,20.8476534 5.35201406,20.3300805 5.21529463,19.8613281 L8.26216963,18.0742188 C8.30123232,18.6210965 8.32076338,18.9042968 8.32076338,18.9238281 C8.32076338,20.1347717 8.13033559,21.306635 7.74947431,22.4394531 C7.36861303,23.5722713 6.63131572,25.1054591 5.53756025,27.0390625 C4.93208847,28.0742188 4.10690141,29.3388597 3.06197431,30.8330078 C2.01704721,32.3271559 1.02584619,33.5917917 0.0883415,34.6269531 L0.5570915,34.4511719 C3.07663535,33.5527299 5.06880293,33.1035156 6.533654,33.1035156 C7.08053173,33.1035156 7.57857363,33.1425777 8.02779463,33.2207031 C8.18404541,33.2402345 8.32076279,33.2597655 8.43795088,33.2792969 L10.3422478,26.0136719 L11.2504509,25.4863281 L9.99068525,33.5722656 Z" id="path-9"></path>
        <filter x="-5.9%" y="-4.1%" width="111.7%" height="108.1%" filterUnits="objectBoundingBox" id="filter-10">
            <feGaussianBlur stdDeviation="0.5" in="SourceAlpha" result="shadowBlurInner1"></feGaussianBlur>
            <feOffset dx="0" dy="1" in="shadowBlurInner1" result="shadowOffsetInner1"></feOffset>
            <feComposite in="shadowOffsetInner1" in2="SourceAlpha" operator="arithmetic" k2="-1" k3="1" result="shadowInnerInner1"></feComposite>
            <feColorMatrix values="0 0 0 0 0.303199405   0 0 0 0 0.303199405   0 0 0 0 0.303199405  0 0 0 0.153560915 0" type="matrix" in="shadowInnerInner1"></feColorMatrix>
        </filter>
    </defs>
    <g id="=slice=" stroke="none" stroke-width="1" fill="none" fill-rule="evenodd">
        <g id="Group-27-Copy-10" transform="translate(4.000000, 2.000000)">
            <g id="Oval" fill-rule="nonzero">
                <use fill="black" fill-opacity="1" filter="url(#filter-4)" xlink:href="#path-3"></use>
                <circle stroke="url(#linearGradient-2)" stroke-width="4.28571429" stroke-linejoin="square" fill="url(#linearGradient-1)" fill-rule="evenodd" cx="38" cy="38" r="35"></circle>
                <circle stroke="#D1C092" stroke-width="2.85714286" cx="38" cy="38" r="38.5714286"></circle>
            </g>
            <g id="2020" fill-rule="nonzero">
                <use fill="#FFFFFF" xlink:href="#path-5"></use>
                <use fill="#3D3226" xlink:href="#path-5"></use>
                <use fill="black" fill-opacity="1" filter="url(#filter-6)" xlink:href="#path-5"></use>
            </g>
            <g id="月">
                <use fill="#FFFFFF" fill-rule="evenodd" xlink:href="#path-7"></use>
                <use fill="#3D3226" fill-rule="evenodd" xlink:href="#path-7"></use>
                <use fill="black" fill-opacity="1" filter="url(#filter-8)" xlink:href="#path-7"></use>
            </g>
            <g id="4" transform="translate(30.000000, 4.000000)">
                <g>
                    <use fill="#FFFFFF" fill-rule="evenodd" xlink:href="#path-9"></use>
                    <use fill="#3D3226" fill-rule="evenodd" xlink:href="#path-9"></use>
                    <use fill="black" fill-opacity="1" filter="url(#filter-10)" xlink:href="#path-9"></use>
                </g>
            </g>
        </g>
    </g>
</svg>