<?xml version="1.0" encoding="UTF-8"?>
<svg width="80px" height="80px" viewBox="0 0 80 80" version="1.1" xmlns="http://www.w3.org/2000/svg" xmlns:xlink="http://www.w3.org/1999/xlink">
    <title>8</title>
    <defs>
        <linearGradient x1="50%" y1="4.11623916%" x2="50%" y2="100%" id="linearGradient-1">
            <stop stop-color="#DACBA4" offset="0%"></stop>
            <stop stop-color="#C2A66B" offset="100%"></stop>
        </linearGradient>
        <linearGradient x1="50%" y1="100%" x2="50%" y2="3.061617e-15%" id="linearGradient-2">
            <stop stop-color="#EFDFB4" offset="0%"></stop>
            <stop stop-color="#AD945E" offset="100%"></stop>
        </linearGradient>
        <circle id="path-3" cx="40" cy="40" r="37.1428571"></circle>
        <path d="M33.3901367,60.9985352 L32.8242188,62.6870117 C32.5397121,62.7426761 32.2366553,62.7705078 31.9150391,62.7705078 C31.6057927,62.7705078 31.259442,62.7488609 30.8759766,62.7055664 C30.1832648,62.6313473 29.6761084,62.5942383 29.3544922,62.5942383 C28.9277322,62.5942383 28.4762394,62.6529942 28,62.7705078 L28,62.5107422 C28.4020202,62.2386054 28.838051,61.9200865 29.3081055,61.5551758 C29.7781599,61.1902651 30.2729466,60.7820661 30.7924805,60.3305664 C31.3120143,59.8666969 31.7217596,59.452313 32.0217285,59.0874023 C32.3216975,58.7224917 32.5412591,58.3684099 32.6804199,58.0251465 C32.8195808,57.681883 32.8891602,57.3278013 32.8891602,56.9628906 C32.8891602,56.4619116 32.7608249,56.0614436 32.5041504,55.7614746 C32.2474759,55.4615057 31.9057639,55.3115234 31.4790039,55.3115234 C31.0584289,55.3115234 30.6904313,55.4506822 30.375,55.7290039 C30.0595687,56.0073256 29.9018555,56.3351218 29.9018555,56.7124023 C29.9018555,56.8979501 29.9528803,57.0633945 30.0549316,57.2087402 C30.1569829,57.354086 30.2884107,57.4514971 30.4492188,57.5009766 C30.3502599,57.6741545 30.1956391,57.7607422 29.9853516,57.7607422 C29.781249,57.7607422 29.6127123,57.6896166 29.4797363,57.5473633 C29.3467604,57.40511 29.2802734,57.2257498 29.2802734,57.0092773 C29.2802734,56.5206681 29.536944,56.0691752 30.050293,55.6547852 C30.5636419,55.2403951 31.1202769,55.0332031 31.7202148,55.0332031 C32.3139678,55.0332031 32.7917462,55.2063785 33.1535645,55.5527344 C33.5153827,55.8990903 33.6962891,56.356768 33.6962891,56.9257812 C33.6962891,57.364911 33.5926931,57.7762025 33.385498,58.159668 C33.178303,58.5431334 32.8304061,58.969887 32.3417969,59.4399414 C31.9026671,59.8667014 31.160487,60.4635378 30.1152344,61.2304688 C29.638995,61.5891945 29.3328457,61.8211258 29.1967773,61.9262695 C29.4565443,61.882975 29.7255845,61.8613281 30.0039063,61.8613281 C30.2265636,61.8613281 30.4399404,61.8706054 30.644043,61.8891602 L31.3955078,61.9448242 C31.6057953,61.9571941 31.7604162,61.9633789 31.859375,61.9633789 C32.199546,61.9633789 32.4747711,61.8891609 32.6850586,61.7407227 C32.8953461,61.5922844 33.0839835,61.3448911 33.2509766,60.9985352 L33.3901367,60.9985352 Z M40.2655968,57.5844727 C40.2655968,58.2586297 40.1341691,58.9683394 39.8713097,59.713623 C39.6084503,60.4589067 39.2605534,61.0943984 38.8276085,61.6201172 C38.1472666,62.4427124 37.4267334,62.8540039 36.6659874,62.8540039 C36.0784194,62.8540039 35.6037334,62.617434 35.2419151,62.1442871 C34.8800969,61.6711402 34.6991905,61.0387409 34.6991905,60.2470703 C34.6991905,59.5296188 34.8491728,58.7843463 35.1491417,58.0112305 C35.4491107,57.2381146 35.8526711,56.5670601 36.3598351,55.9980469 C36.9288483,55.3609994 37.5597014,55.0424805 38.2524132,55.0424805 C38.8461662,55.0424805 39.3301294,55.275958 39.7043175,55.7429199 C40.0785056,56.2098819 40.2655968,56.8237267 40.2655968,57.5844727 Z M39.4584679,57.0742188 C39.4584679,56.4928356 39.3517795,56.0444352 39.1383995,55.7290039 C38.9250195,55.4135726 38.6266013,55.2558594 38.2431358,55.2558594 C37.4452803,55.2558594 36.7649486,55.9671153 36.2021202,57.3896484 C35.9732779,57.9772165 35.7939177,58.5786916 35.6640343,59.1940918 C35.5341508,59.809492 35.4692101,60.3460264 35.4692101,60.8037109 C35.4692101,61.3850941 35.5774447,61.8365869 35.7939171,62.1582031 C36.0103895,62.4798193 36.310354,62.640625 36.6938194,62.640625 C37.064915,62.640625 37.4050809,62.4860042 37.7143273,62.1767578 C38.0235736,61.8675115 38.3266305,61.382002 38.6235069,60.7202148 C38.8832739,60.1512016 39.0873734,59.5373568 39.2358116,58.8786621 C39.3842499,58.2199674 39.4584679,57.6184923 39.4584679,57.0742188 Z M45.7901368,60.9985352 L45.2242189,62.6870117 C44.9397122,62.7426761 44.6366554,62.7705078 44.3150392,62.7705078 C44.0057928,62.7705078 43.6594421,62.7488609 43.2759767,62.7055664 C42.5832649,62.6313473 42.0761085,62.5942383 41.7544923,62.5942383 C41.3277323,62.5942383 40.8762395,62.6529942 40.4000001,62.7705078 L40.4000001,62.5107422 C40.8020203,62.2386054 41.2380511,61.9200865 41.7081056,61.5551758 C42.17816,61.1902651 42.6729467,60.7820661 43.1924806,60.3305664 C43.7120144,59.8666969 44.1217597,59.452313 44.4217286,59.0874023 C44.7216976,58.7224917 44.9412592,58.3684099 45.08042,58.0251465 C45.2195809,57.681883 45.2891603,57.3278013 45.2891603,56.9628906 C45.2891603,56.4619116 45.160825,56.0614436 44.9041505,55.7614746 C44.647476,55.4615057 44.305764,55.3115234 43.879004,55.3115234 C43.458429,55.3115234 43.0904314,55.4506822 42.7750001,55.7290039 C42.4595688,56.0073256 42.3018556,56.3351218 42.3018556,56.7124023 C42.3018556,56.8979501 42.3528804,57.0633945 42.4549317,57.2087402 C42.556983,57.354086 42.6884108,57.4514971 42.8492189,57.5009766 C42.75026,57.6741545 42.5956392,57.7607422 42.3853517,57.7607422 C42.1812491,57.7607422 42.0127124,57.6896166 41.8797364,57.5473633 C41.7467605,57.40511 41.6802735,57.2257498 41.6802735,57.0092773 C41.6802735,56.5206681 41.9369441,56.0691752 42.4502931,55.6547852 C42.963642,55.2403951 43.520277,55.0332031 44.1202149,55.0332031 C44.7139679,55.0332031 45.1917463,55.2063785 45.5535646,55.5527344 C45.9153828,55.8990903 46.0962892,56.356768 46.0962892,56.9257812 C46.0962892,57.364911 45.9926932,57.7762025 45.7854981,58.159668 C45.5783031,58.5431334 45.2304062,58.969887 44.741797,59.4399414 C44.3026672,59.8667014 43.5604871,60.4635378 42.5152345,61.2304688 C42.0389951,61.5891945 41.7328458,61.8211258 41.5967774,61.9262695 C41.8565444,61.882975 42.1255846,61.8613281 42.4039064,61.8613281 C42.6265637,61.8613281 42.8399405,61.8706054 43.0440431,61.8891602 L43.7955079,61.9448242 C44.0057954,61.9571941 44.1604163,61.9633789 44.2593751,61.9633789 C44.5995461,61.9633789 44.8747712,61.8891609 45.0850587,61.7407227 C45.2953462,61.5922844 45.4839836,61.3448911 45.6509767,60.9985352 L45.7901368,60.9985352 Z M50.2498623,62.9 L46.9,62.9 L46.9550964,62.6422553 L47.2636364,62.6422553 C47.6236014,62.6422553 47.8733694,62.5910373 48.0129477,62.4885998 C48.152526,62.3861622 48.2553716,62.1829425 48.3214876,61.8789343 L48.4096419,61.5121437 L49.3573003,57.3684015 L49.423416,57.0214374 C49.4674933,56.8496067 49.4895317,56.7174313 49.4895317,56.6249071 C49.4895317,56.4530764 49.4123975,56.3671623 49.2581267,56.3671623 C49.1405871,56.3671623 48.9679534,56.4200325 48.7402204,56.5257745 L47.8256198,56.9718711 L47.7705234,56.7537794 L47.9798898,56.6149938 L49.2140496,55.8417596 C49.7576703,55.4980982 50.2241487,55.1841815 50.6134986,54.9 L50.9,54.9 C50.7163444,55.4419275 50.5069801,56.2349803 50.2719008,57.2791822 L49.3022039,61.5121437 C49.2287416,61.8558051 49.192011,62.0970253 49.192011,62.2358116 C49.192011,62.4010335 49.2379242,62.5100782 49.3297521,62.5629492 C49.4215799,62.6158202 49.6144154,62.6422553 49.9082645,62.6422553 L50.3049587,62.6422553 L50.2498623,62.9 Z" id="path-4"></path>
        <filter x="-4.4%" y="-12.5%" width="108.7%" height="125.0%" filterUnits="objectBoundingBox" id="filter-5">
            <feGaussianBlur stdDeviation="0.5" in="SourceAlpha" result="shadowBlurInner1"></feGaussianBlur>
            <feOffset dx="0" dy="1" in="shadowBlurInner1" result="shadowOffsetInner1"></feOffset>
            <feComposite in="shadowOffsetInner1" in2="SourceAlpha" operator="arithmetic" k2="-1" k3="1" result="shadowInnerInner1"></feComposite>
            <feColorMatrix values="0 0 0 0 0.303199405   0 0 0 0 0.303199405   0 0 0 0 0.303199405  0 0 0 0.153560915 0" type="matrix" in="shadowInnerInner1"></feColorMatrix>
        </filter>
        <path d="M36.6503906,33.9570312 C35.7324173,33.097652 35.0927752,32.3066442 34.7314453,31.5839844 C34.3701154,30.8613245 34.1894531,30.0605513 34.1894531,29.1816406 C34.1894531,28.0292911 34.4921845,26.9843797 35.0976562,26.046875 C35.703128,25.1093703 36.5380806,24.3671902 37.6025391,23.8203125 C38.6669975,23.2734348 39.8535091,23 41.1621094,23 C42.3730529,23 43.4619092,23.2294899 44.4287109,23.6884766 C45.3955126,24.1474632 46.1474583,24.7626915 46.6845703,25.5341797 C47.2216824,26.3056679 47.4902344,27.1894481 47.4902344,28.1855469 C47.4902344,29.1230516 47.2607445,30.0117146 46.8017578,30.8515625 C46.3427711,31.6914104 45.683598,32.4580043 44.8242188,33.1513672 C43.9648395,33.84473 42.9687557,34.3964823 41.8359375,34.8066406 L42.1289062,35.0410156 C43.5156319,36.1347711 44.4580053,37.067379 44.9560547,37.8388672 C45.4541041,38.6103554 45.703125,39.5331978 45.703125,40.6074219 C45.703125,42.5410253 44.9267656,44.1669856 43.3740234,45.4853516 C41.8212813,46.8037175 39.8925896,47.4628906 37.5878906,47.4628906 C35.3417856,47.4628906 33.515632,46.8916073 32.109375,45.7490234 C30.703118,44.6064396 30,43.1269622 30,41.3105469 C30,39.7480391 30.5956972,38.302741 31.7871094,36.9746094 C32.9785216,35.6464777 34.5995991,34.6406284 36.6503906,33.9570312 Z M37.2070312,34.4257812 C35.7031175,34.8750022 34.4921921,35.66601 33.5742188,36.7988281 C32.6562454,37.9316463 32.1972656,39.2304614 32.1972656,40.6953125 C32.1972656,41.789068 32.4707004,42.7949173 33.0175781,43.7128906 C33.5644559,44.630864 34.3017532,45.3583958 35.2294922,45.8955078 C36.1572312,46.4326199 37.1777288,46.7011719 38.2910156,46.7011719 C39.7949294,46.7011719 41.0449169,46.2324266 42.0410156,45.2949219 C43.0371144,44.3574172 43.5351562,43.1757884 43.5351562,41.75 C43.5351562,40.2265549 42.7636796,38.8105534 41.2207031,37.5019531 C40.0292909,36.4472604 38.6914137,35.42188 37.2070312,34.4257812 Z M41.2207031,34.3085938 C41.9824257,34.0546862 42.6953092,33.6201203 43.359375,33.0048828 C44.0234408,32.3896454 44.5410138,31.6767619 44.9121094,30.8662109 C45.283205,30.05566 45.46875,29.2402385 45.46875,28.4199219 C45.46875,27.0722589 45.014653,25.954106 44.1064453,25.0654297 C43.1982376,24.1767534 42.0996158,23.7324219 40.8105469,23.7324219 C39.9511676,23.7324219 39.1455116,23.9179669 38.3935547,24.2890625 C37.6415978,24.6601581 37.0459006,25.1679655 36.6064453,25.8125 C36.16699,26.4570345 35.9472656,27.1503869 35.9472656,27.8925781 C35.9472656,29.8457129 37.7050605,31.9843634 41.2207031,34.3085938 Z" id="path-6"></path>
        <filter x="-5.7%" y="-4.1%" width="111.4%" height="108.2%" filterUnits="objectBoundingBox" id="filter-7">
            <feGaussianBlur stdDeviation="0.5" in="SourceAlpha" result="shadowBlurInner1"></feGaussianBlur>
            <feOffset dx="0" dy="1" in="shadowBlurInner1" result="shadowOffsetInner1"></feOffset>
            <feComposite in="shadowOffsetInner1" in2="SourceAlpha" operator="arithmetic" k2="-1" k3="1" result="shadowInnerInner1"></feComposite>
            <feColorMatrix values="0 0 0 0 0.303199405   0 0 0 0 0.303199405   0 0 0 0 0.303199405  0 0 0 0.153560915 0" type="matrix" in="shadowInnerInner1"></feColorMatrix>
        </filter>
        <path d="M62.1641143,42.3282286 L57.2393143,42.3282286 C57.2105141,43.614635 56.8889174,44.7090241 56.2745143,45.6114286 C55.6601112,46.5138331 54.680921,47.3346249 53.3369143,48.0738286 L53.1497143,47.8722286 C54.2153196,47.0466244 54.9857119,46.2210327 55.4609143,45.3954286 C55.9361167,44.5698244 56.1737143,43.2690375 56.1737143,41.4930286 L56.1737143,36.8850286 C56.1737143,36.3858261 56.1593144,35.8770312 56.1305143,35.3586286 L57.2825143,36.0066286 L61.7897143,36.0066286 L62.4665143,35.1426286 L63.6905143,36.1074286 C63.7577146,36.1746289 63.7913143,36.2298284 63.7913143,36.2730286 C63.7913143,36.3162288 63.7385148,36.3666283 63.6329143,36.4242286 L63.2009143,36.6258286 L63.2009143,46.3170286 C63.2009143,46.7298306 63.1361149,47.0346276 63.0065143,47.2314286 C62.8769136,47.4282296 62.6513159,47.6202276 62.3297143,47.8074286 C62.0081127,47.9946295 61.7993148,48.0882286 61.7033143,48.0882286 C61.6073138,48.0882286 61.5449144,48.0114293 61.5161143,47.8578286 C61.4777141,47.4738267 61.2929159,47.2026294 60.9617143,47.0442286 C60.6305126,46.8858278 60.1289176,46.7394292 59.4569143,46.6050286 L59.4569143,46.3314286 C60.1385177,46.3794288 60.6929121,46.4034286 61.1201143,46.4034286 C61.5473164,46.4034286 61.8281136,46.360229 61.9625143,46.2738286 C62.096915,46.1874281 62.1641143,46.0338297 62.1641143,45.8130286 L62.1641143,42.3282286 Z M57.2393143,38.9442286 L62.1641143,38.9442286 L62.1641143,36.4098286 L57.2393143,36.4098286 L57.2393143,38.9442286 Z M62.1641143,39.3474286 L57.2393143,39.3474286 L57.2393143,41.9250286 L62.1641143,41.9250286 L62.1641143,39.3474286 Z" id="path-8"></path>
        <filter x="-9.4%" y="-7.7%" width="118.8%" height="115.4%" filterUnits="objectBoundingBox" id="filter-9">
            <feGaussianBlur stdDeviation="0.5" in="SourceAlpha" result="shadowBlurInner1"></feGaussianBlur>
            <feOffset dx="0" dy="1" in="shadowBlurInner1" result="shadowOffsetInner1"></feOffset>
            <feComposite in="shadowOffsetInner1" in2="SourceAlpha" operator="arithmetic" k2="-1" k3="1" result="shadowInnerInner1"></feComposite>
            <feColorMatrix values="0 0 0 0 0.303199405   0 0 0 0 0.303199405   0 0 0 0 0.303199405  0 0 0 0.153560915 0" type="matrix" in="shadowInnerInner1"></feColorMatrix>
        </filter>
    </defs>
    <g id="8" stroke="none" stroke-width="1" fill="none" fill-rule="evenodd">
        <g id="Oval" fill-rule="nonzero">
            <circle stroke="url(#linearGradient-2)" stroke-width="4.28571429" stroke-linejoin="square" fill="url(#linearGradient-1)" fill-rule="evenodd" cx="40" cy="40" r="35"></circle>
            <circle stroke="#D1C092" stroke-width="2.85714286" cx="40" cy="40" r="38.5714286"></circle>
        </g>
        <g id="2020">
            <use fill="#FFFFFF" fill-rule="evenodd" xlink:href="#path-4"></use>
            <use fill="#3D3226" fill-rule="evenodd" xlink:href="#path-4"></use>
            <use fill="black" fill-opacity="1" filter="url(#filter-5)" xlink:href="#path-4"></use>
        </g>
        <g>
            <use fill="#FFFFFF" fill-rule="evenodd" xlink:href="#path-6"></use>
            <use fill="#FFFFFF" fill-rule="evenodd" xlink:href="#path-6"></use>
            <use fill="#3D3226" fill-rule="evenodd" xlink:href="#path-6"></use>
            <use fill="black" fill-opacity="1" filter="url(#filter-7)" xlink:href="#path-6"></use>
        </g>
        <g id="月">
            <use fill="#FFFFFF" fill-rule="evenodd" xlink:href="#path-8"></use>
            <use fill="#3D3226" fill-rule="evenodd" xlink:href="#path-8"></use>
            <use fill="black" fill-opacity="1" filter="url(#filter-9)" xlink:href="#path-8"></use>
        </g>
    </g>
</svg>