<svg width="14" height="18" viewBox="0 0 14 18" fill="none" xmlns="http://www.w3.org/2000/svg"><path fill-rule="evenodd" clip-rule="evenodd" d="M9.597 2.924c.508-.642.916-1.675.826-2.701-.904.034-1.984.584-2.752 1.35-.441.633-.942 1.683-.826 2.701 1.009.055 2.022-.516 2.752-1.35zM14 12.648c-.022.097-.36 1.266-1.1 2.43-.812 1.076-1.556 2.121-2.752 2.161-1.135-.001-1.505-.704-2.752-.81-1.39.106-1.805.77-3.027.81-1 .045-1.868-1.134-2.477-2.16C.302 12.957-.835 9.08.792 6.435c.648-1.255 1.996-2.08 3.577-2.16.994.036 2.047.8 2.752.81.657-.01 1.93-.934 3.302-.81.535.038 2.108.247 3.027 1.62.015.137-1.788 1.19-1.651 3.242-.09 2.684 2.177 3.534 2.201 3.51z" fill="#80868E"/></svg>