<svg width="183" height="17" viewBox="0 0 183 17" fill="none" xmlns="http://www.w3.org/2000/svg"><path d="M4.904 1.274L.26 3.812l.954 1.764c1.368-.738 2.43-1.314 3.258-1.89L2.51 14.9h2.232L7.136 1.274H4.904zm10.258 0H9.78l.36 1.98h4.14c.936 0 1.224.072 1.224.54 0 .144-.054.468-.126.882L15.162 5.9c-.126.684-.252.828-1.26 1.116l-2.016.576c-2.754.792-3.006.882-3.438 3.312L7.746 14.9h7.848l.828-1.998h-6.138l.342-1.926c.18-1.026.234-1.116 1.692-1.53l2.934-.828c1.44-.414 1.728-.612 1.98-2.07l.324-1.818c.144-.792.234-1.386.234-1.944 0-1.116-.576-1.512-2.628-1.512zM25.952.176h-2.196c-.648 2.268-2.232 4.338-3.924 5.544L19.4 8.456a14.312 14.312 0 0 0 2.106-1.584l-1.368 9.504h2.034l1.674-12.024c.99-1.314 1.764-2.754 2.106-4.176zm8.874 1.044h-8.694l.432 1.602h5.76c.198 0 .252.054.252.126 0 .09-.072.216-.216.396-2.124 2.556-5.904 7.164-7.632 9.342-.882 1.116-1.224 1.782-1.224 2.448 0 .594.468 1.062 1.638 1.062h8.91l.702-1.728h-8.226c-.18 0-.27-.072-.27-.216 0-.216.36-.72.684-1.134 1.602-1.98 5.382-6.66 7.272-8.928.36-.432.612-.774.81-1.08.27-.432.36-1.026.396-1.404.036-.306-.144-.486-.594-.486zm18.175-.108H40.725l-.27 1.656h12.276l.27-1.656zm.234 6.516l.252-1.656H38.655l-.252 1.656h4.05c-.864 4.626-3.456 6.804-5.958 8.748h3.078c1.89-1.62 4.122-3.852 5.04-8.748h2.502l-1.296 8.748h6.642l.63-1.728h-4.806l.972-7.02h3.978zm6.332.954h1.818l.504-3.528h3.564l.234-1.494h-3.6l.486-3.384h-1.764l-.504 3.384h-3.546l-.216 1.494h3.546l-.522 3.528zm12.942-3.456l.18-1.62H68.44c.36-.954.684-2.052.972-3.33H67.63c-.774 3.348-1.512 4.698-2.61 5.652l-.288 2.16c-.432-.882-.828-1.674-1.134-2.394h-1.62c.36 1.116.774 2.214 1.206 3.294h1.98a27.112 27.112 0 0 1-.36-.738c.324-.198.648-.396.936-.63.234 1.08.648 2.466 1.134 3.834-1.35 2.088-2.934 3.654-4.284 5.022h2.592c.954-.99 1.764-1.944 2.466-2.934.45 1.17.918 2.196 1.314 2.934h2.214c-.81-1.296-1.656-3.024-2.376-4.752 1.098-1.908 1.854-3.996 2.484-6.498h1.224zM60.16 3.2c-.522-1.044-.936-1.818-1.278-2.52h-1.746c.414.81.792 1.62 1.206 2.52h1.818zm4.086 0A54.756 54.756 0 0 0 65.723.68h-1.8c-.414.774-1.026 1.8-1.53 2.52h1.854zm3.744 6.174a19.224 19.224 0 0 1-.522-1.908h-1.656c.774-.612 1.386-1.386 1.908-2.34h1.746a18.102 18.102 0 0 1-1.476 4.248zm-8.172-3.78h-1.692c-.594 1.08-1.404 2.268-2.25 3.366h2.016c.612-.954 1.386-2.25 1.926-3.366zm3.258 9.414a42.17 42.17 0 0 0-1.872-1.134 17.113 17.113 0 0 0 2.232-1.836c.486-.468.702-1.17.702-1.62 0-.504-.162-.576-.756-.576h-2.88c.18-.27.36-.54.54-.828h-2.034c-.162.27-.342.558-.54.828H55.75l-.198 1.44h1.926l-1.116 1.548c.45.27 1.08.63 1.782 1.062-.882.378-1.746.648-2.412.738l-.558 1.782c1.566-.198 3.132-.828 4.5-1.584a32.317 32.317 0 0 1 2.304 1.584l1.098-1.404zm-4.41-2.538c.234-.342.54-.738.846-1.188h2.322c.126 0 .126.072.054.144-.594.612-1.332 1.152-2.124 1.62l-1.098-.576zM89.73 1.85h-5.58a29.752 29.752 0 0 1-.324-1.674h-2.142c.072.522.18 1.116.288 1.674H75.69l-.63 4.158h2.106l.378-2.592h10.692c.144 0 .198.09.18.216l-.36 2.412h2.142l.432-3.168c.108-.828-.144-1.026-.9-1.026zm-6.336 7.488a43.213 43.213 0 0 0 3.42-2.268c.342-.252.54-.486.666-.774.09-.198.162-.576.162-.81 0-.306-.126-.45-.504-.45h-9.396l.306 1.53h6.21c.216 0 .198.054.09.144-.846.702-1.764 1.242-2.916 1.818l-.162 1.188h-6.75l-.216 1.566h6.732l-.486 3.51h-2.916l.486 1.584h4.338l.684-5.094h6.444l.216-1.566H83.34l.054-.378zM99.337.446h-2.124c-.756 2.088-2.556 4.086-4.248 5.256l-.432 2.646c.702-.414 1.422-.954 2.142-1.566l-1.404 9.594h2.034l1.656-11.898c1.026-1.224 1.872-2.61 2.376-4.032zm3.078 9.63c3.114-2.106 4.914-4.554 6.39-7.326h-2.232a16.06 16.06 0 0 1-3.816 4.77l.972-7.074h-2.016l-1.206 8.694a17.258 17.258 0 0 1-3.402 1.566l-.432 2.214a32.772 32.772 0 0 0 3.528-1.548l-.702 5.004h7.362l.684-1.728h-5.76l.63-4.572zm14.126-.684l.252-1.764c-.612.198-1.224.396-1.818.576l.45-3.204h1.872l.234-1.602h-1.89l.45-3.222h-1.908l-.45 3.222h-2.232L111.267 5h2.25l-.522 3.762c-.828.234-1.674.45-2.52.666l.756 1.602c.504-.144 1.008-.306 1.512-.45l-.594 4.248h-2.196l.504 1.548h3.384l.9-6.408c.576-.198 1.17-.378 1.8-.576zm10.152-.396l.234-1.674h-4.086c.162-.936.306-1.854.45-2.826h3.384l.234-1.674h-3.384c.108-.81.216-1.674.324-2.646h-1.926c-.09.936-.18 1.818-.288 2.646h-3.204l-.252 1.674h3.24c-.162 1.026-.306 1.962-.486 2.826h-3.402l-.27 1.674h3.222c-1.062 2.88-3.528 5.796-5.58 7.38h2.754c1.35-1.224 3.06-3.438 4.194-5.886.486 1.962 1.206 4.338 1.8 5.886h2.358c-1.134-2.322-1.998-4.806-2.43-6.534h-1.44c.126-.288.234-.558.324-.846h4.23zm7.969.09l.27-1.638c-.576.198-1.206.396-1.854.612l.414-2.898h1.746l.234-1.584h-1.764l.468-3.402h-1.926l-.486 3.402h-1.98l-.234 1.584h1.998l-.504 3.564-2.502.792.81 1.476 1.458-.522-.612 4.338h-2.052l.486 1.566h3.294l.918-6.624a79.18 79.18 0 0 0 1.818-.666zm6.444-3.654l.27-1.98h3.618l.198-1.476h-3.618l.252-1.8H139.9l-.252 1.8h-3.312l-.198 1.476h3.294l-.27 1.98h-3.798l-.198 1.494h10.17l.198-1.494h-4.428zm2.25 1.998h-1.908l-.18 1.332h-6.372l-.234 1.512h6.408l-.612 4.554h-2.376l.486 1.548h3.6l.81-6.102h1.98l.252-1.512h-2.034l.18-1.332zm-6.156 3.582h-1.818c.396.828.936 1.926 1.296 2.646h2.124a47.36 47.36 0 0 1-1.602-2.646zm26.455-7.938l.198-1.404h-2.43l.198-1.494h-1.98l-.198 1.494h-6.174l.198-1.494h-1.98l-.216 1.494h-2.448l-.198 1.404h2.448l-.756 5.454h-2.844l-.216 1.404h4.014c-1.134.9-2.772 1.53-4.14 1.818l-.45 1.89c1.17-.27 2.574-.774 3.852-1.422l-.126 1.152h3.294l-.216 1.566h-6.138l-.216 1.44h14.454l.216-1.44h-6.318l.216-1.566h3.492l.126-1.26c.9.594 1.872 1.044 2.916 1.422l1.044-1.584c-1.584-.468-3.132-1.116-4.194-2.016h4.212l.216-1.404h-3.006l.738-5.454h2.412zm-4.536.882h-6.174l.126-.882h6.174l-.126.882zm-.306 2.25h-6.174l.126-.918h6.174l-.126.918zm-6.48 2.322l.126-.99h6.174l-.144.99h-6.156zm6.786 3.438h-3.24l.198-1.422h-1.98l-.198 1.422h-2.898c1.062-.576 1.998-1.26 2.646-2.034h3.222c.684.81 1.44 1.476 2.25 2.034zm21.47-3.6h-5.814l.324-2.196h3.42l.144-1.134c.288.486.594.99.9 1.53h2.664c-1.26-1.908-2.538-3.69-3.546-5.256-.324-.504-.504-.828-1.17-.828h-6.282c-1.44 1.98-3.672 4.32-5.562 6.084h2.934c.396-.45.792-.918 1.224-1.386l-.126.99h3.33l-.324 2.196h-5.94l-.234 1.458h5.976l-.72 5.04h-6.516l-.198 1.512h15.21l.216-1.512h-6.642l.72-5.04h5.778l.234-1.458zm-8.19-6.282h4.158c.216 0 .342.036.468.234a60.49 60.49 0 0 1 1.44 2.376h-8.226c.738-.864 1.494-1.746 2.16-2.61zm-3.222 8.334h-1.998a41.971 41.971 0 0 0 1.512 3.816h2.124c-.612-1.278-1.17-2.538-1.638-3.816zm8.208 3.816a41.184 41.184 0 0 0 2.178-3.816h-1.98a43.82 43.82 0 0 1-2.358 3.816h2.16z" fill="#000"/></svg>