<?xml version="1.0" encoding="UTF-8"?>
<svg width="14px" height="14px" viewBox="0 0 14 14" version="1.1" xmlns="http://www.w3.org/2000/svg" xmlns:xlink="http://www.w3.org/1999/xlink">
    <title>3.Icons/Outlined/add2</title>
    <g id="编辑入口-终稿" stroke="none" stroke-width="1" fill="none" fill-rule="evenodd">
        <g id="解构状态" transform="translate(-87.000000, -354.000000)" fill="#07C160">
            <g id="Group-Copy-4" transform="translate(42.000000, 109.000000)">
                <g id="Group-14" transform="translate(32.000000, 228.000000)">
                    <g id="Group" transform="translate(12.000000, 16.000000)">
                        <g id="Icons/Tint-Color/Black" transform="translate(1.333333, 1.333333)">
                            <path d="M6.66666667,0 C10.348565,0 13.3333333,2.98476833 13.3333333,6.66666667 C13.3333333,10.348565 10.348565,13.3333333 6.66666667,13.3333333 C2.98476833,13.3333333 0,10.348565 0,6.66666667 C0,2.98476833 2.98476833,0 6.66666667,0 Z M6.66666667,0.8 C3.42659613,0.8 0.8,3.42659613 0.8,6.66666667 C0.8,9.9067372 3.42659613,12.5333333 6.66666667,12.5333333 C9.9067372,12.5333333 12.5333333,9.9067372 12.5333333,6.66666667 C12.5333333,3.42659613 9.9067372,0.8 6.66666667,0.8 Z M7.06666263,3.33333333 L7.066,6.266 L10,6.2666626 L10,7.06666263 L7.066,7.066 L7.06666263,10 L6.2666626,10 L6.266,7.066 L3.33333333,7.06666263 L3.33333333,6.2666626 L6.266,6.266 L6.2666626,3.33333333 L7.06666263,3.33333333 Z" id="图标颜色"></path>
                        </g>
                    </g>
                </g>
            </g>
        </g>
    </g>
</svg>