<svg width="37" height="46" xmlns="http://www.w3.org/2000/svg"><path d="M27.549 0c-2.28.09-5.06 1.513-6.71 3.448-1.461 1.688-2.748 4.405-2.389 7.031 2.534.154 5.14-1.325 6.728-3.2 1.597-1.946 2.647-4.622 2.37-7.279zm6.31 39.749c-1.898 2.758-3.86 5.537-6.96 5.586-3.047.054-4.022-1.816-7.501-1.816-3.475 0-4.568 1.767-7.447 1.87-2.978.121-5.269-3.013-7.173-5.757-3.893-5.621-6.89-15.93-2.87-22.838 1.977-3.456 5.532-5.653 9.403-5.713 2.917-.055 5.693 1.974 7.465 1.974 1.82 0 5.178-2.456 8.72-2.088 1.483.063 5.632.62 8.304 4.489-.21.143-4.963 2.945-4.91 8.648.071 6.884 6.046 9.143 6.11 9.166-.057.173-.95 3.282-3.142 6.479z" fill="#FFF" fill-rule="evenodd"/></svg>