<?xml version="1.0" encoding="UTF-8"?>
<svg width="16px" height="16px" viewBox="0 0 16 16" version="1.1" xmlns="http://www.w3.org/2000/svg" xmlns:xlink="http://www.w3.org/1999/xlink">
    <!-- Generator: Sketch 53.2 (72643) - https://sketchapp.com -->
    <title>awesome_icon</title>
    <desc>Created with Sketch.</desc>
    <g id="awesome_icon" stroke="none" stroke-width="1" fill="none" fill-rule="evenodd">
        <g id="Group-10" transform="translate(2.000000, 3.000000)" stroke="#000000">
            <path d="M12.1091912,4.10087893 C11.8535813,3.78971412 11.4552077,3.61168451 11.0169443,3.61168451 L8.31073352,3.61168451 C8.30128593,2.41946476 8.13679352,1.20220486 8.11135446,1.13986863 C8.0859154,1.0775324 8.06837471,1.01971446 8.03052505,0.968031348 C7.80968411,0.351130003 7.22332756,0.0010807235 6.82326233,5.40715388e-06 C5.91825027,-0.00242713183 5.99616849,0.816298493 5.95134983,1.63486208 L5.94242711,1.97802062 C5.94242711,2.97395442 4.8,3.61168451 3.41163117,3.61168451 L1.05288186,3.61168451 C0.4723797,3.61168451 -4.156675e-13,4.07610959 -4.156675e-13,4.64735245 L-4.156675e-13,10.0412538 C-4.156675e-13,10.6124966 0.469755368,11.0769217 1.04710833,11.0769217 L9.97508466,11.0769217 C10.5057245,11.0769217 11.0090713,10.67442 11.1213927,10.1609722 L12.3663757,5.24026848 C12.4566527,4.82486604 12.3632265,4.40997963 12.1091912,4.10087893 Z" id="Combined-Shape-Copy-5" fill-opacity="0" fill="#666666" fill-rule="nonzero"></path>
            <path d="M2.86421198,11.0769217 L2.86421198,3.63586126" id="Line" stroke-linecap="square"></path>
        </g>
    </g>
</svg>