<?xml version="1.0" encoding="UTF-8"?>
<svg width="34px" height="34px" viewBox="0 0 34 34" version="1.1" xmlns="http://www.w3.org/2000/svg" xmlns:xlink="http://www.w3.org/1999/xlink">
    <!-- Generator: Sketch 53.2 (72643) - https://sketchapp.com -->
    <title>awesome_icon</title>
    <desc>Created with Sketch.</desc>
    <g id="awesome_icon" stroke="none" stroke-width="1" fill="none" fill-rule="evenodd">
        <g id="赞" transform="translate(1.000000, 1.000000)" fill-rule="nonzero">
            <rect id="Rectangle-path" fill="#000000" opacity="0" x="7.11111111" y="8" width="17.7777778" height="17.7777778"></rect>
            <circle id="Oval" fill="#44B549" cx="16" cy="16" r="16"></circle>
            <path d="M9.77777778,21.281843 L12.2563623,21.281843 L12.2563623,13.8460737 L9.77777778,13.8460737 L9.77777778,21.281843 Z M23.410032,14.4657159 C23.410032,13.7810087 22.8554548,13.2264158 22.1707319,13.2264158 L18.2576521,13.2264158 L18.8494138,10.3946413 C18.8618139,10.3326724 18.8711022,10.2676073 18.8711022,10.1994462 C18.8711022,9.94229793 18.7657566,9.70991836 18.5984577,9.54261951 L17.9385349,8.88888889 L13.8581563,12.9692675 C13.6350808,13.1954392 13.4956624,13.5052681 13.4956624,13.8460737 L13.4956624,20.0425429 C13.4956624,20.7272501 14.0502396,21.281843 14.7349626,21.281843 L20.3117895,21.281843 C20.8261018,21.281843 21.2660451,20.9689179 21.4519362,20.5258786 L23.3201668,16.1573594 C23.3759278,16.014845 23.4100163,15.8630266 23.4100163,15.705016 L23.4100163,14.5183966 L23.4038241,14.5122044 L23.410032,14.4657159 Z" id="Shape" fill="#FFFFFF"></path>
        </g>
    </g>
</svg>