<?xml version="1.0" encoding="UTF-8"?>
<svg width="540px" height="40px" viewBox="0 0 540 40" version="1.1" xmlns="http://www.w3.org/2000/svg" xmlns:xlink="http://www.w3.org/1999/xlink">
    <!-- Generator: Sketch 46.2 (44496) - http://www.bohemiancoding.com/sketch -->
    <title>mp logo_English_40px</title>
    <desc>Created with Sketch.</desc>
    <defs></defs>
    <g id="Page-1" stroke="none" stroke-width="1" fill="none" fill-rule="evenodd">
        <g id="mp-logo_English_40px" fill="#AAAAAA">
            <path d="M89.3505,7.0265 L87.3795,7.0265 C87.3795,7.0265 83.0385,21.8995 82.8775,22.4685 C82.2345,24.7415 81.6745,26.7215 81.2485,28.7225 C80.8415,26.3595 80.1075,23.5525 79.3275,20.6445 L75.7355,7.1015 L75.7155,7.0265 L73.9105,7.0265 L69.9385,20.7485 C68.9965,23.8185 68.1795,26.5505 67.7675,28.7375 C67.3585,26.8085 66.7545,24.4305 66.1175,21.9195 L62.3005,7.1015 L62.2815,7.0265 L60.3145,7.0265 L66.7405,31.3635 L66.7605,31.4375 L68.5285,31.4375 L72.6805,17.4295 C73.7185,14.0065 74.3725,11.6925 74.7695,9.6075 C75.1145,11.8455 75.7025,14.1995 76.5825,17.4255 L80.2295,31.4375 L82.0345,31.4375 L89.3115,7.1555 L89.3505,7.0265 Z" id="Fill-6"></path>
            <path d="M91.0899,21.0715 C91.4549,18.3545 93.1469,15.2385 96.7579,15.2385 C98.1979,15.2385 99.3619,15.6785 100.2179,16.5475 C101.6299,17.9815 101.7979,20.1195 101.7959,21.0715 L91.0899,21.0715 Z M96.9739,13.5995 C92.2739,13.5995 89.1159,17.3935 89.1159,23.0395 C89.1159,28.2775 92.3889,31.7965 97.2609,31.7965 C100.3729,31.7965 102.1249,31.0095 102.7339,30.6705 L102.8229,30.6215 L102.0299,29.2485 L101.9469,29.2865 C101.0339,29.7005 99.7899,30.1235 97.4769,30.1235 C95.5399,30.1235 91.0479,29.3915 91.0039,22.6365 L103.6999,22.6365 L103.7169,22.5575 C103.7909,22.2245 103.7909,21.9655 103.7909,21.4945 C103.7909,20.8475 103.7009,18.5805 102.5329,16.6175 C101.3429,14.6155 99.4729,13.5995 96.9739,13.5995 L96.9739,13.5995 Z" id="Fill-8"></path>
            <path d="M163.2905,10.1882 L161.3655,10.1882 L161.3655,13.9952 L158.4565,13.9952 L158.4565,15.5972 L161.3655,15.5972 L161.3655,26.3802 C161.3655,28.3612 161.7265,29.7342 162.4645,30.5732 C163.1095,31.3972 164.1555,31.8322 165.4885,31.8322 C166.4475,31.8322 167.3375,31.5902 168.0025,31.2982 L167.2715,30.0142 C166.8475,30.1012 166.2505,30.1982 165.6825,30.1982 C164.0585,30.1982 163.2905,29.0292 163.2905,26.7032 L163.2905,15.5972 L167.7765,15.5972 L167.7765,13.9952 L163.2905,13.9952 L163.2905,10.1882 Z" id="Fill-10"></path>
            <path d="M123.5374,29.1652 C122.1284,29.7742 120.2744,30.1232 118.4514,30.1232 C112.1034,30.1232 108.3144,26.1192 108.3144,19.4112 C108.3144,12.4572 112.2114,8.3052 118.7384,8.3052 C120.4954,8.3052 122.1844,8.6342 123.4914,9.2302 L123.5744,9.2682 L124.4414,7.7692 L124.3514,7.7202 C123.8844,7.4642 122.1004,6.6322 118.7024,6.6322 C111.2944,6.6322 106.3174,11.7532 106.3174,19.3762 C106.3174,28.5432 112.5444,31.7962 117.8764,31.7962 C121.5824,31.7962 123.7694,30.8922 124.3524,30.6152 L124.4504,30.5682 L123.6194,29.1292 L123.5374,29.1652 Z" id="Fill-12"></path>
            <path d="M146.5199,23.9807 C147.7529,22.7827 150.0199,22.1767 153.2649,22.1767 C153.4939,22.1767 153.7279,22.1797 153.9669,22.1857 L153.9669,25.7877 C153.9669,26.0487 153.9369,26.4357 153.7919,26.7967 C153.2369,28.4307 151.6299,30.1767 148.7869,30.1767 C146.3149,30.1767 145.4379,28.2967 145.4379,26.6857 C145.4379,25.5887 145.8019,24.6777 146.5199,23.9807 M155.9299,29.1107 C155.9039,28.5397 155.8909,27.9227 155.8909,27.2247 L155.8909,20.4717 C155.8909,15.9647 153.7939,13.5827 149.8279,13.5827 C148.0369,13.5827 146.0529,14.1857 144.6379,15.1177 L145.2589,16.5677 C146.4099,15.7457 148.0349,15.2197 149.6499,15.2197 C150.9719,15.2197 152.0009,15.5637 152.7179,16.2737 C153.5579,17.1067 153.9669,18.3867 153.9669,20.1847 L153.9669,20.5497 C153.8959,20.5497 153.8259,20.5497 153.7569,20.5497 C149.6399,20.5497 146.6949,21.3977 145.0029,23.0727 C143.9679,24.0977 143.4419,25.4107 143.4419,26.9737 C143.4419,29.3057 145.0579,31.8147 148.6069,31.8147 C151.1629,31.8147 153.0449,30.4927 154.0239,29.1797 C154.0829,30.3067 154.4549,31.4197 154.4549,31.4197 L156.5389,31.4167 C156.5389,31.4167 156.0589,30.4367 155.9299,29.1107" id="Fill-14"></path>
            <path d="M134.8161,13.6 C133.5421,13.6 132.3181,13.953 131.2821,14.619 C130.3851,15.132 129.5731,15.963 129.0261,16.922 L129.0261,6.632 L127.1011,6.632 L127.1011,31.438 L129.0261,31.438 L129.0261,20.813 C129.0261,20.109 129.0591,19.654 129.2361,19.122 C130.0341,16.877 132.1381,15.31 134.3501,15.31 C136.0831,15.31 138.9901,16.067 138.9901,21.137 L138.9901,31.438 L140.9151,31.438 L140.9151,20.956 C140.9151,13.955 135.8351,13.6 134.8161,13.6" id="Fill-16"></path>
            <path d="M44.3203,35.5101 C47.4613,33.2341 49.4683,29.8661 49.4683,26.1251 C49.4683,19.2671 42.7973,13.7081 34.5683,13.7081 C26.3393,13.7081 19.6683,19.2671 19.6683,26.1251 C19.6683,32.9821 26.3393,38.5421 34.5683,38.5421 C36.2683,38.5421 37.9103,38.2981 39.4323,37.8611 C39.5703,37.8181 39.7173,37.7951 39.8703,37.7951 C40.1563,37.7951 40.4163,37.8821 40.6613,38.0241 L43.9223,39.9071 C44.0143,39.9601 44.1023,40.0001 44.2103,40.0001 C44.4843,40.0001 44.7063,39.7771 44.7063,39.5031 C44.7063,39.3801 44.6573,39.2581 44.6263,39.1401 C44.6073,39.0701 44.2063,37.5711 43.9553,36.6361 C43.9263,36.5301 43.9033,36.4291 43.9033,36.3191 C43.9033,35.9861 44.0673,35.6901 44.3203,35.5101 M29.6013,24.1381 C28.5043,24.1381 27.6153,23.2491 27.6153,22.1511 C27.6153,21.0541 28.5043,20.1651 29.6013,20.1651 C30.6993,20.1651 31.5883,21.0541 31.5883,22.1511 C31.5883,23.2491 30.6993,24.1381 29.6013,24.1381 M39.5353,24.1381 C38.4373,24.1381 37.5483,23.2491 37.5483,22.1511 C37.5483,21.0541 38.4373,20.1651 39.5353,20.1651 C40.6323,20.1651 41.5213,21.0541 41.5213,22.1511 C41.5213,23.2491 40.6323,24.1381 39.5353,24.1381" id="Fill-18"></path>
            <path d="M17.88,0 C8.005,0 0,6.671 0,14.9 C0,19.39 2.408,23.431 6.178,26.162 C6.481,26.378 6.679,26.733 6.679,27.134 C6.679,27.265 6.65,27.387 6.616,27.513 C6.315,28.636 5.833,30.434 5.81,30.519 C5.773,30.66 5.714,30.807 5.714,30.954 C5.714,31.284 5.981,31.55 6.31,31.55 C6.44,31.55 6.545,31.502 6.654,31.439 L10.569,29.179 C10.863,29.01 11.175,28.905 11.518,28.905 C11.701,28.905 11.877,28.932 12.043,28.983 C13.87,29.508 15.84,29.8 17.88,29.8 C18.21,29.8 18.537,29.792 18.862,29.777 C18.473,28.615 18.262,27.391 18.262,26.125 C18.262,18.62 25.562,12.536 34.568,12.536 C34.895,12.536 35.218,12.546 35.539,12.562 C34.193,5.444 26.8,0 17.88,0 M11.92,12.516 C10.603,12.516 9.536,11.449 9.536,10.132 C9.536,8.815 10.603,7.748 11.92,7.748 C13.236,7.748 14.304,8.815 14.304,10.132 C14.304,11.449 13.236,12.516 11.92,12.516 M23.84,12.516 C22.523,12.516 21.456,11.449 21.456,10.132 C21.456,8.815 22.523,7.748 23.84,7.748 C25.157,7.748 26.224,8.815 26.224,10.132 C26.224,11.449 25.157,12.516 23.84,12.516" id="Fill-21"></path>
            <path d="M199.0626,19.0464 C199.0626,24.2994 196.3436,29.9534 190.3736,29.9534 C186.0736,29.9534 181.7206,26.3154 181.7206,19.3634 C181.7206,13.8994 184.4176,8.3874 190.4446,8.3874 C196.1026,8.3874 199.0626,13.7494 199.0626,19.0464 M190.5496,6.8254 C184.2246,6.8254 179.8066,11.9954 179.8066,19.3994 C179.8066,26.5324 184.1086,31.5144 190.2686,31.5144 C195.5986,31.5144 200.9766,27.6264 200.9766,18.9414 C200.9766,15.3574 199.9566,12.3044 198.0266,10.1114 C196.1616,7.9924 193.5066,6.8254 190.5496,6.8254" id="Fill-23"></path>
            <path d="M217.4534,13.1682 C217.4534,9.1212 218.9024,7.1542 221.8824,7.1542 C223.3594,7.1542 224.5914,7.6922 225.2504,8.1962 L225.3194,8.2482 L226.1714,6.8132 L226.1204,6.7722 C225.2984,6.1002 223.6124,5.5932 222.1994,5.5932 C218.0114,5.5932 215.6094,8.3162 215.6094,13.0622 L215.6094,14.0772 L207.6324,14.0772 L207.6324,13.4502 C207.6324,11.2242 208.0874,9.5952 208.9844,8.6072 C209.5974,7.9242 210.4544,7.5772 211.5334,7.5772 C212.5694,7.5772 213.5994,8.0872 213.9954,8.3072 L214.0654,8.3452 L214.7664,6.9082 L214.7054,6.8722 C214.1644,6.5532 212.9184,6.0152 211.6744,6.0152 C210.1324,6.0152 208.7384,6.5612 207.7454,7.5532 C206.1284,9.2542 205.7884,11.6412 205.7884,13.3442 L205.7884,14.0772 L203.3594,14.0772 L203.3594,15.6042 L205.7884,15.6042 L205.7884,31.1272 L207.6324,31.1272 L207.6324,15.6042 L215.6094,15.6042 L215.6094,31.1272 L217.4534,31.1272 L217.4534,15.6042 L225.1854,15.6042 L225.1854,31.1272 L227.0284,31.1272 L227.0284,14.0772 L217.4534,14.0772 L217.4534,13.1682 Z" id="Fill-25"></path>
            <path d="M239.9095,13.69 C234.7445,13.69 231.1375,17.427 231.1375,22.779 C231.1375,25.298 231.9155,27.464 233.3845,29.044 C234.8675,30.637 236.9175,31.48 239.3105,31.48 C241.0745,31.48 242.8025,31.1 244.3075,30.38 L244.3685,30.351 L243.8625,28.869 L243.7845,28.905 C242.7605,29.377 241.5065,29.883 239.5925,29.883 C235.6375,29.883 232.9805,26.971 232.9805,22.638 C232.9805,18.979 235.0795,15.286 239.7685,15.286 C241.2395,15.286 242.5645,15.614 243.7085,16.262 L243.7825,16.304 L244.4155,14.854 L244.4405,14.797 L244.3895,14.761 C243.6725,14.242 241.8585,13.69 239.9095,13.69" id="Fill-27"></path>
            <polygon id="Fill-29" points="248.248 31.128 250.091 31.128 250.091 14.077 248.248 14.077"></polygon>
            <path d="M249.1699,7.7753 C248.3839,7.7753 247.7199,8.4873 247.7199,9.3303 C247.7199,10.1973 248.3129,10.8503 249.0989,10.8503 C250.0739,10.8503 250.5839,10.0863 250.5839,9.3303 C250.5839,8.4583 249.9629,7.7753 249.1699,7.7753" id="Fill-31"></path>
            <path d="M263.7333,22.0697 C263.9733,22.0697 264.2093,22.0727 264.4413,22.0797 L264.4413,25.6297 C264.4413,25.8867 264.4123,26.2677 264.2693,26.6267 C263.7213,28.2347 262.1393,29.9537 259.3423,29.9537 C256.9053,29.9537 256.0403,28.0987 256.0403,26.5097 C256.0403,23.5637 258.6283,22.0697 263.7333,22.0697 M266.2843,27.0387 L266.2843,20.4197 C266.2843,16.0167 264.2373,13.6897 260.3643,13.6897 C258.6123,13.6897 256.7413,14.2337 255.3593,15.1457 L255.3053,15.1807 L255.8963,16.5597 L255.9733,16.5037 C257.1043,15.6957 258.6013,15.2517 260.1883,15.2517 L260.2523,15.2517 C263.0313,15.2517 264.4413,16.8957 264.4413,20.1377 L264.4413,20.5177 C264.3683,20.5177 264.2963,20.5177 264.2233,20.5177 C257.7123,20.5177 254.1273,22.7457 254.1273,26.7917 C254.1273,29.0667 255.7043,31.5147 259.1673,31.5147 C261.7913,31.5147 263.6773,30.1037 264.5953,28.7517 L264.8283,31.0587 L264.8353,31.1277 L266.5443,31.1277 L266.5293,31.0387 C266.3133,29.7007 266.2843,28.2657 266.2843,27.0387" id="Fill-32"></path>
            <polygon id="Fill-33" points="271.59 31.128 273.432 31.128 273.432 5.981 271.59 5.981"></polygon>
            <path d="M298.4527,21.2585 L290.3287,21.2585 L293.1787,13.3695 C293.6687,11.9625 294.0637,10.7335 294.3907,9.3345 C294.7137,10.6945 295.0347,11.8665 295.6037,13.4405 L298.4527,21.2585 Z M295.3067,7.2475 L293.5797,7.2475 L284.9727,31.0245 L284.9357,31.1275 L286.8237,31.1275 L289.7457,22.8195 L299.0017,22.8195 L301.9747,31.0765 L301.9927,31.1275 L303.8807,31.1275 L295.3247,7.2985 L295.3067,7.2475 Z" id="Fill-34"></path>
            <path d="M314.3708,13.69 C309.2058,13.69 305.5988,17.427 305.5988,22.779 C305.5988,25.298 306.3768,27.464 307.8458,29.044 C309.3288,30.637 311.3788,31.48 313.7718,31.48 C315.5358,31.48 317.2638,31.1 318.7688,30.38 L318.8298,30.351 L318.3228,28.869 L318.2458,28.905 C317.2218,29.377 315.9688,29.883 314.0528,29.883 C310.0988,29.883 307.4418,26.971 307.4418,22.638 C307.4418,18.979 309.5408,15.286 314.2298,15.286 C315.6998,15.286 317.0258,15.614 318.1698,16.262 L318.2438,16.304 L318.8768,14.854 L318.9018,14.797 L318.8508,14.761 C318.1338,14.242 316.3198,13.69 314.3708,13.69" id="Fill-35"></path>
            <path d="M330.0727,13.69 C324.9077,13.69 321.3007,17.427 321.3007,22.779 C321.3007,25.298 322.0787,27.464 323.5477,29.044 C325.0307,30.637 327.0807,31.48 329.4737,31.48 C331.2377,31.48 332.9657,31.1 334.4707,30.38 L334.5317,30.351 L334.0257,28.869 L333.9477,28.905 C332.9237,29.377 331.6697,29.883 329.7557,29.883 C325.8017,29.883 323.1437,26.971 323.1437,22.638 C323.1437,18.979 325.2427,15.286 329.9317,15.286 C331.4017,15.286 332.7277,15.614 333.8717,16.262 L333.9457,16.304 L334.5787,14.854 L334.6037,14.797 L334.5527,14.761 C333.8357,14.242 332.0217,13.69 330.0727,13.69" id="Fill-36"></path>
            <path d="M351.1549,22.5323 C351.1549,26.7633 348.4789,29.9533 344.9299,29.9533 C341.4609,29.9533 338.8459,26.8083 338.8459,22.6373 C338.8459,19.0803 340.7829,15.2513 345.0349,15.2513 C349.5249,15.2513 351.1549,19.6053 351.1549,22.5323 M345.0709,13.6903 C342.9109,13.6903 340.9149,14.5233 339.4499,16.0373 C337.8499,17.6903 337.0039,20.0083 337.0039,22.7433 C337.0039,27.9083 340.2199,31.5143 344.8239,31.5143 C348.7609,31.5143 352.9969,28.6703 352.9969,22.4263 C352.9969,17.2013 349.8119,13.6903 345.0709,13.6903" id="Fill-37"></path>
            <path d="M370.3192,26.9318 L370.3192,14.0768 L368.4772,14.0768 L368.4772,24.6788 C368.4772,25.2598 368.3652,25.9148 368.1662,26.5148 C367.4862,28.0688 365.7882,29.8828 363.2372,29.8828 C360.2812,29.8828 358.8442,27.8468 358.8442,23.6588 L358.8442,14.0768 L357.0002,14.0768 L357.0002,23.9748 C357.0002,30.7798 361.0912,31.5148 362.8502,31.5148 C365.7252,31.5148 367.7002,29.8178 368.6222,28.1848 L368.7252,31.1278 L370.4672,31.1278 L370.4602,31.0448 C370.3642,29.8548 370.3192,28.5488 370.3192,26.9318" id="Fill-38"></path>
            <path d="M383.3405,13.69 C380.8475,13.69 378.5855,15.002 377.5325,17.044 L377.4305,14.077 L375.6885,14.077 L375.6945,14.16 C375.7965,15.434 375.8365,16.567 375.8365,18.202 L375.8365,31.128 L377.6785,31.128 L377.6785,20.595 C377.6785,20.055 377.7925,19.484 377.8875,19.104 C378.5765,16.856 380.6305,15.286 382.8825,15.286 C387.0395,15.286 387.4875,19.32 387.4875,21.054 L387.4875,31.128 L389.3315,31.128 L389.3315,20.913 C389.3315,14.038 384.3415,13.69 383.3405,13.69" id="Fill-39"></path>
            <path d="M397.1826,10.3114 L395.3386,11.0024 L395.3386,14.0774 L392.4876,14.0774 L392.4876,15.6034 L395.3386,15.6034 L395.3386,26.1934 C395.3386,28.1284 395.6906,29.4694 396.4116,30.2884 C397.0396,31.0904 398.0596,31.5144 399.3596,31.5144 C400.2926,31.5144 401.0966,31.3704 401.7476,31.0864 L401.8036,31.0624 L401.5676,29.6474 L401.4816,29.6754 C401.1516,29.7864 400.5506,29.9184 399.5706,29.9184 C397.9636,29.9184 397.1826,28.8034 397.1826,26.5104 L397.1826,15.6034 L402.0056,15.6034 L402.0056,14.0774 L397.1826,14.0774 L397.1826,10.3114 Z" id="Fill-40"></path>
            <path d="M410.0211,21.5113 C407.6921,20.5433 406.5831,19.7853 406.5831,18.0963 C406.5831,16.6803 407.5721,15.2513 409.7801,15.2513 C411.0471,15.2513 412.1701,15.5903 413.1151,16.2583 L413.1901,16.3113 L413.8901,14.7973 L413.8381,14.7603 C412.8771,14.0803 411.5011,13.6903 410.0621,13.6903 C406.5911,13.6903 404.7751,16.0303 404.7751,18.3423 C404.7751,20.3553 406.2371,21.9303 409.1171,23.0263 C411.7071,24.0763 412.6251,25.0623 412.6251,26.7913 C412.6251,28.3033 411.6091,29.9183 408.7601,29.9183 C407.1121,29.9183 405.6951,29.1973 404.9981,28.7673 L404.9221,28.7213 L404.2631,30.2723 L404.3181,30.3063 C405.5121,31.0523 407.0921,31.4803 408.6531,31.4803 C412.1101,31.4803 414.4331,29.5113 414.4331,26.5803 C414.4331,24.2163 413.1131,22.7003 410.0211,21.5113" id="Fill-41"></path>
            <path d="M437.9377,13.9776 C437.9377,17.6206 435.4887,19.7096 431.2197,19.7096 C429.8697,19.7096 428.9557,19.6076 428.2697,19.3786 L428.2697,8.8996 C428.6377,8.8236 429.7317,8.6326 431.5367,8.6326 C435.6047,8.6326 437.9377,10.5806 437.9377,13.9776 M431.6077,7.0716 C429.8897,7.0716 428.2157,7.2216 426.4887,7.5306 L426.4267,7.5416 L426.4267,31.1276 L428.2697,31.1276 L428.2697,21.0136 C429.0557,21.2266 429.9337,21.2706 431.0797,21.2706 C434.1037,21.2706 436.5987,20.3236 438.1057,18.6056 C439.2327,17.3706 439.7807,15.7986 439.7807,13.8016 C439.7807,11.8646 439.1397,10.2386 437.9267,9.0996 C436.5627,7.7726 434.3777,7.0716 431.6077,7.0716" id="Fill-42"></path>
            <polygon id="Fill-43" points="443.819 31.128 445.661 31.128 445.661 5.981 443.819 5.981"></polygon>
            <path d="M459.4106,22.0697 C459.6506,22.0697 459.8866,22.0727 460.1186,22.0797 L460.1186,25.6297 C460.1186,25.8867 460.0896,26.2677 459.9466,26.6267 C459.3986,28.2347 457.8166,29.9537 455.0196,29.9537 C452.5826,29.9537 451.7176,28.0987 451.7176,26.5097 C451.7176,23.5637 454.3056,22.0697 459.4106,22.0697 M461.9616,27.0387 L461.9616,20.4197 C461.9616,16.0167 459.9136,13.6897 456.0406,13.6897 C454.2896,13.6897 452.4186,14.2337 451.0356,15.1457 L450.9816,15.1807 L451.5736,16.5597 L451.6506,16.5037 C452.7816,15.6957 454.2786,15.2517 455.8656,15.2517 L455.9296,15.2517 C458.7086,15.2517 460.1186,16.8957 460.1186,20.1377 L460.1186,20.5177 C460.0456,20.5177 459.9736,20.5177 459.9006,20.5177 C453.3896,20.5177 449.8046,22.7457 449.8046,26.7917 C449.8046,29.0667 451.3816,31.5147 454.8446,31.5147 C457.4686,31.5147 459.3546,30.1037 460.2716,28.7517 L460.5056,31.0587 L460.5126,31.1277 L462.2216,31.1277 L462.2066,31.0387 C461.9906,29.7007 461.9616,28.2657 461.9616,27.0387" id="Fill-44"></path>
            <path d="M469.7429,10.3114 L467.8989,11.0024 L467.8989,14.0774 L465.0479,14.0774 L465.0479,15.6034 L467.8989,15.6034 L467.8989,26.1934 C467.8989,28.1284 468.2509,29.4694 468.9719,30.2884 C469.5999,31.0904 470.6199,31.5144 471.9199,31.5144 C472.8529,31.5144 473.6569,31.3704 474.3079,31.0864 L474.3639,31.0624 L474.1279,29.6474 L474.0419,29.6754 C473.7119,29.7864 473.1109,29.9184 472.1309,29.9184 C470.5239,29.9184 469.7429,28.8034 469.7429,26.5104 L469.7429,15.6034 L474.5659,15.6034 L474.5659,14.0774 L469.7429,14.0774 L469.7429,10.3114 Z" id="Fill-45"></path>
            <path d="M480.0931,13.2029 C480.0931,10.3869 480.5171,7.1549 483.8171,7.1549 C484.8951,7.1549 485.5131,7.3949 485.9311,7.6049 L486.0051,7.6419 L486.5901,6.1979 L486.5291,6.1659 C486.2791,6.0319 485.3521,5.5929 483.9591,5.5929 C482.4961,5.5929 481.1391,6.1259 480.1381,7.0929 C478.8501,8.3819 478.2491,10.3349 478.2491,13.2379 L478.2491,14.0769 L475.8211,14.0769 L475.8211,15.6039 L478.2491,15.6039 L478.2491,31.1279 L480.0931,31.1279 L480.0931,15.6039 L484.5991,15.6039 L484.5991,14.0769 L480.0931,14.0769 L480.0931,13.2029 Z" id="Fill-46"></path>
            <path d="M499.5834,22.5323 C499.5834,26.7633 496.9074,29.9533 493.3584,29.9533 C489.8894,29.9533 487.2744,26.8083 487.2744,22.6373 C487.2744,19.0803 489.2114,15.2513 493.4634,15.2513 C497.9534,15.2513 499.5834,19.6053 499.5834,22.5323 M493.4994,13.6903 C491.3394,13.6903 489.3434,14.5233 487.8784,16.0373 C486.2784,17.6903 485.4324,20.0083 485.4324,22.7433 C485.4324,27.9083 488.6484,31.5143 493.2524,31.5143 C497.1894,31.5143 501.4254,28.6703 501.4254,22.4263 C501.4254,17.2013 498.2404,13.6903 493.4994,13.6903" id="Fill-47"></path>
            <path d="M511.9839,13.69 C509.8849,13.69 508.0039,15.153 507.1639,17.429 L507.0969,14.152 L507.0959,14.077 L505.3899,14.077 L505.3949,14.159 C505.4889,15.637 505.5349,17.293 505.5349,19.223 L505.5349,31.128 L507.3779,31.128 L507.3779,21.722 C507.3779,21.077 507.4239,20.553 507.5189,20.116 C507.9949,17.289 509.7069,15.462 511.8789,15.462 C512.1869,15.462 512.4299,15.462 512.6669,15.53 L512.7649,15.558 L512.7649,13.772 L512.7009,13.761 C512.5029,13.728 512.2429,13.69 511.9839,13.69" id="Fill-48"></path>
            <path d="M534.0559,13.69 C532.3769,13.69 531.1999,14.103 529.9939,15.116 C529.2679,15.72 528.6939,16.47 528.2879,17.345 C527.4739,15.088 525.6059,13.69 523.3899,13.69 C520.9869,13.69 519.1899,14.77 517.8989,16.991 L517.7969,14.077 L516.0549,14.077 L516.0609,14.16 C516.1619,15.435 516.2019,16.569 516.2019,18.202 L516.2019,31.128 L518.0449,31.128 L518.0449,20.631 C518.0449,20.119 518.1339,19.538 518.2879,19.035 C518.8689,17.23 520.5589,15.286 522.8969,15.286 C525.4339,15.286 527.0099,17.28 527.0099,20.49 L527.0099,31.128 L528.8519,31.128 L528.8519,20.209 C528.8519,19.632 528.9869,19.084 529.1289,18.581 C529.7399,16.941 531.3259,15.286 533.4929,15.286 C536.2809,15.286 537.8159,17.409 537.8159,21.264 L537.8159,31.128 L539.6599,31.128 L539.6599,21.089 C539.6599,15.634 536.7649,13.69 534.0559,13.69" id="Fill-49"></path>
        </g>
    </g>
</svg>