<?xml version="1.0" encoding="UTF-8"?>
<svg width="48px" height="48px" viewBox="0 0 48 48" version="1.1" xmlns="http://www.w3.org/2000/svg" xmlns:xlink="http://www.w3.org/1999/xlink">
    <!-- Generator: Sketch 54.1 (76490) - https://sketchapp.com -->
    <title>card_miniprogram_icon</title>
    <desc>Created with Sketch.</desc>
    <g id="card_miniprogram_icon" stroke="none" stroke-width="1" fill="none" fill-rule="evenodd">
        <path d="M36.9749104,22.1375522 C36.0024776,23.7335373 34.3849851,24.957 32.4473433,25.5202985 C32.3985821,25.5344179 32.3503134,25.5495224 32.3012239,25.5628209 C32.0019254,25.6478657 31.6949104,25.6999104 31.3906866,25.6999104 C30.048194,25.6999104 29.2901791,24.7931493 29.6973433,23.6744328 C29.9951642,22.8563284 30.7769851,22.165791 31.731194,21.8461343 C33.2101194,21.306806 34.2434627,20.0767761 34.2434627,18.6454627 C34.2434627,16.7168507 32.3672239,15.1533731 30.0529552,15.1533731 C27.7385224,15.1533731 25.8624478,16.7168507 25.8624478,18.6454627 L25.8624478,29.3545373 C25.8624478,31.9300149 24.3702239,34.1884627 22.1375522,35.4657761 C20.9204925,36.1620597 19.4868806,36.5713582 17.947209,36.5713582 C13.5825075,36.5713582 10.031806,33.3339104 10.031806,29.3545373 C10.031806,28.0878955 10.3939851,26.8982537 11.0250896,25.8624478 C12.001791,24.259403 13.6292985,23.0318358 15.578597,22.4721493 C15.5802388,22.4716567 15.5817164,22.4711642 15.5833582,22.4706716 C15.9120448,22.3683881 16.2528806,22.3115821 16.5889552,22.3115821 C17.9373582,22.3115821 18.6989851,23.2226119 18.2900149,24.3462537 C18.0128806,25.1077164 17.2665224,25.7634478 16.3963731,26.1123284 C16.2924478,26.1469701 16.1913134,26.1858806 16.0914925,26.2269254 C14.7092687,26.7976119 13.7567015,27.9818358 13.7567015,29.3545373 C13.7567015,31.2831493 15.6327761,32.8464627 17.947209,32.8464627 C20.2614776,32.8464627 22.1375522,31.2831493 22.1375522,29.3545373 L22.1375522,18.6454627 C22.1375522,16.0698209 23.6296119,13.8115373 25.8624478,12.5340597 C27.0795075,11.8377761 28.5131194,11.4284776 30.0529552,11.4284776 C34.4174925,11.4284776 37.9683582,14.6659254 37.9683582,18.6454627 C37.9683582,19.9119403 37.6060149,21.1017463 36.9749104,22.1375522 M24,2 C11.8497612,2 2,11.8497612 2,24 C2,36.1502388 11.8497612,46 24,46 C36.1502388,46 46,36.1502388 46,24 C46,11.8497612 36.1502388,2 24,2" id="Fill-6" fill="#7587DB"></path>
    </g>
</svg>