<?xml version="1.0" encoding="UTF-8"?>
<svg width="16px" height="18px" viewBox="0 0 16 18" version="1.1" xmlns="http://www.w3.org/2000/svg" xmlns:xlink="http://www.w3.org/1999/xlink">
    <!-- Generator: Sketch 61 (89581) - https://sketch.com -->
    <title>Del</title>
    <desc>Created with Sketch.</desc>
    <g id="【制作红包封面流程】12/16更新" stroke="none" stroke-width="1" fill="none" fill-rule="evenodd">
        <g id="画板备份-7" transform="translate(-318.000000, -200.000000)" fill="#FFFFFF">
            <g id="Del" transform="translate(308.000000, 192.000000)">
                <g id="Icon-/-Del-/-White">
                    <path d="M24.9991283,11 C25.5553691,11 26,11.4477153 26,12 L26,12 L25.9932664,12.1173326 C25.9354509,12.6172798 25.5124112,13 24.9991283,13 L25,13 L25,25 C25,25.5128358 24.6139598,25.9355072 24.1166211,25.9932723 L24,26 L12,26 C11.4477153,26 11,25.5522847 11,25 L11,25 L11.0008717,13 C10.4446309,13 10,12.5522847 10,12 L10,12 L10.0067336,11.8826674 C10.0645491,11.3827202 10.4875888,11 11.0008717,11 L11.0008717,11 Z M23,13 L13,13 L13,24 L23,24 L23,13 Z M20,15 C20.5561352,15 21,15.4463856 21,15.9970301 L21,15.9970301 L21,22.0029699 C21,22.5469637 20.5522847,23 20,23 L20,23 L19.8826674,22.9932922 C19.3827202,22.9356987 19,22.5142826 19,22.0029699 L19,22.0029699 L19,15.9970301 C19,15.4530363 19.4477153,15 20,15 Z M16,15 C16.5561352,15 17,15.4463856 17,15.9970301 L17,15.9970301 L17,22.0029699 C17,22.5469637 16.5522847,23 16,23 L16,23 L15.8826674,22.9932922 C15.3827202,22.9356987 15,22.5142826 15,22.0029699 L15,22.0029699 L15,15.9970301 C15,15.4530363 15.4477153,15 16,15 Z M20.009222,8 C20.5490248,8 21,8.44771525 21,9 L21,9 L21,10 L15,10 L15,9 C15,8.44386482 15.4435864,8 15.990778,8 L15.990778,8 Z" id="Path-4"></path>
                </g>
            </g>
        </g>
    </g>
</svg>