<?xml version="1.0" encoding="UTF-8"?>
<svg width="12px" height="13px" viewBox="0 0 12 13" version="1.1" xmlns="http://www.w3.org/2000/svg" xmlns:xlink="http://www.w3.org/1999/xlink">
    <title>3.Icons/Outlined/close Copy 12</title>
    <g id="编辑入口-终稿" stroke="none" stroke-width="1" fill="none" fill-rule="evenodd" fill-opacity="0.9" opacity="0.5">
        <g id="解构状态" transform="translate(-498.000000, -259.000000)" fill="#000000">
            <g id="Group-Copy-4" transform="translate(42.000000, 109.000000)">
                <g id="Group-12" transform="translate(32.000000, 132.000000)">
                    <g id="icon39" transform="translate(424.000000, 18.000000)">
                        <path d="M2.51570169,2.26666463 L3.05727055,11.3650233 C3.07404109,11.6467683 3.30741782,11.8666667 3.58966157,11.8666667 L8.41033843,11.8666667 C8.69258218,11.8666667 8.92595891,11.6467683 8.94272945,11.3650233 L9.48429831,2.26666463 L2.51570169,2.26666463 Z M10.2857143,2.26666466 L9.74131597,11.4125582 C9.69938963,12.1169209 9.11594781,12.6666667 8.41033843,12.6666667 L3.58966157,12.6666667 C2.88405219,12.6666667 2.30061037,12.1169209 2.25868403,11.4125582 L1.71428571,2.26666466 L0.333333333,2.26666466 L0.333333333,1.79999797 C0.333333333,1.61590305 0.48257175,1.46666463 0.666666667,1.46666463 L11.3333333,1.46666463 C11.5174282,1.46666463 11.6666667,1.61590305 11.6666667,1.79999797 L11.6666667,2.26666466 L10.2857143,2.26666466 Z M5.13334147,4 L5.4666748,10 L4.66666667,10 L4.33333333,4 L5.13334147,4 Z M7.66666667,4 L7.33333333,10 L6.5333252,10 L6.86665853,4 L7.66666667,4 Z M7.33333333,1.81903794e-05 C7.51742825,1.81903794e-05 7.66666667,0.149256607 7.66666667,0.333351524 L7.66666667,0.800016156 L4.33333333,0.800016156 L4.33333333,0.333351524 C4.33333333,0.149256607 4.48257175,1.81903794e-05 4.66666667,1.81903794e-05 L7.33333333,1.81903794e-05 Z" id="图标颜色"></path>
                    </g>
                </g>
            </g>
        </g>
    </g>
</svg>