<?xml version="1.0" encoding="UTF-8"?>
<svg width="16px" height="17px" viewBox="0 0 16 17" version="1.1" xmlns="http://www.w3.org/2000/svg" xmlns:xlink="http://www.w3.org/1999/xlink">
    <!-- Generator: Sketch 57.1 (83088) - https://sketch.com -->
    <title>3.Icons/Outlined/delete</title>
    <desc>Created with Sketch.</desc>
    <g id="全部稿" stroke="none" stroke-width="1" fill="none" fill-rule="evenodd" opacity="0.5">
        <g id="Artboard-Copy" transform="translate(-152.000000, -283.000000)" fill="#000000">
            <g id="Group-17-Copy-18" transform="translate(90.000000, 116.000000)">
                <g id="3.Icons/Outlined/delete" transform="translate(60.000000, 165.000000)">
                    <g id="icon39" transform="translate(2.500000, 2.500000)">
                        <path d="M3.14462711,2.83333079 L3.82158819,14.2062791 C3.84255136,14.5584604 4.13427227,14.8333308 4.48707696,14.8333308 L10.512923,14.8333308 C10.8657277,14.8333308 11.1574486,14.5584604 11.1784118,14.2062791 L11.8553729,2.83333079 L3.14462711,2.83333079 Z M12.8571429,2.83333079 L12.176645,14.2656977 C12.124237,15.1461511 11.3949348,15.8333308 10.512923,15.8333308 L4.48707696,15.8333308 C3.60506523,15.8333308 2.87576297,15.1461511 2.82335504,14.2656977 L2.14285713,2.83333079 L0.416666667,2.83333079 L0.416666667,2.24999746 C0.416666667,2.01987881 0.603214688,1.83333079 0.833333333,1.83333079 L14.1666667,1.83333079 C14.3967853,1.83333079 14.5833333,2.01987881 14.5833333,2.24999746 L14.5833333,2.83333079 L12.8571429,2.83333079 Z M6.41667684,5 L6.83334351,12.5 L5.83333333,12.5 L5.41666667,5 L6.41667684,5 Z M9.58333333,5 L9.16666667,12.5 L8.16665649,12.5 L8.58332316,5 L9.58333333,5 Z M9.16666667,2.27379743e-05 C9.39678531,2.27379743e-05 9.58333333,0.186570759 9.58333333,0.416689405 L9.58333333,1.00002274 L5.41666667,1.00002274 L5.41666667,0.416689405 C5.41666667,0.186570759 5.60321469,2.27379743e-05 5.83333333,2.27379743e-05 L9.16666667,2.27379743e-05 Z" id="图标颜色"></path>
                    </g>
                </g>
            </g>
        </g>
    </g>
</svg>