<?xml version="1.0" encoding="UTF-8"?>
<svg width="15px" height="15px" viewBox="0 0 15 15" version="1.1" xmlns="http://www.w3.org/2000/svg" xmlns:xlink="http://www.w3.org/1999/xlink">
    <!-- Generator: Sketch 54.1 (76490) - https://sketchapp.com -->
    <title>description_icon</title>
    <desc>Created with Sketch.</desc>
    <g id="description_icon" stroke="none" stroke-width="1" fill="none" fill-rule="evenodd">
        <g id="Group-14">
            <circle id="Oval" stroke="#7F7F7F" fill-opacity="0" fill="#FFFFFF" cx="7.5" cy="7.5" r="7"></circle>
            <path d="M7.6067221,4.11387884 C8.2567221,4.11387884 8.7867221,4.28387884 9.1867221,4.64387884 C9.5867221,4.99387884 9.7867221,5.47387884 9.7867221,6.08387884 C9.7867221,6.58387884 9.6567221,6.99387884 9.4167221,7.31387884 C9.3267221,7.41387884 9.0367221,7.68387884 8.5567221,8.10387884 C8.3767221,8.25387884 8.2467221,8.42387884 8.1567221,8.60387884 C8.0567221,8.80387884 8.0067221,9.01387884 8.0067221,9.25387884 L8.0067221,9.39387884 L6.8567221,9.39387884 L6.8567221,9.25387884 C6.8567221,8.87387884 6.9167221,8.54387884 7.0567221,8.27387884 C7.1867221,8.00387884 7.5767221,7.58387884 8.2267221,7.00387884 L8.3467221,6.86387884 C8.5267221,6.64387884 8.6167221,6.40387884 8.6167221,6.15387884 C8.6167221,5.82387884 8.5167221,5.56387884 8.3367221,5.37387884 C8.1467221,5.18387884 7.8767221,5.09387884 7.5367221,5.09387884 C7.0967221,5.09387884 6.7867221,5.22387884 6.5967221,5.50387884 C6.4267221,5.73387884 6.3467221,6.06387884 6.3467221,6.48387884 L5.2067221,6.48387884 C5.2067221,5.74387884 5.4167221,5.16387884 5.8567221,4.74387884 C6.2867221,4.32387884 6.8667221,4.11387884 7.6067221,4.11387884 Z M7.4267221,9.88387884 C7.6467221,9.88387884 7.8367221,9.95387884 7.9867221,10.0938788 C8.1267221,10.2338788 8.2067221,10.4138788 8.2067221,10.6338788 C8.2067221,10.8538788 8.1267221,11.0438788 7.9767221,11.1838788 C7.8267221,11.3238788 7.6467221,11.3938788 7.4267221,11.3938788 C7.2067221,11.3938788 7.0267221,11.3138788 6.8767221,11.1738788 C6.7267221,11.0338788 6.6567221,10.8538788 6.6567221,10.6338788 C6.6567221,10.4138788 6.7267221,10.2338788 6.8767221,10.0938788 C7.0267221,9.95387884 7.2067221,9.88387884 7.4267221,9.88387884 Z" id="？" fill="#7F7F7F" fill-rule="nonzero" opacity="0.9"></path>
        </g>
    </g>
</svg>