<?xml version="1.0" encoding="UTF-8"?>
<svg width="16px" height="16px" viewBox="0 0 16 16" version="1.1" xmlns="http://www.w3.org/2000/svg" xmlns:xlink="http://www.w3.org/1999/xlink">
    <!-- Generator: Sketch 53.2 (72643) - https://sketchapp.com -->
    <title>awesome_green</title>
    <desc>Created with Sketch.</desc>
    <g id="awesome_green" stroke="none" stroke-width="1" fill="none" fill-rule="evenodd">
        <g id="Group-10" transform="translate(2.000000, 3.000000)" fill="#576a95" fill-rule="nonzero">
            <path d="M3.36421198,11.0769217 L3.36421198,3.61168451 L3.41163117,3.61168451 C4.8,3.61168451 5.94242711,2.97395442 5.94242711,1.97802062 L5.95134983,1.63486208 C5.99616849,0.816298493 5.91825027,-0.00242713183 6.82326233,5.40715389e-06 C7.22332756,0.0010807235 7.80968411,0.351130003 8.03052505,0.968031348 C8.06837471,1.01971446 8.0859154,1.0775324 8.11135446,1.13986863 C8.13679352,1.20220486 8.30128593,2.41946476 8.31073352,3.61168451 L11.0169443,3.61168451 C11.4552077,3.61168451 11.8535813,3.78971412 12.1091912,4.10087893 C12.3632265,4.40997963 12.4566527,4.82486604 12.3663757,5.24026848 L11.1213927,10.1609722 C11.0090713,10.67442 10.5057245,11.0769217 9.97508466,11.0769217 L3.36421198,11.0769217 Z M2.36421198,11.0769217 L1.04710833,11.0769217 C0.469755368,11.0769217 -4.04121181e-13,10.6124966 -4.04121181e-13,10.0412538 L-4.04121181e-13,4.64735245 C-4.04121181e-13,4.07610959 0.4723797,3.61168451 1.05288186,3.61168451 L2.36421198,3.61168451 L2.36421198,11.0769217 Z" id="Combined-Shape"></path>
        </g>
    </g>
</svg>