<?xml version="1.0" encoding="UTF-8"?>
<svg width="40px" height="40px" viewBox="0 0 40 40" version="1.1" xmlns="http://www.w3.org/2000/svg" xmlns:xlink="http://www.w3.org/1999/xlink">
    <title>Dmg-loading</title>
    <defs>
        <path d="M34.8979592,38.6938776 C34.8979592,39.4152291 34.3131882,40 33.5918367,40 L6.20408163,40 C5.48273012,40 4.89795918,39.4152291 4.89795918,38.6938776 L4.89795918,1.30612245 C4.89795918,0.584770939 5.48273012,2.13091157e-15 6.20408163,0 L24.8979592,0 L34.8979592,10 L34.8979592,38.6938776 Z" id="path-1"></path>
    </defs>
    <g id="1028-文件状态" stroke="none" stroke-width="1" fill="none" fill-rule="evenodd">
        <g id="画板" transform="translate(-151.000000, -227.000000)">
            <g id="Dmg-loading" transform="translate(151.000000, 227.000000)">
                <rect id="BG" fill-opacity="0" fill="#D8D8D8" x="0" y="0" width="40" height="40"></rect>
                <g id="Combined-Shape">
                    <use fill="#FFFFFF" xlink:href="#path-1"></use>
                    <use fill-opacity="0.05" fill="#000000" xlink:href="#path-1"></use>
                </g>
                <path d="M35,10 L26.3333333,10 C25.5969537,10 25,9.40304633 25,8.66666667 L25,0 L25,0 L35,10 Z" id="Rectangle" fill="#000000" opacity="0.100000001"></path>
                <path d="M11.28,26 C12.4266667,26 13.3,25.68 13.9,25.04 C14.4733333,24.4133333 14.76,23.5433333 14.76,22.43 C14.76,21.2966667 14.48,20.43 13.92,19.83 C13.32,19.1833333 12.4466667,18.86 11.3,18.86 L11.3,18.86 L8.7,18.86 L8.7,26 L11.28,26 Z M11.08,25.07 L9.79,25.07 L9.79,19.79 L11.1,19.79 C12,19.79 12.66,20.0033333 13.08,20.43 C13.4866667,20.8566667 13.69,21.5233333 13.69,22.43 C13.69,23.3233333 13.4833333,23.9866667 13.07,24.42 C12.65,24.8533333 11.9866667,25.07 11.08,25.07 L11.08,25.07 Z M16.96,26 L16.96,20.9 L17,20.9 L19.19,26 L20.13,26 L22.32,20.9 L22.36,20.9 L22.36,26 L23.45,26 L23.45,18.86 L22.16,18.86 L19.68,24.58 L19.65,24.58 L17.16,18.86 L15.87,18.86 L15.87,26 L16.96,26 Z M28.08,26.14 C28.7,26.14 29.27,26.06 29.79,25.9 C30.29,25.74 30.72,25.5166667 31.08,25.23 L31.08,25.23 L31.08,22.23 L28.02,22.23 L28.02,23.16 L29.99,23.16 L29.99,24.71 C29.7366667,24.87 29.47,24.9866667 29.19,25.06 C28.8566667,25.1466667 28.5266667,25.19 28.2,25.19 C27.3066667,25.19 26.65,24.94 26.23,24.44 C25.8366667,23.9866667 25.64,23.3266667 25.64,22.46 C25.64,21.5733333 25.8566667,20.8833333 26.29,20.39 C26.6966667,19.9166667 27.2466667,19.68 27.94,19.68 C28.5133333,19.68 28.9666667,19.8033333 29.3,20.05 C29.64,20.29 29.86,20.65 29.96,21.13 L29.96,21.13 L31.06,21.13 C30.9333333,20.3366667 30.6133333,19.74 30.1,19.34 C29.58,18.9266667 28.86,18.72 27.94,18.72 C26.88,18.72 26.0433333,19.0866667 25.43,19.82 C24.8433333,20.5066667 24.55,21.3866667 24.55,22.46 C24.55,23.5266667 24.8433333,24.3933333 25.43,25.06 C26.0633333,25.78 26.9466667,26.14 28.08,26.14 Z" id="DMG" fill-opacity="0.9" fill="#000000" fill-rule="nonzero" opacity="0.3"></path>
                <path d="M35,38.7 C35,39.4179702 34.4179702,40 33.7,40 L33.7,40 L6.3,40 C5.58202983,40 5,39.4179702 5,38.7 L5,38.7 L5,1.3 C5,0.582029825 5.58202983,0 6.3,0 L6.3,0 L25,0 L35,10 L35,38.7 Z" id="形状结合备份" fill="#000000" fill-rule="nonzero" opacity="0.5"></path>
            </g>
        </g>
    </g>
</svg>