<?xml version="1.0" encoding="UTF-8"?>
<svg width="16px" height="16px" viewBox="0 0 16 16" version="1.1" xmlns="http://www.w3.org/2000/svg" xmlns:xlink="http://www.w3.org/1999/xlink">
    <title>画板</title>
    <g id="画板" stroke="none" stroke-width="1" fill="none" fill-rule="evenodd">
        <g id="编组" fill="#000000" fill-opacity="0.3">
            <g id="Group">
                <path d="M12.6666667,1.33333333 C13.0348565,1.33333333 13.3333333,1.63181017 13.3333333,2 L13.3333333,14 C13.3333333,14.3681898 13.0348565,14.6666667 12.6666667,14.6666667 L3.33333333,14.6666667 C2.9651435,14.6666667 2.66666667,14.3681898 2.66666667,14 L2.66666667,2 C2.66666667,1.63181017 2.9651435,1.33333333 3.33333333,1.33333333 L12.6666667,1.33333333 Z M12.5333333,2.13333333 L3.46666667,2.13333333 L3.46666667,13.8666667 L12.5333333,13.8666667 L12.5333333,2.13333333 Z M7.33333333,10.6666667 L7.33333333,11.4666667 L4.66666667,11.4666667 L4.66666667,10.6666667 L7.33333333,10.6666667 Z M7.33333333,8.66666667 L7.33333333,9.4666667 L4.66666667,9.4666667 L4.66666667,8.66666667 L7.33333333,8.66666667 Z M9.66666667,6.66666667 L9.66666667,7.4666667 L4.66666667,7.4666667 L4.66666667,6.66666667 L9.66666667,6.66666667 Z M5.66666667,3.33333333 C6.21895142,3.33333333 6.66666667,3.78104858 6.66666667,4.33333333 C6.66666667,4.88561808 6.21895142,5.33333333 5.66666667,5.33333333 C5.11438192,5.33333333 4.66666667,4.88561808 4.66666667,4.33333333 C4.66666667,3.78104858 5.11438192,3.33333333 5.66666667,3.33333333 Z" id="Fill-55"></path>
            </g>
        </g>
        <rect id="矩形" x="0" y="0" width="16" height="16"></rect>
    </g>
</svg>