<?xml version="1.0" encoding="UTF-8"?>
<svg width="16px" height="16px" viewBox="0 0 16 16" version="1.1" xmlns="http://www.w3.org/2000/svg" xmlns:xlink="http://www.w3.org/1999/xlink">
    <!-- Generator: Sketch 57.1 (83088) - https://sketch.com -->
    <title>Pen Copy</title>
    <desc>Created with Sketch.</desc>
    <g id="全部稿" stroke="none" stroke-width="1" fill="none" fill-rule="evenodd" opacity="0.5">
        <g id="Artboard-Copy" transform="translate(-108.000000, -283.000000)" fill-rule="nonzero">
            <g id="Group-17-Copy-18" transform="translate(90.000000, 116.000000)">
                <g id="Pen-Copy" transform="translate(16.000000, 165.000000)">
                    <rect id="Rectangle" fill="#000000" opacity="0" x="0" y="0" width="20" height="20"></rect>
                    <path d="M2.75154121,17.8206773 C2.86977113,17.8206773 2.99482736,17.7917449 3.12297924,17.7347136 L6.72563832,16.1314063 C7.03587777,15.9930943 7.45089298,15.7080169 7.6910041,15.4675486 L17.5292896,5.61711867 C17.71864,5.4275301 17.8230983,5.17483795 17.8230983,4.90567535 C17.8230983,4.63655245 17.7186004,4.38386029 17.5292896,4.19450985 L15.7280196,2.39073952 C15.5386691,2.20138908 15.2865723,2.09704987 15.0176875,2.09704987 C14.7489218,2.09704987 14.496825,2.20138906 14.3074348,2.39097765 L4.21828284,12.4931076 C3.97519513,12.7359968 3.69301495,13.1596243 3.56216431,13.4778807 L2.18666491,16.8226485 C2.03743882,17.1858711 2.14288928,17.4312211 2.21901045,17.5451647 C2.33604974,17.7202275 2.53020241,17.8206773 2.75154121,17.8206773 L2.75154121,17.8206773 Z M6.98098955,14.7563434 L6.98075142,14.7563434 L5.17948142,12.9528509 L13.5107819,4.61099352 L15.3120519,6.41452574 L6.98098955,14.7563434 Z M15.0176875,3.10214315 L16.8190369,4.90567535 L16.0223839,5.70332055 L14.2210742,3.89978833 L15.0176875,3.10214315 Z M4.49125546,13.8609869 C4.50597964,13.825387 4.52606166,13.7848657 4.54816775,13.7431142 L6.10857256,15.3054637 L3.40226221,16.5092737 L4.49125546,13.8609869 Z" id="Shape" fill="#040000"></path>
                </g>
            </g>
        </g>
    </g>
</svg>