<?xml version="1.0" encoding="UTF-8"?>
<svg width="15px" height="24px" viewBox="0 0 15 24" version="1.1" xmlns="http://www.w3.org/2000/svg" xmlns:xlink="http://www.w3.org/1999/xlink">
    <!-- Generator: Sketch 61 (89581) - https://sketch.com -->
    <title>Editor_Icon_Reference</title>
    <desc>Created with Sketch.</desc>
    <g id="Editor_Icon_Reference" stroke="none" stroke-width="1" fill="none" fill-rule="evenodd">
        <path d="M4,7 C5.1045695,7 6,7.8954305 6,9 L6,13 C6,15.6887547 3.87769329,17.8818181 1.21688962,17.9953805 L1,18 L1,17 C3.20880428,17 4.99945731,15.2096816 5,13.0010041 L2,13 C0.8954305,13 0,12.1045695 0,11 L0,9 C0,7.8954305 0.8954305,7 2,7 L4,7 Z M13,7 C14.1045695,7 15,7.8954305 15,9 L15,13 C15,15.6887547 12.8776933,17.8818181 10.2168896,17.9953805 L10,18 L10,17 C12.2088043,17 13.9994573,15.2096816 14,13.0010041 L11,13 C9.8954305,13 9,12.1045695 9,11 L9,9 C9,7.8954305 9.8954305,7 11,7 L13,7 Z M4,8 L2,8 C1.48716416,8 1.06449284,8.38604019 1.00672773,8.88337887 L1,9 L1,11 C1,11.5128358 1.38604019,11.9355072 1.88364686,11.9932723 L2.00033471,12 L5,12.001 L5,9 C5,8.48716416 4.61395981,8.06449284 4.11662113,8.00672773 L4,8 Z M13,8 L11,8 C10.4871642,8 10.0644928,8.38604019 10.0067277,8.88337887 L10,9 L10,11 C10,11.5128358 10.3860402,11.9355072 10.8836469,11.9932723 L11.0003347,12 L14,12.001 L14,9 C14,8.48716416 13.6139598,8.06449284 13.1166211,8.00672773 L13,8 Z" id="reference" fill="#000000" fill-rule="nonzero"></path>
    </g>
</svg>