<?xml version="1.0" encoding="UTF-8"?>
<svg width="9px" height="24px" viewBox="0 0 9 24" version="1.1" xmlns="http://www.w3.org/2000/svg" xmlns:xlink="http://www.w3.org/1999/xlink">
    <!-- Generator: Sketch 56.3 (81716) - https://sketch.com -->
    <title>Editor_Icon_Color</title>
    <desc>Created with Sketch.</desc>
    <g id="Editor_Icon_Color" stroke="none" stroke-width="1" fill="none" fill-rule="evenodd">
        <path d="M3.90886611,14.3056969 C2.33429104,14.3056969 1.2,13.3878167 1.2,11.9475655 C1.2,10.5446266 2.23727931,9.73122054 4.09542714,9.60435904 L6.61026978,9.44018533 L6.61026978,8.68647879 C6.61026978,7.5074131 5.88641299,6.87310561 4.58794825,6.87310561 C3.49843185,6.87310561 2.7074131,7.32085207 2.51338963,8.11933326 L1.52088497,8.11933326 C1.70744599,6.82086852 2.95367365,6 4.61779801,6 C6.49833316,6 7.595312,6.98504222 7.595312,8.67901635 L7.595312,14.171373 L6.65504442,14.171373 L6.65504442,12.7908214 L6.56549513,12.7908214 C6.07297402,13.7460138 5.0879318,14.3056969 3.90886611,14.3056969 Z M4.07303981,13.4400538 C5.51329094,13.4400538 6.61026978,12.4550115 6.61026978,11.1789341 L6.61026978,10.2386665 L4.22975108,10.4103027 C2.86412436,10.5073144 2.20742954,11.0147604 2.20742954,11.9326407 C2.20742954,12.8579833 2.99098586,13.4400538 4.07303981,13.4400538 Z" id="a" fill="#000000" fill-rule="nonzero"></path>
    </g>
</svg>