<svg width="16" height="16" viewBox="0 0 16 16" fill="none" xmlns="http://www.w3.org/2000/svg">
<path d="M13.0589 2.5398C12.9111 2.39201 12.6715 2.39201 12.5237 2.5398L6.96819 8.09531L6.19707 9.44521C6.15148 9.52502 6.15103 9.62288 6.19589 9.70311C6.26654 9.82943 6.42621 9.87456 6.55253 9.80392L7.91446 9.04231L13.4703 3.48643C13.6181 3.33865 13.6181 3.09903 13.4703 2.95124L13.0589 2.5398Z" fill="black"/>
<path d="M3.625 3.62496V12.375H12.375V6.83329H13.25V12.6666C13.25 12.9888 12.9888 13.25 12.6667 13.25H3.33333C3.01117 13.25 2.75 12.9888 2.75 12.6666V3.33329C2.75 3.01113 3.01117 2.74996 3.33333 2.74996H9.16667V3.62496H3.625Z" fill="black"/>
</svg>
