<?xml version="1.0" encoding="UTF-8"?>
<svg width="14px" height="24px" viewBox="0 0 14 24" version="1.1" xmlns="http://www.w3.org/2000/svg" xmlns:xlink="http://www.w3.org/1999/xlink">
    <!-- Generator: Sketch 56.3 (81716) - https://sketch.com -->
    <title>Editor_Icon_Pre-segment</title>
    <desc>Created with Sketch.</desc>
    <g id="Editor_Icon_Pre-segment" stroke="none" stroke-width="1" fill="none" fill-rule="evenodd">
        <path d="M0,13.6213203 L14,13.6213203 L14,14.6213203 L0,14.6213203 L0,13.6213203 Z M0,17.6213203 L14,17.6213203 L14,18.6213203 L0,18.6213203 L0,17.6213203 Z M0,9.62132034 L14,9.62132034 L14,10.6213203 L0,10.6213203 L0,9.62132034 Z M9.27989899,6.77989899 C9.31740626,6.81740626 9.33847763,6.86827705 9.33847763,6.92132034 C9.33847763,7.03177729 9.24893458,7.12132034 9.13847763,7.12132034 L5.86152237,7.12132034 C5.80847907,7.12132034 5.75760829,7.10024898 5.72010101,7.0627417 C5.64199615,6.98463684 5.64199615,6.85800385 5.72010101,6.77989899 L7.35857864,5.14142136 C7.4366835,5.0633165 7.5633165,5.0633165 7.64142136,5.14142136 L9.27989899,6.77989899 Z" id="Pre-segment" fill="#07C160"></path>
    </g>
</svg>