<?xml version="1.0" encoding="UTF-8"?>
<svg width="13px" height="24px" viewBox="0 0 13 24" version="1.1" xmlns="http://www.w3.org/2000/svg" xmlns:xlink="http://www.w3.org/1999/xlink">
    <!-- Generator: Sketch 56.3 (81716) - https://sketch.com -->
    <title>Editor_Icon_FormatBrush</title>
    <desc>Created with Sketch.</desc>
    <g id="Editor_Icon_FormatBrush" stroke="none" stroke-width="1" fill="none" fill-rule="evenodd">
        <path d="M2.49441003,12 L11.49441,12 L11.49441,10 L8.97896984,10 L4.97896984,10 L2.49441003,10 L2.49441003,12 Z M2.49441003,13 L2.49441003,13.8086062 C2.49441003,15.2377931 2.25431698,16.6544626 1.78635856,18 L6.86167171,18 L8.26695694,15.7591616 L9.82958238,18 L11.49441,18 L11.49441,13 L2.49441003,13 Z M8.97896984,9 L11.49441,9 C12.0466948,9 12.49441,9.44771525 12.49441,10 L12.49441,18 C12.49441,18.5522847 12.0466948,19 11.49441,19 L9.30779012,19 L8.31118205,17.5708426 L7.41492209,19 L0.3,19 L0.513561408,18.5104107 C1.16049701,17.0273116 1.49441003,15.4266633 1.49441003,13.8086062 L1.49441003,10 C1.49441003,9.44771525 1.94212528,9 2.49441003,9 L4.97896984,9 L4.97896984,6 C4.97896984,5.44771525 5.42668509,5 5.97896984,5 L7.97896984,5 C8.53125459,5 8.97896984,5.44771525 8.97896984,6 L8.97896984,9 Z M7.97896984,9 L7.97896984,6 L5.97896984,6 L5.97896984,9 L7.97896984,9 Z" id="format_brush" fill="#07C160" fill-rule="nonzero"></path>
    </g>
</svg>