<?xml version="1.0" encoding="UTF-8"?>
<svg width="14px" height="24px" viewBox="0 0 14 24" version="1.1" xmlns="http://www.w3.org/2000/svg" xmlns:xlink="http://www.w3.org/1999/xlink">
    <!-- Generator: Sketch 56.3 (81716) - https://sketch.com -->
    <title>Editor_Icon_LineSpacing</title>
    <desc>Created with Sketch.</desc>
    <g id="Editor_Icon_LineSpacing" stroke="none" stroke-width="1" fill="none" fill-rule="evenodd">
        <g id="CommunityIcons/Outlined/-line_spacing" transform="translate(0.000000, 6.000000)" fill="#000000">
            <path d="M7,4 L14,4 L14,5 L7,5 L7,4 Z M7,8 L14,8 L14,9 L7,9 L7,8 Z M0,12 L14,12 L14,13 L0,13 L0,12 Z M0,0 L14,0 L14,1 L0,1 L0,0 Z M4.27989898,7.84142136 L2.64142136,9.47989899 C2.5633165,9.55800384 2.4366835,9.55800384 2.35857864,9.47989899 L0.720101018,7.84142136 C0.641996158,7.7633165 0.641996158,7.6366835 0.720101018,7.55857864 C0.757608294,7.52107137 0.808479077,7.5 0.861522376,7.5 L4.13847762,7.5 C4.24893458,7.5 4.33847763,7.58954305 4.33847763,7.7 C4.33847763,7.7530433 4.31740626,7.80391409 4.27989898,7.84142136 Z M4.27989898,5.15857864 C4.31740626,5.19608591 4.33847763,5.2469567 4.33847763,5.3 C4.33847763,5.41045695 4.24893458,5.5 4.13847762,5.5 L0.861522376,5.5 C0.808479077,5.5 0.757608294,5.47892863 0.720101018,5.44142136 C0.641996158,5.3633165 0.641996158,5.2366835 0.720101018,5.15857864 L2.35857864,3.52010101 C2.4366835,3.44199616 2.5633165,3.44199616 2.64142136,3.52010101 L4.27989898,5.15857864 Z" id="LineSpacing"></path>
        </g>
    </g>
</svg>