<?xml version="1.0" encoding="UTF-8"?>
<svg width="14px" height="24px" viewBox="0 0 14 24" version="1.1" xmlns="http://www.w3.org/2000/svg" xmlns:xlink="http://www.w3.org/1999/xlink">
    <!-- Generator: Sketch 56.3 (81716) - https://sketch.com -->
    <title>Editor_Icon_Post-segment</title>
    <desc>Created with Sketch.</desc>
    <g id="Editor_Icon_Post-segment" stroke="none" stroke-width="1" fill="none" fill-rule="evenodd">
        <path d="M0,14.5384776 L14,14.5384776 L14,15.5384776 L0,15.5384776 L0,14.5384776 Z M0,18.5384776 L14,18.5384776 L14,19.5384776 L0,19.5384776 L0,18.5384776 Z M0,10.5384776 L14,10.5384776 L14,11.5384776 L0,11.5384776 L0,10.5384776 Z M9.27989899,7.69705627 C9.31740626,7.73456355 9.33847763,7.78543433 9.33847763,7.83847763 C9.33847763,7.94893458 9.24893458,8.03847763 9.13847763,8.03847763 L5.86152237,8.03847763 C5.80847907,8.03847763 5.75760829,8.01740626 5.72010101,7.97989899 C5.64199615,7.90179413 5.64199615,7.77516113 5.72010101,7.69705627 L7.35857864,6.05857864 C7.4366835,5.98047379 7.5633165,5.98047379 7.64142136,6.05857864 L9.27989899,7.69705627 Z" id="Post-segment" fill="#000000" transform="translate(7.000000, 12.769239) scale(1, -1) translate(-7.000000, -12.769239) "></path>
    </g>
</svg>