<?xml version="1.0" encoding="UTF-8"?>
<svg width="16px" height="16px" viewBox="0 0 16 16" version="1.1" xmlns="http://www.w3.org/2000/svg" xmlns:xlink="http://www.w3.org/1999/xlink">
    <!-- Generator: Sketch 53.2 (72643) - https://sketchapp.com -->
    <title>edit_icon</title>
    <desc>Created with Sketch.</desc>
    <g id="edit_icon" stroke="none" stroke-width="1" fill="none" fill-rule="evenodd">
        <path d="M9.33333333,2.26666673 L9.33333333,3.26666673 L3,3.26666673 L3.03673136,13.2579279 L13,13.2666667 L13,6.9333334 L14,6.9333334 L14,13.6000001 C14,13.9681899 13.7015232,14.2666667 13.3333333,14.2666667 L2.66666667,14.2666667 C2.29847683,14.2666667 2,13.9681899 2,13.6000001 L2,2.9333334 C2,2.56514356 2.29847683,2.26666673 2.66666667,2.26666673 L9.33333333,2.26666673 Z M13.2405878,2.09738676 C13.3704368,1.96753775 13.5809636,1.96753775 13.7108126,2.09738676 L14.1810375,2.56761162 C14.3108865,2.69746063 14.3108865,2.90798747 14.1810375,3.03783648 L7.8412705,9.37760344 L6.29687467,10.2412521 C6.20071028,10.2950309 6.07915729,10.2606706 6.02537848,10.1645062 C5.99122497,10.1034347 5.99156386,10.0289341 6.02627155,9.96817589 L6.90090397,8.43707054 L13.2405878,2.09738676 Z" id="图标颜色" fill="#000000"></path>
    </g>
</svg>