<?xml version="1.0" encoding="UTF-8"?>
<svg width="17px" height="24px" viewBox="0 0 17 24" version="1.1" xmlns="http://www.w3.org/2000/svg" xmlns:xlink="http://www.w3.org/1999/xlink">
    <!-- Generator: Sketch 56.3 (81716) - https://sketch.com -->
    <title>Editor_Icon_Clear</title>
    <desc>Created with Sketch.</desc>
    <g id="Editor_Icon_Clear" stroke="none" stroke-width="1" fill="none" fill-rule="evenodd">
        <g id="clear" transform="translate(10.500000, 14.500000) rotate(45.000000) translate(-10.500000, -14.500000) translate(3.000000, 6.000000)" fill="#07C160" fill-rule="nonzero">
            <path d="M6.84652098,15.5891617 C6.58533134,15.845306 6.46765535,15.9396062 6.32670951,16.0311401 C6.16577088,16.1356579 6.00294652,16.2081153 5.81756702,16.2577102 C5.63218753,16.3073052 5.46443837,16.3319468 4.97216636,16.35756 L1.63774685,16.5310522 C1.08620815,16.5597491 0.615834233,16.1359022 0.587137292,15.5843635 C0.586236875,15.567058 0.585786438,15.549732 0.585786438,15.5324031 L0.585786438,1.86772904 C0.585786438,1.42196967 0.632199243,1.26032655 0.71935279,1.09736359 C0.806506336,0.934400623 0.934400623,0.806506336 1.09736359,0.71935279 C1.26032655,0.632199243 1.42196967,0.585786438 1.86772904,0.585786438 L7.58383986,0.585786438 C8.13612461,0.585786438 8.58383986,1.03350169 8.58383986,1.58578644 L8.57217266,7.58578644 L8.58578644,7.58578644 L8.58578644,8.58578644 L8.57022813,8.58578644 L8.56268916,12.4627942 L13.9195959,7.10588745 L14.6267027,7.81299423 L6.84852814,15.5911688 L6.84652098,15.5891617 Z M7.57217174,7.58578644 L7.58383986,1.58578644 L1.86772904,1.58578644 C1.68673203,1.58578644 1.62253654,1.58799669 1.59318999,1.59318999 C1.58799669,1.62253654 1.58578644,1.68673203 1.58578644,1.86772904 L1.58578644,7.58578644 L7.57217174,7.58578644 Z M7.57022705,8.58578644 L1.58578644,8.58578644 L1.58578644,15.5324031 L4.92020595,15.3589109 C5.32017344,15.3381003 5.44122131,15.3232265 5.55912407,15.2916837 C5.64300253,15.2692436 5.7092396,15.2397678 5.78205934,15.1924768 C5.88441752,15.1260027 5.97649785,15.0460337 6.25970013,14.7628314 L7.56074476,13.4617868 L7.57022705,8.58578644 Z" id="形状结合"></path>
        </g>
    </g>
</svg>