<?xml version="1.0" encoding="UTF-8"?>
<svg width="14px" height="24px" viewBox="0 0 14 24" version="1.1" xmlns="http://www.w3.org/2000/svg" xmlns:xlink="http://www.w3.org/1999/xlink">
    <!-- Generator: Sketch 56.3 (81716) - https://sketch.com -->
    <title>Editor_Icon_Link</title>
    <desc>Created with Sketch.</desc>
    <defs>
        <path d="M11.3606902,11.9609147 L10.7007239,11.3009484 L12.3506397,9.65103255 C13.2011148,8.80055742 13.2011148,7.4216648 12.3506397,6.57118968 C11.5001646,5.72071455 10.121272,5.72071455 9.27079685,6.57118968 L6.24595117,9.59603535 C5.39547605,10.4465105 5.39547605,11.8254031 6.24595117,12.6758782 L5.58598485,13.3358445 C4.37102038,12.1208801 4.37102038,10.1510335 5.58598485,8.93606902 L8.61083052,5.91122335 C9.82579498,4.69625888 11.7956416,4.69625888 13.010606,5.91122335 C14.2255705,7.12618781 14.2255705,9.09603441 13.010606,10.3109989 L11.3606902,11.9609147 Z M2.56113917,11.9609147 L3.2211055,12.620881 L1.57118968,14.2707968 C0.720714552,15.121272 0.720714552,16.5001646 1.57118968,17.3506397 C2.4216648,18.2011148 3.80055742,18.2011148 4.65103255,17.3506397 L7.67587822,14.325794 C8.52635335,13.4753189 8.52635335,12.0964263 7.67587822,11.2459512 L8.33584455,10.5859848 C9.55080901,11.8009493 9.55080901,13.7707959 8.33584455,14.9857604 L5.31099887,18.010606 C4.09603441,19.2255705 2.12618781,19.2255705 0.911223347,18.010606 C-0.303741116,16.7956416 -0.303741116,14.825795 0.911223347,13.6108305 L2.56113917,11.9609147 Z" id="path-1"></path>
    </defs>
    <g id="Editor_Icon_Link" stroke="none" stroke-width="1" fill="none" fill-rule="evenodd">
        <mask id="mask-2" fill="white">
            <use xlink:href="#path-1"></use>
        </mask>
        <use id="link" fill="#07C160" fill-rule="nonzero" xlink:href="#path-1"></use>
    </g>
</svg>