<?xml version="1.0" encoding="UTF-8"?>
<svg width="20px" height="24px" viewBox="0 0 20 24" version="1.1" xmlns="http://www.w3.org/2000/svg" xmlns:xlink="http://www.w3.org/1999/xlink">
    <!-- Generator: Sketch 56.3 (81716) - https://sketch.com -->
    <title>Editor_Icon_Video</title>
    <desc>Created with Sketch.</desc>
    <g id="Editor_Icon_Video" stroke="none" stroke-width="1" fill="none" fill-rule="evenodd">
        <path d="M0.952380952,6 L13.3333333,6 C13.8593188,6 14.2857143,6.42639548 14.2857143,6.95238095 L14.2857143,17.4285714 C14.2857143,17.9545569 13.8593188,18.3809524 13.3333333,18.3809524 L0.952380952,18.3809524 C0.426395476,18.3809524 0,17.9545569 0,17.4285714 L0,6.95238095 C0,6.42639548 0.426395476,6 0.952380952,6 Z M1,7 L1,17.3809524 L13.2857143,17.3809524 L13.2857143,7 L1,7 Z M15.2380952,10.2857143 L18.4526714,7.71405337 C18.863397,7.38547285 19.4627231,7.45206463 19.7913036,7.86279029 C19.9263993,8.03165986 20,8.24147938 20,8.45773795 L20,15.9232144 C20,16.4491999 19.5736045,16.8755954 19.047619,16.8755954 C18.8313605,16.8755954 18.621541,16.8019947 18.4526714,16.666899 L15.2380952,14.0952381 L15.2380952,10.2857143 Z M16.2380952,13.6146132 L19,15.8241371 L19,8.55681532 L16.2380952,10.7663391 L16.2380952,13.6146132 Z" id="video" fill="#000000" fill-rule="nonzero"></path>
    </g>
</svg>