<?xml version="1.0" encoding="UTF-8"?>
<svg width="21px" height="15px" viewBox="0 0 21 15" version="1.1" xmlns="http://www.w3.org/2000/svg" xmlns:xlink="http://www.w3.org/1999/xlink">
    <!-- Generator: Sketch 53.2 (72643) - https://sketchapp.com -->
    <title>video_icon</title>
    <desc>Created with Sketch.</desc>
    <defs>
        <path d="M1.08571429,1.53809524 L1.08571429,11.1285714 L12.4857143,11.1285714 L12.4857143,1.53809524 L1.08571429,1.53809524 Z M0.904761905,0.452380952 L12.6666667,0.452380952 C13.1663529,0.452380952 13.5714286,0.857456655 13.5714286,1.35714286 L13.5714286,11.3095238 C13.5714286,11.80921 13.1663529,12.2142857 12.6666667,12.2142857 L0.904761905,12.2142857 C0.405075703,12.2142857 0,11.80921 0,11.3095238 L0,1.35714286 C0,0.857456655 0.405075703,0.452380952 0.904761905,0.452380952 Z M15.5619048,7.62103588 L17.9142857,9.50294064 L17.9142857,3.16372602 L15.5619048,5.04563079 L15.5619048,7.62103588 Z M14.4761905,4.52380952 L17.5300378,2.08073165 C17.9202272,1.76858016 18.489587,1.83184235 18.8017384,2.22203172 C18.9300793,2.38245781 19,2.58178637 19,2.787232 L19,9.87943466 C19,10.3791209 18.5949243,10.7841966 18.0952381,10.7841966 C17.8897925,10.7841966 17.6904639,10.7142759 17.5300378,10.585935 L14.4761905,8.14285714 L14.4761905,4.52380952 Z" id="path-1"></path>
    </defs>
    <g id="video_icon" stroke="none" stroke-width="1" fill="none" fill-rule="evenodd">
        <g id="图标颜色" transform="translate(1.000000, 1.000000)">
            <mask id="mask-2" fill="white">
                <use xlink:href="#path-1"></use>
            </mask>
            <use id="Mask" fill="#000000" fill-rule="nonzero" xlink:href="#path-1"></use>
        </g>
    </g>
</svg>