<?xml version="1.0" encoding="UTF-8"?>
<svg width="18px" height="15px" viewBox="0 0 18 15" version="1.1" xmlns="http://www.w3.org/2000/svg" xmlns:xlink="http://www.w3.org/1999/xlink">
    <!-- Generator: Sketch 53.2 (72643) - https://sketchapp.com -->
    <title>pic_icon</title>
    <desc>Created with Sketch.</desc>
    <defs>
        <path d="M15.04,8.3270773 L15.04,0.96 L0.96,0.96 L0.96,8.07377593 L4.95939642,4.83940692 C5.32943924,4.54014801 5.92370049,4.55466175 6.28039634,4.86806695 L9.86153831,8.01458109 L11.687282,6.46199813 C12.057054,6.14755005 12.6453783,6.15393807 13.0043451,6.47606696 L15.04,8.3270773 Z M15.0399997,9.59488747 L12.340947,7.16631353 L10.5903806,8.65496692 L11.6659511,9.6 L10.2489338,9.6 L5.604845,5.55206659 L0.96,9.30841909 L0.96,11.84 L15.04,11.84 L15.04,9.59488735 Z M0.793442488,0 L15.2065575,0 C15.6357555,0 16,0.384909602 16,0.859719658 L16,11.9402803 C16,12.4169214 15.6447637,12.8 15.2065575,12.8 L0.793442488,12.8 C0.364244461,12.8 0,12.4150904 0,11.9402803 L0,0.859719658 C0,0.383078575 0.355236302,0 0.793442488,0 Z" id="path-1"></path>
    </defs>
    <g id="pic_icon" stroke="none" stroke-width="1" fill="none" fill-rule="evenodd">
        <g id="common_icons_album" transform="translate(1.000000, 1.000000)">
            <mask id="mask-2" fill="white">
                <use xlink:href="#path-1"></use>
            </mask>
            <g id="Mask" fill-rule="nonzero"></g>
            <g id="Icons/Tint-Color/Black" mask="url(#mask-2)" fill="#000000" opacity="0.900000036">
                <g transform="translate(-2.000000, -4.000000)" id="Rectangle-26">
                    <rect x="0" y="0" width="20" height="21"></rect>
                </g>
            </g>
        </g>
    </g>
</svg>