<?xml version="1.0" encoding="UTF-8"?>
<svg width="16px" height="15px" viewBox="0 0 16 15" version="1.1" xmlns="http://www.w3.org/2000/svg" xmlns:xlink="http://www.w3.org/1999/xlink">
    <!-- Generator: Sketch 53.2 (72643) - https://sketchapp.com -->
    <title>link_icon_hl</title>
    <desc>Created with Sketch.</desc>
    <defs>
        <path d="M11.3997755,7 L10.7398092,6.34003367 L12.389725,4.69011785 C13.2402001,3.83964272 13.2402001,2.4607501 12.389725,1.61027498 C11.5392499,0.759799855 10.1603573,0.759799855 9.30988215,1.61027498 L6.28503648,4.63512065 C5.43456135,5.48559578 5.43456135,6.8644884 6.28503648,7.71496352 L5.62507015,8.37492985 C4.41010568,7.15996539 4.41010568,5.19011879 5.62507015,3.97515432 L8.64991582,0.95030865 C9.86488029,-0.264655813 11.8347269,-0.264655813 13.0496914,0.95030865 C14.2646558,2.16527311 14.2646558,4.13511971 13.0496914,5.35008418 L11.3997755,7 Z M2.60022447,7 L3.2601908,7.65996633 L1.61027498,9.30988215 C0.759799855,10.1603573 0.759799855,11.5392499 1.61027498,12.389725 C2.4607501,13.2402001 3.83964272,13.2402001 4.69011785,12.389725 L7.71496352,9.36487935 C8.56543865,8.51440422 8.56543865,7.1355116 7.71496352,6.28503648 L8.37492985,5.62507015 C9.58989432,6.84003461 9.58989432,8.80988121 8.37492985,10.0248457 L5.35008418,13.0496914 C4.13511971,14.2646558 2.16527311,14.2646558 0.95030865,13.0496914 C-0.264655813,11.8347269 -0.264655813,9.86488029 0.95030865,8.64991582 L2.60022447,7 Z" id="path-1"></path>
    </defs>
    <g id="link_icon_hl" stroke="none" stroke-width="1" fill="none" fill-rule="evenodd">
        <g id="Group" transform="translate(1.000000, 0.000000)">
            <mask id="mask-2" fill="white">
                <use xlink:href="#path-1"></use>
            </mask>
            <use id="Mask" fill="#07C160" fill-rule="nonzero" xlink:href="#path-1"></use>
        </g>
    </g>
</svg>