<?xml version="1.0" encoding="UTF-8"?>
<svg width="16px" height="15px" viewBox="0 0 16 15" version="1.1" xmlns="http://www.w3.org/2000/svg" xmlns:xlink="http://www.w3.org/1999/xlink">
    <!-- Generator: Sketch 53.2 (72643) - https://sketchapp.com -->
    <title>reference_icon</title>
    <desc>Created with Sketch.</desc>
    <g id="reference_icon" stroke="none" stroke-width="1" fill="none" fill-rule="evenodd">
        <g id="Group-19" transform="translate(1.000000, 2.000000)" fill="#FFFFFF" fill-opacity="0" stroke="#000000">
            <path d="M5.5,5.5 L5.5,2 C5.5,1.17157288 4.82842712,0.5 4,0.5 L2,0.5 C1.17157288,0.5 0.5,1.17157288 0.5,2 L0.5,4 C0.5,4.82842712 1.17157288,5.5 2,5.5 L5.5,5.5 Z" id="Rectangle"></path>
            <path d="M13.5,5.5 L13.5,2 C13.5,1.17157288 12.8284271,0.5 12,0.5 L10,0.5 C9.17157288,0.5 8.5,1.17157288 8.5,2 L8.5,4 C8.5,4.82842712 9.17157288,5.5 10,5.5 L13.5,5.5 Z" id="Rectangle-Copy-8"></path>
        </g>
        <path d="M6.89998188,7 C6.96556974,7.32310994 7,7.65753416 7,8 C7,10.7614237 4.76142375,13 2,13 L2,12 C4.209139,12 6,10.209139 6,8 C6,7.65470043 5.956247,7.31961992 5.87398251,7 L6.89998188,7 Z" id="Combined-Shape" fill="#000000"></path>
        <path d="M14.8999819,7 C14.9655697,7.32310994 15,7.65753416 15,8 C15,10.7614237 12.7614237,13 10,13 L10,12 C12.209139,12 14,10.209139 14,8 C14,7.65470043 13.956247,7.31961992 13.8739825,7 L14.8999819,7 Z" id="Combined-Shape-Copy" fill="#000000"></path>
    </g>
</svg>