<?xml version="1.0" encoding="UTF-8"?>
<svg width="32px" height="40px" viewBox="0 0 32 40" version="1.1" xmlns="http://www.w3.org/2000/svg" xmlns:xlink="http://www.w3.org/1999/xlink">
    <title>Exe-loading@1x</title>
    <g id="1028-文件状态" stroke="none" stroke-width="1" fill="none" fill-rule="evenodd">
        <g id="画板" transform="translate(-94.000000, -159.000000)" fill-rule="nonzero">
            <g id="Exe-loading" transform="translate(94.000000, 159.000000)">
                <g id="Group" transform="translate(0.897959, 0.000000)">
                    <g id="Combined-Shape">
                        <g id="path-1-link" fill="#FFFFFF">
                            <path d="M30,38.6938776 C30,39.4152291 29.4152291,40 28.6938776,40 L1.30612245,40 C0.584770939,40 2.84217094e-14,39.4152291 2.84217094e-14,38.6938776 L2.84217094e-14,1.30612245 C2.84217094e-14,0.584770939 0.584770939,0 1.30612245,0 L20,0 L30,10 L30,38.6938776 Z" id="path-1"></path>
                        </g>
                        <g id="path-1-link" fill="#000000" fill-opacity="0.05">
                            <path d="M30,38.6938776 C30,39.4152291 29.4152291,40 28.6938776,40 L1.30612245,40 C0.584770939,40 2.84217094e-14,39.4152291 2.84217094e-14,38.6938776 L2.84217094e-14,1.30612245 C2.84217094e-14,0.584770939 0.584770939,0 1.30612245,0 L20,0 L30,10 L30,38.6938776 Z" id="path-1"></path>
                        </g>
                    </g>
                    <path d="M30.1020408,10 L21.4353741,10 C20.6989945,10 20.1020408,9.40304633 20.1020408,8.66666667 L20.1020408,0 L20.1020408,0 L30.1020408,10 Z" id="Rectangle" fill="#000000" opacity="0.100000001"></path>
                </g>
                <path d="M31,38.7 C31,39.4179702 30.4179702,40 29.7,40 L29.7,40 L2.3,40 C1.58202983,40 1,39.4179702 1,38.7 L1,38.7 L1,1.3 C1,0.582029825 1.58202983,0 2.3,0 L2.3,0 L21,0 L31,10 L31,38.7 Z" id="形状结合" fill="#000000" opacity="0.5"></path>
                <path d="M12,26 L12,25.07 L7.79,25.07 L7.79,22.8 L11.59,22.8 L11.59,21.87 L7.79,21.87 L7.79,19.79 L11.83,19.79 L11.83,18.86 L6.7,18.86 L6.7,26 L12,26 Z M13.79,26 L15.7,23.17 L17.61,26 L18.94,26 L16.35,22.31 L18.77,18.86 L17.44,18.86 L15.7,21.44 L13.96,18.86 L12.63,18.86 L15.03,22.31 L12.46,26 L13.79,26 Z M24.99,26 L24.99,25.07 L20.78,25.07 L20.78,22.8 L24.58,22.8 L24.58,21.87 L20.78,21.87 L20.78,19.79 L24.82,19.79 L24.82,18.86 L19.69,18.86 L19.69,26 L24.99,26 Z" id="EXE" fill-opacity="0.9" fill="#000000" opacity="0.3"></path>
            </g>
        </g>
    </g>
</svg>