<?xml version="1.0" encoding="UTF-8"?>
<svg width="46px" height="60px" viewBox="0 0 46 60" version="1.1" xmlns="http://www.w3.org/2000/svg" xmlns:xlink="http://www.w3.org/1999/xlink">
    <title>0.图标/04.文件类/PKG备份 2@2x</title>
    <defs>
        <path d="M45,58.0408163 C45,59.1228436 44.1228436,60 43.0408163,60 L1.95918367,60 C0.877156408,60 8.49535492e-14,59.1228436 8.52651283e-14,58.0408163 L8.52651283e-14,1.95918367 C8.51326182e-14,0.877156408 0.877156408,-2.45324026e-16 1.95918367,0 L30,0 L45,15 L45,58.0408163 Z" id="path-1"></path>
    </defs>
    <g id="1013文件传输助手走查" stroke="none" stroke-width="1" fill="none" fill-rule="evenodd">
        <g id="编组" transform="translate(-7.000000, 0.000000)">
            <g id="Group" transform="translate(7.000000, 0.000000)">
                <g id="Combined-Shape">
                    <use fill="#FFFFFF" xlink:href="#path-1"></use>
                    <use fill-opacity="0.05" fill="#000000" xlink:href="#path-1"></use>
                </g>
                <path d="M45.1530612,15 L32.1530612,15 C31.0484917,15 30.1530612,14.1045695 30.1530612,13 L30.1530612,0 L30.1530612,0 L45.1530612,15 Z" id="Rectangle" fill="#000000" opacity="0.100000001"></path>
            </g>
            <path d="M23.8239475,39 L23.8239475,37.5672269 L17.609076,37.5672269 L17.609076,34.070028 L23.2186987,34.070028 L23.2186987,32.6372549 L17.609076,32.6372549 L17.609076,29.4327731 L23.5729907,29.4327731 L23.5729907,28 L16,28 L16,39 L23.8239475,39 Z M26.4663751,39 L29.2859486,34.640056 L32.1055221,39 L34.0688901,39 L30.2454893,33.3151261 L33.8179333,28 L31.8545653,28 L29.2859486,31.9747899 L26.7173319,28 L24.7539639,28 L28.2968835,33.3151261 L24.5030071,39 L26.4663751,39 Z M43,39 L43,37.5672269 L36.7851285,37.5672269 L36.7851285,34.070028 L42.3947512,34.070028 L42.3947512,32.6372549 L36.7851285,32.6372549 L36.7851285,29.4327731 L42.7490432,29.4327731 L42.7490432,28 L35.1760525,28 L35.1760525,39 L43,39 Z" id="EXE" fill-opacity="0.9" fill="#000000" fill-rule="nonzero" opacity="0.3"></path>
        </g>
    </g>
</svg>