<?xml version="1.0" encoding="UTF-8"?>
<svg width="256px" height="256px" viewBox="0 0 256 256" version="1.1" xmlns="http://www.w3.org/2000/svg" xmlns:xlink="http://www.w3.org/1999/xlink">
    <title>专家用户</title>
    <defs>
        <linearGradient x1="50%" y1="0%" x2="50%" y2="100%" id="linearGradient-1">
            <stop stop-color="#BBDDFF" offset="0%"></stop>
            <stop stop-color="#4892DB" offset="100%"></stop>
        </linearGradient>
        <linearGradient x1="50%" y1="1.55818025%" x2="50%" y2="97.1638713%" id="linearGradient-2">
            <stop stop-color="#FFFFFF" stop-opacity="0.7" offset="0%"></stop>
            <stop stop-color="#FFFFFF" stop-opacity="0.8" offset="100%"></stop>
        </linearGradient>
        <path d="M136,35.6188022 L204.004464,74.8811978 C208.954881,77.7393226 212.004464,83.0213549 212.004464,88.7376043 L212.004464,167.262396 C212.004464,172.978645 208.954881,178.260677 204.004464,181.118802 L136,220.381198 C131.049583,223.239323 124.950417,223.239323 120,220.381198 L51.9955358,181.118802 C47.0451186,178.260677 43.9955358,172.978645 43.9955358,167.262396 L43.9955358,88.7376043 C43.9955358,83.0213549 47.0451186,77.7393226 51.9955358,74.8811978 L120,35.6188022 C124.950417,32.7606774 131.049583,32.7606774 136,35.6188022 Z M131,44.2790562 C129.220944,43.2519176 127.046258,43.2091202 125.234232,44.1506639 L125,44.2790562 L56.9955358,83.5414519 C55.2133856,84.5703768 54.0881638,86.4370041 54.0009975,88.4812024 L53.9955358,88.7376043 L53.9955358,167.262396 C53.9955358,169.320245 55.0494716,171.22803 56.7762161,172.325617 L56.9955358,172.458548 L125,211.720944 C126.779056,212.748082 128.953742,212.79088 130.765768,211.849336 L131,211.720944 L199.004464,172.458548 C200.786614,171.429623 201.911836,169.562996 201.999002,167.518798 L202.004464,167.262396 L202.004464,88.7376043 C202.004464,86.6797545 200.950528,84.7719702 199.223784,83.6743828 L199.004464,83.5414519 L131,44.2790562 Z" id="path-3"></path>
        <filter x="-1.2%" y="-1.1%" width="102.4%" height="102.1%" filterUnits="objectBoundingBox" id="filter-4">
            <feGaussianBlur stdDeviation="1.5" in="SourceAlpha" result="shadowBlurInner1"></feGaussianBlur>
            <feOffset dx="0" dy="1" in="shadowBlurInner1" result="shadowOffsetInner1"></feOffset>
            <feComposite in="shadowOffsetInner1" in2="SourceAlpha" operator="arithmetic" k2="-1" k3="1" result="shadowInnerInner1"></feComposite>
            <feColorMatrix values="0 0 0 0 1   0 0 0 0 1   0 0 0 0 1  0 0 0 0.6 0" type="matrix" in="shadowInnerInner1"></feColorMatrix>
        </filter>
        <linearGradient x1="50%" y1="0%" x2="50%" y2="100%" id="linearGradient-5">
            <stop stop-color="#FFFFFF" offset="0%"></stop>
            <stop stop-color="#FFFFFF" stop-opacity="0.7" offset="100%"></stop>
        </linearGradient>
        <path d="M128,79.9906669 C133.522847,79.9906669 138,84.4678194 138,89.9906669 C138,93.7126039 135.966642,96.9596247 132.950186,98.68147 L145.943315,133.878667 L166.157313,117.899219 C165.783581,117.082166 165.562448,116.180712 165.530374,115.231317 L165.526315,114.990667 C165.526315,111.124674 168.660322,107.990667 172.526315,107.990667 C176.392308,107.990667 179.526315,111.124674 179.526315,114.990667 C179.526315,118.566848 176.844574,121.516676 173.382398,121.938843 L168.555569,148.000806 L168.524315,148.000667 L167.066621,156.018982 C166.719064,157.930564 165.467387,159.555517 163.70782,160.379451 C152.837222,165.469709 140.934615,168.014838 128,168.014838 C115.066737,168.014838 103.180108,165.470241 92.340112,160.381048 C90.5833002,159.556249 89.3339438,157.932625 88.986764,156.023137 L87.528315,148.000667 L87.5236879,148.000806 L82.6982396,121.942201 C79.2225295,121.53257 76.526315,118.576486 76.526315,114.990667 C76.526315,111.124674 79.6603217,107.990667 83.526315,107.990667 C87.3923082,107.990667 90.526315,111.124674 90.526315,114.990667 C90.526315,116.022218 90.3031843,117.001654 89.9025546,117.883344 L110.020315,133.786667 L122.910544,98.600476 C120.046032,96.9035431 118.101329,93.8177728 118.003842,90.2705717 L118,89.9906669 C118,84.4678194 122.477153,79.9906669 128,79.9906669 Z" id="path-6"></path>
        <filter x="-24.3%" y="-15.9%" width="148.5%" height="156.8%" filterUnits="objectBoundingBox" id="filter-7">
            <feOffset dx="0" dy="11" in="SourceAlpha" result="shadowOffsetOuter1"></feOffset>
            <feGaussianBlur stdDeviation="6.5" in="shadowOffsetOuter1" result="shadowBlurOuter1"></feGaussianBlur>
            <feColorMatrix values="0 0 0 0 0   0 0 0 0 0   0 0 0 0 0  0 0 0 0.15 0" type="matrix" in="shadowBlurOuter1"></feColorMatrix>
        </filter>
    </defs>
    <g id="专家用户" stroke="none" stroke-width="1" fill="none" fill-rule="evenodd">
        <path d="M139,30.350853 L207.066642,69.649147 C213.873466,73.5790685 218.066642,80.8418629 218.066642,88.7017059 L218.066642,167.298294 C218.066642,175.158137 213.873466,182.420931 207.066642,186.350853 L139,225.649147 C132.193176,229.579069 123.806824,229.579069 117,225.649147 L48.933358,186.350853 C42.1265343,182.420931 37.933358,175.158137 37.933358,167.298294 L37.933358,88.7017059 C37.933358,80.8418629 42.1265343,73.5790685 48.933358,69.649147 L117,30.350853 C123.806824,26.4209315 132.193176,26.4209315 139,30.350853 Z" id="多边形备份" fill="url(#linearGradient-1)"></path>
        <g id="多边形备份-2" fill-rule="nonzero">
            <use fill="url(#linearGradient-2)" xlink:href="#path-3"></use>
            <use fill="black" fill-opacity="1" filter="url(#filter-4)" xlink:href="#path-3"></use>
        </g>
        <g id="形状结合">
            <use fill="black" fill-opacity="1" filter="url(#filter-7)" xlink:href="#path-6"></use>
            <use fill="url(#linearGradient-5)" fill-rule="evenodd" xlink:href="#path-6"></use>
        </g>
    </g>
</svg>