<?xml version="1.0" encoding="UTF-8"?>
<svg width="88px" height="17px" viewBox="0 0 88 17" version="1.1" xmlns="http://www.w3.org/2000/svg" xmlns:xlink="http://www.w3.org/1999/xlink">
    <title>星星_无</title>
    <g id="页面-1" stroke="none" stroke-width="1" fill="none" fill-rule="evenodd" opacity="0.902544">
        <g id="机构主页B端管理列表" transform="translate(-1006.000000, -935.000000)" fill="#EFEFEF" fill-rule="nonzero" stroke="#EFEFEF" stroke-width="0.8">
            <g id="编组-38备份" transform="translate(1006.000000, 933.500000)">
                <g id="星星_无" transform="translate(0.000000, 2.000000)">
                    <path d="M61.9143608,1.25382647 L64.0934022,5.13068123 L68.2141576,5.72946204 C68.2870302,5.74005106 68.348712,5.77917509 68.3895283,5.83387003 C68.4105208,5.86200049 68.425994,5.89424978 68.4346316,5.92885416 L68.4346316,5.92885416 L65.3757812,9.1042755 L66.0796902,13.2083803 C66.0921384,13.2809584 66.0739899,13.3517113 66.0345849,13.4074316 C66.0143182,13.4360894 65.9884288,13.4607708 65.9581873,13.479679 L65.9581873,13.479679 L61.9929453,11.5517986 L58.3072296,13.489494 C58.2420504,13.5237608 58.1691522,13.5283644 58.1039822,13.5081065 C58.0704643,13.4976875 58.0389906,13.4806922 58.0116627,13.4577737 L58.0116627,13.4577737 L58.6198588,9.09085673 L55.6380522,6.18431361 C55.585321,6.13291345 55.558416,6.06500582 55.5575437,5.99676544 C55.5570951,5.96166835 55.5635328,5.92648324 55.5768847,5.89341063 L55.5768847,5.89341063 L59.9180125,5.12238797 L61.7608704,1.38835012 C61.79346,1.3223163 61.8497299,1.27574345 61.9143608,1.25382647 L61.9143608,1.25382647 Z" id="Star--3"></path>
                    <path d="M43.9143608,1.25382647 L46.0934022,5.13068123 L50.2141576,5.72946204 C50.2870302,5.74005106 50.348712,5.77917509 50.3895283,5.83387003 C50.4105208,5.86200049 50.425994,5.89424978 50.4346316,5.92885416 L50.4346316,5.92885416 L47.3757812,9.1042755 L48.0796902,13.2083803 C48.0921384,13.2809584 48.0739899,13.3517113 48.0345849,13.4074316 C48.0143182,13.4360894 47.9884288,13.4607708 47.9581873,13.479679 L47.9581873,13.479679 L43.9929453,11.5517986 L40.3072296,13.489494 C40.2420504,13.5237608 40.1691522,13.5283644 40.1039822,13.5081065 C40.0704643,13.4976875 40.0389906,13.4806922 40.0116627,13.4577737 L40.0116627,13.4577737 L40.6198588,9.09085673 L37.6380522,6.18431361 C37.585321,6.13291345 37.558416,6.06500582 37.5575437,5.99676544 C37.5570951,5.96166835 37.5635328,5.92648324 37.5768847,5.89341063 L37.5768847,5.89341063 L41.9180125,5.12238797 L43.7608704,1.38835012 C43.79346,1.3223163 43.8497299,1.27574345 43.9143608,1.25382647 L43.9143608,1.25382647 Z" id="Star--6"></path>
                    <path d="M79.9143608,1.25382647 L82.0934022,5.13068123 L86.2141576,5.72946204 C86.2870302,5.74005106 86.348712,5.77917509 86.3895283,5.83387003 C86.4105208,5.86200049 86.425994,5.89424978 86.4346316,5.92885416 L86.4346316,5.92885416 L83.3757812,9.1042755 L84.0796902,13.2083803 C84.0921384,13.2809584 84.0739899,13.3517113 84.0345849,13.4074316 C84.0143182,13.4360894 83.9884288,13.4607708 83.9581873,13.479679 L83.9581873,13.479679 L79.9929453,11.5517986 L76.3072296,13.489494 C76.2420504,13.5237608 76.1691522,13.5283644 76.1039822,13.5081065 C76.0704643,13.4976875 76.0389906,13.4806922 76.0116627,13.4577737 L76.0116627,13.4577737 L76.6198588,9.09085673 L73.6380522,6.18431361 C73.585321,6.13291345 73.558416,6.06500582 73.5575437,5.99676544 C73.5570951,5.96166835 73.5635328,5.92648324 73.5768847,5.89341063 L73.5768847,5.89341063 L77.9180125,5.12238797 L79.7608704,1.38835012 C79.79346,1.3223163 79.8497299,1.27574345 79.9143608,1.25382647 L79.9143608,1.25382647 Z" id="Star--3"></path>
                    <path d="M7.91436081,1.25382647 L10.0934022,5.13068123 L14.2141576,5.72946204 C14.2870302,5.74005106 14.348712,5.77917509 14.3895283,5.83387003 C14.4105208,5.86200049 14.425994,5.89424978 14.4346316,5.92885416 L14.4346316,5.92885416 L11.3757812,9.1042755 L12.0796902,13.2083803 C12.0921384,13.2809584 12.0739899,13.3517113 12.0345849,13.4074316 C12.0143182,13.4360894 11.9884288,13.4607708 11.9581873,13.479679 L11.9581873,13.479679 L7.99294533,11.5517986 L4.30722963,13.489494 C4.24205035,13.5237608 4.16915224,13.5283644 4.10398225,13.5081065 C4.0704643,13.4976875 4.03899061,13.4806922 4.01166267,13.4577737 L4.01166267,13.4577737 L4.61985882,9.09085673 L1.63805218,6.18431361 C1.58532104,6.13291345 1.55841598,6.06500582 1.55754374,5.99676544 C1.55709514,5.96166835 1.56353276,5.92648324 1.57688472,5.89341063 L1.57688472,5.89341063 L5.91801253,5.12238797 L7.76087038,1.38835012 C7.79346002,1.3223163 7.84972989,1.27574345 7.91436081,1.25382647 L7.91436081,1.25382647 Z" id="Star--7"></path>
                    <path d="M25.9143608,1.25382647 L28.0934022,5.13068123 L32.2141576,5.72946204 C32.2870302,5.74005106 32.348712,5.77917509 32.3895283,5.83387003 C32.4105208,5.86200049 32.425994,5.89424978 32.4346316,5.92885416 L32.4346316,5.92885416 L29.3757812,9.1042755 L30.0796902,13.2083803 C30.0921384,13.2809584 30.0739899,13.3517113 30.0345849,13.4074316 C30.0143182,13.4360894 29.9884288,13.4607708 29.9581873,13.479679 L29.9581873,13.479679 L25.9929453,11.5517986 L22.3072296,13.489494 C22.2420504,13.5237608 22.1691522,13.5283644 22.1039822,13.5081065 C22.0704643,13.4976875 22.0389906,13.4806922 22.0116627,13.4577737 L22.0116627,13.4577737 L22.6198588,9.09085673 L19.6380522,6.18431361 C19.585321,6.13291345 19.558416,6.06500582 19.5575437,5.99676544 C19.5570951,5.96166835 19.5635328,5.92648324 19.5768847,5.89341063 L19.5768847,5.89341063 L23.9180125,5.12238797 L25.7608704,1.38835012 C25.79346,1.3223163 25.8497299,1.27574345 25.9143608,1.25382647 L25.9143608,1.25382647 Z" id="star"></path>
                </g>
            </g>
        </g>
    </g>
</svg>