<?xml version="1.0" encoding="UTF-8"?>
<svg width="14px" height="17px" viewBox="0 0 14 17" version="1.1" xmlns="http://www.w3.org/2000/svg" xmlns:xlink="http://www.w3.org/1999/xlink">
    <!-- Generator: Sketch 56.2 (81672) - https://sketch.com -->
    <title>编组</title>
    <desc>Created with Sketch.</desc>
    <g id="基础模块" stroke="none" stroke-width="1" fill="none" fill-rule="evenodd">
        <g id="开放社区_开发者专区_全部备份" transform="translate(-1496.000000, -1477.000000)" fill="#07C160">
            <g id="编组" transform="translate(1496.000000, 1477.000000)">
                <rect id="Combined-Shape" stroke="#07C160" stroke-width="1.2" fill-opacity="0" x="0.6" y="0.6" width="12.8" height="15.8" rx="0.875"></rect>
                <rect id="矩形" x="3" y="9.5" width="8" height="1.2"></rect>
                <rect id="矩形备份" x="3" y="12.5" width="8" height="1.2"></rect>
                <path d="M7,6.62740221 L5.78061832,7.42632616 C5.69746526,7.48080703 5.58589091,7.45756363 5.53141004,7.37441056 C5.50317419,7.33131476 5.49475914,7.27818531 5.50829535,7.22847333 L5.90508739,5.7712475 L4.80523296,4.96836596 C4.72493935,4.90975252 4.70736411,4.79714612 4.76597755,4.71685252 C4.7949012,4.67723047 4.83874329,4.65112982 4.88736118,4.64458882 L6.26458072,4.45929895 L6.83332998,3.10772985 C6.87188807,3.01610086 6.97742554,2.9730784 7.06905453,3.01163649 C7.11259878,3.0299602 7.14719376,3.06466839 7.16537511,3.10827227 L7.74747186,4.50430078 L9.16463331,4.6522736 C9.26350704,4.6625975 9.33529086,4.75111966 9.32496697,4.8499934 C9.31938697,4.90343401 9.2902247,4.95158761 9.24545117,4.98129225 L8.05475874,5.7712475 L8.47882454,7.21729488 C8.50679961,7.31268876 8.45214587,7.41269906 8.35675199,7.44067413 C8.30614168,7.45551604 8.25156835,7.44741447 8.20745229,7.41851017 L7,6.62740221 Z" id="图标颜色"></path>
            </g>
        </g>
    </g>
</svg>