<?xml version="1.0" encoding="UTF-8"?>
<svg width="17px" height="17px" viewBox="0 0 17 17" version="1.1" xmlns="http://www.w3.org/2000/svg" xmlns:xlink="http://www.w3.org/1999/xlink">
    <!-- Generator: Sketch 57.1 (83088) - https://sketch.com -->
    <title>3.Icons/Outlined/search</title>
    <desc>Created with Sketch.</desc>
    <g id="搜索优化-200324" stroke="none" stroke-width="1" fill="none" fill-rule="evenodd" fill-opacity="0.5">
        <g id="社区---H5---搜索入口" transform="translate(-242.000000, -108.000000)" fill="#000000">
            <g id="Group-2" transform="translate(0.000000, 88.000000)">
                <g id="3.Icons/Outlined/search" transform="translate(238.000000, 16.000000)">
                    <g id="Icons/Tint-Color/Black" transform="translate(4.000000, 4.000000)">
                        <path d="M7,14 C3.134,14 0,10.866 0,7 C0,3.134 3.134,0 7,0 C10.866,0 14,3.134 14,7 C14,8.74224342 13.363508,10.3358231 12.3103676,11.5608954 L16.4242641,15.6757359 L15.5757359,16.5242641 L11.4526528,12.4015425 C10.2426406,13.4001328 8.691375,14 7,14 Z M6.99999714,1.20001221 C3.79673989,1.20001221 1.19999695,3.79675515 1.19999695,7.0000124 C1.19999695,10.2032696 3.79673989,12.8000126 6.99999714,12.8000126 C10.2032544,12.8000126 12.7999973,10.2032696 12.7999973,7.0000124 C12.7999973,3.79675515 10.2032544,1.20001221 6.99999714,1.20001221 Z" id="图标颜色"></path>
                    </g>
                </g>
            </g>
        </g>
    </g>
</svg>