<svg width="99" height="24" xmlns="http://www.w3.org/2000/svg" xmlns:xlink="http://www.w3.org/1999/xlink"><defs><path d="M.371.578a.377.377 0 00.052.577 4.839 4.839 0 011.424 2.587 1.675 1.675 0 00.053.319c.069.254.203.496.401.697a1.55 1.55 0 002.207 0 1.586 1.586 0 000-2.227 1.544 1.544 0 00-.752-.42.98.98 0 00-.094-.02l-.094-.013a4.764 4.764 0 01-2.67-1.5.368.368 0 00-.527 0z" id="a"/><path d="M2.066 1.206a1.577 1.577 0 00-.448.949A4.858 4.858 0 01.132 4.85a.38.38 0 000 .533.37.37 0 00.498.026l.03-.026a.387.387 0 00.043-.052 4.774 4.774 0 012.562-1.44 1.523 1.523 0 00.317-.053c.253-.069.491-.203.69-.405.61-.615.61-1.612 0-2.227a1.549 1.549 0 00-2.206 0z" id="b"/><path d="M.764.65a1.586 1.586 0 000 2.228 1.558 1.558 0 00.845.44l.094.012a4.778 4.778 0 012.67 1.501.371.371 0 00.528 0 .38.38 0 000-.533c-.017-.017-.034-.03-.052-.044L4.74 4.15a4.858 4.858 0 01-1.316-2.482 1.246 1.246 0 00-.017-.152A1.575 1.575 0 002.97.65a1.55 1.55 0 00-2.207 0z" id="c"/><path d="M4.641.778c-.01.009-.02.017-.028.027a.47.47 0 00-.045.053 4.777 4.777 0 01-2.562 1.44 1.547 1.547 0 00-1.008.458 1.585 1.585 0 000 2.225 1.55 1.55 0 002.207 0 1.57 1.57 0 00.417-.759c.008-.03.013-.062.018-.093.006-.032.01-.064.014-.096A4.856 4.856 0 015.14 1.338a.379.379 0 000-.533.374.374 0 00-.499-.027z" id="d"/></defs><g fill="none" fill-rule="evenodd"><path d="M30.629 9.22c2.815-1.42 5.354-3.396 7.353-5.721h1.117c2.093 2.393 4.622 4.354 7.326 5.677l-.806 1.473c-2.715-1.442-5.056-3.327-6.96-5.603l-.12-.142-.117.143c-1.776 2.15-4.14 4.04-7.027 5.617l-.766-1.444zm.702 9.48v-1.42h2.565v-6.638h1.411v6.639h3.027V8.13h1.449v3.806h4.5v1.42h-4.5v3.924h5.76v1.42H31.331zM48.957 7.362a62.675 62.675 0 012.157 7.5l1.336-.328A60.1 60.1 0 0050.2 6.94l-1.243.423zm10.68 7.09l1.267.449c.915-2.066 1.681-4.515 2.34-7.477l-1.29-.369c-.804 3.414-1.503 5.649-2.318 7.397zM48.553 18.7h15.108v-1.464h-5.19V3.603H56.97v13.633h-1.953V3.603h-1.5v13.633h-4.963V18.7zM69.964 8.524h5.271V4.448h-.978V7.41h-1.112V3.506L72.024 3.5l.039 3.911h-1.134V4.448h-.965v4.076zm-4.625-.62l.646 1.218a12.944 12.944 0 003.35-4.884l-1.14-.617c-.62 1.554-1.722 3.206-2.856 4.284zM78.5 13.168l-.16-.52c-.322-1.035-.645-2.471-.912-4.047l-.006-.034.01-.033c.052-.196.078-.337.104-.486.025-.142.052-.291.103-.495l.029-.117h1.617l-.006.161c-.075 2.013-.285 3.662-.642 5.044l-.137.527zm-9.244 4.964l.92.961c.947-1.056 1.442-2.547 1.473-4.435v-.937h1.655v2.716a1.007 1.007 0 01-.35.606l.584 1.105 2.617-2.18-.34-1.05-1.252 1.067v-3.431h-4.26v2.107c-.019 1.65-.333 2.7-1.047 3.471zm-1.986 1.195h1.189l.027-8.861a14.75 14.75 0 00.767-1.6l-1.105-.599c-.524 1.406-1.52 2.898-2.822 4.232l.597 1.126c.238-.237.482-.517.72-.788a25.1 25.1 0 01.358-.407l.27-.297v7.194zm2.584-8.179h5.21V9.962h-5.21v1.185zm8.655 4.9l.13.272c.575 1.198 1.242 2.257 1.81 2.884l.852-1.26c-.707-.665-1.502-1.851-2.148-3.214l-.028-.06.023-.062c.777-2.067 1.16-4.233 1.245-7.021l.005-.151h.744V6.202h-3.208l.03-.18c.086-.525.164-1.154.24-1.763l.069-.545-1.244-.224c-.316 3.008-.877 5.496-1.667 7.399l-.188.452.765 1.012c.189-.362.385-.781.622-1.325l.193-.445.1.475c.269 1.276.598 2.47.977 3.55l.02.057-.024.058c-.554 1.265-1.384 2.429-2.347 3.294l.765 1.036a11.398 11.398 0 002.119-2.742l.145-.264zm10.538-6.453h8.55v-1.25h-8.55v1.25zm.027 2.606h8.548l-.002-1.254h-8.536l-.01 1.254zm1.364 5.58h5.95v-2.885h-5.95v2.884zm-1.352 1.217h8.628v-5.371h-8.628v5.371zM87.834 7.046H98.89V5.73h-4.882l-.765-2.04-1.347.367.672 1.673h-4.734v1.316zm-2.794 12.28h1.38l.018-11.756c.541-1.032.987-2.167 1.4-3.564l-1.353-.636c-.83 2.912-1.971 5.114-3.483 6.72l.56 1.552c.098-.111.199-.224.301-.336.309-.342.628-.696.898-1.059l.279-.375v9.454z" fill="#0082EF"/><use fill="#FB6500" xlink:href="#a" transform="translate(17.815 18.284)"/><use fill="#0082EF" xlink:href="#b" transform="translate(22.463 15.166)"/><use fill="#2DBC00" xlink:href="#c" transform="translate(19.364 11.268)"/><use fill="#FC0" xlink:href="#d" transform="translate(14.717 13.607)"/><path d="M11.337.81c-.455 0-.927.026-1.4.079-2.776.304-5.298 1.503-7.102 3.373a9.558 9.558 0 00-1.72 2.448 8.604 8.604 0 00-.882 3.792c0 1.692.51 3.362 1.475 4.827a13.438 13.438 0 002.032 2.344l.04.035v.053l-.349 2.725c-.01.028-.02.056-.027.084-.006.026-.008.053-.01.08l-.006.05a.186.186 0 00-.004.034c0 .014.003.027.004.04l.005.037a.746.746 0 00.739.678.732.732 0 00.369-.102l.06-.036 3.256-1.65.044.013c.648.187 1.327.32 2.075.403a12.57 12.57 0 005.387-.572 1.696 1.696 0 01-.868-1.473c-.61.186-1.238.316-1.868.389-.843.094-1.644.094-2.447.007l-.155-.02-.091-.014a10.498 10.498 0 01-1.605-.34.974.974 0 00-.768.08.666.666 0 00-.061.033l-2.055 1.222c-.211.122-.398-.01-.398-.202L5.317 18l.161-.617a.722.722 0 00-.254-.805 9.173 9.173 0 01-.835-.707 8.255 8.255 0 01-1.183-1.413c-.787-1.196-1.203-2.552-1.203-3.923 0-1.065.24-2.1.716-3.077a7.884 7.884 0 011.418-2.016c1.519-1.573 3.65-2.582 6.004-2.84.844-.092 1.62-.089 2.446.006 2.343.269 4.463 1.283 5.968 2.855a7.866 7.866 0 011.412 2.02 6.972 6.972 0 01.702 3.175 1.657 1.657 0 011.762.242 8.604 8.604 0 00-.857-4.159 9.55 9.55 0 00-1.713-2.454c-1.79-1.869-4.298-3.073-7.062-3.39A12.867 12.867 0 0011.337.81" fill="#0082F0"/></g></svg>