<?xml version="1.0" encoding="UTF-8"?>
<svg width="50px" height="36px" viewBox="0 0 50 36" version="1.1" xmlns="http://www.w3.org/2000/svg" xmlns:xlink="http://www.w3.org/1999/xlink">
    <!-- Generator: Sketch 54.1 (76490) - https://sketchapp.com -->
    <title>Fill 36</title>
    <desc>Created with Sketch.</desc>
    <g id="smybol" stroke="none" stroke-width="1" fill="none" fill-rule="evenodd">
        <g id="Element/Toast/Done" transform="translate(-35.000000, -30.000000)" fill="#FFFFFF">
            <path d="M35.2499095,49.0613976 L37.3880795,46.1520308 C37.5516105,45.9295173 37.8645613,45.8817026 38.0870747,46.0452335 C38.0897819,46.0472231 38.092469,46.0492399 38.0951355,46.0512837 L50.6222026,55.6525622 C50.8076695,55.7947119 51.0668601,55.7894434 51.2463973,55.6398744 L81.6749955,30.290391 C81.8727427,30.1256516 82.1632454,30.1379426 82.3463707,30.3187966 L84.3529275,32.3004654 C84.5494043,32.4945053 84.5513798,32.8110816 84.35734,33.0075584 C84.3556736,33.0092457 84.3539952,33.0109212 84.352305,33.0125846 L51.2980348,65.5429239 C51.101219,65.73662 50.7846466,65.734091 50.5909505,65.5372752 C50.5898768,65.5361842 50.588808,65.5350882 50.5877443,65.5339873 L35.2932331,49.7049265 C35.1238737,49.5296479 35.1055721,49.2577948 35.2499095,49.0613976 Z" id="Fill-36"></path>
        </g>
    </g>
</svg>