<?xml version="1.0" encoding="UTF-8"?>
<svg width="18px" height="15px" viewBox="0 0 18 15" version="1.1" xmlns="http://www.w3.org/2000/svg" xmlns:xlink="http://www.w3.org/1999/xlink">
    <!-- Generator: Sketch 56.2 (81672) - https://sketch.com -->
    <title>Icons/report</title>
    <desc>Created with Sketch.</desc>
    <g id="投诉" stroke="none" stroke-width="1" fill="none" fill-rule="evenodd">
        <g id="0-投诉入口_文章" transform="translate(-1123.000000, -3058.000000)">
            <g id="编组-5" transform="translate(1123.000000, 3057.000000)">
                <g id="Icons/report">
                    <rect id="Bound" x="0" y="0" width="18" height="18"></rect>
                    <path d="M8.46917318,6.995085 L9.51490885,6.995085 L9.43352865,10.9298181 L8.55055339,10.9298181 L8.46917318,6.995085 Z M8.99000651,12.9480472 C8.66041667,12.9480472 8.4,12.6916996 8.4,12.3702478 C8.4,12.0487959 8.66041667,11.7965173 8.99000651,11.7965173 C9.32366536,11.7965173 9.58408203,12.0487959 9.58408203,12.3702478 C9.58408203,12.6916996 9.32366536,12.9480472 8.99000651,12.9480472 Z" id="图标颜色" fill="#000000"></path>
                    <path d="M8.63894913,2.10803651 L1.34121502,14.9018105 C1.23175799,15.0937014 1.29858382,15.3379921 1.49047469,15.4474492 C1.55084999,15.481888 1.61915728,15.5 1.68866419,15.5 L16.3101202,15.5 C16.5310341,15.5 16.7101202,15.3209139 16.7101202,15.1 C16.7101202,15.0302854 16.6918999,14.9617814 16.6572655,14.9012787 L9.33354357,2.10750471 C9.22379282,1.91578166 8.97940003,1.84932999 8.78767699,1.95908073 C8.72569154,1.99456395 8.67433738,2.0459968 8.63894913,2.10803651 Z" id="路径-3" stroke="#000000"></path>
                </g>
            </g>
        </g>
    </g>
</svg>