<?xml version="1.0" encoding="UTF-8"?>
<svg width="16px" height="16px" viewBox="0 0 16 16" version="1.1" xmlns="http://www.w3.org/2000/svg" xmlns:xlink="http://www.w3.org/1999/xlink">
    <!-- Generator: Sketch 53.2 (72643) - https://sketchapp.com -->
    <title>start_green</title>
    <desc>Created with Sketch.</desc>
    <g id="start_green" stroke="none" stroke-width="1" fill="none" fill-rule="evenodd">
        <path d="M7.9999512,12.5850438 L4.488073,14.3777597 C4.12062826,14.56533 3.66615445,14.4281585 3.47297732,14.0713786 C3.39605318,13.929307 3.36950856,13.7665752 3.39745289,13.6083762 L4.06816195,9.811343 L1.2269928,7.12226917 C0.929723768,6.84091374 0.923641108,6.37884034 1.2134068,6.09019935 C1.32879302,5.97526099 1.47998364,5.90046142 1.64357261,5.87738049 L5.5699718,5.32340081 L7.3259109,1.86874591 C7.50963327,1.5072884 7.96034779,1.35888282 8.33260997,1.53727276 C8.48084672,1.60830857 8.60083228,1.72481163 8.67399149,1.86874591 L10.4299306,5.32340081 L14.3563298,5.87738049 C14.7671455,5.93534289 15.051785,6.3056966 14.99209,6.70458864 C14.9683192,6.86342955 14.8912837,7.01023197 14.7729096,7.12226917 L11.9317404,9.811343 L12.6024495,13.6083762 C12.6726252,14.0056564 12.3978276,14.3829532 11.9886719,14.4510921 C11.8257439,14.4782253 11.6581478,14.4524512 11.5118294,14.3777597 L7.9999512,12.5850438 Z" id="图标颜色" fill="#576a95"></path>
    </g>
</svg>