<?xml version="1.0" encoding="UTF-8"?>
<svg width="29px" height="29px" viewBox="0 0 29 29" version="1.1" xmlns="http://www.w3.org/2000/svg" xmlns:xlink="http://www.w3.org/1999/xlink">
    <!-- Generator: Sketch 55.2 (78181) - https://sketchapp.com -->
    <title>Icon/Bug</title>
    <desc>Created with Sketch.</desc>
    <g id="marcusfei-视觉" stroke="none" stroke-width="1" fill="none" fill-rule="evenodd" opacity="0.900000036">
        <g id="选择问题类型" transform="translate(-1378.000000, -481.000000)">
            <g id="Element-/-Question-Bar" transform="translate(1254.000000, 354.000000)">
                <g id="Icon/Bug" transform="translate(112.000000, 116.000000)">
                    <rect id="矩形" x="0" y="0" width="52" height="52"></rect>
                    <g id="编组" transform="translate(13.000000, 11.000000)" stroke="#FA5151" stroke-width="1.6">
                        <rect id="矩形" x="6.3" y="0.8" width="13.4" height="26.4" rx="6.7"></rect>
                        <path d="M19.5,14.5 L27,14.5" id="路径-4"></path>
                        <path d="M0,14.5 L6.5,14.5" id="路径-4备份"></path>
                        <path d="M26.5,0 L26.5,5.25 C26.5,7.32106781 24.8210678,9 22.75,9 L19.5,9" id="路径-5"></path>
                        <path d="M6.5,0 L6.5,5.25 C6.5,7.32106781 4.82106781,9 2.75,9 L0.5,9" id="路径-5备份" transform="translate(3.500000, 4.500000) scale(-1, 1) translate(-3.500000, -4.500000) "></path>
                        <path d="M6.5,20 L6.5,25.25 C6.5,27.3210678 4.82106781,29 2.75,29 L0.5,29" id="路径-5备份-2" transform="translate(3.500000, 24.500000) scale(-1, -1) translate(-3.500000, -24.500000) "></path>
                        <path d="M25.5,20 L25.5,25.25 C25.5,27.3210678 23.8210678,29 21.75,29 L19.5,29" id="路径-5备份-3" transform="translate(22.500000, 24.500000) scale(1, -1) translate(-22.500000, -24.500000) "></path>
                    </g>
                </g>
            </g>
        </g>
    </g>
</svg>