<?xml version="1.0" encoding="UTF-8"?>
<svg width="24px" height="24px" viewBox="0 0 24 24" version="1.1" xmlns="http://www.w3.org/2000/svg" xmlns:xlink="http://www.w3.org/1999/xlink">
    <!-- Generator: Sketch 55.2 (78181) - https://sketchapp.com -->
    <title>filter_icon</title>
    <desc>Created with Sketch.</desc>
    <g id="filter_icon" stroke="none" stroke-width="1" fill="none" fill-rule="evenodd">
        <path d="M14.3333592,12.9406116 L14.3333592,22.3185287 L9.73783636,18.8718865 L9.73783636,12.9406573 L4.10761843,7.20317643 C3.74067925,6.82924658 3.53511263,6.32626623 3.53511263,5.8023694 L3.53511263,4.2 C3.53511263,3.5372583 4.07237093,3 4.73511263,3 L19.3351126,3 C19.9978543,3 20.5351126,3.5372583 20.5351126,4.2 L20.5351126,5.80241504 C20.5351126,6.32625772 20.3295884,6.82919053 19.9627164,7.20311041 L14.3333592,12.9406116 Z M19.2489145,6.50276273 C19.4323505,6.31580278 19.5351126,6.06433638 19.5351126,5.80241504 L19.5351126,4.2 C19.5351126,4.08954305 19.4455696,4 19.3351126,4 L4.73511263,4 C4.62465568,4 4.53511263,4.08954305 4.53511263,4.2 L4.53511263,5.8023694 C4.53511263,6.06431782 4.63789594,6.31580799 4.82136553,6.50277292 L10.7378364,12.5319601 L10.7378364,18.3718865 L13.3333592,20.3185287 L13.3333592,12.5319601 L19.2489145,6.50276273 Z" id="形状结合" fill="#000000" fill-rule="nonzero"></path>
    </g>
</svg>