<?xml version="1.0" encoding="UTF-8"?>
<svg width="16px" height="16px" viewBox="0 0 16 16" version="1.1" xmlns="http://www.w3.org/2000/svg" xmlns:xlink="http://www.w3.org/1999/xlink">
    <!-- Generator: Sketch 53.2 (72643) - https://sketchapp.com -->
    <title>start</title>
    <desc>Created with Sketch.</desc>
    <g id="start" stroke="none" stroke-width="1" fill="none" fill-rule="evenodd" fill-opacity="0">
        <path d="M4.26074312,13.9324271 L7.9999512,12.0236656 L11.7391593,13.9324271 C11.7899698,13.9583644 11.8490741,13.9674539 11.9065354,13.9578846 C12.0444662,13.9349143 12.1313235,13.8156592 12.110072,13.6953499 L11.3925395,9.63323872 L14.4292098,6.7591295 C14.4667412,6.72360722 14.4904322,6.67846049 14.4975966,6.63058669 C14.5156986,6.5096262 14.4253501,6.39207077 14.2864761,6.37247691 L10.102205,5.78211382 L8.22826426,2.09530106 C8.20515732,2.04984021 8.16611821,2.01193418 8.11653577,1.98817402 C7.9874588,1.92631967 7.83141229,1.97770069 7.77163813,2.09530106 L5.89769736,5.78211382 L1.71342627,6.37247691 C1.65651457,6.38050664 1.60473896,6.40612194 1.56627205,6.44443954 C1.47629521,6.53406715 1.47810432,6.67149768 1.57069264,6.7591295 L4.60736287,9.63323872 L3.88983037,13.6953499 C3.8815567,13.7421889 3.88941715,13.7903774 3.91266389,13.833312 C3.97574183,13.949811 4.13344442,13.9974095 4.26074312,13.9324271 Z" id="图标颜色" stroke="#000000" fill="#FFFFFF"></path>
    </g>
</svg>