<?xml version="1.0" encoding="UTF-8"?>
<svg width="34px" height="34px" viewBox="0 0 34 34" version="1.1" xmlns="http://www.w3.org/2000/svg" xmlns:xlink="http://www.w3.org/1999/xlink">
    <title>1.图标和品牌 Icons&amp;Logos/3.品牌/开放社区</title>
    <g id="拆分" stroke="none" stroke-width="1" fill="none" fill-rule="evenodd">
        <g id="文档搜索页" transform="translate(-517.000000, -1135.000000)">
            <g id="编组" transform="translate(514.000000, 1132.000000)">
                <g id="logo备份" transform="translate(3.333333, 3.333333)">
                    <path d="M7.04372981,32.6387225 L1.39820852,32.6387225 C0.788370044,32.6387225 0.293950073,32.1444493 0.293950073,31.534464 L0.293950073,25.8889427 C0.293950073,25.2792511 0.788370044,24.7848311 1.39820852,24.7848311 L7.04372981,24.7848311 C7.65356828,24.7848311 8.14798825,25.2792511 8.14798825,25.8889427 L8.14798825,31.534464 C8.14798825,32.1444493 7.65356828,32.6387225 7.04372981,32.6387225" id="Fill-1" fill="#FC8838"></path>
                    <path d="M1.39701909,0.77948605 L7.04488987,0.77948605 C7.65399413,0.77948605 8.14797357,1.27331865 8.14797357,1.88256975 L8.14797357,7.53044053 C8.14797357,8.13954479 7.65399413,8.63337739 7.04488987,8.63337739 L1.39701909,8.63337739 C0.787914831,8.63337739 0.293935389,8.13954479 0.293935389,7.53044053 L0.293935389,1.88256975 C0.293935389,1.27331865 0.787914831,0.77948605 1.39701909,0.77948605" id="Fill-3" fill="#34ABFD"></path>
                    <path d="M16.8663583,24.4786197 L20.3187812,27.9310426 C20.7499119,28.3621733 20.7499119,29.0614391 20.3187812,29.4927166 L16.8663583,32.9449927 C16.4350808,33.3762702 15.7359618,33.3762702 15.3048311,32.9449927 L11.8524082,29.4927166 C11.4211307,29.0614391 11.4211307,28.3621733 11.8524082,27.9310426 L15.3048311,24.4786197 C15.7359618,24.0473421 16.4350808,24.0473421 16.8663583,24.4786197" id="Fill-5" fill="#34ABFD"></path>
                    <path d="M29.4631571,12.5236123 L32.9185169,15.9789721 C33.3497944,16.4102496 33.3497944,17.1093686 32.9185169,17.5406461 L29.4631571,20.9960059 C29.0318796,21.4271366 28.3329075,21.4271366 27.90163,20.9960059 L24.4462702,17.5406461 C24.0149927,17.1093686 24.0149927,16.4102496 24.4462702,15.9789721 L27.90163,12.5236123 C28.3329075,12.0923348 29.0318796,12.0923348 29.4631571,12.5236123" id="Fill-7" fill="#8385F3"></path>
                    <path d="M16.8663583,0.470234949 L20.3217181,3.92559471 C20.7529956,4.35687225 20.7529956,5.05599119 20.3217181,5.48726872 L16.8663583,8.94262849 C16.4350808,9.37390602 15.7359618,9.37390602 15.3048311,8.94262849 L11.8493245,5.48726872 C11.4181938,5.05599119 11.4181938,4.35687225 11.8493245,3.92559471 L15.3048311,0.470234949 C15.7359618,0.0389574156 16.4350808,0.0389574156 16.8663583,0.470234949" id="Fill-9" fill="#FC8838"></path>
                    <path d="M25.8584728,0.77948605 L31.5063436,0.77948605 C32.1154479,0.77948605 32.6094273,1.27331865 32.6094273,1.88256975 L32.6094273,7.53044053 C32.6094273,8.13954479 32.1154479,8.63337739 31.5063436,8.63337739 L25.8584728,8.63337739 C25.2493686,8.63337739 24.7553891,8.13954479 24.7553891,7.53044053 L24.7553891,1.88256975 C24.7553891,1.27331865 25.2493686,0.77948605 25.8584728,0.77948605" id="Fill-11" fill="#00C362"></path>
                    <path d="M21.3304405,16.7598385 C21.3304405,19.1228341 18.9822761,21.0385463 16.0856535,21.0385463 C13.188884,21.0385463 10.8407195,19.1228341 10.8407195,16.7598385 C10.8407195,14.396696 13.188884,12.4811307 16.0856535,12.4811307 C18.9822761,12.4811307 21.3304405,14.396696 21.3304405,16.7598385" id="Fill-13" fill="#00C362"></path>
                    <path d="M28.2498385,25.2793686 L24.5291336,31.723862 C24.3369163,32.0567548 24.5771512,32.4730543 24.9615859,32.4730543 L32.4031424,32.4730543 C32.7875771,32.4730543 33.0279589,32.0567548 32.8355947,31.723862 L29.1150367,25.2793686 C28.9226725,24.9463289 28.4422026,24.9463289 28.2498385,25.2793686" id="Fill-15" fill="#00C362"></path>
                    <path d="M3.78837004,13.3273862 L0.0676651982,19.7717327 C-0.124552129,20.1049192 0.115682819,20.521072 0.500264317,20.521072 L7.94167401,20.521072 C8.32610866,20.521072 8.56649046,20.1049192 8.37412628,19.7717327 L4.65356828,13.3273862 C4.46135095,12.9943465 3.98058737,12.9943465 3.78837004,13.3273862" id="Fill-17" fill="#8385F3"></path>
                </g>
            </g>
        </g>
    </g>
</svg>