<?xml version="1.0" encoding="UTF-8"?>
<svg width="20px" height="20px" viewBox="0 0 20 20" version="1.1" xmlns="http://www.w3.org/2000/svg" xmlns:xlink="http://www.w3.org/1999/xlink">
    <title>画板</title>
    <g id="画板" stroke="none" stroke-width="1" fill="none" fill-rule="evenodd" opacity="0.5">
        <g id="1.图标icon/1.基础图标/Pic">
            <rect id="矩形" x="0" y="0" width="20" height="20"></rect>
            <path d="M18.3333333,15.4329748 L18.3316667,15.4323333 L18.3268797,15.5444719 C18.2628672,16.174792 17.730542,16.6666667 17.0833333,16.6666667 L2.91666667,16.6666667 C2.23170414,16.6666667 1.67541908,16.1157329 1.66676894,15.4328227 L1.66666667,15.4329748 L1.66666667,4.58333333 C1.66666667,3.8929774 2.22631073,3.33333333 2.91666667,3.33333333 L17.0833333,3.33333333 C17.7736893,3.33333333 18.3333333,3.8929774 18.3333333,4.58333333 L18.3333333,15.4329748 Z M7.4975,9.21 L2.91666667,12.885 L2.91666667,15.4166667 L17.0833333,15.4166667 L17.0833333,13.2366667 L14.5133333,10.8991667 L11.9257457,13.1010513 L7.4975,9.21 Z M17.0833333,4.58333333 L2.91666667,4.58333333 L2.91666667,11.2833333 L6.83270461,8.14135851 C7.21816587,7.82963048 7.83718801,7.84474896 8.20874618,8.17121271 L11.9391024,11.4488316 L13.8409188,9.83155769 C14.2260979,9.50400761 14.8389358,9.51066179 15.2128595,9.84621272 L17.0826667,11.5463333 L17.0833333,4.58333333 Z" id="形状结合" fill="#4C4D4E"></path>
        </g>
    </g>
</svg>