<?xml version="1.0" encoding="UTF-8"?>
<svg width="24px" height="24px" viewBox="0 0 24 24" version="1.1" xmlns="http://www.w3.org/2000/svg" xmlns:xlink="http://www.w3.org/1999/xlink">
    <title>1.图标icon/1.基础图标/Add</title>
    <g id="1.图标icon/1.基础图标/Add" stroke="none" stroke-width="1" fill="none" fill-rule="evenodd">
        <rect id="矩形" x="0" y="0" width="24" height="24"></rect>
        <path d="M12.25,3 C12.5261424,3 12.75,3.22385763 12.75,3.5 L12.75,11.25 L20.5,11.25 C20.7761424,11.25 21,11.4738576 21,11.75 L21,12.25 C21,12.5261424 20.7761424,12.75 20.5,12.75 L12.75,12.75 L12.75,20.5 C12.75,20.7761424 12.5261424,21 12.25,21 L11.75,21 C11.4738576,21 11.25,20.7761424 11.25,20.5 L11.25,12.75 L3.5,12.75 C3.22385763,12.75 3,12.5261424 3,12.25 L3,11.75 C3,11.4738576 3.22385763,11.25 3.5,11.25 L11.25,11.25 L11.25,3.5 C11.25,3.22385763 11.4738576,3 11.75,3 L12.25,3 Z" id="形状结合" fill="#4C4D4E"></path>
    </g>
</svg>