<?xml version="1.0" encoding="UTF-8"?>
<svg width="16px" height="16px" viewBox="0 0 16 16" version="1.1" xmlns="http://www.w3.org/2000/svg" xmlns:xlink="http://www.w3.org/1999/xlink">
    <!-- Generator: Sketch 54.1 (76490) - https://sketchapp.com -->
    <title>more</title>
    <desc>Created with Sketch.</desc>
    <g id="more" stroke="none" stroke-width="1" fill="none" fill-rule="evenodd" opacity="0.200000003">
        <g id="3.Icons/Outlined/more" fill="#000000">
            <g id="Icons/Tint-Color/Black" transform="translate(2.000000, 6.666667)">
                <path d="M2.5,1.33333333 C2.5,1.97756667 1.97756667,2.5 1.33333333,2.5 C0.6891,2.5 0.166666667,1.97756667 0.166666667,1.33333333 C0.166666667,0.688866667 0.6891,0.166666667 1.33333333,0.166666667 C1.97756667,0.166666667 2.5,0.688866667 2.5,1.33333333 Z M6,0.166666667 C6.64423333,0.166666667 7.16666667,0.688866667 7.16666667,1.33333333 C7.16666667,1.97756667 6.64423333,2.5 6,2.5 C5.35576667,2.5 4.83333333,1.97756667 4.83333333,1.33333333 C4.83333333,0.688866667 5.35576667,0.166666667 6,0.166666667 Z M10.6666667,0.166666667 C11.3109,0.166666667 11.8333333,0.688866667 11.8333333,1.33333333 C11.8333333,1.97756667 11.3109,2.5 10.6666667,2.5 C10.0224333,2.5 9.5,1.97756667 9.5,1.33333333 C9.5,0.688866667 10.0224333,0.166666667 10.6666667,0.166666667 Z" id="图标颜色"></path>
            </g>
        </g>
    </g>
</svg>