<?xml version="1.0" encoding="UTF-8"?>
<svg width="66px" height="22px" viewBox="0 0 66 22" version="1.1" xmlns="http://www.w3.org/2000/svg" xmlns:xlink="http://www.w3.org/1999/xlink">
    <title>切片@1x</title>
    <g id="控件" stroke="none" stroke-width="1" fill="none" fill-rule="evenodd" fill-opacity="0.9">
        <g id="编组" fill="#000000">
            <path d="M15.3356973,9.35824024 C15.7484922,9.81041169 16,10.4105639 16,11.0690714 C16,11.7222878 15.7525177,12.3180829 15.3456165,12.7689743 L13.541614,11.0570498 Z" id="Combined-Shape" transform="translate(14.770807, 11.063460) scale(-1, 1) translate(-14.770807, -11.063460) "></path>
        </g>
        <g id="编组" transform="translate(22.000000, 0.000000)" fill="#000000">
            <path d="M14.4292273,6.65139559 C15.4080986,7.81233912 16,9.32433594 16,10.9777514 C16,12.6748903 15.3763798,14.2230323 14.3507626,15.3954679 L13.1125756,14.2201138 C13.8642766,13.3449535 14.3200816,12.1973122 14.3200816,10.9407688 C14.3200816,9.74707625 13.9087339,8.65166396 13.2231322,7.79477199 Z M11.573274,9.35824024 C11.986069,9.81041169 12.2375767,10.4105639 12.2375767,11.0690714 C12.2375767,11.7219984 11.9903137,12.3175549 11.583734,12.7683749 L9.77919076,11.0570498 Z" id="Combined-Shape" transform="translate(12.889595, 11.023818) scale(-1, 1) translate(-12.889595, -11.023818) "></path>
        </g>
        <g id="编组" transform="translate(44.000000, 0.000000)" fill="#000000">
            <path d="M13.4503763,4.00057604 C15.0375654,5.84820174 16,8.27120455 16,10.9241548 C16,13.650672 14.9834482,16.1343119 13.3169028,18.0001041 L12.1119994,16.8570442 C13.5206844,15.2847365 14.3803468,13.1892668 14.3803468,10.8884043 C14.3803468,8.67974047 13.5881996,6.6603385 12.2786783,5.11127749 Z M10.6506886,6.65216898 C11.6291707,7.81301058 12.2208092,9.32470307 12.2208092,10.9777514 C12.2208092,12.6748903 11.5971891,14.2230323 10.5715718,15.3954679 L9.33338481,14.2201138 C10.0850859,13.3449535 10.5408909,12.1973122 10.5408909,10.9407688 C10.5408909,9.74711813 10.129572,8.65174081 9.44401362,7.79486217 Z M7.79381492,9.35794636 C8.20676921,9.81015163 8.45838599,10.4104212 8.45838599,11.0690714 C8.45838599,11.7222878 8.21090373,12.3180829 7.80400246,12.7689743 L6,11.0570498 Z" id="Combined-Shape" transform="translate(11.000000, 11.000000) scale(-1, 1) translate(-11.000000, -11.000000) "></path>
        </g>
    </g>
</svg>