<?xml version="1.0" encoding="UTF-8"?>
<svg width="32px" height="32px" viewBox="0 0 32 32" version="1.1" xmlns="http://www.w3.org/2000/svg" xmlns:xlink="http://www.w3.org/1999/xlink">
    <!-- Generator: Sketch 55.2 (78181) - https://sketchapp.com -->
    <title>icon</title>
    <desc>Created with Sketch.</desc>
    <g id="marcusfei-视觉" stroke="none" stroke-width="1" fill="none" fill-rule="evenodd">
        <g id="选择问题类型" transform="translate(-390.000000, -112.000000)">
            <g id="Question" transform="translate(390.000000, 112.000000)">
                <g id="icon">
                    <circle id="Oval" fill="#FFC300" cx="16" cy="16" r="16"></circle>
                    <path d="M15.9612121,10.1818182 C17.0012121,10.1818182 17.8492121,10.4538182 18.4892121,11.0298182 C19.1292121,11.5898182 19.4492121,12.3578182 19.4492121,13.3338182 C19.4492121,14.1338182 19.2412121,14.7898182 18.8572121,15.3018182 C18.7132121,15.4618182 18.2492121,15.8938182 17.4812121,16.5658182 C17.1932121,16.7898182 16.9852121,17.0618182 16.8412121,17.3498182 C16.6812121,17.6698182 16.6012121,18.0218182 16.6012121,18.4058182 L16.6012121,18.6298182 L14.7612121,18.6298182 L14.7612121,18.4058182 C14.7612121,17.7978182 14.8572121,17.2698182 15.0812121,16.8378182 C15.2892121,16.4058182 15.9132121,15.7338182 16.9532121,14.8058182 L17.1452121,14.5818182 C17.4332121,14.2298182 17.5772121,13.8458182 17.5772121,13.4458182 C17.5772121,12.9178182 17.4172121,12.5018182 17.1292121,12.1978182 C16.8252121,11.8938182 16.3932121,11.7498182 15.8492121,11.7498182 C15.1612121,11.7498182 14.6652121,11.9578182 14.3452121,12.3898182 C14.0732121,12.7578182 13.9452121,13.2858182 13.9452121,13.9738182 L12.1212121,13.9738182 C12.1212121,12.7898182 12.4572121,11.8618182 13.1612121,11.1898182 C13.8492121,10.5178182 14.7772121,10.1818182 15.9612121,10.1818182 Z M15.6732121,19.8787879 C16.0252121,19.8787879 16.3292121,19.9907879 16.5692121,20.2147879 C16.7932121,20.4387879 16.9212121,20.7267879 16.9212121,21.0787879 C16.9212121,21.4307879 16.7932121,21.7347879 16.5692121,21.9587879 C16.3132121,22.1827879 16.0252121,22.2947879 15.6732121,22.2947879 C15.3212121,22.2947879 15.0332121,22.1667879 14.8092121,21.9427879 C14.5532121,21.7187879 14.4412121,21.4307879 14.4412121,21.0787879 C14.4412121,20.7267879 14.5532121,20.4387879 14.8092121,20.2147879 C15.0332121,19.9907879 15.3212121,19.8787879 15.6732121,19.8787879 Z" id="?" fill="#FFFFFF" fill-rule="nonzero"></path>
                </g>
            </g>
        </g>
    </g>
</svg>