<?xml version="1.0" encoding="UTF-8"?>
<svg width="42px" height="48px" viewBox="0 0 42 48" version="1.1" xmlns="http://www.w3.org/2000/svg" xmlns:xlink="http://www.w3.org/1999/xlink">
    <title>0.图标/线型/icons_outlined_refresh@svg</title>
    <g id="页面-1" stroke="none" stroke-width="1" fill="none" fill-rule="evenodd" fill-opacity="0.7">
        <g id="文件传输助手网页版登录窗口备份-5" transform="translate(-930.000000, -531.000000)" fill="#000000">
            <g id="common_icons_miniprogram" transform="translate(923.000000, 527.000000)">
                <path d="M25.26633,17.8659932 L23.2864309,15.8860942 L27.0134032,12.1596192 C17.4205907,12.6720603 9.8,20.6127547 9.8,30.3333333 C9.8,40.3849158 17.9484176,48.5333333 28,48.5333333 C38.0515824,48.5333333 46.2,40.3849158 46.2,30.3333333 C46.2,25.4381917 44.2622943,20.8569408 40.8693434,17.4639899 L42.8492424,15.4840909 C46.6494949,19.2843435 49,24.5343435 49,30.3333333 C49,41.9313131 39.5979797,51.3333333 28,51.3333333 C16.4020203,51.3333333 7,41.9313131 7,30.3333333 C7,19.3887368 15.3725163,10.3996463 26.0620469,9.42156362 L23.2864309,6.64656573 L25.26633,4.66666667 L29.886,9.28666667 L29.8860942,9.28643089 L30.727,10.1276667 L31.5124399,10.9127766 C31.6860062,11.0863429 31.7052914,11.3557673 31.5702953,11.5506355 L31.5124399,11.6198833 L25.26633,17.8659932 Z" id="Combined-Shape"></path>
            </g>
        </g>
    </g>
</svg>