<?xml version="1.0" encoding="UTF-8"?>
<svg width="24px" height="24px" viewBox="0 0 24 24" version="1.1" xmlns="http://www.w3.org/2000/svg" xmlns:xlink="http://www.w3.org/1999/xlink">
    <title>1.图标icon/1.基础图标/replace</title>
    <g id="1.图标icon/1.基础图标/replace" stroke="none" stroke-width="1" fill="none" fill-rule="evenodd">
        <rect id="矩形" x="0" y="0" width="24" height="24"></rect>
        <path d="M21.484809,13.2985854 C21.7609513,13.2985854 21.984809,13.522443 21.984809,13.7985854 C21.984809,13.942622 21.9226931,14.0796619 21.8143732,14.1746005 L16.8816327,18.4979775 C16.7154988,18.6435882 16.4627799,18.6269508 16.3171692,18.4608168 C16.1968962,18.3235918 16.1847364,18.1223647 16.28761,17.9716553 L18.4535345,14.7985854 L2,14.7985854 L2,13.2985854 L21.484809,13.2985854 Z M7.66763975,5.13635391 C7.78791274,5.27357893 7.80007256,5.47480605 7.69719895,5.62551544 L5.53127448,8.79858538 L21.9986607,8.79858538 L21.9986607,10.2985854 L2.5,10.2985854 C2.22385763,10.2985854 2,10.0747278 2,9.79858538 C2,9.65454878 2.06211583,9.51750889 2.1704357,9.42257025 L7.10317621,5.09919325 C7.26931015,4.95358258 7.52202908,4.97021997 7.66763975,5.13635391 Z" id="图标颜色" fill="#4C4D4E"></path>
    </g>
</svg>