<?xml version="1.0" encoding="UTF-8"?>
<svg width="12px" height="12px" viewBox="0 0 12 12" version="1.1" xmlns="http://www.w3.org/2000/svg" xmlns:xlink="http://www.w3.org/1999/xlink">
    <!-- Generator: Sketch 56.2 (81672) - https://sketch.com -->
    <title>3.Icons/Filled/star</title>
    <desc>Created with Sketch.</desc>
    <g id="开放社区：话题标签详情页" stroke="none" stroke-width="1" fill="none" fill-rule="evenodd">
        <g id="详情页" transform="translate(-1223.000000, -524.000000)" fill="#FFC300">
            <g id="编组-5" transform="translate(1222.000000, 521.000000)">
                <g id="3.Icons/Filled/star" transform="translate(0.000000, 2.000000)">
                    <g id="Group-25">
                        <path d="M7,10.7916667 L4.27457005,12.22451 C3.98941071,12.3744271 3.63671154,12.2647917 3.4867944,11.9796323 C3.42709661,11.8660804 3.40649638,11.7360157 3.42818287,11.6095737 L3.94869368,8.57476286 L1.74377453,6.42549788 C1.51307578,6.20062218 1.50835527,5.8313061 1.73323097,5.60060735 C1.82277766,5.5087419 1.94011073,5.44895771 2.06706567,5.43051008 L5.11418898,4.98773714 L6.47690396,2.22657502 C6.61948363,1.93767705 6.96926536,1.81906264 7.25816333,1.96164231 C7.37320402,2.01841828 7.46632007,2.11153433 7.52309604,2.22657502 L8.88581102,4.98773714 L11.9329343,5.43051008 C12.2517522,5.47683702 12.4726497,5.77284535 12.4263227,6.09166319 C12.4078751,6.21861812 12.3480909,6.3359512 12.2562255,6.42549788 L10.0513063,8.57476286 L10.5718171,11.6095737 C10.6262777,11.9271033 10.4130181,12.2286609 10.0954886,12.2831215 C9.96904661,12.304808 9.83898189,12.2842078 9.72542995,12.22451 L7,10.7916667 Z" id="图标颜色"></path>
                    </g>
                </g>
            </g>
        </g>
    </g>
</svg>