<?xml version="1.0" encoding="UTF-8"?>
<svg width="20px" height="16px" viewBox="0 0 20 16" version="1.1" xmlns="http://www.w3.org/2000/svg" xmlns:xlink="http://www.w3.org/1999/xlink">
    <!-- Generator: Sketch 55.2 (78181) - https://sketchapp.com -->
    <title>3.Icons/Outlined/add-friends</title>
    <desc>Created with Sketch.</desc>
    <g id="Page-1" stroke="none" stroke-width="1" fill="none" fill-rule="evenodd" fill-opacity="0.5">
        <g id="Apple-TV-Copy-5" transform="translate(-418.000000, -423.000000)" fill="#000000">
            <g id="Group" transform="translate(418.000000, 421.000000)">
                <g id="3.Icons/Outlined/add-friends">
                    <g id="icon13" transform="translate(0.833333, 2.500000)">
                        <path d="M5.69326058,7.79178165 C5.08026469,7.06523763 4.58333333,5.70791373 4.58333333,4.75774211 L4.58333333,3.33298365 C4.58333333,1.49222761 6.07946346,0 7.91666667,0 C9.75761583,0 11.25,1.49415019 11.25,3.33350622 L11.25,4.75848807 C11.25,5.70774662 10.750777,7.06905029 10.1400726,7.79297753 L9.83879549,8.15011061 C9.34752701,8.73245889 9.50098976,9.47366467 10.1879575,9.80875865 L14.9049186,12.1096313 C15.4176679,12.3597438 15.8333333,13.0209751 15.8333333,13.5962194 L15.8333333,14.1679682 C15.8333333,14.6274867 15.4575622,15 14.9988087,15 L0.834524675,15 C0.373629424,15 0,14.6297962 0,14.1679682 L0,13.5962194 C0,13.025312 0.415125756,12.3599232 0.928414674,12.1094439 L5.64537563,9.80761918 C6.32948094,9.47378336 6.48854921,8.73438537 5.99453769,8.14886575 L5.69326058,7.79178165 Z M1,14 L14.8333333,14 L14.8333333,13.5962194 C14.8333333,13.4050495 14.6372325,13.0916833 14.4665079,13.0084061 L9.74954679,10.7075334 C8.47739524,10.0869943 8.16297731,8.58576087 9.07444716,7.50530705 L9.3757243,7.14817397 C9.83516251,6.6035572 10.25,5.47032578 10.25,4.75848807 L10.25,3.33350622 C10.25,2.04576183 9.20465817,1 7.91666667,1 C6.63025737,1 5.58333333,2.04600225 5.58333333,3.33298365 L5.58333333,4.75774211 C5.58333333,5.47138657 5.9964556,6.60040317 6.45756535,7.14692646 L6.75884246,7.50401056 C7.67219701,8.58655011 7.35434526,10.0863753 6.08393288,10.7063224 L1.36697192,13.0081472 C1.19751424,13.0908406 1,13.4072309 1,13.5962194 L1,14 Z M14.9166616,6.58332825 L14.9166616,4.16666667 L15.9166616,4.16666667 L15.9166616,6.58332825 L18.3333333,6.58332825 L18.3333333,7.58332829 L15.9166616,7.58332829 L15.9166616,10 L14.9166616,10 L14.9166616,7.58332829 L12.5,7.58332829 L12.5,6.58332825 L14.9166616,6.58332825 Z" id="图标颜色"></path>
                    </g>
                </g>
            </g>
        </g>
    </g>
</svg>