<?xml version="1.0" encoding="UTF-8"?>
<svg width="13px" height="12px" viewBox="0 0 13 12" version="1.1" xmlns="http://www.w3.org/2000/svg" xmlns:xlink="http://www.w3.org/1999/xlink">
    <!-- Generator: Sketch 53.2 (72643) - https://sketchapp.com -->
    <title> Author_Icon</title>
    <desc>Created with Sketch.</desc>
    <g id="-Author_Icon" stroke="none" stroke-width="1" fill="none" fill-rule="evenodd">
        <path d="M1,10.4210526 L1,10.0641463 C1,9.68354131 1.28840316,9.23994882 1.64500388,9.07296261 L4.92205044,7.53841278 C5.3973236,7.31585557 5.50783419,6.82292358 5.16462618,6.43257717 L4.95531788,6.1945211 C4.52944705,5.71015842 4.18421053,4.80527582 4.18421053,4.17182807 L4.18421053,3.2219891 C4.18421053,1.99481841 5.22362725,1 6.5,1 C7.77897521,1 8.81578947,1.99610012 8.81578947,3.22233748 L8.81578947,4.17232538 C8.81578947,4.80516442 8.46896085,5.71270019 8.04468204,6.19531835 L7.83537371,6.43340707 C7.4940714,6.82163926 7.60068762,7.31577645 8.07794941,7.53917243 L11.3549961,9.07308754 C11.7112219,9.23982919 12,9.68065007 12,10.0641463 L12,10.4210526 C12,10.7407964 11.7407964,11 11.4210526,11 L1.57894737,11 C1.25920357,11 1,10.7407964 1,10.4210526 Z" id="图标颜色" fill="#576B95"></path>
    </g>
</svg>