<?xml version="1.0" encoding="UTF-8"?>
<svg width="12px" height="11px" viewBox="0 0 12 11" version="1.1" xmlns="http://www.w3.org/2000/svg" xmlns:xlink="http://www.w3.org/1999/xlink">
    <!-- Generator: Sketch 54.1 (76490) - https://sketchapp.com -->
    <title>Combined Shape</title>
    <desc>Created with Sketch.</desc>
    <g id="开放社区小程序设计稿" stroke="none" stroke-width="1" fill="none" fill-rule="evenodd" opacity="0.300000012">
        <g id="开放社区小程序_全部_公告" transform="translate(-348.000000, -245.000000)" fill="#000000" fill-rule="nonzero">
            <g id="Group-5" transform="translate(314.000000, 240.000000)">
                <g id="change" transform="translate(40.000000, 10.500000) rotate(90.000000) translate(-40.000000, -10.500000) translate(34.500000, 4.500000)">
                    <path d="M2.09224956,4 L11,4 L11,5 L1.21844991,5 C0.887079061,5 0.618449911,4.73137085 0.618449911,4.4 C0.618449911,4.25603512 0.670213642,4.1168695 0.764294954,4.0078989 L3.64331201,0.673249081 L4.40023694,1.32675092 L2.09224956,4 Z M7.09976306,11.3464982 L9.40775044,8.67324908 L0.5,8.67324908 L0.5,7.67324908 L10.2815501,7.67324908 C10.6129209,7.67324908 10.8815501,7.94187823 10.8815501,8.27324908 C10.8815501,8.41721396 10.8297864,8.55637958 10.735705,8.66535018 L7.85668799,12 L7.09976306,11.3464982 Z" id="Combined-Shape"></path>
                </g>
            </g>
        </g>
    </g>
</svg>