<?xml version="1.0" encoding="UTF-8"?>
<svg width="66px" height="66px" viewBox="0 0 66 66" version="1.1" xmlns="http://www.w3.org/2000/svg" xmlns:xlink="http://www.w3.org/1999/xlink">
    <!-- Generator: Sketch 54.1 (76490) - https://sketchapp.com -->
    <title>publish_plugin_icon</title>
    <desc>Created with Sketch.</desc>
    <g id="publish_plugin_icon" stroke="none" stroke-width="1" fill="none" fill-rule="evenodd">
        <g id="Group-2" transform="translate(1.000000, 1.000000)">
            <g id="Group-12">
                <circle id="Oval" fill="#07C160" cx="32" cy="32" r="32"></circle>
                <g id="Group-56" transform="translate(22.000000, 22.000000)" fill="#FFFFFF">
                    <g id="Group">
                        <path d="M1.2819426,13.2652651 L9,13.2652651 L9,20.9833225 C9,21.4290819 8.95358719,21.590725 8.86643365,21.753688 C8.7792801,21.9166509 8.65138581,22.0445452 8.48842285,22.1316988 C8.32545989,22.2188523 8.16381677,22.2652651 7.7180574,22.2652651 L1.2819426,22.2652651 C0.83618323,22.2652651 0.674540111,22.2188523 0.511577148,22.1316988 C0.348614185,22.0445452 0.220719898,21.9166509 0.133566352,21.753688 C0.0464128056,21.590725 2.00617683e-17,21.4290819 -3.45280103e-17,20.9833225 L3.45280103e-17,14.5472077 C-2.00617683e-17,14.1014483 0.0464128056,13.9398052 0.133566352,13.7768423 C0.220719898,13.6138793 0.348614185,13.485985 0.511577148,13.3988315 C0.674540111,13.3116779 0.83618323,13.2652651 1.2819426,13.2652651 Z" id="Rectangle"></path>
                        <path d="M11,13.2652651 L18.7180574,13.2652651 C19.1638168,13.2652651 19.3254599,13.3116779 19.4884229,13.3988315 C19.6513858,13.485985 19.7792801,13.6138793 19.8664336,13.7768423 C19.9535872,13.9398052 20,14.1014483 20,14.5472077 L20,20.9833225 C20,21.4290819 19.9535872,21.590725 19.8664336,21.753688 C19.7792801,21.9166509 19.6513858,22.0445452 19.4884229,22.1316988 C19.3254599,22.2188523 19.1638168,22.2652651 18.7180574,22.2652651 L12.2819426,22.2652651 C11.8361832,22.2652651 11.6745401,22.2188523 11.5115771,22.1316988 C11.3486142,22.0445452 11.2207199,21.9166509 11.1335664,21.753688 C11.0464128,21.590725 11,21.4290819 11,20.9833225 L11,13.2652651 Z" id="Rectangle-Copy-2"></path>
                        <path d="M1.2819426,2.26526511 L7.7180574,2.26526511 C8.16381677,2.26526511 8.32545989,2.31167792 8.48842285,2.39883146 C8.65138581,2.48598501 8.7792801,2.6138793 8.86643365,2.77684226 C8.95358719,2.93980522 9,3.10144834 9,3.54720771 L9,11.2652651 L1.2819426,11.2652651 C0.83618323,11.2652651 0.674540111,11.2188523 0.511577148,11.1316988 C0.348614185,11.0445452 0.220719898,10.9166509 0.133566352,10.753688 C0.0464128056,10.590725 2.00617683e-17,10.4290819 -3.45280103e-17,9.98332251 L3.45280103e-17,3.54720771 C-2.00617683e-17,3.10144834 0.0464128056,2.93980522 0.133566352,2.77684226 C0.220719898,2.6138793 0.348614185,2.48598501 0.511577148,2.39883146 C0.674540111,2.31167792 0.83618323,2.26526511 1.2819426,2.26526511 Z" id="Rectangle-Copy"></path>
                        <path d="M13.0049468,2.25466726 L18.0410616,2.25466726 C18.486821,2.25466726 18.6484641,2.30108006 18.8114271,2.38823361 C18.97439,2.47538715 19.1022843,2.60328144 19.1894379,2.7662444 C19.2765914,2.92920737 19.3230042,3.09085049 19.3230042,3.53660986 L19.3230042,8.57272466 C19.3230042,9.01848403 19.2765914,9.18012715 19.1894379,9.34309011 C19.1022843,9.50605307 18.97439,9.63394736 18.8114271,9.7211009 C18.6484641,9.80825445 18.486821,9.85466726 18.0410616,9.85466726 L13.0049468,9.85466726 C12.5591874,9.85466726 12.3975443,9.80825445 12.2345814,9.7211009 C12.0716184,9.63394736 11.9437241,9.50605307 11.8565706,9.34309011 C11.769417,9.18012715 11.7230042,9.01848403 11.7230042,8.57272466 L11.7230042,3.53660986 C11.7230042,3.09085049 11.769417,2.92920737 11.8565706,2.7662444 C11.9437241,2.60328144 12.0716184,2.47538715 12.2345814,2.38823361 C12.3975443,2.30108006 12.5591874,2.25466726 13.0049468,2.25466726 Z" id="Rectangle-Copy-3" transform="translate(15.523004, 6.054667) rotate(45.000000) translate(-15.523004, -6.054667) "></path>
                    </g>
                </g>
            </g>
        </g>
    </g>
</svg>