<?xml version="1.0" encoding="UTF-8"?>
<svg width="66px" height="66px" viewBox="0 0 66 66" version="1.1" xmlns="http://www.w3.org/2000/svg" xmlns:xlink="http://www.w3.org/1999/xlink">
    <!-- Generator: Sketch 54.1 (76490) - https://sketchapp.com -->
    <title>publish_miniprogram_icon</title>
    <desc>Created with Sketch.</desc>
    <g id="publish_miniprogram_icon" stroke="none" stroke-width="1" fill="none" fill-rule="evenodd">
        <path d="M46.004296,31.6482177 C45.0296546,33.2351332 43.4084885,34.4516432 41.4664461,35.0117407 C41.4175742,35.0257798 41.3691959,35.0407985 41.3199948,35.0540214 C41.0200166,35.1385829 40.7123044,35.1903319 40.4073896,35.1903319 C39.061848,35.1903319 38.3021116,34.2887236 38.7102005,33.1763646 C39.0086977,32.3629092 39.7922943,31.676296 40.7486704,31.3584558 C42.2309546,30.8221923 43.2666447,29.5991524 43.2666447,28.1759728 C43.2666447,26.2583207 41.3861447,24.7037279 39.06662,24.7037279 C36.7469308,24.7037279 34.8665954,26.2583207 34.8665954,28.1759728 L34.8665954,38.8241905 C34.8665954,41.3850323 33.3709824,43.6306459 31.1332401,44.9007007 C29.9134163,45.5930274 28.4765484,46 26.93338,46 C22.5587656,46 19,42.7809498 19,38.8241905 C19,37.5647467 19.3630017,36.3818653 19.9955395,35.3519456 C20.9744592,33.7580105 22.6056629,32.5374193 24.5593886,31.9809133 C24.5610341,31.9804235 24.5625151,31.9799338 24.5641606,31.979444 C24.8935936,31.8777417 25.2352035,31.8212586 25.5720414,31.8212586 C26.9235068,31.8212586 27.6868635,32.7271113 27.2769645,33.8443677 C26.9992007,34.6015032 26.2511475,35.2535082 25.379022,35.6004062 C25.2748606,35.6348511 25.1734966,35.6735404 25.073449,35.7143519 C23.6880858,36.2817954 22.7333553,37.4592897 22.7333553,38.8241905 C22.7333553,40.7418426 24.6136907,42.2962721 26.93338,42.2962721 C29.2529046,42.2962721 31.1332401,40.7418426 31.1332401,38.8241905 L31.1332401,28.1759728 C31.1332401,25.6149677 32.6286885,23.3695174 34.8665954,22.0992993 C36.0864192,21.4069726 37.523287,21 39.06662,21 C43.4410698,21 47,24.2190502 47,28.1759728 C47,29.4352533 46.6368338,30.6182979 46.004296,31.6482177 M33,1 C15.3269254,1 1,15.3269254 1,33 C1,50.6730746 15.3269254,65 33,65 C50.6730746,65 65,50.6730746 65,33 C65,15.3269254 50.6730746,1 33,1" id="Fill-6" fill="#7587DB"></path>
    </g>
</svg>