<?xml version="1.0" encoding="UTF-8"?>
<svg width="20px" height="20px" viewBox="0 0 20 20" version="1.1" xmlns="http://www.w3.org/2000/svg" xmlns:xlink="http://www.w3.org/1999/xlink">
    <!-- Generator: Sketch 57.1 (83088) - https://sketch.com -->
    <title>image_grey</title>
    <desc>Created with Sketch.</desc>
    <g id="image_grey" stroke="none" stroke-width="1" fill="none" fill-rule="evenodd" opacity="0.300000012">
        <g id="3.Icons/Outlined/album" fill="#000000">
            <g id="common_icons_album" transform="translate(1.666667, 3.333333)">
                <path d="M15.8401641,0 C16.2872454,0 16.6666667,0.400947502 16.6666667,0.89554131 L16.6666667,12.437792 C16.6666667,12.9342932 16.2966289,13.3333333 15.8401641,13.3333333 L0.826502591,13.3333333 C0.379421314,13.3333333 0,12.9323858 0,12.437792 L0,0.89554131 C0,0.399040182 0.370037814,0 0.826502591,0 L15.8401641,0 Z M5.83838021,5.78340269 L1,9.695 L1,12.3333333 L15.6666667,12.3333333 L15.6666663,9.99467445 L12.8551531,7.46490992 L11.0316465,9.01559054 L12.1520323,10 L10.6759727,10 L5.83838021,5.78340269 Z M15.6666667,1 L1,1 L1,8.41 L5.16603794,5.04104887 C5.5514992,4.72932084 6.17052135,4.74443932 6.54207952,5.07090307 L10.2724357,8.34852197 L12.1742521,6.73124805 C12.5594312,6.40369797 13.1722691,6.41035215 13.5461928,6.74590308 L15.666,8.673 L15.6666667,1 Z" id="图标颜色"></path>
            </g>
        </g>
    </g>
</svg>