<svg width="16" height="16" viewBox="0 0 16 16" fill="none" xmlns="http://www.w3.org/2000/svg">
<path fill-rule="evenodd" clip-rule="evenodd" d="M7.99998 14.6666C4.31808 14.6666 1.33331 11.6819 1.33331 7.99998C1.33331 4.31808 4.31808 1.33331 7.99998 1.33331C11.6819 1.33331 14.6666 4.31808 14.6666 7.99998C14.6666 11.6819 11.6819 14.6666 7.99998 14.6666ZM7.33331 11.5V6.83331H8.66665V11.5H7.33331ZM7.99998 5.99998C8.46022 5.99998 8.83331 5.62688 8.83331 5.16665C8.83331 4.70641 8.46022 4.33331 7.99998 4.33331C7.53974 4.33331 7.16665 4.70641 7.16665 5.16665C7.16665 5.62688 7.53974 5.99998 7.99998 5.99998Z" fill="#FFCF33"/>
</svg>
