<?xml version="1.0" encoding="UTF-8"?>
<svg width="21px" height="19px" viewBox="0 0 21 19" version="1.1" xmlns="http://www.w3.org/2000/svg" xmlns:xlink="http://www.w3.org/1999/xlink">
    <!-- Generator: Sketch 57.1 (83088) - https://sketch.com -->
    <title>3.Icons/Outlined/like</title>
    <desc>Created with Sketch.</desc>
    <g id="交互" stroke="none" stroke-width="1" fill="none" fill-rule="evenodd">
        <g id="新的系统消息" transform="translate(-1450.000000, -84.000000)" stroke="#07C160">
            <g id="Rectangle-+-3.Icons/Outlined/email-+-3.Icons/Outlined/like-Mask" transform="translate(1215.000000, 54.000000)">
                <g id="awesome" transform="translate(233.000000, 28.000000)">
                    <g id="Group-10" transform="translate(3.000000, 3.000000)">
                        <path d="M18.1637868,6.1513184 C17.7803719,5.68457119 17.1828116,5.41752676 16.5254165,5.41752676 L12.4661003,5.41752676 C12.4519289,3.62919714 12.2051903,1.80330729 12.1670317,1.70980295 C12.1288731,1.6162986 12.1025621,1.52957169 12.0457876,1.45204702 C11.7145262,0.526695004 10.8349913,0.00162108525 10.2348935,1.73194792e-13 C8.8773754,-0.00364069775 8.99425274,1.22444774 8.92702475,2.45229313 L8.91364066,2.96703093 C8.91364066,4.46093163 7.2,5.41752676 5.11744675,5.41752676 L1.5793228,5.41752676 C0.70856955,5.41752676 -4.156675e-13,6.11416439 -4.156675e-13,6.97102868 L-4.156675e-13,15.0618807 C-4.156675e-13,15.9187449 0.704633052,16.6153826 1.5706625,16.6153826 L14.962627,16.6153826 C15.7585868,16.6153826 16.513607,16.01163 16.6820891,15.2414584 L18.5495635,7.86040272 C18.684979,7.23729906 18.5448397,6.61496944 18.1637868,6.1513184 Z" id="Combined-Shape-Copy-5" fill-opacity="0" fill="#666666" fill-rule="nonzero"></path>
                        <path d="M4.29631797,16.6153826 L4.29631797,5.45379189" id="Line" stroke-linecap="square"></path>
                    </g>
                </g>
            </g>
        </g>
    </g>
</svg>