<?xml version="1.0" encoding="UTF-8"?>
<svg width="66px" height="66px" viewBox="0 0 66 66" version="1.1" xmlns="http://www.w3.org/2000/svg" xmlns:xlink="http://www.w3.org/1999/xlink">
    <!-- Generator: Sketch 54.1 (76490) - https://sketchapp.com -->
    <title>login_person</title>
    <desc>Created with Sketch.</desc>
    <g id="login_person" stroke="none" stroke-width="1" fill="none" fill-rule="evenodd">
        <g id="Group-9" transform="translate(1.000000, 1.000000)">
            <circle id="Oval" fill="#07C160" cx="32" cy="32" r="32"></circle>
            <g id="3.Icons/Filled/me" transform="translate(18.000000, 18.000000)" fill="#FFFFFF">
                <g id="icon11">
                    <path d="M2.91666667,23.3333333 L2.91666667,22.5347072 C2.91666667,21.7354367 3.49784272,20.8038925 4.21644721,20.4532215 L10.8201926,17.2306668 C11.77794,16.7632967 12.0006356,15.7281395 11.3090194,14.908412 L10.8872315,14.4084943 C10.0290372,13.3913327 9.33333333,11.4910792 9.33333333,10.160839 L9.33333333,8.16617711 C9.33333333,5.58911865 11.4279155,3.5 14,3.5 C16.5773288,3.5 18.6666667,5.59181026 18.6666667,8.16690871 L18.6666667,10.1618833 C18.6666667,11.4908453 17.9677545,13.3966704 17.1127684,14.4101685 L16.6909804,14.9101549 C16.0032045,15.7254425 16.2180523,16.7631305 17.1798072,17.2322621 L23.7835527,20.4534838 C24.5014017,20.8036413 25.0833333,21.7293651 25.0833333,22.5347072 L25.0833333,23.3333333 C25.0833333,23.9776655 24.5609989,24.5 23.9166667,24.5 L4.08333333,24.5 C3.43900113,24.5 2.91666667,23.9776655 2.91666667,23.3333333 Z" id="图标颜色"></path>
                </g>
            </g>
        </g>
    </g>
</svg>