<?xml version="1.0" encoding="UTF-8"?>
<svg width="24px" height="24px" viewBox="0 0 24 24" version="1.1" xmlns="http://www.w3.org/2000/svg" xmlns:xlink="http://www.w3.org/1999/xlink">
    <title>服务市场logo</title>
    <g id="一期" stroke="none" stroke-width="1" fill="none" fill-rule="evenodd">
        <g id="画板" transform="translate(-15.000000, -32.000000)">
            <g id="编组-4" transform="translate(15.000000, 32.000000)">
                <rect id="矩形" x="0" y="0" width="24" height="24"></rect>
                <g id="编组-6" transform="translate(3.000000, 5.000000)">
                    <path d="M5.21211573,1.33966286 L5.21211573,1.33966286 C5.07837979,1.06366286 4.87448445,0.817662857 4.61775302,0.612805714 C4.39047122,0.431434286 4.12161347,0.28452 3.82417227,0.180291429 L3.81966821,0.177891429 L3.81655002,0.177377143 C3.50213197,0.0681771429 3.15635874,0.00697714286 2.79239603,0.00697714286 C2.08300656,0.00697714286 1.44065829,0.237034286 0.971889564,0.609205714 L6.91551663,13.23612 C7.04907934,13.5122914 7.2609434,13.7606914 7.51767483,13.9653771 C7.74495663,14.1467486 8.01398761,14.2936629 8.31125558,14.3978914 L8.31575964,14.4004629 L8.31887783,14.4008057 C8.63329588,14.5101771 8.97906911,14.5713771 9.34303182,14.5713771 C10.0524213,14.5713771 10.6947696,14.34132 11.1635383,13.9691486 L5.21211573,1.33966286 Z" id="Fill-13" fill="#07C160"></path>
                    <path d="M10.4067349,1.33966286 L10.4067349,1.33966286 C10.272999,1.06366286 10.0691036,0.817662857 9.81237221,0.612805714 C9.58509041,0.431434286 9.31623266,0.28452 9.01879146,0.180291429 L9.0142874,0.177891429 L9.0111692,0.177377143 C8.69675116,0.0681771429 8.35097792,0.00697714286 7.98701522,0.00697714286 C7.27762574,0.00697714286 6.63527747,0.237034286 6.16650875,0.609205714 L12.1123878,13.2412629 C12.2461238,13.5172629 12.4555626,13.7606914 12.712294,13.9653771 C12.9395758,14.1467486 13.2086068,14.2936629 13.5058748,14.3978914 L13.5103788,14.4004629 L13.513497,14.4008057 C13.8279151,14.5101771 14.1736883,14.5713771 14.537651,14.5713771 C15.2470405,14.5713771 15.8893888,14.34132 16.3581575,13.9691486 L10.4067349,1.33966286 Z" id="Fill-14" fill="#8385F3"></path>
                    <path d="M14.339507,6.93394286 L17.3232736,0.602228571 C16.8545049,0.230228571 16.2123299,-1.1571696e-14 15.5027672,-1.1571696e-14 C15.2843202,-1.1571696e-14 15.0736688,0.0243428571 14.8709861,0.0656571429 C14.7362108,0.0930857143 14.6042072,0.126857143 14.4786132,0.1704 L14.4753217,0.170914286 L14.4708177,0.173314286 C14.1735497,0.277542857 13.9045187,0.424457143 13.6774102,0.605828571 C13.4206787,0.810685714 13.2167834,1.05668571 13.0830475,1.33268571 L12.391501,2.80011429 L14.339507,6.93394286 Z" id="Fill-15" fill="#07C160"></path>
                    <path d="M2.98376662,7.6374 L4.3081328e-15,13.9691143 C0.468768722,14.3411143 1.11094376,14.5713429 1.82050647,14.5713429 C2.03895338,14.5713429 2.24960481,14.547 2.45228752,14.5056857 C2.58706286,14.4780857 2.71906647,14.4444857 2.84466045,14.4009429 L2.84795188,14.4004286 L2.85245594,14.3980286 C3.14972391,14.2936286 3.41875489,14.1468857 3.64586346,13.9655143 C3.90259489,13.7606571 4.10649023,13.5146571 4.24022617,13.2384857 L4.93177263,11.7712286 L2.98376662,7.6374 Z" id="Fill-16" fill="#8385F3"></path>
                </g>
            </g>
        </g>
    </g>
</svg>