<?xml version="1.0" encoding="UTF-8"?>
<svg width="16px" height="16px" viewBox="0 0 16 16" version="1.1" xmlns="http://www.w3.org/2000/svg" xmlns:xlink="http://www.w3.org/1999/xlink">
    <title>Group Copy</title>
    <g id="编辑入口-终稿" stroke="none" stroke-width="1" fill="none" fill-rule="evenodd">
        <g id="当-关注主页数量-&gt;-10，更多内选项可滑动" transform="translate(-1057.000000, -277.000000)">
            <g id="sequence-copy-3备份" transform="translate(1041.000000, 110.000000)">
                <g id="Group-17" transform="translate(0.000000, 159.000000)">
                    <g id="Group-Copy" transform="translate(16.000000, 8.000000)">
                        <rect id="Rectangle" fill-opacity="0" fill="#FFFFFF" x="0" y="0" width="16" height="16"></rect>
                        <path d="M4.8,8.53333333 C6.27275933,8.53333333 7.46666667,9.72724067 7.46666667,11.2 C7.46666667,12.6727593 6.27275933,13.8666667 4.8,13.8666667 C3.32724067,13.8666667 2.13333333,12.6727593 2.13333333,11.2 C2.13333333,9.72724067 3.32724067,8.53333333 4.8,8.53333333 Z M11.2,8.53333333 C12.6727593,8.53333333 13.8666667,9.72724067 13.8666667,11.2 C13.8666667,12.6727593 12.6727593,13.8666667 11.2,13.8666667 C9.72724067,13.8666667 8.53333333,12.6727593 8.53333333,11.2 C8.53333333,9.72724067 9.72724067,8.53333333 11.2,8.53333333 Z M4.8,9.33333333 C3.76906847,9.33333333 2.93333333,10.1690685 2.93333333,11.2 C2.93333333,12.2309315 3.76906847,13.0666667 4.8,13.0666667 C5.83093153,13.0666667 6.66666667,12.2309315 6.66666667,11.2 C6.66666667,10.1690685 5.83093153,9.33333333 4.8,9.33333333 Z M11.2,9.33333333 C10.1690685,9.33333333 9.33333333,10.1690685 9.33333333,11.2 C9.33333333,12.2309315 10.1690685,13.0666667 11.2,13.0666667 C12.2309315,13.0666667 13.0666667,12.2309315 13.0666667,11.2 C13.0666667,10.1690685 12.2309315,9.33333333 11.2,9.33333333 Z M4.8,2.13333333 C6.27275933,2.13333333 7.46666667,3.32724067 7.46666667,4.8 C7.46666667,6.27275933 6.27275933,7.46666667 4.8,7.46666667 C3.32724067,7.46666667 2.13333333,6.27275933 2.13333333,4.8 C2.13333333,3.32724067 3.32724067,2.13333333 4.8,2.13333333 Z M11.2,2.13333333 C12.6727593,2.13333333 13.8666667,3.32724067 13.8666667,4.8 C13.8666667,6.27275933 12.6727593,7.46666667 11.2,7.46666667 C9.72724067,7.46666667 8.53333333,6.27275933 8.53333333,4.8 C8.53333333,3.32724067 9.72724067,2.13333333 11.2,2.13333333 Z M4.8,2.93333333 C3.76906847,2.93333333 2.93333333,3.76906847 2.93333333,4.8 C2.93333333,5.83093153 3.76906847,6.66666667 4.8,6.66666667 C5.83093153,6.66666667 6.66666667,5.83093153 6.66666667,4.8 C6.66666667,3.76906847 5.83093153,2.93333333 4.8,2.93333333 Z M11.2,2.93333333 C10.1690685,2.93333333 9.33333333,3.76906847 9.33333333,4.8 C9.33333333,5.83093153 10.1690685,6.66666667 11.2,6.66666667 C12.2309315,6.66666667 13.0666667,5.83093153 13.0666667,4.8 C13.0666667,3.76906847 12.2309315,2.93333333 11.2,2.93333333 Z" id="Combined-Shape" fill="#000000" opacity="0.900000036"></path>
                    </g>
                </g>
            </g>
        </g>
    </g>
</svg>