<?xml version="1.0" encoding="UTF-8"?>
<svg width="256px" height="256px" viewBox="0 0 256 256" version="1.1" xmlns="http://www.w3.org/2000/svg" xmlns:xlink="http://www.w3.org/1999/xlink">
    <title>技术运营官</title>
    <defs>
        <linearGradient x1="50%" y1="0%" x2="50%" y2="97.6680302%" id="linearGradient-1">
            <stop stop-color="#BEA7F1" offset="0%"></stop>
            <stop stop-color="#864EF0" offset="100%"></stop>
        </linearGradient>
        <linearGradient x1="50%" y1="1.55818025%" x2="50%" y2="97.1638713%" id="linearGradient-2">
            <stop stop-color="#FFFFFF" stop-opacity="0.7" offset="0%"></stop>
            <stop stop-color="#FFFFFF" stop-opacity="0.8" offset="100%"></stop>
        </linearGradient>
        <path d="M136,35.6188022 L204.004464,74.8811978 C208.954881,77.7393226 212.004464,83.0213549 212.004464,88.7376043 L212.004464,167.262396 C212.004464,172.978645 208.954881,178.260677 204.004464,181.118802 L136,220.381198 C131.049583,223.239323 124.950417,223.239323 120,220.381198 L51.9955358,181.118802 C47.0451186,178.260677 43.9955358,172.978645 43.9955358,167.262396 L43.9955358,88.7376043 C43.9955358,83.0213549 47.0451186,77.7393226 51.9955358,74.8811978 L120,35.6188022 C124.950417,32.7606774 131.049583,32.7606774 136,35.6188022 Z M131,44.2790562 C129.220944,43.2519176 127.046258,43.2091202 125.234232,44.1506639 L125,44.2790562 L56.9955358,83.5414519 C55.2133856,84.5703768 54.0881638,86.4370041 54.0009975,88.4812024 L53.9955358,88.7376043 L53.9955358,167.262396 C53.9955358,169.320245 55.0494716,171.22803 56.7762161,172.325617 L56.9955358,172.458548 L125,211.720944 C126.779056,212.748082 128.953742,212.79088 130.765768,211.849336 L131,211.720944 L199.004464,172.458548 C200.786614,171.429623 201.911836,169.562996 201.999002,167.518798 L202.004464,167.262396 L202.004464,88.7376043 C202.004464,86.6797545 200.950528,84.7719702 199.223784,83.6743828 L199.004464,83.5414519 L131,44.2790562 Z" id="path-3"></path>
        <filter x="-1.2%" y="-1.1%" width="102.4%" height="102.1%" filterUnits="objectBoundingBox" id="filter-4">
            <feGaussianBlur stdDeviation="1.5" in="SourceAlpha" result="shadowBlurInner1"></feGaussianBlur>
            <feOffset dx="0" dy="1" in="shadowBlurInner1" result="shadowOffsetInner1"></feOffset>
            <feComposite in="shadowOffsetInner1" in2="SourceAlpha" operator="arithmetic" k2="-1" k3="1" result="shadowInnerInner1"></feComposite>
            <feColorMatrix values="0 0 0 0 1   0 0 0 0 1   0 0 0 0 1  0 0 0 0.6 0" type="matrix" in="shadowInnerInner1"></feColorMatrix>
        </filter>
        <linearGradient x1="50%" y1="0%" x2="50%" y2="100%" id="linearGradient-5">
            <stop stop-color="#FFFFFF" offset="0%"></stop>
            <stop stop-color="#FFFFFF" stop-opacity="0.7" offset="100%"></stop>
        </linearGradient>
    </defs>
    <g id="技术运营官" stroke="none" stroke-width="1" fill="none" fill-rule="evenodd">
        <path d="M139,30.350853 L207.066642,69.649147 C213.873466,73.5790685 218.066642,80.8418629 218.066642,88.7017059 L218.066642,167.298294 C218.066642,175.158137 213.873466,182.420931 207.066642,186.350853 L139,225.649147 C132.193176,229.579069 123.806824,229.579069 117,225.649147 L48.933358,186.350853 C42.1265343,182.420931 37.933358,175.158137 37.933358,167.298294 L37.933358,88.7017059 C37.933358,80.8418629 42.1265343,73.5790685 48.933358,69.649147 L117,30.350853 C123.806824,26.4209315 132.193176,26.4209315 139,30.350853 Z" id="多边形" fill="url(#linearGradient-1)"></path>
        <g id="多边形" fill-rule="nonzero">
            <use fill="url(#linearGradient-2)" xlink:href="#path-3"></use>
            <use fill="black" fill-opacity="1" filter="url(#filter-4)" xlink:href="#path-3"></use>
        </g>
        <path d="M158.801297,128.029596 C158.932078,128.300655 159,128.597734 159,128.898693 L159,148.395639 C159.000002,150.458726 158.202979,152.442052 156.775374,153.931439 C148.792936,162.259335 139.201145,166.423283 128,166.423283 C116.798853,166.423283 107.207061,162.259334 99.2246213,153.931435 C97.7970225,152.442046 97,150.458722 97,148.395637 L97,128.898693 C97,127.794123 97.8954305,126.898693 99,126.898693 C99.3009591,126.898693 99.5980378,126.966614 99.8690962,127.097395 L128,140.670093 L156.130904,127.097395 C157.125733,126.617407 158.321309,127.034767 158.801297,128.029596 Z M175.901206,118.660208 C175.966235,118.79543 176,118.943552 176,119.093598 L176,154.59496 C176,156.892728 174.687732,158.988695 172.620746,159.992339 L171.819794,160.381248 C170.374359,161.083092 168.633645,160.480292 167.9318,159.034857 C167.739502,158.638821 167.639588,158.204309 167.639588,157.764055 L167.639588,122.152319 C167.639588,121.767994 167.859843,121.417674 168.206198,121.251112 L174.56661,118.192391 C175.064333,117.953037 175.661852,118.162485 175.901206,118.660208 Z M126.695999,85.6293711 C127.519863,85.2317362 128.480137,85.2317362 129.304001,85.6293711 L129.304001,85.6293711 L172.26811,106.365836 C172.67508,106.562258 173.003536,106.890714 173.199959,107.297684 C173.680079,108.29245 173.262876,109.488081 172.26811,109.968201 L172.26811,109.968201 L129.304001,130.704666 C128.480137,131.1023 127.519863,131.1023 126.695999,130.704666 L126.695999,130.704666 L83.7318899,109.968201 C83.3249197,109.771778 82.9964639,109.443322 82.8000413,109.036352 C82.3199214,108.041587 82.7371243,106.845956 83.7318899,106.365836 L83.7318899,106.365836 Z" id="形状结合" fill="url(#linearGradient-5)"></path>
    </g>
</svg>