<?xml version="1.0" encoding="UTF-8"?>
<svg width="24px" height="24px" viewBox="0 0 24 24" version="1.1" xmlns="http://www.w3.org/2000/svg" xmlns:xlink="http://www.w3.org/1999/xlink">
    <title>MP/Icon/Message</title>
    <g id="MP/Icon/Message" stroke="none" stroke-width="1" fill="none" fill-rule="evenodd">
        <path d="M12,3.5 C17.1542217,3.5 21.5,7.01894448 21.5,11.6023015 C21.5,16.1856584 17.1542217,19.7046029 12,19.7046029 C11.4173809,19.7046029 10.8397461,19.6599991 10.2726191,19.5715435 L9.84933032,19.4969913 L9.5264375,19.4257995 L6.50094414,20.4386071 C6.33961588,20.492613 6.16857336,20.5113071 5.99939639,20.4934238 C5.38795116,20.4287895 4.93413654,19.9106839 4.93657521,19.3084814 L4.94323481,19.1870291 L5.1505,17.2241801 L5.05310931,17.1383739 C3.59314074,15.806822 2.68889195,14.0807871 2.52644226,12.212482 L2.50698397,11.9163409 L2.5,11.6023015 C2.5,7.01894448 6.84577826,3.5 12,3.5 Z M12,5 C7.63420806,5 4.14216832,7.85770384 4.00388406,11.3541063 L3.9996292,11.568951 L4.00375645,11.8179938 L4.02080395,12.0825468 C4.14040321,13.4580368 4.77558276,14.7610109 5.82857734,15.8071435 L6.04471816,16.0128909 L6.7235866,16.6110092 L6.484,18.862 L9.44396931,17.8715906 L10.1095148,18.0197289 L10.5037815,18.0894625 C10.9947308,18.1660366 11.4950927,18.2046029 12,18.2046029 C16.4548897,18.2046029 20,15.2290679 20,11.6023015 C20,7.97553503 16.4548897,5 12,5 Z" id="路径" fill="#07C160"></path>
    </g>
</svg>