<?xml version="1.0" encoding="UTF-8"?>
<svg width="16px" height="20px" viewBox="0 0 16 20" version="1.1" xmlns="http://www.w3.org/2000/svg" xmlns:xlink="http://www.w3.org/1999/xlink">
    <!-- Generator: Sketch 57.1 (83088) - https://sketch.com -->
    <title>3.Icons/Outlined/bellring_on</title>
    <desc>Created with Sketch.</desc>
    <g id="交互" stroke="none" stroke-width="1" fill="none" fill-rule="evenodd" fill-opacity="0.9">
        <g id="新导航" transform="translate(-1374.000000, -22.000000)" fill="#000000">
            <g id="Group-45">
                <g id="Group-43">
                    <g id="Nav">
                        <g id="3.Icons/Outlined/bellring_on" transform="translate(1370.000000, 20.000000)">
                            <g id="Group" transform="translate(4.000000, 2.000000)">
                                <path d="M1.18670673,18.0000282 C0.973725629,18.0000282 0.766307737,17.9319983 0.594667574,17.8059007 C0.149600376,17.4789265 0.0538670836,16.8530633 0.380841281,16.4079961 C1.46027096,14.9386502 2,13.4693251 2,12 L2,8 C2,5.37733614 3.68271203,3.14769073 6.02739671,2.33180314 C6.0093774,2.22388264 6,2.11303643 6,2 C6,0.8954305 6.8954305,0 8,0 C9.1045695,0 10,0.8954305 10,2 C10,2.11303643 9.9906226,2.22388264 9.97260329,2.33180314 C12.317288,3.14769073 14,5.37733614 14,8 L14,12 C14,13.4693091 14.5397173,14.9386183 15.619152,16.4079274 C15.7452557,16.5795777 15.8132606,16.7870072 15.8132606,17 C15.8132606,17.5523003 15.3655327,18.0000282 14.8132324,18.0000282 L9,18 L9,18.2 C9,18.7522848 8.55228475,19.2 8,19.2 C7.44771525,19.2 7,18.7522848 7,18.2 L7,18 L1.18670673,18.0000282 Z M8,1.2 C7.5581722,1.2 7.2,1.5581722 7.2,2 C7.2,2.04574037 7.20371822,2.09049657 7.21101147,2.13417698 L7.3777013,3.13250909 L6.42177026,3.46514753 C4.50861248,4.13087529 3.2,5.94086096 3.2,8 L3.2,12 C3.2,13.6303277 2.64849214,15.2355113 1.57422114,16.8000266 L14.4258309,16.8000266 C13.3515289,15.2355634 12.8,13.6303581 12.8,12 L12.8,8 C12.8,5.94086096 11.4913875,4.13087529 9.57822974,3.46514753 L8.6222987,3.13250909 L8.78898853,2.13417698 C8.79628178,2.09049657 8.8,2.04574037 8.8,2 C8.8,1.5581722 8.4418278,1.2 8,1.2 Z" id="图标颜色"></path>
                            </g>
                        </g>
                    </g>
                </g>
            </g>
        </g>
    </g>
</svg>