<?xml version="1.0" encoding="UTF-8"?>
<svg width="48px" height="48px" viewBox="0 0 48 48" version="1.1" xmlns="http://www.w3.org/2000/svg" xmlns:xlink="http://www.w3.org/1999/xlink">
    <!-- Generator: Sketch 56.2 (81672) - https://sketch.com -->
    <title>小程序</title>
    <desc>Created with Sketch.</desc>
    <g id="小程序" stroke="none" stroke-width="1" fill="none" fill-rule="evenodd">
        <circle id="Oval-Copy-3" fill-opacity="0" fill="#000000" cx="24" cy="24" r="24"></circle>
        <path d="M26.0166735,13.0357743 C23.8987256,14.2325259 22.4833265,16.348298 22.4833265,18.7613439 L22.4833265,28.7942116 C22.4833265,30.6011251 20.7035976,32.0658362 18.5083367,32.0658362 C16.3129739,32.0658362 14.5333469,30.6011251 14.5333469,28.7942116 C14.5333469,27.5083082 15.4369299,26.3988953 16.748089,25.8641851 C16.8427413,25.825603 16.9386176,25.7891363 17.0373498,25.7567998 C17.8625998,25.4299094 18.5706563,24.8155165 18.8335001,24.1022002 C19.2214931,23.0494014 18.4990551,22.1959604 17.2199227,22.1959604 C16.9011851,22.1959604 16.5778576,22.2491493 16.2660557,22.3451514 C16.2645258,22.3455543 16.2630978,22.3459573 16.2615679,22.3463602 C14.4124816,22.8707953 12.8687715,24.0207042 11.9422394,25.5226878 C11.3435227,26.4929834 11,27.6076345 11,28.7942116 C11,32.5224754 14.3682153,35.5555556 18.5083367,35.5555556 C19.9688181,35.5555556 21.3288333,35.1720511 22.4833265,34.5197812 C24.6011724,33.3230297 26.0166735,31.2071569 26.0166735,28.7942116 L26.0166735,18.7613439 C26.0166735,16.9544304 27.7963004,15.4897194 29.9916633,15.4897194 C32.1869241,15.4897194 33.9666531,16.9544304 33.9666531,18.7613439 C33.9666531,20.1022496 32.9864711,21.254677 31.5836175,21.7599721 C30.6785046,22.0593615 29.9367894,22.706393 29.6543624,23.4727975 C29.2681033,24.5208618 29.9872774,25.370374 31.260596,25.370374 C31.5491428,25.370374 31.8403416,25.3216175 32.1244005,25.2419348 C32.1709107,25.2294434 32.216707,25.2153403 32.2629112,25.2020431 C34.1009819,24.6744852 35.6353083,23.528102 36.5576586,22.0329684 C37.1563753,21.0625722 37.5,19.947921 37.5,18.7613439 C37.5,15.0330801 34.1317847,12 29.9916633,12 C28.5310799,12 27.1710647,12.3834037 26.0166735,13.0357743 Z" id="Fill-6" fill="#7587DB"></path>
    </g>
</svg>