<?xml version="1.0" encoding="UTF-8"?>
<svg width="48px" height="48px" viewBox="0 0 48 48" version="1.1" xmlns="http://www.w3.org/2000/svg" xmlns:xlink="http://www.w3.org/1999/xlink">
    <!-- Generator: Sketch 56.2 (81672) - https://sketch.com -->
    <title>微信支付</title>
    <desc>Created with Sketch.</desc>
    <g id="微信支付" stroke="none" stroke-width="1" fill="none" fill-rule="evenodd">
        <circle id="Oval" fill-opacity="0" fill="#000000" cx="24" cy="24" r="24"></circle>
        <g id="3.Icons/Filled/pay_logo" transform="translate(7.000000, 8.000000)" fill="#07C160">
            <path d="M12.9830522,20.1406289 C12.8566221,20.2051114 12.7142913,20.2430888 12.5634283,20.2430888 C12.2132247,20.2430888 11.9087842,20.0464765 11.7490014,19.7561074 L11.6881132,19.6200217 L9.13895676,13.9147046 C9.11142137,13.8525957 9.09435718,13.7821792 9.09435718,13.7137408 C9.09435718,13.4510636 9.30339345,13.2382317 9.5609075,13.2382317 C9.66639519,13.2382317 9.76218732,13.27344 9.84052744,13.3327797 L12.84809,15.5168773 C13.0672096,15.6632486 13.330541,15.749489 13.6128757,15.749489 C13.7808028,15.749489 13.9417491,15.7178412 14.0910607,15.6620618 L28.2353306,9.24110767 C25.7001357,6.19262806 21.5244522,4.2 16.7996122,4.2 C9.06720962,4.2 2.8,9.52831196 2.8,16.1011758 C2.8,19.6868778 4.68520458,22.9153545 7.63692069,25.0970785 C7.87388016,25.2691637 8.02862129,25.5520165 8.02862129,25.872451 C8.02862129,25.9784713 8.00729106,26.0742061 7.97936785,26.1754792 C7.74395967,27.0726959 7.36660849,28.5087173 7.34915649,28.5763646 C7.31968199,28.6883189 7.27353112,28.8062071 7.27353112,28.924491 C7.27353112,29.1867726 7.48217956,29.4 7.74085709,29.4 C7.84169091,29.4 7.92429707,29.361627 8.01000582,29.3117816 L11.0749661,27.5062715 C11.3053326,27.3705813 11.5492728,27.2867145 11.8184216,27.2867145 C11.961528,27.2867145 12.0999806,27.3092636 12.2299011,27.3500102 C13.6598022,27.7693443 15.2025596,28.0023516 16.7996122,28.0023516 C24.5316269,28.0023516 30.8,22.6740397 30.8,16.1011758 C30.8,14.1109213 30.2217568,12.2357859 29.2048866,10.5869327 L13.0854373,20.0801024 L12.9830522,20.1406289 Z" id="Symbol"></path>
        </g>
    </g>
</svg>