<?xml version="1.0" encoding="UTF-8"?>
<svg width="48px" height="48px" viewBox="0 0 48 48" version="1.1" xmlns="http://www.w3.org/2000/svg" xmlns:xlink="http://www.w3.org/1999/xlink">
    <!-- Generator: Sketch 56.2 (81672) - https://sketch.com -->
    <title>企业微信</title>
    <desc>Created with Sketch.</desc>
    <defs>
        <path d="M0.337336364,0.249543478 C0.1829,0.403847826 0.173318182,0.648586957 0.307463636,0.81476087 L0.307463636,0.81476087 C0.316481818,0.826065217 0.326345455,0.837086957 0.337336364,0.848108696 L0.337336364,0.848108696 C0.355654545,0.866478261 0.375663636,0.882304348 0.396236364,0.897 L0.396236364,0.897 C0.437381818,0.935434783 0.478245455,0.975 0.518263636,1.01513043 L0.518263636,1.01513043 C1.3082,1.80756522 1.80476364,2.78228261 2.00851818,3.80419565 L2.00851818,3.80419565 C2.0119,3.86156522 2.0181,3.91893478 2.02768182,3.97602174 L2.02768182,3.97602174 C2.03754545,4.03876087 2.05079091,4.10121739 2.06741818,4.16282609 L2.06741818,4.16282609 C2.14548182,4.44995652 2.29681818,4.72154348 2.52170909,4.94706522 L2.52170909,4.94706522 C3.21103636,5.63832609 4.32872727,5.63832609 5.01777273,4.94706522 L5.01777273,4.94706522 C5.7071,4.25580435 5.7071,3.13526087 5.01777273,2.444 L5.01777273,2.444 C4.77484545,2.2001087 4.47837273,2.04297826 4.16668182,1.97091304 L4.16668182,1.97091304 C4.13201818,1.963 4.09679091,1.95593478 4.06156364,1.95028261 L4.06156364,1.95028261 C4.02633636,1.94434783 3.99082727,1.93926087 3.95475455,1.93530435 L3.95475455,1.93530435 C2.91033636,1.74030435 1.91185455,1.23782609 1.10416364,0.427586957 L1.10416364,0.427586957 C1.04582727,0.369369565 0.989181818,0.30973913 0.934509091,0.24926087 L0.934509091,0.24926087 L0.934227273,0.249543478 C0.851654545,0.167021739 0.743718182,0.125478261 0.635781818,0.125478261 L0.635781818,0.125478261 C0.527563636,0.125478261 0.419627273,0.167021739 0.337336364,0.249543478 L0.337336364,0.249543478 Z" id="path-1"></path>
        <path d="M2.44026364,0.559565217 C2.19733636,0.80373913 2.04064545,1.10076087 1.96878182,1.41332609 L1.96878182,1.41332609 C1.96089091,1.44808696 1.95384545,1.48341304 1.94764545,1.51873913 L1.94764545,1.51873913 C1.94200909,1.55434783 1.93693636,1.58995652 1.93327273,1.62584783 L1.93327273,1.62584783 C1.73881818,2.67291304 1.23774545,3.67447826 0.429772727,4.48471739 L0.429772727,4.48471739 C0.371436364,4.54293478 0.311972727,4.59973913 0.251945455,4.65456522 L0.251945455,4.65456522 L0.252227273,4.65484783 C0.0873636364,4.82017391 0.0873636364,5.08808696 0.252227273,5.25341304 L0.252227273,5.25341304 C0.4061,5.408 0.649872727,5.4178913 0.815863636,5.28336957 L0.815863636,5.28336957 C0.826854545,5.27432609 0.838127273,5.26443478 0.848836364,5.25341304 L0.848836364,5.25341304 C0.867154545,5.23504348 0.883218182,5.21526087 0.897872727,5.19463043 L0.897872727,5.19463043 C0.9362,5.15308696 0.975090909,5.1123913 1.01567273,5.07197826 L1.01567273,5.07197826 C1.80560909,4.27982609 2.7776,3.78186957 3.79665455,3.57782609 L3.79665455,3.57782609 C3.85414545,3.57443478 3.91135455,3.56821739 3.96828182,3.5586087 L3.96828182,3.5586087 C4.03084545,3.54871739 4.09284545,3.53543478 4.15428182,3.51819565 L4.15428182,3.51819565 C4.44117273,3.43991304 4.71171818,3.28871739 4.93660909,3.06319565 L4.93660909,3.06319565 C5.62593636,2.37193478 5.62593636,1.2513913 4.93660909,0.559565217 L4.93660909,0.559565217 C4.59194545,0.213934783 4.14019091,0.0412608696 3.68843636,0.0412608696 L3.68843636,0.0412608696 C3.23668182,0.0412608696 2.78492727,0.213934783 2.44026364,0.559565217 L2.44026364,0.559565217 Z" id="path-3"></path>
        <path d="M0.561381818,0.64123913 C-0.127381818,1.3325 -0.127381818,2.45332609 0.561381818,3.14458696 L0.561381818,3.14458696 C0.804309091,3.38819565 1.1005,3.5456087 1.41219091,3.6173913 L1.41219091,3.6173913 C1.44741818,3.62530435 1.48264545,3.63236957 1.51787273,3.63830435 L1.51787273,3.63830435 C1.55338182,3.64423913 1.58889091,3.64932609 1.6244,3.653 L1.6244,3.653 C2.6691,3.84828261 3.6673,4.35047826 4.47527273,5.16071739 L4.47527273,5.16071739 C4.53360909,5.21893478 4.59025455,5.27913043 4.64520909,5.33904348 L4.64520909,5.33904348 C4.81035455,5.50436957 5.07723636,5.50436957 5.24238182,5.33904348 L5.24238182,5.33904348 C5.39653636,5.18445652 5.40611818,4.94 5.27197273,4.77382609 L5.27197273,4.77382609 C5.26239091,4.76223913 5.25280909,4.75093478 5.24238182,4.74047826 L5.24238182,4.74047826 C5.22406364,4.72182609 5.20377273,4.706 5.18348182,4.69186957 L5.18348182,4.69186957 C5.14205455,4.65286957 5.10147273,4.61330435 5.06117273,4.57317391 L5.06117273,4.57317391 C4.27095455,3.78102174 3.77467273,2.80630435 3.57063636,1.7841087 L3.57063636,1.7841087 C3.56781818,1.72673913 3.56133636,1.66936957 3.55231818,1.61256522 L3.55231818,1.61256522 C3.54245455,1.54982609 3.52864545,1.48736957 3.5123,1.42547826 L3.5123,1.42547826 C3.43367273,1.13834783 3.28261818,0.867043478 3.05800909,0.64123913 L3.05800909,0.64123913 C2.71334545,0.295608696 2.26130909,0.122652174 1.80955455,0.122652174 L1.80955455,0.122652174 C1.3578,0.122652174 0.906045455,0.295608696 0.561381818,0.64123913 L0.561381818,0.64123913 Z" id="path-5"></path>
        <path d="M4.76357273,0.304934783 C4.7523,0.314543478 4.74102727,0.324152174 4.7306,0.335173913 L4.7306,0.335173913 C4.712,0.353543478 4.69621818,0.373043478 4.68156364,0.393956522 L4.68156364,0.393956522 C4.64323636,0.435217391 4.60406364,0.475913043 4.56376364,0.516326087 L4.56376364,0.516326087 C3.77382727,1.30876087 2.80183636,1.80671739 1.7825,2.01047826 L1.7825,2.01047826 C1.72529091,2.01386957 1.66808182,2.02036957 1.61115455,2.02969565 L1.61115455,2.02969565 C1.54859091,2.03930435 1.48630909,2.05315217 1.42487273,2.0701087 L1.42487273,2.0701087 C1.13826364,2.1483913 0.867718182,2.29986957 0.642545455,2.5251087 L0.642545455,2.5251087 C-0.0467818182,3.21665217 -0.0467818182,4.33747826 0.642545455,5.02873913 L0.642545455,5.02873913 C1.33215455,5.72 2.44956364,5.72 3.13917273,5.02873913 L3.13917273,5.02873913 C3.38181818,4.78541304 3.53907273,4.4881087 3.61093636,4.17554348 L3.61093636,4.17554348 C3.61854545,4.14021739 3.62587273,4.1048913 3.63122727,4.06956522 L3.63122727,4.06956522 C3.63742727,4.03395652 3.64193636,3.99834783 3.64616364,3.96273913 L3.64616364,3.96273913 C3.8409,2.9153913 4.34169091,1.9141087 5.14966364,1.10358696 L5.14966364,1.10358696 C5.208,1.04536957 5.26746364,0.988847826 5.32777273,0.93373913 L5.32777273,0.93373913 L5.32749091,0.933456522 C5.49207273,0.768130435 5.49207273,0.500217391 5.32749091,0.335173913 L5.32749091,0.335173913 C5.24491818,0.252369565 5.13698182,0.211108696 5.02876364,0.211108696 L5.02876364,0.211108696 C4.93463636,0.211108696 4.84079091,0.242478261 4.76357273,0.304934783 L4.76357273,0.304934783 Z" id="path-7"></path>
        <path d="M11.2823091,0.267913043 C8.11157273,0.613543478 5.22998182,1.97402174 3.1682,4.0981087 L3.1682,4.0981087 C2.35430909,4.9366087 1.69119091,5.87345652 1.19688182,6.88265217 L1.19688182,6.88265217 C0.526154545,8.2516087 0.186,9.70506522 0.186,11.2023261 L0.186,11.2023261 C0.186,13.13 0.771054545,15.0305435 1.87803636,16.6990652 L1.87803636,16.6990652 C2.43857273,17.5443478 3.35504545,18.6089348 4.19852727,19.3589783 L4.19852727,19.3589783 L4.19852727,19.3606739 L3.81750909,22.3645217 C3.80229091,22.4055 3.78594545,22.445913 3.77664545,22.4891522 L3.77664545,22.4891522 C3.76790909,22.5281522 3.76537273,22.5688478 3.76114545,22.6092609 L3.76114545,22.6092609 C3.75889091,22.6397826 3.75212727,22.6697391 3.75212727,22.7013913 L3.75212727,22.7013913 C3.75212727,22.7347391 3.75889091,22.7663913 3.76199091,22.7994565 L3.76199091,22.7994565 C3.81215455,23.2937391 4.22304545,23.6811957 4.72919091,23.6811957 L4.72919091,23.6811957 C4.90560909,23.6811957 5.06878182,23.6306087 5.21138182,23.5483696 L5.21138182,23.5483696 C5.21589091,23.5458261 5.22096364,23.5435652 5.22519091,23.5410217 L5.22519091,23.5410217 C5.24632727,23.528587 5.26746364,23.5178478 5.28747273,23.5037174 L5.28747273,23.5037174 L6.19774545,23.0456087 L8.91080909,21.6800435 C9.6906,21.9047174 10.4644727,22.048 11.2803364,22.1378696 L11.2803364,22.1378696 C11.8107182,22.1963696 12.3487091,22.2263261 12.8805,22.2263261 L12.8805,22.2263261 C13.4221545,22.2263261 13.9841,22.1935435 14.5497091,22.1291087 L14.5497091,22.1291087 C15.6626091,22.0022174 16.7329545,21.7447609 17.7489091,21.3793478 L17.7489091,21.3793478 C17.639,21.3423261 17.5310636,21.2948478 17.4265091,21.2349348 L17.4265091,21.2349348 C16.8048182,20.8785652 16.4832636,20.2003043 16.5469545,19.5291087 L16.5469545,19.5291087 C15.8209909,19.7602826 15.0626182,19.9261739 14.2791636,20.0154783 L14.2791636,20.0154783 C13.8034545,20.0697391 13.3328182,20.0971522 12.8805,20.0971522 L12.8805,20.0971522 C12.4355091,20.0971522 11.9854455,20.0722826 11.5413,20.0233913 L11.5413,20.0233913 C11.4488636,20.0135 11.3564273,19.9988043 11.2639909,19.9863696 L11.2639909,19.9863696 C10.6541364,19.9049783 10.0516091,19.7800652 9.46909091,19.6093696 L9.46909091,19.6093696 C9.35072727,19.5715 9.22475455,19.552 9.09624545,19.552 L9.09624545,19.552 C8.89502727,19.552 8.70029091,19.605413 8.50301818,19.708 L8.50301818,19.708 C8.47737273,19.7212826 8.45172727,19.7323043 8.42608182,19.7472826 L8.42608182,19.7472826 L6.19774545,21.0642391 L6.10136364,21.1216087 L6.09882727,21.1227391 C6.05035455,21.151 6.0233,21.1617391 5.9985,21.1617391 L5.9985,21.1617391 C5.91649091,21.1617391 5.85026364,21.0925 5.85026364,21.0071522 L5.85026364,21.0071522 L5.93621818,20.6592609 C5.96045455,20.5671304 5.99455455,20.4379783 6.03513636,20.2805652 L6.03513636,20.2805652 C6.08360909,20.0960217 6.14025455,19.8789783 6.19774545,19.6602391 L6.19774545,19.6602391 C6.26115455,19.4183261 6.32456364,19.1744348 6.37867273,18.9675652 L6.37867273,18.9675652 C6.40121818,18.8870217 6.42404545,18.7903696 6.42404545,18.6818478 L6.42404545,18.6818478 C6.42404545,18.3814348 6.28116364,18.0979783 6.04246364,17.9238913 L6.04246364,17.9238913 C5.921,17.8340217 5.79981818,17.7396304 5.67243636,17.6356304 L5.67243636,17.6356304 C5.47741818,17.4759565 5.29057273,17.3100652 5.11105455,17.1393696 L5.11105455,17.1393696 C4.60631818,16.6592174 4.1633,16.1352609 3.79073636,15.5737174 L3.79073636,15.5737174 C2.91456364,14.2525217 2.45097273,12.7532826 2.45097273,11.2379348 L2.45097273,11.2379348 C2.45097273,10.0617174 2.71926364,8.91828261 3.24795455,7.83843478 L3.24795455,7.83843478 C3.64334545,7.03215217 4.17513636,6.28126087 4.8298,5.60695652 L4.8298,5.60695652 C6.52465455,3.86043478 8.90827273,2.74073913 11.5413,2.4538913 L11.5413,2.4538913 C11.9989727,2.40415217 12.4498818,2.37843478 12.8805,2.37843478 L12.8805,2.37843478 C13.3325364,2.37843478 13.8028909,2.40584783 14.2791636,2.4603913 L14.2791636,2.4603913 C16.8997909,2.75882609 19.2693182,3.88445652 20.9514909,5.629 L20.9514909,5.629 C21.6030545,6.305 22.1323091,7.05758696 22.5246,7.86584783 L22.5246,7.86584783 C23.0448364,8.93834783 23.3086182,10.0730217 23.3086182,11.2379348 L23.3086182,11.2379348 C23.3086182,11.3586087 23.3010091,11.4795652 23.2953727,11.6002391 L23.2953727,11.6002391 C23.9748364,11.1831087 24.8729909,11.2647826 25.4619909,11.8548696 L25.4619909,11.8548696 C25.4915818,11.8851087 25.5166636,11.9176087 25.5434364,11.9489783 L25.5434364,11.9489783 C25.5626,11.7008478 25.5738727,11.4518696 25.5738727,11.2023261 L25.5738727,11.2023261 C25.5738727,9.71891304 25.2390727,8.27704348 24.5790545,6.91713043 L24.5790545,6.91713043 C24.0886909,5.9051087 23.4286727,4.96628261 22.6184455,4.12552174 L22.6184455,4.12552174 C20.5716,2.00313043 17.7057909,0.635586957 14.5497091,0.275543478 L14.5497091,0.275543478 C13.9829727,0.211108696 13.4213091,0.178326087 12.8805,0.178326087 L12.8805,0.178326087 C12.3644909,0.178326087 11.8270636,0.208282609 11.2823091,0.267913043 L11.2823091,0.267913043 Z" id="path-9"></path>
    </defs>
    <g id="企业微信" stroke="none" stroke-width="1" fill="none" fill-rule="evenodd">
        <circle id="Oval-Copy" fill-opacity="0" fill="#000000" cx="24" cy="24" r="24"></circle>
        <g id="Group" transform="translate(9.000000, 13.000000)">
            <g id="Group-12" transform="translate(20.290909, 20.347826)">
                <mask id="mask-2" fill="white">
                    <use xlink:href="#path-1"></use>
                </mask>
                <g id="Clip-11"></g>
                <polygon id="Fill-10" fill="#FB6500" mask="url(#mask-2)" points="0.0276181818 5.65217391 5.72090909 5.65217391 5.72090909 -0.0610434783 0.0276181818 -0.0610434783"></polygon>
            </g>
            <g id="Group-15" transform="translate(25.363636, 17.239130)">
                <mask id="mask-4" fill="white">
                    <use xlink:href="#path-3"></use>
                </mask>
                <g id="Clip-14"></g>
                <polygon id="Fill-13" fill="#0082EF" mask="url(#mask-4)" points="-0.0574909091 5.564 5.63974545 5.564 5.63974545 -0.14526087 -0.0574909091 -0.14526087"></polygon>
            </g>
            <g id="Group-18" transform="translate(22.263636, 12.152174)">
                <mask id="mask-6" fill="white">
                    <use xlink:href="#path-5"></use>
                </mask>
                <g id="Clip-17"></g>
                <polygon id="Fill-16" fill="#2DBC00" mask="url(#mask-6)" points="-0.141472727 5.64963043 5.55153636 5.64963043 5.55153636 -0.0635869565 -0.141472727 -0.0635869565"></polygon>
            </g>
            <g id="Group-21" transform="translate(17.190909, 15.260870)">
                <mask id="mask-8" fill="white">
                    <use xlink:href="#path-7"></use>
                </mask>
                <g id="Clip-20"></g>
                <polygon id="Fill-19" fill="#FFCC00" mask="url(#mask-8)" points="-0.0605909091 5.73356522 5.63664545 5.73356522 5.63664545 0.0243043478 -0.0605909091 0.0243043478"></polygon>
            </g>
            <g id="Group-24">
                <mask id="mask-10" fill="white">
                    <use xlink:href="#path-9"></use>
                </mask>
                <g id="Clip-23"></g>
                <polygon id="Fill-22" fill="#0082EF" mask="url(#mask-10)" points="0 23.8674348 25.7601545 23.8674348 25.7601545 -0.00819565217 0 -0.00819565217"></polygon>
            </g>
        </g>
    </g>
</svg>