<svg width="48" height="48" xmlns="http://www.w3.org/2000/svg" xmlns:xlink="http://www.w3.org/1999/xlink"><defs><path d="M.337.25a.424.424 0 0 0-.03.565.459.459 0 0 0 .089.082 5.448 5.448 0 0 1 1.612 2.907 1.776 1.776 0 0 0 .059.359 1.761 1.761 0 0 0 2.95.784c.69-.691.69-1.812 0-2.503a1.755 1.755 0 0 0-.85-.473A5.417 5.417 0 0 1 1.104.428a4.794 4.794 0 0 1-.17-.179.42.42 0 0 0-.597 0z" id="a"/><path d="M2.44.56c-.243.244-.4.54-.471.853a1.954 1.954 0 0 0-.036.213A5.445 5.445 0 0 1 .43 4.485a5.568 5.568 0 0 1-.178.17.424.424 0 0 0 0 .598.421.421 0 0 0 .564.03.46.46 0 0 0 .082-.089c.038-.04.077-.082.118-.122a5.418 5.418 0 0 1 2.78-1.494 1.629 1.629 0 0 0 .358-.06c.287-.078.558-.23.783-.455a1.774 1.774 0 0 0 0-2.503A1.757 1.757 0 0 0 3.688.04c-.451 0-.903.173-1.248.519z" id="c"/><path d="M.561.641a1.775 1.775 0 0 0 0 2.504c.243.243.54.4.851.472a1.722 1.722 0 0 0 .212.036 5.42 5.42 0 0 1 2.851 1.508c.059.058.115.118.17.178a.422.422 0 0 0 .597 0 .424.424 0 0 0 .03-.565.41.41 0 0 0-.088-.082A5.446 5.446 0 0 1 3.57 1.784a1.874 1.874 0 0 0-.058-.359 1.772 1.772 0 0 0-.455-.784A1.758 1.758 0 0 0 1.81.123C1.358.123.906.296.56.64z" id="e"/><path d="M4.764.305a.42.42 0 0 0-.082.089 5.414 5.414 0 0 1-2.9 1.617 1.634 1.634 0 0 0-.358.06 1.744 1.744 0 0 0-.781.454 1.774 1.774 0 0 0 0 2.504 1.766 1.766 0 0 0 2.968-.853 1.985 1.985 0 0 0 .035-.213 5.448 5.448 0 0 1 1.504-2.86 5.74 5.74 0 0 1 .178-.17.424.424 0 0 0 0-.598.42.42 0 0 0-.564-.03z" id="g"/><path d="M11.282.268c-3.17.346-6.052 1.706-8.114 3.83a10.86 10.86 0 0 0-1.971 2.785 9.743 9.743 0 0 0-1.011 4.32c0 1.927.585 3.828 1.692 5.496a15.1 15.1 0 0 0 2.32 2.66v.002l-.38 3.004c-.016.04-.032.08-.041.124-.01.04-.012.08-.016.12-.002.03-.009.06-.009.092 0 .034.007.065.01.098.05.495.461.882.967.882a.95.95 0 0 0 .482-.133l.014-.007c.021-.012.042-.023.062-.037l.91-.458 2.714-1.366c.78.225 1.553.368 2.37.458a14.695 14.695 0 0 0 3.269-.009 14.196 14.196 0 0 0 3.199-.75 1.77 1.77 0 0 1-1.202-1.85 11.92 11.92 0 0 1-2.268.486 12.23 12.23 0 0 1-2.738.008c-.092-.01-.185-.024-.277-.037a12.072 12.072 0 0 1-1.795-.377 1.224 1.224 0 0 0-.373-.057 1.27 1.27 0 0 0-.593.156c-.026.013-.051.024-.077.04l-2.228 1.316-.097.058H6.1c-.049.029-.076.04-.1.04a.151.151 0 0 1-.149-.155l.086-.348.1-.378c.048-.185.104-.402.162-.62l.18-.693a.94.94 0 0 0-.336-1.044 10.106 10.106 0 0 1-.931-.785 9.136 9.136 0 0 1-1.32-1.565c-.876-1.321-1.34-2.82-1.34-4.336 0-1.176.268-2.32.797-3.4A8.717 8.717 0 0 1 4.83 5.607c1.695-1.747 4.078-2.866 6.71-3.153.458-.05.909-.076 1.34-.076.452 0 .922.028 1.398.082 2.62.299 4.99 1.424 6.672 3.169a8.703 8.703 0 0 1 1.574 2.237 7.67 7.67 0 0 1 .784 3.372c0 .12-.008.242-.014.362a1.759 1.759 0 0 1 2.167.255c.03.03.055.063.081.094a9.742 9.742 0 0 0-.964-5.032 10.836 10.836 0 0 0-1.96-2.791c-2.047-2.123-4.913-3.49-8.07-3.85A14.844 14.844 0 0 0 12.88.178c-.517 0-1.054.03-1.599.09z" id="i"/></defs><g fill="none" fill-rule="evenodd"><circle cx="24" cy="24" r="24"/><g transform="translate(29.29 33.348)"><mask id="b" fill="#fff"><use xlink:href="#a"/></mask><path fill="#FB6500" mask="url(#b)" d="M.028 5.652H5.72V-.06H.028z"/></g><g transform="translate(34.364 30.24)"><mask id="d" fill="#fff"><use xlink:href="#c"/></mask><path fill="#0082EF" mask="url(#d)" d="M-.057 5.564H5.64v-5.71H-.057z"/></g><g transform="translate(31.264 25.152)"><mask id="f" fill="#fff"><use xlink:href="#e"/></mask><path fill="#2DBC00" mask="url(#f)" d="M-.141 5.65h5.693V-.064H-.141z"/></g><g transform="translate(26.19 28.26)"><mask id="h" fill="#fff"><use xlink:href="#g"/></mask><path fill="#FC0" mask="url(#h)" d="M-.06 5.734h5.697V.024H-.061z"/></g><g transform="translate(9 13)"><mask id="j" fill="#fff"><use xlink:href="#i"/></mask><path fill="#0082EF" mask="url(#j)" d="M0 23.867h25.76V-.008H0z"/></g></g></svg>