<?xml version="1.0" encoding="UTF-8"?>
<svg width="48px" height="48px" viewBox="0 0 48 48" version="1.1" xmlns="http://www.w3.org/2000/svg" xmlns:xlink="http://www.w3.org/1999/xlink">
    <!-- Generator: Sketch 56.2 (81672) - https://sketch.com -->
    <title>小游戏</title>
    <desc>Created with Sketch.</desc>
    <defs>
        <polygon id="path-1" points="0.000107277453 0.361898626 23.2811082 0.361898626 23.2811082 23.0459672 0.000107277453 23.0459672"></polygon>
        <polygon id="path-3" points="0.0866754479 0.0321965718 7.56121653 0.0321965718 7.56121653 8.48982083 0.0866754479 8.48982083"></polygon>
    </defs>
    <g id="小游戏" stroke="none" stroke-width="1" fill="none" fill-rule="evenodd">
        <circle id="Oval-Copy-2" fill-opacity="0" fill="#000000" cx="24" cy="24" r="24"></circle>
        <g id="Group" transform="translate(10.000000, 11.000000)">
            <g id="Group-3" transform="translate(-0.000000, 3.163172)">
                <mask id="mask-2" fill="white">
                    <use xlink:href="#path-1"></use>
                </mask>
                <g id="Clip-2"></g>
                <path d="M18.5167933,10.3873295 C17.5543662,12.1578451 15.0301252,12.6688803 12.8785561,11.5286536 C10.726987,10.388427 9.76270769,8.02859309 10.7247643,6.25771171 C11.6871914,4.48719614 14.2114324,3.97616096 16.3633719,5.11675343 C18.514941,6.25698009 19.4792204,8.61681397 18.5167933,10.3873295 M18.8531612,3.86678407 C13.8076428,-0.661199773 6.48793656,-0.823253161 2.50449606,3.50499896 C-1.47894443,7.83325109 -0.617649989,15.0126186 4.42786843,19.5406024 C9.47338684,24.0689521 16.793093,24.2313713 20.776904,19.9031191 C24.759974,15.574867 23.89905,8.39513371 18.8531612,3.86678407" id="Fill-1" fill="#FA7402" mask="url(#mask-2)"></path>
            </g>
            <g id="Group-6" transform="translate(21.050232, -0.000000)">
                <mask id="mask-4" fill="white">
                    <use xlink:href="#path-3"></use>
                </mask>
                <g id="Clip-5"></g>
                <path d="M2.70520545,0.129966828 C4.67377262,-0.367291336 6.77088567,1.07905022 7.38879498,3.36071394 C8.00670428,5.64201992 6.91128593,7.89470673 4.94271876,8.39196489 C2.97378114,8.88922306 0.877038535,7.44252377 0.259129231,5.16121778 C-0.358780072,2.8799118 0.736267831,0.627224993 2.70520545,0.129966828" id="Fill-4" fill="#FA7402" mask="url(#mask-4)"></path>
            </g>
        </g>
    </g>
</svg>