<svg width="26" height="12" viewBox="0 0 26 12" fill="none" xmlns="http://www.w3.org/2000/svg">
  <rect width="26" height="12" rx="6" fill="#FA5151"/>
  <path d="M4.70312 9V3.36328H5.51172L8.41016 7.53125H8.43359V3.36328H9.30078V9H8.49609L5.59375 4.82422H5.57031V9H4.70312ZM10.3438 9V3.36328H13.9219V4.11719H11.2188V5.76172H13.7773V6.49609H11.2188V8.24609H13.9219V9H10.3438ZM15.9922 9L14.4727 3.36328H15.3828L16.4336 7.78125H16.4492L17.6406 3.36328H18.4688L19.6602 7.78125H19.6797L20.7305 3.36328H21.6406L20.1172 9H19.2773L18.0664 4.75H18.0469L16.832 9H15.9922Z" fill="white"/>
  </svg>
  