<?xml version="1.0" encoding="UTF-8"?>
<svg width="561px" height="80px" viewBox="0 0 561 80" version="1.1" xmlns="http://www.w3.org/2000/svg" xmlns:xlink="http://www.w3.org/1999/xlink">
    <title>Logo</title>
    <g id="Page-1" stroke="none" stroke-width="1" fill="none" fill-rule="evenodd">
        <g id="iPhone-11-Pro-Max" transform="translate(-256.000000, -264.000000)">
            <g id="Logo" transform="translate(256.000125, 263.999937)">
                <path d="M211.223813,7.180875 L216.240688,9.152125 C214.725688,14.4915 213.195063,18.859 211.246938,23.548375 L211.246938,72.6565 L205.980063,72.6565 L205.980063,34.08275 C204.103813,37.18525 202.403813,39.7365 200.167563,42.767125 L196.123188,39.024625 C202.741938,30.355875 208.322563,19.267125 211.223813,7.180875 M239.353063,7.0313125 C240.434938,8.9788125 242.849313,13.4919375 244.292438,16.3781875 L263.268063,16.3781875 L263.268063,21.4288125 L216.369938,21.4288125 L216.369938,16.3781875 L238.159938,16.3781875 C236.788688,13.8525625 235.480563,11.3900625 234.543063,9.8025625 L239.353063,7.0313125 Z M222.0255,32.1788125 L258.01175,32.1788125 L258.01175,27.5613125 L222.0255,27.5613125 L222.0255,32.1788125 Z M222.0255,42.8575625 L258.01175,42.8575625 L258.01175,38.1675625 L222.0255,38.1675625 L222.0255,42.8575625 Z M227.436125,66.0725625 L252.6005,66.0725625 L252.6005,53.6806875 L227.436125,53.6806875 L227.436125,66.0725625 Z M222.0255,48.8463125 L222.0255,70.8569375 L227.43675,70.8569375 L252.6005,70.8569375 L258.01175,70.8569375 L258.01175,48.8463125 L222.0255,48.8463125 Z" id="形状结合" fill="#4C4C4C"></path>
                <path d="M132.710937,23.7500625 L136.991562,26.1850625 C135.662187,29.0644375 134.750937,30.8919375 132.905312,33.9931875 L132.948437,72.6488125 L128.075312,72.6488125 L128.032187,41.3756875 C126.039062,44.1075625 124.780937,45.7013125 122.787187,47.9156875 L118.944062,44.3288125 C123.940312,39.1406875 129.388437,30.9856875 132.710937,23.7500625 Z M174.36075,8.7770625 C174.36075,10.4237072 174.413479,13.324057 174.261729,15.9545346 L174.2345,16.3901875 L188.408875,16.3726875 L188.408875,21.3326875 L185.141375,21.3264375 C184.967625,34.5451875 183.028875,44.6995625 179.621375,52.0839375 C182.309321,57.222375 186.845339,63.5632208 190.256511,67.8869837 L190.63075,68.3589375 L186.78825,72.2726875 C182.545125,65.9295625 178.917625,60.2645625 177.187,57.0258125 C173.418303,64.3228072 169.348467,69.8201482 167.415625,72.2275754 L167.292625,72.3801875 L163.441375,68.9758125 C167.167625,64.5339375 171.226375,58.6126875 174.470125,51.9133125 C172.20825,46.8289375 171.387,44.9976875 169.55075,38.3220625 C168.561821,40.454875 167.749114,41.9830383 166.825893,43.4770197 L166.61075,43.8214375 L163.05575,40.6439375 C165.0795,37.6051875 166.90075,32.4964375 168.043875,27.2358125 C169.035312,22.6767708 169.801315,16.2552646 169.799341,9.479234 L169.796375,8.7770625 L174.36075,8.7770625 Z M160.9995,42.340375 L160.9995,55.73475 C161.411236,55.3806181 162.227336,54.62562 163.071025,53.8350975 L163.433197,53.4951924 C164.588513,52.4092415 165.694657,51.35453 165.784829,51.2685227 L165.79075,51.262875 L169.257,54.502875 C168.369177,55.2527241 166.724114,56.7113441 165.024007,58.2331611 L164.559504,58.6492839 C161.994881,60.9485529 159.450163,63.2580309 159.318006,63.3779901 L159.312625,63.382875 L156.1145,60.392875 C156.263711,59.6534013 156.314417,57.1868362 156.323117,54.5786703 L156.32445,53.9245963 L156.324362,53.3760553 C156.321088,50.3642534 156.27355,47.48679 156.268128,47.1677715 L156.267625,47.1385 L145.693875,47.141 L145.693875,53.706 C145.693875,60.5179401 144.703348,64.6824838 140.084874,69.8122242 L139.785125,70.141 L136.196375,66.806 C139.257944,63.4991383 140.916789,60.2976455 140.985992,53.1666758 L140.98825,52.696 L140.99325,42.340375 L160.9995,42.340375 Z M180.82075,21.3289375 L173.533875,21.3289375 C173.257,24.5758125 172.552,28.4945625 171.82575,30.9470625 C173.30075,37.2620625 174.385125,40.5789375 176.8195,46.4520625 C179.087625,40.4645625 180.457625,32.0658125 180.82075,21.3289375 Z M161.824875,32.5650625 L161.824875,37.2613125 L138.94425,37.2613125 L138.94425,32.5650625 L161.824875,32.5650625 Z M131.904062,7.258375 L136.406562,9.829 C133.157812,15.6615 127.546562,23.34025 122.600312,28.87775 L118.760312,25.334 C123.559687,20.0915 128.950312,12.795875 131.904062,7.258375 Z M153.855937,7.0384375 L153.855937,23.4784375 L158.379062,23.4784375 L158.379062,12.2153125 L163.055937,12.2271875 L163.055937,27.9215625 L140.120937,27.9215625 L140.120937,12.2271875 L144.586562,12.2303125 L144.586562,23.4784375 L149.110312,23.4784375 L149.110312,7.0384375 L153.855937,7.0384375 Z" id="形状结合" fill="#4C4C4C"></path>
                <g id="服务市场" transform="translate(272.408875, 5.578062)" fill="#4C4C4C" fill-rule="nonzero">
                    <path d="M30.149,67.014 L35.113,67.014 L35.113,61.904 L37.668,64.824 C41.61,61.758 44.895,58.838 47.742,55.772 C50.881,59.422 54.823,62.707 59.86,66.065 L63.072,61.612 C58.108,58.327 54.093,55.407 50.954,51.976 C55.261,46.355 57.889,40.369 59.422,33.434 L59.422,28.543 L35.113,28.543 L35.113,10.074 L53.217,10.074 L52.925,15.111 C52.779,17.958 51.757,18.615 48.107,18.615 L39.931,18.615 L40.953,23.36 L50.297,23.36 C56.064,23.36 57.816,21.9 58.035,16.425 C58.254,13.14 58.473,6.57 58.546,4.964 L30.149,4.964 L30.149,67.014 Z M11.169,60.298 L12.191,65.262 L18.031,65.262 C23.652,65.262 25.404,63.729 25.404,58.546 L25.404,5.037 L5.621,5.037 L5.621,32.12 C5.621,51.611 4.453,56.429 0,64.751 L4.672,67.16 C8.395,59.422 9.782,52.195 10.293,43.581 L20.44,43.581 L20.44,56.502 C20.44,59.641 19.856,60.298 16.425,60.298 L11.169,60.298 Z M41.756,34.164 L37.449,35.697 C39.347,41.975 41.537,47.085 44.603,51.684 C41.975,54.458 38.836,57.232 35.113,59.933 L35.113,33.434 L54.531,33.434 C53.217,38.69 51.1,43.435 47.742,47.888 C45.26,44.238 43.362,39.858 41.756,34.164 Z M10.512,34.31 L10.512,26.718 L20.44,26.718 L20.44,38.836 L10.439,38.836 C10.512,37.376 10.512,35.916 10.512,34.31 Z M10.512,10.074 L20.44,10.074 L20.44,21.973 L10.512,21.973 L10.512,10.074 Z" id="Shape"></path>
                    <path d="M138.224,37.303 L139.611,32.12 C128.88,30.295 120.485,28.178 113.696,25.404 C120.485,21.608 126.106,17.301 131.216,12.118 L131.216,7.665 L98.585,7.665 C99.899,5.913 101.14,4.161 102.308,2.336 L97.417,0.146 C93.475,6.57 85.591,15.038 78.072,20.586 L81.138,24.382 C84.715,21.754 88.146,18.98 91.139,15.987 C94.789,19.564 98.512,22.63 102.673,25.185 C95.3,28.251 86.613,30.879 76.539,33.069 L78.364,38.252 C90.409,35.332 100.118,32.047 108.221,28.251 C116.032,32.047 125.449,34.821 138.224,37.303 Z M104.936,60.444 L105.958,65.189 L117.419,65.189 C125.449,65.189 128.077,62.999 128.734,57.013 C129.099,54.312 130.194,43.07 130.34,40.734 L104.498,40.734 C104.936,37.741 105.155,34.894 105.374,33.434 L99.68,33.361 C99.534,34.821 99.315,37.668 98.877,40.661 L98.877,40.734 L80.481,40.734 L80.481,45.479 L97.855,45.479 C95.665,53.144 90.336,57.451 77.561,62.78 L80.7,67.306 C95.008,60.882 101.14,55.553 103.622,45.479 L124.427,45.479 C124.135,47.961 123.624,52.779 123.332,54.823 C122.748,59.349 121.288,60.444 115.521,60.444 L104.936,60.444 Z M94.789,12.191 L123.113,12.191 C119.171,16.133 114.134,19.637 107.929,22.776 C102.673,19.929 98.366,16.571 94.643,12.337 L94.789,12.191 Z" id="Shape"></path>
                    <path d="M214.179,15.111 L214.179,9.928 L184.322,9.928 L188.702,8.541 C187.826,6.57 185.344,1.752 184.468,0 L179.139,1.971 C180.088,3.942 182.132,7.884 183.081,9.928 L154.027,9.928 L154.027,15.111 L181.402,15.111 L181.402,25.331 L159.721,25.331 L159.721,59.349 L165.196,59.349 L165.196,30.66 L181.402,30.66 L181.402,66.722 L186.877,66.722 L186.877,30.66 L203.01,30.66 L203.01,47.888 C203.01,52.268 202.572,53.071 198.338,53.071 L191.111,53.071 L192.206,58.619 L199.652,58.619 C206.587,58.619 208.558,56.721 208.558,49.713 L208.558,25.331 L186.877,25.331 L186.877,15.111 L214.179,15.111 Z" id="Path"></path>
                    <path d="M228.741,50.516 L229.909,55.772 C231.953,54.969 245.531,50.078 249.108,48.837 C247.064,51.246 244.582,53.655 241.662,56.064 L245.677,59.422 C255.532,51.246 260.861,41.975 263.343,30.587 L270.57,30.587 C267.869,45.917 263.635,54.166 252.758,63.437 L257.211,66.722 C268.599,56.867 273.198,47.231 275.461,30.587 L282.323,30.587 C282.104,34.237 281.082,50.005 280.79,53.29 C280.425,57.816 279.184,58.911 274.512,58.911 L267.431,58.911 L268.453,64.167 L275.68,64.167 C283.199,64.167 285.608,62.269 286.046,55.188 C286.411,50.735 287.652,28.616 287.798,25.623 L260.861,25.623 L283.783,10.804 L283.783,5.475 L252.831,5.475 L252.831,10.658 L274.001,10.658 L250.422,26.134 L250.422,30.587 L258.379,30.587 C256.7,37.011 254.145,42.705 249.838,48.034 L249.619,46.574 L249.327,43.435 C248.67,43.727 246.115,44.603 243.049,45.698 L243.049,23.725 L250.641,23.725 L250.641,18.542 L243.049,18.542 L243.049,0.949 L237.647,0.949 L237.647,18.542 L229.982,18.542 L229.982,23.725 L237.647,23.725 L237.647,47.596 C233.486,48.983 229.69,50.297 228.741,50.516 Z" id="Path"></path>
                </g>
                <g id="logo" transform="translate(0.000000, 0.000000)">
                    <path d="M28.2068125,7.32675 L28.2068125,7.32675 C27.4830625,5.81675 26.3799375,4.472375 24.9905625,3.35175 C23.7605625,2.359875 22.3049375,1.55675 20.6955625,0.986125 L20.6718125,0.973 L20.6543125,0.969875 C18.9530625,0.373 17.0811875,0.038 15.1111875,0.038 C11.2724375,0.038 7.7968125,1.29675 5.2599375,3.331125 L37.4249375,72.3855 C38.1486875,73.8955 39.2949375,75.253625 40.6836875,76.37425 C41.9136875,77.366125 43.3699375,78.16925 44.9780625,78.73925 L45.0030625,78.752375 L45.0199375,78.7555 C46.7211875,79.352375 48.5930625,79.687375 50.5630625,79.687375 C54.4018125,79.687375 57.8774375,78.42925 60.4143125,76.39425 L28.2068125,7.32675 Z" id="Fill-17" fill="#07C160"></path>
                    <path d="M56.319,7.32675 L56.319,7.32675 C55.59525,5.81675 54.492125,4.472375 53.10275,3.35175 C51.87275,2.359875 50.417125,1.55675 48.808375,0.986125 L48.784,0.973 L48.7665,0.969875 C47.06525,0.373 45.193375,0.038 43.223375,0.038 C39.384625,0.038 35.909,1.29675 33.372125,3.331125 L65.55025,72.413625 C66.273375,73.923 67.407125,75.253625 68.795875,76.37425 C70.025875,77.366125 71.482125,78.16925 73.09025,78.73925 L73.11525,78.752375 L73.132125,78.7555 C74.833375,79.352375 76.70525,79.687375 78.67525,79.687375 C82.514,79.687375 85.989625,78.42925 88.5265,76.39425 L56.319,7.32675 Z" id="Fill-18" fill="#8385F3"></path>
                    <path d="M77.60225,37.92 L93.74975,3.29375 C91.212875,1.25875 87.73725,0 83.897875,0 C82.716,0 81.57475,0.13375 80.479125,0.359375 C79.749125,0.51 79.03475,0.693125 78.35475,0.931875 L78.33725,0.935 L78.3135,0.94875 C76.704125,1.51875 75.2485,2.321875 74.0185,3.31375 C72.629125,4.434375 71.526,5.77875 70.802875,7.28875 L67.060375,15.31375 L77.60225,37.92 Z" id="Fill-19" fill="#07C160"></path>
                    <path d="M16.1475,41.767625 L0,76.393875 C2.536875,78.428875 6.0125,79.687625 9.851875,79.687625 C11.03375,79.687625 12.175,79.553875 13.270625,79.32825 C14.000625,79.177625 14.715,78.9945 15.395,78.75575 L15.4125,78.752625 L15.43625,78.738875 C17.045625,78.168875 18.50125,77.36575 19.73125,76.373875 C21.120625,75.25325 22.223125,73.908875 22.946875,72.398875 L26.689375,64.373875 L16.1475,41.767625 Z" id="Fill-20" fill="#8385F3"></path>
                </g>
            </g>
        </g>
    </g>
</svg>