<?xml version="1.0" encoding="utf-8"?>
<!-- Generator: Adobe Illustrator 22.1.0, SVG Export Plug-In . SVG Version: 6.00 Build 0)  -->
<svg version="1.1" id="图层_1" xmlns="http://www.w3.org/2000/svg" xmlns:xlink="http://www.w3.org/1999/xlink" x="0px" y="0px"
	 viewBox="0 0 151 40" style="enable-background:new 0 0 151 40;" xml:space="preserve">
<style type="text/css">
	.st0{fill:#5E5E5E;}
	.st1{fill:#07C160;}
</style>
<g>
	<g>
		<path class="st0" d="M64.3,6l2.3,0.8c-2.4,5.7-6.1,10.5-11,14.5l-1.5-2C58.8,15.5,62.2,11.2,64.3,6z M73.1,21.5
			c2.1,3,5.5,8.1,7.4,11.1L78.5,34c-0.5-0.8-1.1-1.7-1.7-2.7c-3.2,0.2-14.6,0.7-16.1,0.8c-1,0.1-2.1,0.2-3.1,0.5l-0.7-2.4
			c1.3-0.3,1.7-0.5,2.2-1.1c2.7-3.1,5.9-8.4,8.2-13.2l2.4,0.9c-2.2,4.6-5.3,9.8-8,13c1.6,0,10.1-0.5,13.8-0.7
			c-1.5-2.3-3.1-4.7-4.1-6.3L73.1,21.5z M73.1,5.5c2.5,6.5,5.2,10.1,10.4,13.6l-1.6,2c-5.3-3.8-8.5-7.8-11-14.9L73.1,5.5z"/>
		<path class="st0" d="M94.9,18.2l0.2-2.8h2.5c0,0.5-0.1,2.6-0.2,3l-0.1,1.3l5.4,5.8l-1.8,1.8c-1-1.2-2.7-3.1-4.1-4.6
			c-1,4.2-3.1,7.5-6.9,11.5l-2.1-1.7C92.6,27.6,94.5,24.1,94.9,18.2z M101.2,5.6h2.4c2.9,4.4,7.3,7.8,13.4,10.8l-1.3,2.4
			c-5.9-3-10.2-6.4-13.2-10.6c-2.9,4-7.2,7.4-13.3,10.6l-1.4-2.4C94.1,13.4,98.4,9.9,101.2,5.6z M105.9,18.4c0.1-0.9,0.2-2.5,0.2-3
			h2.5l-0.2,3.1l-0.1,0.6c0.9,5.4,3.7,9.4,8.8,13l-1.7,2c-3.8-2.8-6.6-6.1-8.1-10.1c-1.3,3.9-3.8,7-7.9,10.5l-2-1.9
			C103.2,28,105.5,24.2,105.9,18.4z"/>
		<path class="st0" d="M127.2,20.2h-5.9v-2.1h29.4v2.1H130l-0.7,3.3h16.6c-0.1,0.9-0.4,4.8-0.5,5.7c-0.4,3.7-1.5,4.5-6.1,4.5h-6.9
			l-0.5-2.4h6.7c3.2,0,3.8-0.4,4.1-2.7c0.1-0.7,0.3-2.3,0.3-3H126L127.2,20.2z M146.3,6.8v8.4h-20.7V6.8H146.3z M128.2,13.1h15.5
			V8.9h-15.5V13.1z"/>
	</g>
	<g>
		<g>
			<path class="st1" d="M38.7,15.3c-3.7-4.9-10.2-6.2-16.1-4.1c0.2,0.1,0.4,0.1,0.6,0.2c8.7,2.9,13.3,12.3,10.4,21
				c-0.8,2.3-2,4.3-3.5,6c1.9-0.5,3.8-1.3,5.4-2.5C42.1,30.8,43.4,21.4,38.7,15.3z"/>
		</g>
		<g>
			<path class="st1" d="M17,10.4L17,10.4C17,10.4,17,10.4,17,10.4c0.4-0.3,0.7-0.5,1.1-0.8c0,0,0,0,0.1,0c0.4-0.2,0.8-0.4,1.1-0.7
				c0,0,0.1,0,0.1-0.1c0.8-0.4,1.6-0.7,2.4-1c0.1,0,0.1,0,0.2-0.1c0.4-0.1,0.8-0.3,1.2-0.4c0,0,0.1,0,0.1,0c0.4-0.1,0.8-0.2,1.2-0.2
				c0.1,0,0.1,0,0.2,0C25.3,7,25.7,7,26.1,7c0.1,0,0.2,0,0.3,0c0.4,0,0.9-0.1,1.3-0.1c0.5,0,1,0,1.5,0.1c0.1,0,0.1,0,0.2,0
				c0.5,0,0.9,0.1,1.4,0.2c0.1,0,0.2,0,0.2,0c0.5,0.1,0.9,0.2,1.3,0.3c0.1,0,0.1,0,0.2,0.1C33,7.7,33.5,7.8,33.9,8
				c-0.2-0.4-0.4-0.7-0.4-0.7C30.6,2.7,25.8,0,20.6,0c-3.1,0-7.9,1.1-11.5,5.4c-2.4,2.9-3.2,6.3-2.7,9.7c0.3,2.3,1.6,5.4,3.5,7.3
				C10.6,17.5,13.2,13.2,17,10.4z"/>
		</g>
		<g>
			<path class="st1" d="M20.6,30.9c-1.3,0-2.6-0.2-3.8-0.4c-0.1,0-0.3,0-0.5,0c-0.4,0-0.7,0.1-1,0.3l-4,2.6
				c-0.1,0.1-0.2,0.1-0.4,0.1c-0.3,0-0.6-0.3-0.7-0.6c0-0.2,0-0.3,0.1-0.5c0-0.1,0.4-2,0.7-3.2c0-0.1,0.1-0.3,0-0.4
				c0-0.4-0.2-0.8-0.6-1c-4.3-2.9-7.2-7.5-7.8-12.2c-1.1,1.7-1.6,3-2.2,5c-2.1,7.3,2.5,16,9.9,18.4c8.6,2.8,16.7-0.3,19.5-7.6
				c0.3-0.9,0.7-2.4,0.8-3.6C27.7,29.9,24.6,30.9,20.6,30.9z"/>
		</g>
	</g>
</g>
</svg>
