<?xml version="1.0" encoding="UTF-8"?>
<svg width="48px" height="48px" viewBox="0 0 48 48" version="1.1" xmlns="http://www.w3.org/2000/svg" xmlns:xlink="http://www.w3.org/1999/xlink">
    <!-- Generator: Sketch 54.1 (76490) - https://sketchapp.com -->
    <title>notice_icon</title>
    <desc>Created with Sketch.</desc>
    <g id="notice_icon" stroke="none" stroke-width="1" fill="none" fill-rule="evenodd">
        <g id="notic" transform="translate(4.000000, 4.000000)">
            <circle id="Oval" fill="#07C160" cx="20" cy="20" r="20"></circle>
            <path d="M20.8133246,28.0000041 L20.8133246,28.2 C20.8133246,28.7522848 20.3656094,29.2 19.8133246,29.2 C19.2610399,29.2 18.8133246,28.7522848 18.8133246,28.2 L18.8133246,28 L19.3133246,28 L13.0000314,28 C12.7870503,28 12.5796324,27.9319983 12.4079922,27.8059007 C11.962925,27.4789265 11.8671917,26.8530633 12.1941659,26.4079961 C13.2735956,24.9386502 13.8133246,23.4693251 13.8133246,22 L13.8133246,18 C13.8133246,15.3773361 15.4960367,13.1476907 17.8407214,12.3318031 C17.822702,12.2238826 17.8133246,12.1130364 17.8133246,12 C17.8133246,10.8954305 18.7087551,10 19.8133246,10 C20.9178941,10 21.8133246,10.8954305 21.8133246,12 C21.8133246,12.1130364 21.8039472,12.2238826 21.7859279,12.3318031 C24.1306126,13.1476907 25.8133246,15.3773361 25.8133246,18 L25.8133246,22 C25.8133246,23.4693091 26.353042,24.9386183 27.4324767,26.4079274 C27.5585803,26.5795777 27.6265852,26.7870072 27.6265852,27 C27.6265852,27.5523003 27.1788573,28.0000282 26.626557,28.0000282 L20.8133246,28.0000041 Z M19.8133296,26.8 L26.2391555,26.8000266 C25.1648536,25.2355634 24.6133246,23.6303581 24.6133246,22 L24.6133246,18 C24.6133246,15.940861 23.3047122,14.1308753 21.3915544,13.4651475 L20.4356233,13.1325091 L20.6023132,12.134177 C20.6096064,12.0904966 20.6133246,12.0457404 20.6133246,12 C20.6133246,11.5581722 20.2551524,11.2 19.8133246,11.2 C19.3714968,11.2 19.0133246,11.5581722 19.0133246,12 C19.0133246,12.0457404 19.0170429,12.0904966 19.0243361,12.134177 L19.1910259,13.1325091 L18.2350949,13.4651475 C16.3219371,14.1308753 15.0133246,15.940861 15.0133246,18 L15.0133246,22 C15.0133246,23.6303277 14.4618168,25.2355113 13.3875458,26.8000266 L19.8133296,26.8 Z" id="Mask" fill="#FFFFFF" fill-rule="nonzero"></path>
        </g>
    </g>
</svg>