<?xml version="1.0" standalone="no"?><!DOCTYPE svg PUBLIC "-//W3C//DTD SVG 1.1//EN" "http://www.w3.org/Graphics/SVG/1.1/DTD/svg11.dtd"><svg t="1623924532940" class="icon" viewBox="0 0 1024 1024" version="1.1" xmlns="http://www.w3.org/2000/svg" p-id="5704" xmlns:xlink="http://www.w3.org/1999/xlink" width="200" height="200"><defs><style type="text/css"></style></defs><path d="M512 64c247.424 0 448 200.576 448 448S759.424 960 512 960 64 759.424 64 512 264.576 64 512 64zM409 384c-17.673 0-32 14.327-32 32v192c0 17.673 14.327 32 32 32 17.673 0 32-14.327 32-32V416c0-17.673-14.327-32-32-32z m206 0c-17.673 0-32 14.327-32 32v192c0 17.673 14.327 32 32 32 17.673 0 32-14.327 32-32V416c0-17.673-14.327-32-32-32z" fill="#07c160" p-id="5705"></path></svg>