<svg width="16" height="16" viewBox="0 0 16 16" fill="none" xmlns="http://www.w3.org/2000/svg">
<path fill-rule="evenodd" clip-rule="evenodd" d="M1.33301 3.33341C1.33301 2.96522 1.63148 2.66675 1.99967 2.66675H13.9997C14.3679 2.66675 14.6663 2.96522 14.6663 3.33341V12.6667C14.6663 13.0349 14.3679 13.3334 13.9997 13.3334H1.99967C1.63148 13.3334 1.33301 13.0349 1.33301 12.6667V3.33341ZM2.33301 3.66675H13.6663V9.26729L12.1584 7.95394C11.852 7.68708 11.3979 7.68009 11.0834 7.93737L9.54514 9.19595L6.54024 6.57878C6.23386 6.31193 5.77969 6.30493 5.46523 6.56222L2.33301 9.12494V3.66675ZM2.33301 10.417V12.3334H13.6663V10.5934L11.6077 8.80043L10.3101 9.86217L11.234 10.6669H9.71147L5.98957 7.42528L2.33301 10.417Z" fill="black"/>
</svg>
