<?xml version="1.0" encoding="UTF-8"?>
<svg width="40px" height="40px" viewBox="0 0 40 40" version="1.1" xmlns="http://www.w3.org/2000/svg" xmlns:xlink="http://www.w3.org/1999/xlink">
    <title>Pkg-loading</title>
    <defs>
        <path d="M34.8983051,39.1292517 C34.8983051,39.6101527 34.5084578,40 34.0275568,40 L5.8707483,40 C5.38984729,40 5,39.6101527 5,39.1292517 L5,0.870748299 C5,0.389847293 5.38984729,1.42060771e-15 5.8707483,0 L24.9322034,0 L34.8983051,10 L34.8983051,39.1292517 Z" id="path-1"></path>
    </defs>
    <g id="1028-文件状态" stroke="none" stroke-width="1" fill="none" fill-rule="evenodd">
        <g id="画板" transform="translate(-229.000000, -227.000000)">
            <g id="Pkg-loading" transform="translate(229.000000, 227.000000)">
                <rect id="BG" fill-opacity="0" fill="#D8D8D8" x="0" y="0" width="40" height="40"></rect>
                <g id="Combined-Shape">
                    <use fill="#FFFFFF" xlink:href="#path-1"></use>
                    <use fill-opacity="0.05" fill="#000000" xlink:href="#path-1"></use>
                </g>
                <path d="M35,10 L25.9227872,10 C25.4318674,10 25.0338983,9.60203089 25.0338983,9.11111111 L25.0338983,0 L25.0338983,0 L35,10 Z" id="Rectangle" fill="#000000" opacity="0.100000001"></path>
                <path d="M11.868678,26 L11.868678,23.22 L13.7124068,23.22 C15.4199322,23.22 16.2736949,22.49 16.2736949,21.03 C16.2736949,19.5833333 15.4265763,18.86 13.732339,18.86 L13.732339,18.86 L10.7823729,18.86 L10.7823729,26 L11.868678,26 Z M13.6426441,22.29 L11.868678,22.29 L11.868678,19.79 L13.6426441,19.79 C14.1741695,19.79 14.5628475,19.89 14.808678,20.09 C15.0611525,20.27 15.1873898,20.5833333 15.1873898,21.03 C15.1873898,21.4633333 15.0644746,21.7833333 14.8186441,21.99 C14.5728136,22.19 14.1808136,22.29 13.6426441,22.29 L13.6426441,22.29 Z M18.3665763,26 L18.3665763,23.53 L19.2934237,22.64 L22.1835932,26 L23.6386441,26 L20.0309153,21.93 L23.1802034,18.86 L21.8048814,18.86 L18.3665763,22.31 L18.3665763,18.86 L17.2802712,18.86 L17.2802712,26 L18.3665763,26 Z M27.555322,26.14 C28.1732203,26.14 28.7412881,26.06 29.2595254,25.9 C29.7578305,25.74 30.1863729,25.5166667 30.5451525,25.23 L30.5451525,25.23 L30.5451525,22.23 L27.4955254,22.23 L27.4955254,23.16 L29.4588475,23.16 L29.4588475,24.71 C29.2063729,24.87 28.9406102,24.9866667 28.6615593,25.06 C28.3293559,25.1466667 28.0004746,25.19 27.6749153,25.19 C26.7846102,25.19 26.1301695,24.94 25.7115932,24.44 C25.3195932,23.9866667 25.1235932,23.3266667 25.1235932,22.46 C25.1235932,21.5733333 25.3395254,20.8833333 25.7713898,20.39 C26.176678,19.9166667 26.7248136,19.68 27.4157966,19.68 C27.9871864,19.68 28.4389831,19.8033333 28.7711864,20.05 C29.1100339,20.29 29.3292881,20.65 29.4289492,21.13 L29.4289492,21.13 L30.5252203,21.13 C30.3989831,20.3366667 30.0800678,19.74 29.5684746,19.34 C29.0502373,18.9266667 28.332678,18.72 27.4157966,18.72 C26.3593898,18.72 25.5255593,19.0866667 24.9143051,19.82 C24.3296271,20.5066667 24.0372881,21.3866667 24.0372881,22.46 C24.0372881,23.5266667 24.3296271,24.3933333 24.9143051,25.06 C25.5454915,25.78 26.4258305,26.14 27.555322,26.14 Z" id="PKG" fill-opacity="0.9" fill="#000000" fill-rule="nonzero" opacity="0.3"></path>
                <path d="M35,38.7 C35,39.4179702 34.4179702,40 33.7,40 L33.7,40 L6.3,40 C5.58202983,40 5,39.4179702 5,38.7 L5,38.7 L5,1.3 C5,0.582029825 5.58202983,0 6.3,0 L6.3,0 L25,0 L35,10 L35,38.7 Z" id="形状结合备份-2" fill="#000000" fill-rule="nonzero" opacity="0.5"></path>
            </g>
        </g>
    </g>
</svg>