<?xml version="1.0" encoding="UTF-8"?>
<svg width="45px" height="60px" viewBox="0 0 45 60" version="1.1" xmlns="http://www.w3.org/2000/svg" xmlns:xlink="http://www.w3.org/1999/xlink">
    <title>0.图标/04.文件类/PKG@2x</title>
    <defs>
        <path d="M44.8474576,58.0408163 C44.8474576,59.1228436 43.9703012,60 42.888274,60 L1.95918367,60 C0.877156408,60 -5.33623692e-16,59.1228436 0,58.0408163 L0,1.95918367 C-5.76599333e-16,0.877156408 0.877156408,-4.67368631e-16 1.95918367,0 L29.8983051,0 L44.8474576,15 L44.8474576,58.0408163 Z" id="path-1"></path>
    </defs>
    <g id="1013文件传输助手走查" stroke="none" stroke-width="1" fill="none" fill-rule="evenodd">
        <g id="编组" transform="translate(-7.000000, 0.000000)">
            <g id="0.图标/03.文件类⚠️/执行文件备份-2" transform="translate(7.000000, 0.000000)">
                <g id="Group">
                    <g id="Combined-Shape">
                        <use fill="#FFFFFF" xlink:href="#path-1"></use>
                        <use fill-opacity="0.05" fill="#000000" xlink:href="#path-1"></use>
                    </g>
                    <path d="M45,15 L32.0508475,15 C30.946278,15 30.0508475,14.1045695 30.0508475,13 L30.0508475,0 L30.0508475,0 L45,15 Z" id="Rectangle" fill="#000000" opacity="0.100000001"></path>
                </g>
                <path d="M10.3030169,39 L10.3030169,34.83 L13.0686102,34.83 C15.6298983,34.83 16.9105424,33.735 16.9105424,31.545 C16.9105424,29.375 15.6398644,28.29 13.0985085,28.29 L13.0985085,28.29 L8.67355932,28.29 L8.67355932,39 L10.3030169,39 Z M12.9639661,33.435 L10.3030169,33.435 L10.3030169,29.685 L12.9639661,29.685 C13.7612542,29.685 14.3442712,29.835 14.7130169,30.135 C15.0917288,30.405 15.2810847,30.875 15.2810847,31.545 C15.2810847,32.195 15.0967119,32.675 14.7279661,32.985 C14.3592203,33.285 13.7712203,33.435 12.9639661,33.435 L12.9639661,33.435 Z M20.0498644,39 L20.0498644,35.295 L21.4401356,33.96 L25.7753898,39 L27.9579661,39 L22.5463729,32.895 L27.2703051,28.29 L25.207322,28.29 L20.0498644,33.465 L20.0498644,28.29 L18.4204068,28.29 L18.4204068,39 L20.0498644,39 Z M33.8329831,39.21 C34.7598305,39.21 35.6119322,39.09 36.3892881,38.85 C37.1367458,38.61 37.7795593,38.275 38.3177288,37.845 L38.3177288,37.845 L38.3177288,33.345 L33.7432881,33.345 L33.7432881,34.74 L36.6882712,34.74 L36.6882712,37.065 C36.3095593,37.305 35.9109153,37.48 35.492339,37.59 C34.9940339,37.72 34.5007119,37.785 34.0123729,37.785 C32.6769153,37.785 31.6952542,37.41 31.0673898,36.66 C30.4793898,35.98 30.1853898,34.99 30.1853898,33.69 C30.1853898,32.36 30.5092881,31.325 31.1570847,30.585 C31.7650169,29.875 32.5872203,29.52 33.6236949,29.52 C34.4807797,29.52 35.1584746,29.705 35.6567797,30.075 C36.1650508,30.435 36.4939322,30.975 36.6434237,31.695 L36.6434237,31.695 L38.2878305,31.695 C38.0984746,30.505 37.6201017,29.61 36.8527119,29.01 C36.0753559,28.39 34.9990169,28.08 33.6236949,28.08 C32.0390847,28.08 30.788339,28.63 29.8714576,29.73 C28.9944407,30.76 28.5559322,32.08 28.5559322,33.69 C28.5559322,35.29 28.9944407,36.59 29.8714576,37.59 C30.8182373,38.67 32.1387458,39.21 33.8329831,39.21 Z" id="PKG" fill-opacity="0.9" fill="#000000" fill-rule="nonzero" opacity="0.3"></path>
            </g>
        </g>
    </g>
</svg>