<?xml version="1.0" encoding="UTF-8"?>
<svg width="32px" height="32px" viewBox="0 0 32 32" version="1.1" xmlns="http://www.w3.org/2000/svg" xmlns:xlink="http://www.w3.org/1999/xlink">
    <!-- Generator: Sketch 61 (89581) - https://sketch.com -->
    <title> publish article_icon</title>
    <desc>Created with Sketch.</desc>
    <g id="0604_发表模块_tomylin" stroke="none" stroke-width="1" fill="none" fill-rule="evenodd">
        <g id="文章编辑器备份" transform="translate(-394.000000, -104.000000)">
            <g id="Publish" transform="translate(394.000000, 104.000000)">
                <g id="-publish-article_icon">
                    <circle id="Oval" fill="#07C160" cx="16" cy="16" r="16"></circle>
                    <path d="M20.4591435,10.1333333 L11.5500526,10.1333333 C11.4395956,10.1333333 11.3500526,10.2228764 11.3500526,10.3333333 L11.3500526,21.6666667 C11.3500526,21.7771236 11.4395956,21.8666667 11.5500526,21.8666667 L20.4591435,21.8666667 C20.5696004,21.8666667 20.6591435,21.7771236 20.6591435,21.6666667 L20.6591435,10.3333333 C20.6591435,10.2228764 20.5696004,10.1333333 20.4591435,10.1333333 Z M12.169697,17.5030303 L19.3454545,17.5030303 L19.3454545,19.3454545 L12.169697,19.3454545 L12.169697,17.5030303 Z M12.169697,15.0787879 L19.3454545,15.0787879 L19.3454545,16.9212121 L12.169697,16.9212121 L12.169697,15.0787879 Z M16.4363636,12.6545455 L16.4363636,14.4969697 L12.169697,14.4969697 L12.169697,12.6545455 L16.4363636,12.6545455 Z" id="Combined-Shape" stroke="#FFFFFF" stroke-width="0.872727273" fill="#FFFFFF"></path>
                </g>
            </g>
        </g>
    </g>
</svg>