<?xml version="1.0" encoding="UTF-8"?>
<svg width="66px" height="66px" viewBox="0 0 66 66" version="1.1" xmlns="http://www.w3.org/2000/svg" xmlns:xlink="http://www.w3.org/1999/xlink">
    <!-- Generator: Sketch 54.1 (76490) - https://sketchapp.com -->
    <title>publish_recommend_icon</title>
    <desc>Created with Sketch.</desc>
    <g id="publish_recommend_icon" stroke="none" stroke-width="1" fill="none" fill-rule="evenodd">
        <g id="Group-12" transform="translate(1.000000, 1.000000)">
            <circle id="Oval" fill="#10AEFF" cx="32" cy="32" r="32"></circle>
            <path d="M23.6825425,20.8142857 C23.476422,20.8142857 23.3093282,20.9813794 23.3093282,21.1875 L23.3093282,42.8125 C23.3093282,43.0186206 23.476422,43.1857143 23.6825425,43.1857143 L40.3075425,43.1857143 C40.5136631,43.1857143 40.6807568,43.0186206 40.6807568,42.8125 L40.6807568,21.1875 C40.6807568,20.9813794 40.5136631,20.8142857 40.3075425,20.8142857 L23.6825425,20.8142857 Z M25.2998044,40.1989011 L25.2998044,36.7241758 L38.6902806,36.7241758 L38.6902806,40.1989011 L25.2998044,40.1989011 Z M25.2998044,35.5835165 L25.2998044,32.1087912 L38.6902806,32.1087912 L38.6902806,35.5835165 L25.2998044,35.5835165 Z M32.0265445,30.1281076 L30.5655642,30.8450969 C29.9691699,31.1377829 29.2484279,30.8915786 28.955742,30.2951843 C28.8420842,30.0635884 28.8058946,29.8015876 28.8525147,29.5478529 L29.1111491,28.1402089 L28.0290611,27.1555982 C27.5376895,26.7084906 27.5018064,25.947703 27.948914,25.4563314 C28.1391261,25.2472881 28.396872,25.1118967 28.6769374,25.073908 L30.2460013,24.8610763 L30.9631238,23.5046854 C31.2736345,22.9173743 32.0014629,22.6929833 32.5887739,23.0034941 C32.8023831,23.116429 32.9770303,23.2910762 33.0899652,23.5046854 L33.8070877,24.8610763 L35.3761516,25.073908 C36.0344658,25.1632033 36.4957466,25.7692606 36.4064513,26.4275748 C36.3684625,26.7076401 36.2330712,26.9653861 36.0240279,27.1555982 L34.9419399,28.1402089 L35.2005743,29.5478529 C35.3206281,30.201258 34.8882614,30.8282704 34.2348563,30.9483242 C33.9811215,30.9949443 33.7191207,30.9587547 33.4875248,30.8450969 L32.0265445,30.1281076 Z" id="Combined-Shape" stroke="#FFFFFF" stroke-width="1.62857143" fill="#FFFFFF"></path>
        </g>
    </g>
</svg>