<?xml version="1.0" encoding="UTF-8"?>
<svg width="24px" height="24px" viewBox="0 0 24 24" version="1.1" xmlns="http://www.w3.org/2000/svg" xmlns:xlink="http://www.w3.org/1999/xlink">
    <!-- Generator: Sketch 57.1 (83088) - https://sketch.com -->
    <title>mini program_line_icon24</title>
    <desc>Created with Sketch.</desc>
    <g id="全部稿" stroke="none" stroke-width="1" fill="none" fill-rule="evenodd">
        <g id="切换到小主页-copy-14" transform="translate(-781.000000, -223.000000)" fill="#000000">
            <g id="Group-17-Copy-18" transform="translate(578.000000, 194.000000)">
                <g id="mini-program_line_icon24" transform="translate(203.000000, 29.000000)">
                    <g id="Group-8复制-3">
                        <path d="M14.1485647,12.3793388 C14.1361528,12.3828329 14.1238662,12.3865709 14.1113707,12.389862 C14.0351858,12.4109084 13.9570366,12.4237881 13.8795979,12.4237881 C13.5378731,12.4237881 13.3449242,12.1993878 13.4485658,11.922534 C13.5243746,11.720074 13.7233833,11.5491836 13.9662724,11.4700767 C14.3427256,11.3366067 14.605758,11.0322057 14.605758,10.6779921 C14.605758,10.2007098 14.1281707,9.81378891 13.539085,9.81378891 C12.9499576,9.81378891 12.4724121,10.2007098 12.4724121,10.6779921 L12.4724121,13.3282151 C12.4724121,13.9655802 12.0925739,14.5244885 11.5242584,14.840591 C11.2144619,15.0129035 10.849543,15.1141944 10.4576272,15.1141944 C9.34661408,15.1141944 8.44280059,14.3130086 8.44280059,13.3282151 C8.44280059,13.0147536 8.53499149,12.7203476 8.69563601,12.464012 C8.94425054,12.0672992 9.35852451,11.7635077 9.8547088,11.6249995 C9.93958628,11.5993212 10.0263443,11.5852632 10.1118905,11.5852632 C10.4551198,11.5852632 10.6489881,11.8107199 10.5448868,12.0887926 C10.4743436,12.2772352 10.2843618,12.439512 10.0628697,12.5258511 C10.036416,12.534424 10.0106727,12.5440534 9.98526381,12.5542109 C9.63342557,12.6954413 9.39095431,12.9885065 9.39095431,13.3282151 C9.39095431,13.8054975 9.86849982,14.1923777 10.4576272,14.1923777 C11.0467129,14.1923777 11.5242584,13.8054975 11.5242584,13.3282151 L11.5242584,10.6779921 C11.5242584,10.0405864 11.9040548,9.48171873 12.4724121,9.16557558 C12.7822086,8.99326314 13.1471275,8.89197219 13.539085,8.89197219 C14.6500564,8.89197219 15.5539117,9.69315801 15.5539117,10.6779921 C15.5539117,10.991413 15.461679,11.2858597 15.3010345,11.5421953 C15.0535065,11.9371609 14.6417818,12.2399367 14.1485647,12.3793388 Z" id="Path"></path>
                        <path d="M12.0204582,4.44444444 C12.0985119,4.44444444 12.1716394,4.46553612 12.2344522,4.502331 C12.297265,4.53912587 12.349763,4.59162393 12.3865579,4.65443671 C12.4233528,4.71724949 12.4444444,4.79037697 12.4444444,4.86843069 L12.4444444,5.79823598 C12.4444444,5.87628969 12.4233528,5.94941718 12.3865579,6.01222996 C12.349763,6.07504273 12.297265,6.1275408 12.2344522,6.16433567 C12.1716394,6.20113054 12.0985119,6.22222222 12.0204582,6.22222222 C11.9424045,6.22222222 11.869277,6.20113054 11.8064642,6.16433567 C11.7436515,6.1275408 11.6911534,6.07504273 11.6543585,6.01222996 C11.6175636,5.94941718 11.596472,5.87628969 11.596472,5.79823598 L11.596472,4.86843069 C11.596472,4.79037697 11.6175636,4.71724949 11.6543585,4.65443671 C11.6911534,4.59162393 11.7436515,4.53912587 11.8064642,4.502331 C11.869277,4.46553612 11.9424045,4.44444444 12.0204582,4.44444444 Z" id="Rectangle"></path>
                        <path d="M12.0204582,-1.47757907e-29 C12.0985119,-1.43382342e-17 12.1716394,0.0210916784 12.2344522,0.0578865509 C12.297265,0.0946814235 12.349763,0.14717949 12.3865579,0.209992266 C12.4233528,0.272805043 12.4444444,0.345932529 12.4444444,0.423986241 L12.4444444,1.35379154 C12.4444444,1.43184525 12.4233528,1.50497273 12.3865579,1.56778551 C12.349763,1.63059829 12.297265,1.68309635 12.2344522,1.71989123 C12.1716394,1.7566861 12.0985119,1.77777778 12.0204582,1.77777778 C11.9424045,1.77777778 11.869277,1.7566861 11.8064642,1.71989123 C11.7436515,1.68309635 11.6911534,1.63059829 11.6543585,1.56778551 C11.6175636,1.50497273 11.596472,1.43184525 11.596472,1.35379154 L11.596472,0.423986241 C11.596472,0.345932529 11.6175636,0.272805043 11.6543585,0.209992266 C11.6911534,0.14717949 11.7436515,0.0946814235 11.8064642,0.0578865509 C11.869277,0.0210916784 11.9424045,1.43382342e-17 12.0204582,-1.47757907e-29 Z" id="Rectangle"></path>
                        <path d="M12.0204582,2.66666667 C12.0985119,2.66666667 12.1716394,2.68775835 12.2344522,2.72455322 C12.297265,2.76134809 12.349763,2.81384616 12.3865579,2.87665893 C12.4233528,2.93947171 12.4444444,3.0125992 12.4444444,3.09065291 L12.4444444,3.13156931 C12.4444444,3.20962303 12.4233528,3.28275051 12.3865579,3.34556329 C12.349763,3.40837607 12.297265,3.46087413 12.2344522,3.497669 C12.1716394,3.53446388 12.0985119,3.55555556 12.0204582,3.55555556 C11.9424045,3.55555556 11.869277,3.53446388 11.8064642,3.497669 C11.7436515,3.46087413 11.6911534,3.40837607 11.6543585,3.34556329 C11.6175636,3.28275051 11.596472,3.20962303 11.596472,3.13156931 L11.596472,3.09065291 C11.596472,3.0125992 11.6175636,2.93947171 11.6543585,2.87665893 C11.6911534,2.81384616 11.7436515,2.76134809 11.8064642,2.72455322 C11.869277,2.68775835 11.9424045,2.66666667 12.0204582,2.66666667 Z" id="Rectangle"></path>
                        <path d="M4.68616935,6.75589387 C4.76422306,6.75589387 4.83735055,6.77698555 4.90016332,6.81378042 C4.9629761,6.85057529 5.01547417,6.90307336 5.05226904,6.96588614 C5.08906391,7.02869891 5.11015559,7.1018264 5.11015559,7.17988011 L5.11015559,8.10968541 C5.11015559,8.18773912 5.08906391,8.26086661 5.05226904,8.32367938 C5.01547417,8.38649216 4.9629761,8.43899023 4.90016332,8.4757851 C4.83735055,8.51257997 4.76422306,8.53367165 4.68616935,8.53367165 C4.60811564,8.53367165 4.53498815,8.51257997 4.47217538,8.4757851 C4.4093626,8.43899023 4.35686453,8.38649216 4.32006966,8.32367938 C4.28327479,8.26086661 4.26218311,8.18773912 4.26218311,8.10968541 L4.26218311,7.17988011 C4.26218311,7.1018264 4.28327479,7.02869891 4.32006966,6.96588614 C4.35686453,6.90307336 4.4093626,6.85057529 4.47217538,6.81378042 C4.53498815,6.77698555 4.60811564,6.75589387 4.68616935,6.75589387 Z" id="Rectangle" transform="translate(4.686169, 7.644783) scale(-1, 1) rotate(60.000000) translate(-4.686169, -7.644783) "></path>
                        <path d="M6.61067025,8.31144943 C6.68872396,8.31144943 6.76185145,8.33254111 6.82466422,8.36933598 C6.887477,8.40613085 6.93997507,8.45862892 6.97676994,8.52144169 C7.01356481,8.58425447 7.03465649,8.65738196 7.03465649,8.73543567 L7.03465649,8.77635207 C7.03465649,8.85440579 7.01356481,8.92753327 6.97676994,8.99034605 C6.93997507,9.05315883 6.887477,9.10565689 6.82466422,9.14245176 C6.76185145,9.17924664 6.68872396,9.20033832 6.61067025,9.20033832 C6.53261654,9.20033832 6.45948905,9.17924664 6.39667627,9.14245176 C6.3338635,9.10565689 6.28136543,9.05315883 6.24457056,8.99034605 C6.20777569,8.92753327 6.18668401,8.85440579 6.18668401,8.77635207 L6.18668401,8.73543567 C6.18668401,8.65738196 6.20777569,8.58425447 6.24457056,8.52144169 C6.28136543,8.45862892 6.3338635,8.40613085 6.39667627,8.36933598 C6.45948905,8.33254111 6.53261654,8.31144943 6.61067025,8.31144943 Z" id="Rectangle" transform="translate(6.610670, 8.755894) scale(-1, 1) rotate(60.000000) translate(-6.610670, -8.755894) "></path>
                        <path d="M2.44055259,5.45897226 C2.67471372,5.45884127 2.86453883,5.64866637 2.86453883,5.88282751 C2.86453883,5.88287118 2.86453882,5.88291485 2.86440781,5.88295848 L2.86412053,6.81264072 C2.86405274,6.89067736 2.84291822,6.96378459 2.80609826,7.02658281 C2.76927829,7.08938102 2.71677287,7.14187022 2.65396328,7.17867078 C2.5911537,7.21547134 2.51803993,7.23658326 2.44000328,7.23662694 C2.20584214,7.23675793 2.01601704,7.04693283 2.01601704,6.81277169 C2.01601704,6.81272802 2.01601704,6.81268435 2.01614805,6.81264072 L2.01643533,5.88295848 C2.01650312,5.80492184 2.03763764,5.73181461 2.07445761,5.6690164 C2.11127757,5.60621818 2.16378299,5.55372899 2.22659258,5.51692843 C2.28940217,5.48012787 2.36251593,5.45901594 2.44055259,5.45897226 Z" id="Rectangle" transform="translate(2.440278, 6.347800) scale(-1, -1) rotate(-60.000000) translate(-2.440278, -6.347800) "></path>
                        <path d="M18.2154176,14.1318867 C18.4486909,14.1318867 18.6377963,14.3209921 18.6377963,14.5542654 C18.6377963,14.5548003 18.6377952,14.5553351 18.6377932,14.5558699 L18.6308844,16.3745702 C18.630586,16.4531104 18.6093783,16.5263997 18.5725071,16.589212 C18.535636,16.6520244 18.4831015,16.7043597 18.4201495,16.740992 C18.3571976,16.7776242 18.2838283,16.7985534 18.2052875,16.7985534 C17.9720142,16.7985534 17.7829088,16.609448 17.7829088,16.3761747 C17.7829088,16.3756399 17.7829099,16.3751051 17.7829119,16.3745702 L17.7898207,14.5558699 C17.7901191,14.4773298 17.8113268,14.4040405 17.848198,14.3412281 C17.8850691,14.2784158 17.9376036,14.2260805 18.0005556,14.1894482 C18.0635075,14.1528159 18.1368768,14.1318867 18.2154176,14.1318867 Z" id="Rectangle" transform="translate(18.210353, 15.465220) scale(-1, -1) rotate(-60.000000) translate(-18.210353, -15.465220) "></path>
                        <path d="M19.7511006,15.9028789 C19.8299522,15.9028789 19.9034754,15.9237042 19.9665159,15.9602324 C20.0295564,15.9967606 20.082114,16.0489917 20.1190345,16.1118033 C20.1559549,16.1746148 20.1772381,16.2480068 20.1777296,16.3268569 L20.1779848,16.3677897 C20.1794353,16.6004913 19.9919693,16.7903091 19.7592677,16.7917596 C19.7583923,16.791765 19.7575168,16.7917678 19.7566414,16.7917678 C19.6777898,16.7917678 19.6042665,16.7709424 19.5412261,16.7344142 C19.4781856,16.697886 19.4256279,16.6456549 19.3887075,16.5828434 C19.351787,16.5200318 19.3305038,16.4466398 19.3300123,16.3677897 L19.3297572,16.3268569 C19.3283066,16.0941553 19.5157727,15.9043376 19.7484742,15.902887 C19.7493497,15.9028816 19.7502251,15.9028789 19.7511006,15.9028789 Z" id="Rectangle" transform="translate(19.753871, 16.347323) scale(-1, 1) rotate(60.000000) translate(-19.753871, -16.347323) "></path>
                        <path d="M21.6217772,16.5336716 C21.699831,16.5336716 21.7729584,16.5547633 21.8357712,16.5915582 C21.898584,16.6283531 21.9510821,16.6808511 21.9878769,16.7436639 C22.0246718,16.8064767 22.0457635,16.8796042 22.0457635,16.9576579 L22.0457635,17.8874632 C22.0457635,17.9655169 22.0246718,18.0386444 21.9878769,18.1014572 C21.9510821,18.1642699 21.898584,18.216768 21.8357712,18.2535629 C21.7729584,18.2903577 21.699831,18.3114494 21.6217772,18.3114494 C21.5437235,18.3114494 21.470596,18.2903577 21.4077833,18.2535629 C21.3449705,18.216768 21.2924724,18.1642699 21.2556776,18.1014572 C21.2188827,18.0386444 21.197791,17.9655169 21.197791,17.8874632 L21.197791,16.9576579 C21.197791,16.8796042 21.2188827,16.8064767 21.2556776,16.7436639 C21.2924724,16.6808511 21.3449705,16.6283531 21.4077833,16.5915582 C21.470596,16.5547633 21.5437235,16.5336716 21.6217772,16.5336716 Z" id="Rectangle" transform="translate(21.621777, 17.422561) scale(-1, 1) rotate(60.000000) translate(-21.621777, -17.422561) "></path>
                        <path d="M17.4264647,8.49258703 C17.5041975,8.49249526 17.5770519,8.51322714 17.6397317,8.54954696 C17.7024116,8.58586679 17.7549169,8.63777456 17.7919518,8.70003457 C17.8289867,8.76229459 17.8505512,8.83490684 17.8513492,8.91263563 L17.8518399,8.96043263 C17.8542028,9.19059265 17.6695367,9.37908971 17.4393767,9.38145261 C17.4381146,9.38146557 17.4368525,9.38147279 17.4355903,9.38147428 C17.3578575,9.38156606 17.2850031,9.36083418 17.2223233,9.32451435 C17.1596435,9.28819452 17.1071381,9.23628675 17.0701032,9.17402674 C17.0330683,9.11176673 17.0115039,9.03915447 17.0107059,8.96142568 L17.0102152,8.91362868 C17.0078523,8.68346867 17.1925183,8.4949716 17.4226783,8.4926087 C17.4239404,8.49259574 17.4252026,8.49258852 17.4264647,8.49258703 Z" id="Rectangle" transform="translate(17.431028, 8.937031) rotate(60.000000) translate(-17.431028, -8.937031) "></path>
                        <path d="M18.9660654,7.60369814 C19.0437983,7.60360637 19.1166526,7.62433825 19.1793324,7.66065807 C19.2420123,7.6969779 19.2945176,7.74888567 19.3315525,7.81114569 C19.3685874,7.8734057 19.3901519,7.94601795 19.3909499,8.02374674 L19.3914406,8.07154374 C19.3938035,8.30170376 19.2091374,8.49020083 18.9789774,8.49256372 C18.9777153,8.49257668 18.9764532,8.4925839 18.975191,8.49258539 C18.8974582,8.49267717 18.8246039,8.47194529 18.761924,8.43562546 C18.6992442,8.39930564 18.6467388,8.34739786 18.6097039,8.28513785 C18.572669,8.22287784 18.5511046,8.15026558 18.5503066,8.07253679 L18.5498159,8.0247398 C18.547453,7.79457978 18.732119,7.60608271 18.9622791,7.60371981 C18.9635411,7.60370685 18.9648033,7.60369963 18.9660654,7.60369814 Z" id="Rectangle" transform="translate(18.970628, 8.048142) rotate(60.000000) translate(-18.970628, -8.048142) "></path>
                        <path d="M21.2617807,5.37519914 C21.4923482,5.37443808 21.6798771,5.56073302 21.6806381,5.79130054 C21.6806415,5.79232593 21.6806411,5.79335134 21.680637,5.79437673 L21.6732113,7.61990422 C21.6722645,7.8526759 21.483706,8.04108991 21.2509336,8.04185825 C21.0203661,8.04261932 20.8328372,7.85632438 20.8320762,7.62575686 C20.8320728,7.62473146 20.8320732,7.62370606 20.8320773,7.62268067 L20.839503,5.79715317 C20.8404498,5.56438149 21.0290084,5.37596749 21.2617807,5.37519914 Z" id="Rectangle" transform="translate(21.256357, 6.708529) rotate(60.000000) translate(-21.256357, -6.708529) "></path>
                        <path d="M6.64035729,14.7083076 C6.86439284,14.7080809 7.04619331,14.8895138 7.04642,15.1135494 C7.04642494,15.1184308 7.04634177,15.1233119 7.04617052,15.1281904 L7.04447613,15.1764607 C7.04163099,15.2575135 7.01934785,15.3312519 6.9818901,15.3935555 C6.94443235,15.4558591 6.89179998,15.5067279 6.82825639,15.5420412 C6.76471281,15.5773546 6.690258,15.5971126 6.60915536,15.5971946 C6.38511982,15.5974213 6.20331935,15.4159884 6.20309265,15.1919529 C6.20308771,15.1870714 6.20317089,15.1821903 6.20334213,15.1773119 L6.20503653,15.1290415 C6.20788166,15.0479887 6.2301648,14.9742503 6.26762256,14.9119467 C6.30508031,14.8496431 6.35771267,14.7987744 6.42125626,14.763461 C6.48479985,14.7281476 6.55925466,14.7083897 6.64035729,14.7083076 Z" id="Rectangle" transform="translate(6.624756, 15.152751) scale(1, -1) rotate(-60.000000) translate(-6.624756, -15.152751) "></path>
                        <path d="M5.68119461,15.2620804 C5.90523016,15.2618537 6.08703062,15.4432867 6.08725732,15.6673222 C6.08726226,15.6722036 6.08717908,15.6770848 6.08700784,15.6819632 L6.08531344,15.7302336 C6.08246831,15.8112863 6.06018517,15.8850248 6.02272742,15.9473284 C5.98526966,16.009632 5.9326373,16.0605007 5.86909371,16.0958141 C5.80555012,16.1311274 5.73109532,16.1508854 5.64999268,16.1509675 C5.42595713,16.1511942 5.24415667,15.9697612 5.24392997,15.7457257 C5.24392503,15.7408443 5.2440082,15.7359631 5.24417945,15.7310847 L5.24587385,15.6828143 C5.24871898,15.6017616 5.27100212,15.5280231 5.30845987,15.4657195 C5.34591762,15.4034159 5.39854999,15.3525472 5.46209358,15.3172338 C5.52563716,15.2819205 5.60009197,15.2621625 5.68119461,15.2620804 Z" id="Rectangle" transform="translate(5.665594, 15.706524) scale(1, -1) rotate(-60.000000) translate(-5.665594, -15.706524) "></path>
                        <path d="M3.17927811,15.3696623 C3.4093784,15.3686737 3.59671297,15.5544054 3.59770157,15.7845057 C3.59770718,15.7858107 3.59770665,15.7871158 3.5977,15.7884208 L3.58385499,18.5028416 C3.58345831,18.5806146 3.56228249,18.6533578 3.5255829,18.7158201 C3.48888331,18.7782824 3.43665994,18.8304638 3.37416816,18.8671131 C3.31167637,18.9037625 3.23891616,18.9248798 3.16114289,18.925214 C2.93104259,18.9262026 2.74370803,18.7404708 2.74271943,18.5103705 C2.74271382,18.5090655 2.74271434,18.5077605 2.742721,18.5064555 L2.756566,15.7920346 C2.75696269,15.7142617 2.7781385,15.6415185 2.8148381,15.5790562 C2.85153769,15.5165939 2.90376105,15.4644125 2.96625284,15.4277631 C3.02874463,15.3911138 3.10150484,15.3699965 3.17927811,15.3696623 Z" id="Rectangle" transform="translate(3.170210, 17.147438) rotate(60.000000) translate(-3.170210, -17.147438) "></path>
                        <path d="M12.0204582,22.2222222 C12.0985119,22.2222222 12.1716394,22.2433139 12.2344522,22.2801088 C12.297265,22.3169036 12.349763,22.3694017 12.3865579,22.4322145 C12.4233528,22.4950273 12.4444444,22.5681548 12.4444444,22.6462085 L12.4444444,23.5760138 C12.4444444,23.6540675 12.4233528,23.727195 12.3865579,23.7900077 C12.349763,23.8528205 12.297265,23.9053186 12.2344522,23.9421134 C12.1716394,23.9789083 12.0985119,24 12.0204582,24 C11.9424045,24 11.869277,23.9789083 11.8064642,23.9421134 C11.7436515,23.9053186 11.6911534,23.8528205 11.6543585,23.7900077 C11.6175636,23.727195 11.596472,23.6540675 11.596472,23.5760138 L11.596472,22.6462085 C11.596472,22.5681548 11.6175636,22.4950273 11.6543585,22.4322145 C11.6911534,22.3694017 11.7436515,22.3169036 11.8064642,22.2801088 C11.869277,22.2433139 11.9424045,22.2222222 12.0204582,22.2222222 Z" id="Rectangle" transform="translate(12.020458, 23.111111) rotate(180.000000) translate(-12.020458, -23.111111) "></path>
                        <path d="M12.0204582,20.4444444 C12.0985119,20.4444444 12.1716394,20.4655361 12.2344522,20.502331 C12.297265,20.5391259 12.349763,20.5916239 12.3865579,20.6544367 C12.4233528,20.7172495 12.4444444,20.790377 12.4444444,20.8684307 L12.4444444,20.9093471 C12.4444444,20.9874008 12.4233528,21.0605283 12.3865579,21.1233411 C12.349763,21.1861538 12.297265,21.2386519 12.2344522,21.2754468 C12.1716394,21.3122417 12.0985119,21.3333333 12.0204582,21.3333333 C11.9424045,21.3333333 11.869277,21.3122417 11.8064642,21.2754468 C11.7436515,21.2386519 11.6911534,21.1861538 11.6543585,21.1233411 C11.6175636,21.0605283 11.596472,20.9874008 11.596472,20.9093471 L11.596472,20.8684307 C11.596472,20.790377 11.6175636,20.7172495 11.6543585,20.6544367 C11.6911534,20.5916239 11.7436515,20.5391259 11.8064642,20.502331 C11.869277,20.4655361 11.9424045,20.4444444 12.0204582,20.4444444 Z" id="Rectangle" transform="translate(12.020458, 20.888889) rotate(180.000000) translate(-12.020458, -20.888889) "></path>
                        <path d="M12.0204582,17.7777778 C12.0985119,17.7777778 12.1716394,17.7988695 12.2344522,17.8356643 C12.297265,17.8724592 12.349763,17.9249573 12.3865579,17.98777 C12.4233528,18.0505828 12.4444444,18.1237103 12.4444444,18.201764 L12.4444444,19.1315693 C12.4444444,19.209623 12.4233528,19.2827505 12.3865579,19.3455633 C12.349763,19.4083761 12.297265,19.4608741 12.2344522,19.497669 C12.1716394,19.5344639 12.0985119,19.5555556 12.0204582,19.5555556 C11.9424045,19.5555556 11.869277,19.5344639 11.8064642,19.497669 C11.7436515,19.4608741 11.6911534,19.4083761 11.6543585,19.3455633 C11.6175636,19.2827505 11.596472,19.209623 11.596472,19.1315693 L11.596472,18.201764 C11.596472,18.1237103 11.6175636,18.0505828 11.6543585,17.98777 C11.6911534,17.9249573 11.7436515,17.8724592 11.8064642,17.8356643 C11.869277,17.7988695 11.9424045,17.7777778 12.0204582,17.7777778 Z" id="Rectangle" transform="translate(12.020458, 18.666667) scale(1, -1) rotate(-180.000000) translate(-12.020458, -18.666667) "></path>
                        <path d="M15.9968843,4.88727745 C16.2238665,4.88701682 16.4080831,5.0708109 16.4083437,5.29779302 C16.4083474,5.3009493 16.4083146,5.30410551 16.4082455,5.30726104 L16.4071956,5.35521481 C16.4054557,5.43468423 16.3836194,5.50791578 16.3464454,5.57024823 C16.3092715,5.63258068 16.2567601,5.68401405 16.19367,5.71988712 C16.13058,5.75576019 16.0569113,5.77607297 15.9774229,5.77616425 C15.7504407,5.77642488 15.5662241,5.5926308 15.5659634,5.36564868 C15.5659598,5.3624924 15.5659926,5.35933619 15.5660616,5.35618066 L15.5671116,5.30822689 C15.5688515,5.22875747 15.5906878,5.15552592 15.6278617,5.09319347 C15.6650357,5.03086102 15.7175471,4.97942765 15.7806372,4.94355458 C15.8437272,4.90768151 15.9173959,4.88736873 15.9968843,4.88727745 Z" id="Rectangle" transform="translate(15.987154, 5.331721) rotate(-330.000000) translate(-15.987154, -5.331721) "></path>
                        <path d="M15.2390614,6.23233176 C15.4616245,6.23205477 15.6422721,6.41225325 15.6425491,6.63481632 C15.6425562,6.64055086 15.6424409,6.64628491 15.6422033,6.65201453 L15.6401932,6.70048924 C15.6367996,6.7823256 15.6143048,6.85631814 15.5767193,6.91861448 C15.5391338,6.98091081 15.4864576,7.03151093 15.4227011,7.06656245 C15.3589445,7.10161398 15.2841077,7.1211169 15.2022011,7.12121884 C14.979638,7.12149583 14.7989905,6.94129735 14.7987135,6.71873428 C14.7987063,6.71299973 14.7988216,6.70726569 14.7990592,6.70153607 L14.8010693,6.65306136 C14.8044629,6.571225 14.8269577,6.49723246 14.8645432,6.43493612 C14.9021287,6.37263979 14.954805,6.32203967 15.0185615,6.28698814 C15.082318,6.25193662 15.1571548,6.2324337 15.2390614,6.23233176 Z" id="Rectangle" transform="translate(15.220631, 6.676775) rotate(-330.000000) translate(-15.220631, -6.676775) "></path>
                        <path d="M17.3231554,1.46129915 C17.5541659,1.46041997 17.7421497,1.64697829 17.7430288,1.87798881 C17.7430317,1.87874855 17.7430326,1.87950829 17.7430313,1.88026803 L17.7392478,4.18276529 C17.7388655,4.41540917 17.5506322,4.60404996 17.3179897,4.60493535 C17.0869792,4.60581452 16.8989955,4.41925621 16.8981163,4.18824568 C16.8981134,4.18748595 16.8981126,4.1867262 16.8981138,4.18596646 L16.9018973,1.88346921 C16.9022796,1.65082532 17.0905129,1.46218453 17.3231554,1.46129915 Z" id="Rectangle" transform="translate(17.320573, 3.033117) scale(1, -1) rotate(330.000000) translate(-17.320573, -3.033117) "></path>
                        <path d="M6.77740039,19.9682115 C7.00795036,19.9673988 7.19550682,20.1536377 7.19631948,20.3841877 C7.19632313,20.3852236 7.19632293,20.3862595 7.19631887,20.3872954 L7.18916323,22.2128245 C7.1882508,22.4456016 6.99972519,22.6340528 6.76694771,22.6348733 C6.53639774,22.635686 6.34884128,22.4494471 6.34802862,22.2188971 C6.34802497,22.2178612 6.34802517,22.2168253 6.34802923,22.2157894 L6.35518487,20.3902603 C6.3560973,20.1574832 6.54462291,19.969032 6.77740039,19.9682115 Z" id="Rectangle" transform="translate(6.772174, 21.301542) rotate(-330.000000) translate(-6.772174, -21.301542) "></path>
                        <path d="M9.00169669,17.0022138 C9.22922711,17.001989 9.41385915,17.1862567 9.41408388,17.4137871 C9.41408668,17.4166198 9.41406026,17.4194524 9.41400464,17.4222845 L9.4130635,17.4701998 C9.41150843,17.5493718 9.38973848,17.6225032 9.35260443,17.6848329 C9.31547039,17.7471626 9.26297226,17.7986906 9.19996083,17.8346557 C9.1369494,17.8706209 9.06342468,17.8910231 8.98423745,17.8911013 C8.75670703,17.891326 8.57207499,17.7070584 8.57185026,17.4795279 C8.57184746,17.4766953 8.57187388,17.4738627 8.57192951,17.4710306 L8.57287064,17.4231153 C8.57442571,17.3439433 8.59619567,17.2708118 8.63332971,17.2084821 C8.67046375,17.1461524 8.72296188,17.0946244 8.78597331,17.0586593 C8.84898474,17.0226942 8.92250946,17.002292 9.00169669,17.0022138 Z" id="Rectangle" transform="translate(8.992967, 17.446658) rotate(-330.000000) translate(-8.992967, -17.446658) "></path>
                        <path d="M7.99679568,18.7440152 C8.22413352,18.743771 8.4086252,18.9278668 8.40886938,19.1552046 C8.40887255,19.158151 8.40884407,19.1610974 8.40878397,19.1640432 L8.40780615,19.2119705 C8.40618874,19.2912471 8.38439776,19.3644144 8.34725164,19.4267462 C8.31010551,19.489078 8.25760424,19.5405744 8.19456624,19.5765091 C8.13152823,19.6124437 8.0579535,19.6328168 7.97866046,19.6329019 C7.75132262,19.6331461 7.56683094,19.4490503 7.56658675,19.2217125 C7.56658359,19.2187661 7.56661206,19.2158197 7.56667216,19.2128739 L7.56764998,19.1649467 C7.5692674,19.0856701 7.59105837,19.0125028 7.6282045,18.9501709 C7.66535062,18.8878391 7.7178519,18.8363427 7.7808899,18.8004081 C7.8439279,18.7644734 7.91750263,18.7441004 7.99679568,18.7440152 Z" id="Rectangle" transform="translate(7.987728, 19.188459) rotate(-330.000000) translate(-7.987728, -19.188459) "></path>
                        <path d="M8.95293167,6.06341409 C9.18026951,6.06316991 9.36476119,6.24726569 9.36500537,6.47460353 C9.36500854,6.47754994 9.36498007,6.4804963 9.36491996,6.4834421 L9.36394214,6.53136937 C9.36232473,6.61064596 9.34053375,6.68381327 9.30338763,6.74614509 C9.2662415,6.80847692 9.21374023,6.85997327 9.15070223,6.89590796 C9.08766422,6.93184264 9.01408949,6.95221566 8.93479645,6.95230083 C8.70745861,6.95254502 8.52296693,6.76844924 8.52272274,6.5411114 C8.52271958,6.53816499 8.52274805,6.53521863 8.52280815,6.53227283 L8.52378597,6.48434556 C8.52540339,6.40506896 8.54719436,6.33190166 8.58434049,6.26956983 C8.62148661,6.207238 8.67398789,6.15574165 8.73702589,6.11980697 C8.80006389,6.08387228 8.87363862,6.06349926 8.95293167,6.06341409 Z" id="Rectangle" transform="translate(8.943864, 6.507857) rotate(-30.000000) translate(-8.943864, -6.507857) "></path>
                        <path d="M8.06404278,4.52381337 C8.29138062,4.52356919 8.4758723,4.70766497 8.47611648,4.93500281 C8.47611965,4.93794922 8.47609118,4.94089558 8.47603108,4.94384138 L8.47505325,4.99176865 C8.47343584,5.07104524 8.45164486,5.14421255 8.41449874,5.20654438 C8.37735261,5.2688762 8.32485134,5.32037255 8.26181334,5.35630724 C8.19877534,5.39224193 8.1252006,5.41261495 8.04590756,5.41270012 C7.81856972,5.4129443 7.63407804,5.22884852 7.63383385,5.00151068 C7.63383069,4.99856427 7.63385916,4.99561791 7.63391926,4.99267211 L7.63489708,4.94474484 C7.6365145,4.86546824 7.65830548,4.79230094 7.6954516,4.72996911 C7.73259773,4.66763728 7.785099,4.61614093 7.848137,4.58020625 C7.911175,4.54427156 7.98474973,4.52389854 8.06404278,4.52381337 Z" id="Rectangle" transform="translate(8.054975, 4.968257) scale(1, -1) rotate(30.000000) translate(-8.054975, -4.968257) "></path>
                        <path d="M15.4381156,16.8406013 C15.6667623,16.8400968 15.852526,17.0250426 15.8530305,17.2536893 C15.8530353,17.2558606 15.853023,17.2580318 15.8529936,17.2602029 L15.8403217,18.1969186 C15.8392589,18.2754851 15.817734,18.3484448 15.7807761,18.4108251 C15.7438183,18.4732055 15.6914274,18.5250066 15.6286327,18.5612559 C15.565838,18.5975052 15.4926393,18.6182027 15.4140658,18.6183761 C15.1854191,18.6188806 14.9996553,18.4339348 14.9991508,18.2052881 C14.999146,18.2031169 14.9991583,18.2009456 14.9991877,18.1987745 L15.0118596,17.2620589 C15.0129225,17.1834923 15.0344474,17.1105327 15.0714052,17.0481523 C15.1083631,16.9857719 15.1607539,16.9339709 15.2235486,16.8977216 C15.2863434,16.8614723 15.359542,16.8407747 15.4381156,16.8406013 Z" id="Rectangle" transform="translate(15.426091, 17.729489) rotate(-30.000000) translate(-15.426091, -17.729489) "></path>
                        <path d="M17.2307689,19.1789487 C17.4604006,19.1779621 17.6473536,19.3633155 17.6483402,19.5929472 C17.648347,19.5945321 17.6483448,19.596117 17.6483335,19.5977019 L17.6305321,22.091188 C17.629975,22.1692185 17.6087366,22.2420465 17.5719962,22.3045077 C17.5352557,22.3669688 17.4830132,22.4190631 17.4204478,22.4556258 C17.3578825,22.4921886 17.2849943,22.5132199 17.2069627,22.5135551 C16.977331,22.5145417 16.7903779,22.3291883 16.7893913,22.0995566 C16.7893845,22.0979717 16.7893868,22.0963868 16.7893981,22.0948019 L16.8071995,19.6013157 C16.8077565,19.5232853 16.8289949,19.4504573 16.8657354,19.3879961 C16.9024759,19.325535 16.9547184,19.2734407 17.0172838,19.236878 C17.0798491,19.2003152 17.1527372,19.1792839 17.2307689,19.1789487 Z" id="Rectangle" transform="translate(17.218866, 20.846252) scale(1, -1) rotate(30.000000) translate(-17.218866, -20.846252) "></path>
                        <path d="M6.80961184,1.36775214 C7.04025323,1.36699098 7.22784206,1.55334572 7.22860323,1.78398711 C7.22860647,1.78496824 7.22860625,1.78594938 7.22860257,1.78693051 L7.22092707,3.83484478 C7.22005473,4.0675951 7.0315345,4.25603094 6.79878381,4.25679907 C6.56814242,4.25756023 6.38055358,4.07120549 6.37979242,3.8405641 C6.37978918,3.83958296 6.3797894,3.83860182 6.37979308,3.83762069 L6.38746857,1.78970643 C6.38834091,1.55695611 6.57686115,1.36852026 6.80961184,1.36775214 Z" id="Rectangle" transform="translate(6.804198, 2.812276) scale(1, -1) rotate(30.000000) translate(-6.804198, -2.812276) "></path>
                        <path d="M19.1111111,11.5555556 C19.3427544,11.5555556 19.5305384,11.7433395 19.5305384,11.9749828 L19.5305384,12.0250172 C19.5305384,12.2566605 19.3427544,12.4444444 19.1111111,12.4444444 C18.8794678,12.4444444 18.6916839,12.2566605 18.6916839,12.0250172 L18.6916839,11.9749828 C18.6916839,11.7433395 18.8794678,11.5555556 19.1111111,11.5555556 Z" id="Rectangle" transform="translate(19.111111, 12.000000) rotate(-270.000000) translate(-19.111111, -12.000000) "></path>
                        <path d="M18.2222222,11.5555556 C18.4538655,11.5555556 18.6416495,11.7433395 18.6416495,11.9749828 L18.6416495,12.0250172 C18.6416495,12.2566605 18.4538655,12.4444444 18.2222222,12.4444444 C17.9905789,12.4444444 17.802795,12.2566605 17.802795,12.0250172 L17.802795,11.9749828 C17.802795,11.7433395 17.9905789,11.5555556 18.2222222,11.5555556 Z" id="Rectangle" transform="translate(18.222222, 12.000000) rotate(-270.000000) translate(-18.222222, -12.000000) "></path>
                        <path d="M4.44444444,10.2222222 C4.67608772,10.2222222 4.86387169,10.4100062 4.86387169,10.6416495 L4.86387169,13.3583505 C4.86387169,13.5899938 4.67608772,13.7777778 4.44444444,13.7777778 C4.21280117,13.7777778 4.0250172,13.5899938 4.0250172,13.3583505 L4.0250172,10.6416495 C4.0250172,10.4100062 4.21280117,10.2222222 4.44444444,10.2222222 Z" id="Rectangle-Copy-2" transform="translate(4.444444, 12.000000) rotate(-270.000000) translate(-4.444444, -12.000000) "></path>
                        <path d="M22.2222222,10.2222222 C22.4538655,10.2222222 22.6416495,10.4100062 22.6416495,10.6416495 L22.6416495,13.3583505 C22.6416495,13.5899938 22.4538655,13.7777778 22.2222222,13.7777778 C21.9905789,13.7777778 21.802795,13.5899938 21.802795,13.3583505 L21.802795,10.6416495 C21.802795,10.4100062 21.9905789,10.2222222 22.2222222,10.2222222 Z" id="Rectangle-Copy" transform="translate(22.222222, 12.000000) scale(1, -1) rotate(270.000000) translate(-22.222222, -12.000000) "></path>
                        <path d="M0.888888889,11.1111111 C1.12053216,11.1111111 1.30831614,11.2988951 1.30831614,11.5305384 L1.30831614,12.4694616 C1.30831614,12.7011049 1.12053216,12.8888889 0.888888889,12.8888889 C0.657245616,12.8888889 0.46946164,12.7011049 0.46946164,12.4694616 L0.46946164,11.5305384 C0.46946164,11.2988951 0.657245616,11.1111111 0.888888889,11.1111111 Z" id="Rectangle" transform="translate(0.888889, 12.000000) rotate(-90.000000) translate(-0.888889, -12.000000) "></path>
                    </g>
                </g>
            </g>
        </g>
    </g>
</svg>