<?xml version="1.0" encoding="UTF-8"?>
<svg width="24px" height="24px" viewBox="0 0 24 24" version="1.1" xmlns="http://www.w3.org/2000/svg" xmlns:xlink="http://www.w3.org/1999/xlink">
    <title>编组 3</title>
    <g id="页面-1" stroke="none" stroke-width="1" fill="none" fill-rule="evenodd">
        <g id="开放社区_开发者专区_全部" transform="translate(-1489.000000, -2021.000000)">
            <g id="编组-2备份" transform="translate(1230.000000, 1999.000000)">
                <g id="编组-3" transform="translate(259.000000, 22.000000)">
                    <rect id="矩形" fill="#FFFFFF" x="0" y="0" width="24" height="24"></rect>
                    <path d="M17.6881773,11.9399197 C17.7143691,11.9928612 17.7279949,12.0511313 17.7279949,12.1101975 L17.7279949,16.470456 C17.7279949,16.8585581 17.5810679,17.232273 17.3167686,17.5164721 C15.8503374,19.0933152 14.1008789,19.9192807 12.068393,19.9943684 L11.7613974,20 C9.59755678,20 7.74575743,19.1721478 6.20599932,17.5164433 C5.94171489,17.2322352 5.79479988,16.8585235 5.79479988,16.470425 L5.79479988,12.1101975 C5.79479988,11.9246298 5.92642817,11.7698055 6.10141049,11.733999 L6.17879988,11.7261975 C6.23786608,11.7261975 6.29613613,11.7398233 6.34907764,11.7660151 L11.7613974,14.4436588 L17.1737172,11.7660151 L17.2465413,11.7386908 L17.3210697,11.7267829 C17.4704515,11.7179174 17.6176459,11.7973547 17.6881773,11.9399197 Z M16.7279949,16.470456 L16.727,13.102 L11.7613974,15.5593465 L6.794,13.102 L6.79479988,16.470425 C6.79479988,16.5719994 6.82363956,16.6707553 6.87696089,16.755619 L6.93828137,16.8354418 C8.2911591,18.2901935 9.87890524,19 11.7613974,19 C13.6438786,19 15.2316169,18.2902018 16.5844894,16.8354677 C16.6536622,16.7610866 16.6997957,16.6691312 16.7185406,16.5706725 L16.7279949,16.470456 Z M20.3963729,10.345975 C20.4126316,10.3747759 20.4211749,10.4072883 20.4211749,10.4403615 L20.4211749,17.5102133 C20.4211749,17.8772252 20.2245993,18.2161227 19.9060195,18.3983441 L19.8329905,18.4296415 L19.7572371,18.4431366 C19.6302777,18.4512196 19.5037155,18.3883248 19.4362913,18.2704463 C19.4065233,18.2184026 19.3908642,18.1594867 19.3908642,18.0995311 L19.3908642,10.8052162 C19.3908642,10.735957 19.4281652,10.6720658 19.4884777,10.6380182 L20.1347884,10.2731634 L20.1924478,10.2518539 L20.2517445,10.2496795 C20.3104237,10.256673 20.365096,10.2905704 20.3963729,10.345975 Z M11.9173728,4.01876077 L12.0168832,4.05700763 L20.3045851,8.15857533 C20.3800143,8.19590514 20.4410909,8.25698169 20.4784207,8.33241097 C20.5607296,8.49872576 20.5114304,8.69587076 20.3704848,8.80557607 L20.3045851,8.84689437 L12.0168832,12.9484621 C11.8880794,13.0122068 11.7413829,13.0249558 11.605422,12.9867089 L11.5059116,12.9484621 L3.21820974,8.84689437 C3.14278046,8.80956457 3.08170391,8.74848801 3.04437411,8.67305874 C2.96206523,8.50674394 3.01136435,8.30959895 3.15230997,8.19989363 L3.21820974,8.15857533 L11.5059116,4.05700763 C11.6347154,3.99326286 11.7814119,3.98051391 11.9173728,4.01876077 Z M11.766,5.044 L4.776,8.502 L11.756,11.961 L18.746,8.502 L11.766,5.044 Z" id="形状结合" fill="#07C160" fill-rule="nonzero"></path>
                </g>
            </g>
        </g>
    </g>
</svg>