<?xml version="1.0" encoding="UTF-8"?>
<svg width="24px" height="24px" viewBox="0 0 24 24" version="1.1" xmlns="http://www.w3.org/2000/svg" xmlns:xlink="http://www.w3.org/1999/xlink">
    <!-- Generator: Sketch 52.1 (67048) - http://www.bohemiancoding.com/sketch -->
    <title>Icon/Search</title>
    <desc>Created with Sketch.</desc>
    <g id="Icon/Search" stroke="none" stroke-width="1" fill="none" fill-rule="evenodd">
        <g id="search-icon-">
            <rect id="Rectangle" stroke="#979797" fill="#D8D8D8" opacity="0" x="0.5" y="0.5" width="23" height="23"></rect>
            <path d="M17.1760281,15.7618146 L22.7071068,21.2928932 L21.2928932,22.7071068 L15.7618146,17.1760281 C14.3145225,18.318298 12.4868729,19 10.5,19 C5.80557143,19 2,15.1944286 2,10.5 C2,5.80557143 5.80557143,2 10.5,2 C15.1944286,2 19,5.80557143 19,10.5 C19,12.4868729 18.318298,14.3145225 17.1760281,15.7618146 Z M17,10.5 C17,6.91014286 14.0898571,4 10.5,4 C6.91014286,4 4,6.91014286 4,10.5 C4,14.0898571 6.91014286,17 10.5,17 C14.0898571,17 17,14.0898571 17,10.5 Z" id="Fill-1" fill="#44B549"></path>
        </g>
    </g>
</svg>