<?xml version="1.0" encoding="UTF-8"?>
<svg width="15px" height="15px" viewBox="0 0 15 15" version="1.1" xmlns="http://www.w3.org/2000/svg" xmlns:xlink="http://www.w3.org/1999/xlink">
    <!-- Generator: Sketch 55.2 (78181) - https://sketchapp.com -->
    <title>编组 6</title>
    <desc>Created with Sketch.</desc>
    <g id="marcusfei-视觉" stroke="none" stroke-width="1" fill="none" fill-rule="evenodd">
        <g id="报告-Bug_审核" transform="translate(-667.000000, -385.000000)">
            <g id="tag-copy" transform="translate(390.000000, 356.000000)">
                <g id="Table">
                    <g id="release" transform="translate(24.000000, 0.000000)">
                        <g id="编组-6" transform="translate(253.000000, 29.000000)">
                            <path d="M7.5,15 C3.35786438,15 5.32907052e-15,11.6421356 5.32907052e-15,7.5 C5.32907052e-15,3.35786438 3.35786438,5.32907052e-15 7.5,5.32907052e-15 C11.6421356,5.32907052e-15 15,3.35786438 15,7.5 C15,11.6421356 11.6421356,15 7.5,15 Z M7.5,14.1 C11.1450793,14.1 14.1,11.1450793 14.1,7.5 C14.1,3.85492065 11.1450793,0.9 7.5,0.9 C3.85492065,0.9 0.9,3.85492065 0.9,7.5 C0.9,11.1450793 3.85492065,14.1 7.5,14.1 Z" id="Combined-Shape" fill="#00C777" fill-rule="nonzero"></path>
                            <path d="M7.5,11 C9.43299662,11 11,9.43299662 11,7.5 C11,5.56700338 9.43299662,4 7.5,4 C5.56700338,4 4,5.56700338 4,7.5 C4,9.43299662 5.56700338,11 7.5,11 Z" id="椭圆形" fill="#07C160"></path>
                        </g>
                    </g>
                </g>
            </g>
        </g>
    </g>
</svg>