<?xml version="1.0" encoding="UTF-8"?>
<svg width="197px" height="28px" viewBox="0 0 197 28" version="1.1" xmlns="http://www.w3.org/2000/svg" xmlns:xlink="http://www.w3.org/1999/xlink">
    <title>编组</title>
    <g id="终稿" stroke="none" stroke-width="1" fill="none" fill-rule="evenodd">
        <g id="已登录状态" transform="translate(-340.000000, -22.000000)">
            <g id="编组" transform="translate(340.000000, 22.000000)">
                <path d="M73.9283781,2.51328437 L75.6842844,3.20322187 C75.1540344,5.07200312 74.6183156,6.60062812 73.9364719,8.24190937 L73.9364719,25.4297531 L72.0930656,25.4297531 L72.0930656,11.9289406 C71.4363781,13.0148156 70.8413781,13.9077531 70.0586906,14.9684719 L68.6431594,13.6585969 C70.9597219,10.6245344 72.9129406,6.74347187 73.9283781,2.51328437 Z M90.3041562,17.0961875 L90.3041562,24.7999062 L77.7089687,24.7999062 L77.7089687,17.0961875 L90.3041562,17.0961875 Z M88.4102187,18.7882187 L79.6026875,18.7882187 L79.6026875,23.125375 L88.4102187,23.125375 L88.4102187,18.7882187 Z M90.3041562,13.358625 L90.3041562,15.000125 L77.7089687,15.000125 L77.7089687,13.358625 L90.3041562,13.358625 Z M90.3041562,9.6464375 L90.3041562,11.2625625 L77.7089687,11.2625625 L77.7089687,9.6464375 L90.3041562,9.6464375 Z M83.7736156,2.4609375 C84.1522719,3.1425625 84.9973031,4.72215625 85.5023969,5.73234375 L92.1438656,5.73234375 L92.1438656,7.5000625 L75.7295219,7.5000625 L75.7295219,5.73234375 L83.3560219,5.73234375 C82.8760844,4.848375 82.4182406,3.9865 82.0901156,3.430875 L83.7736156,2.4609375 Z" id="形状结合" fill="#4C4C4C"></path>
                <path d="M46.4488719,8.3125 L47.9470906,9.16475 C47.4818094,10.1725313 47.1628719,10.8121563 46.5169031,11.8975938 L46.5319969,25.4270625 L44.8264031,25.4270625 L44.8113094,14.4814688 C44.1137156,15.437625 43.6733719,15.9954375 42.9755594,16.7704688 L41.6304656,15.5150625 C43.3791531,13.6992188 45.2859969,10.8449688 46.4488719,8.3125 Z M61.0263062,3.07195 C61.0263062,3.68029375 61.0468687,4.77754375 60.9821187,5.73654375 L60.9821187,5.73654375 L65.94315,5.73041875 L65.94315,7.46641875 L64.799525,7.46423125 C64.7387125,12.0907938 64.06015,15.644825 62.867525,18.2293563 C63.84315,20.0944188 65.5144,22.412075 66.7208062,23.9256063 L66.7208062,23.9256063 L65.3759312,25.2954188 C63.8908375,23.075325 62.6212125,21.092575 62.0154937,19.9590125 C60.667775,22.5684813 59.210025,24.5203875 58.5524625,25.3330438 L58.5524625,25.3330438 L57.204525,24.1415125 C58.5087125,22.5868563 59.929275,20.5144188 61.0645875,18.1696375 C60.2729312,16.3901063 59.9854937,15.7491688 59.3428062,13.4127 C58.9700562,14.2166063 58.6688375,14.775075 58.3138062,15.3374813 L58.3138062,15.3374813 L57.0695562,14.2253563 C57.7778687,13.1617938 58.4153062,11.3737313 58.8154,9.5325125 C59.1743687,7.881825 59.4489,5.53354375 59.428775,3.07195 L59.428775,3.07195 Z M56.3498687,14.8191094 L56.3498687,19.5071406 C56.7204312,19.1884219 58.0268062,17.9419844 58.0268062,17.9419844 L58.0268062,17.9419844 L59.2399937,19.0759844 C58.420775,19.7678906 55.7594625,22.1839844 55.7594625,22.1839844 L55.7594625,22.1839844 L54.6401187,21.1374844 C54.76415,20.5227969 54.6937125,16.4984531 54.6937125,16.4984531 L54.6937125,16.4984531 L50.9929,16.4993281 L50.9929,18.7970781 C50.9929,21.2319844 50.6313062,22.7004531 48.9248375,24.5493281 L48.9248375,24.5493281 L47.668775,23.3820781 C48.7636187,22.1995156 49.3459312,21.0554531 49.3459312,18.4435781 L49.3459312,18.4435781 L49.3476812,14.8191094 L56.3498687,14.8191094 Z M63.2873062,7.46510625 L60.7369,7.46510625 C60.6399937,8.6015125 60.3932437,9.973075 60.1390562,10.83145 C60.6553062,13.0417 61.0348375,14.2026063 61.8868687,16.2582 C62.6807125,14.162575 63.1602125,11.2230125 63.2873062,7.46510625 L63.2873062,7.46510625 Z M56.63875,11.39775 L56.63875,13.0414375 L48.6305312,13.0414375 L48.6305312,11.39775 L56.63875,11.39775 Z M46.1664656,2.54040937 L47.7423406,3.44012812 C46.6052781,5.48150312 44.6413406,8.16906562 42.9101531,10.1071906 L41.5661531,8.86687812 C43.2459344,7.03200312 45.1326531,4.47853437 46.1664656,2.54040937 Z M53.8496219,2.46343125 L53.8496219,8.21743125 L55.4327156,8.21743125 L55.4327156,4.2753375 L57.0696219,4.27949375 L57.0696219,9.772525 L49.0423719,9.772525 L49.0423719,4.27949375 L50.6053406,4.2805875 L50.6053406,8.21743125 L52.1886531,8.21743125 L52.1886531,2.46343125 L53.8496219,2.46343125 Z" id="形状结合" fill="#4C4C4C"></path>
                <path d="M110.343406,14.1215594 C110.940594,16.1143719 111.638406,17.6093094 112.584719,18.8802469 C113.855656,17.3100594 114.652781,15.6915281 115.126375,13.8728406 L107.876781,13.8728406 L107.876781,23.0150594 C109.322062,22.0433719 110.51775,21.0716844 111.489437,20.1002156 C110.367687,18.5311219 109.570562,16.7876844 108.873844,14.6448094 L110.343406,14.1215594 Z M116.47125,4.15684063 C116.44675,4.70546563 116.371937,7.69446563 116.346344,8.06874688 C116.22275,9.93687188 115.574594,10.4347469 113.482469,10.4347469 L110.069531,10.4347469 L109.720625,8.81621562 L112.734781,8.81621562 C114.105031,8.81621562 114.503594,8.59112188 114.577531,7.62030938 C114.603125,7.27162188 114.652781,6.32421563 114.652781,5.90137188 L107.876781,5.90137188 L107.876781,12.2035594 L116.795875,12.2035594 L116.795875,13.8728406 C116.247031,16.2392781 115.275344,18.2574656 113.706469,20.1752469 C114.877,21.3711531 116.322062,22.3679969 118.164812,23.4886531 L117.069531,25.0080906 C115.201406,23.8618406 113.756125,22.7158094 112.584719,21.4459656 C111.563375,22.4918094 110.318031,23.5131531 108.848469,24.5850281 L107.876781,23.4632781 L107.876781,25.3314031 L106.183,25.3314031 L106.183,4.15684063 L116.47125,4.15684063 Z M98.8585937,9.96115313 L102.620219,9.96115313 L102.620219,5.90115313 L98.8585937,5.90115313 L98.8585937,9.96115313 Z M98.8340937,15.7158094 L102.620219,15.7158094 L102.620219,11.5809969 L98.8585937,11.5809969 L98.8585937,14.1712156 C98.8585937,14.7198406 98.8585937,15.2179344 98.8340937,15.7158094 L98.8340937,15.7158094 Z M97.1901875,13.4246219 L97.1901875,4.18221563 L104.314875,4.18221563 L104.314875,22.4419344 C104.314875,24.2107469 103.692094,24.7342156 101.673906,24.7342156 L99.5319062,24.7342156 L99.183,23.0402156 L101.126156,23.0402156 C102.396,23.0402156 102.620219,22.8162156 102.620219,21.7454344 L102.620219,17.3354344 L98.7844375,17.3354344 C98.609875,20.2747781 98.086625,22.7411844 96.7165937,25.3823719 L95.122125,24.5596531 C96.76625,21.7198406 97.1901875,20.0759344 97.1901875,13.4246219 L97.1901875,13.4246219 Z" id="Fill-15" fill="#4C4C4C"></path>
                <path d="M128.1427,6.67316562 C129.537231,8.14272812 131.1072,9.28875937 133.074638,10.2602281 C135.392294,9.18944687 137.260419,7.99354062 138.729981,6.62329062 L128.192356,6.62329062 L128.1427,6.67316562 Z M129.811981,16.3640094 L129.811981,16.3386344 C129.961169,15.3172906 130.085856,14.2220094 130.110356,13.8477281 L132.053513,13.8728844 C132.003637,14.2714469 131.87895,15.3172906 131.729981,16.3640094 L141.220888,16.3640094 C141.145856,17.1609156 140.748169,20.9977906 140.623481,21.9187281 C140.374106,23.9622906 139.427794,24.7086656 136.51295,24.7086656 L132.327169,24.7086656 L131.979356,23.0901344 L135.864794,23.0901344 C138.007888,23.0901344 138.555637,22.7158531 138.779638,21.1721344 C138.879169,20.4745406 139.153919,18.4561344 139.203575,17.9836344 L131.40645,17.9836344 C130.484419,21.4206344 128.267388,23.2391031 123.0362,25.4318531 L121.964106,23.8872594 C126.647763,22.0687906 128.590919,20.5992281 129.4377,17.9836344 L122.98545,17.9836344 L122.98545,16.3640094 L129.811981,16.3640094 Z M131.182231,11.0575719 C129.637638,10.1609156 128.242013,9.13957187 126.897356,7.86885312 C125.775606,8.91557187 124.530044,9.88704062 123.185169,10.7836969 L122.138669,9.48847812 C124.928606,7.59497812 127.793794,4.70550937 129.263356,2.51275937 L130.932638,3.26022812 C130.5087,3.88300937 130.060481,4.48129062 129.562606,5.07891562 L141.494763,5.07891562 L141.494763,6.59900937 C139.626638,8.34266562 137.58395,9.83760312 135.117325,11.1326031 C137.609325,12.0546344 140.697638,12.8021031 144.658981,13.4246656 L144.185387,15.1934781 C139.501731,14.3456031 136.014856,13.3992906 133.124513,12.0789156 C130.160013,13.3992906 126.623481,14.5199469 122.188325,15.5170094 L121.565544,13.7481969 C125.302888,13.0007281 128.491606,12.1042906 131.182231,11.0575719 L131.182231,11.0575719 Z" id="Fill-16" fill="#4C4C4C"></path>
                <path d="M166.712875,7.27577813 L168.233844,8.32359063 C167.336313,9.62034063 165.166531,12.6132781 163.969313,14.1088719 L162.472844,13.0367781 C163.7195,11.5654656 165.81425,8.62305938 166.712875,7.27577813 L166.712875,7.27577813 Z M151.524406,7.30115313 C152.596719,8.69721563 154.692344,11.4906531 155.814312,13.0367781 L154.267969,14.0845906 C153.146,12.4632156 151.101125,9.66999688 150.077812,8.34896563 L151.524406,7.30115313 Z M158.183156,15.3314656 L158.183156,5.90399687 L148.955844,5.90399687 L148.955844,4.05927813 L169.355594,4.05927813 L169.355594,5.90399687 L160.128281,5.90399687 L160.128281,15.3314656 L170.353969,15.3314656 L170.353969,17.2017781 L160.128281,17.2017781 L160.128281,25.0826844 L158.183156,25.0826844 L158.183156,17.2017781 L147.933188,17.2017781 L147.933188,15.3314656 L158.183156,15.3314656 Z" id="Fill-21" fill="#4C4C4C"></path>
                <path d="M179.033969,22.73075 L191.753188,22.73075 L191.753188,16.802625 L179.033969,16.802625 L179.033969,22.73075 Z M177.114,24.5511875 L193.672938,24.5511875 L193.672938,14.9821875 L177.114,14.9821875 L177.114,24.5511875 Z M189.134531,5.03190625 C190.755906,6.628125 194.147188,10.0690625 196.0175,12.0896563 L194.621438,13.4358438 C194.147188,12.9375313 193.573625,12.2885 192.925688,11.6154063 C190.232219,11.6904375 179.383313,12.0144063 177.862344,12.0896563 C177.038969,12.1393125 176.240969,12.1891875 175.268188,12.33925 L174.769656,10.4680625 C175.942375,10.269 176.391031,10.1187188 176.839906,9.77046875 C178.909063,8.22434375 182.226188,4.6825625 183.797906,2.41346875 L185.493438,3.41053125 C183.797906,5.6555625 181.078844,8.647625 179.134594,10.2193438 C180.854406,10.1939687 188.012563,9.96953125 191.254438,9.87 C189.932531,8.47284375 188.610406,7.12665625 187.788344,6.3030625 L189.134531,5.03190625 Z" id="Fill-22" fill="#4C4C4C"></path>
                <g id="logo" transform="translate(0.000044, -0.000022)">
                    <path d="M9.87238437,2.5643625 L9.87238437,2.5643625 C9.61907187,2.0358625 9.23297812,1.56533125 8.74669687,1.1731125 C8.31619687,0.82595625 7.80672812,0.5448625 7.24344687,0.34514375 L7.23513437,0.34055 L7.22900937,0.33945625 C6.63357187,0.13055 5.97841562,0.0133 5.28891562,0.0133 C3.94535312,0.0133 2.72888437,0.4538625 1.84097812,1.16589375 L13.0987281,25.334925 C13.3520406,25.863425 13.7532281,26.3387688 14.2392906,26.7309875 C14.6697906,27.0781438 15.1794781,27.3592375 15.7423219,27.5587375 L15.7510719,27.5633313 L15.7569781,27.564425 C16.3524156,27.7733313 17.0075719,27.8905813 17.6970719,27.8905813 C19.0406344,27.8905813 20.2571031,27.4502375 21.1450094,26.7379875 L9.87238437,2.5643625 Z" id="Fill-17" fill="#07C160"></path>
                    <path d="M19.71165,2.5643625 L19.71165,2.5643625 C19.4583375,2.0358625 19.0722437,1.56533125 18.5859625,1.1731125 C18.1554625,0.82595625 17.6459937,0.5448625 17.0829312,0.34514375 L17.0744,0.34055 L17.068275,0.33945625 C16.4728375,0.13055 15.8176812,0.0133 15.1281812,0.0133 C13.7846187,0.0133 12.56815,0.4538625 11.6802437,1.16589375 L22.9425875,25.3447688 C23.1956812,25.87305 23.5924937,26.3387688 24.0785562,26.7309875 C24.5090562,27.0781438 25.0187437,27.3592375 25.5815875,27.5587375 L25.5903375,27.5633313 L25.5962437,27.564425 C26.1916812,27.7733313 26.8468375,27.8905813 27.5363375,27.8905813 C28.8799,27.8905813 30.0963687,27.4502375 30.984275,26.7379875 L19.71165,2.5643625 Z" id="Fill-18" fill="#8385F3"></path>
                    <path d="M27.1607875,13.272 L32.8124125,1.1528125 C31.9245063,0.4405625 30.7080375,2.48689958e-15 29.3642563,2.48689958e-15 C28.9506,2.48689958e-15 28.5511625,0.0468125 28.1676938,0.12578125 C27.9121938,0.1785 27.6621625,0.24259375 27.4241625,0.32615625 L27.4180375,0.32725 L27.409725,0.3320625 C26.8464437,0.5315625 26.336975,0.81265625 25.906475,1.1598125 C25.4201938,1.55203125 25.0341,2.0225625 24.7810062,2.5510625 L23.4711312,5.3598125 L27.1607875,13.272 Z" id="Fill-19" fill="#07C160"></path>
                    <path d="M5.651625,14.6186688 L-3.10862447e-15,26.7378563 C0.88790625,27.4501063 2.104375,27.8906688 3.44815625,27.8906688 C3.8618125,27.8906688 4.26125,27.8438563 4.64471875,27.7648875 C4.90021875,27.7121688 5.15025,27.648075 5.38825,27.5645125 L5.394375,27.5634188 L5.4026875,27.5586063 C5.96596875,27.3591063 6.4754375,27.0780125 6.9059375,26.7308563 C7.39221875,26.3386375 7.77809375,25.8681063 8.03140625,25.3396063 L9.34128125,22.5308563 L5.651625,14.6186688 Z" id="Fill-20" fill="#8385F3"></path>
                </g>
            </g>
        </g>
    </g>
</svg>