<?xml version="1.0" encoding="UTF-8"?>
<svg width="24px" height="24px" viewBox="0 0 24 24" version="1.1" xmlns="http://www.w3.org/2000/svg" xmlns:xlink="http://www.w3.org/1999/xlink">
    <!-- Generator: Sketch 54.1 (76490) - https://sketchapp.com -->
    <title>sidecard_top_icon</title>
    <desc>Created with Sketch.</desc>
    <g id="sidecard_top_icon" stroke="none" stroke-width="1" fill="none" fill-rule="evenodd" fill-opacity="0">
        <g id="Group-35-Copy" transform="translate(4.000000, 3.000000)" fill="#FA9D3B" fill-rule="nonzero" stroke="#07C160" stroke-width="1.2">
            <path d="M3.86154376,3.27864308 L2.22222222,6.21724894e-15 L6.66666667,6.21724894e-15 L7.77777778,2.22222222 L8.88888889,6.21724894e-15 L13.3333333,6.21724894e-15 L11.6940118,3.27864308 C14.0037066,4.62730624 15.5555556,7.13242625 15.5555556,10 C15.5555556,14.2955481 12.0733258,17.7777778 7.77777778,17.7777778 C3.48222972,17.7777778 5.32907052e-14,14.2955481 5.32907052e-14,10 C5.32907052e-14,7.13242625 1.55184895,4.62730624 3.86154376,3.27864308 Z M7.82477052,11.8315595 L9.88201891,12.913119 L9.48911943,10.6223392 L11.1534683,9 L8.85339471,8.66577974 L7.82477052,6.58155948 L6.79614633,8.66577974 L4.49607272,9 L6.16042162,10.6223392 L5.76752214,12.913119 L7.82477052,11.8315595 Z" id="Combined-Shape"></path>
        </g>
    </g>
</svg>