<?xml version="1.0" encoding="UTF-8"?>
<svg width="24px" height="24px" viewBox="0 0 24 24" version="1.1" xmlns="http://www.w3.org/2000/svg" xmlns:xlink="http://www.w3.org/1999/xlink">
    <!-- Generator: Sketch 54.1 (76490) - https://sketchapp.com -->
    <title>sidecard_question_icon</title>
    <desc>Created with Sketch.</desc>
    <g id="sidecard_question_icon" stroke="none" stroke-width="1" fill="none" fill-rule="evenodd">
        <g id="Group-17" transform="translate(3.000000, 3.000000)">
            <circle id="Oval" stroke="#07C160" stroke-width="1.2" fill-opacity="0" fill="#FFC300" cx="9.04761905" cy="9.04761905" r="8.44761905"></circle>
            <path d="M9.15044149,4.50064047 C9.96110816,4.50064047 10.6197748,4.71597381 11.1264415,5.17197381 C11.6331082,5.61530714 11.8864415,6.22330714 11.8864415,6.98330714 C11.8864415,7.60397381 11.7217748,8.12330714 11.4051082,8.52864047 C11.2911082,8.66797381 10.9364415,8.99730714 10.3411082,9.51664047 C10.1004415,9.71930714 9.92310816,9.94730714 9.80910816,10.1753071 C9.66977482,10.4286405 9.60644149,10.7073071 9.60644149,11.0113071 L9.60644149,11.2266405 L8.25110816,11.2266405 L8.25110816,11.0113071 C8.25110816,10.5426405 8.32710816,10.1373071 8.50444149,9.80797381 C8.66910816,9.45330714 9.15044149,8.93397381 9.93577482,8.23730714 L10.1511082,7.99664047 C10.3791082,7.70530714 10.5057748,7.40130714 10.5057748,7.07197381 C10.5057748,6.62864047 10.3791082,6.28664047 10.1384415,6.03330714 C9.88510816,5.77997381 9.51777482,5.65330714 9.06177482,5.65330714 C8.49177482,5.65330714 8.07377482,5.83064047 7.82044149,6.19797381 C7.59244149,6.50197381 7.47844149,6.93264047 7.47844149,7.48997381 L6.14844149,7.48997381 C6.14844149,6.56530714 6.41444149,5.84330714 6.94644149,5.31130714 C7.47844149,4.76664047 8.21310816,4.50064047 9.15044149,4.50064047 Z M8.92244149,11.9106405 C9.18844149,11.9106405 9.41644149,11.9866405 9.59377482,12.1639738 C9.77110816,12.3286405 9.85977482,12.5439738 9.85977482,12.8099738 C9.85977482,13.0759738 9.75844149,13.2913071 9.58110816,13.4686405 C9.40377482,13.6333071 9.17577482,13.7219738 8.92244149,13.7219738 C8.66910816,13.7219738 8.44110816,13.6333071 8.26377482,13.4559738 C8.08644149,13.2786405 7.99777482,13.0633071 7.99777482,12.8099738 C7.99777482,12.5439738 8.08644149,12.3286405 8.26377482,12.1639738 C8.44110816,11.9866405 8.66910816,11.9106405 8.92244149,11.9106405 Z" id="？" fill="#07C160" fill-rule="nonzero"></path>
        </g>
    </g>
</svg>