<?xml version="1.0" encoding="UTF-8"?>
<svg width="14px" height="13px" viewBox="0 0 14 13" version="1.1" xmlns="http://www.w3.org/2000/svg" xmlns:xlink="http://www.w3.org/1999/xlink">
    <!-- Generator: Sketch 61.1 (89650) - https://sketch.com -->
    <title>3.Icons/Outlined/share Copy</title>
    <desc>Created with Sketch.</desc>
    <g id="全部稿" stroke="none" stroke-width="1" fill="none" fill-rule="evenodd">
        <g id="小主页-/-登录态-/-未标记-copy-4" transform="translate(-1136.000000, -160.000000)" fill="#576B95">
            <g id="Group-24" transform="translate(390.000000, 126.000000)">
                <g id="Group" transform="translate(745.000000, 28.000000)">
                    <g id="3.Icons/Filled/star" transform="translate(0.000000, 4.000000)">
                        <g id="Group-25">
                            <path d="M8,12.3333333 L4.88522292,13.9708686 C4.55932653,14.1422024 4.15624176,14.0169047 3.98490789,13.6910084 C3.91668184,13.5612347 3.89313872,13.4125893 3.91792328,13.2680842 L4.51279277,9.79972898 L4.51279277,9.79972898 L1.99288518,7.34342615 C1.72922946,7.08642534 1.72383459,6.66434983 1.9808354,6.40069411 C2.08317447,6.29570502 2.21726941,6.22738024 2.36236076,6.20629723 L5.84478741,5.70027102 L5.84478741,5.70027102 L7.40217595,2.54465717 C7.56512414,2.21448806 7.9648747,2.07892873 8.29504381,2.24187692 C8.42651888,2.30676375 8.53293722,2.4131821 8.59782405,2.54465717 L10.1552126,5.70027102 L10.1552126,5.70027102 L13.6376392,6.20629723 C14.0020025,6.25924231 14.2544568,6.59753754 14.2015117,6.96190079 C14.1804287,7.10699214 14.1121039,7.24108708 14.0071148,7.34342615 L11.4872072,9.79972898 L11.4872072,9.79972898 L12.0820767,13.2680842 C12.1443174,13.6309752 11.9005922,13.9756125 11.5377012,14.0378532 C11.3931961,14.0626377 11.2445507,14.0390946 11.1147771,13.9708686 L8,12.3333333 L8,12.3333333 Z" id="图标颜色"></path>
                        </g>
                    </g>
                </g>
            </g>
        </g>
    </g>
</svg>