<?xml version="1.0" encoding="UTF-8"?>
<svg width="32px" height="32px" viewBox="0 0 32 32" version="1.1" xmlns="http://www.w3.org/2000/svg" xmlns:xlink="http://www.w3.org/1999/xlink">
    <!-- Generator: Sketch 53.2 (72643) - https://sketchapp.com -->
    <title>Icon / Message Center</title>
    <desc>Created with Sketch.</desc>
    <g id="Page-1" stroke="none" stroke-width="1" fill="none" fill-rule="evenodd">
        <g id="Icon-/-Message-Center">
            <circle id="Oval" fill="#07C160" cx="16" cy="16" r="16"></circle>
            <g id="3.Icons/Filled/email" transform="translate(8.000000, 8.000000)" fill="#FFFFFF" stroke-width="1">
                <g id="common_icons_email">
                    <path d="M2,2.66666667 L14,2.66666667 C14.3681898,2.66666667 14.6666667,2.9651435 14.6666667,3.33333333 L14.6666667,12.6666667 C14.6666667,13.0348565 14.3681898,13.3333333 14,13.3333333 L2,13.3333333 C1.63181017,13.3333333 1.33333333,13.0348565 1.33333333,12.6666667 L1.33333333,3.33333333 C1.33333333,2.9651435 1.63181017,2.66666667 2,2.66666667 Z M12.6876525,3.94289893 L8.10411584,7.60972824 C8.04324607,7.65842406 7.95675393,7.65842406 7.89588416,7.60972824 L3.31234752,3.94289893 L2.68765248,4.72376774 L7.27118911,8.39059705 C7.69727754,8.73146779 8.30272246,8.73146779 8.72881089,8.39059705 L13.3123475,4.72376774 L12.6876525,3.94289893 Z" id="图标颜色"></path>
                </g>
            </g>
        </g>
    </g>
</svg>