<svg width="24" height="24" viewBox="0 0 24 24" fill="none" xmlns="http://www.w3.org/2000/svg">
<path fill-rule="evenodd" clip-rule="evenodd" d="M18.4118 6.49997L17.6107 20.1174C17.5486 21.1745 16.6731 22 15.6142 22H8.38581C7.32686 22 6.45145 21.1745 6.38926 20.1174L5.58824 6.49997H3.5V5.49997C3.5 5.22382 3.72386 4.99997 4 4.99997H20C20.2761 4.99997 20.5 5.22382 20.5 5.49997V6.49997H18.4118ZM10 2.5H14C14.2761 2.5 14.5 2.72386 14.5 3V3.99997H9.5V3C9.5 2.72386 9.72386 2.5 10 2.5ZM9 8.99995L9.5 18H11L10.6 8.99995H9ZM13.5 8.99995L13 18H14.5L15 8.99995H13.5Z" fill="white" fill-opacity="0.8"/>
</svg>
