<svg width="12" height="16" viewBox="0 0 12 16" fill="none" xmlns="http://www.w3.org/2000/svg">
<path d="M3.98698 3H7.32031V2.33333C7.32031 2.14924 7.17107 2 6.98698 2H4.32031C4.13622 2 3.98698 2.14924 3.98698 2.33333V3Z" fill="black"/>
<path d="M3.9375 6.09994L4.13693 12.0999H5.13748L4.93805 6.09994H3.9375Z" fill="black"/>
<path d="M7.39595 6.09994L7.19652 12.0999H6.19597L6.3954 6.09994H7.39595Z" fill="black"/>
<path fill-rule="evenodd" clip-rule="evenodd" d="M0 4.46647H1.37933L1.91295 13.5118C1.95452 14.2164 2.53809 14.7666 3.24397 14.7666H8.06332C8.7692 14.7666 9.35277 14.2164 9.39434 13.5118L9.92797 4.46647H11.3333V3.7998C11.3333 3.61571 11.1841 3.46647 11 3.46647H0.333334C0.149239 3.46647 0 3.61571 0 3.7998V4.46647ZM2.91122 13.4529L2.38107 4.46647H8.92623L8.39608 13.4529C8.38568 13.6291 8.23979 13.7666 8.06332 13.7666H3.24397C3.0675 13.7666 2.92161 13.6291 2.91122 13.4529Z" fill="black"/>
</svg>
