<?xml version="1.0" encoding="UTF-8"?>
<svg width="14px" height="13px" viewBox="0 0 14 13" version="1.1" xmlns="http://www.w3.org/2000/svg" xmlns:xlink="http://www.w3.org/1999/xlink">
    <!-- Generator: Sketch 63.1 (92452) - https://sketch.com -->
    <title>3.Icons/Outlined/share Copy</title>
    <desc>Created with Sketch.</desc>
    <g id="全部稿" stroke="none" stroke-width="1" fill="none" fill-rule="evenodd">
        <g id="小主页-/-登录态-/-未标记-copy-14" transform="translate(-1136.000000, -138.000000)" fill="#576B95">
            <g id="Group-24" transform="translate(390.000000, 104.000000)">
                <g id="Group" transform="translate(745.000000, 28.000000)">
                    <g id="3.Icons/Outlined/star" transform="translate(0.000000, 4.000000)">
                        <g id="Group-25" transform="translate(1.333333, 2.000000)">
                            <path d="M9.29428944,7.52043306 L11.9219122,4.95913388 L8.29062685,4.43147723 L6.66666667,1.1409745 L5.04270649,4.43147723 L1.41142113,4.95913388 L4.0390439,7.52043306 L3.4187463,11.1370455 L6.66666667,9.42951275 L9.91458703,11.1370455 L9.29428944,7.52043306 Z M6.66666667,10.3333333 L3.55188959,11.9708686 C3.22599319,12.1422024 2.82290842,12.0169047 2.65157455,11.6910084 C2.58334851,11.5612347 2.55980539,11.4125893 2.58458995,11.2680842 L3.17945944,7.79972898 L0.659551848,5.34342615 C0.395896129,5.08642534 0.390501258,4.66434983 0.647502066,4.40069411 C0.749841136,4.29570502 0.883936077,4.22738024 1.02902743,4.20629723 L4.51145407,3.70027102 L6.06884262,0.544657167 C6.23179081,0.214488061 6.63154137,0.0789287281 6.96171047,0.241876924 C7.09318554,0.30676375 7.19960389,0.413182097 7.26449072,0.544657167 L8.82187926,3.70027102 L12.3043059,4.20629723 C12.6686691,4.25924231 12.9211234,4.59753754 12.8681784,4.96190079 C12.8470954,5.10699214 12.7787706,5.24108708 12.6737815,5.34342615 L10.1538739,7.79972898 L10.7487434,11.2680842 C10.8109841,11.6309752 10.5672588,11.9756125 10.2043679,12.0378532 C10.0598628,12.0626377 9.9112174,12.0390946 9.78144375,11.9708686 L6.66666667,10.3333333 Z" id="图标颜色"></path>
                        </g>
                    </g>
                </g>
            </g>
        </g>
    </g>
</svg>