<svg width="16" height="16" viewBox="0 0 16 16" fill="none" xmlns="http://www.w3.org/2000/svg">
<path fill-rule="evenodd" clip-rule="evenodd" d="M1.99967 3.66675C1.63148 3.66675 1.33301 3.96522 1.33301 4.33341V11.6667C1.33301 12.0349 1.63148 12.3334 1.99967 12.3334H10.6663C11.0345 12.3334 11.333 12.0349 11.333 11.6667V9.72437L14.3789 11.1797C14.8213 11.3911 15.3329 11.0685 15.3329 10.5781V5.41822C15.3329 4.92751 14.8207 4.60496 14.3782 4.81702L11.333 6.27627V4.33341C11.333 3.96522 11.0345 3.66675 10.6663 3.66675H1.99967ZM11.333 7.38516V8.61609L14.3329 10.0495V5.94758L11.333 7.38516ZM2.33301 4.66675V11.3334H10.333V4.66675H2.33301Z" fill="black"/>
</svg>
