<?xml version="1.0" encoding="UTF-8"?>
<svg width="48px" height="40px" viewBox="0 0 48 40" version="1.1" xmlns="http://www.w3.org/2000/svg" xmlns:xlink="http://www.w3.org/1999/xlink">
    <!-- Generator: Sketch 51.2 (57519) - http://www.bohemiancoding.com/sketch -->
    <title>WeChat</title>
    <desc>Created with Sketch.</desc>
    <defs></defs>
    <g id="Page-1" stroke="none" stroke-width="1" fill="none" fill-rule="evenodd">
        <g id="拉起开发者工具" transform="translate(-615.000000, -343.000000)">
            <g id="WeChat" transform="translate(611.000000, 335.000000)">
                <rect id="Rectangle-3" fill-opacity="0" fill="#D8D8D8" fill-rule="nonzero" x="0" y="0" width="56" height="56"></rect>
                <path d="M46.9152189,43.352899 C49.9592011,41.0843626 51.9044468,37.7289594 51.9044468,34.001685 C51.9044468,27.1685526 45.4393307,21.6296296 37.4644185,21.6296296 C29.4895063,21.6296296 23.0243902,27.1685526 23.0243902,34.001685 C23.0243902,40.8342059 29.4895063,46.3737405 37.4644185,46.3737405 C39.112226,46.3737405 40.7029253,46.1315349 42.1776237,45.694831 C42.3120658,45.6532401 42.4548361,45.6299982 42.6023654,45.6299982 C42.8795778,45.6299982 43.1318054,45.7168496 43.369161,45.8581362 L46.529739,47.7346176 C46.6183756,47.7866062 46.7040378,47.8263622 46.808736,47.8263622 C47.0746458,47.8263622 47.2893961,47.604952 47.2893961,47.332165 C47.2893961,47.2092273 47.2424009,47.0869013 47.2120622,46.9700799 C47.193621,46.9003541 46.8045719,45.4067531 46.5612675,44.4746287 C46.5339032,44.3694283 46.510703,44.2685094 46.510703,44.1590276 C46.510703,43.8269124 46.6707247,43.5321066 46.9152189,43.352899 M32.6506792,32.0218381 C31.5876351,32.0218381 30.7256593,31.135586 30.7256593,30.0419912 C30.7256593,28.9490081 31.5876351,28.0627559 32.6506792,28.0627559 C33.7143181,28.0627559 34.5768887,28.9490081 34.5768887,30.0419912 C34.5768887,31.135586 33.7143181,32.0218381 32.6506792,32.0218381 M42.2781578,32.0218381 C41.2145189,32.0218381 40.3525431,31.135586 40.3525431,30.0419912 C40.3525431,28.9490081 41.2145189,28.0627559 42.2781578,28.0627559 C43.3412019,28.0627559 44.2031777,28.9490081 44.2031777,30.0419912 C44.2031777,31.135586 43.3412019,32.0218381 42.2781578,32.0218381" id="Fill-25" fill="#9A9A9A"></path>
                <path d="M21.327558,8 C11.7571875,8 4,14.6471969 4,22.8467112 C4,27.3201743 6.33369988,31.3471475 9.98683548,34.0682902 C10.2807044,34.283584 10.4722546,34.6364946 10.4722546,35.0365008 C10.4722546,35.1673896 10.4442954,35.2884924 10.4109823,35.4144882 C10.1194929,36.5337715 9.65251497,38.3252363 9.63050455,38.4090296 C9.59421709,38.5497046 9.53710896,38.6958842 9.53710896,38.8432871 C9.53710896,39.1711208 9.79588017,39.43718 10.1153288,39.43718 C10.2402528,39.43718 10.3431664,39.3894728 10.4484595,39.3264749 L14.2419859,37.0744526 C14.5275266,36.9056426 14.8291289,36.8010539 15.1622596,36.8010539 C15.3395328,36.8010539 15.5102623,36.8279656 15.6714738,36.8793425 C17.4412309,37.4022863 19.3501891,37.6934223 21.327558,37.6934223 C21.6470066,37.6934223 21.9640757,37.6848595 22.2793601,37.6701804 C21.9028034,36.5117528 21.6975711,35.2927738 21.6975711,34.0315924 C21.6975711,26.5531901 28.7724354,20.4907117 37.500461,20.4907117 C37.8169352,20.4907117 38.1298402,20.5011094 38.4415554,20.5170118 C37.1363967,13.4245481 29.972301,8 21.327558,8 M15.5519036,20.4711395 C14.275299,20.4711395 13.2408091,19.4075146 13.2408091,18.0955679 C13.2408091,16.7836211 14.275299,15.7199962 15.5519036,15.7199962 C16.8273185,15.7199962 17.8618085,16.7836211 17.8618085,18.0955679 C17.8618085,19.4075146 16.8273185,20.4711395 15.5519036,20.4711395 M27.1038073,20.4711395 C25.8272026,20.4711395 24.7933076,19.4075146 24.7933076,18.0955679 C24.7933076,16.7836211 25.8272026,15.7199962 27.1038073,15.7199962 C28.379817,15.7199962 29.414307,16.7836211 29.414307,18.0955679 C29.414307,19.4075146 28.379817,20.4711395 27.1038073,20.4711395" id="Fill-26" fill="#9A9A9A"></path>
            </g>
        </g>
    </g>
</svg>