<?xml version="1.0" encoding="UTF-8"?>
<svg width="24px" height="24px" viewBox="0 0 24 24" version="1.1" xmlns="http://www.w3.org/2000/svg" xmlns:xlink="http://www.w3.org/1999/xlink">
    <title>画板</title>
    <defs>
        <linearGradient x1="50.0555556%" y1="94.1503497%" x2="50.0555556%" y2="0.436538462%" id="linearGradient-1">
            <stop stop-color="#05CD66" offset="0%"></stop>
            <stop stop-color="#61F380" offset="100%"></stop>
            <stop stop-color="#9EEE69" offset="100%"></stop>
        </linearGradient>
        <linearGradient x1="50.0888889%" y1="93.5351252%" x2="50.0888889%" y2="-0.0360587002%" id="linearGradient-2">
            <stop stop-color="#E4E6E6" offset="0%"></stop>
            <stop stop-color="#F0F0F0" offset="100%"></stop>
        </linearGradient>
    </defs>
    <g id="画板" stroke="none" stroke-width="1" fill="none" fill-rule="evenodd">
        <g id="symbol" transform="translate(2.000000, 4.000000)">
            <path d="M0,5.94958998 C0,7.73446697 0.970916124,9.36509534 2.47142286,10.4448357 C2.60382052,10.5329778 2.67001934,10.6651909 2.67001934,10.8414751 C2.67001934,10.8855461 2.64795307,10.9516527 2.64795307,10.9957237 C2.53762169,11.4364341 2.33902521,12.1636062 2.31695893,12.1856417 C2.29489266,12.2517483 2.27282638,12.2958193 2.27282638,12.3619258 C2.27282638,12.494139 2.38315776,12.6043165 2.51555541,12.6043165 C2.55968796,12.6043165 2.60382052,12.582281 2.64795307,12.5602455 L4.21465863,11.6567893 C4.32499001,11.5906827 4.45738766,11.5466117 4.58978531,11.5466117 C4.65598414,11.5466117 4.74424924,11.5466117 4.81044807,11.5686472 C5.53863516,11.7890024 6.33302108,11.89918 7.14947328,11.89918 C11.0993366,11.89918 14.2989466,9.23288223 14.2989466,5.94958998 C14.2989466,2.66629773 11.0993366,0 7.14947328,0 C3.19960995,1.56571776e-15 0,2.66629773 0,5.94958998" id="XMLID_140_" fill="url(#linearGradient-1)"></path>
            <path d="M13.8108299,15.4005701 C14.4932361,15.4005701 15.1536292,15.3117657 15.747983,15.1341568 C15.7920092,15.1119557 15.8580486,15.1119557 15.9240879,15.1119557 C16.0341534,15.1119557 16.1442189,15.1563579 16.2322713,15.2007601 L17.5310445,15.9555978 C17.5750707,15.9777989 17.5970838,16 17.64111,16 C17.7511755,16 17.8392279,15.9111956 17.8392279,15.80019 C17.8392279,15.7557878 17.8172148,15.7113856 17.8172148,15.6447823 C17.8172148,15.6225812 17.64111,15.0231513 17.5530576,14.6457325 C17.5310445,14.6013303 17.5310445,14.556928 17.5310445,14.5125258 C17.5310445,14.3793192 17.5970838,14.2683137 17.7071493,14.1795092 C18.9618962,13.2692638 19.7543679,11.9149963 19.7543679,10.405321 C19.7543679,7.65238375 17.0907824,5.41007194 13.8108299,5.41007194 C10.5308774,5.41007194 7.86729188,7.63018265 7.86729188,10.405321 C7.86729188,13.1582583 10.5308774,15.4005701 13.8108299,15.4005701 Z" id="XMLID_137_" fill="url(#linearGradient-2)"></path>
            <path d="M5.68512333,4.02877698 C5.68512333,4.5427472 5.27913848,4.94964029 4.76631552,4.94964029 C4.25349255,4.94964029 3.84750771,4.5427472 3.84750771,4.02877698 C3.84750771,3.51480676 4.25349255,3.10791367 4.76631552,3.10791367 C5.27913848,3.10791367 5.68512333,3.51480676 5.68512333,4.02877698" id="XMLID_135_" fill="#168743"></path>
            <path d="M10.4514388,4.02877698 C10.4514388,4.5427472 10.045454,4.94964029 9.53263104,4.94964029 C9.01980807,4.94964029 8.61382323,4.5427472 8.61382323,4.02877698 C8.61382323,3.51480676 9.01980807,3.10791367 9.53263104,3.10791367 C10.045454,3.10791367 10.4514388,3.51480676 10.4514388,4.02877698" id="XMLID_134_" fill="#168743"></path>
            <path d="M15.0454779,8.86330935 C15.0454779,9.31095124 15.4027921,9.66906475 15.8494347,9.66906475 C16.2960774,9.66906475 16.6533916,9.31095124 16.6533916,8.86330935 C16.6533916,8.41566747 16.2960774,8.05755396 15.8494347,8.05755396 C15.4027921,8.05755396 15.0454779,8.41566747 15.0454779,8.86330935" id="XMLID_133_" fill="#919191"></path>
            <path d="M11.0831192,8.86330935 C11.0831192,9.31095124 11.4404334,9.66906475 11.8870761,9.66906475 C12.3337187,9.66906475 12.6910329,9.31095124 12.6910329,8.86330935 C12.6910329,8.41566747 12.3337187,8.05755396 11.8870761,8.05755396 C11.4404334,8.05755396 11.0831192,8.41566747 11.0831192,8.86330935" id="XMLID_132_" fill="#919191"></path>
        </g>
    </g>
</svg>