<?xml version="1.0" encoding="UTF-8"?>
<svg width="88px" height="17px" viewBox="0 0 88 17" version="1.1" xmlns="http://www.w3.org/2000/svg" xmlns:xlink="http://www.w3.org/1999/xlink">
    <title>星星</title>
    <g id="页面-1" stroke="none" stroke-width="1" fill="none" fill-rule="evenodd" opacity="0.902544">
        <g id="机构主页B端管理列表" transform="translate(-1006.000000, -1100.000000)" fill="#FFC300" fill-rule="nonzero">
            <g id="编组-38备份-2" transform="translate(1006.000000, 1098.500000)">
                <g id="星星" transform="translate(0.000000, 2.000000)">
                    <path d="M62,12 L58.4933661,13.8435465 C58.1674697,14.0148804 57.7643849,13.8895827 57.5930511,13.5636864 C57.524825,13.4339127 57.5012819,13.2852673 57.5260664,13.1407622 L58.1957739,9.23606798 L58.1957739,9.23606798 L55.3588475,6.47074815 C55.0951918,6.21374735 55.0897969,5.79167184 55.3467977,5.52801612 C55.4491368,5.42302703 55.5832317,5.35470224 55.7283231,5.33361924 L59.648859,4.76393202 L59.648859,4.76393202 L61.4021759,1.21132383 C61.5651241,0.881154727 61.9648747,0.745595395 62.2950438,0.90854359 C62.4265189,0.973430416 62.5329372,1.07984876 62.5978241,1.21132383 L64.351141,4.76393202 L64.351141,4.76393202 L68.2716769,5.33361924 C68.6360402,5.38656431 68.8884945,5.72485955 68.8355494,6.08922279 C68.8144664,6.23431414 68.7461416,6.36840908 68.6411525,6.47074815 L65.8042261,9.23606798 L65.8042261,9.23606798 L66.4739336,13.1407622 C66.5361742,13.5036532 66.292449,13.8482905 65.929558,13.9105311 C65.785053,13.9353157 65.6364076,13.9117726 65.5066339,13.8435465 L62,12 L62,12 Z" id="Star--3"></path>
                    <path d="M44,12 L40.4933661,13.8435465 C40.1674697,14.0148804 39.7643849,13.8895827 39.5930511,13.5636864 C39.524825,13.4339127 39.5012819,13.2852673 39.5260664,13.1407622 L40.1957739,9.23606798 L40.1957739,9.23606798 L37.3588475,6.47074815 C37.0951918,6.21374735 37.0897969,5.79167184 37.3467977,5.52801612 C37.4491368,5.42302703 37.5832317,5.35470224 37.7283231,5.33361924 L41.648859,4.76393202 L41.648859,4.76393202 L43.4021759,1.21132383 C43.5651241,0.881154727 43.9648747,0.745595395 44.2950438,0.90854359 C44.4265189,0.973430416 44.5329372,1.07984876 44.5978241,1.21132383 L46.351141,4.76393202 L46.351141,4.76393202 L50.2716769,5.33361924 C50.6360402,5.38656431 50.8884945,5.72485955 50.8355494,6.08922279 C50.8144664,6.23431414 50.7461416,6.36840908 50.6411525,6.47074815 L47.8042261,9.23606798 L47.8042261,9.23606798 L48.4739336,13.1407622 C48.5361742,13.5036532 48.292449,13.8482905 47.929558,13.9105311 C47.785053,13.9353157 47.6364076,13.9117726 47.5066339,13.8435465 L44,12 L44,12 Z" id="Star--6"></path>
                    <path d="M80,12 L76.4933661,13.8435465 C76.1674697,14.0148804 75.7643849,13.8895827 75.5930511,13.5636864 C75.524825,13.4339127 75.5012819,13.2852673 75.5260664,13.1407622 L76.1957739,9.23606798 L76.1957739,9.23606798 L73.3588475,6.47074815 C73.0951918,6.21374735 73.0897969,5.79167184 73.3467977,5.52801612 C73.4491368,5.42302703 73.5832317,5.35470224 73.7283231,5.33361924 L77.648859,4.76393202 L77.648859,4.76393202 L79.4021759,1.21132383 C79.5651241,0.881154727 79.9648747,0.745595395 80.2950438,0.90854359 C80.4265189,0.973430416 80.5329372,1.07984876 80.5978241,1.21132383 L82.351141,4.76393202 L82.351141,4.76393202 L86.2716769,5.33361924 C86.6360402,5.38656431 86.8884945,5.72485955 86.8355494,6.08922279 C86.8144664,6.23431414 86.7461416,6.36840908 86.6411525,6.47074815 L83.8042261,9.23606798 L83.8042261,9.23606798 L84.4739336,13.1407622 C84.5361742,13.5036532 84.292449,13.8482905 83.929558,13.9105311 C83.785053,13.9353157 83.6364076,13.9117726 83.5066339,13.8435465 L80,12 L80,12 Z" id="Star--3"></path>
                    <path d="M8,12 L4.49336608,13.8435465 C4.16746969,14.0148804 3.76438492,13.8895827 3.59305105,13.5636864 C3.524825,13.4339127 3.50128189,13.2852673 3.52606645,13.1407622 L4.19577393,9.23606798 L4.19577393,9.23606798 L1.3588475,6.47074815 C1.09519178,6.21374735 1.08979691,5.79167184 1.34679772,5.52801612 C1.44913679,5.42302703 1.58323173,5.35470224 1.72832309,5.33361924 L5.64885899,4.76393202 L5.64885899,4.76393202 L7.40217595,1.21132383 C7.56512414,0.881154727 7.9648747,0.745595395 8.29504381,0.90854359 C8.42651888,0.973430416 8.53293722,1.07984876 8.59782405,1.21132383 L10.351141,4.76393202 L10.351141,4.76393202 L14.2716769,5.33361924 C14.6360402,5.38656431 14.8884945,5.72485955 14.8355494,6.08922279 C14.8144664,6.23431414 14.7461416,6.36840908 14.6411525,6.47074815 L11.8042261,9.23606798 L11.8042261,9.23606798 L12.4739336,13.1407622 C12.5361742,13.5036532 12.292449,13.8482905 11.929558,13.9105311 C11.785053,13.9353157 11.6364076,13.9117726 11.5066339,13.8435465 L8,12 L8,12 Z" id="Star--7"></path>
                    <path d="M26,12 L22.4933661,13.8435465 C22.1674697,14.0148804 21.7643849,13.8895827 21.5930511,13.5636864 C21.524825,13.4339127 21.5012819,13.2852673 21.5260664,13.1407622 L22.1957739,9.23606798 L22.1957739,9.23606798 L19.3588475,6.47074815 C19.0951918,6.21374735 19.0897969,5.79167184 19.3467977,5.52801612 C19.4491368,5.42302703 19.5832317,5.35470224 19.7283231,5.33361924 L23.648859,4.76393202 L23.648859,4.76393202 L25.4021759,1.21132383 C25.5651241,0.881154727 25.9648747,0.745595395 26.2950438,0.90854359 C26.4265189,0.973430416 26.5329372,1.07984876 26.5978241,1.21132383 L28.351141,4.76393202 L28.351141,4.76393202 L32.2716769,5.33361924 C32.6360402,5.38656431 32.8884945,5.72485955 32.8355494,6.08922279 C32.8144664,6.23431414 32.7461416,6.36840908 32.6411525,6.47074815 L29.8042261,9.23606798 L29.8042261,9.23606798 L30.4739336,13.1407622 C30.5361742,13.5036532 30.292449,13.8482905 29.929558,13.9105311 C29.785053,13.9353157 29.6364076,13.9117726 29.5066339,13.8435465 L26,12 L26,12 Z" id="star"></path>
                </g>
            </g>
        </g>
    </g>
</svg>