<?xml version="1.0" encoding="UTF-8"?>
<svg width="142px" height="22px" viewBox="0 0 142 22" version="1.1" xmlns="http://www.w3.org/2000/svg" xmlns:xlink="http://www.w3.org/1999/xlink">
    <title>star</title>
    <g id="åˆ‡ç‰‡" stroke="none" stroke-width="1" fill="none" fill-rule="evenodd">
        <g id="ç”»æ¿" transform="translate(-69.000000, -130.000000)" fill="#FFC300" fill-rule="nonzero">
            <g id="star" transform="translate(69.000000, 130.000000)">
                <path d="M131,16.5 L126.178378,19.0348765 C125.730271,19.2704606 125.176029,19.0981763 124.940445,18.6500687 C124.846634,18.47163 124.814263,18.2672426 124.848341,18.0685481 L125.769189,12.6995935 L125.769189,12.6995935 L121.868415,8.89727871 C121.505889,8.5439026 121.498471,7.96354878 121.851847,7.60102216 C121.992563,7.45666216 122.176944,7.36271559 122.376444,7.33372645 L127.767181,6.55040653 L127.767181,6.55040653 L130.177992,1.66557027 C130.402046,1.21158775 130.951703,1.02519367 131.405685,1.24924744 C131.586463,1.33846682 131.732789,1.48479205 131.822008,1.66557027 L134.232819,6.55040653 L134.232819,6.55040653 L139.623556,7.33372645 C140.124555,7.40652593 140.47168,7.87168188 140.39888,8.37268134 C140.369891,8.57218195 140.275945,8.75656249 140.131585,8.89727871 L136.230811,12.6995935 L136.230811,12.6995935 L137.151659,18.0685481 C137.23724,18.5675231 136.902117,19.0413994 136.403142,19.1269803 C136.204448,19.1610591 136.00006,19.1286873 135.821622,19.0348765 L131,16.5 L131,16.5 Z" id="Star--3"></path>
                <path d="M71,16.5 L66.1783784,19.0348765 C65.7302708,19.2704606 65.1760293,19.0981763 64.9404452,18.6500687 C64.8466344,18.47163 64.8142626,18.2672426 64.8483414,18.0685481 L65.7691892,12.6995935 L65.7691892,12.6995935 L61.8684153,8.89727871 C61.5058887,8.5439026 61.4984708,7.96354878 61.8518469,7.60102216 C61.9925631,7.45666216 62.1769436,7.36271559 62.3764442,7.33372645 L67.7671811,6.55040653 L67.7671811,6.55040653 L70.1779919,1.66557027 C70.4020457,1.21158775 70.9517027,1.02519367 71.4056852,1.24924744 C71.5864635,1.33846682 71.7327887,1.48479205 71.8220081,1.66557027 L74.2328189,6.55040653 L74.2328189,6.55040653 L79.6235558,7.33372645 C80.1245552,7.40652593 80.4716799,7.87168188 80.3988804,8.37268134 C80.3698913,8.57218195 80.2759447,8.75656249 80.1315847,8.89727871 L76.2308108,12.6995935 L76.2308108,12.6995935 L77.1516586,18.0685481 C77.2372396,18.5675231 76.9021174,19.0413994 76.4031423,19.1269803 C76.2044478,19.1610591 76.0000604,19.1286873 75.8216216,19.0348765 L71,16.5 L71,16.5 Z" id="Star--6"></path>
                <path d="M101,16.5 L96.1783784,19.0348765 C95.7302708,19.2704606 95.1760293,19.0981763 94.9404452,18.6500687 C94.8466344,18.47163 94.8142626,18.2672426 94.8483414,18.0685481 L95.7691892,12.6995935 L95.7691892,12.6995935 L91.8684153,8.89727871 C91.5058887,8.5439026 91.4984708,7.96354878 91.8518469,7.60102216 C91.9925631,7.45666216 92.1769436,7.36271559 92.3764442,7.33372645 L97.7671811,6.55040653 L97.7671811,6.55040653 L100.177992,1.66557027 C100.402046,1.21158775 100.951703,1.02519367 101.405685,1.24924744 C101.586463,1.33846682 101.732789,1.48479205 101.822008,1.66557027 L104.232819,6.55040653 L104.232819,6.55040653 L109.623556,7.33372645 C110.124555,7.40652593 110.47168,7.87168188 110.39888,8.37268134 C110.369891,8.57218195 110.275945,8.75656249 110.131585,8.89727871 L106.230811,12.6995935 L106.230811,12.6995935 L107.151659,18.0685481 C107.23724,18.5675231 106.902117,19.0413994 106.403142,19.1269803 C106.204448,19.1610591 106.00006,19.1286873 105.821622,19.0348765 L101,16.5 L101,16.5 Z" id="Star--3"></path>
                <path d="M41,16.5 L36.1783784,19.0348765 C35.7302708,19.2704606 35.1760293,19.0981763 34.9404452,18.6500687 C34.8466344,18.47163 34.8142626,18.2672426 34.8483414,18.0685481 L35.7691892,12.6995935 L35.7691892,12.6995935 L31.8684153,8.89727871 C31.5058887,8.5439026 31.4984708,7.96354878 31.8518469,7.60102216 C31.9925631,7.45666216 32.1769436,7.36271559 32.3764442,7.33372645 L37.7671811,6.55040653 L37.7671811,6.55040653 L40.1779919,1.66557027 C40.4020457,1.21158775 40.9517027,1.02519367 41.4056852,1.24924744 C41.5864635,1.33846682 41.7327887,1.48479205 41.8220081,1.66557027 L44.2328189,6.55040653 L44.2328189,6.55040653 L49.6235558,7.33372645 C50.1245552,7.40652593 50.4716799,7.87168188 50.3988804,8.37268134 C50.3698913,8.57218195 50.2759447,8.75656249 50.1315847,8.89727871 L46.2308108,12.6995935 L46.2308108,12.6995935 L47.1516586,18.0685481 C47.2372396,18.5675231 46.9021174,19.0413994 46.4031423,19.1269803 C46.2044478,19.1610591 46.0000604,19.1286873 45.8216216,19.0348765 L41,16.5 L41,16.5 Z" id="Star--7"></path>
                <path d="M11,16.5 L6.17837837,19.0348765 C5.73027083,19.2704606 5.17602927,19.0981763 4.94044519,18.6500687 C4.84663438,18.47163 4.8142626,18.2672426 4.84834137,18.0685481 L5.76918916,12.6995935 L5.76918916,12.6995935 L1.86841532,8.89727871 C1.5058887,8.5439026 1.49847076,7.96354878 1.85184687,7.60102216 C1.99256309,7.45666216 2.17694363,7.36271559 2.37644424,7.33372645 L7.76718111,6.55040653 L7.76718111,6.55040653 L10.1779919,1.66557027 C10.4020457,1.21158775 10.9517027,1.02519367 11.4056852,1.24924744 C11.5864635,1.33846682 11.7327887,1.48479205 11.8220081,1.66557027 L14.2328189,6.55040653 L14.2328189,6.55040653 L19.6235558,7.33372645 C20.1245552,7.40652593 20.4716799,7.87168188 20.3988804,8.37268134 C20.3698913,8.57218195 20.2759447,8.75656249 20.1315847,8.89727871 L16.2308108,12.6995935 L16.2308108,12.6995935 L17.1516586,18.0685481 C17.2372396,18.5675231 16.9021174,19.0413994 16.4031423,19.1269803 C16.2044478,19.1610591 16.0000604,19.1286873 15.8216216,19.0348765 L11,16.5 L11,16.5 Z"></path>
            </g>
        </g>
    </g>
</svg>