<svg id="图层_1" data-name="图层 1" xmlns="http://www.w3.org/2000/svg" viewBox="0 0 32 32"><title>画板 1</title><g id="Artboard"><g id="Stroke-2"><path id="Stroke-1" d="M10.39,6.06A10.26,10.26,0,0,1,20.62,11.7,1,1,0,0,1,20.16,13a1,1,0,0,1-1.33-.46,8.26,8.26,0,0,0-8.21-4.53A7.22,7.22,0,0,0,4,16a6.42,6.42,0,0,0,7.33,6.08c1.9-.26,3.27-1.25,5-3.32L17.77,17l.57-.67.39-.42c1.63-1.75,3.16-2.58,5.16-2.58A5.92,5.92,0,0,1,30,18.86c.37,3.83-2.93,6.94-7,7.13H15a1,1,0,0,1-1-1,1,1,0,0,1,.82-1H22.6c3.13,0,5.65-2.27,5.39-4.94a3.94,3.94,0,0,0-4.1-3.73A4.57,4.57,0,0,0,20.5,17l-.44.46-.48.55-.84,1-.48.6c-2.18,2.72-4,4.11-6.63,4.47A8.42,8.42,0,0,1,2,16.12,9.23,9.23,0,0,1,10.39,6.06Z"/></g></g></svg>